M48
; DRILL file {KiCad 9.0.5} date 2026-01-12T20:45:53+0200
; FORMAT={-:-/ absolute / inch / decimal}
; #@! TF.CreationDate,2026-01-12T20:45:53+02:00
; #@! TF.GenerationSoftware,Kicad,Pcbnew,9.0.5
; #@! TF.FileFunction,Plated,1,2,PTH
FMAT,2
INCH
; #@! TA.AperFunction,Plated,PTH,ViaDrill
T1C0.0118
; #@! TA.AperFunction,Plated,PTH,ComponentDrill
T2C0.0236
; #@! TA.AperFunction,Plated,PTH,ViaDrill
T3C0.0315
; #@! TA.AperFunction,Plated,PTH,ComponentDrill
T4C0.0354
; #@! TA.AperFunction,Plated,PTH,ComponentDrill
T5C0.0394
; #@! TA.AperFunction,Plated,PTH,ComponentDrill
T6C0.0398
; #@! TA.AperFunction,Plated,PTH,ComponentDrill
T7C0.0591
; #@! TA.AperFunction,Plated,PTH,ComponentDrill
T8C0.1063
%
G90
G05
T1
X4.3012Y-3.9394
X4.4413Y-4.0264
X4.5134Y-3.7039
X4.5142Y-3.7984
X4.5602Y-4.6567
X4.561Y-4.1551
X4.561Y-4.463
X4.6768Y-4.0252
X4.6996Y-4.3823
X4.7331Y-3.752
X4.848Y-4.7789
X4.8819Y-3.6823
X4.9059Y-3.752
X4.9776Y-3.5622
X5.0201Y-3.9673
X5.1559Y-3.8571
X5.2311Y-4.3701
X5.2976Y-3.9697
X5.3906Y-4.4555
X5.3945Y-4.6402
X5.3996Y-4.8429
X6.0854Y-3.7173
X6.2134Y-3.8839
X6.3693Y-3.7063
T3
X5.3161Y-3.7181
T4
X7.0219Y-4.1035
X7.0436Y-4.1792
X7.0653Y-4.2549
T5
X5.474Y-2.9981
X5.5447Y-3.0688
X5.6154Y-3.1395
T6
X4.6933Y-3.3366
X4.8941Y-3.3839
T7
X6.9991Y-4.024
X7.0881Y-4.3343
T8
X5.9331Y-3.7173
X6.2165Y-3.7173
T2
G00X5.8091Y-3.4594
M15
G01X5.8091Y-3.5028
M16
G05
G00X6.3406Y-3.4594
M15
G01X6.3406Y-3.5028
M16
G05
T5
G00X6.0551Y-3.5736
M15
G01X6.0945Y-3.5736
M16
G05
M30
