%TF.GenerationSoftware,KiCad,Pcbnew,9.0.5*%
%TF.CreationDate,2026-01-12T20:45:55+02:00*%
%TF.ProjectId,PSB-100-A,5053422d-3130-4302-9d41-2e6b69636164,rev?*%
%TF.SameCoordinates,Original*%
%TF.FileFunction,Paste,Top*%
%TF.FilePolarity,Positive*%
%FSLAX46Y46*%
G04 Gerber Fmt 4.6, Leading zero omitted, Abs format (unit mm)*
G04 Created by KiCad (PCBNEW 9.0.5) date 2026-01-12 20:45:55*
%MOMM*%
%LPD*%
G01*
G04 APERTURE LIST*
G04 Aperture macros list*
%AMRoundRect*
0 Rectangle with rounded corners*
0 $1 Rounding radius*
0 $2 $3 $4 $5 $6 $7 $8 $9 X,Y pos of 4 corners*
0 Add a 4 corners polygon primitive as box body*
4,1,4,$2,$3,$4,$5,$6,$7,$8,$9,$2,$3,0*
0 Add four circle primitives for the rounded corners*
1,1,$1+$1,$2,$3*
1,1,$1+$1,$4,$5*
1,1,$1+$1,$6,$7*
1,1,$1+$1,$8,$9*
0 Add four rect primitives between the rounded corners*
20,1,$1+$1,$2,$3,$4,$5,0*
20,1,$1+$1,$4,$5,$6,$7,0*
20,1,$1+$1,$6,$7,$8,$9,0*
20,1,$1+$1,$8,$9,$2,$3,0*%
%AMFreePoly0*
4,1,9,3.862500,-0.866500,0.737500,-0.866500,0.737500,-0.450000,-0.737500,-0.450000,-0.737500,0.450000,0.737500,0.450000,0.737500,0.866500,3.862500,0.866500,3.862500,-0.866500,3.862500,-0.866500,$1*%
G04 Aperture macros list end*
%ADD10RoundRect,0.250000X0.350000X0.450000X-0.350000X0.450000X-0.350000X-0.450000X0.350000X-0.450000X0*%
%ADD11RoundRect,0.250000X-0.625000X0.375000X-0.625000X-0.375000X0.625000X-0.375000X0.625000X0.375000X0*%
%ADD12RoundRect,0.250000X-0.350000X-0.450000X0.350000X-0.450000X0.350000X0.450000X-0.350000X0.450000X0*%
%ADD13RoundRect,0.420000X-0.980000X1.080000X-0.980000X-1.080000X0.980000X-1.080000X0.980000X1.080000X0*%
%ADD14RoundRect,0.250000X-0.400000X-0.450000X0.400000X-0.450000X0.400000X0.450000X-0.400000X0.450000X0*%
%ADD15RoundRect,0.250000X-2.025000X-2.375000X2.025000X-2.375000X2.025000X2.375000X-2.025000X2.375000X0*%
%ADD16RoundRect,0.250000X-2.050000X-0.300000X2.050000X-0.300000X2.050000X0.300000X-2.050000X0.300000X0*%
%ADD17RoundRect,0.225000X-0.225000X0.425000X-0.225000X-0.425000X0.225000X-0.425000X0.225000X0.425000X0*%
%ADD18FreePoly0,270.000000*%
%ADD19RoundRect,0.250000X1.125000X-1.275000X1.125000X1.275000X-1.125000X1.275000X-1.125000X-1.275000X0*%
%ADD20RoundRect,0.250000X0.350000X-0.850000X0.350000X0.850000X-0.350000X0.850000X-0.350000X-0.850000X0*%
%ADD21RoundRect,0.250000X1.000000X-1.950000X1.000000X1.950000X-1.000000X1.950000X-1.000000X-1.950000X0*%
%ADD22RoundRect,0.250000X-1.950000X-1.000000X1.950000X-1.000000X1.950000X1.000000X-1.950000X1.000000X0*%
%ADD23RoundRect,0.250000X-0.450000X0.350000X-0.450000X-0.350000X0.450000X-0.350000X0.450000X0.350000X0*%
%ADD24RoundRect,0.250000X-1.000000X-0.650000X1.000000X-0.650000X1.000000X0.650000X-1.000000X0.650000X0*%
G04 APERTURE END LIST*
D10*
%TO.C,R6*%
X121200000Y-89010000D03*
X119200000Y-89010000D03*
%TD*%
D11*
%TO.C,D1*%
X129270000Y-75030000D03*
X129270000Y-77830000D03*
%TD*%
D12*
%TO.C,R8*%
X125820000Y-92090000D03*
X127820000Y-92090000D03*
%TD*%
D10*
%TO.C,R7*%
X113250000Y-97760000D03*
X111250000Y-97760000D03*
%TD*%
D13*
%TO.C,DO5022P1*%
X102910000Y-103840000D03*
X102910000Y-119210000D03*
%TD*%
D14*
%TO.C,D2*%
X124922500Y-89060000D03*
X127822500Y-89060000D03*
%TD*%
D15*
%TO.C,U1*%
X128370000Y-115210000D03*
X128370000Y-120760000D03*
X133220000Y-115210000D03*
X133220000Y-120760000D03*
D16*
X121645000Y-114585000D03*
X121645000Y-116285000D03*
X121645000Y-117985000D03*
X121645000Y-119685000D03*
X121645000Y-121385000D03*
%TD*%
D17*
%TO.C,Q2*%
X118862500Y-95300000D03*
D18*
X117362500Y-95387500D03*
D17*
X115862500Y-95300000D03*
%TD*%
D12*
%TO.C,R9*%
X111290000Y-95360000D03*
X113290000Y-95360000D03*
%TD*%
D19*
%TO.C,Q1*%
X112055000Y-87645000D03*
X115105000Y-87645000D03*
X112055000Y-84295000D03*
X115105000Y-84295000D03*
D20*
X111300000Y-92270000D03*
X115860000Y-92270000D03*
%TD*%
D21*
%TO.C,C11*%
X115860000Y-109680000D03*
X115860000Y-102280000D03*
%TD*%
D22*
%TO.C,C17*%
X123720000Y-100710000D03*
X131120000Y-100710000D03*
%TD*%
D12*
%TO.C,R33*%
X149280000Y-104790000D03*
X151280000Y-104790000D03*
%TD*%
D23*
%TO.C,R5*%
X132510000Y-75820000D03*
X132510000Y-77820000D03*
%TD*%
D24*
%TO.C,D11*%
X102910000Y-100040000D03*
X106910002Y-100040000D03*
%TD*%
M02*
