%TF.GenerationSoftware,KiCad,Pcbnew,9.0.5*%
%TF.CreationDate,2026-01-12T20:45:55+02:00*%
%TF.ProjectId,PSB-100-A,5053422d-3130-4302-9d41-2e6b69636164,rev?*%
%TF.SameCoordinates,Original*%
%TF.FileFunction,Copper,L2,Bot*%
%TF.FilePolarity,Positive*%
%FSLAX46Y46*%
G04 Gerber Fmt 4.6, Leading zero omitted, Abs format (unit mm)*
G04 Created by KiCad (PCBNEW 9.0.5) date 2026-01-12 20:45:55*
%MOMM*%
%LPD*%
G01*
G04 APERTURE LIST*
G04 Aperture macros list*
%AMRoundRect*
0 Rectangle with rounded corners*
0 $1 Rounding radius*
0 $2 $3 $4 $5 $6 $7 $8 $9 X,Y pos of 4 corners*
0 Add a 4 corners polygon primitive as box body*
4,1,4,$2,$3,$4,$5,$6,$7,$8,$9,$2,$3,0*
0 Add four circle primitives for the rounded corners*
1,1,$1+$1,$2,$3*
1,1,$1+$1,$4,$5*
1,1,$1+$1,$6,$7*
1,1,$1+$1,$8,$9*
0 Add four rect primitives between the rounded corners*
20,1,$1+$1,$2,$3,$4,$5,0*
20,1,$1+$1,$4,$5,$6,$7,0*
20,1,$1+$1,$6,$7,$8,$9,0*
20,1,$1+$1,$8,$9,$2,$3,0*%
%AMHorizOval*
0 Thick line with rounded ends*
0 $1 width*
0 $2 $3 position (X,Y) of the first rounded end (center of the circle)*
0 $4 $5 position (X,Y) of the second rounded end (center of the circle)*
0 Add line between two ends*
20,1,$1,$2,$3,$4,$5,0*
0 Add two circle primitives to create the rounded ends*
1,1,$1,$2,$3*
1,1,$1,$4,$5*%
%AMRotRect*
0 Rectangle, with rotation*
0 The origin of the aperture is its center*
0 $1 length*
0 $2 width*
0 $3 Rotation angle, in degrees counterclockwise*
0 Add horizontal line*
21,1,$1,$2,0,0,$3*%
G04 Aperture macros list end*
%TA.AperFunction,ComponentPad*%
%ADD10HorizOval,2.200000X0.624820X0.179164X-0.624820X-0.179164X0*%
%TD*%
%TA.AperFunction,ComponentPad*%
%ADD11RotRect,1.500000X2.500000X106.000000*%
%TD*%
%TA.AperFunction,ComponentPad*%
%ADD12HorizOval,1.500000X0.480631X0.137819X-0.480631X-0.137819X0*%
%TD*%
%TA.AperFunction,ComponentPad*%
%ADD13C,2.010000*%
%TD*%
%TA.AperFunction,ComponentPad*%
%ADD14R,0.900000X2.000000*%
%TD*%
%TA.AperFunction,ComponentPad*%
%ADD15RoundRect,1.025000X-1.025000X-1.025000X1.025000X-1.025000X1.025000X1.025000X-1.025000X1.025000X0*%
%TD*%
%TA.AperFunction,ComponentPad*%
%ADD16C,4.100000*%
%TD*%
%TA.AperFunction,ComponentPad*%
%ADD17R,2.300000X1.300000*%
%TD*%
%TA.AperFunction,ComponentPad*%
%ADD18RotRect,1.700000X1.700000X225.000000*%
%TD*%
%TA.AperFunction,ComponentPad*%
%ADD19C,1.700000*%
%TD*%
%TA.AperFunction,SMDPad,CuDef*%
%ADD20RoundRect,0.250000X0.475000X-0.337500X0.475000X0.337500X-0.475000X0.337500X-0.475000X-0.337500X0*%
%TD*%
%TA.AperFunction,ViaPad*%
%ADD21C,0.600000*%
%TD*%
%TA.AperFunction,ViaPad*%
%ADD22C,1.500000*%
%TD*%
%TA.AperFunction,Conductor*%
%ADD23C,0.500000*%
%TD*%
%TA.AperFunction,Conductor*%
%ADD24C,1.000000*%
%TD*%
%TA.AperFunction,Conductor*%
%ADD25C,0.400000*%
%TD*%
%TA.AperFunction,Conductor*%
%ADD26C,1.500000*%
%TD*%
G04 APERTURE END LIST*
D10*
%TO.P,SW4,*%
%TO.N,*%
X180037590Y-110092448D03*
X177777364Y-102210104D03*
D11*
%TO.P,SW4,1,C*%
%TO.N,GND*%
X179458752Y-108073799D03*
D12*
%TO.P,SW4,2,B*%
%TO.N,Net-(SW4-B)*%
X178907479Y-106151276D03*
%TO.P,SW4,3,A*%
%TO.N,Net-(SW4-A)*%
X178356203Y-104228752D03*
%TD*%
D13*
%TO.P,F1,1*%
%TO.N,Net-(BT1-+)*%
X124310000Y-85950000D03*
%TO.P,F1,2*%
%TO.N,Net-(Q1-D)*%
X119210000Y-84750000D03*
%TD*%
D14*
%TO.P,BT1,*%
%TO.N,*%
X147550000Y-88420000D03*
X161050000Y-88420000D03*
D15*
%TO.P,BT1,1,+*%
%TO.N,Net-(BT1-+)*%
X150700000Y-94420000D03*
D16*
%TO.P,BT1,2,-*%
%TO.N,GND*%
X157900000Y-94420000D03*
D17*
%TO.P,BT1,3*%
%TO.N,N/C*%
X154300000Y-90770000D03*
%TD*%
D18*
%TO.P,J8,1,Pin_1*%
%TO.N,+5V*%
X139040000Y-76151000D03*
D19*
%TO.P,J8,2,Pin_2*%
%TO.N,GND*%
X140836051Y-77947051D03*
%TO.P,J8,3,Pin_3*%
%TO.N,BAT*%
X142632102Y-79743102D03*
%TD*%
D20*
%TO.P,C9,1*%
%TO.N,+5V*%
X125390000Y-109340000D03*
%TO.P,C9,2*%
%TO.N,GND*%
X125390000Y-107265000D03*
%TD*%
D21*
%TO.N,GND*%
X137150000Y-123010000D03*
X157820000Y-98650000D03*
X118790000Y-102240000D03*
X130960000Y-97970000D03*
X114640000Y-94080000D03*
X115850000Y-105540000D03*
X132870000Y-111000000D03*
X134560000Y-100830000D03*
X137020000Y-117860000D03*
X112810000Y-102270000D03*
X114660000Y-96480000D03*
X154570000Y-94420000D03*
X127510000Y-100770000D03*
X109250000Y-100060000D03*
X161780000Y-94140000D03*
X136920000Y-113170000D03*
X124000000Y-93530000D03*
X126430000Y-90480000D03*
%TO.N,+5V*%
X119370000Y-111310000D03*
X115830000Y-118280000D03*
X115850000Y-113360000D03*
%TO.N,Net-(D2-A)*%
X124610000Y-95300000D03*
X120220000Y-95300000D03*
D22*
%TO.N,Net-(BT1-+)*%
X135030000Y-94440000D03*
D21*
%TO.N,Net-(SW4-B)*%
X123140000Y-121385000D03*
%TD*%
D23*
%TO.N,Net-(SW4-B)*%
X123145000Y-121390000D02*
X156200000Y-121390000D01*
X156200000Y-121390000D02*
X171438724Y-106151276D01*
X171438724Y-106151276D02*
X178907479Y-106151276D01*
X123140000Y-121385000D02*
X123145000Y-121390000D01*
D24*
%TO.N,+5V*%
X119370000Y-111310000D02*
X125390000Y-111310000D01*
X125390000Y-111310000D02*
X128900000Y-111310000D01*
X125390000Y-109340000D02*
X125390000Y-111310000D01*
X139040000Y-101170000D02*
X139040000Y-76151000D01*
X115850000Y-118260000D02*
X115830000Y-118280000D01*
X115850000Y-113360000D02*
X115850000Y-118260000D01*
X128900000Y-111310000D02*
X139040000Y-101170000D01*
D25*
%TO.N,Net-(D2-A)*%
X120220000Y-95300000D02*
X124610000Y-95300000D01*
D26*
%TO.N,Net-(BT1-+)*%
X135030000Y-94440000D02*
X135010000Y-94440000D01*
X135010000Y-94440000D02*
X126520000Y-85950000D01*
X126520000Y-85950000D02*
X124310000Y-85950000D01*
%TD*%
%TA.AperFunction,Conductor*%
%TO.N,GND*%
G36*
X101405538Y-70047217D02*
G01*
X101844108Y-70156470D01*
X101983096Y-70191094D01*
X102381837Y-70283559D01*
X103946994Y-70646508D01*
X105918047Y-71069900D01*
X105918098Y-71069910D01*
X107895703Y-71461150D01*
X107895711Y-71461151D01*
X107895729Y-71461155D01*
X108549472Y-71579466D01*
X109879533Y-71820174D01*
X111868873Y-72146851D01*
X111868881Y-72146852D01*
X111868886Y-72146853D01*
X113863308Y-72441114D01*
X115862256Y-72702875D01*
X117547278Y-72895689D01*
X117865205Y-72932070D01*
X119871570Y-73128630D01*
X119871602Y-73128632D01*
X119871606Y-73128633D01*
X121880947Y-73292517D01*
X121880973Y-73292518D01*
X121880989Y-73292520D01*
X122485846Y-73331954D01*
X123892689Y-73423675D01*
X125906299Y-73522075D01*
X127921244Y-73587689D01*
X129936990Y-73620500D01*
X129937016Y-73620500D01*
X131019133Y-73620500D01*
X131019177Y-73620497D01*
X131952978Y-73620497D01*
X131953004Y-73620497D01*
X133968750Y-73587686D01*
X135983695Y-73522072D01*
X137997305Y-73423673D01*
X139554835Y-73322127D01*
X140009004Y-73292517D01*
X140009016Y-73292516D01*
X140009047Y-73292514D01*
X142018388Y-73128631D01*
X142018396Y-73128630D01*
X142018423Y-73128628D01*
X144024788Y-72932068D01*
X144159900Y-72916607D01*
X146027738Y-72702873D01*
X148026685Y-72441112D01*
X150021107Y-72146851D01*
X150626592Y-72047422D01*
X152010460Y-71820172D01*
X152367534Y-71755550D01*
X153994264Y-71461153D01*
X155971947Y-71069898D01*
X157943000Y-70646507D01*
X159734678Y-70231029D01*
X159906896Y-70191093D01*
X159908851Y-70190605D01*
X160484400Y-70047230D01*
X160554207Y-70050126D01*
X160611369Y-70090304D01*
X160613333Y-70092837D01*
X160687510Y-70191092D01*
X160719912Y-70234011D01*
X161459736Y-71152552D01*
X161724674Y-71461153D01*
X162228001Y-72047432D01*
X163023961Y-72917785D01*
X163846826Y-73762745D01*
X164695786Y-74581483D01*
X164695804Y-74581500D01*
X165569986Y-75373172D01*
X165570002Y-75373186D01*
X165570008Y-75373191D01*
X166468629Y-76137092D01*
X166468642Y-76137102D01*
X167390771Y-76872438D01*
X168335508Y-77578488D01*
X168956447Y-78012877D01*
X169301940Y-78254573D01*
X170289095Y-78900012D01*
X171296007Y-79514172D01*
X172321685Y-80096451D01*
X173365121Y-80646275D01*
X173625511Y-80773206D01*
X173687119Y-80803238D01*
X173738755Y-80850307D01*
X173746648Y-80865597D01*
X174540903Y-82707362D01*
X174541628Y-82709078D01*
X175394808Y-84772201D01*
X175395508Y-84773929D01*
X176217605Y-86849685D01*
X176218278Y-86851422D01*
X177009084Y-88939286D01*
X177009731Y-88941034D01*
X177769078Y-91040560D01*
X177769698Y-91042317D01*
X178497388Y-93152959D01*
X178497982Y-93154725D01*
X179193873Y-95276063D01*
X179194441Y-95277838D01*
X179858387Y-97409436D01*
X179858928Y-97411219D01*
X180490772Y-99552571D01*
X180491286Y-99554363D01*
X181090864Y-101704916D01*
X181091351Y-101706714D01*
X181658571Y-103866131D01*
X181659030Y-103867937D01*
X182193699Y-106035491D01*
X182194132Y-106037304D01*
X182696191Y-108212745D01*
X182696596Y-108214563D01*
X183165886Y-110397205D01*
X183166265Y-110399030D01*
X183602734Y-112588643D01*
X183603084Y-112590473D01*
X184006579Y-114786279D01*
X184006902Y-114788115D01*
X184288794Y-116463422D01*
X184280506Y-116532798D01*
X184236026Y-116586680D01*
X184203744Y-116602276D01*
X182340912Y-117188652D01*
X182339224Y-117189170D01*
X179950976Y-117903711D01*
X179949280Y-117904205D01*
X177551134Y-118584647D01*
X177549432Y-118585117D01*
X175141819Y-119231337D01*
X175140110Y-119231783D01*
X172723473Y-119843662D01*
X172721757Y-119844083D01*
X170296749Y-120421456D01*
X170295028Y-120421853D01*
X167861974Y-120964643D01*
X167860248Y-120965015D01*
X165419762Y-121473084D01*
X165418030Y-121473432D01*
X162970516Y-121946697D01*
X162968780Y-121947020D01*
X160514760Y-122385380D01*
X160513019Y-122385678D01*
X158053016Y-122789037D01*
X158051271Y-122789310D01*
X155585843Y-123157580D01*
X155584095Y-123157829D01*
X153113543Y-123490965D01*
X153111790Y-123491188D01*
X150636881Y-123789083D01*
X150635126Y-123789282D01*
X148156163Y-124051904D01*
X148154406Y-124052078D01*
X145671877Y-124279372D01*
X145670117Y-124279520D01*
X143184680Y-124471426D01*
X143182918Y-124471549D01*
X140695073Y-124628030D01*
X140693310Y-124628129D01*
X138203346Y-124749166D01*
X138201581Y-124749239D01*
X135710218Y-124834797D01*
X135708452Y-124834845D01*
X133216127Y-124884909D01*
X133214361Y-124884932D01*
X130721440Y-124899493D01*
X130719681Y-124899491D01*
X128247418Y-124878862D01*
X128245667Y-124878835D01*
X125773810Y-124823279D01*
X125772059Y-124823227D01*
X123301304Y-124732759D01*
X123299554Y-124732683D01*
X120830182Y-124607314D01*
X120828433Y-124607212D01*
X118361215Y-124446980D01*
X118359468Y-124446854D01*
X115894766Y-124251785D01*
X115893020Y-124251635D01*
X113431238Y-124021759D01*
X113429495Y-124021584D01*
X110971203Y-123756954D01*
X110969463Y-123756754D01*
X108515225Y-123457431D01*
X108513488Y-123457207D01*
X106063655Y-123123235D01*
X106061921Y-123122986D01*
X103617050Y-122754438D01*
X103615319Y-122754164D01*
X101176016Y-122351135D01*
X101174290Y-122350838D01*
X98740729Y-121913355D01*
X98739007Y-121913032D01*
X96312060Y-121441252D01*
X96310343Y-121440906D01*
X96217252Y-121421441D01*
X95665887Y-121306153D01*
X122339500Y-121306153D01*
X122339500Y-121463846D01*
X122370261Y-121618489D01*
X122370264Y-121618501D01*
X122430602Y-121764172D01*
X122430609Y-121764185D01*
X122518210Y-121895288D01*
X122518213Y-121895292D01*
X122629707Y-122006786D01*
X122629711Y-122006789D01*
X122760814Y-122094390D01*
X122760827Y-122094397D01*
X122906498Y-122154735D01*
X122906503Y-122154737D01*
X123014736Y-122176266D01*
X123061153Y-122185499D01*
X123061156Y-122185500D01*
X123061158Y-122185500D01*
X123218844Y-122185500D01*
X123218845Y-122185499D01*
X123373497Y-122154737D01*
X123385080Y-122149938D01*
X123432533Y-122140500D01*
X156273920Y-122140500D01*
X156371462Y-122121096D01*
X156418913Y-122111658D01*
X156555495Y-122055084D01*
X156604729Y-122022186D01*
X156678416Y-121972952D01*
X165222656Y-113428711D01*
X170299500Y-113428711D01*
X170299500Y-113671288D01*
X170331161Y-113911785D01*
X170393947Y-114146104D01*
X170486773Y-114370205D01*
X170486776Y-114370212D01*
X170608064Y-114580289D01*
X170608066Y-114580292D01*
X170608067Y-114580293D01*
X170755733Y-114772736D01*
X170755739Y-114772743D01*
X170927256Y-114944260D01*
X170927262Y-114944265D01*
X171119711Y-115091936D01*
X171329788Y-115213224D01*
X171553900Y-115306054D01*
X171788211Y-115368838D01*
X171968586Y-115392584D01*
X172028711Y-115400500D01*
X172028712Y-115400500D01*
X172271289Y-115400500D01*
X172319388Y-115394167D01*
X172511789Y-115368838D01*
X172746100Y-115306054D01*
X172970212Y-115213224D01*
X173180289Y-115091936D01*
X173372738Y-114944265D01*
X173544265Y-114772738D01*
X173691936Y-114580289D01*
X173813224Y-114370212D01*
X173906054Y-114146100D01*
X173968838Y-113911789D01*
X174000500Y-113671288D01*
X174000500Y-113428712D01*
X173968838Y-113188211D01*
X173906054Y-112953900D01*
X173813224Y-112729788D01*
X173691936Y-112519711D01*
X173544265Y-112327262D01*
X173544260Y-112327256D01*
X173372743Y-112155739D01*
X173372736Y-112155733D01*
X173180293Y-112008067D01*
X173180292Y-112008066D01*
X173180289Y-112008064D01*
X172970212Y-111886776D01*
X172921841Y-111866740D01*
X172746104Y-111793947D01*
X172511785Y-111731161D01*
X172271289Y-111699500D01*
X172271288Y-111699500D01*
X172028712Y-111699500D01*
X172028711Y-111699500D01*
X171788214Y-111731161D01*
X171553895Y-111793947D01*
X171329794Y-111886773D01*
X171329785Y-111886777D01*
X171119706Y-112008067D01*
X170927263Y-112155733D01*
X170927256Y-112155739D01*
X170755739Y-112327256D01*
X170755733Y-112327263D01*
X170608067Y-112519706D01*
X170486777Y-112729785D01*
X170486773Y-112729794D01*
X170393947Y-112953895D01*
X170331161Y-113188214D01*
X170299500Y-113428711D01*
X165222656Y-113428711D01*
X171713272Y-106938094D01*
X171774595Y-106904610D01*
X171800953Y-106901776D01*
X177265799Y-106901776D01*
X177332838Y-106921461D01*
X177368598Y-106956434D01*
X177445170Y-107069957D01*
X177445173Y-107069961D01*
X177478037Y-107105203D01*
X177579410Y-107213912D01*
X177579414Y-107213915D01*
X177579415Y-107213916D01*
X177615070Y-107241773D01*
X177655779Y-107298558D01*
X177659325Y-107368338D01*
X177637522Y-107414424D01*
X177608642Y-107452497D01*
X177608640Y-107452500D01*
X177557538Y-107586896D01*
X177546372Y-107730233D01*
X177546372Y-107730236D01*
X177556634Y-107789251D01*
X177707633Y-108315849D01*
X177707634Y-108315849D01*
X179029590Y-107936784D01*
X179008752Y-108014555D01*
X179008752Y-108133043D01*
X179039419Y-108247493D01*
X179098662Y-108350105D01*
X179166291Y-108417734D01*
X177845452Y-108796479D01*
X177845452Y-108796480D01*
X177996452Y-109323078D01*
X178021570Y-109384823D01*
X178028598Y-109454338D01*
X178015163Y-109491664D01*
X177951875Y-109605838D01*
X177951872Y-109605846D01*
X177865713Y-109842568D01*
X177865710Y-109842578D01*
X177817642Y-110089869D01*
X177817641Y-110089875D01*
X177811240Y-110273181D01*
X177808849Y-110341640D01*
X177818884Y-110423368D01*
X177839550Y-110591684D01*
X177839551Y-110591687D01*
X177908990Y-110833851D01*
X177994937Y-111018165D01*
X178015459Y-111062175D01*
X178015461Y-111062178D01*
X178156329Y-111271022D01*
X178156336Y-111271031D01*
X178193231Y-111310596D01*
X178328144Y-111455273D01*
X178328148Y-111455276D01*
X178328149Y-111455277D01*
X178526657Y-111610369D01*
X178526660Y-111610371D01*
X178526663Y-111610373D01*
X178526667Y-111610375D01*
X178744571Y-111731162D01*
X178747000Y-111732508D01*
X178983732Y-111818671D01*
X179231027Y-111866740D01*
X179482798Y-111875533D01*
X179732845Y-111844831D01*
X180105796Y-111737889D01*
X181224641Y-111417067D01*
X181224644Y-111417065D01*
X181224650Y-111417064D01*
X181452971Y-111310595D01*
X181661825Y-111169721D01*
X181846071Y-110997910D01*
X182001171Y-110799391D01*
X182123307Y-110579054D01*
X182209469Y-110342322D01*
X182257539Y-110095027D01*
X182266331Y-109843256D01*
X182235630Y-109593209D01*
X182224155Y-109553191D01*
X182166193Y-109351052D01*
X182166191Y-109351047D01*
X182089688Y-109186986D01*
X182059722Y-109122723D01*
X181918848Y-108913869D01*
X181918845Y-108913866D01*
X181918844Y-108913864D01*
X181782666Y-108767832D01*
X181747036Y-108729623D01*
X181747030Y-108729618D01*
X181548522Y-108574526D01*
X181548508Y-108574517D01*
X181434339Y-108511231D01*
X181385248Y-108461513D01*
X181372289Y-108424021D01*
X181360869Y-108358349D01*
X181360869Y-108358347D01*
X181209869Y-107831747D01*
X181209868Y-107831747D01*
X179887913Y-108210812D01*
X179908752Y-108133043D01*
X179908752Y-108014555D01*
X179878085Y-107900105D01*
X179818842Y-107797493D01*
X179751211Y-107729862D01*
X181072049Y-107351117D01*
X181072050Y-107351116D01*
X180921050Y-106824517D01*
X180898480Y-106769035D01*
X180813048Y-106653388D01*
X180698500Y-106566500D01*
X180653826Y-106549513D01*
X180598160Y-106507287D01*
X180574160Y-106441668D01*
X180581376Y-106391200D01*
X180596856Y-106348671D01*
X180634413Y-106155454D01*
X180641283Y-105958742D01*
X180617295Y-105763376D01*
X180563040Y-105574167D01*
X180479855Y-105395777D01*
X180479853Y-105395774D01*
X180479851Y-105395770D01*
X180369790Y-105232599D01*
X180369783Y-105232590D01*
X180290372Y-105147433D01*
X180235547Y-105088640D01*
X180080440Y-104967458D01*
X179959628Y-104900491D01*
X179910538Y-104850773D01*
X179896120Y-104782407D01*
X179911292Y-104731922D01*
X179978257Y-104611113D01*
X179978259Y-104611110D01*
X180045580Y-104426147D01*
X180083137Y-104232930D01*
X180090007Y-104036218D01*
X180066019Y-103840852D01*
X180011764Y-103651643D01*
X179928579Y-103473253D01*
X179928577Y-103473250D01*
X179928575Y-103473246D01*
X179818514Y-103310075D01*
X179818507Y-103310066D01*
X179761976Y-103249445D01*
X179684271Y-103166116D01*
X179684267Y-103166113D01*
X179681452Y-103163094D01*
X179650128Y-103100640D01*
X179657541Y-103031165D01*
X179674421Y-103002192D01*
X179740945Y-102917047D01*
X179863081Y-102696710D01*
X179949243Y-102459978D01*
X179997313Y-102212683D01*
X180006105Y-101960912D01*
X179975404Y-101710865D01*
X179915844Y-101503155D01*
X179905967Y-101468708D01*
X179905965Y-101468703D01*
X179905964Y-101468700D01*
X179799496Y-101240379D01*
X179658622Y-101031525D01*
X179658619Y-101031522D01*
X179658618Y-101031520D01*
X179522440Y-100885488D01*
X179486810Y-100847279D01*
X179415926Y-100791898D01*
X179288296Y-100692182D01*
X179288286Y-100692176D01*
X179067957Y-100570045D01*
X179067944Y-100570040D01*
X178831228Y-100483883D01*
X178831229Y-100483883D01*
X178831223Y-100483881D01*
X178583927Y-100435811D01*
X178583924Y-100435810D01*
X178583921Y-100435810D01*
X178332162Y-100427019D01*
X178332160Y-100427019D01*
X178332159Y-100427019D01*
X178332157Y-100427019D01*
X178224994Y-100440177D01*
X178082106Y-100457721D01*
X176590313Y-100885484D01*
X176590308Y-100885486D01*
X176361980Y-100991957D01*
X176361977Y-100991959D01*
X176153133Y-101132827D01*
X176153124Y-101132834D01*
X175968883Y-101304642D01*
X175968878Y-101304647D01*
X175813786Y-101503155D01*
X175813780Y-101503165D01*
X175691649Y-101723494D01*
X175691644Y-101723507D01*
X175605487Y-101960224D01*
X175605484Y-101960234D01*
X175557416Y-102207525D01*
X175557415Y-102207531D01*
X175548623Y-102459290D01*
X175548623Y-102459296D01*
X175557299Y-102529953D01*
X175579324Y-102709340D01*
X175579325Y-102709343D01*
X175638881Y-102917042D01*
X175648764Y-102951506D01*
X175755233Y-103179831D01*
X175755235Y-103179834D01*
X175896103Y-103388678D01*
X175896110Y-103388687D01*
X175971552Y-103469588D01*
X176067918Y-103572929D01*
X176067922Y-103572932D01*
X176067923Y-103572933D01*
X176266431Y-103728025D01*
X176266434Y-103728027D01*
X176266437Y-103728029D01*
X176486774Y-103850164D01*
X176561911Y-103877511D01*
X176588302Y-103887117D01*
X176644566Y-103928543D01*
X176669502Y-103993812D01*
X176667614Y-104027299D01*
X176629268Y-104224575D01*
X176629267Y-104224579D01*
X176622399Y-104421280D01*
X176622399Y-104421287D01*
X176634180Y-104517235D01*
X176646386Y-104616648D01*
X176646386Y-104616651D01*
X176646387Y-104616652D01*
X176700642Y-104805861D01*
X176783827Y-104984251D01*
X176854238Y-105088640D01*
X176893897Y-105147437D01*
X176935647Y-105192208D01*
X176966971Y-105254662D01*
X176959558Y-105324138D01*
X176915760Y-105378576D01*
X176849483Y-105400693D01*
X176844959Y-105400776D01*
X171364804Y-105400776D01*
X171219816Y-105429616D01*
X171219806Y-105429619D01*
X171083235Y-105486188D01*
X171083222Y-105486195D01*
X170960308Y-105568324D01*
X170960304Y-105568327D01*
X155925451Y-120603181D01*
X155864128Y-120636666D01*
X155837770Y-120639500D01*
X123456675Y-120639500D01*
X123409223Y-120630061D01*
X123373498Y-120615263D01*
X123373488Y-120615260D01*
X123218845Y-120584500D01*
X123218842Y-120584500D01*
X123061158Y-120584500D01*
X123061155Y-120584500D01*
X122906510Y-120615261D01*
X122906498Y-120615264D01*
X122760827Y-120675602D01*
X122760814Y-120675609D01*
X122629711Y-120763210D01*
X122629707Y-120763213D01*
X122518213Y-120874707D01*
X122518210Y-120874711D01*
X122430609Y-121005814D01*
X122430602Y-121005827D01*
X122370264Y-121151498D01*
X122370261Y-121151510D01*
X122339500Y-121306153D01*
X95665887Y-121306153D01*
X93890168Y-120934858D01*
X93888456Y-120934487D01*
X91475806Y-120394332D01*
X91474099Y-120393938D01*
X89069171Y-119819718D01*
X89067470Y-119819299D01*
X86670960Y-119211179D01*
X86669265Y-119210736D01*
X84281567Y-118568817D01*
X84279879Y-118568350D01*
X83316317Y-118294649D01*
X82917836Y-118181460D01*
X114829500Y-118181460D01*
X114829500Y-118186891D01*
X114829500Y-118378544D01*
X114867947Y-118571828D01*
X114867949Y-118571836D01*
X114943367Y-118753910D01*
X114943372Y-118753920D01*
X115052860Y-118917780D01*
X115052863Y-118917784D01*
X115192215Y-119057136D01*
X115192219Y-119057139D01*
X115356079Y-119166627D01*
X115356083Y-119166629D01*
X115356086Y-119166631D01*
X115538164Y-119242051D01*
X115731455Y-119280499D01*
X115731458Y-119280500D01*
X115731460Y-119280500D01*
X115928542Y-119280500D01*
X115928543Y-119280499D01*
X116121836Y-119242051D01*
X116303914Y-119166631D01*
X116467781Y-119057139D01*
X116477566Y-119047352D01*
X116477574Y-119047348D01*
X116477573Y-119047347D01*
X116487780Y-119037139D01*
X116487782Y-119037139D01*
X116627139Y-118897782D01*
X116736632Y-118733914D01*
X116789961Y-118605165D01*
X116812051Y-118551836D01*
X116850500Y-118358540D01*
X116850500Y-118161460D01*
X116850500Y-113261459D01*
X116850500Y-113261456D01*
X116812052Y-113068170D01*
X116812051Y-113068169D01*
X116812051Y-113068165D01*
X116812049Y-113068160D01*
X116736635Y-112886092D01*
X116736628Y-112886079D01*
X116627139Y-112722218D01*
X116627136Y-112722214D01*
X116487785Y-112582863D01*
X116487781Y-112582860D01*
X116323920Y-112473371D01*
X116323907Y-112473364D01*
X116141839Y-112397950D01*
X116141829Y-112397947D01*
X115948543Y-112359500D01*
X115948541Y-112359500D01*
X115751459Y-112359500D01*
X115751457Y-112359500D01*
X115558170Y-112397947D01*
X115558160Y-112397950D01*
X115376092Y-112473364D01*
X115376079Y-112473371D01*
X115212218Y-112582860D01*
X115212214Y-112582863D01*
X115072863Y-112722214D01*
X115072860Y-112722218D01*
X114963371Y-112886079D01*
X114963364Y-112886092D01*
X114887950Y-113068160D01*
X114887947Y-113068170D01*
X114849500Y-113261456D01*
X114849500Y-118068701D01*
X114847472Y-118089280D01*
X114847376Y-118091553D01*
X114847251Y-118092217D01*
X114829500Y-118181460D01*
X82917836Y-118181460D01*
X81901572Y-117892789D01*
X81899890Y-117892299D01*
X79531196Y-117183157D01*
X79529522Y-117182642D01*
X77686236Y-116602300D01*
X77628202Y-116563392D01*
X77600417Y-116499285D01*
X77601192Y-116463453D01*
X77883113Y-114787979D01*
X77883389Y-114786409D01*
X78132876Y-113428711D01*
X87609500Y-113428711D01*
X87609500Y-113671288D01*
X87641161Y-113911785D01*
X87703947Y-114146104D01*
X87796773Y-114370205D01*
X87796776Y-114370212D01*
X87918064Y-114580289D01*
X87918066Y-114580292D01*
X87918067Y-114580293D01*
X88065733Y-114772736D01*
X88065739Y-114772743D01*
X88237256Y-114944260D01*
X88237262Y-114944265D01*
X88429711Y-115091936D01*
X88639788Y-115213224D01*
X88863900Y-115306054D01*
X89098211Y-115368838D01*
X89278586Y-115392584D01*
X89338711Y-115400500D01*
X89338712Y-115400500D01*
X89581289Y-115400500D01*
X89629388Y-115394167D01*
X89821789Y-115368838D01*
X90056100Y-115306054D01*
X90280212Y-115213224D01*
X90490289Y-115091936D01*
X90682738Y-114944265D01*
X90854265Y-114772738D01*
X91001936Y-114580289D01*
X91123224Y-114370212D01*
X91216054Y-114146100D01*
X91278838Y-113911789D01*
X91310500Y-113671288D01*
X91310500Y-113428712D01*
X91278838Y-113188211D01*
X91216054Y-112953900D01*
X91123224Y-112729788D01*
X91001936Y-112519711D01*
X90854265Y-112327262D01*
X90854260Y-112327256D01*
X90682743Y-112155739D01*
X90682736Y-112155733D01*
X90490293Y-112008067D01*
X90490292Y-112008066D01*
X90490289Y-112008064D01*
X90280212Y-111886776D01*
X90231841Y-111866740D01*
X90056104Y-111793947D01*
X89821785Y-111731161D01*
X89581289Y-111699500D01*
X89581288Y-111699500D01*
X89338712Y-111699500D01*
X89338711Y-111699500D01*
X89098214Y-111731161D01*
X88863895Y-111793947D01*
X88639794Y-111886773D01*
X88639785Y-111886777D01*
X88429706Y-112008067D01*
X88237263Y-112155733D01*
X88237256Y-112155739D01*
X88065739Y-112327256D01*
X88065733Y-112327263D01*
X87918067Y-112519706D01*
X87796777Y-112729785D01*
X87796773Y-112729794D01*
X87703947Y-112953895D01*
X87641161Y-113188214D01*
X87609500Y-113428711D01*
X78132876Y-113428711D01*
X78286933Y-112590335D01*
X78287258Y-112588643D01*
X78522495Y-111408543D01*
X118369499Y-111408543D01*
X118407947Y-111601829D01*
X118407950Y-111601839D01*
X118483364Y-111783907D01*
X118483371Y-111783920D01*
X118592860Y-111947781D01*
X118592863Y-111947785D01*
X118732214Y-112087136D01*
X118732218Y-112087139D01*
X118896079Y-112196628D01*
X118896092Y-112196635D01*
X119078160Y-112272049D01*
X119078165Y-112272051D01*
X119078169Y-112272051D01*
X119078170Y-112272052D01*
X119271456Y-112310500D01*
X119271459Y-112310500D01*
X128998542Y-112310500D01*
X129029566Y-112304328D01*
X129095188Y-112291275D01*
X129191836Y-112272051D01*
X129245165Y-112249961D01*
X129373914Y-112196632D01*
X129537782Y-112087139D01*
X129677139Y-111947782D01*
X129677139Y-111947780D01*
X129687347Y-111937573D01*
X129687348Y-111937570D01*
X139817140Y-101807781D01*
X139926632Y-101643914D01*
X140002052Y-101461835D01*
X140040501Y-101268540D01*
X140040501Y-101071459D01*
X140040501Y-101066349D01*
X140040500Y-101066323D01*
X140040500Y-93324702D01*
X148149500Y-93324702D01*
X148149500Y-95515292D01*
X148149501Y-95515298D01*
X148159718Y-95660027D01*
X148159718Y-95660031D01*
X148159719Y-95660034D01*
X148172387Y-95716282D01*
X148213834Y-95900314D01*
X148213835Y-95900319D01*
X148282021Y-96069738D01*
X148305795Y-96128809D01*
X148433216Y-96339589D01*
X148433219Y-96339592D01*
X148592798Y-96527201D01*
X148702990Y-96620930D01*
X148780411Y-96686784D01*
X148991191Y-96814205D01*
X149219683Y-96906165D01*
X149459966Y-96960281D01*
X149604705Y-96970500D01*
X151795294Y-96970499D01*
X151940034Y-96960281D01*
X152180317Y-96906165D01*
X152408809Y-96814205D01*
X152619589Y-96686784D01*
X152807201Y-96527201D01*
X152966784Y-96339589D01*
X153094205Y-96128809D01*
X153186165Y-95900317D01*
X153240281Y-95660034D01*
X153250500Y-95515295D01*
X153250499Y-94276790D01*
X155350000Y-94276790D01*
X155350000Y-94563209D01*
X155382066Y-94847801D01*
X155382068Y-94847817D01*
X155445799Y-95127042D01*
X155445803Y-95127054D01*
X155540396Y-95397383D01*
X155664662Y-95655424D01*
X155817042Y-95897935D01*
X155928608Y-96037836D01*
X156784728Y-95181716D01*
X156870278Y-95299466D01*
X157020534Y-95449722D01*
X157138282Y-95535270D01*
X156282162Y-96391390D01*
X156422064Y-96502957D01*
X156664575Y-96655337D01*
X156922616Y-96779603D01*
X157192945Y-96874196D01*
X157192957Y-96874200D01*
X157472182Y-96937931D01*
X157472198Y-96937933D01*
X157756790Y-96969999D01*
X157756792Y-96970000D01*
X158043208Y-96970000D01*
X158043209Y-96969999D01*
X158327801Y-96937933D01*
X158327817Y-96937931D01*
X158607042Y-96874200D01*
X158607054Y-96874196D01*
X158877383Y-96779603D01*
X159135424Y-96655337D01*
X159377935Y-96502958D01*
X159517836Y-96391389D01*
X158661717Y-95535271D01*
X158779466Y-95449722D01*
X158929722Y-95299466D01*
X159015270Y-95181717D01*
X159871389Y-96037836D01*
X159982958Y-95897935D01*
X160135337Y-95655424D01*
X160259603Y-95397383D01*
X160354196Y-95127054D01*
X160354200Y-95127042D01*
X160417931Y-94847817D01*
X160417933Y-94847801D01*
X160449999Y-94563209D01*
X160450000Y-94563207D01*
X160450000Y-94276792D01*
X160449999Y-94276790D01*
X160417933Y-93992198D01*
X160417931Y-93992182D01*
X160354200Y-93712957D01*
X160354196Y-93712945D01*
X160259603Y-93442616D01*
X160135337Y-93184575D01*
X159982957Y-92942064D01*
X159871390Y-92802162D01*
X159015270Y-93658281D01*
X158929722Y-93540534D01*
X158779466Y-93390278D01*
X158661716Y-93304728D01*
X159517836Y-92448608D01*
X159377935Y-92337042D01*
X159135424Y-92184662D01*
X158877383Y-92060396D01*
X158607054Y-91965803D01*
X158607042Y-91965799D01*
X158327817Y-91902068D01*
X158327801Y-91902066D01*
X158043209Y-91870000D01*
X157756790Y-91870000D01*
X157472198Y-91902066D01*
X157472182Y-91902068D01*
X157192957Y-91965799D01*
X157192945Y-91965803D01*
X156922616Y-92060396D01*
X156664575Y-92184662D01*
X156422070Y-92337038D01*
X156282163Y-92448609D01*
X157138282Y-93304728D01*
X157020534Y-93390278D01*
X156870278Y-93540534D01*
X156784728Y-93658282D01*
X155928609Y-92802163D01*
X155817038Y-92942070D01*
X155664662Y-93184575D01*
X155540396Y-93442616D01*
X155445803Y-93712945D01*
X155445799Y-93712957D01*
X155382068Y-93992182D01*
X155382066Y-93992198D01*
X155350000Y-94276790D01*
X153250499Y-94276790D01*
X153250499Y-93324706D01*
X153240281Y-93179966D01*
X153186165Y-92939683D01*
X153094205Y-92711191D01*
X152966784Y-92500411D01*
X152900930Y-92422990D01*
X152807201Y-92312798D01*
X152656558Y-92184662D01*
X152619589Y-92153216D01*
X152408809Y-92025795D01*
X152259738Y-91965799D01*
X152180318Y-91933835D01*
X151940036Y-91879719D01*
X151940029Y-91879718D01*
X151795296Y-91869500D01*
X149604707Y-91869500D01*
X149604701Y-91869501D01*
X149459972Y-91879718D01*
X149459966Y-91879718D01*
X149459966Y-91879719D01*
X149459963Y-91879719D01*
X149459961Y-91879720D01*
X149219685Y-91933834D01*
X149219680Y-91933835D01*
X148991190Y-92025795D01*
X148991185Y-92025798D01*
X148780417Y-92153212D01*
X148780407Y-92153219D01*
X148592798Y-92312798D01*
X148433219Y-92500407D01*
X148433212Y-92500417D01*
X148305798Y-92711185D01*
X148305795Y-92711190D01*
X148213835Y-92939680D01*
X148213835Y-92939682D01*
X148159719Y-93179963D01*
X148159718Y-93179970D01*
X148149500Y-93324702D01*
X140040500Y-93324702D01*
X140040500Y-90072135D01*
X152649500Y-90072135D01*
X152649500Y-91467870D01*
X152649501Y-91467876D01*
X152655908Y-91527483D01*
X152706202Y-91662328D01*
X152706206Y-91662335D01*
X152792452Y-91777544D01*
X152792455Y-91777547D01*
X152907664Y-91863793D01*
X152907671Y-91863797D01*
X153042517Y-91914091D01*
X153042516Y-91914091D01*
X153049444Y-91914835D01*
X153102127Y-91920500D01*
X155497872Y-91920499D01*
X155557483Y-91914091D01*
X155692331Y-91863796D01*
X155807546Y-91777546D01*
X155893796Y-91662331D01*
X155944091Y-91527483D01*
X155950500Y-91467873D01*
X155950499Y-90072128D01*
X155944091Y-90012517D01*
X155893796Y-89877669D01*
X155893795Y-89877668D01*
X155893793Y-89877664D01*
X155807547Y-89762455D01*
X155807544Y-89762452D01*
X155692335Y-89676206D01*
X155692328Y-89676202D01*
X155557482Y-89625908D01*
X155557483Y-89625908D01*
X155497883Y-89619501D01*
X155497881Y-89619500D01*
X155497873Y-89619500D01*
X155497864Y-89619500D01*
X153102129Y-89619500D01*
X153102123Y-89619501D01*
X153042516Y-89625908D01*
X152907671Y-89676202D01*
X152907664Y-89676206D01*
X152792455Y-89762452D01*
X152792452Y-89762455D01*
X152706206Y-89877664D01*
X152706202Y-89877671D01*
X152655908Y-90012517D01*
X152649501Y-90072116D01*
X152649501Y-90072123D01*
X152649500Y-90072135D01*
X140040500Y-90072135D01*
X140040500Y-87372135D01*
X146599500Y-87372135D01*
X146599500Y-89467870D01*
X146599501Y-89467876D01*
X146605908Y-89527483D01*
X146656202Y-89662328D01*
X146656206Y-89662335D01*
X146742452Y-89777544D01*
X146742455Y-89777547D01*
X146857664Y-89863793D01*
X146857671Y-89863797D01*
X146992517Y-89914091D01*
X146992516Y-89914091D01*
X146999444Y-89914835D01*
X147052127Y-89920500D01*
X148047872Y-89920499D01*
X148107483Y-89914091D01*
X148242331Y-89863796D01*
X148357546Y-89777546D01*
X148443796Y-89662331D01*
X148494091Y-89527483D01*
X148500500Y-89467873D01*
X148500499Y-87372135D01*
X160099500Y-87372135D01*
X160099500Y-89467870D01*
X160099501Y-89467876D01*
X160105908Y-89527483D01*
X160156202Y-89662328D01*
X160156206Y-89662335D01*
X160242452Y-89777544D01*
X160242455Y-89777547D01*
X160357664Y-89863793D01*
X160357671Y-89863797D01*
X160492517Y-89914091D01*
X160492516Y-89914091D01*
X160499444Y-89914835D01*
X160552127Y-89920500D01*
X161547872Y-89920499D01*
X161607483Y-89914091D01*
X161742331Y-89863796D01*
X161857546Y-89777546D01*
X161943796Y-89662331D01*
X161994091Y-89527483D01*
X162000500Y-89467873D01*
X162000499Y-88358711D01*
X170299500Y-88358711D01*
X170299500Y-88601288D01*
X170331161Y-88841785D01*
X170393947Y-89076104D01*
X170486773Y-89300205D01*
X170486776Y-89300212D01*
X170608064Y-89510289D01*
X170608066Y-89510292D01*
X170608067Y-89510293D01*
X170755733Y-89702736D01*
X170755739Y-89702743D01*
X170927256Y-89874260D01*
X170927263Y-89874266D01*
X170931698Y-89877669D01*
X171119711Y-90021936D01*
X171329788Y-90143224D01*
X171553900Y-90236054D01*
X171788211Y-90298838D01*
X171968586Y-90322584D01*
X172028711Y-90330500D01*
X172028712Y-90330500D01*
X172271289Y-90330500D01*
X172319388Y-90324167D01*
X172511789Y-90298838D01*
X172746100Y-90236054D01*
X172970212Y-90143224D01*
X173180289Y-90021936D01*
X173372738Y-89874265D01*
X173544265Y-89702738D01*
X173691936Y-89510289D01*
X173813224Y-89300212D01*
X173906054Y-89076100D01*
X173968838Y-88841789D01*
X174000500Y-88601288D01*
X174000500Y-88358712D01*
X173968838Y-88118211D01*
X173906054Y-87883900D01*
X173813224Y-87659788D01*
X173691936Y-87449711D01*
X173544265Y-87257262D01*
X173544260Y-87257256D01*
X173372743Y-87085739D01*
X173372736Y-87085733D01*
X173180293Y-86938067D01*
X173180292Y-86938066D01*
X173180289Y-86938064D01*
X172970212Y-86816776D01*
X172970205Y-86816773D01*
X172746104Y-86723947D01*
X172511785Y-86661161D01*
X172271289Y-86629500D01*
X172271288Y-86629500D01*
X172028712Y-86629500D01*
X172028711Y-86629500D01*
X171788214Y-86661161D01*
X171553895Y-86723947D01*
X171329794Y-86816773D01*
X171329785Y-86816777D01*
X171119706Y-86938067D01*
X170927263Y-87085733D01*
X170927256Y-87085739D01*
X170755739Y-87257256D01*
X170755733Y-87257263D01*
X170608067Y-87449706D01*
X170486777Y-87659785D01*
X170486773Y-87659794D01*
X170393947Y-87883895D01*
X170331161Y-88118214D01*
X170299500Y-88358711D01*
X162000499Y-88358711D01*
X162000499Y-87372128D01*
X161994091Y-87312517D01*
X161973482Y-87257262D01*
X161943797Y-87177671D01*
X161943793Y-87177664D01*
X161857547Y-87062455D01*
X161857544Y-87062452D01*
X161742335Y-86976206D01*
X161742328Y-86976202D01*
X161607482Y-86925908D01*
X161607483Y-86925908D01*
X161547883Y-86919501D01*
X161547881Y-86919500D01*
X161547873Y-86919500D01*
X161547864Y-86919500D01*
X160552129Y-86919500D01*
X160552123Y-86919501D01*
X160492516Y-86925908D01*
X160357671Y-86976202D01*
X160357664Y-86976206D01*
X160242455Y-87062452D01*
X160242452Y-87062455D01*
X160156206Y-87177664D01*
X160156202Y-87177671D01*
X160105908Y-87312517D01*
X160099501Y-87372116D01*
X160099501Y-87372123D01*
X160099500Y-87372135D01*
X148500499Y-87372135D01*
X148500499Y-87372128D01*
X148494091Y-87312517D01*
X148473482Y-87257262D01*
X148443797Y-87177671D01*
X148443793Y-87177664D01*
X148357547Y-87062455D01*
X148357544Y-87062452D01*
X148242335Y-86976206D01*
X148242328Y-86976202D01*
X148107482Y-86925908D01*
X148107483Y-86925908D01*
X148047883Y-86919501D01*
X148047881Y-86919500D01*
X148047873Y-86919500D01*
X148047864Y-86919500D01*
X147052129Y-86919500D01*
X147052123Y-86919501D01*
X146992516Y-86925908D01*
X146857671Y-86976202D01*
X146857664Y-86976206D01*
X146742455Y-87062452D01*
X146742452Y-87062455D01*
X146656206Y-87177664D01*
X146656202Y-87177671D01*
X146605908Y-87312517D01*
X146599501Y-87372116D01*
X146599501Y-87372123D01*
X146599500Y-87372135D01*
X140040500Y-87372135D01*
X140040500Y-79259187D01*
X140060185Y-79192148D01*
X140112989Y-79146393D01*
X140182147Y-79136449D01*
X140220796Y-79148703D01*
X140317831Y-79198145D01*
X140317830Y-79198145D01*
X140519922Y-79263808D01*
X140586051Y-79274282D01*
X140586051Y-78380063D01*
X140643058Y-78412976D01*
X140770225Y-78447051D01*
X140901877Y-78447051D01*
X141029044Y-78412976D01*
X141086051Y-78380063D01*
X141086051Y-79274281D01*
X141152175Y-79263809D01*
X141161829Y-79260672D01*
X141231670Y-79258673D01*
X141291505Y-79294750D01*
X141322337Y-79357449D01*
X141318088Y-79416911D01*
X141314855Y-79426862D01*
X141281602Y-79636815D01*
X141281602Y-79849388D01*
X141310805Y-80033773D01*
X141314856Y-80059345D01*
X141364475Y-80212057D01*
X141380546Y-80261516D01*
X141477053Y-80450922D01*
X141601992Y-80622888D01*
X141752315Y-80773211D01*
X141924281Y-80898150D01*
X141924283Y-80898151D01*
X141924286Y-80898153D01*
X142113690Y-80994659D01*
X142315859Y-81060348D01*
X142525815Y-81093602D01*
X142525816Y-81093602D01*
X142738388Y-81093602D01*
X142738389Y-81093602D01*
X142948345Y-81060348D01*
X143150514Y-80994659D01*
X143339918Y-80898153D01*
X143405773Y-80850307D01*
X143511888Y-80773211D01*
X143511890Y-80773208D01*
X143511894Y-80773206D01*
X143662206Y-80622894D01*
X143662208Y-80622890D01*
X143662211Y-80622888D01*
X143787150Y-80450922D01*
X143787149Y-80450922D01*
X143787153Y-80450918D01*
X143883659Y-80261514D01*
X143949348Y-80059345D01*
X143982602Y-79849389D01*
X143982602Y-79636815D01*
X143949348Y-79426859D01*
X143883659Y-79224690D01*
X143787153Y-79035286D01*
X143787151Y-79035283D01*
X143787150Y-79035281D01*
X143662211Y-78863315D01*
X143511888Y-78712992D01*
X143339922Y-78588053D01*
X143150516Y-78491546D01*
X143150515Y-78491545D01*
X143150514Y-78491545D01*
X142948345Y-78425856D01*
X142948343Y-78425855D01*
X142948342Y-78425855D01*
X142753491Y-78394994D01*
X142738389Y-78392602D01*
X142525815Y-78392602D01*
X142510713Y-78394994D01*
X142315862Y-78425855D01*
X142305911Y-78429088D01*
X142236070Y-78431078D01*
X142176240Y-78394994D01*
X142145416Y-78332291D01*
X142149672Y-78272829D01*
X142152809Y-78263175D01*
X142163282Y-78197051D01*
X141269063Y-78197051D01*
X141301976Y-78140044D01*
X141336051Y-78012877D01*
X141336051Y-77881225D01*
X141301976Y-77754058D01*
X141269063Y-77697051D01*
X142163282Y-77697051D01*
X142152808Y-77630924D01*
X142152808Y-77630921D01*
X142087146Y-77428833D01*
X141990671Y-77239493D01*
X141865778Y-77067591D01*
X141865774Y-77067586D01*
X141715515Y-76917327D01*
X141715510Y-76917323D01*
X141543608Y-76792430D01*
X141354266Y-76695954D01*
X141152175Y-76630292D01*
X141086051Y-76619819D01*
X141086051Y-77514039D01*
X141029044Y-77481126D01*
X140901877Y-77447051D01*
X140770225Y-77447051D01*
X140643058Y-77481126D01*
X140586051Y-77514039D01*
X140586051Y-76566205D01*
X140591327Y-76548233D01*
X140590864Y-76545007D01*
X140594757Y-76536481D01*
X140601219Y-76506778D01*
X140604973Y-76501762D01*
X140605736Y-76499166D01*
X140619728Y-76481801D01*
X140619889Y-76481451D01*
X140620797Y-76480475D01*
X140622370Y-76478524D01*
X140625921Y-76474973D01*
X140629838Y-76471056D01*
X140667459Y-76424373D01*
X140727247Y-76293457D01*
X140747728Y-76151000D01*
X140727247Y-76008543D01*
X140667459Y-75877627D01*
X140629840Y-75830944D01*
X140629835Y-75830939D01*
X140629831Y-75830934D01*
X139360059Y-74561165D01*
X139360053Y-74561160D01*
X139360049Y-74561156D01*
X139313373Y-74523540D01*
X139182459Y-74463753D01*
X139182455Y-74463752D01*
X139040000Y-74443272D01*
X138897544Y-74463752D01*
X138897540Y-74463753D01*
X138766629Y-74523539D01*
X138719934Y-74561168D01*
X137450165Y-75830940D01*
X137450156Y-75830950D01*
X137412540Y-75877626D01*
X137352753Y-76008540D01*
X137352752Y-76008544D01*
X137332272Y-76151000D01*
X137352752Y-76293455D01*
X137352753Y-76293459D01*
X137412539Y-76424370D01*
X137412540Y-76424371D01*
X137412541Y-76424373D01*
X137450160Y-76471056D01*
X137450163Y-76471059D01*
X137450168Y-76471065D01*
X138003181Y-77024076D01*
X138036666Y-77085399D01*
X138039500Y-77111757D01*
X138039500Y-100704217D01*
X138019815Y-100771256D01*
X138003181Y-100791898D01*
X128521899Y-110273181D01*
X128460576Y-110306666D01*
X128434218Y-110309500D01*
X126579135Y-110309500D01*
X126512096Y-110289815D01*
X126466341Y-110237011D01*
X126456397Y-110167853D01*
X126473596Y-110120404D01*
X126549810Y-109996840D01*
X126549814Y-109996834D01*
X126604999Y-109830297D01*
X126615500Y-109727509D01*
X126615499Y-108952492D01*
X126604999Y-108849703D01*
X126549814Y-108683166D01*
X126457712Y-108533844D01*
X126333656Y-108409788D01*
X126330342Y-108407743D01*
X126328546Y-108405748D01*
X126327989Y-108405307D01*
X126328064Y-108405211D01*
X126283618Y-108355797D01*
X126272397Y-108286834D01*
X126300240Y-108222752D01*
X126330348Y-108196665D01*
X126333342Y-108194818D01*
X126457315Y-108070845D01*
X126549356Y-107921624D01*
X126549358Y-107921619D01*
X126604505Y-107755197D01*
X126604506Y-107755190D01*
X126614999Y-107652486D01*
X126615000Y-107652473D01*
X126615000Y-107515000D01*
X124165001Y-107515000D01*
X124165001Y-107652486D01*
X124175494Y-107755197D01*
X124230641Y-107921619D01*
X124230643Y-107921624D01*
X124322684Y-108070845D01*
X124446655Y-108194816D01*
X124446659Y-108194819D01*
X124449656Y-108196668D01*
X124451279Y-108198472D01*
X124452323Y-108199298D01*
X124452181Y-108199476D01*
X124496381Y-108248616D01*
X124507602Y-108317579D01*
X124479759Y-108381661D01*
X124449661Y-108407741D01*
X124446349Y-108409783D01*
X124446343Y-108409788D01*
X124322289Y-108533842D01*
X124230187Y-108683163D01*
X124230185Y-108683168D01*
X124202349Y-108767170D01*
X124175001Y-108849703D01*
X124175001Y-108849704D01*
X124175000Y-108849704D01*
X124164500Y-108952483D01*
X124164500Y-109727501D01*
X124164501Y-109727519D01*
X124175000Y-109830296D01*
X124175001Y-109830299D01*
X124230185Y-109996831D01*
X124230189Y-109996840D01*
X124306404Y-110120404D01*
X124324844Y-110187796D01*
X124303921Y-110254459D01*
X124250279Y-110299229D01*
X124200865Y-110309500D01*
X119271457Y-110309500D01*
X119078170Y-110347947D01*
X119078160Y-110347950D01*
X118896092Y-110423364D01*
X118896079Y-110423371D01*
X118732218Y-110532860D01*
X118732214Y-110532863D01*
X118592863Y-110672214D01*
X118592860Y-110672218D01*
X118483371Y-110836079D01*
X118483364Y-110836092D01*
X118407950Y-111018160D01*
X118407947Y-111018170D01*
X118369500Y-111211456D01*
X118369500Y-111211459D01*
X118369500Y-111408541D01*
X118369500Y-111408543D01*
X118369499Y-111408543D01*
X78522495Y-111408543D01*
X78723739Y-110398975D01*
X78724069Y-110397382D01*
X79193408Y-108214505D01*
X79193798Y-108212757D01*
X79260987Y-107921624D01*
X79501952Y-106877513D01*
X124165000Y-106877513D01*
X124165000Y-107015000D01*
X125140000Y-107015000D01*
X125640000Y-107015000D01*
X126614999Y-107015000D01*
X126614999Y-106877528D01*
X126614998Y-106877513D01*
X126604505Y-106774802D01*
X126549358Y-106608380D01*
X126549356Y-106608375D01*
X126457315Y-106459154D01*
X126333345Y-106335184D01*
X126184124Y-106243143D01*
X126184119Y-106243141D01*
X126017697Y-106187994D01*
X126017690Y-106187993D01*
X125914986Y-106177500D01*
X125640000Y-106177500D01*
X125640000Y-107015000D01*
X125140000Y-107015000D01*
X125140000Y-106177500D01*
X124865029Y-106177500D01*
X124865012Y-106177501D01*
X124762302Y-106187994D01*
X124595880Y-106243141D01*
X124595875Y-106243143D01*
X124446654Y-106335184D01*
X124322684Y-106459154D01*
X124230643Y-106608375D01*
X124230641Y-106608380D01*
X124175494Y-106774802D01*
X124175493Y-106774809D01*
X124165000Y-106877513D01*
X79501952Y-106877513D01*
X79695880Y-106037217D01*
X79696293Y-106035491D01*
X80230994Y-103867807D01*
X80231392Y-103866241D01*
X80798658Y-101706645D01*
X80799109Y-101704981D01*
X81398746Y-99554220D01*
X81399180Y-99552706D01*
X82031093Y-97411119D01*
X82031574Y-97409536D01*
X82695582Y-95277740D01*
X82696086Y-95276164D01*
X82714132Y-95221153D01*
X119419500Y-95221153D01*
X119419500Y-95378846D01*
X119450261Y-95533489D01*
X119450264Y-95533501D01*
X119510602Y-95679172D01*
X119510609Y-95679185D01*
X119598210Y-95810288D01*
X119598213Y-95810292D01*
X119709707Y-95921786D01*
X119709711Y-95921789D01*
X119840814Y-96009390D01*
X119840827Y-96009397D01*
X119923093Y-96043472D01*
X119986503Y-96069737D01*
X120141153Y-96100499D01*
X120141156Y-96100500D01*
X120141158Y-96100500D01*
X120298844Y-96100500D01*
X120298845Y-96100499D01*
X120453497Y-96069737D01*
X120530513Y-96037836D01*
X120597864Y-96009939D01*
X120645316Y-96000500D01*
X124184684Y-96000500D01*
X124232136Y-96009939D01*
X124313086Y-96043469D01*
X124376503Y-96069737D01*
X124531153Y-96100499D01*
X124531156Y-96100500D01*
X124531158Y-96100500D01*
X124688844Y-96100500D01*
X124688845Y-96100499D01*
X124843497Y-96069737D01*
X124989179Y-96009394D01*
X125120289Y-95921789D01*
X125231789Y-95810289D01*
X125319394Y-95679179D01*
X125379737Y-95533497D01*
X125410500Y-95378842D01*
X125410500Y-95221158D01*
X125410500Y-95221155D01*
X125410499Y-95221153D01*
X125379738Y-95066510D01*
X125379737Y-95066503D01*
X125326601Y-94938220D01*
X125319397Y-94920827D01*
X125319390Y-94920814D01*
X125231789Y-94789711D01*
X125231786Y-94789707D01*
X125120292Y-94678213D01*
X125120288Y-94678210D01*
X124989185Y-94590609D01*
X124989172Y-94590602D01*
X124843501Y-94530264D01*
X124843489Y-94530261D01*
X124688845Y-94499500D01*
X124688842Y-94499500D01*
X124531158Y-94499500D01*
X124531155Y-94499500D01*
X124376510Y-94530261D01*
X124376498Y-94530264D01*
X124232136Y-94590061D01*
X124184684Y-94599500D01*
X120645316Y-94599500D01*
X120597864Y-94590061D01*
X120453501Y-94530264D01*
X120453489Y-94530261D01*
X120298845Y-94499500D01*
X120298842Y-94499500D01*
X120141158Y-94499500D01*
X120141155Y-94499500D01*
X119986510Y-94530261D01*
X119986498Y-94530264D01*
X119840827Y-94590602D01*
X119840814Y-94590609D01*
X119709711Y-94678210D01*
X119709707Y-94678213D01*
X119598213Y-94789707D01*
X119598210Y-94789711D01*
X119510609Y-94920814D01*
X119510602Y-94920827D01*
X119450264Y-95066498D01*
X119450261Y-95066510D01*
X119419500Y-95221153D01*
X82714132Y-95221153D01*
X83392038Y-93154639D01*
X83392575Y-93153041D01*
X84120333Y-91042206D01*
X84120879Y-91040659D01*
X84880304Y-88940913D01*
X84880864Y-88939400D01*
X85100808Y-88358711D01*
X87609500Y-88358711D01*
X87609500Y-88601288D01*
X87641161Y-88841785D01*
X87703947Y-89076104D01*
X87796773Y-89300205D01*
X87796776Y-89300212D01*
X87918064Y-89510289D01*
X87918066Y-89510292D01*
X87918067Y-89510293D01*
X88065733Y-89702736D01*
X88065739Y-89702743D01*
X88237256Y-89874260D01*
X88237263Y-89874266D01*
X88241698Y-89877669D01*
X88429711Y-90021936D01*
X88639788Y-90143224D01*
X88863900Y-90236054D01*
X89098211Y-90298838D01*
X89278586Y-90322584D01*
X89338711Y-90330500D01*
X89338712Y-90330500D01*
X89581289Y-90330500D01*
X89629388Y-90324167D01*
X89821789Y-90298838D01*
X90056100Y-90236054D01*
X90280212Y-90143224D01*
X90490289Y-90021936D01*
X90682738Y-89874265D01*
X90854265Y-89702738D01*
X91001936Y-89510289D01*
X91123224Y-89300212D01*
X91216054Y-89076100D01*
X91278838Y-88841789D01*
X91310500Y-88601288D01*
X91310500Y-88358712D01*
X91278838Y-88118211D01*
X91216054Y-87883900D01*
X91123224Y-87659788D01*
X91001936Y-87449711D01*
X90854265Y-87257262D01*
X90854260Y-87257256D01*
X90682743Y-87085739D01*
X90682736Y-87085733D01*
X90490293Y-86938067D01*
X90490292Y-86938066D01*
X90490289Y-86938064D01*
X90280212Y-86816776D01*
X90280205Y-86816773D01*
X90056104Y-86723947D01*
X89821785Y-86661161D01*
X89581289Y-86629500D01*
X89581288Y-86629500D01*
X89338712Y-86629500D01*
X89338711Y-86629500D01*
X89098214Y-86661161D01*
X88863895Y-86723947D01*
X88639794Y-86816773D01*
X88639785Y-86816777D01*
X88429706Y-86938067D01*
X88237263Y-87085733D01*
X88237256Y-87085739D01*
X88065739Y-87257256D01*
X88065733Y-87257263D01*
X87918067Y-87449706D01*
X87796777Y-87659785D01*
X87796773Y-87659794D01*
X87703947Y-87883895D01*
X87641161Y-88118214D01*
X87609500Y-88358711D01*
X85100808Y-88358711D01*
X85671748Y-86851333D01*
X85672354Y-86849770D01*
X86494516Y-84773849D01*
X86495151Y-84772282D01*
X86553363Y-84631515D01*
X117704500Y-84631515D01*
X117704500Y-84868485D01*
X117741571Y-85102539D01*
X117814799Y-85327911D01*
X117922381Y-85539054D01*
X118061669Y-85730767D01*
X118229233Y-85898331D01*
X118420946Y-86037619D01*
X118632089Y-86145201D01*
X118857461Y-86218429D01*
X119091515Y-86255500D01*
X119091516Y-86255500D01*
X119328484Y-86255500D01*
X119328485Y-86255500D01*
X119562539Y-86218429D01*
X119787911Y-86145201D01*
X119999054Y-86037619D01*
X120190767Y-85898331D01*
X120257583Y-85831515D01*
X122804500Y-85831515D01*
X122804500Y-86068484D01*
X122834120Y-86255500D01*
X122841571Y-86302539D01*
X122914799Y-86527911D01*
X123022381Y-86739054D01*
X123161669Y-86930767D01*
X123329233Y-87098331D01*
X123520946Y-87237619D01*
X123732089Y-87345201D01*
X123957461Y-87418429D01*
X124191515Y-87455500D01*
X124191516Y-87455500D01*
X124428484Y-87455500D01*
X124428485Y-87455500D01*
X124662539Y-87418429D01*
X124887911Y-87345201D01*
X125099054Y-87237619D01*
X125101369Y-87235936D01*
X125117548Y-87224183D01*
X125183354Y-87200702D01*
X125190434Y-87200500D01*
X125950664Y-87200500D01*
X126017703Y-87220185D01*
X126038345Y-87236819D01*
X134195354Y-95393828D01*
X134354595Y-95509524D01*
X134401629Y-95533489D01*
X134529969Y-95598882D01*
X134529971Y-95598882D01*
X134529974Y-95598884D01*
X134630318Y-95631487D01*
X134717173Y-95659709D01*
X134911578Y-95690500D01*
X134911583Y-95690500D01*
X135128422Y-95690500D01*
X135322826Y-95659709D01*
X135336014Y-95655424D01*
X135510025Y-95598884D01*
X135685405Y-95509524D01*
X135844646Y-95393828D01*
X135983828Y-95254646D01*
X136099524Y-95095405D01*
X136188884Y-94920025D01*
X136249709Y-94732826D01*
X136272234Y-94590609D01*
X136280500Y-94538422D01*
X136280500Y-94341577D01*
X136249709Y-94147173D01*
X136199354Y-93992198D01*
X136188884Y-93959975D01*
X136188882Y-93959972D01*
X136188882Y-93959970D01*
X136099523Y-93784594D01*
X135983828Y-93625354D01*
X135844646Y-93486172D01*
X135784697Y-93442616D01*
X135779397Y-93438765D01*
X135764603Y-93426129D01*
X127334648Y-84996174D01*
X127334646Y-84996172D01*
X127175405Y-84880476D01*
X127000030Y-84791117D01*
X126812826Y-84730290D01*
X126618422Y-84699500D01*
X126618417Y-84699500D01*
X125190434Y-84699500D01*
X125123395Y-84679815D01*
X125117548Y-84675817D01*
X125099058Y-84662383D01*
X124887913Y-84554800D01*
X124887912Y-84554799D01*
X124887911Y-84554799D01*
X124662539Y-84481571D01*
X124662537Y-84481570D01*
X124662535Y-84481570D01*
X124499115Y-84455686D01*
X124428485Y-84444500D01*
X124191515Y-84444500D01*
X124137257Y-84453093D01*
X123957464Y-84481570D01*
X123732086Y-84554800D01*
X123520945Y-84662381D01*
X123427476Y-84730291D01*
X123329233Y-84801669D01*
X123329231Y-84801671D01*
X123329230Y-84801671D01*
X123161671Y-84969230D01*
X123161671Y-84969231D01*
X123161669Y-84969233D01*
X123101850Y-85051566D01*
X123022381Y-85160945D01*
X122914800Y-85372086D01*
X122841570Y-85597464D01*
X122804500Y-85831515D01*
X120257583Y-85831515D01*
X120358331Y-85730767D01*
X120497619Y-85539054D01*
X120605201Y-85327911D01*
X120678429Y-85102539D01*
X120715500Y-84868485D01*
X120715500Y-84631515D01*
X120678429Y-84397461D01*
X120605201Y-84172089D01*
X120497619Y-83960946D01*
X120358331Y-83769233D01*
X120190767Y-83601669D01*
X119999054Y-83462381D01*
X119787911Y-83354799D01*
X119562539Y-83281571D01*
X119562537Y-83281570D01*
X119562535Y-83281570D01*
X119399115Y-83255686D01*
X119328485Y-83244500D01*
X119091515Y-83244500D01*
X119037257Y-83253093D01*
X118857464Y-83281570D01*
X118632086Y-83354800D01*
X118420945Y-83462381D01*
X118311566Y-83541850D01*
X118229233Y-83601669D01*
X118229231Y-83601671D01*
X118229230Y-83601671D01*
X118061671Y-83769230D01*
X118061671Y-83769231D01*
X118061669Y-83769233D01*
X118001850Y-83851566D01*
X117922381Y-83960945D01*
X117814800Y-84172086D01*
X117741570Y-84397464D01*
X117712777Y-84579256D01*
X117704500Y-84631515D01*
X86553363Y-84631515D01*
X87348379Y-82709040D01*
X87349089Y-82707360D01*
X88143345Y-80865592D01*
X88187966Y-80811831D01*
X88202870Y-80803238D01*
X88524872Y-80646274D01*
X89568308Y-80096450D01*
X90593987Y-79514172D01*
X91600899Y-78900011D01*
X92588054Y-78254573D01*
X93554480Y-77578492D01*
X94499227Y-76872433D01*
X95421365Y-76137092D01*
X96319986Y-75373191D01*
X96740398Y-74992460D01*
X97194190Y-74581500D01*
X97194208Y-74581483D01*
X98043169Y-73762745D01*
X98866034Y-72917785D01*
X99661993Y-72047432D01*
X100430264Y-71152544D01*
X101170091Y-70234001D01*
X101276657Y-70092840D01*
X101332758Y-70051198D01*
X101402469Y-70046496D01*
X101405538Y-70047217D01*
G37*
%TD.AperFunction*%
%TD*%
M02*
