%TF.GenerationSoftware,KiCad,Pcbnew,9.0.5*%
%TF.CreationDate,2026-01-12T20:45:56+02:00*%
%TF.ProjectId,PSB-100-A,5053422d-3130-4302-9d41-2e6b69636164,rev?*%
%TF.SameCoordinates,Original*%
%TF.FileFunction,Soldermask,Top*%
%TF.FilePolarity,Negative*%
%FSLAX46Y46*%
G04 Gerber Fmt 4.6, Leading zero omitted, Abs format (unit mm)*
G04 Created by KiCad (PCBNEW 9.0.5) date 2026-01-12 20:45:56*
%MOMM*%
%LPD*%
G01*
G04 APERTURE LIST*
G04 Aperture macros list*
%AMRoundRect*
0 Rectangle with rounded corners*
0 $1 Rounding radius*
0 $2 $3 $4 $5 $6 $7 $8 $9 X,Y pos of 4 corners*
0 Add a 4 corners polygon primitive as box body*
4,1,4,$2,$3,$4,$5,$6,$7,$8,$9,$2,$3,0*
0 Add four circle primitives for the rounded corners*
1,1,$1+$1,$2,$3*
1,1,$1+$1,$4,$5*
1,1,$1+$1,$6,$7*
1,1,$1+$1,$8,$9*
0 Add four rect primitives between the rounded corners*
20,1,$1+$1,$2,$3,$4,$5,0*
20,1,$1+$1,$4,$5,$6,$7,0*
20,1,$1+$1,$6,$7,$8,$9,0*
20,1,$1+$1,$8,$9,$2,$3,0*%
%AMHorizOval*
0 Thick line with rounded ends*
0 $1 width*
0 $2 $3 position (X,Y) of the first rounded end (center of the circle)*
0 $4 $5 position (X,Y) of the second rounded end (center of the circle)*
0 Add line between two ends*
20,1,$1,$2,$3,$4,$5,0*
0 Add two circle primitives to create the rounded ends*
1,1,$1,$2,$3*
1,1,$1,$4,$5*%
%AMRotRect*
0 Rectangle, with rotation*
0 The origin of the aperture is its center*
0 $1 length*
0 $2 width*
0 $3 Rotation angle, in degrees counterclockwise*
0 Add horizontal line*
21,1,$1,$2,0,0,$3*%
%AMFreePoly0*
4,1,9,3.862500,-0.866500,0.737500,-0.866500,0.737500,-0.450000,-0.737500,-0.450000,-0.737500,0.450000,0.737500,0.450000,0.737500,0.866500,3.862500,0.866500,3.862500,-0.866500,3.862500,-0.866500,$1*%
G04 Aperture macros list end*
%ADD10HorizOval,2.200000X0.624820X0.179164X-0.624820X-0.179164X0*%
%ADD11RotRect,1.500000X2.500000X106.000000*%
%ADD12HorizOval,1.500000X0.480631X0.137819X-0.480631X-0.137819X0*%
%ADD13C,3.200000*%
%ADD14RoundRect,0.250000X0.350000X0.450000X-0.350000X0.450000X-0.350000X-0.450000X0.350000X-0.450000X0*%
%ADD15RoundRect,0.250000X-0.625000X0.375000X-0.625000X-0.375000X0.625000X-0.375000X0.625000X0.375000X0*%
%ADD16RoundRect,0.250000X-0.350000X-0.450000X0.350000X-0.450000X0.350000X0.450000X-0.350000X0.450000X0*%
%ADD17RoundRect,0.420000X-0.980000X1.080000X-0.980000X-1.080000X0.980000X-1.080000X0.980000X1.080000X0*%
%ADD18RoundRect,0.250000X-0.400000X-0.450000X0.400000X-0.450000X0.400000X0.450000X-0.400000X0.450000X0*%
%ADD19RoundRect,0.250000X-2.050000X-0.300000X2.050000X-0.300000X2.050000X0.300000X-2.050000X0.300000X0*%
%ADD20RoundRect,0.250002X-4.449998X-5.149998X4.449998X-5.149998X4.449998X5.149998X-4.449998X5.149998X0*%
%ADD21RoundRect,0.225000X-0.225000X0.425000X-0.225000X-0.425000X0.225000X-0.425000X0.225000X0.425000X0*%
%ADD22FreePoly0,270.000000*%
%ADD23C,2.010000*%
%ADD24RoundRect,0.250000X0.350000X-0.850000X0.350000X0.850000X-0.350000X0.850000X-0.350000X-0.850000X0*%
%ADD25RoundRect,0.249997X2.650003X-2.950003X2.650003X2.950003X-2.650003X2.950003X-2.650003X-2.950003X0*%
%ADD26R,0.900000X2.000000*%
%ADD27RoundRect,1.025000X-1.025000X-1.025000X1.025000X-1.025000X1.025000X1.025000X-1.025000X1.025000X0*%
%ADD28C,4.100000*%
%ADD29R,2.300000X1.300000*%
%ADD30RoundRect,0.250000X1.000000X-1.950000X1.000000X1.950000X-1.000000X1.950000X-1.000000X-1.950000X0*%
%ADD31RoundRect,0.250000X-1.950000X-1.000000X1.950000X-1.000000X1.950000X1.000000X-1.950000X1.000000X0*%
%ADD32RoundRect,0.250000X-0.450000X0.350000X-0.450000X-0.350000X0.450000X-0.350000X0.450000X0.350000X0*%
%ADD33RoundRect,0.250000X-1.000000X-0.650000X1.000000X-0.650000X1.000000X0.650000X-1.000000X0.650000X0*%
%ADD34RotRect,1.700000X1.700000X225.000000*%
%ADD35C,1.700000*%
G04 APERTURE END LIST*
D10*
%TO.C,SW4*%
X180037590Y-110092448D03*
X177777364Y-102210104D03*
D11*
X179458752Y-108073799D03*
D12*
X178907479Y-106151276D03*
X178356203Y-104228752D03*
%TD*%
D13*
%TO.C,H4*%
X172150000Y-113550000D03*
%TD*%
D14*
%TO.C,R6*%
X121200000Y-89010000D03*
X119200000Y-89010000D03*
%TD*%
D15*
%TO.C,D1*%
X129270000Y-75030000D03*
X129270000Y-77830000D03*
%TD*%
D13*
%TO.C,H3*%
X89460000Y-113550000D03*
%TD*%
D16*
%TO.C,R8*%
X125820000Y-92090000D03*
X127820000Y-92090000D03*
%TD*%
D14*
%TO.C,R7*%
X113250000Y-97760000D03*
X111250000Y-97760000D03*
%TD*%
D13*
%TO.C,H1*%
X89460000Y-88480000D03*
%TD*%
D17*
%TO.C,DO5022P1*%
X102910000Y-103840000D03*
X102910000Y-119210000D03*
%TD*%
D18*
%TO.C,D2*%
X124922500Y-89060000D03*
X127822500Y-89060000D03*
%TD*%
D19*
%TO.C,U1*%
X121645000Y-114585000D03*
X121645000Y-116285000D03*
X121645000Y-117985000D03*
D20*
X130795000Y-117985000D03*
D19*
X121645000Y-119685000D03*
X121645000Y-121385000D03*
%TD*%
D21*
%TO.C,Q2*%
X118862500Y-95300000D03*
D22*
X117362500Y-95387500D03*
D21*
X115862500Y-95300000D03*
%TD*%
D16*
%TO.C,R9*%
X111290000Y-95360000D03*
X113290000Y-95360000D03*
%TD*%
D23*
%TO.C,F1*%
X124310000Y-85950000D03*
X119210000Y-84750000D03*
%TD*%
D24*
%TO.C,Q1*%
X111300000Y-92270000D03*
D25*
X113580000Y-85970000D03*
D24*
X115860000Y-92270000D03*
%TD*%
D26*
%TO.C,BT1*%
X147550000Y-88420000D03*
X161050000Y-88420000D03*
D27*
X150700000Y-94420000D03*
D28*
X157900000Y-94420000D03*
D29*
X154300000Y-90770000D03*
%TD*%
D30*
%TO.C,C11*%
X115860000Y-109680000D03*
X115860000Y-102280000D03*
%TD*%
D31*
%TO.C,C17*%
X123720000Y-100710000D03*
X131120000Y-100710000D03*
%TD*%
D16*
%TO.C,R33*%
X149280000Y-104790000D03*
X151280000Y-104790000D03*
%TD*%
D32*
%TO.C,R5*%
X132510000Y-75820000D03*
X132510000Y-77820000D03*
%TD*%
D33*
%TO.C,D11*%
X102910000Y-100040000D03*
X106910002Y-100040000D03*
%TD*%
D13*
%TO.C,H2*%
X172150000Y-88480000D03*
%TD*%
D34*
%TO.C,J8*%
X139040000Y-76151000D03*
D35*
X140836051Y-77947051D03*
X142632102Y-79743102D03*
%TD*%
M02*
