%TF.GenerationSoftware,KiCad,Pcbnew,9.0.5*%
%TF.CreationDate,2026-01-12T20:45:55+02:00*%
%TF.ProjectId,PSB-100-A,5053422d-3130-4302-9d41-2e6b69636164,rev?*%
%TF.SameCoordinates,Original*%
%TF.FileFunction,Copper,L1,Top*%
%TF.FilePolarity,Positive*%
%FSLAX46Y46*%
G04 Gerber Fmt 4.6, Leading zero omitted, Abs format (unit mm)*
G04 Created by KiCad (PCBNEW 9.0.5) date 2026-01-12 20:45:55*
%MOMM*%
%LPD*%
G01*
G04 APERTURE LIST*
G04 Aperture macros list*
%AMRoundRect*
0 Rectangle with rounded corners*
0 $1 Rounding radius*
0 $2 $3 $4 $5 $6 $7 $8 $9 X,Y pos of 4 corners*
0 Add a 4 corners polygon primitive as box body*
4,1,4,$2,$3,$4,$5,$6,$7,$8,$9,$2,$3,0*
0 Add four circle primitives for the rounded corners*
1,1,$1+$1,$2,$3*
1,1,$1+$1,$4,$5*
1,1,$1+$1,$6,$7*
1,1,$1+$1,$8,$9*
0 Add four rect primitives between the rounded corners*
20,1,$1+$1,$2,$3,$4,$5,0*
20,1,$1+$1,$4,$5,$6,$7,0*
20,1,$1+$1,$6,$7,$8,$9,0*
20,1,$1+$1,$8,$9,$2,$3,0*%
%AMHorizOval*
0 Thick line with rounded ends*
0 $1 width*
0 $2 $3 position (X,Y) of the first rounded end (center of the circle)*
0 $4 $5 position (X,Y) of the second rounded end (center of the circle)*
0 Add line between two ends*
20,1,$1,$2,$3,$4,$5,0*
0 Add two circle primitives to create the rounded ends*
1,1,$1,$2,$3*
1,1,$1,$4,$5*%
%AMRotRect*
0 Rectangle, with rotation*
0 The origin of the aperture is its center*
0 $1 length*
0 $2 width*
0 $3 Rotation angle, in degrees counterclockwise*
0 Add horizontal line*
21,1,$1,$2,0,0,$3*%
%AMFreePoly0*
4,1,9,3.862500,-0.866500,0.737500,-0.866500,0.737500,-0.450000,-0.737500,-0.450000,-0.737500,0.450000,0.737500,0.450000,0.737500,0.866500,3.862500,0.866500,3.862500,-0.866500,3.862500,-0.866500,$1*%
G04 Aperture macros list end*
%TA.AperFunction,ComponentPad*%
%ADD10HorizOval,2.200000X0.624820X0.179164X-0.624820X-0.179164X0*%
%TD*%
%TA.AperFunction,ComponentPad*%
%ADD11RotRect,1.500000X2.500000X106.000000*%
%TD*%
%TA.AperFunction,ComponentPad*%
%ADD12HorizOval,1.500000X0.480631X0.137819X-0.480631X-0.137819X0*%
%TD*%
%TA.AperFunction,SMDPad,CuDef*%
%ADD13RoundRect,0.250000X0.350000X0.450000X-0.350000X0.450000X-0.350000X-0.450000X0.350000X-0.450000X0*%
%TD*%
%TA.AperFunction,SMDPad,CuDef*%
%ADD14RoundRect,0.250000X-0.625000X0.375000X-0.625000X-0.375000X0.625000X-0.375000X0.625000X0.375000X0*%
%TD*%
%TA.AperFunction,SMDPad,CuDef*%
%ADD15RoundRect,0.250000X-0.350000X-0.450000X0.350000X-0.450000X0.350000X0.450000X-0.350000X0.450000X0*%
%TD*%
%TA.AperFunction,SMDPad,CuDef*%
%ADD16RoundRect,0.420000X-0.980000X1.080000X-0.980000X-1.080000X0.980000X-1.080000X0.980000X1.080000X0*%
%TD*%
%TA.AperFunction,SMDPad,CuDef*%
%ADD17RoundRect,0.250000X-0.400000X-0.450000X0.400000X-0.450000X0.400000X0.450000X-0.400000X0.450000X0*%
%TD*%
%TA.AperFunction,SMDPad,CuDef*%
%ADD18RoundRect,0.250000X-2.050000X-0.300000X2.050000X-0.300000X2.050000X0.300000X-2.050000X0.300000X0*%
%TD*%
%TA.AperFunction,SMDPad,CuDef*%
%ADD19RoundRect,0.250002X-4.449998X-5.149998X4.449998X-5.149998X4.449998X5.149998X-4.449998X5.149998X0*%
%TD*%
%TA.AperFunction,SMDPad,CuDef*%
%ADD20RoundRect,0.225000X-0.225000X0.425000X-0.225000X-0.425000X0.225000X-0.425000X0.225000X0.425000X0*%
%TD*%
%TA.AperFunction,SMDPad,CuDef*%
%ADD21FreePoly0,270.000000*%
%TD*%
%TA.AperFunction,ComponentPad*%
%ADD22C,2.010000*%
%TD*%
%TA.AperFunction,SMDPad,CuDef*%
%ADD23RoundRect,0.250000X0.350000X-0.850000X0.350000X0.850000X-0.350000X0.850000X-0.350000X-0.850000X0*%
%TD*%
%TA.AperFunction,SMDPad,CuDef*%
%ADD24RoundRect,0.249997X2.650003X-2.950003X2.650003X2.950003X-2.650003X2.950003X-2.650003X-2.950003X0*%
%TD*%
%TA.AperFunction,ComponentPad*%
%ADD25R,0.900000X2.000000*%
%TD*%
%TA.AperFunction,ComponentPad*%
%ADD26RoundRect,1.025000X-1.025000X-1.025000X1.025000X-1.025000X1.025000X1.025000X-1.025000X1.025000X0*%
%TD*%
%TA.AperFunction,ComponentPad*%
%ADD27C,4.100000*%
%TD*%
%TA.AperFunction,ComponentPad*%
%ADD28R,2.300000X1.300000*%
%TD*%
%TA.AperFunction,SMDPad,CuDef*%
%ADD29RoundRect,0.250000X1.000000X-1.950000X1.000000X1.950000X-1.000000X1.950000X-1.000000X-1.950000X0*%
%TD*%
%TA.AperFunction,SMDPad,CuDef*%
%ADD30RoundRect,0.250000X-1.950000X-1.000000X1.950000X-1.000000X1.950000X1.000000X-1.950000X1.000000X0*%
%TD*%
%TA.AperFunction,SMDPad,CuDef*%
%ADD31RoundRect,0.250000X-0.450000X0.350000X-0.450000X-0.350000X0.450000X-0.350000X0.450000X0.350000X0*%
%TD*%
%TA.AperFunction,SMDPad,CuDef*%
%ADD32RoundRect,0.250000X-1.000000X-0.650000X1.000000X-0.650000X1.000000X0.650000X-1.000000X0.650000X0*%
%TD*%
%TA.AperFunction,ComponentPad*%
%ADD33RotRect,1.700000X1.700000X225.000000*%
%TD*%
%TA.AperFunction,ComponentPad*%
%ADD34C,1.700000*%
%TD*%
%TA.AperFunction,ViaPad*%
%ADD35C,0.600000*%
%TD*%
%TA.AperFunction,ViaPad*%
%ADD36C,1.500000*%
%TD*%
%TA.AperFunction,Conductor*%
%ADD37C,1.500000*%
%TD*%
%TA.AperFunction,Conductor*%
%ADD38C,1.000000*%
%TD*%
%TA.AperFunction,Conductor*%
%ADD39C,0.400000*%
%TD*%
%TA.AperFunction,Conductor*%
%ADD40C,0.800000*%
%TD*%
%TA.AperFunction,Conductor*%
%ADD41C,0.200000*%
%TD*%
G04 APERTURE END LIST*
D10*
%TO.P,SW4,*%
%TO.N,*%
X180037590Y-110092448D03*
X177777364Y-102210104D03*
D11*
%TO.P,SW4,1,C*%
%TO.N,GND*%
X179458752Y-108073799D03*
D12*
%TO.P,SW4,2,B*%
%TO.N,Net-(SW4-B)*%
X178907479Y-106151276D03*
%TO.P,SW4,3,A*%
%TO.N,Net-(SW4-A)*%
X178356203Y-104228752D03*
%TD*%
D13*
%TO.P,R6,1*%
%TO.N,Net-(D2-K)*%
X121200000Y-89010000D03*
%TO.P,R6,2*%
%TO.N,Net-(Q1-D)*%
X119200000Y-89010000D03*
%TD*%
D14*
%TO.P,D1,1,K*%
%TO.N,GND*%
X129270000Y-75030000D03*
%TO.P,D1,2,A*%
%TO.N,Net-(D1-A)*%
X129270000Y-77830000D03*
%TD*%
D15*
%TO.P,R8,1*%
%TO.N,GND*%
X125820000Y-92090000D03*
%TO.P,R8,2*%
%TO.N,Net-(D2-A)*%
X127820000Y-92090000D03*
%TD*%
D13*
%TO.P,R7,1*%
%TO.N,Net-(Q2-C)*%
X113250000Y-97760000D03*
%TO.P,R7,2*%
%TO.N,Net-(Q1-G)*%
X111250000Y-97760000D03*
%TD*%
D16*
%TO.P,DO5022P1,1,1*%
%TO.N,Net-(D11-K)*%
X102910000Y-103840000D03*
%TO.P,DO5022P1,2,2*%
%TO.N,+5V*%
X102910000Y-119210000D03*
%TD*%
D17*
%TO.P,D2,1,K*%
%TO.N,Net-(D2-K)*%
X124922500Y-89060000D03*
%TO.P,D2,2,A*%
%TO.N,Net-(D2-A)*%
X127822500Y-89060000D03*
%TD*%
D18*
%TO.P,U1,1,VIN*%
%TO.N,BAT*%
X121645000Y-114585000D03*
%TO.P,U1,2,OUT*%
%TO.N,Net-(D11-K)*%
X121645000Y-116285000D03*
%TO.P,U1,3,GND*%
%TO.N,GND*%
X121645000Y-117985000D03*
D19*
X130795000Y-117985000D03*
D18*
%TO.P,U1,4,FB*%
%TO.N,+5V*%
X121645000Y-119685000D03*
%TO.P,U1,5,~{ON}/OFF*%
%TO.N,Net-(SW4-B)*%
X121645000Y-121385000D03*
%TD*%
D20*
%TO.P,Q2,1,B*%
%TO.N,Net-(D2-A)*%
X118862500Y-95300000D03*
D21*
%TO.P,Q2,2,C*%
%TO.N,Net-(Q2-C)*%
X117362500Y-95387500D03*
D20*
%TO.P,Q2,3,E*%
%TO.N,GND*%
X115862500Y-95300000D03*
%TD*%
D15*
%TO.P,R9,1*%
%TO.N,Net-(Q1-G)*%
X111290000Y-95360000D03*
%TO.P,R9,2*%
%TO.N,Net-(Q1-D)*%
X113290000Y-95360000D03*
%TD*%
D22*
%TO.P,F1,1*%
%TO.N,Net-(BT1-+)*%
X124310000Y-85950000D03*
%TO.P,F1,2*%
%TO.N,Net-(Q1-D)*%
X119210000Y-84750000D03*
%TD*%
D23*
%TO.P,Q1,1,G*%
%TO.N,Net-(Q1-G)*%
X111300000Y-92270000D03*
D24*
%TO.P,Q1,2,D*%
%TO.N,Net-(Q1-D)*%
X113580000Y-85970000D03*
D23*
%TO.P,Q1,3,S*%
%TO.N,BAT*%
X115860000Y-92270000D03*
%TD*%
D25*
%TO.P,BT1,*%
%TO.N,*%
X147550000Y-88420000D03*
X161050000Y-88420000D03*
D26*
%TO.P,BT1,1,+*%
%TO.N,Net-(BT1-+)*%
X150700000Y-94420000D03*
D27*
%TO.P,BT1,2,-*%
%TO.N,GND*%
X157900000Y-94420000D03*
D28*
%TO.P,BT1,3*%
%TO.N,N/C*%
X154300000Y-90770000D03*
%TD*%
D29*
%TO.P,C11,1*%
%TO.N,+5V*%
X115860000Y-109680000D03*
%TO.P,C11,2*%
%TO.N,GND*%
X115860000Y-102280000D03*
%TD*%
D30*
%TO.P,C17,1*%
%TO.N,BAT*%
X123720000Y-100710000D03*
%TO.P,C17,2*%
%TO.N,GND*%
X131120000Y-100710000D03*
%TD*%
D15*
%TO.P,R33,1*%
%TO.N,BAT*%
X149280000Y-104790000D03*
%TO.P,R33,2*%
%TO.N,Net-(SW4-A)*%
X151280000Y-104790000D03*
%TD*%
D31*
%TO.P,R5,1*%
%TO.N,+5V*%
X132510000Y-75820000D03*
%TO.P,R5,2*%
%TO.N,Net-(D1-A)*%
X132510000Y-77820000D03*
%TD*%
D32*
%TO.P,D11,1,K*%
%TO.N,Net-(D11-K)*%
X102910000Y-100040000D03*
%TO.P,D11,2,A*%
%TO.N,GND*%
X106910002Y-100040000D03*
%TD*%
D33*
%TO.P,J8,1,Pin_1*%
%TO.N,+5V*%
X139040000Y-76151000D03*
D34*
%TO.P,J8,2,Pin_2*%
%TO.N,GND*%
X140836051Y-77947051D03*
%TO.P,J8,3,Pin_3*%
%TO.N,BAT*%
X142632102Y-79743102D03*
%TD*%
D35*
%TO.N,GND*%
X137150000Y-123010000D03*
X157820000Y-98650000D03*
X118790000Y-102240000D03*
X130960000Y-97970000D03*
X114640000Y-94080000D03*
X115850000Y-105540000D03*
X132870000Y-111000000D03*
X134560000Y-100830000D03*
X137020000Y-117860000D03*
X112810000Y-102270000D03*
X114660000Y-96480000D03*
X154570000Y-94420000D03*
X127510000Y-100770000D03*
X109250000Y-100060000D03*
X161780000Y-94140000D03*
X136920000Y-113170000D03*
X124000000Y-93530000D03*
X126430000Y-90480000D03*
%TO.N,+5V*%
X119370000Y-111310000D03*
X115830000Y-118280000D03*
X115850000Y-113360000D03*
%TO.N,Net-(D2-A)*%
X124610000Y-95300000D03*
X120220000Y-95300000D03*
D36*
%TO.N,Net-(BT1-+)*%
X135030000Y-94440000D03*
D35*
%TO.N,Net-(SW4-B)*%
X123140000Y-121385000D03*
%TD*%
D37*
%TO.N,Net-(SW4-A)*%
X177847176Y-104737779D02*
X178356203Y-104228752D01*
X177665060Y-104790000D02*
X177847176Y-104737779D01*
X151280000Y-104790000D02*
X177665060Y-104790000D01*
D38*
%TO.N,+5V*%
X132510000Y-75820000D02*
X138709000Y-75820000D01*
X115860000Y-119685000D02*
X103385000Y-119685000D01*
X138709000Y-75820000D02*
X139040000Y-76151000D01*
X103385000Y-119685000D02*
X102910000Y-119210000D01*
X115400000Y-111310000D02*
X119370000Y-111310000D01*
X115880000Y-119705000D02*
X115860000Y-119685000D01*
X115860000Y-113350000D02*
X115850000Y-113360000D01*
X115860000Y-109680000D02*
X115860000Y-113350000D01*
X121645000Y-119685000D02*
X115860000Y-119685000D01*
X115830000Y-119655000D02*
X115860000Y-119685000D01*
X115830000Y-118280000D02*
X115830000Y-119655000D01*
D39*
%TO.N,Net-(D2-A)*%
X124610000Y-95300000D02*
X127820000Y-92090000D01*
X127820000Y-92090000D02*
X127820000Y-89062500D01*
X118862500Y-95300000D02*
X120220000Y-95300000D01*
X127820000Y-89062500D02*
X127822500Y-89060000D01*
D37*
%TO.N,BAT*%
X121645000Y-114585000D02*
X121645000Y-104790000D01*
X121645000Y-104790000D02*
X121645000Y-100720000D01*
X142632102Y-81797898D02*
X142632102Y-79743102D01*
X123720000Y-100710000D02*
X142632102Y-81797898D01*
X121645000Y-95026529D02*
X118888471Y-92270000D01*
X121645000Y-100720000D02*
X121645000Y-95026529D01*
D38*
X121655000Y-100710000D02*
X121645000Y-100720000D01*
D37*
X118888471Y-92270000D02*
X115860000Y-92270000D01*
X123720000Y-100710000D02*
X121655000Y-100710000D01*
X149280000Y-104790000D02*
X121645000Y-104790000D01*
D39*
%TO.N,Net-(Q1-D)*%
X113290000Y-86260000D02*
X113580000Y-85970000D01*
D40*
X113290000Y-95360000D02*
X113290000Y-86260000D01*
D37*
X114800000Y-84750000D02*
X113580000Y-85970000D01*
X119200000Y-89010000D02*
X119200000Y-84760000D01*
D41*
X113580000Y-95070000D02*
X113290000Y-95360000D01*
D37*
X119210000Y-84750000D02*
X114800000Y-84750000D01*
X119200000Y-84760000D02*
X119210000Y-84750000D01*
D40*
%TO.N,Net-(Q1-G)*%
X111290000Y-95360000D02*
X111290000Y-97720000D01*
D39*
X111290000Y-97720000D02*
X111250000Y-97760000D01*
X111300000Y-95350000D02*
X111290000Y-95360000D01*
D40*
X111300000Y-92270000D02*
X111300000Y-95350000D01*
D38*
%TO.N,Net-(D1-A)*%
X132500000Y-77830000D02*
X132510000Y-77820000D01*
X129270000Y-77830000D02*
X132500000Y-77830000D01*
D39*
%TO.N,Net-(D2-K)*%
X124922500Y-89060000D02*
X121250000Y-89060000D01*
D41*
X121250000Y-89060000D02*
X121200000Y-89010000D01*
D40*
%TO.N,Net-(Q2-C)*%
X113250000Y-97760000D02*
X117390000Y-97760000D01*
D37*
%TO.N,Net-(BT1-+)*%
X150700000Y-94420000D02*
X135050000Y-94420000D01*
X124320000Y-85960000D02*
X124310000Y-85950000D01*
X135050000Y-94420000D02*
X135030000Y-94440000D01*
D38*
%TO.N,Net-(D11-K)*%
X115355000Y-116285000D02*
X121645000Y-116285000D01*
X102910000Y-103840000D02*
X102910000Y-100040000D01*
X102910000Y-103840000D02*
X115355000Y-116285000D01*
%TD*%
%TA.AperFunction,Conductor*%
%TO.N,GND*%
G36*
X101405538Y-70047217D02*
G01*
X101844108Y-70156470D01*
X101983096Y-70191094D01*
X102381837Y-70283559D01*
X103946994Y-70646508D01*
X105918047Y-71069900D01*
X105918098Y-71069910D01*
X107895703Y-71461150D01*
X107895711Y-71461151D01*
X107895729Y-71461155D01*
X108549472Y-71579466D01*
X109879533Y-71820174D01*
X111868873Y-72146851D01*
X111868881Y-72146852D01*
X111868886Y-72146853D01*
X113863308Y-72441114D01*
X115862256Y-72702875D01*
X117547278Y-72895689D01*
X117865205Y-72932070D01*
X119871570Y-73128630D01*
X119871602Y-73128632D01*
X119871606Y-73128633D01*
X121880947Y-73292517D01*
X121880973Y-73292518D01*
X121880989Y-73292520D01*
X122485846Y-73331954D01*
X123892689Y-73423675D01*
X125906299Y-73522075D01*
X127921244Y-73587689D01*
X129936990Y-73620500D01*
X129937016Y-73620500D01*
X131019133Y-73620500D01*
X131019177Y-73620497D01*
X131952978Y-73620497D01*
X131953004Y-73620497D01*
X133968750Y-73587686D01*
X135983695Y-73522072D01*
X137997305Y-73423673D01*
X139554835Y-73322127D01*
X140009004Y-73292517D01*
X140009016Y-73292516D01*
X140009047Y-73292514D01*
X142018388Y-73128631D01*
X142018396Y-73128630D01*
X142018423Y-73128628D01*
X144024788Y-72932068D01*
X144159900Y-72916607D01*
X146027738Y-72702873D01*
X148026685Y-72441112D01*
X150021107Y-72146851D01*
X150626592Y-72047422D01*
X152010460Y-71820172D01*
X152367534Y-71755550D01*
X153994264Y-71461153D01*
X155971947Y-71069898D01*
X157943000Y-70646507D01*
X159734678Y-70231029D01*
X159906896Y-70191093D01*
X159908851Y-70190605D01*
X160484400Y-70047230D01*
X160554207Y-70050126D01*
X160611369Y-70090304D01*
X160613333Y-70092837D01*
X160687510Y-70191092D01*
X160719912Y-70234011D01*
X161459736Y-71152552D01*
X161724674Y-71461153D01*
X162228001Y-72047432D01*
X163023961Y-72917785D01*
X163846826Y-73762745D01*
X164695786Y-74581483D01*
X164695804Y-74581500D01*
X165569986Y-75373172D01*
X165570002Y-75373186D01*
X165570008Y-75373191D01*
X166468629Y-76137092D01*
X166486070Y-76151000D01*
X167390771Y-76872438D01*
X168335508Y-77578488D01*
X168956447Y-78012877D01*
X169301940Y-78254573D01*
X170289095Y-78900012D01*
X171296007Y-79514172D01*
X172321685Y-80096451D01*
X173365121Y-80646275D01*
X173661651Y-80790823D01*
X173687119Y-80803238D01*
X173738755Y-80850307D01*
X173746648Y-80865597D01*
X174540903Y-82707362D01*
X174541628Y-82709078D01*
X175394808Y-84772201D01*
X175395508Y-84773929D01*
X176217605Y-86849685D01*
X176218278Y-86851422D01*
X177009084Y-88939286D01*
X177009731Y-88941034D01*
X177769078Y-91040560D01*
X177769698Y-91042317D01*
X178497388Y-93152959D01*
X178497982Y-93154725D01*
X179193873Y-95276063D01*
X179194441Y-95277838D01*
X179858387Y-97409436D01*
X179858928Y-97411219D01*
X180428048Y-99339998D01*
X180490772Y-99552571D01*
X180491281Y-99554347D01*
X180524991Y-99675254D01*
X181090864Y-101704916D01*
X181091351Y-101706714D01*
X181658571Y-103866131D01*
X181659030Y-103867937D01*
X182193699Y-106035491D01*
X182194132Y-106037304D01*
X182696191Y-108212745D01*
X182696596Y-108214563D01*
X183165886Y-110397205D01*
X183166265Y-110399030D01*
X183602734Y-112588643D01*
X183603084Y-112590473D01*
X184006579Y-114786279D01*
X184006902Y-114788115D01*
X184288794Y-116463422D01*
X184280506Y-116532798D01*
X184236026Y-116586680D01*
X184203744Y-116602276D01*
X182340912Y-117188652D01*
X182339224Y-117189170D01*
X179950976Y-117903711D01*
X179949280Y-117904205D01*
X177551134Y-118584647D01*
X177549432Y-118585117D01*
X175141819Y-119231337D01*
X175140110Y-119231783D01*
X172723473Y-119843662D01*
X172721757Y-119844083D01*
X170296749Y-120421456D01*
X170295028Y-120421853D01*
X167861974Y-120964643D01*
X167860248Y-120965015D01*
X165419762Y-121473084D01*
X165418030Y-121473432D01*
X162970516Y-121946697D01*
X162968780Y-121947020D01*
X160514760Y-122385380D01*
X160513019Y-122385678D01*
X158053016Y-122789037D01*
X158051271Y-122789310D01*
X155585843Y-123157580D01*
X155584095Y-123157829D01*
X153113543Y-123490965D01*
X153111790Y-123491188D01*
X150636881Y-123789083D01*
X150635126Y-123789282D01*
X148156163Y-124051904D01*
X148154406Y-124052078D01*
X145671877Y-124279372D01*
X145670117Y-124279520D01*
X143184680Y-124471426D01*
X143182918Y-124471549D01*
X140695073Y-124628030D01*
X140693310Y-124628129D01*
X138203346Y-124749166D01*
X138201581Y-124749239D01*
X135710218Y-124834797D01*
X135708452Y-124834845D01*
X133216127Y-124884909D01*
X133214361Y-124884932D01*
X130721440Y-124899493D01*
X130719681Y-124899491D01*
X128247418Y-124878862D01*
X128245667Y-124878835D01*
X125773810Y-124823279D01*
X125772059Y-124823227D01*
X123301304Y-124732759D01*
X123299554Y-124732683D01*
X120830182Y-124607314D01*
X120828433Y-124607212D01*
X118361215Y-124446980D01*
X118359468Y-124446854D01*
X115894766Y-124251785D01*
X115893020Y-124251635D01*
X113431238Y-124021759D01*
X113429495Y-124021584D01*
X110971203Y-123756954D01*
X110969463Y-123756754D01*
X108515225Y-123457431D01*
X108513488Y-123457207D01*
X106516611Y-123184984D01*
X125595001Y-123184984D01*
X125605494Y-123287695D01*
X125660641Y-123454117D01*
X125660643Y-123454122D01*
X125752684Y-123603344D01*
X125876655Y-123727315D01*
X126025877Y-123819356D01*
X126025882Y-123819358D01*
X126192304Y-123874505D01*
X126192311Y-123874506D01*
X126295021Y-123884999D01*
X130544999Y-123884999D01*
X131045000Y-123884999D01*
X135294970Y-123884999D01*
X135294984Y-123884998D01*
X135397695Y-123874505D01*
X135564117Y-123819358D01*
X135564122Y-123819356D01*
X135713344Y-123727315D01*
X135837315Y-123603344D01*
X135929356Y-123454122D01*
X135929358Y-123454117D01*
X135984505Y-123287695D01*
X135984506Y-123287688D01*
X135994999Y-123184984D01*
X135995000Y-123184971D01*
X135995000Y-118235000D01*
X131045000Y-118235000D01*
X131045000Y-123884999D01*
X130544999Y-123884999D01*
X130545000Y-123884998D01*
X130545000Y-118235000D01*
X125595001Y-118235000D01*
X125595001Y-123184984D01*
X106516611Y-123184984D01*
X106063655Y-123123235D01*
X106061921Y-123122986D01*
X103617050Y-122754438D01*
X103615319Y-122754164D01*
X101176016Y-122351135D01*
X101174290Y-122350838D01*
X98740729Y-121913355D01*
X98739007Y-121913032D01*
X96312060Y-121441252D01*
X96310343Y-121440906D01*
X93890168Y-120934858D01*
X93888456Y-120934487D01*
X91475806Y-120394332D01*
X91474099Y-120393938D01*
X89069171Y-119819718D01*
X89067470Y-119819299D01*
X86670960Y-119211179D01*
X86669265Y-119210736D01*
X84281567Y-118568817D01*
X84279879Y-118568350D01*
X81901572Y-117892789D01*
X81899890Y-117892299D01*
X79531196Y-117183157D01*
X79529522Y-117182642D01*
X77686236Y-116602300D01*
X77628202Y-116563392D01*
X77600417Y-116499285D01*
X77601192Y-116463453D01*
X77883113Y-114787979D01*
X77883389Y-114786409D01*
X78132876Y-113428711D01*
X87609500Y-113428711D01*
X87609500Y-113671288D01*
X87630910Y-113833920D01*
X87641162Y-113911789D01*
X87672554Y-114028944D01*
X87703947Y-114146104D01*
X87792753Y-114360499D01*
X87796776Y-114370212D01*
X87918064Y-114580289D01*
X87918066Y-114580292D01*
X87918067Y-114580293D01*
X88065733Y-114772736D01*
X88065739Y-114772743D01*
X88237256Y-114944260D01*
X88237262Y-114944265D01*
X88429711Y-115091936D01*
X88639788Y-115213224D01*
X88863900Y-115306054D01*
X89098211Y-115368838D01*
X89278586Y-115392584D01*
X89338711Y-115400500D01*
X89338712Y-115400500D01*
X89581289Y-115400500D01*
X89629388Y-115394167D01*
X89821789Y-115368838D01*
X90056100Y-115306054D01*
X90280212Y-115213224D01*
X90490289Y-115091936D01*
X90682738Y-114944265D01*
X90854265Y-114772738D01*
X91001936Y-114580289D01*
X91123224Y-114370212D01*
X91216054Y-114146100D01*
X91278838Y-113911789D01*
X91310500Y-113671288D01*
X91310500Y-113428712D01*
X91278838Y-113188211D01*
X91216054Y-112953900D01*
X91123224Y-112729788D01*
X91001936Y-112519711D01*
X90887058Y-112369999D01*
X90854266Y-112327263D01*
X90854260Y-112327256D01*
X90682743Y-112155739D01*
X90682736Y-112155733D01*
X90490293Y-112008067D01*
X90490292Y-112008066D01*
X90490289Y-112008064D01*
X90318661Y-111908974D01*
X90280214Y-111886777D01*
X90280205Y-111886773D01*
X90056104Y-111793947D01*
X89821785Y-111731161D01*
X89581289Y-111699500D01*
X89581288Y-111699500D01*
X89338712Y-111699500D01*
X89338711Y-111699500D01*
X89098214Y-111731161D01*
X88863895Y-111793947D01*
X88639794Y-111886773D01*
X88639785Y-111886777D01*
X88429706Y-112008067D01*
X88237263Y-112155733D01*
X88237256Y-112155739D01*
X88065739Y-112327256D01*
X88065733Y-112327263D01*
X87918067Y-112519706D01*
X87796777Y-112729785D01*
X87796773Y-112729794D01*
X87703947Y-112953895D01*
X87641161Y-113188214D01*
X87609500Y-113428711D01*
X78132876Y-113428711D01*
X78286933Y-112590335D01*
X78287258Y-112588643D01*
X78723739Y-110398975D01*
X78724069Y-110397382D01*
X79193408Y-108214505D01*
X79193798Y-108212757D01*
X79239540Y-108014555D01*
X79695880Y-106037217D01*
X79696293Y-106035491D01*
X80230994Y-103867807D01*
X80231392Y-103866241D01*
X80538894Y-102695572D01*
X101009500Y-102695572D01*
X101009500Y-104984427D01*
X101015824Y-105064789D01*
X101060787Y-105232590D01*
X101065906Y-105251695D01*
X101153752Y-105424102D01*
X101275523Y-105574477D01*
X101425898Y-105696248D01*
X101598305Y-105784094D01*
X101785209Y-105834175D01*
X101865578Y-105840500D01*
X103444218Y-105840500D01*
X103511257Y-105860185D01*
X103531899Y-105876819D01*
X114574735Y-116919655D01*
X114574764Y-116919686D01*
X114717214Y-117062136D01*
X114717218Y-117062139D01*
X114881079Y-117171628D01*
X114881092Y-117171635D01*
X115009833Y-117224961D01*
X115063159Y-117247049D01*
X115063164Y-117247051D01*
X115118485Y-117258055D01*
X115164023Y-117267113D01*
X115225933Y-117299498D01*
X115260508Y-117360214D01*
X115256768Y-117429983D01*
X115215901Y-117486655D01*
X115208725Y-117491830D01*
X115192219Y-117502859D01*
X115192214Y-117502863D01*
X115052863Y-117642214D01*
X115052860Y-117642218D01*
X114943371Y-117806079D01*
X114943364Y-117806092D01*
X114867950Y-117988160D01*
X114867947Y-117988170D01*
X114829500Y-118181456D01*
X114829500Y-118560500D01*
X114809815Y-118627539D01*
X114757011Y-118673294D01*
X114705500Y-118684500D01*
X104934500Y-118684500D01*
X104867461Y-118664815D01*
X104821706Y-118612011D01*
X104810500Y-118560500D01*
X104810500Y-118065585D01*
X104810500Y-118065578D01*
X104804175Y-117985209D01*
X104754094Y-117798305D01*
X104666248Y-117625898D01*
X104544477Y-117475523D01*
X104394102Y-117353752D01*
X104221695Y-117265906D01*
X104221694Y-117265905D01*
X104221693Y-117265905D01*
X104034789Y-117215824D01*
X103954427Y-117209500D01*
X103954422Y-117209500D01*
X101865578Y-117209500D01*
X101865572Y-117209500D01*
X101785210Y-117215824D01*
X101598306Y-117265905D01*
X101425899Y-117353751D01*
X101425892Y-117353756D01*
X101275523Y-117475523D01*
X101153756Y-117625892D01*
X101153751Y-117625899D01*
X101065905Y-117798306D01*
X101015824Y-117985210D01*
X101009500Y-118065572D01*
X101009500Y-120354427D01*
X101015824Y-120434789D01*
X101045924Y-120547121D01*
X101065906Y-120621695D01*
X101153752Y-120794102D01*
X101275523Y-120944477D01*
X101425898Y-121066248D01*
X101598305Y-121154094D01*
X101785209Y-121204175D01*
X101865578Y-121210500D01*
X101865586Y-121210500D01*
X103954414Y-121210500D01*
X103954422Y-121210500D01*
X104034791Y-121204175D01*
X104221695Y-121154094D01*
X104394102Y-121066248D01*
X104544477Y-120944477D01*
X104666248Y-120794102D01*
X104687087Y-120753204D01*
X104735062Y-120702408D01*
X104797571Y-120685500D01*
X115668702Y-120685500D01*
X115692892Y-120687882D01*
X115781458Y-120705499D01*
X115781459Y-120705500D01*
X115781460Y-120705500D01*
X115978541Y-120705500D01*
X115978541Y-120705499D01*
X116067107Y-120687882D01*
X116091298Y-120685500D01*
X118765031Y-120685500D01*
X118832070Y-120705185D01*
X118877825Y-120757989D01*
X118887769Y-120827147D01*
X118882739Y-120848492D01*
X118855138Y-120931788D01*
X118855000Y-120932206D01*
X118844500Y-121034983D01*
X118844500Y-121735001D01*
X118844501Y-121735019D01*
X118855000Y-121837796D01*
X118855001Y-121837799D01*
X118880038Y-121913355D01*
X118910186Y-122004334D01*
X119002288Y-122153656D01*
X119126344Y-122277712D01*
X119275666Y-122369814D01*
X119442203Y-122424999D01*
X119544991Y-122435500D01*
X123745008Y-122435499D01*
X123847797Y-122424999D01*
X124014334Y-122369814D01*
X124163656Y-122277712D01*
X124287712Y-122153656D01*
X124379814Y-122004334D01*
X124434999Y-121837797D01*
X124445500Y-121735009D01*
X124445499Y-121034992D01*
X124434999Y-120932203D01*
X124379814Y-120765666D01*
X124287712Y-120616344D01*
X124287707Y-120616339D01*
X124284209Y-120611915D01*
X124258066Y-120547121D01*
X124271103Y-120478478D01*
X124284209Y-120458085D01*
X124287703Y-120453664D01*
X124287712Y-120453656D01*
X124379814Y-120304334D01*
X124434999Y-120137797D01*
X124445500Y-120035009D01*
X124445499Y-119334992D01*
X124434999Y-119232203D01*
X124379814Y-119065666D01*
X124287712Y-118916344D01*
X124287710Y-118916342D01*
X124283884Y-118911503D01*
X124257745Y-118846707D01*
X124270787Y-118778065D01*
X124283886Y-118757683D01*
X124287314Y-118753346D01*
X124379356Y-118604124D01*
X124379358Y-118604119D01*
X124434505Y-118437697D01*
X124434506Y-118437690D01*
X124444999Y-118334986D01*
X124445000Y-118334973D01*
X124445000Y-118235000D01*
X118845001Y-118235000D01*
X118845001Y-118334986D01*
X118855493Y-118437695D01*
X118883263Y-118521495D01*
X118885665Y-118591324D01*
X118849934Y-118651366D01*
X118787413Y-118682559D01*
X118765557Y-118684500D01*
X116954500Y-118684500D01*
X116887461Y-118664815D01*
X116841706Y-118612011D01*
X116830500Y-118560500D01*
X116830500Y-118181456D01*
X116792052Y-117988170D01*
X116792051Y-117988169D01*
X116792051Y-117988165D01*
X116757172Y-117903959D01*
X116716635Y-117806092D01*
X116716628Y-117806079D01*
X116607139Y-117642218D01*
X116607136Y-117642214D01*
X116463475Y-117498553D01*
X116465089Y-117496938D01*
X116431487Y-117447615D01*
X116429612Y-117377770D01*
X116465796Y-117318000D01*
X116528550Y-117287280D01*
X116549484Y-117285500D01*
X118765557Y-117285500D01*
X118832596Y-117305185D01*
X118878351Y-117357989D01*
X118888295Y-117427147D01*
X118883263Y-117448504D01*
X118855494Y-117532302D01*
X118855493Y-117532309D01*
X118845000Y-117635013D01*
X118845000Y-117735000D01*
X124444999Y-117735000D01*
X124444999Y-117635028D01*
X124444998Y-117635013D01*
X124434505Y-117532302D01*
X124379358Y-117365880D01*
X124379356Y-117365875D01*
X124287314Y-117216653D01*
X124283886Y-117212317D01*
X124257745Y-117147521D01*
X124270786Y-117078879D01*
X124283884Y-117058497D01*
X124287706Y-117053661D01*
X124287712Y-117053656D01*
X124379814Y-116904334D01*
X124434999Y-116737797D01*
X124445500Y-116635009D01*
X124445499Y-115934992D01*
X124434999Y-115832203D01*
X124379814Y-115665666D01*
X124287712Y-115516344D01*
X124287707Y-115516339D01*
X124284209Y-115511915D01*
X124258066Y-115447121D01*
X124271103Y-115378478D01*
X124284209Y-115358085D01*
X124287703Y-115353664D01*
X124287712Y-115353656D01*
X124379814Y-115204334D01*
X124434999Y-115037797D01*
X124445500Y-114935009D01*
X124445499Y-114234992D01*
X124434999Y-114132203D01*
X124379814Y-113965666D01*
X124287712Y-113816344D01*
X124163656Y-113692288D01*
X124014334Y-113600186D01*
X123847797Y-113545001D01*
X123847795Y-113545000D01*
X123745016Y-113534500D01*
X123745009Y-113534500D01*
X123019500Y-113534500D01*
X122952461Y-113514815D01*
X122906706Y-113462011D01*
X122895500Y-113410500D01*
X122895500Y-112785015D01*
X125595000Y-112785015D01*
X125595000Y-117735000D01*
X130545000Y-117735000D01*
X131045000Y-117735000D01*
X135994999Y-117735000D01*
X135994999Y-113428711D01*
X170299500Y-113428711D01*
X170299500Y-113671288D01*
X170320910Y-113833920D01*
X170331162Y-113911789D01*
X170362554Y-114028944D01*
X170393947Y-114146104D01*
X170482753Y-114360499D01*
X170486776Y-114370212D01*
X170608064Y-114580289D01*
X170608066Y-114580292D01*
X170608067Y-114580293D01*
X170755733Y-114772736D01*
X170755739Y-114772743D01*
X170927256Y-114944260D01*
X170927262Y-114944265D01*
X171119711Y-115091936D01*
X171329788Y-115213224D01*
X171553900Y-115306054D01*
X171788211Y-115368838D01*
X171968586Y-115392584D01*
X172028711Y-115400500D01*
X172028712Y-115400500D01*
X172271289Y-115400500D01*
X172319388Y-115394167D01*
X172511789Y-115368838D01*
X172746100Y-115306054D01*
X172970212Y-115213224D01*
X173180289Y-115091936D01*
X173372738Y-114944265D01*
X173544265Y-114772738D01*
X173691936Y-114580289D01*
X173813224Y-114370212D01*
X173906054Y-114146100D01*
X173968838Y-113911789D01*
X174000500Y-113671288D01*
X174000500Y-113428712D01*
X173968838Y-113188211D01*
X173906054Y-112953900D01*
X173813224Y-112729788D01*
X173691936Y-112519711D01*
X173577058Y-112369999D01*
X173544266Y-112327263D01*
X173544260Y-112327256D01*
X173372743Y-112155739D01*
X173372736Y-112155733D01*
X173180293Y-112008067D01*
X173180292Y-112008066D01*
X173180289Y-112008064D01*
X173008661Y-111908974D01*
X172970214Y-111886777D01*
X172970205Y-111886773D01*
X172746104Y-111793947D01*
X172511785Y-111731161D01*
X172271289Y-111699500D01*
X172271288Y-111699500D01*
X172028712Y-111699500D01*
X172028711Y-111699500D01*
X171788214Y-111731161D01*
X171553895Y-111793947D01*
X171329794Y-111886773D01*
X171329785Y-111886777D01*
X171119706Y-112008067D01*
X170927263Y-112155733D01*
X170927256Y-112155739D01*
X170755739Y-112327256D01*
X170755733Y-112327263D01*
X170608067Y-112519706D01*
X170486777Y-112729785D01*
X170486773Y-112729794D01*
X170393947Y-112953895D01*
X170331161Y-113188214D01*
X170299500Y-113428711D01*
X135994999Y-113428711D01*
X135994999Y-112785030D01*
X135994998Y-112785015D01*
X135984505Y-112682304D01*
X135929358Y-112515882D01*
X135929356Y-112515877D01*
X135837315Y-112366655D01*
X135713344Y-112242684D01*
X135564122Y-112150643D01*
X135564117Y-112150641D01*
X135397695Y-112095494D01*
X135397688Y-112095493D01*
X135294984Y-112085000D01*
X131045000Y-112085000D01*
X131045000Y-117735000D01*
X130545000Y-117735000D01*
X130545000Y-112085000D01*
X126295030Y-112085000D01*
X126295014Y-112085001D01*
X126192304Y-112095494D01*
X126025882Y-112150641D01*
X126025877Y-112150643D01*
X125876655Y-112242684D01*
X125752684Y-112366655D01*
X125660643Y-112515877D01*
X125660641Y-112515882D01*
X125605494Y-112682304D01*
X125605493Y-112682311D01*
X125595000Y-112785015D01*
X122895500Y-112785015D01*
X122895500Y-106164500D01*
X122915185Y-106097461D01*
X122967989Y-106051706D01*
X123019500Y-106040500D01*
X149378422Y-106040500D01*
X149486422Y-106023393D01*
X149572826Y-106009709D01*
X149613269Y-105996568D01*
X149651587Y-105990499D01*
X149680002Y-105990499D01*
X149680008Y-105990499D01*
X149782797Y-105979999D01*
X149949334Y-105924814D01*
X150098656Y-105832712D01*
X150192319Y-105739049D01*
X150253642Y-105705564D01*
X150323334Y-105710548D01*
X150367681Y-105739049D01*
X150461344Y-105832712D01*
X150610666Y-105924814D01*
X150777203Y-105979999D01*
X150879991Y-105990500D01*
X150908412Y-105990499D01*
X150946730Y-105996567D01*
X150987174Y-106009709D01*
X151060077Y-106021255D01*
X151181578Y-106040500D01*
X151181583Y-106040500D01*
X177055861Y-106040500D01*
X177122900Y-106060185D01*
X177168655Y-106112989D01*
X177179785Y-106168827D01*
X177173675Y-106343811D01*
X177185456Y-106439759D01*
X177197662Y-106539172D01*
X177197662Y-106539175D01*
X177197663Y-106539176D01*
X177251918Y-106728385D01*
X177335103Y-106906775D01*
X177428462Y-107045186D01*
X177445173Y-107069961D01*
X177478037Y-107105203D01*
X177579410Y-107213912D01*
X177579414Y-107213915D01*
X177579415Y-107213916D01*
X177615070Y-107241773D01*
X177655779Y-107298558D01*
X177659325Y-107368338D01*
X177637522Y-107414424D01*
X177608642Y-107452497D01*
X177608640Y-107452500D01*
X177557538Y-107586896D01*
X177546372Y-107730233D01*
X177546372Y-107730236D01*
X177556634Y-107789251D01*
X177707633Y-108315849D01*
X177707634Y-108315849D01*
X179029590Y-107936784D01*
X179008752Y-108014555D01*
X179008752Y-108133043D01*
X179039419Y-108247493D01*
X179098662Y-108350105D01*
X179166291Y-108417734D01*
X177845452Y-108796479D01*
X177845452Y-108796480D01*
X177996452Y-109323078D01*
X178021570Y-109384823D01*
X178028598Y-109454338D01*
X178015163Y-109491664D01*
X177951875Y-109605838D01*
X177951872Y-109605846D01*
X177865713Y-109842568D01*
X177865710Y-109842578D01*
X177817642Y-110089869D01*
X177817641Y-110089875D01*
X177814302Y-110185500D01*
X177808849Y-110341640D01*
X177818884Y-110423368D01*
X177839550Y-110591684D01*
X177839551Y-110591687D01*
X177908990Y-110833851D01*
X177985489Y-110997904D01*
X178015459Y-111062175D01*
X178015461Y-111062178D01*
X178156329Y-111271022D01*
X178156336Y-111271031D01*
X178193231Y-111310596D01*
X178328144Y-111455273D01*
X178328148Y-111455276D01*
X178328149Y-111455277D01*
X178526657Y-111610369D01*
X178526660Y-111610371D01*
X178526663Y-111610373D01*
X178526667Y-111610375D01*
X178744571Y-111731162D01*
X178747000Y-111732508D01*
X178983732Y-111818671D01*
X179231027Y-111866740D01*
X179482798Y-111875533D01*
X179732845Y-111844831D01*
X180105796Y-111737889D01*
X181224641Y-111417067D01*
X181224644Y-111417065D01*
X181224650Y-111417064D01*
X181452971Y-111310595D01*
X181661825Y-111169721D01*
X181846071Y-110997910D01*
X182001171Y-110799391D01*
X182123307Y-110579054D01*
X182209469Y-110342322D01*
X182257539Y-110095027D01*
X182266331Y-109843256D01*
X182235630Y-109593209D01*
X182224155Y-109553191D01*
X182166193Y-109351052D01*
X182166191Y-109351047D01*
X182089688Y-109186986D01*
X182059722Y-109122723D01*
X181918848Y-108913869D01*
X181918845Y-108913866D01*
X181918844Y-108913864D01*
X181782666Y-108767832D01*
X181747036Y-108729623D01*
X181747030Y-108729618D01*
X181548522Y-108574526D01*
X181548508Y-108574517D01*
X181434339Y-108511231D01*
X181385248Y-108461513D01*
X181372289Y-108424021D01*
X181360869Y-108358349D01*
X181360869Y-108358347D01*
X181209869Y-107831747D01*
X181209868Y-107831747D01*
X179887913Y-108210812D01*
X179908752Y-108133043D01*
X179908752Y-108014555D01*
X179878085Y-107900105D01*
X179818842Y-107797493D01*
X179751211Y-107729862D01*
X181072049Y-107351117D01*
X181072050Y-107351116D01*
X180921050Y-106824517D01*
X180898480Y-106769035D01*
X180813048Y-106653388D01*
X180698500Y-106566500D01*
X180653826Y-106549513D01*
X180598160Y-106507287D01*
X180574160Y-106441668D01*
X180581376Y-106391200D01*
X180596856Y-106348671D01*
X180634413Y-106155454D01*
X180641283Y-105958742D01*
X180617295Y-105763376D01*
X180563040Y-105574167D01*
X180479855Y-105395777D01*
X180479853Y-105395774D01*
X180479851Y-105395770D01*
X180369790Y-105232599D01*
X180369783Y-105232590D01*
X180314023Y-105172796D01*
X180235547Y-105088640D01*
X180080440Y-104967458D01*
X179959628Y-104900491D01*
X179910538Y-104850773D01*
X179896120Y-104782407D01*
X179911292Y-104731922D01*
X179978257Y-104611113D01*
X179978259Y-104611110D01*
X180045580Y-104426147D01*
X180083137Y-104232930D01*
X180090007Y-104036218D01*
X180066019Y-103840852D01*
X180011764Y-103651643D01*
X179928579Y-103473253D01*
X179928577Y-103473250D01*
X179928575Y-103473246D01*
X179818514Y-103310075D01*
X179818507Y-103310066D01*
X179761976Y-103249445D01*
X179684271Y-103166116D01*
X179684267Y-103166113D01*
X179681452Y-103163094D01*
X179650128Y-103100640D01*
X179657541Y-103031165D01*
X179674421Y-103002192D01*
X179740945Y-102917047D01*
X179863081Y-102696710D01*
X179949243Y-102459978D01*
X179997313Y-102212683D01*
X180006105Y-101960912D01*
X179975404Y-101710865D01*
X179963929Y-101670847D01*
X179905967Y-101468708D01*
X179905965Y-101468703D01*
X179903689Y-101463822D01*
X179799496Y-101240379D01*
X179658622Y-101031525D01*
X179658619Y-101031522D01*
X179658618Y-101031520D01*
X179522440Y-100885488D01*
X179486810Y-100847279D01*
X179481076Y-100842799D01*
X179288296Y-100692182D01*
X179288286Y-100692176D01*
X179067957Y-100570045D01*
X179067944Y-100570040D01*
X178831228Y-100483883D01*
X178831229Y-100483883D01*
X178831223Y-100483881D01*
X178583927Y-100435811D01*
X178583924Y-100435810D01*
X178583921Y-100435810D01*
X178332162Y-100427019D01*
X178332160Y-100427019D01*
X178332159Y-100427019D01*
X178332157Y-100427019D01*
X178224994Y-100440177D01*
X178082106Y-100457721D01*
X176590313Y-100885484D01*
X176590308Y-100885486D01*
X176361980Y-100991957D01*
X176361977Y-100991959D01*
X176153133Y-101132827D01*
X176153124Y-101132834D01*
X175968883Y-101304642D01*
X175968878Y-101304647D01*
X175813786Y-101503155D01*
X175813780Y-101503165D01*
X175691649Y-101723494D01*
X175691644Y-101723507D01*
X175605487Y-101960224D01*
X175605484Y-101960234D01*
X175557416Y-102207525D01*
X175557415Y-102207531D01*
X175548623Y-102459290D01*
X175548623Y-102459296D01*
X175562052Y-102568670D01*
X175579324Y-102709340D01*
X175579325Y-102709343D01*
X175638881Y-102917042D01*
X175648764Y-102951506D01*
X175755233Y-103179831D01*
X175755235Y-103179835D01*
X175867424Y-103346160D01*
X175888593Y-103412745D01*
X175870403Y-103480206D01*
X175818629Y-103527122D01*
X175764624Y-103539500D01*
X151181578Y-103539500D01*
X150987173Y-103570291D01*
X150946726Y-103583432D01*
X150908415Y-103589500D01*
X150879999Y-103589500D01*
X150879981Y-103589501D01*
X150777202Y-103600001D01*
X150777200Y-103600001D01*
X150610668Y-103655185D01*
X150610663Y-103655187D01*
X150461342Y-103747289D01*
X150367681Y-103840951D01*
X150306358Y-103874436D01*
X150236666Y-103869452D01*
X150192319Y-103840951D01*
X150098657Y-103747289D01*
X150098656Y-103747288D01*
X149949334Y-103655186D01*
X149782797Y-103600001D01*
X149782795Y-103600000D01*
X149680016Y-103589500D01*
X149680009Y-103589500D01*
X149651585Y-103589500D01*
X149613267Y-103583431D01*
X149606584Y-103581259D01*
X149572826Y-103570290D01*
X149378422Y-103539500D01*
X149378417Y-103539500D01*
X123019500Y-103539500D01*
X122952461Y-103519815D01*
X122906706Y-103467011D01*
X122895500Y-103415500D01*
X122895500Y-102584499D01*
X122915185Y-102517460D01*
X122967989Y-102471705D01*
X123019500Y-102460499D01*
X125720002Y-102460499D01*
X125720008Y-102460499D01*
X125822797Y-102449999D01*
X125989334Y-102394814D01*
X126138656Y-102302712D01*
X126262712Y-102178656D01*
X126354814Y-102029334D01*
X126409999Y-101862797D01*
X126420500Y-101760009D01*
X126420500Y-101759986D01*
X128420001Y-101759986D01*
X128430494Y-101862697D01*
X128485641Y-102029119D01*
X128485643Y-102029124D01*
X128577684Y-102178345D01*
X128701654Y-102302315D01*
X128850875Y-102394356D01*
X128850880Y-102394358D01*
X129017302Y-102449505D01*
X129017309Y-102449506D01*
X129120019Y-102459999D01*
X130869999Y-102459999D01*
X131370000Y-102459999D01*
X133119972Y-102459999D01*
X133119986Y-102459998D01*
X133222697Y-102449505D01*
X133389119Y-102394358D01*
X133389124Y-102394356D01*
X133538345Y-102302315D01*
X133662315Y-102178345D01*
X133754356Y-102029124D01*
X133754358Y-102029119D01*
X133809505Y-101862697D01*
X133809506Y-101862690D01*
X133819999Y-101759986D01*
X133820000Y-101759973D01*
X133820000Y-100960000D01*
X131370000Y-100960000D01*
X131370000Y-102459999D01*
X130869999Y-102459999D01*
X130870000Y-102459998D01*
X130870000Y-100960000D01*
X128420001Y-100960000D01*
X128420001Y-101759986D01*
X126420500Y-101759986D01*
X126420499Y-100740018D01*
X126420499Y-99829335D01*
X126429145Y-99799888D01*
X126435667Y-99769908D01*
X126439419Y-99764894D01*
X126440183Y-99762296D01*
X126456813Y-99741659D01*
X126538459Y-99660013D01*
X128420000Y-99660013D01*
X128420000Y-100460000D01*
X130870000Y-100460000D01*
X131370000Y-100460000D01*
X133819999Y-100460000D01*
X133819999Y-99660028D01*
X133819998Y-99660013D01*
X133809505Y-99557302D01*
X133754358Y-99390880D01*
X133754356Y-99390875D01*
X133662315Y-99241654D01*
X133538345Y-99117684D01*
X133389124Y-99025643D01*
X133389119Y-99025641D01*
X133222697Y-98970494D01*
X133222690Y-98970493D01*
X133119986Y-98960000D01*
X131370000Y-98960000D01*
X131370000Y-100460000D01*
X130870000Y-100460000D01*
X130870000Y-98960000D01*
X129120028Y-98960000D01*
X129120012Y-98960001D01*
X129017302Y-98970494D01*
X128850880Y-99025641D01*
X128850875Y-99025643D01*
X128701654Y-99117684D01*
X128577684Y-99241654D01*
X128485643Y-99390875D01*
X128485641Y-99390880D01*
X128430494Y-99557302D01*
X128430493Y-99557309D01*
X128420000Y-99660013D01*
X126538459Y-99660013D01*
X131856896Y-94341577D01*
X133779500Y-94341577D01*
X133779500Y-94538422D01*
X133810290Y-94732826D01*
X133871117Y-94920030D01*
X133937341Y-95050000D01*
X133960476Y-95095405D01*
X134076172Y-95254646D01*
X134215354Y-95393828D01*
X134374595Y-95509524D01*
X134549974Y-95598884D01*
X134676442Y-95639976D01*
X134706808Y-95649842D01*
X134737173Y-95659709D01*
X134931578Y-95690500D01*
X134931583Y-95690500D01*
X135128422Y-95690500D01*
X135245053Y-95672027D01*
X135264451Y-95670500D01*
X148062897Y-95670500D01*
X148129936Y-95690185D01*
X148175691Y-95742989D01*
X148183867Y-95767255D01*
X148213835Y-95900317D01*
X148213835Y-95900319D01*
X148294401Y-96100499D01*
X148305795Y-96128809D01*
X148433216Y-96339589D01*
X148473154Y-96386542D01*
X148592798Y-96527201D01*
X148631945Y-96560499D01*
X148780411Y-96686784D01*
X148991191Y-96814205D01*
X149219683Y-96906165D01*
X149459966Y-96960281D01*
X149604705Y-96970500D01*
X151795294Y-96970499D01*
X151940034Y-96960281D01*
X152180317Y-96906165D01*
X152408809Y-96814205D01*
X152619589Y-96686784D01*
X152807201Y-96527201D01*
X152966784Y-96339589D01*
X153094205Y-96128809D01*
X153186165Y-95900317D01*
X153240281Y-95660034D01*
X153250500Y-95515295D01*
X153250499Y-94276790D01*
X155350000Y-94276790D01*
X155350000Y-94563209D01*
X155382066Y-94847801D01*
X155382068Y-94847817D01*
X155445799Y-95127042D01*
X155445803Y-95127054D01*
X155540396Y-95397383D01*
X155664662Y-95655424D01*
X155817042Y-95897935D01*
X155928608Y-96037836D01*
X156784728Y-95181716D01*
X156870278Y-95299466D01*
X157020534Y-95449722D01*
X157138282Y-95535270D01*
X156282162Y-96391390D01*
X156422064Y-96502957D01*
X156664575Y-96655337D01*
X156922616Y-96779603D01*
X157192945Y-96874196D01*
X157192957Y-96874200D01*
X157472182Y-96937931D01*
X157472198Y-96937933D01*
X157756790Y-96969999D01*
X157756792Y-96970000D01*
X158043208Y-96970000D01*
X158043209Y-96969999D01*
X158327801Y-96937933D01*
X158327817Y-96937931D01*
X158607042Y-96874200D01*
X158607054Y-96874196D01*
X158877383Y-96779603D01*
X159135424Y-96655337D01*
X159377935Y-96502958D01*
X159517836Y-96391389D01*
X158661717Y-95535271D01*
X158779466Y-95449722D01*
X158929722Y-95299466D01*
X159015270Y-95181717D01*
X159871389Y-96037836D01*
X159982958Y-95897935D01*
X160135337Y-95655424D01*
X160259603Y-95397383D01*
X160354196Y-95127054D01*
X160354200Y-95127042D01*
X160417931Y-94847817D01*
X160417933Y-94847801D01*
X160449999Y-94563209D01*
X160450000Y-94563207D01*
X160450000Y-94276792D01*
X160449999Y-94276790D01*
X160417933Y-93992198D01*
X160417931Y-93992182D01*
X160354200Y-93712957D01*
X160354196Y-93712945D01*
X160259603Y-93442616D01*
X160135337Y-93184575D01*
X159982957Y-92942064D01*
X159871390Y-92802162D01*
X159015270Y-93658281D01*
X158929722Y-93540534D01*
X158779466Y-93390278D01*
X158661716Y-93304728D01*
X159517836Y-92448608D01*
X159377935Y-92337042D01*
X159135424Y-92184662D01*
X158877383Y-92060396D01*
X158607054Y-91965803D01*
X158607042Y-91965799D01*
X158327817Y-91902068D01*
X158327801Y-91902066D01*
X158043209Y-91870000D01*
X157756790Y-91870000D01*
X157472198Y-91902066D01*
X157472182Y-91902068D01*
X157192957Y-91965799D01*
X157192945Y-91965803D01*
X156922616Y-92060396D01*
X156664575Y-92184662D01*
X156422070Y-92337038D01*
X156282163Y-92448609D01*
X157138282Y-93304728D01*
X157020534Y-93390278D01*
X156870278Y-93540534D01*
X156784728Y-93658282D01*
X155928609Y-92802163D01*
X155817038Y-92942070D01*
X155664662Y-93184575D01*
X155540396Y-93442616D01*
X155445803Y-93712945D01*
X155445799Y-93712957D01*
X155382068Y-93992182D01*
X155382066Y-93992198D01*
X155350000Y-94276790D01*
X153250499Y-94276790D01*
X153250499Y-93324706D01*
X153240281Y-93179966D01*
X153186165Y-92939683D01*
X153094205Y-92711191D01*
X152966784Y-92500411D01*
X152854510Y-92368417D01*
X152807201Y-92312798D01*
X152641175Y-92171577D01*
X152619589Y-92153216D01*
X152408809Y-92025795D01*
X152288001Y-91977174D01*
X152180318Y-91933835D01*
X151940036Y-91879719D01*
X151940029Y-91879718D01*
X151795296Y-91869500D01*
X149604707Y-91869500D01*
X149604701Y-91869501D01*
X149459972Y-91879718D01*
X149459966Y-91879718D01*
X149459966Y-91879719D01*
X149459963Y-91879719D01*
X149459961Y-91879720D01*
X149219685Y-91933834D01*
X149219680Y-91933835D01*
X148991190Y-92025795D01*
X148991185Y-92025798D01*
X148780417Y-92153212D01*
X148780407Y-92153219D01*
X148592798Y-92312798D01*
X148433219Y-92500407D01*
X148433212Y-92500417D01*
X148305798Y-92711185D01*
X148305795Y-92711190D01*
X148213835Y-92939680D01*
X148213835Y-92939682D01*
X148183867Y-93072745D01*
X148149934Y-93133821D01*
X148088367Y-93166856D01*
X148062897Y-93169500D01*
X134951578Y-93169500D01*
X134757172Y-93200291D01*
X134696348Y-93220053D01*
X134696348Y-93220054D01*
X134681705Y-93224812D01*
X134569970Y-93261117D01*
X134445174Y-93324705D01*
X134394593Y-93350477D01*
X134394590Y-93350478D01*
X134276513Y-93436268D01*
X134235354Y-93466172D01*
X134235352Y-93466174D01*
X134235351Y-93466174D01*
X134076174Y-93625351D01*
X134076174Y-93625352D01*
X134076172Y-93625354D01*
X134034849Y-93682230D01*
X133960476Y-93784594D01*
X133871117Y-93959969D01*
X133810290Y-94147173D01*
X133779500Y-94341577D01*
X131856896Y-94341577D01*
X134045261Y-92153212D01*
X136126339Y-90072135D01*
X152649500Y-90072135D01*
X152649501Y-91467867D01*
X152649501Y-91467876D01*
X152655908Y-91527483D01*
X152706202Y-91662328D01*
X152706206Y-91662335D01*
X152792452Y-91777544D01*
X152792455Y-91777547D01*
X152907664Y-91863793D01*
X152907671Y-91863797D01*
X153042517Y-91914091D01*
X153042516Y-91914091D01*
X153049444Y-91914835D01*
X153102127Y-91920500D01*
X155497872Y-91920499D01*
X155557483Y-91914091D01*
X155692331Y-91863796D01*
X155807546Y-91777546D01*
X155893796Y-91662331D01*
X155944091Y-91527483D01*
X155950500Y-91467873D01*
X155950499Y-90072128D01*
X155944091Y-90012517D01*
X155912813Y-89928657D01*
X155893797Y-89877671D01*
X155893793Y-89877664D01*
X155807547Y-89762455D01*
X155807544Y-89762452D01*
X155692335Y-89676206D01*
X155692328Y-89676202D01*
X155557482Y-89625908D01*
X155557483Y-89625908D01*
X155497883Y-89619501D01*
X155497881Y-89619500D01*
X155497873Y-89619500D01*
X155497864Y-89619500D01*
X153102129Y-89619500D01*
X153102123Y-89619501D01*
X153042516Y-89625908D01*
X152907671Y-89676202D01*
X152907664Y-89676206D01*
X152792455Y-89762452D01*
X152792452Y-89762455D01*
X152706206Y-89877664D01*
X152706202Y-89877671D01*
X152655908Y-90012517D01*
X152651587Y-90052712D01*
X152649501Y-90072123D01*
X152649500Y-90072135D01*
X136126339Y-90072135D01*
X136217349Y-89981125D01*
X138826339Y-87372135D01*
X146599500Y-87372135D01*
X146599500Y-89467870D01*
X146599501Y-89467876D01*
X146605908Y-89527483D01*
X146656202Y-89662328D01*
X146656206Y-89662335D01*
X146742452Y-89777544D01*
X146742455Y-89777547D01*
X146857664Y-89863793D01*
X146857671Y-89863797D01*
X146992517Y-89914091D01*
X146992516Y-89914091D01*
X146999444Y-89914835D01*
X147052127Y-89920500D01*
X148047872Y-89920499D01*
X148107483Y-89914091D01*
X148242331Y-89863796D01*
X148357546Y-89777546D01*
X148443796Y-89662331D01*
X148494091Y-89527483D01*
X148500500Y-89467873D01*
X148500499Y-87372135D01*
X160099500Y-87372135D01*
X160099500Y-89467870D01*
X160099501Y-89467876D01*
X160105908Y-89527483D01*
X160156202Y-89662328D01*
X160156206Y-89662335D01*
X160242452Y-89777544D01*
X160242455Y-89777547D01*
X160357664Y-89863793D01*
X160357671Y-89863797D01*
X160492517Y-89914091D01*
X160492516Y-89914091D01*
X160499444Y-89914835D01*
X160552127Y-89920500D01*
X161547872Y-89920499D01*
X161607483Y-89914091D01*
X161742331Y-89863796D01*
X161857546Y-89777546D01*
X161943796Y-89662331D01*
X161994091Y-89527483D01*
X162000500Y-89467873D01*
X162000499Y-88358711D01*
X170299500Y-88358711D01*
X170299500Y-88601288D01*
X170331161Y-88841785D01*
X170393947Y-89076104D01*
X170486773Y-89300205D01*
X170486776Y-89300212D01*
X170608064Y-89510289D01*
X170608066Y-89510292D01*
X170608067Y-89510293D01*
X170755733Y-89702736D01*
X170755739Y-89702743D01*
X170927256Y-89874260D01*
X170927263Y-89874266D01*
X171037755Y-89959049D01*
X171119711Y-90021936D01*
X171329788Y-90143224D01*
X171553900Y-90236054D01*
X171788211Y-90298838D01*
X171968586Y-90322584D01*
X172028711Y-90330500D01*
X172028712Y-90330500D01*
X172271289Y-90330500D01*
X172319388Y-90324167D01*
X172511789Y-90298838D01*
X172746100Y-90236054D01*
X172970212Y-90143224D01*
X173180289Y-90021936D01*
X173372738Y-89874265D01*
X173544265Y-89702738D01*
X173691936Y-89510289D01*
X173813224Y-89300212D01*
X173906054Y-89076100D01*
X173968838Y-88841789D01*
X174000500Y-88601288D01*
X174000500Y-88358712D01*
X173968838Y-88118211D01*
X173906054Y-87883900D01*
X173813224Y-87659788D01*
X173691936Y-87449711D01*
X173544265Y-87257262D01*
X173544260Y-87257256D01*
X173372743Y-87085739D01*
X173372736Y-87085733D01*
X173180293Y-86938067D01*
X173180292Y-86938066D01*
X173180289Y-86938064D01*
X172970212Y-86816776D01*
X172970205Y-86816773D01*
X172746104Y-86723947D01*
X172511785Y-86661161D01*
X172271289Y-86629500D01*
X172271288Y-86629500D01*
X172028712Y-86629500D01*
X172028711Y-86629500D01*
X171788214Y-86661161D01*
X171553895Y-86723947D01*
X171329794Y-86816773D01*
X171329785Y-86816777D01*
X171119706Y-86938067D01*
X170927263Y-87085733D01*
X170927256Y-87085739D01*
X170755739Y-87257256D01*
X170755733Y-87257263D01*
X170608067Y-87449706D01*
X170486777Y-87659785D01*
X170486773Y-87659794D01*
X170393947Y-87883895D01*
X170331161Y-88118214D01*
X170299500Y-88358711D01*
X162000499Y-88358711D01*
X162000499Y-87372128D01*
X161994091Y-87312517D01*
X161973482Y-87257262D01*
X161943797Y-87177671D01*
X161943793Y-87177664D01*
X161857547Y-87062455D01*
X161857544Y-87062452D01*
X161742335Y-86976206D01*
X161742328Y-86976202D01*
X161607482Y-86925908D01*
X161607483Y-86925908D01*
X161547883Y-86919501D01*
X161547881Y-86919500D01*
X161547873Y-86919500D01*
X161547864Y-86919500D01*
X160552129Y-86919500D01*
X160552123Y-86919501D01*
X160492516Y-86925908D01*
X160357671Y-86976202D01*
X160357664Y-86976206D01*
X160242455Y-87062452D01*
X160242452Y-87062455D01*
X160156206Y-87177664D01*
X160156202Y-87177671D01*
X160105908Y-87312517D01*
X160099501Y-87372116D01*
X160099501Y-87372123D01*
X160099500Y-87372135D01*
X148500499Y-87372135D01*
X148500499Y-87372128D01*
X148494091Y-87312517D01*
X148473482Y-87257262D01*
X148443797Y-87177671D01*
X148443793Y-87177664D01*
X148357547Y-87062455D01*
X148357544Y-87062452D01*
X148242335Y-86976206D01*
X148242328Y-86976202D01*
X148107482Y-86925908D01*
X148107483Y-86925908D01*
X148047883Y-86919501D01*
X148047881Y-86919500D01*
X148047873Y-86919500D01*
X148047864Y-86919500D01*
X147052129Y-86919500D01*
X147052123Y-86919501D01*
X146992516Y-86925908D01*
X146857671Y-86976202D01*
X146857664Y-86976206D01*
X146742455Y-87062452D01*
X146742452Y-87062455D01*
X146656206Y-87177664D01*
X146656202Y-87177671D01*
X146605908Y-87312517D01*
X146599501Y-87372116D01*
X146599501Y-87372123D01*
X146599500Y-87372135D01*
X138826339Y-87372135D01*
X138917349Y-87281125D01*
X141229244Y-84969230D01*
X143585930Y-82612544D01*
X143701626Y-82453303D01*
X143790986Y-82277924D01*
X143851811Y-82090724D01*
X143882602Y-81896320D01*
X143882602Y-80284408D01*
X143888671Y-80246090D01*
X143906788Y-80190328D01*
X143949348Y-80059345D01*
X143982602Y-79849389D01*
X143982602Y-79636815D01*
X143949348Y-79426859D01*
X143883659Y-79224690D01*
X143787153Y-79035286D01*
X143787151Y-79035283D01*
X143787150Y-79035281D01*
X143662211Y-78863315D01*
X143511888Y-78712992D01*
X143339922Y-78588053D01*
X143150516Y-78491546D01*
X143150515Y-78491545D01*
X143150514Y-78491545D01*
X142948345Y-78425856D01*
X142948343Y-78425855D01*
X142948342Y-78425855D01*
X142753491Y-78394994D01*
X142738389Y-78392602D01*
X142525815Y-78392602D01*
X142510713Y-78394994D01*
X142315862Y-78425855D01*
X142305911Y-78429088D01*
X142236070Y-78431078D01*
X142176240Y-78394994D01*
X142145416Y-78332291D01*
X142149672Y-78272829D01*
X142152809Y-78263175D01*
X142163282Y-78197051D01*
X141269063Y-78197051D01*
X141301976Y-78140044D01*
X141336051Y-78012877D01*
X141336051Y-77881225D01*
X141301976Y-77754058D01*
X141269063Y-77697051D01*
X142163282Y-77697051D01*
X142152808Y-77630924D01*
X142152808Y-77630921D01*
X142087146Y-77428833D01*
X141990671Y-77239493D01*
X141865778Y-77067591D01*
X141865774Y-77067586D01*
X141715515Y-76917327D01*
X141715510Y-76917323D01*
X141543608Y-76792430D01*
X141354266Y-76695954D01*
X141152175Y-76630292D01*
X141086051Y-76619819D01*
X141086051Y-77514039D01*
X141029044Y-77481126D01*
X140901877Y-77447051D01*
X140770225Y-77447051D01*
X140643058Y-77481126D01*
X140586051Y-77514039D01*
X140586051Y-76566205D01*
X140591327Y-76548233D01*
X140590864Y-76545007D01*
X140594757Y-76536481D01*
X140601219Y-76506778D01*
X140604973Y-76501762D01*
X140605736Y-76499166D01*
X140619728Y-76481801D01*
X140619889Y-76481451D01*
X140620797Y-76480475D01*
X140622370Y-76478524D01*
X140625921Y-76474973D01*
X140629838Y-76471056D01*
X140667459Y-76424373D01*
X140727247Y-76293457D01*
X140747728Y-76151000D01*
X140727247Y-76008543D01*
X140722119Y-75997315D01*
X140667460Y-75877629D01*
X140667459Y-75877628D01*
X140667459Y-75877627D01*
X140629840Y-75830944D01*
X140629835Y-75830939D01*
X140629831Y-75830934D01*
X139360059Y-74561165D01*
X139360053Y-74561160D01*
X139360049Y-74561156D01*
X139313373Y-74523540D01*
X139182459Y-74463753D01*
X139182455Y-74463752D01*
X139040000Y-74443272D01*
X138897544Y-74463752D01*
X138897540Y-74463753D01*
X138766629Y-74523539D01*
X138719934Y-74561168D01*
X138497923Y-74783181D01*
X138436600Y-74816666D01*
X138410242Y-74819500D01*
X133370132Y-74819500D01*
X133305036Y-74801039D01*
X133279334Y-74785186D01*
X133112797Y-74730001D01*
X133112795Y-74730000D01*
X133010010Y-74719500D01*
X132009998Y-74719500D01*
X132009980Y-74719501D01*
X131907203Y-74730000D01*
X131907200Y-74730001D01*
X131740668Y-74785185D01*
X131740663Y-74785187D01*
X131591342Y-74877289D01*
X131467289Y-75001342D01*
X131375187Y-75150663D01*
X131375186Y-75150666D01*
X131320001Y-75317203D01*
X131320001Y-75317204D01*
X131320000Y-75317204D01*
X131309500Y-75419983D01*
X131309500Y-76220001D01*
X131309501Y-76220019D01*
X131320000Y-76322796D01*
X131320001Y-76322799D01*
X131375185Y-76489331D01*
X131375189Y-76489340D01*
X131468366Y-76640404D01*
X131486806Y-76707796D01*
X131465883Y-76774459D01*
X131412241Y-76819229D01*
X131362827Y-76829500D01*
X130345664Y-76829500D01*
X130280568Y-76811039D01*
X130214340Y-76770189D01*
X130214335Y-76770187D01*
X130214334Y-76770186D01*
X130047797Y-76715001D01*
X130047795Y-76715000D01*
X129945010Y-76704500D01*
X128594998Y-76704500D01*
X128594981Y-76704501D01*
X128492203Y-76715000D01*
X128492200Y-76715001D01*
X128325668Y-76770185D01*
X128325663Y-76770187D01*
X128176342Y-76862289D01*
X128052289Y-76986342D01*
X127960187Y-77135663D01*
X127960186Y-77135666D01*
X127905001Y-77302203D01*
X127905001Y-77302204D01*
X127905000Y-77302204D01*
X127894500Y-77404983D01*
X127894500Y-78255001D01*
X127894501Y-78255019D01*
X127905000Y-78357796D01*
X127905001Y-78357799D01*
X127929284Y-78431078D01*
X127960186Y-78524334D01*
X128052288Y-78673656D01*
X128176344Y-78797712D01*
X128325666Y-78889814D01*
X128492203Y-78944999D01*
X128594991Y-78955500D01*
X129945008Y-78955499D01*
X130047797Y-78944999D01*
X130214334Y-78889814D01*
X130257304Y-78863310D01*
X130280568Y-78848961D01*
X130345664Y-78830500D01*
X131666081Y-78830500D01*
X131731174Y-78848959D01*
X131740666Y-78854814D01*
X131907203Y-78909999D01*
X132009991Y-78920500D01*
X133010008Y-78920499D01*
X133010016Y-78920498D01*
X133010019Y-78920498D01*
X133066302Y-78914748D01*
X133112797Y-78909999D01*
X133279334Y-78854814D01*
X133428656Y-78762712D01*
X133552712Y-78638656D01*
X133644814Y-78489334D01*
X133699999Y-78322797D01*
X133710500Y-78220009D01*
X133710499Y-77419992D01*
X133699999Y-77317203D01*
X133644814Y-77150666D01*
X133635563Y-77135668D01*
X133557802Y-77009596D01*
X133539362Y-76942204D01*
X133560285Y-76875541D01*
X133613927Y-76830771D01*
X133663341Y-76820500D01*
X137748243Y-76820500D01*
X137815282Y-76840185D01*
X137835924Y-76856819D01*
X138719944Y-77740838D01*
X138719948Y-77740841D01*
X138719950Y-77740843D01*
X138766626Y-77778459D01*
X138897540Y-77838246D01*
X138897541Y-77838246D01*
X138897543Y-77838247D01*
X139040000Y-77858728D01*
X139182457Y-77838247D01*
X139313373Y-77778459D01*
X139360056Y-77740840D01*
X139367526Y-77733370D01*
X139428849Y-77699885D01*
X139455207Y-77697051D01*
X140403039Y-77697051D01*
X140370126Y-77754058D01*
X140336051Y-77881225D01*
X140336051Y-78012877D01*
X140370126Y-78140044D01*
X140403039Y-78197051D01*
X139508820Y-78197051D01*
X139519293Y-78263177D01*
X139519293Y-78263180D01*
X139584955Y-78465268D01*
X139681430Y-78654608D01*
X139806323Y-78826510D01*
X139806327Y-78826515D01*
X139956586Y-78976774D01*
X139956591Y-78976778D01*
X140128493Y-79101671D01*
X140317833Y-79198146D01*
X140519922Y-79263808D01*
X140586051Y-79274282D01*
X140586051Y-78380063D01*
X140643058Y-78412976D01*
X140770225Y-78447051D01*
X140901877Y-78447051D01*
X141029044Y-78412976D01*
X141086051Y-78380063D01*
X141086051Y-79274281D01*
X141152175Y-79263809D01*
X141161829Y-79260672D01*
X141231670Y-79258673D01*
X141291505Y-79294750D01*
X141322337Y-79357449D01*
X141318088Y-79416911D01*
X141314855Y-79426862D01*
X141281602Y-79636815D01*
X141281602Y-79849388D01*
X141314855Y-80059342D01*
X141375533Y-80246090D01*
X141381602Y-80284408D01*
X141381602Y-81228561D01*
X141361917Y-81295600D01*
X141345283Y-81316242D01*
X123738344Y-98923181D01*
X123677021Y-98956666D01*
X123650663Y-98959500D01*
X123019500Y-98959500D01*
X122952461Y-98939815D01*
X122906706Y-98887011D01*
X122895500Y-98835500D01*
X122895500Y-95221153D01*
X123809500Y-95221153D01*
X123809500Y-95378846D01*
X123840261Y-95533489D01*
X123840264Y-95533501D01*
X123900602Y-95679172D01*
X123900609Y-95679185D01*
X123988210Y-95810288D01*
X123988213Y-95810292D01*
X124099707Y-95921786D01*
X124099711Y-95921789D01*
X124230814Y-96009390D01*
X124230827Y-96009397D01*
X124313093Y-96043472D01*
X124376503Y-96069737D01*
X124531153Y-96100499D01*
X124531156Y-96100500D01*
X124531158Y-96100500D01*
X124688844Y-96100500D01*
X124688845Y-96100499D01*
X124843497Y-96069737D01*
X124989179Y-96009394D01*
X125120289Y-95921789D01*
X125231789Y-95810289D01*
X125319394Y-95679179D01*
X125319395Y-95679176D01*
X125319397Y-95679173D01*
X125379192Y-95534812D01*
X125406069Y-95494586D01*
X127573838Y-93326818D01*
X127635161Y-93293333D01*
X127661519Y-93290499D01*
X128220002Y-93290499D01*
X128220008Y-93290499D01*
X128322797Y-93279999D01*
X128489334Y-93224814D01*
X128638656Y-93132712D01*
X128762712Y-93008656D01*
X128854814Y-92859334D01*
X128909999Y-92692797D01*
X128920500Y-92590009D01*
X128920499Y-91589992D01*
X128909999Y-91487203D01*
X128854814Y-91320666D01*
X128762712Y-91171344D01*
X128638656Y-91047288D01*
X128638655Y-91047287D01*
X128579402Y-91010739D01*
X128532678Y-90958791D01*
X128520500Y-90905201D01*
X128520500Y-90277179D01*
X128540185Y-90210140D01*
X128579401Y-90171642D01*
X128691156Y-90102712D01*
X128815212Y-89978656D01*
X128907314Y-89829334D01*
X128962499Y-89662797D01*
X128973000Y-89560009D01*
X128972999Y-88559992D01*
X128962499Y-88457203D01*
X128907314Y-88290666D01*
X128815212Y-88141344D01*
X128691156Y-88017288D01*
X128541834Y-87925186D01*
X128375297Y-87870001D01*
X128375295Y-87870000D01*
X128272510Y-87859500D01*
X127372498Y-87859500D01*
X127372480Y-87859501D01*
X127269703Y-87870000D01*
X127269700Y-87870001D01*
X127103168Y-87925185D01*
X127103163Y-87925187D01*
X126953842Y-88017289D01*
X126829789Y-88141342D01*
X126737687Y-88290663D01*
X126737685Y-88290668D01*
X126715138Y-88358711D01*
X126682501Y-88457203D01*
X126682501Y-88457204D01*
X126682500Y-88457204D01*
X126672000Y-88559983D01*
X126672000Y-89560001D01*
X126672001Y-89560019D01*
X126682500Y-89662796D01*
X126682501Y-89662799D01*
X126726143Y-89794500D01*
X126737686Y-89829334D01*
X126829788Y-89978656D01*
X126953844Y-90102712D01*
X127060597Y-90168557D01*
X127107321Y-90220505D01*
X127119500Y-90274096D01*
X127119500Y-90905201D01*
X127099815Y-90972240D01*
X127075478Y-90999961D01*
X127068431Y-91005907D01*
X127001344Y-91047288D01*
X126903630Y-91145001D01*
X126899624Y-91148383D01*
X126872254Y-91160455D01*
X126846003Y-91174789D01*
X126840628Y-91174404D01*
X126835697Y-91176580D01*
X126806145Y-91171938D01*
X126776312Y-91169805D01*
X126771056Y-91166427D01*
X126766673Y-91165739D01*
X126758049Y-91158067D01*
X126731965Y-91141304D01*
X126638345Y-91047684D01*
X126489124Y-90955643D01*
X126489119Y-90955641D01*
X126322697Y-90900494D01*
X126322690Y-90900493D01*
X126219986Y-90890000D01*
X126070000Y-90890000D01*
X126070000Y-91966000D01*
X126050315Y-92033039D01*
X125997511Y-92078794D01*
X125946000Y-92090000D01*
X125820000Y-92090000D01*
X125820000Y-92216000D01*
X125800315Y-92283039D01*
X125747511Y-92328794D01*
X125696000Y-92340000D01*
X124720001Y-92340000D01*
X124720001Y-92589986D01*
X124730494Y-92692697D01*
X124785641Y-92859119D01*
X124785643Y-92859124D01*
X124877684Y-93008345D01*
X125001654Y-93132315D01*
X125150875Y-93224356D01*
X125150880Y-93224358D01*
X125317302Y-93279505D01*
X125317310Y-93279506D01*
X125350341Y-93282881D01*
X125415033Y-93309277D01*
X125455184Y-93366457D01*
X125458048Y-93436268D01*
X125425420Y-93493920D01*
X124415412Y-94503929D01*
X124375184Y-94530809D01*
X124230823Y-94590604D01*
X124230814Y-94590609D01*
X124099711Y-94678210D01*
X124099707Y-94678213D01*
X123988213Y-94789707D01*
X123988210Y-94789711D01*
X123900609Y-94920814D01*
X123900602Y-94920827D01*
X123840264Y-95066498D01*
X123840261Y-95066510D01*
X123809500Y-95221153D01*
X122895500Y-95221153D01*
X122895500Y-94928106D01*
X122864709Y-94733702D01*
X122847008Y-94679226D01*
X122847008Y-94679225D01*
X122837512Y-94650000D01*
X122803884Y-94546503D01*
X122714524Y-94371124D01*
X122598829Y-94211884D01*
X119976958Y-91590013D01*
X124720000Y-91590013D01*
X124720000Y-91840000D01*
X125570000Y-91840000D01*
X125570000Y-90890000D01*
X125420027Y-90890000D01*
X125420012Y-90890001D01*
X125317302Y-90900494D01*
X125150880Y-90955641D01*
X125150875Y-90955643D01*
X125001654Y-91047684D01*
X124877684Y-91171654D01*
X124785643Y-91320875D01*
X124785641Y-91320880D01*
X124730494Y-91487302D01*
X124730493Y-91487309D01*
X124720000Y-91590013D01*
X119976958Y-91590013D01*
X119703117Y-91316172D01*
X119543876Y-91200476D01*
X119368501Y-91111117D01*
X119181297Y-91050290D01*
X118986893Y-91019500D01*
X118986888Y-91019500D01*
X116913958Y-91019500D01*
X116846919Y-90999815D01*
X116808420Y-90960598D01*
X116802712Y-90951344D01*
X116678657Y-90827289D01*
X116678656Y-90827288D01*
X116529334Y-90735186D01*
X116362797Y-90680001D01*
X116362795Y-90680000D01*
X116260010Y-90669500D01*
X115459998Y-90669500D01*
X115459980Y-90669501D01*
X115357203Y-90680000D01*
X115357200Y-90680001D01*
X115190668Y-90735185D01*
X115190663Y-90735187D01*
X115041342Y-90827289D01*
X114917289Y-90951342D01*
X114825187Y-91100663D01*
X114825186Y-91100666D01*
X114770001Y-91267203D01*
X114770001Y-91267204D01*
X114770000Y-91267204D01*
X114759500Y-91369983D01*
X114759500Y-91645619D01*
X114745985Y-91701913D01*
X114701119Y-91789967D01*
X114701116Y-91789974D01*
X114640290Y-91977173D01*
X114609500Y-92171577D01*
X114609500Y-92368422D01*
X114640290Y-92562826D01*
X114701116Y-92750025D01*
X114701119Y-92750032D01*
X114745985Y-92838087D01*
X114759500Y-92894381D01*
X114759500Y-93170000D01*
X114759501Y-93170019D01*
X114770000Y-93272796D01*
X114770001Y-93272799D01*
X114795742Y-93350478D01*
X114825186Y-93439334D01*
X114917288Y-93588656D01*
X115041344Y-93712712D01*
X115190666Y-93804814D01*
X115357203Y-93859999D01*
X115459991Y-93870500D01*
X116260008Y-93870499D01*
X116260016Y-93870498D01*
X116260019Y-93870498D01*
X116316302Y-93864748D01*
X116362797Y-93859999D01*
X116529334Y-93804814D01*
X116678656Y-93712712D01*
X116802712Y-93588656D01*
X116808420Y-93579402D01*
X116860368Y-93532678D01*
X116913958Y-93520500D01*
X118319135Y-93520500D01*
X118386174Y-93540185D01*
X118406816Y-93556819D01*
X118787816Y-93937819D01*
X118821301Y-93999142D01*
X118816317Y-94068834D01*
X118774445Y-94124767D01*
X118708981Y-94149184D01*
X118700136Y-94149500D01*
X118589163Y-94149500D01*
X118589144Y-94149501D01*
X118489792Y-94159650D01*
X118489789Y-94159651D01*
X118328805Y-94212996D01*
X118328800Y-94212998D01*
X118275589Y-94245820D01*
X118258570Y-94256318D01*
X118256415Y-94257647D01*
X118189023Y-94276087D01*
X118122359Y-94255165D01*
X118110115Y-94245820D01*
X118085799Y-94224750D01*
X118085797Y-94224748D01*
X118085794Y-94224746D01*
X118061075Y-94213457D01*
X117954919Y-94164976D01*
X117954914Y-94164975D01*
X117812500Y-94144500D01*
X116912500Y-94144500D01*
X116912497Y-94144500D01*
X116840559Y-94149644D01*
X116735898Y-94180376D01*
X116702508Y-94190181D01*
X116702506Y-94190181D01*
X116702506Y-94190182D01*
X116599596Y-94256318D01*
X116532556Y-94276002D01*
X116467459Y-94257540D01*
X116395988Y-94213455D01*
X116395981Y-94213452D01*
X116235106Y-94160144D01*
X116135822Y-94150000D01*
X116112500Y-94150000D01*
X116112500Y-95757269D01*
X116092815Y-95824308D01*
X116082214Y-95838470D01*
X116070748Y-95851701D01*
X116070745Y-95851707D01*
X116010976Y-95982580D01*
X116010975Y-95982585D01*
X115990500Y-96124999D01*
X115990500Y-96735500D01*
X115970815Y-96802539D01*
X115918011Y-96848294D01*
X115866500Y-96859500D01*
X114262231Y-96859500D01*
X114195192Y-96839815D01*
X114174550Y-96823182D01*
X114126177Y-96774809D01*
X114068656Y-96717288D01*
X114004757Y-96677875D01*
X113958032Y-96625927D01*
X113946809Y-96556965D01*
X113974653Y-96492882D01*
X114004757Y-96466797D01*
X114108656Y-96402712D01*
X114232712Y-96278656D01*
X114324814Y-96129334D01*
X114379999Y-95962797D01*
X114390500Y-95860009D01*
X114390500Y-95773322D01*
X114912501Y-95773322D01*
X114922644Y-95872607D01*
X114975952Y-96033481D01*
X114975957Y-96033492D01*
X115064924Y-96177728D01*
X115064927Y-96177732D01*
X115184767Y-96297572D01*
X115184771Y-96297575D01*
X115329007Y-96386542D01*
X115329018Y-96386547D01*
X115489893Y-96439855D01*
X115589183Y-96449999D01*
X115612500Y-96449998D01*
X115612500Y-95550000D01*
X114912501Y-95550000D01*
X114912501Y-95773322D01*
X114390500Y-95773322D01*
X114390499Y-95299466D01*
X114390499Y-94859998D01*
X114390499Y-94859992D01*
X114389912Y-94854249D01*
X114388062Y-94836127D01*
X114387097Y-94826677D01*
X114912500Y-94826677D01*
X114912500Y-95050000D01*
X115612500Y-95050000D01*
X115612500Y-94149999D01*
X115589193Y-94150000D01*
X115589174Y-94150001D01*
X115489892Y-94160144D01*
X115329018Y-94213452D01*
X115329007Y-94213457D01*
X115184771Y-94302424D01*
X115184767Y-94302427D01*
X115064927Y-94422267D01*
X115064924Y-94422271D01*
X114975957Y-94566507D01*
X114975952Y-94566518D01*
X114922644Y-94727393D01*
X114912500Y-94826677D01*
X114387097Y-94826677D01*
X114381669Y-94773554D01*
X114379999Y-94757203D01*
X114324814Y-94590666D01*
X114232712Y-94441344D01*
X114226819Y-94435451D01*
X114193334Y-94374128D01*
X114190500Y-94347770D01*
X114190500Y-89794500D01*
X114210185Y-89727461D01*
X114262989Y-89681706D01*
X114314500Y-89670500D01*
X116280007Y-89670500D01*
X116280012Y-89670500D01*
X116382800Y-89659999D01*
X116549336Y-89604815D01*
X116698657Y-89512712D01*
X116822712Y-89388657D01*
X116914815Y-89239336D01*
X116969999Y-89072800D01*
X116980500Y-88970012D01*
X116980500Y-86124500D01*
X117000185Y-86057461D01*
X117052989Y-86011706D01*
X117104500Y-86000500D01*
X117825500Y-86000500D01*
X117892539Y-86020185D01*
X117938294Y-86072989D01*
X117949500Y-86124500D01*
X117949500Y-89108422D01*
X117980290Y-89302826D01*
X118041117Y-89490029D01*
X118076770Y-89560001D01*
X118117511Y-89639960D01*
X118124728Y-89657242D01*
X118125642Y-89659999D01*
X118164593Y-89777546D01*
X118165186Y-89779334D01*
X118257288Y-89928656D01*
X118381344Y-90052712D01*
X118530666Y-90144814D01*
X118697203Y-90199999D01*
X118799991Y-90210500D01*
X118828412Y-90210499D01*
X118866730Y-90216567D01*
X118907174Y-90229709D01*
X118980077Y-90241255D01*
X119101578Y-90260500D01*
X119101583Y-90260500D01*
X119298422Y-90260500D01*
X119406422Y-90243393D01*
X119492826Y-90229709D01*
X119533269Y-90216568D01*
X119571587Y-90210499D01*
X119600002Y-90210499D01*
X119600008Y-90210499D01*
X119603523Y-90210140D01*
X119617895Y-90208671D01*
X119702797Y-90199999D01*
X119869334Y-90144814D01*
X120018656Y-90052712D01*
X120112319Y-89959049D01*
X120173642Y-89925564D01*
X120243334Y-89930548D01*
X120287681Y-89959049D01*
X120381344Y-90052712D01*
X120530666Y-90144814D01*
X120697203Y-90199999D01*
X120799991Y-90210500D01*
X121600008Y-90210499D01*
X121600016Y-90210498D01*
X121600019Y-90210498D01*
X121656302Y-90204748D01*
X121702797Y-90199999D01*
X121869334Y-90144814D01*
X122018656Y-90052712D01*
X122142712Y-89928656D01*
X122210099Y-89819402D01*
X122262047Y-89772679D01*
X122315638Y-89760500D01*
X123726592Y-89760500D01*
X123793631Y-89780185D01*
X123832136Y-89824271D01*
X123833895Y-89823187D01*
X123837685Y-89829331D01*
X123837686Y-89829334D01*
X123929788Y-89978656D01*
X124053844Y-90102712D01*
X124203166Y-90194814D01*
X124369703Y-90249999D01*
X124472491Y-90260500D01*
X125372508Y-90260499D01*
X125372516Y-90260498D01*
X125372519Y-90260498D01*
X125428802Y-90254748D01*
X125475297Y-90249999D01*
X125641834Y-90194814D01*
X125791156Y-90102712D01*
X125915212Y-89978656D01*
X126007314Y-89829334D01*
X126062499Y-89662797D01*
X126073000Y-89560009D01*
X126072999Y-88559992D01*
X126062499Y-88457203D01*
X126007314Y-88290666D01*
X125915212Y-88141344D01*
X125791156Y-88017288D01*
X125641834Y-87925186D01*
X125475297Y-87870001D01*
X125475295Y-87870000D01*
X125372510Y-87859500D01*
X124472498Y-87859500D01*
X124472480Y-87859501D01*
X124369703Y-87870000D01*
X124369700Y-87870001D01*
X124203168Y-87925185D01*
X124203163Y-87925187D01*
X124053842Y-88017289D01*
X123929789Y-88141342D01*
X123929788Y-88141344D01*
X123839941Y-88287011D01*
X123833895Y-88296813D01*
X123832100Y-88295706D01*
X123792813Y-88340337D01*
X123726592Y-88359500D01*
X122363733Y-88359500D01*
X122296694Y-88339815D01*
X122250939Y-88287011D01*
X122246028Y-88274506D01*
X122241495Y-88260829D01*
X122234814Y-88240666D01*
X122142712Y-88091344D01*
X122018656Y-87967288D01*
X121869334Y-87875186D01*
X121702797Y-87820001D01*
X121702795Y-87820000D01*
X121600010Y-87809500D01*
X120799998Y-87809500D01*
X120799980Y-87809501D01*
X120697203Y-87820000D01*
X120697200Y-87820001D01*
X120613504Y-87847736D01*
X120543676Y-87850138D01*
X120483634Y-87814406D01*
X120452441Y-87751886D01*
X120450500Y-87730030D01*
X120450500Y-85831515D01*
X122804500Y-85831515D01*
X122804500Y-86068485D01*
X122841571Y-86302539D01*
X122914799Y-86527911D01*
X123022381Y-86739054D01*
X123161669Y-86930767D01*
X123329233Y-87098331D01*
X123520946Y-87237619D01*
X123732089Y-87345201D01*
X123957461Y-87418429D01*
X124191515Y-87455500D01*
X124191516Y-87455500D01*
X124428484Y-87455500D01*
X124428485Y-87455500D01*
X124662539Y-87418429D01*
X124887911Y-87345201D01*
X125099054Y-87237619D01*
X125290767Y-87098331D01*
X125458331Y-86930767D01*
X125597619Y-86739054D01*
X125705201Y-86527911D01*
X125778429Y-86302539D01*
X125815500Y-86068485D01*
X125815500Y-85831515D01*
X125778429Y-85597461D01*
X125705201Y-85372089D01*
X125597619Y-85160946D01*
X125458331Y-84969233D01*
X125290767Y-84801669D01*
X125099054Y-84662381D01*
X124887911Y-84554799D01*
X124662539Y-84481571D01*
X124662537Y-84481570D01*
X124662535Y-84481570D01*
X124499115Y-84455686D01*
X124428485Y-84444500D01*
X124191515Y-84444500D01*
X124137257Y-84453093D01*
X123957464Y-84481570D01*
X123732086Y-84554800D01*
X123520945Y-84662381D01*
X123411566Y-84741850D01*
X123329233Y-84801669D01*
X123329231Y-84801671D01*
X123329230Y-84801671D01*
X123161671Y-84969230D01*
X123161671Y-84969231D01*
X123161669Y-84969233D01*
X123101850Y-85051566D01*
X123022381Y-85160945D01*
X122914800Y-85372086D01*
X122841570Y-85597464D01*
X122804500Y-85831515D01*
X120450500Y-85831515D01*
X120450500Y-85644197D01*
X120470185Y-85577158D01*
X120474183Y-85571310D01*
X120497618Y-85539055D01*
X120497619Y-85539054D01*
X120605201Y-85327911D01*
X120678429Y-85102539D01*
X120715500Y-84868485D01*
X120715500Y-84631515D01*
X120678429Y-84397461D01*
X120605201Y-84172089D01*
X120497619Y-83960946D01*
X120358331Y-83769233D01*
X120190767Y-83601669D01*
X119999054Y-83462381D01*
X119787911Y-83354799D01*
X119562539Y-83281571D01*
X119562537Y-83281570D01*
X119562535Y-83281570D01*
X119399115Y-83255686D01*
X119328485Y-83244500D01*
X119091515Y-83244500D01*
X119037257Y-83253093D01*
X118857464Y-83281570D01*
X118632086Y-83354800D01*
X118420941Y-83462383D01*
X118402452Y-83475817D01*
X118336646Y-83499298D01*
X118329566Y-83499500D01*
X117104500Y-83499500D01*
X117037461Y-83479815D01*
X116991706Y-83427011D01*
X116980500Y-83375500D01*
X116980500Y-82969993D01*
X116980499Y-82969980D01*
X116969999Y-82867200D01*
X116914815Y-82700664D01*
X116914811Y-82700658D01*
X116914810Y-82700655D01*
X116822714Y-82551346D01*
X116822711Y-82551342D01*
X116698657Y-82427288D01*
X116698653Y-82427285D01*
X116549344Y-82335189D01*
X116549338Y-82335186D01*
X116549336Y-82335185D01*
X116549333Y-82335184D01*
X116382801Y-82280001D01*
X116280019Y-82269500D01*
X116280012Y-82269500D01*
X110879988Y-82269500D01*
X110879980Y-82269500D01*
X110777198Y-82280001D01*
X110610666Y-82335184D01*
X110610655Y-82335189D01*
X110461346Y-82427285D01*
X110461342Y-82427288D01*
X110337288Y-82551342D01*
X110337285Y-82551346D01*
X110245189Y-82700655D01*
X110245184Y-82700666D01*
X110190001Y-82867198D01*
X110179500Y-82969980D01*
X110179500Y-88970019D01*
X110190001Y-89072801D01*
X110245184Y-89239333D01*
X110245189Y-89239344D01*
X110337285Y-89388653D01*
X110337288Y-89388657D01*
X110461342Y-89512711D01*
X110461346Y-89512714D01*
X110610655Y-89604810D01*
X110610658Y-89604811D01*
X110610664Y-89604815D01*
X110777200Y-89659999D01*
X110879988Y-89670500D01*
X112265500Y-89670500D01*
X112332539Y-89690185D01*
X112378294Y-89742989D01*
X112389500Y-89794500D01*
X112389500Y-90798770D01*
X112369815Y-90865809D01*
X112317011Y-90911564D01*
X112247853Y-90921508D01*
X112184297Y-90892483D01*
X112177819Y-90886451D01*
X112118657Y-90827289D01*
X112118656Y-90827288D01*
X111969334Y-90735186D01*
X111802797Y-90680001D01*
X111802795Y-90680000D01*
X111700010Y-90669500D01*
X110899998Y-90669500D01*
X110899980Y-90669501D01*
X110797203Y-90680000D01*
X110797200Y-90680001D01*
X110630668Y-90735185D01*
X110630663Y-90735187D01*
X110481342Y-90827289D01*
X110357289Y-90951342D01*
X110265187Y-91100663D01*
X110265186Y-91100666D01*
X110210001Y-91267203D01*
X110210001Y-91267204D01*
X110210000Y-91267204D01*
X110199500Y-91369983D01*
X110199500Y-93170001D01*
X110199501Y-93170018D01*
X110210000Y-93272796D01*
X110210001Y-93272799D01*
X110235742Y-93350478D01*
X110265186Y-93439334D01*
X110357287Y-93588655D01*
X110357289Y-93588657D01*
X110363181Y-93594549D01*
X110396666Y-93655872D01*
X110399500Y-93682230D01*
X110399500Y-94337770D01*
X110379815Y-94404809D01*
X110363181Y-94425451D01*
X110347289Y-94441342D01*
X110255187Y-94590663D01*
X110255186Y-94590666D01*
X110200001Y-94757203D01*
X110200001Y-94757204D01*
X110200000Y-94757204D01*
X110189500Y-94859983D01*
X110189500Y-95860001D01*
X110189501Y-95860019D01*
X110200000Y-95962796D01*
X110200001Y-95962799D01*
X110255185Y-96129331D01*
X110255187Y-96129336D01*
X110347289Y-96278657D01*
X110353181Y-96284549D01*
X110386666Y-96345872D01*
X110389500Y-96372230D01*
X110389500Y-96707770D01*
X110369815Y-96774809D01*
X110353181Y-96795451D01*
X110307289Y-96841342D01*
X110215187Y-96990663D01*
X110215186Y-96990666D01*
X110160001Y-97157203D01*
X110160001Y-97157204D01*
X110160000Y-97157204D01*
X110149500Y-97259983D01*
X110149500Y-98260001D01*
X110149501Y-98260019D01*
X110160000Y-98362796D01*
X110160001Y-98362799D01*
X110215185Y-98529331D01*
X110215186Y-98529334D01*
X110307288Y-98678656D01*
X110431344Y-98802712D01*
X110580666Y-98894814D01*
X110747203Y-98949999D01*
X110849991Y-98960500D01*
X111650008Y-98960499D01*
X111650016Y-98960498D01*
X111650019Y-98960498D01*
X111706302Y-98954748D01*
X111752797Y-98949999D01*
X111919334Y-98894814D01*
X112068656Y-98802712D01*
X112162319Y-98709049D01*
X112223642Y-98675564D01*
X112293334Y-98680548D01*
X112337681Y-98709049D01*
X112431344Y-98802712D01*
X112580666Y-98894814D01*
X112747203Y-98949999D01*
X112849991Y-98960500D01*
X113650008Y-98960499D01*
X113650016Y-98960498D01*
X113650019Y-98960498D01*
X113706302Y-98954748D01*
X113752797Y-98949999D01*
X113919334Y-98894814D01*
X114068656Y-98802712D01*
X114174550Y-98696818D01*
X114235873Y-98663334D01*
X114262231Y-98660500D01*
X115866500Y-98660500D01*
X115933539Y-98680185D01*
X115979294Y-98732989D01*
X115990500Y-98784500D01*
X115990500Y-99250002D01*
X115995644Y-99321940D01*
X116036181Y-99459991D01*
X116036182Y-99459995D01*
X116070911Y-99514033D01*
X116090315Y-99544226D01*
X116110000Y-99611264D01*
X116110000Y-102030000D01*
X117609999Y-102030000D01*
X117609999Y-100280028D01*
X117609998Y-100280013D01*
X117599505Y-100177302D01*
X117544358Y-100010880D01*
X117544356Y-100010875D01*
X117503475Y-99944597D01*
X117485035Y-99877204D01*
X117505958Y-99810541D01*
X117559599Y-99765771D01*
X117609014Y-99755500D01*
X118229000Y-99755500D01*
X118300940Y-99750355D01*
X118438992Y-99709819D01*
X118560032Y-99632031D01*
X118654254Y-99523294D01*
X118714024Y-99392416D01*
X118734500Y-99250000D01*
X118734500Y-96574499D01*
X118754185Y-96507460D01*
X118806989Y-96461705D01*
X118858500Y-96450499D01*
X119135838Y-96450499D01*
X119135844Y-96450499D01*
X119135852Y-96450498D01*
X119135855Y-96450498D01*
X119190260Y-96444940D01*
X119235208Y-96440349D01*
X119396197Y-96387003D01*
X119540544Y-96297968D01*
X119660468Y-96178044D01*
X119724592Y-96074082D01*
X119776538Y-96027360D01*
X119845500Y-96016137D01*
X119877576Y-96024618D01*
X119986503Y-96069737D01*
X120141153Y-96100499D01*
X120141156Y-96100500D01*
X120270500Y-96100500D01*
X120337539Y-96120185D01*
X120383294Y-96172989D01*
X120394500Y-96224500D01*
X120394500Y-110633646D01*
X120374815Y-110700685D01*
X120322011Y-110746440D01*
X120252853Y-110756384D01*
X120189297Y-110727359D01*
X120167398Y-110702537D01*
X120147139Y-110672218D01*
X120147136Y-110672214D01*
X120007785Y-110532863D01*
X120007781Y-110532860D01*
X119843920Y-110423371D01*
X119843907Y-110423364D01*
X119661839Y-110347950D01*
X119661829Y-110347947D01*
X119468543Y-110309500D01*
X119468541Y-110309500D01*
X117734500Y-110309500D01*
X117667461Y-110289815D01*
X117621706Y-110237011D01*
X117610500Y-110185500D01*
X117610499Y-107679998D01*
X117610498Y-107679981D01*
X117599999Y-107577203D01*
X117599998Y-107577200D01*
X117588423Y-107542268D01*
X117544814Y-107410666D01*
X117452712Y-107261344D01*
X117328656Y-107137288D01*
X117219501Y-107069961D01*
X117179336Y-107045187D01*
X117179331Y-107045185D01*
X117177862Y-107044698D01*
X117012797Y-106990001D01*
X117012795Y-106990000D01*
X116910010Y-106979500D01*
X114809998Y-106979500D01*
X114809981Y-106979501D01*
X114707203Y-106990000D01*
X114707200Y-106990001D01*
X114540668Y-107045185D01*
X114540663Y-107045187D01*
X114391342Y-107137289D01*
X114267289Y-107261342D01*
X114175187Y-107410663D01*
X114175185Y-107410668D01*
X114147349Y-107494670D01*
X114120001Y-107577203D01*
X114120001Y-107577204D01*
X114120000Y-107577204D01*
X114109500Y-107679983D01*
X114109500Y-111680001D01*
X114109501Y-111680018D01*
X114120000Y-111782796D01*
X114120001Y-111782799D01*
X114164625Y-111917463D01*
X114175186Y-111949334D01*
X114267288Y-112098656D01*
X114391344Y-112222712D01*
X114540666Y-112314814D01*
X114707203Y-112369999D01*
X114748103Y-112374177D01*
X114812793Y-112400573D01*
X114852945Y-112457753D01*
X114859500Y-112497535D01*
X114859500Y-113198974D01*
X114857117Y-113223166D01*
X114849500Y-113261458D01*
X114849500Y-113458544D01*
X114887947Y-113651828D01*
X114887949Y-113651836D01*
X114963367Y-113833910D01*
X114963372Y-113833920D01*
X115072860Y-113997780D01*
X115072863Y-113997784D01*
X115212215Y-114137136D01*
X115212219Y-114137139D01*
X115376079Y-114246627D01*
X115376083Y-114246629D01*
X115376086Y-114246631D01*
X115558164Y-114322051D01*
X115751455Y-114360499D01*
X115751458Y-114360500D01*
X115751460Y-114360500D01*
X115948542Y-114360500D01*
X115948543Y-114360499D01*
X116141836Y-114322051D01*
X116323914Y-114246631D01*
X116487781Y-114137139D01*
X116490706Y-114134214D01*
X116490715Y-114134207D01*
X116490714Y-114134206D01*
X116497780Y-114127140D01*
X116497782Y-114127139D01*
X116637139Y-113987782D01*
X116746632Y-113823914D01*
X116811161Y-113668127D01*
X116822051Y-113641836D01*
X116843402Y-113534500D01*
X116860499Y-113448544D01*
X116860500Y-113448542D01*
X116860500Y-112497534D01*
X116880185Y-112430495D01*
X116932989Y-112384740D01*
X116951439Y-112378023D01*
X116961504Y-112375238D01*
X117012797Y-112369999D01*
X117176303Y-112315818D01*
X117179301Y-112314989D01*
X117184078Y-112315064D01*
X117212362Y-112310500D01*
X119468543Y-112310500D01*
X119598582Y-112284632D01*
X119661835Y-112272051D01*
X119843914Y-112196632D01*
X120007782Y-112087139D01*
X120147139Y-111947782D01*
X120167398Y-111917462D01*
X120221009Y-111872658D01*
X120290334Y-111863949D01*
X120353362Y-111894104D01*
X120390081Y-111953546D01*
X120394500Y-111986353D01*
X120394500Y-113410500D01*
X120374815Y-113477539D01*
X120322011Y-113523294D01*
X120270500Y-113534500D01*
X119544998Y-113534500D01*
X119544980Y-113534501D01*
X119442203Y-113545000D01*
X119442200Y-113545001D01*
X119275668Y-113600185D01*
X119275663Y-113600187D01*
X119126342Y-113692289D01*
X119002289Y-113816342D01*
X118910187Y-113965663D01*
X118910186Y-113965666D01*
X118855001Y-114132203D01*
X118855001Y-114132204D01*
X118855000Y-114132204D01*
X118844500Y-114234983D01*
X118844500Y-114935001D01*
X118844501Y-114935019D01*
X118855000Y-115037796D01*
X118855001Y-115037799D01*
X118882736Y-115121496D01*
X118885138Y-115191324D01*
X118849406Y-115251366D01*
X118786886Y-115282559D01*
X118765030Y-115284500D01*
X115820782Y-115284500D01*
X115753743Y-115264815D01*
X115733101Y-115248181D01*
X104846819Y-104361899D01*
X104813334Y-104300576D01*
X104811120Y-104279986D01*
X114110001Y-104279986D01*
X114120494Y-104382697D01*
X114175641Y-104549119D01*
X114175643Y-104549124D01*
X114267684Y-104698345D01*
X114391654Y-104822315D01*
X114540875Y-104914356D01*
X114540880Y-104914358D01*
X114707302Y-104969505D01*
X114707309Y-104969506D01*
X114810019Y-104979999D01*
X115609999Y-104979999D01*
X116110000Y-104979999D01*
X116909972Y-104979999D01*
X116909986Y-104979998D01*
X117012697Y-104969505D01*
X117179119Y-104914358D01*
X117179124Y-104914356D01*
X117328345Y-104822315D01*
X117452315Y-104698345D01*
X117544356Y-104549124D01*
X117544358Y-104549119D01*
X117599505Y-104382697D01*
X117599506Y-104382690D01*
X117609999Y-104279986D01*
X117610000Y-104279973D01*
X117610000Y-102530000D01*
X116110000Y-102530000D01*
X116110000Y-104979999D01*
X115609999Y-104979999D01*
X115610000Y-104979998D01*
X115610000Y-102530000D01*
X114110001Y-102530000D01*
X114110001Y-104279986D01*
X104811120Y-104279986D01*
X104810500Y-104274218D01*
X104810500Y-102695585D01*
X104810500Y-102695578D01*
X104804175Y-102615209D01*
X104754094Y-102428305D01*
X104666248Y-102255898D01*
X104544477Y-102105523D01*
X104394102Y-101983752D01*
X104221695Y-101895906D01*
X104221694Y-101895905D01*
X104221693Y-101895905D01*
X104098131Y-101862797D01*
X104034791Y-101845825D01*
X104034789Y-101845824D01*
X104034786Y-101845824D01*
X104034782Y-101845823D01*
X104024768Y-101845035D01*
X104020925Y-101843570D01*
X104016853Y-101844156D01*
X103988546Y-101831229D01*
X103959480Y-101820150D01*
X103957038Y-101816839D01*
X103953297Y-101815131D01*
X103936474Y-101788954D01*
X103918011Y-101763918D01*
X103917110Y-101758823D01*
X103915523Y-101756353D01*
X103910500Y-101721418D01*
X103910500Y-101557534D01*
X103930185Y-101490495D01*
X103982989Y-101444740D01*
X104021897Y-101434176D01*
X104062797Y-101429999D01*
X104229334Y-101374814D01*
X104378656Y-101282712D01*
X104502712Y-101158656D01*
X104594814Y-101009334D01*
X104649999Y-100842797D01*
X104660500Y-100740009D01*
X104660500Y-100739986D01*
X105160003Y-100739986D01*
X105170496Y-100842697D01*
X105225643Y-101009119D01*
X105225645Y-101009124D01*
X105317686Y-101158345D01*
X105441656Y-101282315D01*
X105590877Y-101374356D01*
X105590882Y-101374358D01*
X105757304Y-101429505D01*
X105757311Y-101429506D01*
X105860021Y-101439999D01*
X106660001Y-101439999D01*
X107160002Y-101439999D01*
X107959974Y-101439999D01*
X107959988Y-101439998D01*
X108062699Y-101429505D01*
X108229121Y-101374358D01*
X108229126Y-101374356D01*
X108378347Y-101282315D01*
X108502317Y-101158345D01*
X108594358Y-101009124D01*
X108594360Y-101009119D01*
X108649507Y-100842697D01*
X108649508Y-100842690D01*
X108660001Y-100739986D01*
X108660002Y-100739973D01*
X108660002Y-100290000D01*
X107160002Y-100290000D01*
X107160002Y-101439999D01*
X106660001Y-101439999D01*
X106660002Y-101439998D01*
X106660002Y-100290000D01*
X105160003Y-100290000D01*
X105160003Y-100739986D01*
X104660500Y-100739986D01*
X104660499Y-100280013D01*
X114110000Y-100280013D01*
X114110000Y-102030000D01*
X115610000Y-102030000D01*
X115610000Y-99580000D01*
X114810028Y-99580000D01*
X114810012Y-99580001D01*
X114707302Y-99590494D01*
X114540880Y-99645641D01*
X114540875Y-99645643D01*
X114391654Y-99737684D01*
X114267684Y-99861654D01*
X114175643Y-100010875D01*
X114175641Y-100010880D01*
X114120494Y-100177302D01*
X114120493Y-100177309D01*
X114110000Y-100280013D01*
X104660499Y-100280013D01*
X104660499Y-100010880D01*
X104660499Y-99340013D01*
X105160002Y-99340013D01*
X105160002Y-99790000D01*
X106660002Y-99790000D01*
X107160002Y-99790000D01*
X108660001Y-99790000D01*
X108660001Y-99340028D01*
X108660000Y-99340013D01*
X108649507Y-99237302D01*
X108594360Y-99070880D01*
X108594358Y-99070875D01*
X108502317Y-98921654D01*
X108378347Y-98797684D01*
X108229126Y-98705643D01*
X108229121Y-98705641D01*
X108062699Y-98650494D01*
X108062692Y-98650493D01*
X107959988Y-98640000D01*
X107160002Y-98640000D01*
X107160002Y-99790000D01*
X106660002Y-99790000D01*
X106660002Y-98640000D01*
X105860030Y-98640000D01*
X105860014Y-98640001D01*
X105757304Y-98650494D01*
X105590882Y-98705641D01*
X105590877Y-98705643D01*
X105441656Y-98797684D01*
X105317686Y-98921654D01*
X105225645Y-99070875D01*
X105225643Y-99070880D01*
X105170496Y-99237302D01*
X105170495Y-99237309D01*
X105160002Y-99340013D01*
X104660499Y-99340013D01*
X104660499Y-99339998D01*
X104660498Y-99339981D01*
X104649999Y-99237203D01*
X104649998Y-99237200D01*
X104610394Y-99117684D01*
X104594814Y-99070666D01*
X104502712Y-98921344D01*
X104378656Y-98797288D01*
X104229334Y-98705186D01*
X104062797Y-98650001D01*
X104062795Y-98650000D01*
X103960010Y-98639500D01*
X101859998Y-98639500D01*
X101859981Y-98639501D01*
X101757203Y-98650000D01*
X101757200Y-98650001D01*
X101590668Y-98705185D01*
X101590663Y-98705187D01*
X101441342Y-98797289D01*
X101317289Y-98921342D01*
X101225187Y-99070663D01*
X101225185Y-99070668D01*
X101225115Y-99070880D01*
X101170001Y-99237203D01*
X101170001Y-99237204D01*
X101170000Y-99237204D01*
X101159500Y-99339983D01*
X101159500Y-100740001D01*
X101159501Y-100740018D01*
X101170000Y-100842796D01*
X101170001Y-100842799D01*
X101208838Y-100960000D01*
X101225186Y-101009334D01*
X101317288Y-101158656D01*
X101441344Y-101282712D01*
X101590666Y-101374814D01*
X101757203Y-101429999D01*
X101798103Y-101434177D01*
X101800540Y-101435171D01*
X101803147Y-101434797D01*
X101832714Y-101448300D01*
X101862793Y-101460573D01*
X101864305Y-101462727D01*
X101866703Y-101463822D01*
X101884278Y-101491170D01*
X101902945Y-101517753D01*
X101903490Y-101521065D01*
X101904477Y-101522600D01*
X101909500Y-101557535D01*
X101909500Y-101721418D01*
X101889815Y-101788457D01*
X101837011Y-101834212D01*
X101795232Y-101845035D01*
X101785217Y-101845823D01*
X101785213Y-101845824D01*
X101598306Y-101895905D01*
X101425899Y-101983751D01*
X101425892Y-101983756D01*
X101275523Y-102105523D01*
X101153756Y-102255892D01*
X101153751Y-102255899D01*
X101065905Y-102428306D01*
X101015824Y-102615210D01*
X101009500Y-102695572D01*
X80538894Y-102695572D01*
X80798658Y-101706645D01*
X80799109Y-101704981D01*
X81398746Y-99554220D01*
X81399180Y-99552706D01*
X82031093Y-97411119D01*
X82031574Y-97409536D01*
X82695582Y-95277740D01*
X82696086Y-95276164D01*
X83392038Y-93154639D01*
X83392575Y-93153041D01*
X84120333Y-91042206D01*
X84120879Y-91040659D01*
X84880304Y-88940913D01*
X84880864Y-88939400D01*
X85100808Y-88358711D01*
X87609500Y-88358711D01*
X87609500Y-88601288D01*
X87641161Y-88841785D01*
X87703947Y-89076104D01*
X87796773Y-89300205D01*
X87796776Y-89300212D01*
X87918064Y-89510289D01*
X87918066Y-89510292D01*
X87918067Y-89510293D01*
X88065733Y-89702736D01*
X88065739Y-89702743D01*
X88237256Y-89874260D01*
X88237263Y-89874266D01*
X88347755Y-89959049D01*
X88429711Y-90021936D01*
X88639788Y-90143224D01*
X88863900Y-90236054D01*
X89098211Y-90298838D01*
X89278586Y-90322584D01*
X89338711Y-90330500D01*
X89338712Y-90330500D01*
X89581289Y-90330500D01*
X89629388Y-90324167D01*
X89821789Y-90298838D01*
X90056100Y-90236054D01*
X90280212Y-90143224D01*
X90490289Y-90021936D01*
X90682738Y-89874265D01*
X90854265Y-89702738D01*
X91001936Y-89510289D01*
X91123224Y-89300212D01*
X91216054Y-89076100D01*
X91278838Y-88841789D01*
X91310500Y-88601288D01*
X91310500Y-88358712D01*
X91278838Y-88118211D01*
X91216054Y-87883900D01*
X91123224Y-87659788D01*
X91001936Y-87449711D01*
X90854265Y-87257262D01*
X90854260Y-87257256D01*
X90682743Y-87085739D01*
X90682736Y-87085733D01*
X90490293Y-86938067D01*
X90490292Y-86938066D01*
X90490289Y-86938064D01*
X90280212Y-86816776D01*
X90280205Y-86816773D01*
X90056104Y-86723947D01*
X89821785Y-86661161D01*
X89581289Y-86629500D01*
X89581288Y-86629500D01*
X89338712Y-86629500D01*
X89338711Y-86629500D01*
X89098214Y-86661161D01*
X88863895Y-86723947D01*
X88639794Y-86816773D01*
X88639785Y-86816777D01*
X88429706Y-86938067D01*
X88237263Y-87085733D01*
X88237256Y-87085739D01*
X88065739Y-87257256D01*
X88065733Y-87257263D01*
X87918067Y-87449706D01*
X87796777Y-87659785D01*
X87796773Y-87659794D01*
X87703947Y-87883895D01*
X87641161Y-88118214D01*
X87609500Y-88358711D01*
X85100808Y-88358711D01*
X85671748Y-86851333D01*
X85672354Y-86849770D01*
X86494516Y-84773849D01*
X86495151Y-84772282D01*
X87348379Y-82709040D01*
X87349089Y-82707360D01*
X87351981Y-82700655D01*
X88143345Y-80865592D01*
X88187966Y-80811831D01*
X88202870Y-80803238D01*
X88524872Y-80646274D01*
X89568308Y-80096450D01*
X90593987Y-79514172D01*
X91600899Y-78900011D01*
X92588054Y-78254573D01*
X93554480Y-77578492D01*
X94499227Y-76872433D01*
X95421365Y-76137092D01*
X96223766Y-75454986D01*
X127895001Y-75454986D01*
X127905494Y-75557697D01*
X127960641Y-75724119D01*
X127960643Y-75724124D01*
X128052684Y-75873345D01*
X128176654Y-75997315D01*
X128325875Y-76089356D01*
X128325880Y-76089358D01*
X128492302Y-76144505D01*
X128492309Y-76144506D01*
X128595019Y-76154999D01*
X129019999Y-76154999D01*
X129520000Y-76154999D01*
X129944972Y-76154999D01*
X129944986Y-76154998D01*
X130047697Y-76144505D01*
X130214119Y-76089358D01*
X130214124Y-76089356D01*
X130363345Y-75997315D01*
X130487315Y-75873345D01*
X130579356Y-75724124D01*
X130579358Y-75724119D01*
X130634505Y-75557697D01*
X130634506Y-75557690D01*
X130644999Y-75454986D01*
X130645000Y-75454973D01*
X130645000Y-75280000D01*
X129520000Y-75280000D01*
X129520000Y-76154999D01*
X129019999Y-76154999D01*
X129020000Y-76154998D01*
X129020000Y-75280000D01*
X127895001Y-75280000D01*
X127895001Y-75454986D01*
X96223766Y-75454986D01*
X96319986Y-75373191D01*
X96422890Y-75280000D01*
X96581096Y-75136727D01*
X96969273Y-74785187D01*
X97168226Y-74605013D01*
X127895000Y-74605013D01*
X127895000Y-74780000D01*
X129020000Y-74780000D01*
X129520000Y-74780000D01*
X130644999Y-74780000D01*
X130644999Y-74605028D01*
X130644998Y-74605013D01*
X130634505Y-74502302D01*
X130579358Y-74335880D01*
X130579356Y-74335875D01*
X130487315Y-74186654D01*
X130363345Y-74062684D01*
X130214124Y-73970643D01*
X130214119Y-73970641D01*
X130047697Y-73915494D01*
X130047690Y-73915493D01*
X129944986Y-73905000D01*
X129520000Y-73905000D01*
X129520000Y-74780000D01*
X129020000Y-74780000D01*
X129020000Y-73905000D01*
X128595028Y-73905000D01*
X128595012Y-73905001D01*
X128492302Y-73915494D01*
X128325880Y-73970641D01*
X128325875Y-73970643D01*
X128176654Y-74062684D01*
X128052684Y-74186654D01*
X127960643Y-74335875D01*
X127960641Y-74335880D01*
X127905494Y-74502302D01*
X127905493Y-74502309D01*
X127895000Y-74605013D01*
X97168226Y-74605013D01*
X97194208Y-74581483D01*
X98043169Y-73762745D01*
X98866034Y-72917785D01*
X99661993Y-72047432D01*
X100430264Y-71152544D01*
X101170091Y-70234001D01*
X101276657Y-70092840D01*
X101332758Y-70051198D01*
X101402469Y-70046496D01*
X101405538Y-70047217D01*
G37*
%TD.AperFunction*%
%TD*%
M02*
