%TF.GenerationSoftware,KiCad,Pcbnew,9.0.7*%
%TF.CreationDate,2026-04-17T16:01:34+03:00*%
%TF.ProjectId,MCB-110-A,4d43422d-3131-4302-9d41-2e6b69636164,1.0*%
%TF.SameCoordinates,Original*%
%TF.FileFunction,Legend,Bot*%
%TF.FilePolarity,Positive*%
%FSLAX46Y46*%
G04 Gerber Fmt 4.6, Leading zero omitted, Abs format (unit mm)*
G04 Created by KiCad (PCBNEW 9.0.7) date 2026-04-17 16:01:34*
%MOMM*%
%LPD*%
G01*
G04 APERTURE LIST*
%ADD10C,0.125000*%
G04 APERTURE END LIST*
D10*
X203543432Y-85549059D02*
X203043432Y-85549059D01*
X203543432Y-86382392D02*
X203281527Y-86382392D01*
X203281527Y-86382392D02*
X203233908Y-86358582D01*
X203233908Y-86358582D02*
X203210099Y-86310963D01*
X203210099Y-86310963D02*
X203210099Y-86215725D01*
X203210099Y-86215725D02*
X203233908Y-86168106D01*
X203519623Y-86382392D02*
X203543432Y-86334773D01*
X203543432Y-86334773D02*
X203543432Y-86215725D01*
X203543432Y-86215725D02*
X203519623Y-86168106D01*
X203519623Y-86168106D02*
X203472003Y-86144297D01*
X203472003Y-86144297D02*
X203424384Y-86144297D01*
X203424384Y-86144297D02*
X203376765Y-86168106D01*
X203376765Y-86168106D02*
X203352956Y-86215725D01*
X203352956Y-86215725D02*
X203352956Y-86334773D01*
X203352956Y-86334773D02*
X203329146Y-86382392D01*
X203543432Y-86620487D02*
X203210099Y-86620487D01*
X203257718Y-86620487D02*
X203233908Y-86644297D01*
X203233908Y-86644297D02*
X203210099Y-86691916D01*
X203210099Y-86691916D02*
X203210099Y-86763344D01*
X203210099Y-86763344D02*
X203233908Y-86810963D01*
X203233908Y-86810963D02*
X203281527Y-86834773D01*
X203281527Y-86834773D02*
X203543432Y-86834773D01*
X203281527Y-86834773D02*
X203233908Y-86858582D01*
X203233908Y-86858582D02*
X203210099Y-86906201D01*
X203210099Y-86906201D02*
X203210099Y-86977630D01*
X203210099Y-86977630D02*
X203233908Y-87025249D01*
X203233908Y-87025249D02*
X203281527Y-87049059D01*
X203281527Y-87049059D02*
X203543432Y-87049059D01*
X203543432Y-87668106D02*
X203210099Y-87668106D01*
X203257718Y-87668106D02*
X203233908Y-87691916D01*
X203233908Y-87691916D02*
X203210099Y-87739535D01*
X203210099Y-87739535D02*
X203210099Y-87810963D01*
X203210099Y-87810963D02*
X203233908Y-87858582D01*
X203233908Y-87858582D02*
X203281527Y-87882392D01*
X203281527Y-87882392D02*
X203543432Y-87882392D01*
X203281527Y-87882392D02*
X203233908Y-87906201D01*
X203233908Y-87906201D02*
X203210099Y-87953820D01*
X203210099Y-87953820D02*
X203210099Y-88025249D01*
X203210099Y-88025249D02*
X203233908Y-88072868D01*
X203233908Y-88072868D02*
X203281527Y-88096678D01*
X203281527Y-88096678D02*
X203543432Y-88096678D01*
X203543432Y-88549059D02*
X203281527Y-88549059D01*
X203281527Y-88549059D02*
X203233908Y-88525249D01*
X203233908Y-88525249D02*
X203210099Y-88477630D01*
X203210099Y-88477630D02*
X203210099Y-88382392D01*
X203210099Y-88382392D02*
X203233908Y-88334773D01*
X203519623Y-88549059D02*
X203543432Y-88501440D01*
X203543432Y-88501440D02*
X203543432Y-88382392D01*
X203543432Y-88382392D02*
X203519623Y-88334773D01*
X203519623Y-88334773D02*
X203472003Y-88310964D01*
X203472003Y-88310964D02*
X203424384Y-88310964D01*
X203424384Y-88310964D02*
X203376765Y-88334773D01*
X203376765Y-88334773D02*
X203352956Y-88382392D01*
X203352956Y-88382392D02*
X203352956Y-88501440D01*
X203352956Y-88501440D02*
X203329146Y-88549059D01*
X203543432Y-89001440D02*
X203043432Y-89001440D01*
X203519623Y-89001440D02*
X203543432Y-88953821D01*
X203543432Y-88953821D02*
X203543432Y-88858583D01*
X203543432Y-88858583D02*
X203519623Y-88810964D01*
X203519623Y-88810964D02*
X203495813Y-88787154D01*
X203495813Y-88787154D02*
X203448194Y-88763345D01*
X203448194Y-88763345D02*
X203305337Y-88763345D01*
X203305337Y-88763345D02*
X203257718Y-88787154D01*
X203257718Y-88787154D02*
X203233908Y-88810964D01*
X203233908Y-88810964D02*
X203210099Y-88858583D01*
X203210099Y-88858583D02*
X203210099Y-88953821D01*
X203210099Y-88953821D02*
X203233908Y-89001440D01*
X203519623Y-89430011D02*
X203543432Y-89382392D01*
X203543432Y-89382392D02*
X203543432Y-89287154D01*
X203543432Y-89287154D02*
X203519623Y-89239535D01*
X203519623Y-89239535D02*
X203472003Y-89215726D01*
X203472003Y-89215726D02*
X203281527Y-89215726D01*
X203281527Y-89215726D02*
X203233908Y-89239535D01*
X203233908Y-89239535D02*
X203210099Y-89287154D01*
X203210099Y-89287154D02*
X203210099Y-89382392D01*
X203210099Y-89382392D02*
X203233908Y-89430011D01*
X203233908Y-89430011D02*
X203281527Y-89453821D01*
X203281527Y-89453821D02*
X203329146Y-89453821D01*
X203329146Y-89453821D02*
X203376765Y-89215726D01*
X203519623Y-90025249D02*
X203543432Y-90072868D01*
X203543432Y-90072868D02*
X203543432Y-90168106D01*
X203543432Y-90168106D02*
X203519623Y-90215725D01*
X203519623Y-90215725D02*
X203472003Y-90239534D01*
X203472003Y-90239534D02*
X203448194Y-90239534D01*
X203448194Y-90239534D02*
X203400575Y-90215725D01*
X203400575Y-90215725D02*
X203376765Y-90168106D01*
X203376765Y-90168106D02*
X203376765Y-90096677D01*
X203376765Y-90096677D02*
X203352956Y-90049058D01*
X203352956Y-90049058D02*
X203305337Y-90025249D01*
X203305337Y-90025249D02*
X203281527Y-90025249D01*
X203281527Y-90025249D02*
X203233908Y-90049058D01*
X203233908Y-90049058D02*
X203210099Y-90096677D01*
X203210099Y-90096677D02*
X203210099Y-90168106D01*
X203210099Y-90168106D02*
X203233908Y-90215725D01*
X203543432Y-90453820D02*
X203210099Y-90453820D01*
X203257718Y-90453820D02*
X203233908Y-90477630D01*
X203233908Y-90477630D02*
X203210099Y-90525249D01*
X203210099Y-90525249D02*
X203210099Y-90596677D01*
X203210099Y-90596677D02*
X203233908Y-90644296D01*
X203233908Y-90644296D02*
X203281527Y-90668106D01*
X203281527Y-90668106D02*
X203543432Y-90668106D01*
X203281527Y-90668106D02*
X203233908Y-90691915D01*
X203233908Y-90691915D02*
X203210099Y-90739534D01*
X203210099Y-90739534D02*
X203210099Y-90810963D01*
X203210099Y-90810963D02*
X203233908Y-90858582D01*
X203233908Y-90858582D02*
X203281527Y-90882392D01*
X203281527Y-90882392D02*
X203543432Y-90882392D01*
X203543432Y-91191916D02*
X203519623Y-91144297D01*
X203519623Y-91144297D02*
X203495813Y-91120487D01*
X203495813Y-91120487D02*
X203448194Y-91096678D01*
X203448194Y-91096678D02*
X203305337Y-91096678D01*
X203305337Y-91096678D02*
X203257718Y-91120487D01*
X203257718Y-91120487D02*
X203233908Y-91144297D01*
X203233908Y-91144297D02*
X203210099Y-91191916D01*
X203210099Y-91191916D02*
X203210099Y-91263344D01*
X203210099Y-91263344D02*
X203233908Y-91310963D01*
X203233908Y-91310963D02*
X203257718Y-91334773D01*
X203257718Y-91334773D02*
X203305337Y-91358582D01*
X203305337Y-91358582D02*
X203448194Y-91358582D01*
X203448194Y-91358582D02*
X203495813Y-91334773D01*
X203495813Y-91334773D02*
X203519623Y-91310963D01*
X203519623Y-91310963D02*
X203543432Y-91263344D01*
X203543432Y-91263344D02*
X203543432Y-91191916D01*
X203543432Y-91644297D02*
X203519623Y-91596678D01*
X203519623Y-91596678D02*
X203472003Y-91572868D01*
X203472003Y-91572868D02*
X203043432Y-91572868D01*
M02*
