M48
; DRILL file {KiCad 9.0.7} date 2026-04-17T16:01:36+0300
; FORMAT={-:-/ absolute / inch / decimal}
; #@! TF.CreationDate,2026-04-17T16:01:36+03:00
; #@! TF.GenerationSoftware,Kicad,Pcbnew,9.0.7
; #@! TF.FileFunction,Plated,1,2,PTH
FMAT,2
INCH
; #@! TA.AperFunction,Plated,PTH,ViaDrill
T1C0.0079
; #@! TA.AperFunction,Plated,PTH,ComponentDrill
T2C0.0079
; #@! TA.AperFunction,Plated,PTH,ComponentDrill
T3C0.0080
; #@! TA.AperFunction,Plated,PTH,ViaDrill
T4C0.0118
; #@! TA.AperFunction,Plated,PTH,ComponentDrill
T5C0.0315
; #@! TA.AperFunction,Plated,PTH,ComponentDrill
T6C0.0374
; #@! TA.AperFunction,Plated,PTH,ComponentDrill
T7C0.0394
; #@! TA.AperFunction,Plated,PTH,ComponentDrill
T8C0.0398
; #@! TA.AperFunction,Plated,PTH,ComponentDrill
T9C0.0591
%
G90
G05
T1
X5.4847Y-4.5448
X5.4941Y-4.2495
X5.6544Y-4.2535
X5.6859Y-4.4692
X5.6863Y-4.442
X5.6867Y-4.4164
X5.6867Y-4.496
X5.6882Y-4.5192
X5.7115Y-4.5444
X5.7713Y-4.2535
X5.793Y-4.5881
X5.8126Y-4.4468
X5.8221Y-4.2897
X5.8323Y-4.652
X5.8479Y-4.2531
X5.9422Y-4.4027
X5.9772Y-4.2527
X6.0638Y-4.2456
X6.0918Y-4.5294
X6.1559Y-4.4767
X6.3111Y-3.4834
X6.3835Y-4.3696
X6.4418Y-3.6495
X6.4559Y-4.3357
X6.5504Y-4.37
T2
X5.7386Y-4.0479
X5.7386Y-4.0873
X5.7386Y-4.1267
X5.7859Y-4.0479
X5.7859Y-4.0873
X5.7859Y-4.1267
X5.8331Y-4.0479
X5.8331Y-4.0873
X5.8331Y-4.1267
X5.8804Y-4.0479
X5.8804Y-4.0873
X5.8804Y-4.1267
T3
X6.2653Y-3.5968
X6.2653Y-3.6165
X6.2653Y-3.6362
X6.3047Y-3.5968
X6.3047Y-3.6165
X6.3047Y-3.6362
X6.3559Y-3.5968
X6.3559Y-3.6165
X6.3559Y-3.6362
X6.3953Y-3.5968
X6.3953Y-3.6165
X6.3953Y-3.6362
T4
X5.5701Y-4.0633
X5.5701Y-4.2771
X5.7969Y-4.2613
T5
X5.5701Y-3.4357
X5.6489Y-3.4357
X5.7276Y-3.4357
T6
X4.5233Y-3.4523
X4.6217Y-3.4523
X4.7201Y-3.4523
X4.8185Y-3.4523
X4.917Y-3.4523
T7
X4.4487Y-3.8598
X4.4487Y-3.9598
X4.4487Y-4.0598
X4.4487Y-4.1598
X4.4516Y-4.5086
X4.5516Y-4.5086
X4.6516Y-4.5086
X4.7516Y-4.5086
X5.1772Y-3.4503
X5.2756Y-3.4503
X5.4701Y-3.6062
X5.5701Y-3.6062
X6.1559Y-4.1964
X6.2559Y-4.1964
X6.3559Y-4.1964
X6.4559Y-4.1964
X7.1145Y-3.8598
X7.1145Y-3.9598
X7.1145Y-4.0598
X7.1145Y-4.1598
T8
X5.9508Y-3.3909
X6.1516Y-3.4381
T9
X5.4874Y-3.4357
X5.8103Y-3.4357
M30
