%TF.GenerationSoftware,KiCad,Pcbnew,9.0.7*%
%TF.CreationDate,2026-04-17T16:01:34+03:00*%
%TF.ProjectId,MCB-110-A,4d43422d-3131-4302-9d41-2e6b69636164,1.0*%
%TF.SameCoordinates,Original*%
%TF.FileFunction,Copper,L1,Top*%
%TF.FilePolarity,Positive*%
%FSLAX46Y46*%
G04 Gerber Fmt 4.6, Leading zero omitted, Abs format (unit mm)*
G04 Created by KiCad (PCBNEW 9.0.7) date 2026-04-17 16:01:34*
%MOMM*%
%LPD*%
G01*
G04 APERTURE LIST*
G04 Aperture macros list*
%AMRoundRect*
0 Rectangle with rounded corners*
0 $1 Rounding radius*
0 $2 $3 $4 $5 $6 $7 $8 $9 X,Y pos of 4 corners*
0 Add a 4 corners polygon primitive as box body*
4,1,4,$2,$3,$4,$5,$6,$7,$8,$9,$2,$3,0*
0 Add four circle primitives for the rounded corners*
1,1,$1+$1,$2,$3*
1,1,$1+$1,$4,$5*
1,1,$1+$1,$6,$7*
1,1,$1+$1,$8,$9*
0 Add four rect primitives between the rounded corners*
20,1,$1+$1,$2,$3,$4,$5,0*
20,1,$1+$1,$4,$5,$6,$7,0*
20,1,$1+$1,$6,$7,$8,$9,0*
20,1,$1+$1,$8,$9,$2,$3,0*%
%AMFreePoly0*
4,1,14,0.230680,0.111820,0.364320,-0.021820,0.377500,-0.053640,0.377500,-0.080000,0.364320,-0.111820,0.332500,-0.125000,-0.332500,-0.125000,-0.364320,-0.111820,-0.377500,-0.080000,-0.377500,0.080000,-0.364320,0.111820,-0.332500,0.125000,0.198860,0.125000,0.230680,0.111820,0.230680,0.111820,$1*%
%AMFreePoly1*
4,1,14,0.364320,0.111820,0.377500,0.080000,0.377500,0.053640,0.364320,0.021820,0.230680,-0.111820,0.198860,-0.125000,-0.332500,-0.125000,-0.364320,-0.111820,-0.377500,-0.080000,-0.377500,0.080000,-0.364320,0.111820,-0.332500,0.125000,0.332500,0.125000,0.364320,0.111820,0.364320,0.111820,$1*%
%AMFreePoly2*
4,1,14,0.111820,0.364320,0.125000,0.332500,0.125000,-0.332500,0.111820,-0.364320,0.080000,-0.377500,-0.080000,-0.377500,-0.111820,-0.364320,-0.125000,-0.332500,-0.125000,0.198860,-0.111820,0.230680,0.021820,0.364320,0.053640,0.377500,0.080000,0.377500,0.111820,0.364320,0.111820,0.364320,$1*%
%AMFreePoly3*
4,1,14,-0.021820,0.364320,0.111820,0.230680,0.125000,0.198860,0.125000,-0.332500,0.111820,-0.364320,0.080000,-0.377500,-0.080000,-0.377500,-0.111820,-0.364320,-0.125000,-0.332500,-0.125000,0.332500,-0.111820,0.364320,-0.080000,0.377500,-0.053640,0.377500,-0.021820,0.364320,-0.021820,0.364320,$1*%
%AMFreePoly4*
4,1,14,0.364320,0.111820,0.377500,0.080000,0.377500,-0.080000,0.364320,-0.111820,0.332500,-0.125000,-0.198860,-0.125000,-0.230680,-0.111820,-0.364320,0.021820,-0.377500,0.053640,-0.377500,0.080000,-0.364320,0.111820,-0.332500,0.125000,0.332500,0.125000,0.364320,0.111820,0.364320,0.111820,$1*%
%AMFreePoly5*
4,1,14,0.364320,0.111820,0.377500,0.080000,0.377500,-0.080000,0.364320,-0.111820,0.332500,-0.125000,-0.332500,-0.125000,-0.364320,-0.111820,-0.377500,-0.080000,-0.377500,-0.053640,-0.364320,-0.021820,-0.230680,0.111820,-0.198860,0.125000,0.332500,0.125000,0.364320,0.111820,0.364320,0.111820,$1*%
%AMFreePoly6*
4,1,14,0.111820,0.364320,0.125000,0.332500,0.125000,-0.198860,0.111820,-0.230680,-0.021820,-0.364320,-0.053640,-0.377500,-0.080000,-0.377500,-0.111820,-0.364320,-0.125000,-0.332500,-0.125000,0.332500,-0.111820,0.364320,-0.080000,0.377500,0.080000,0.377500,0.111820,0.364320,0.111820,0.364320,$1*%
%AMFreePoly7*
4,1,14,0.111820,0.364320,0.125000,0.332500,0.125000,-0.332500,0.111820,-0.364320,0.080000,-0.377500,0.053640,-0.377500,0.021820,-0.364320,-0.111820,-0.230680,-0.125000,-0.198860,-0.125000,0.332500,-0.111820,0.364320,-0.080000,0.377500,0.080000,0.377500,0.111820,0.364320,0.111820,0.364320,$1*%
G04 Aperture macros list end*
%TA.AperFunction,SMDPad,CuDef*%
%ADD10RoundRect,0.250000X0.625000X-0.375000X0.625000X0.375000X-0.625000X0.375000X-0.625000X-0.375000X0*%
%TD*%
%TA.AperFunction,ComponentPad*%
%ADD11R,1.700000X1.700000*%
%TD*%
%TA.AperFunction,ComponentPad*%
%ADD12C,1.700000*%
%TD*%
%TA.AperFunction,ComponentPad*%
%ADD13RoundRect,0.250000X-0.600000X-0.750000X0.600000X-0.750000X0.600000X0.750000X-0.600000X0.750000X0*%
%TD*%
%TA.AperFunction,ComponentPad*%
%ADD14O,1.700000X2.000000*%
%TD*%
%TA.AperFunction,ComponentPad*%
%ADD15C,2.010000*%
%TD*%
%TA.AperFunction,SMDPad,CuDef*%
%ADD16RoundRect,0.100000X-0.100000X0.687500X-0.100000X-0.687500X0.100000X-0.687500X0.100000X0.687500X0*%
%TD*%
%TA.AperFunction,HeatsinkPad*%
%ADD17C,0.500000*%
%TD*%
%TA.AperFunction,HeatsinkPad*%
%ADD18R,5.000000X3.400000*%
%TD*%
%TA.AperFunction,SMDPad,CuDef*%
%ADD19FreePoly0,90.000000*%
%TD*%
%TA.AperFunction,SMDPad,CuDef*%
%ADD20RoundRect,0.062500X0.062500X-0.375000X0.062500X0.375000X-0.062500X0.375000X-0.062500X-0.375000X0*%
%TD*%
%TA.AperFunction,SMDPad,CuDef*%
%ADD21FreePoly1,90.000000*%
%TD*%
%TA.AperFunction,SMDPad,CuDef*%
%ADD22FreePoly2,90.000000*%
%TD*%
%TA.AperFunction,SMDPad,CuDef*%
%ADD23RoundRect,0.062500X0.375000X-0.062500X0.375000X0.062500X-0.375000X0.062500X-0.375000X-0.062500X0*%
%TD*%
%TA.AperFunction,SMDPad,CuDef*%
%ADD24FreePoly3,90.000000*%
%TD*%
%TA.AperFunction,SMDPad,CuDef*%
%ADD25FreePoly4,90.000000*%
%TD*%
%TA.AperFunction,SMDPad,CuDef*%
%ADD26FreePoly5,90.000000*%
%TD*%
%TA.AperFunction,SMDPad,CuDef*%
%ADD27FreePoly6,90.000000*%
%TD*%
%TA.AperFunction,SMDPad,CuDef*%
%ADD28FreePoly7,90.000000*%
%TD*%
%TA.AperFunction,SMDPad,CuDef*%
%ADD29RoundRect,0.250000X-0.450000X0.350000X-0.450000X-0.350000X0.450000X-0.350000X0.450000X0.350000X0*%
%TD*%
%TA.AperFunction,SMDPad,CuDef*%
%ADD30RoundRect,0.250000X0.350000X0.450000X-0.350000X0.450000X-0.350000X-0.450000X0.350000X-0.450000X0*%
%TD*%
%TA.AperFunction,SMDPad,CuDef*%
%ADD31RoundRect,0.250000X-0.475000X0.337500X-0.475000X-0.337500X0.475000X-0.337500X0.475000X0.337500X0*%
%TD*%
%TA.AperFunction,SMDPad,CuDef*%
%ADD32RoundRect,0.250000X-1.950000X-1.000000X1.950000X-1.000000X1.950000X1.000000X-1.950000X1.000000X0*%
%TD*%
%TA.AperFunction,SMDPad,CuDef*%
%ADD33R,1.600000X1.400000*%
%TD*%
%TA.AperFunction,SMDPad,CuDef*%
%ADD34RoundRect,0.250000X0.337500X0.475000X-0.337500X0.475000X-0.337500X-0.475000X0.337500X-0.475000X0*%
%TD*%
%TA.AperFunction,SMDPad,CuDef*%
%ADD35RoundRect,0.250000X1.950000X1.000000X-1.950000X1.000000X-1.950000X-1.000000X1.950000X-1.000000X0*%
%TD*%
%TA.AperFunction,SMDPad,CuDef*%
%ADD36RoundRect,0.250000X-0.350000X-0.450000X0.350000X-0.450000X0.350000X0.450000X-0.350000X0.450000X0*%
%TD*%
%TA.AperFunction,SMDPad,CuDef*%
%ADD37RoundRect,0.250000X0.450000X-0.350000X0.450000X0.350000X-0.450000X0.350000X-0.450000X-0.350000X0*%
%TD*%
%TA.AperFunction,SMDPad,CuDef*%
%ADD38RoundRect,0.250000X0.475000X-0.337500X0.475000X0.337500X-0.475000X0.337500X-0.475000X-0.337500X0*%
%TD*%
%TA.AperFunction,ComponentPad*%
%ADD39O,2.200000X3.500000*%
%TD*%
%TA.AperFunction,ComponentPad*%
%ADD40R,1.500000X2.500000*%
%TD*%
%TA.AperFunction,ComponentPad*%
%ADD41O,1.500000X2.500000*%
%TD*%
%TA.AperFunction,SMDPad,CuDef*%
%ADD42RoundRect,0.250000X-0.337500X-0.475000X0.337500X-0.475000X0.337500X0.475000X-0.337500X0.475000X0*%
%TD*%
%TA.AperFunction,ComponentPad*%
%ADD43RoundRect,0.250000X-0.600000X-0.725000X0.600000X-0.725000X0.600000X0.725000X-0.600000X0.725000X0*%
%TD*%
%TA.AperFunction,ComponentPad*%
%ADD44O,1.700000X1.950000*%
%TD*%
%TA.AperFunction,SMDPad,CuDef*%
%ADD45C,1.024989*%
%TD*%
%TA.AperFunction,SMDPad,CuDef*%
%ADD46R,1.500000X2.300000*%
%TD*%
%TA.AperFunction,SMDPad,CuDef*%
%ADD47C,0.991403*%
%TD*%
%TA.AperFunction,SMDPad,CuDef*%
%ADD48R,0.220000X0.599999*%
%TD*%
%TA.AperFunction,ComponentPad*%
%ADD49C,0.499999*%
%TD*%
%TA.AperFunction,SMDPad,CuDef*%
%ADD50RoundRect,0.250000X0.375000X0.625000X-0.375000X0.625000X-0.375000X-0.625000X0.375000X-0.625000X0*%
%TD*%
%TA.AperFunction,ViaPad*%
%ADD51C,0.400000*%
%TD*%
%TA.AperFunction,ViaPad*%
%ADD52C,0.600000*%
%TD*%
%TA.AperFunction,Conductor*%
%ADD53C,0.200000*%
%TD*%
%TA.AperFunction,Conductor*%
%ADD54C,0.500000*%
%TD*%
%TA.AperFunction,Conductor*%
%ADD55C,0.400000*%
%TD*%
%TA.AperFunction,Conductor*%
%ADD56C,0.250000*%
%TD*%
%TA.AperFunction,Conductor*%
%ADD57C,1.500000*%
%TD*%
G04 APERTURE END LIST*
D10*
%TO.P,D3,1,K*%
%TO.N,GND*%
X177621123Y-116117777D03*
%TO.P,D3,2,A*%
%TO.N,Net-(D3-A)*%
X177621123Y-113317779D03*
%TD*%
D11*
%TO.P,J3,1,Pin_1*%
%TO.N,/STM32G071/SW_CLK*%
X120691123Y-114517776D03*
D12*
%TO.P,J3,2,Pin_4*%
%TO.N,GND*%
X118151123Y-114517776D03*
%TO.P,J3,3,Pin_3*%
%TO.N,/STM32G071/SW_IO*%
X115611123Y-114517776D03*
%TO.P,J3,4,Pin_2*%
%TO.N,/STM32G071/~{RST}*%
X113071123Y-114517776D03*
%TD*%
D13*
%TO.P,J7,1,Pin_1*%
%TO.N,+3V3*%
X131501123Y-87637776D03*
D14*
%TO.P,J7,2,Pin_2*%
%TO.N,GND*%
X134001123Y-87637776D03*
%TD*%
D15*
%TO.P,F1,1*%
%TO.N,Net-(SW4-B)*%
X151151123Y-86127776D03*
%TO.P,F1,2*%
%TO.N,Vin*%
X156251123Y-87327776D03*
%TD*%
D16*
%TO.P,U1,1,~{SLEEP}*%
%TO.N,nSleep*%
X149836123Y-100955276D03*
%TO.P,U1,2,AOUT1*%
%TO.N,/Motor Driver/AOUT1*%
X149186123Y-100955276D03*
%TO.P,U1,3,AISEN*%
%TO.N,unconnected-(U1-AISEN-Pad3)*%
X148536123Y-100955276D03*
%TO.P,U1,4,AOUT2*%
%TO.N,/Motor Driver/AOUT2*%
X147886123Y-100955276D03*
%TO.P,U1,5,BOUT2*%
%TO.N,/Motor Driver/BOUT2*%
X147236123Y-100955276D03*
%TO.P,U1,6,BISEN*%
%TO.N,unconnected-(U1-BISEN-Pad6)*%
X146586123Y-100955276D03*
%TO.P,U1,7,BOUT1*%
%TO.N,/Motor Driver/BOUT1*%
X145936123Y-100955276D03*
%TO.P,U1,8,~{FAULT}*%
%TO.N,unconnected-(U1-~{FAULT}-Pad8)*%
X145286123Y-100955276D03*
%TO.P,U1,9,BIN1*%
%TO.N,BIN1*%
X145286123Y-106680276D03*
%TO.P,U1,10,BIN2*%
%TO.N,BIN2*%
X145936123Y-106680276D03*
%TO.P,U1,11,VCP*%
%TO.N,Net-(U1-VCP)*%
X146586123Y-106680276D03*
%TO.P,U1,12,VM*%
%TO.N,BAT*%
X147236123Y-106680276D03*
%TO.P,U1,13,GND*%
%TO.N,GND*%
X147886123Y-106680276D03*
%TO.P,U1,14,VINT*%
%TO.N,Net-(U1-VINT)*%
X148536123Y-106680276D03*
%TO.P,U1,15,AIN2*%
%TO.N,AIN2*%
X149186123Y-106680276D03*
%TO.P,U1,16,AIN1*%
%TO.N,AIN1*%
X149836123Y-106680276D03*
D17*
%TO.P,U1,17,GND*%
%TO.N,GND*%
X149361123Y-102817776D03*
X148161123Y-102817776D03*
X146961123Y-102817776D03*
X145761123Y-102817776D03*
X149361123Y-103817776D03*
X148161123Y-103817776D03*
D18*
X147561123Y-103817776D03*
D17*
X146961123Y-103817776D03*
X145761123Y-103817776D03*
X149361123Y-104817776D03*
X148161123Y-104817776D03*
X146961123Y-104817776D03*
X145761123Y-104817776D03*
%TD*%
D19*
%TO.P,U3,1,PC14*%
%TO.N,/STM32G071/USER_BTN*%
X146141123Y-115017776D03*
D20*
%TO.P,U3,2,PC15*%
%TO.N,unconnected-(U3-PC15-Pad2)*%
X146641123Y-114957776D03*
%TO.P,U3,3,VDD*%
%TO.N,+3V3*%
X147141123Y-114957776D03*
%TO.P,U3,4,VSS*%
%TO.N,GND*%
X147641123Y-114957776D03*
%TO.P,U3,5,PF2-NRST*%
%TO.N,/STM32G071/~{RST}*%
X148141123Y-114957776D03*
%TO.P,U3,6,PA0*%
%TO.N,unconnected-(U3-PA0-Pad6)*%
X148641123Y-114957776D03*
D21*
%TO.P,U3,7,PA1*%
%TO.N,unconnected-(U3-PA1-Pad7)*%
X149141123Y-115017776D03*
D22*
%TO.P,U3,8,PA2*%
%TO.N,/STM32G071/TX*%
X149638623Y-114520276D03*
D23*
%TO.P,U3,9,PA3*%
%TO.N,/STM32G071/RX*%
X149578623Y-114020276D03*
%TO.P,U3,10,PA4*%
%TO.N,unconnected-(U3-PA4-Pad10)*%
X149578623Y-113520276D03*
%TO.P,U3,11,PA5*%
%TO.N,unconnected-(U3-PA5-Pad11)*%
X149578623Y-113020276D03*
%TO.P,U3,12,PA6*%
%TO.N,unconnected-(U3-PA6-Pad12)*%
X149578623Y-112520276D03*
%TO.P,U3,13,PA7*%
%TO.N,unconnected-(U3-PA7-Pad13)*%
X149578623Y-112020276D03*
D24*
%TO.P,U3,14,PB0*%
%TO.N,nSleep*%
X149638623Y-111520276D03*
D25*
%TO.P,U3,15,PB1*%
%TO.N,AIN1*%
X149141123Y-111022776D03*
D20*
%TO.P,U3,16,PA8*%
%TO.N,AIN2*%
X148641123Y-111082776D03*
%TO.P,U3,17,PC6*%
%TO.N,BIN2*%
X148141123Y-111082776D03*
%TO.P,U3,18,PA11[9]*%
%TO.N,BIN1*%
X147641123Y-111082776D03*
%TO.P,U3,19,PA12[10]*%
%TO.N,unconnected-(U3-PA12[10]-Pad19)*%
X147141123Y-111082776D03*
%TO.P,U3,20,PA13*%
%TO.N,/STM32G071/SW_IO*%
X146641123Y-111082776D03*
D26*
%TO.P,U3,21,PA14-BOOT*%
%TO.N,/STM32G071/SW_CLK*%
X146141123Y-111022776D03*
D27*
%TO.P,U3,22,PA15*%
%TO.N,unconnected-(U3-PA15-Pad22)*%
X145643623Y-111520276D03*
D23*
%TO.P,U3,23,PB3*%
%TO.N,unconnected-(U3-PB3-Pad23)*%
X145703623Y-112020276D03*
%TO.P,U3,24,PB4*%
%TO.N,A0*%
X145703623Y-112520276D03*
%TO.P,U3,25,PB5*%
%TO.N,A1*%
X145703623Y-113020276D03*
%TO.P,U3,26,PB6*%
%TO.N,A2*%
X145703623Y-113520276D03*
%TO.P,U3,27,PB7*%
%TO.N,A3*%
X145703623Y-114020276D03*
D28*
%TO.P,U3,28,PB8*%
%TO.N,A4*%
X145643623Y-114520276D03*
%TD*%
D29*
%TO.P,R1,1*%
%TO.N,+3V3*%
X156361123Y-115047776D03*
%TO.P,R1,2*%
%TO.N,/STM32G071/~{RST}*%
X156361123Y-117047776D03*
%TD*%
D30*
%TO.P,R4,1*%
%TO.N,EN*%
X160791123Y-85657776D03*
%TO.P,R4,2*%
%TO.N,Vin*%
X158791123Y-85657776D03*
%TD*%
D31*
%TO.P,C5,1*%
%TO.N,Vin*%
X154041123Y-89950276D03*
%TO.P,C5,2*%
%TO.N,GND*%
X154041123Y-92025276D03*
%TD*%
D32*
%TO.P,C11,1*%
%TO.N,+3V3*%
X172721123Y-91417776D03*
%TO.P,C11,2*%
%TO.N,GND*%
X180121123Y-91417776D03*
%TD*%
D33*
%TO.P,SW3,1,1*%
%TO.N,GND*%
X161011123Y-114067776D03*
X168211123Y-114067776D03*
%TO.P,SW3,2,2*%
%TO.N,/STM32G071/~{RST}*%
X161011123Y-117067776D03*
X168211123Y-117067776D03*
%TD*%
D34*
%TO.P,C3,1*%
%TO.N,+3V3*%
X142941123Y-116537776D03*
%TO.P,C3,2*%
%TO.N,GND*%
X140866123Y-116537776D03*
%TD*%
D11*
%TO.P,J4,1,Pin_1*%
%TO.N,+3V3*%
X156361123Y-106587776D03*
D12*
%TO.P,J4,2,Pin_2*%
%TO.N,GND*%
X158901123Y-106587776D03*
%TO.P,J4,3,Pin_3*%
%TO.N,/STM32G071/RX*%
X161441124Y-106587776D03*
%TO.P,J4,4,Pin_4*%
%TO.N,/STM32G071/TX*%
X163981123Y-106587776D03*
%TD*%
D35*
%TO.P,C17,1*%
%TO.N,Net-(SW4-B)*%
X152061123Y-95097776D03*
%TO.P,C17,2*%
%TO.N,GND*%
X144661123Y-95097776D03*
%TD*%
D34*
%TO.P,C12,1*%
%TO.N,BAT*%
X141481123Y-104777776D03*
%TO.P,C12,2*%
%TO.N,GND*%
X139406123Y-104777776D03*
%TD*%
D36*
%TO.P,R3,1*%
%TO.N,EN*%
X162641123Y-85657776D03*
%TO.P,R3,2*%
%TO.N,GND*%
X164641123Y-85657776D03*
%TD*%
D31*
%TO.P,C13,1*%
%TO.N,GND*%
X151821123Y-104770276D03*
%TO.P,C13,2*%
%TO.N,Net-(U1-VINT)*%
X151821123Y-106845276D03*
%TD*%
D11*
%TO.P,J2,1,Pin_1*%
%TO.N,/Motor Driver/BOUT1*%
X112997500Y-105660000D03*
D12*
%TO.P,J2,2,Pin_2*%
X112997500Y-103120000D03*
%TO.P,J2,3,Pin_3*%
%TO.N,/Motor Driver/BOUT2*%
X112997500Y-100580000D03*
%TO.P,J2,4,Pin_4*%
X112997500Y-98040000D03*
%TD*%
D37*
%TO.P,R15,1*%
%TO.N,+3V3*%
X137631123Y-116957776D03*
%TO.P,R15,2*%
%TO.N,/STM32G071/USER_BTN*%
X137631123Y-114957776D03*
%TD*%
D36*
%TO.P,R2,1*%
%TO.N,GND*%
X118691123Y-117417776D03*
%TO.P,R2,2*%
%TO.N,/STM32G071/SW_CLK*%
X120691123Y-117417776D03*
%TD*%
D38*
%TO.P,C2,1*%
%TO.N,/Motor Driver/BOUT1*%
X116851123Y-100122776D03*
%TO.P,C2,2*%
%TO.N,/Motor Driver/BOUT2*%
X116851123Y-98047776D03*
%TD*%
D36*
%TO.P,R10,1*%
%TO.N,/STM32G071/RX*%
X169601123Y-107977776D03*
%TO.P,R10,2*%
%TO.N,Net-(D3-A)*%
X171601123Y-107977776D03*
%TD*%
D10*
%TO.P,D4,1,K*%
%TO.N,GND*%
X174921123Y-116127776D03*
%TO.P,D4,2,A*%
%TO.N,Net-(D4-A)*%
X174921123Y-113327778D03*
%TD*%
D36*
%TO.P,R11,1*%
%TO.N,/STM32G071/TX*%
X169591123Y-110127776D03*
%TO.P,R11,2*%
%TO.N,Net-(D4-A)*%
X171591123Y-110127776D03*
%TD*%
D39*
%TO.P,SW4,*%
%TO.N,*%
X147581123Y-87267776D03*
X139381123Y-87267776D03*
D40*
%TO.P,SW4,1,C*%
%TO.N,unconnected-(SW4-C-Pad1)*%
X145481123Y-87267776D03*
D41*
%TO.P,SW4,2,B*%
%TO.N,Net-(SW4-B)*%
X143481123Y-87267776D03*
%TO.P,SW4,3,A*%
%TO.N,BAT*%
X141481123Y-87267776D03*
%TD*%
D33*
%TO.P,SW1,1,1*%
%TO.N,GND*%
X132951123Y-116957776D03*
X125751123Y-116957776D03*
%TO.P,SW1,2,2*%
%TO.N,/STM32G071/USER_BTN*%
X132951123Y-113957776D03*
X125751123Y-113957776D03*
%TD*%
D38*
%TO.P,C1,1*%
%TO.N,/Motor Driver/AOUT1*%
X176811123Y-100122776D03*
%TO.P,C1,2*%
%TO.N,/Motor Driver/AOUT2*%
X176811123Y-98047776D03*
%TD*%
D31*
%TO.P,C14,1*%
%TO.N,BAT*%
X143621123Y-104780276D03*
%TO.P,C14,2*%
%TO.N,Net-(U1-VCP)*%
X143621123Y-106855276D03*
%TD*%
D42*
%TO.P,C7,1*%
%TO.N,EN*%
X162651123Y-87717776D03*
%TO.P,C7,2*%
%TO.N,GND*%
X164726123Y-87717776D03*
%TD*%
D38*
%TO.P,C9,1*%
%TO.N,+3V3*%
X165131123Y-92697776D03*
%TO.P,C9,2*%
%TO.N,GND*%
X165131123Y-90622776D03*
%TD*%
D31*
%TO.P,C4,1*%
%TO.N,Vin*%
X156171123Y-89950276D03*
%TO.P,C4,2*%
%TO.N,GND*%
X156171123Y-92025276D03*
%TD*%
D43*
%TO.P,J6,1,Pin_1*%
%TO.N,A4*%
X114891123Y-87687776D03*
D44*
%TO.P,J6,2,Pin_2*%
%TO.N,A3*%
X117391123Y-87687776D03*
%TO.P,J6,3,Pin_3*%
%TO.N,A2*%
X119891123Y-87687776D03*
%TO.P,J6,4,Pin_4*%
%TO.N,A1*%
X122391123Y-87687776D03*
%TO.P,J6,5,Pin_5*%
%TO.N,A0*%
X124891123Y-87687776D03*
%TD*%
D37*
%TO.P,R5,1*%
%TO.N,+3V3*%
X167341123Y-92687776D03*
%TO.P,R5,2*%
%TO.N,Net-(D1-A)*%
X167341123Y-90687776D03*
%TD*%
D45*
%TO.P,U4,1,VIN*%
%TO.N,Vin*%
X159477219Y-89881055D03*
D46*
%TO.P,U4,2,SW*%
%TO.N,unconnected-(U4-SW-Pad2)*%
X159639718Y-91868554D03*
%TO.P,U4,3,VOUT*%
%TO.N,+3V3*%
X161939718Y-91868554D03*
D47*
%TO.P,U4,4,PGND*%
%TO.N,GND*%
X162071123Y-89917776D03*
D48*
%TO.P,U4,5,PG*%
%TO.N,unconnected-(U4-PG-Pad5)*%
X161289717Y-89293555D03*
%TO.P,U4,6,EN*%
%TO.N,EN*%
X160789718Y-89293555D03*
%TO.P,U4,7,FB*%
%TO.N,+3V3*%
X160289719Y-89293555D03*
D49*
%TO.P,U4,8*%
%TO.N,N/C*%
X159139719Y-91358555D03*
%TO.P,U4,9*%
X159139719Y-91858554D03*
%TO.P,U4,10*%
X159139719Y-92358553D03*
%TO.P,U4,11*%
X162439717Y-91358555D03*
%TO.P,U4,12*%
X162439717Y-91858554D03*
%TO.P,U4,13*%
X162439717Y-92358553D03*
%TO.P,U4,14*%
X160139717Y-91358555D03*
%TO.P,U4,15*%
X160139717Y-91858554D03*
%TO.P,U4,16*%
X160139717Y-92358553D03*
%TO.P,U4,17*%
X161439719Y-91358555D03*
%TO.P,U4,18*%
X161439719Y-91858554D03*
%TO.P,U4,19*%
X161439719Y-92358553D03*
%TD*%
D11*
%TO.P,J5,1,Pin_1*%
%TO.N,BAT*%
X141481123Y-91597776D03*
D12*
%TO.P,J5,2,Pin_2*%
%TO.N,GND*%
X138941123Y-91597776D03*
%TD*%
D38*
%TO.P,C6,1*%
%TO.N,/STM32G071/~{RST}*%
X158631123Y-117057776D03*
%TO.P,C6,2*%
%TO.N,GND*%
X158631123Y-114982776D03*
%TD*%
D50*
%TO.P,D1,1,K*%
%TO.N,GND*%
X170131123Y-87367776D03*
%TO.P,D1,2,A*%
%TO.N,Net-(D1-A)*%
X167331123Y-87367776D03*
%TD*%
D31*
%TO.P,C16,1*%
%TO.N,/STM32G071/USER_BTN*%
X135401123Y-114880276D03*
%TO.P,C16,2*%
%TO.N,GND*%
X135401123Y-116955276D03*
%TD*%
D11*
%TO.P,J1,1,Pin_1*%
%TO.N,/Motor Driver/AOUT1*%
X180707500Y-105660000D03*
D12*
%TO.P,J1,2,Pin_2*%
X180707500Y-103120000D03*
%TO.P,J1,3,Pin_3*%
%TO.N,/Motor Driver/AOUT2*%
X180707500Y-100580000D03*
%TO.P,J1,4,Pin_4*%
X180707500Y-98040000D03*
%TD*%
D51*
%TO.N,GND*%
X162141123Y-110987776D03*
X154021123Y-107837776D03*
X150931123Y-111827776D03*
X147881123Y-108957776D03*
X139551123Y-107937776D03*
X147641123Y-112947776D03*
X166381123Y-110997776D03*
D52*
%TO.N,BAT*%
X141481123Y-103207776D03*
X147241123Y-108237719D03*
X141481123Y-108637776D03*
D51*
%TO.N,A0*%
X144441123Y-112177776D03*
%TO.N,A2*%
X144421123Y-113517776D03*
%TO.N,A1*%
X144431123Y-112827776D03*
%TO.N,A3*%
X144443001Y-114199522D03*
%TO.N,A4*%
X144481123Y-114787776D03*
%TO.N,/STM32G071/~{RST}*%
X148141179Y-118160244D03*
%TO.N,/STM32G071/USER_BTN*%
X145071123Y-115427776D03*
X139311123Y-115437776D03*
%TO.N,/STM32G071/TX*%
X163981123Y-110127776D03*
%TO.N,Net-(U1-VINT)*%
X148536123Y-108027776D03*
X151821123Y-108017776D03*
%TO.N,Net-(U1-VCP)*%
X146591123Y-108037776D03*
X143621123Y-108037776D03*
%TO.N,+3V3*%
X147141123Y-116537776D03*
X156361123Y-113707776D03*
X154731123Y-115047776D03*
X163621123Y-92697776D03*
X160301123Y-88477776D03*
%TD*%
D53*
%TO.N,GND*%
X147641123Y-112947776D02*
X147641123Y-114957776D01*
X147886123Y-108032776D02*
X147886123Y-106680276D01*
X147881123Y-108957776D02*
X147881123Y-108037776D01*
X147886123Y-104142776D02*
X147561123Y-103817776D01*
X147881123Y-108037776D02*
X147886123Y-108032776D01*
X147886123Y-106680276D02*
X147886123Y-104142776D01*
D54*
%TO.N,BAT*%
X141481123Y-104777776D02*
X143618623Y-104777776D01*
X147241123Y-108237719D02*
X147241123Y-106685276D01*
X147241123Y-106685276D02*
X147236123Y-106680276D01*
X141481123Y-108637776D02*
X141481123Y-104817776D01*
X141481123Y-104817776D02*
X141481123Y-103207776D01*
D53*
X143618623Y-104777776D02*
X143621123Y-104780276D01*
%TO.N,nSleep*%
X150611123Y-110547776D02*
X150611123Y-101730276D01*
X149638623Y-111520276D02*
X150611123Y-110547776D01*
X150611123Y-101730276D02*
X149836123Y-100955276D01*
%TO.N,Net-(D3-A)*%
X171601123Y-107977776D02*
X172281120Y-107977776D01*
X172281120Y-107977776D02*
G75*
G02*
X177621124Y-113317779I-20J-5340024D01*
G01*
D55*
%TO.N,/Motor Driver/BOUT1*%
X112997500Y-103120000D02*
X112997500Y-105660000D01*
X145936123Y-100142776D02*
X145531123Y-99737776D01*
X145531123Y-99737776D02*
X117236123Y-99737776D01*
X145936123Y-100955276D02*
X145936123Y-100142776D01*
X112997500Y-103120000D02*
X113853899Y-103120000D01*
X117236123Y-99737776D02*
X116851123Y-100122776D01*
X113853899Y-103120000D02*
G75*
G03*
X116851100Y-100122776I1J2997200D01*
G01*
%TO.N,/Motor Driver/BOUT2*%
X116843347Y-98040000D02*
X116851123Y-98047776D01*
X116851123Y-98047776D02*
X145481123Y-98047776D01*
X147236123Y-99802776D02*
X147236123Y-100955276D01*
X112997500Y-100580000D02*
X112997500Y-98040000D01*
X145481123Y-98047776D02*
X147236123Y-99802776D01*
X112997500Y-98040000D02*
X116843347Y-98040000D01*
D53*
%TO.N,Net-(D4-A)*%
X171591123Y-110127776D02*
X171721121Y-110127776D01*
X171721121Y-110127776D02*
G75*
G02*
X174921124Y-113327778I-21J-3200024D01*
G01*
D55*
%TO.N,/Motor Driver/AOUT1*%
X149186123Y-100955276D02*
X149186123Y-100167777D01*
X149186123Y-100167777D02*
X149606124Y-99747776D01*
X149606124Y-99747776D02*
X176436123Y-99747776D01*
X180707500Y-105660000D02*
X180707500Y-103120000D01*
X179808347Y-103120000D02*
X180707500Y-103120000D01*
X176436123Y-99747776D02*
X176811123Y-100122776D01*
X176811123Y-100122776D02*
G75*
G03*
X179808347Y-103119977I2997177J-24D01*
G01*
%TO.N,/Motor Driver/AOUT2*%
X180707500Y-98040000D02*
X176818899Y-98040000D01*
X180707500Y-100580000D02*
X180707500Y-98040000D01*
X147886123Y-100955276D02*
X147886123Y-99772776D01*
X149611123Y-98047776D02*
X176811123Y-98047776D01*
X147886123Y-99772776D02*
X149611123Y-98047776D01*
X176818899Y-98040000D02*
X176811123Y-98047776D01*
D53*
%TO.N,A0*%
X144783623Y-112520276D02*
X144441123Y-112177776D01*
X145703623Y-112520276D02*
X144783623Y-112520276D01*
%TO.N,A2*%
X144421123Y-113517776D02*
X144891123Y-113517776D01*
X144893623Y-113520276D02*
X145703623Y-113520276D01*
X144891123Y-113517776D02*
X144893623Y-113520276D01*
%TO.N,A1*%
X144623623Y-113020276D02*
X144431123Y-112827776D01*
X145703623Y-113020276D02*
X144623623Y-113020276D01*
%TO.N,A3*%
X144443001Y-114199522D02*
X144443001Y-114195898D01*
X144618623Y-114020276D02*
X145703623Y-114020276D01*
X144443001Y-114195898D02*
X144618623Y-114020276D01*
%TO.N,A4*%
X144481123Y-114787776D02*
X144491123Y-114787776D01*
X144758623Y-114520276D02*
X145643623Y-114520276D01*
X144491123Y-114787776D02*
X144758623Y-114520276D01*
%TO.N,/STM32G071/~{RST}*%
X148141123Y-118160188D02*
X148141123Y-117057776D01*
X158631123Y-117057776D02*
X156401123Y-117057776D01*
X161001123Y-117057776D02*
X161011123Y-117067776D01*
X148141179Y-118160244D02*
X148141123Y-118160188D01*
X148141123Y-114957776D02*
X148141123Y-117057776D01*
X158631123Y-117057776D02*
X161001123Y-117057776D01*
X148141123Y-117057776D02*
X156401123Y-117057776D01*
%TO.N,/STM32G071/USER_BTN*%
X145731123Y-115427776D02*
X146141123Y-115017776D01*
D55*
X135401123Y-114880276D02*
X137553623Y-114880276D01*
D53*
X145071123Y-115427776D02*
X145731123Y-115427776D01*
D55*
X137553623Y-114880276D02*
X137631123Y-114957776D01*
D53*
X138111123Y-115437776D02*
X137631123Y-114957776D01*
X139311123Y-115437776D02*
X138111123Y-115437776D01*
D55*
X133873623Y-114880276D02*
X132951123Y-113957776D01*
X135401123Y-114880276D02*
X133873623Y-114880276D01*
D53*
%TO.N,/STM32G071/SW_IO*%
X115651123Y-112717776D02*
X118851123Y-109517776D01*
X146641123Y-110645277D02*
X146641123Y-111082776D01*
X118851123Y-109517776D02*
X145513622Y-109517776D01*
X145513622Y-109517776D02*
X146641123Y-110645277D01*
X115651123Y-115377776D02*
X115651123Y-112717776D01*
%TO.N,/STM32G071/SW_CLK*%
X145366123Y-110247776D02*
X122981123Y-110247776D01*
X146141123Y-111022776D02*
X145366123Y-110247776D01*
X122981123Y-110247776D02*
X120691123Y-112537776D01*
X120691123Y-112537776D02*
X120691123Y-114517776D01*
X120691123Y-117417776D02*
X120691123Y-114517776D01*
D56*
%TO.N,/STM32G071/RX*%
X156191123Y-107977776D02*
X150148623Y-114020276D01*
X161441123Y-107977776D02*
X156191123Y-107977776D01*
X150148623Y-114020276D02*
X149578623Y-114020276D01*
D53*
X161441124Y-106587776D02*
X161441123Y-107977776D01*
D56*
X169601123Y-107977776D02*
X161441123Y-107977776D01*
%TO.N,/STM32G071/TX*%
X150968623Y-114520276D02*
X149638623Y-114520276D01*
X155361123Y-110127776D02*
X150968623Y-114520276D01*
X163981123Y-110127776D02*
X155361123Y-110127776D01*
X163981123Y-110127776D02*
X169591123Y-110127776D01*
D53*
%TO.N,Net-(U1-VINT)*%
X148536123Y-108027776D02*
X148536123Y-106680276D01*
X151821123Y-108017776D02*
X151821123Y-106845276D01*
%TO.N,Net-(U1-VCP)*%
X146591123Y-108037776D02*
X146586123Y-108032776D01*
X146586123Y-108032776D02*
X146586123Y-106680276D01*
X143621123Y-108037776D02*
X143621123Y-106855276D01*
%TO.N,AIN1*%
X149836123Y-109942776D02*
X149836123Y-106680276D01*
X149141123Y-110637776D02*
X149836123Y-109942776D01*
X149141123Y-111022776D02*
X149141123Y-110637776D01*
%TO.N,BIN2*%
X145936123Y-108222776D02*
X148141123Y-110427776D01*
X145936123Y-106680276D02*
X145936123Y-108222776D01*
X148141123Y-110427776D02*
X148141123Y-111082776D01*
%TO.N,BIN1*%
X147641123Y-110627776D02*
X147641123Y-111082776D01*
X145286123Y-106680276D02*
X145286123Y-108272776D01*
X145286123Y-108272776D02*
X147641123Y-110627776D01*
%TO.N,AIN2*%
X148641123Y-110367776D02*
X148641123Y-111082776D01*
X149186123Y-106680276D02*
X149186123Y-109822776D01*
X149186123Y-109822776D02*
X148641123Y-110367776D01*
%TO.N,Net-(D1-A)*%
X167341123Y-87377776D02*
X167331123Y-87367776D01*
X167341123Y-90687776D02*
X167341123Y-87377776D01*
%TO.N,Net-(SW4-B)*%
X151641123Y-95977776D02*
X151641123Y-95617148D01*
D57*
X151151123Y-90197776D02*
X151151123Y-95308554D01*
X144921123Y-90197776D02*
X151151123Y-90197776D01*
X143481123Y-87267776D02*
X143481123Y-88757776D01*
X143481123Y-88757776D02*
X144921123Y-90197776D01*
D53*
X151641123Y-95617148D02*
X151949717Y-95308554D01*
D57*
X151151123Y-86127776D02*
X151151123Y-90197776D01*
X151151123Y-95308554D02*
X151949717Y-95308554D01*
D53*
%TO.N,+3V3*%
X160289719Y-88489180D02*
X160301123Y-88477776D01*
X167341123Y-92687776D02*
X165141123Y-92687776D01*
X160289719Y-89293555D02*
X160289719Y-88489180D01*
X154731123Y-115047776D02*
X156361123Y-115047776D01*
X142941123Y-116537776D02*
X147141123Y-116537776D01*
X138351123Y-117677776D02*
X137631123Y-116957776D01*
X156361123Y-113707776D02*
X156361123Y-115047776D01*
X147141123Y-116537776D02*
X147141123Y-114957776D01*
X141801123Y-117677776D02*
X138351123Y-117677776D01*
X165141123Y-92687776D02*
X165131123Y-92697776D01*
X142941123Y-116537776D02*
X141801123Y-117677776D01*
X163621123Y-92697776D02*
X165131123Y-92697776D01*
%TO.N,EN*%
X162651123Y-87717776D02*
X162651123Y-85667776D01*
X162651123Y-85667776D02*
X162641123Y-85657776D01*
X160789718Y-89293555D02*
X160791123Y-89292150D01*
X160791123Y-85657776D02*
X162641123Y-85657776D01*
X160791123Y-89292150D02*
X160791123Y-85657776D01*
%TD*%
%TA.AperFunction,Conductor*%
%TO.N,+3V3*%
G36*
X175527968Y-89471155D02*
G01*
X175531363Y-89479072D01*
X175620871Y-93675993D01*
X175617677Y-93684194D01*
X175609619Y-93687735D01*
X175609337Y-93687738D01*
X169361138Y-93667776D01*
X169361132Y-93667776D01*
X169361123Y-93667776D01*
X167992297Y-93675846D01*
X160892578Y-93717708D01*
X160884426Y-93714388D01*
X160881011Y-93706321D01*
X160857706Y-91305828D01*
X161039220Y-91305828D01*
X161039220Y-91411281D01*
X161066511Y-91513136D01*
X161066515Y-91513146D01*
X161118279Y-91602804D01*
X161119428Y-91611530D01*
X161118279Y-91614304D01*
X161066515Y-91703962D01*
X161066511Y-91703972D01*
X161039220Y-91805827D01*
X161039220Y-91911280D01*
X161066511Y-92013135D01*
X161066515Y-92013145D01*
X161118279Y-92102803D01*
X161119428Y-92111529D01*
X161118279Y-92114303D01*
X161066515Y-92203961D01*
X161066511Y-92203971D01*
X161039220Y-92305826D01*
X161039220Y-92411280D01*
X161066513Y-92513140D01*
X161119240Y-92604465D01*
X161193807Y-92679032D01*
X161285132Y-92731759D01*
X161386992Y-92759052D01*
X161492446Y-92759052D01*
X161594306Y-92731759D01*
X161685631Y-92679032D01*
X161760198Y-92604465D01*
X161812925Y-92513140D01*
X161840218Y-92411280D01*
X161840218Y-92305826D01*
X161812925Y-92203966D01*
X161761156Y-92114301D01*
X161760008Y-92105577D01*
X161761154Y-92102810D01*
X161812925Y-92013141D01*
X161840218Y-91911281D01*
X161840218Y-91805827D01*
X161812925Y-91703967D01*
X161761156Y-91614302D01*
X161760008Y-91605578D01*
X161761154Y-91602811D01*
X161812925Y-91513142D01*
X161840218Y-91411282D01*
X161840218Y-91305828D01*
X162039218Y-91305828D01*
X162039218Y-91411281D01*
X162066509Y-91513136D01*
X162066513Y-91513146D01*
X162118277Y-91602804D01*
X162119426Y-91611530D01*
X162118277Y-91614304D01*
X162066513Y-91703962D01*
X162066509Y-91703972D01*
X162039218Y-91805827D01*
X162039218Y-91911280D01*
X162066509Y-92013135D01*
X162066513Y-92013145D01*
X162118277Y-92102803D01*
X162119426Y-92111529D01*
X162118277Y-92114303D01*
X162066513Y-92203961D01*
X162066509Y-92203971D01*
X162039218Y-92305826D01*
X162039218Y-92411280D01*
X162066511Y-92513140D01*
X162119238Y-92604465D01*
X162193805Y-92679032D01*
X162285130Y-92731759D01*
X162386990Y-92759052D01*
X162492444Y-92759052D01*
X162594304Y-92731759D01*
X162685629Y-92679032D01*
X162760196Y-92604465D01*
X162812923Y-92513140D01*
X162840216Y-92411280D01*
X162840216Y-92305826D01*
X162812923Y-92203966D01*
X162761154Y-92114301D01*
X162760006Y-92105577D01*
X162761152Y-92102810D01*
X162812923Y-92013141D01*
X162840216Y-91911281D01*
X162840216Y-91805827D01*
X162812923Y-91703967D01*
X162761154Y-91614302D01*
X162760006Y-91605578D01*
X162761152Y-91602811D01*
X162812923Y-91513142D01*
X162840216Y-91411282D01*
X162840216Y-91305828D01*
X162812923Y-91203968D01*
X162760196Y-91112643D01*
X162685629Y-91038076D01*
X162685628Y-91038075D01*
X162594308Y-90985351D01*
X162594306Y-90985350D01*
X162594304Y-90985349D01*
X162594300Y-90985348D01*
X162594298Y-90985347D01*
X162492444Y-90958056D01*
X162386990Y-90958056D01*
X162285135Y-90985347D01*
X162285125Y-90985351D01*
X162193805Y-91038075D01*
X162119237Y-91112643D01*
X162066513Y-91203963D01*
X162066509Y-91203973D01*
X162039218Y-91305828D01*
X161840218Y-91305828D01*
X161812925Y-91203968D01*
X161760198Y-91112643D01*
X161685631Y-91038076D01*
X161685630Y-91038075D01*
X161594310Y-90985351D01*
X161594308Y-90985350D01*
X161594306Y-90985349D01*
X161594302Y-90985348D01*
X161594300Y-90985347D01*
X161492446Y-90958056D01*
X161386992Y-90958056D01*
X161285137Y-90985347D01*
X161285127Y-90985351D01*
X161193807Y-91038075D01*
X161119239Y-91112643D01*
X161066515Y-91203963D01*
X161066511Y-91203973D01*
X161039220Y-91305828D01*
X160857706Y-91305828D01*
X160855830Y-91112643D01*
X160851235Y-90639328D01*
X160854524Y-90631164D01*
X160862622Y-90627717D01*
X160862663Y-90627716D01*
X162776177Y-90617801D01*
X162784325Y-90621127D01*
X162784543Y-90621348D01*
X163681123Y-91557776D01*
X169161123Y-91517776D01*
X170078076Y-89494499D01*
X170084499Y-89488485D01*
X170088501Y-89487748D01*
X175519825Y-89467817D01*
X175527968Y-89471155D01*
G37*
%TD.AperFunction*%
%TD*%
%TA.AperFunction,Conductor*%
%TO.N,+3V3*%
G36*
X138329900Y-116702646D02*
G01*
X138335644Y-116708396D01*
X138726355Y-117560004D01*
X138733443Y-117575452D01*
X138734509Y-117580331D01*
X138734509Y-117763898D01*
X138731082Y-117772171D01*
X138722809Y-117775598D01*
X138720831Y-117775430D01*
X137464805Y-117560004D01*
X137457230Y-117555228D01*
X137455251Y-117546494D01*
X137455566Y-117545146D01*
X137628456Y-116963384D01*
X137634096Y-116956432D01*
X137635598Y-116955751D01*
X138320955Y-116702301D01*
X138329900Y-116702646D01*
G37*
%TD.AperFunction*%
%TD*%
%TA.AperFunction,Conductor*%
%TO.N,BAT*%
G36*
X142209697Y-85385151D02*
G01*
X142253555Y-85394371D01*
X142297668Y-85402235D01*
X142300952Y-85404336D01*
X142304771Y-85405139D01*
X142341771Y-85430447D01*
X142379510Y-85454589D01*
X142381740Y-85457787D01*
X142384961Y-85459990D01*
X142409459Y-85497531D01*
X142435087Y-85534278D01*
X142435923Y-85538086D01*
X142438056Y-85541354D01*
X142455938Y-85629169D01*
X142462467Y-85956415D01*
X142445418Y-86052062D01*
X142414966Y-86107736D01*
X142411601Y-86112367D01*
X142322238Y-86287752D01*
X142322236Y-86287758D01*
X142261413Y-86474953D01*
X142230624Y-86669347D01*
X142230623Y-86669363D01*
X142230623Y-88856188D01*
X142230624Y-88856204D01*
X142261413Y-89050599D01*
X142261414Y-89050602D01*
X142322239Y-89237802D01*
X142396288Y-89383131D01*
X142411598Y-89413179D01*
X142488868Y-89519532D01*
X142529542Y-89607763D01*
X142536372Y-89660923D01*
X142605965Y-93149271D01*
X142588916Y-93244919D01*
X142536561Y-93326761D01*
X142456873Y-93382338D01*
X142361982Y-93403188D01*
X142352609Y-93403199D01*
X140603794Y-93372247D01*
X140508856Y-93351610D01*
X140429042Y-93296212D01*
X140376504Y-93214488D01*
X140359239Y-93118880D01*
X140359328Y-93115302D01*
X140487551Y-89169970D01*
X140509590Y-89075356D01*
X140560348Y-89001999D01*
X140601916Y-88960432D01*
X140749993Y-88756621D01*
X140864364Y-88532155D01*
X140942213Y-88292561D01*
X140981623Y-88043738D01*
X140981623Y-86491814D01*
X140981622Y-86491811D01*
X140981622Y-86491804D01*
X140949303Y-86287758D01*
X140942213Y-86242991D01*
X140864364Y-86003397D01*
X140749993Y-85778931D01*
X140741144Y-85766751D01*
X140700470Y-85678520D01*
X140696656Y-85581440D01*
X140730283Y-85490290D01*
X140796232Y-85418947D01*
X140884463Y-85378273D01*
X140945293Y-85371408D01*
X142209697Y-85385151D01*
G37*
%TD.AperFunction*%
%TD*%
%TA.AperFunction,Conductor*%
%TO.N,/STM32G071/USER_BTN*%
G36*
X138331818Y-114588989D02*
G01*
X138886841Y-115334667D01*
X138889155Y-115341653D01*
X138889155Y-115526362D01*
X138885728Y-115534635D01*
X138877744Y-115538058D01*
X138087145Y-115557626D01*
X138078790Y-115554405D01*
X138077503Y-115552960D01*
X138057510Y-115526362D01*
X137638277Y-114968624D01*
X137636047Y-114959954D01*
X137640601Y-114952243D01*
X137642047Y-114951315D01*
X138316860Y-114585688D01*
X138325766Y-114584761D01*
X138331818Y-114588989D01*
G37*
%TD.AperFunction*%
%TD*%
%TA.AperFunction,Conductor*%
%TO.N,Vin*%
G36*
X159556410Y-84649037D02*
G01*
X159637964Y-84701839D01*
X159693104Y-84781831D01*
X159713315Y-84871915D01*
X159716330Y-84959945D01*
X159703839Y-85046785D01*
X159701125Y-85054975D01*
X159701124Y-85054978D01*
X159690623Y-85157764D01*
X159690623Y-86157773D01*
X159690624Y-86157790D01*
X159701124Y-86260576D01*
X159756483Y-86427634D01*
X159768976Y-86497436D01*
X159815697Y-87861928D01*
X159800015Y-87957809D01*
X159763629Y-88020945D01*
X159763805Y-88021063D01*
X159762035Y-88023710D01*
X159759334Y-88028399D01*
X159757014Y-88031225D01*
X159680348Y-88145963D01*
X159680347Y-88145967D01*
X159627542Y-88273448D01*
X159627541Y-88273451D01*
X159600623Y-88408778D01*
X159600623Y-88546773D01*
X159627541Y-88682100D01*
X159627542Y-88682103D01*
X159666748Y-88776755D01*
X159685701Y-88872043D01*
X159684275Y-88898656D01*
X159679219Y-88945686D01*
X159679219Y-89641420D01*
X159679220Y-89641424D01*
X159685627Y-89701035D01*
X159685628Y-89701039D01*
X159735924Y-89835889D01*
X159743479Y-89849725D01*
X159772509Y-89942441D01*
X159763848Y-90039209D01*
X159718814Y-90125297D01*
X159644264Y-90187598D01*
X159551548Y-90216628D01*
X159524935Y-90218054D01*
X158841852Y-90218054D01*
X158841848Y-90218054D01*
X158841846Y-90218055D01*
X158829032Y-90219432D01*
X158782237Y-90224462D01*
X158782233Y-90224463D01*
X158647388Y-90274757D01*
X158532173Y-90361007D01*
X158532171Y-90361009D01*
X158445922Y-90476223D01*
X158395626Y-90611072D01*
X158391223Y-90652031D01*
X158377637Y-90695416D01*
X158365156Y-90739150D01*
X158363153Y-90741674D01*
X158362191Y-90744747D01*
X158333037Y-90779631D01*
X158304770Y-90815259D01*
X158301954Y-90816823D01*
X158299889Y-90819296D01*
X158219854Y-90862466D01*
X158178733Y-90875685D01*
X158101612Y-90887630D01*
X152960488Y-90868694D01*
X152865270Y-90849389D01*
X152784688Y-90795116D01*
X152731010Y-90714136D01*
X152712407Y-90618779D01*
X152712408Y-90618412D01*
X152714180Y-90274757D01*
X152720662Y-89017165D01*
X152740107Y-88921978D01*
X152778335Y-88859089D01*
X156187863Y-84765729D01*
X156263410Y-84704646D01*
X156356584Y-84677121D01*
X156375571Y-84676119D01*
X159460857Y-84631464D01*
X159556410Y-84649037D01*
G37*
%TD.AperFunction*%
%TD*%
%TA.AperFunction,Conductor*%
%TO.N,/STM32G071/USER_BTN*%
G36*
X137086994Y-114379880D02*
G01*
X137090927Y-114382625D01*
X137624346Y-114949511D01*
X137627520Y-114957885D01*
X137624099Y-114965801D01*
X137071448Y-115518562D01*
X137063175Y-115521990D01*
X137057110Y-115520296D01*
X137054249Y-115518562D01*
X136901316Y-115425869D01*
X136336759Y-115083691D01*
X136331460Y-115076472D01*
X136331123Y-115073685D01*
X136331123Y-114688180D01*
X136334550Y-114679907D01*
X136338452Y-114677327D01*
X137078039Y-114379788D01*
X137086994Y-114379880D01*
G37*
%TD.AperFunction*%
%TD*%
%TA.AperFunction,Conductor*%
%TO.N,GND*%
G36*
X121755536Y-110137230D02*
G01*
X121836318Y-110191206D01*
X121890294Y-110271988D01*
X121909248Y-110367276D01*
X121890294Y-110462564D01*
X121836318Y-110543345D01*
X121074933Y-111304730D01*
X120322409Y-112057254D01*
X120322407Y-112057256D01*
X120322406Y-112057255D01*
X120210606Y-112169056D01*
X120210604Y-112169059D01*
X120210603Y-112169060D01*
X120165738Y-112246769D01*
X120159275Y-112257963D01*
X120131545Y-112305992D01*
X120090622Y-112458719D01*
X120090622Y-112636898D01*
X120090623Y-112636911D01*
X120090623Y-112918276D01*
X120071669Y-113013564D01*
X120017693Y-113094346D01*
X119936911Y-113148322D01*
X119841628Y-113167276D01*
X119793259Y-113167276D01*
X119793253Y-113167276D01*
X119793251Y-113167277D01*
X119780437Y-113168654D01*
X119733642Y-113173684D01*
X119733638Y-113173685D01*
X119598793Y-113223979D01*
X119483578Y-113310229D01*
X119483576Y-113310231D01*
X119476306Y-113319943D01*
X119397329Y-113425443D01*
X119397325Y-113425448D01*
X119397324Y-113425448D01*
X119395296Y-113430887D01*
X119395291Y-113430902D01*
X119347032Y-113560293D01*
X119340623Y-113619903D01*
X119340623Y-113620201D01*
X119334544Y-113641251D01*
X119323666Y-113662273D01*
X119313540Y-113694631D01*
X119292105Y-113723268D01*
X119289896Y-113727539D01*
X119287220Y-113729795D01*
X119271050Y-113751400D01*
X118634085Y-114388365D01*
X118617048Y-114324783D01*
X118551222Y-114210769D01*
X118458130Y-114117677D01*
X118344116Y-114051851D01*
X118280530Y-114034812D01*
X118873893Y-113441450D01*
X118889944Y-113385871D01*
X118858674Y-113363151D01*
X118858668Y-113363147D01*
X118669348Y-113266684D01*
X118669338Y-113266680D01*
X118467246Y-113201017D01*
X118257379Y-113167776D01*
X118044866Y-113167776D01*
X117834999Y-113201017D01*
X117632907Y-113266680D01*
X117632897Y-113266684D01*
X117443577Y-113363148D01*
X117443564Y-113363156D01*
X117389404Y-113402504D01*
X118021714Y-114034813D01*
X117958130Y-114051851D01*
X117844116Y-114117677D01*
X117751024Y-114210769D01*
X117685198Y-114324783D01*
X117668160Y-114388366D01*
X117035851Y-113756057D01*
X117009156Y-113758158D01*
X116920380Y-113790909D01*
X116823299Y-113787093D01*
X116735069Y-113746417D01*
X116679987Y-113691333D01*
X116641227Y-113637984D01*
X116490915Y-113487672D01*
X116437382Y-113448778D01*
X116354264Y-113388389D01*
X116340911Y-113373943D01*
X116324553Y-113363014D01*
X116308242Y-113338603D01*
X116288315Y-113317046D01*
X116281505Y-113298588D01*
X116270577Y-113282232D01*
X116264849Y-113253438D01*
X116254689Y-113225896D01*
X116251623Y-113186944D01*
X116251623Y-113069651D01*
X116270577Y-112974363D01*
X116324553Y-112893581D01*
X119026928Y-110191206D01*
X119107710Y-110137230D01*
X119202998Y-110118276D01*
X121660248Y-110118276D01*
X121755536Y-110137230D01*
G37*
%TD.AperFunction*%
%TA.AperFunction,Conductor*%
G36*
X148423634Y-112005228D02*
G01*
X148431646Y-112006283D01*
X148431651Y-112006285D01*
X148439699Y-112007344D01*
X148531693Y-112038576D01*
X148604736Y-112102637D01*
X148647704Y-112189774D01*
X148654057Y-112221720D01*
X148656171Y-112237782D01*
X148656170Y-112302773D01*
X148640623Y-112420872D01*
X148640623Y-112619677D01*
X148640624Y-112619678D01*
X148656170Y-112737777D01*
X148656170Y-112802773D01*
X148640623Y-112920872D01*
X148640623Y-113119677D01*
X148640624Y-113119681D01*
X148656170Y-113237777D01*
X148656170Y-113302773D01*
X148640623Y-113420872D01*
X148640623Y-113619677D01*
X148640624Y-113619681D01*
X148656170Y-113737777D01*
X148656170Y-113802775D01*
X148654055Y-113818840D01*
X148622825Y-113910839D01*
X148558767Y-113983884D01*
X148471631Y-114026855D01*
X148439679Y-114033210D01*
X148423618Y-114035324D01*
X148358625Y-114035323D01*
X148240526Y-114019776D01*
X148041721Y-114019776D01*
X148041717Y-114019777D01*
X147921706Y-114035575D01*
X147889209Y-114037705D01*
X147393038Y-114037705D01*
X147382330Y-114035575D01*
X147360539Y-114035575D01*
X147240526Y-114019776D01*
X147041721Y-114019776D01*
X147041717Y-114019777D01*
X146923621Y-114035323D01*
X146858623Y-114035323D01*
X146842558Y-114033208D01*
X146750559Y-114001978D01*
X146677514Y-113937920D01*
X146634543Y-113850784D01*
X146628191Y-113818849D01*
X146627132Y-113810804D01*
X146627130Y-113810801D01*
X146626074Y-113802774D01*
X146626075Y-113737769D01*
X146627130Y-113729751D01*
X146627132Y-113729748D01*
X146641623Y-113619677D01*
X146641622Y-113420876D01*
X146627132Y-113310804D01*
X146627130Y-113310801D01*
X146626074Y-113302773D01*
X146626075Y-113237769D01*
X146627130Y-113229751D01*
X146627132Y-113229748D01*
X146641623Y-113119677D01*
X146641622Y-112920876D01*
X146627132Y-112810804D01*
X146627130Y-112810801D01*
X146626074Y-112802773D01*
X146626075Y-112737769D01*
X146627130Y-112729751D01*
X146627132Y-112729748D01*
X146641623Y-112619677D01*
X146641622Y-112420876D01*
X146627132Y-112310804D01*
X146627130Y-112310801D01*
X146626074Y-112302773D01*
X146626075Y-112237764D01*
X146627129Y-112229752D01*
X146627132Y-112229748D01*
X146628191Y-112221697D01*
X146659423Y-112129705D01*
X146723484Y-112056662D01*
X146810621Y-112013694D01*
X146842549Y-112007344D01*
X146850595Y-112006285D01*
X146850597Y-112006283D01*
X146858626Y-112005227D01*
X146923629Y-112005228D01*
X146931647Y-112006283D01*
X146931651Y-112006285D01*
X147041722Y-112020776D01*
X147240523Y-112020775D01*
X147350595Y-112006285D01*
X147350598Y-112006283D01*
X147358625Y-112005227D01*
X147423629Y-112005228D01*
X147431647Y-112006283D01*
X147431651Y-112006285D01*
X147541722Y-112020776D01*
X147740523Y-112020775D01*
X147850595Y-112006285D01*
X147850598Y-112006283D01*
X147858625Y-112005227D01*
X147923629Y-112005228D01*
X147931647Y-112006283D01*
X147931651Y-112006285D01*
X148041722Y-112020776D01*
X148240523Y-112020775D01*
X148350595Y-112006285D01*
X148350598Y-112006283D01*
X148358625Y-112005227D01*
X148423634Y-112005228D01*
G37*
%TD.AperFunction*%
%TA.AperFunction,Conductor*%
G36*
X148101101Y-108622030D02*
G01*
X148131947Y-108622030D01*
X148153200Y-108629634D01*
X148166714Y-108631607D01*
X148192842Y-108640887D01*
X148204312Y-108648551D01*
X148331795Y-108701356D01*
X148402934Y-108715506D01*
X148419961Y-108721554D01*
X148503410Y-108771307D01*
X148561467Y-108849208D01*
X148585294Y-108943396D01*
X148585623Y-108956194D01*
X148585623Y-109421901D01*
X148566669Y-109517189D01*
X148512693Y-109597971D01*
X148431911Y-109651947D01*
X148336623Y-109670901D01*
X148241335Y-109651947D01*
X148160553Y-109597971D01*
X147762820Y-109200238D01*
X147708844Y-109119456D01*
X147689890Y-109024168D01*
X147708844Y-108928880D01*
X147762815Y-108848104D01*
X147862912Y-108748008D01*
X147876339Y-108727912D01*
X147889183Y-108715068D01*
X147898489Y-108699460D01*
X147923224Y-108681025D01*
X147945034Y-108659215D01*
X147961820Y-108652261D01*
X147976390Y-108641403D01*
X148006294Y-108633837D01*
X148034792Y-108622033D01*
X148052961Y-108622032D01*
X148070578Y-108617576D01*
X148101101Y-108622030D01*
G37*
%TD.AperFunction*%
%TA.AperFunction,Conductor*%
G36*
X138911169Y-84576809D02*
G01*
X139006454Y-84595781D01*
X139087225Y-84649772D01*
X139141187Y-84730563D01*
X139160123Y-84825855D01*
X139141151Y-84921140D01*
X139087160Y-85001911D01*
X139006369Y-85055873D01*
X138988068Y-85062622D01*
X138766749Y-85134532D01*
X138693678Y-85171764D01*
X138542278Y-85248906D01*
X138542276Y-85248907D01*
X138542271Y-85248910D01*
X138338470Y-85396980D01*
X138160327Y-85575123D01*
X138012257Y-85778924D01*
X138012254Y-85778929D01*
X138012253Y-85778931D01*
X137903548Y-85992276D01*
X137897880Y-86003401D01*
X137820032Y-86242993D01*
X137780623Y-86491804D01*
X137780623Y-88043747D01*
X137820032Y-88292558D01*
X137892547Y-88515738D01*
X137897882Y-88532155D01*
X138012253Y-88756621D01*
X138012256Y-88756625D01*
X138012257Y-88756627D01*
X138099811Y-88877135D01*
X138160330Y-88960432D01*
X138338467Y-89138569D01*
X138542278Y-89286646D01*
X138766744Y-89401017D01*
X139006338Y-89478866D01*
X139068465Y-89488706D01*
X139255151Y-89518275D01*
X139255158Y-89518275D01*
X139255161Y-89518276D01*
X139255164Y-89518276D01*
X139507082Y-89518276D01*
X139507085Y-89518276D01*
X139507088Y-89518275D01*
X139507094Y-89518275D01*
X139675251Y-89491641D01*
X139698918Y-89492570D01*
X139722292Y-89488706D01*
X139746993Y-89494459D01*
X139772331Y-89495455D01*
X139793843Y-89505372D01*
X139816915Y-89510746D01*
X139837530Y-89525511D01*
X139860562Y-89536129D01*
X139876643Y-89553525D01*
X139895900Y-89567318D01*
X139909295Y-89588848D01*
X139926511Y-89607472D01*
X139934710Y-89629696D01*
X139947224Y-89649810D01*
X139951361Y-89674831D01*
X139960138Y-89698622D01*
X139963073Y-89745663D01*
X139948382Y-90197684D01*
X139926342Y-90292307D01*
X139869770Y-90371292D01*
X139787278Y-90422616D01*
X139691425Y-90438465D01*
X139596802Y-90416425D01*
X139586469Y-90411456D01*
X139459347Y-90346684D01*
X139459338Y-90346680D01*
X139257246Y-90281017D01*
X139047379Y-90247776D01*
X138834866Y-90247776D01*
X138624999Y-90281017D01*
X138422907Y-90346680D01*
X138422897Y-90346684D01*
X138233577Y-90443148D01*
X138233564Y-90443156D01*
X138179404Y-90482504D01*
X138811714Y-91114813D01*
X138748130Y-91131851D01*
X138634116Y-91197677D01*
X138541024Y-91290769D01*
X138475198Y-91404783D01*
X138458160Y-91468367D01*
X137825851Y-90836057D01*
X137786503Y-90890217D01*
X137786495Y-90890230D01*
X137690031Y-91079550D01*
X137690027Y-91079560D01*
X137624364Y-91281652D01*
X137591123Y-91491519D01*
X137591123Y-91704032D01*
X137624364Y-91913899D01*
X137690027Y-92115991D01*
X137690031Y-92116001D01*
X137786494Y-92305321D01*
X137786498Y-92305327D01*
X137825852Y-92359493D01*
X138458159Y-91727183D01*
X138475198Y-91790769D01*
X138541024Y-91904783D01*
X138634116Y-91997875D01*
X138748130Y-92063701D01*
X138811713Y-92080738D01*
X138179405Y-92713046D01*
X138233571Y-92752400D01*
X138422897Y-92848867D01*
X138422907Y-92848871D01*
X138624999Y-92914534D01*
X138834866Y-92947775D01*
X138834879Y-92947776D01*
X139047367Y-92947776D01*
X139047379Y-92947775D01*
X139257246Y-92914534D01*
X139459338Y-92848871D01*
X139459346Y-92848868D01*
X139493396Y-92831519D01*
X139586903Y-92805146D01*
X139683385Y-92816564D01*
X139768153Y-92864035D01*
X139828301Y-92940332D01*
X139854674Y-93033839D01*
X139855311Y-93061461D01*
X139854095Y-93098882D01*
X139854001Y-93102134D01*
X139853981Y-93102833D01*
X139853894Y-93106302D01*
X139853895Y-93106315D01*
X139861785Y-93208713D01*
X139861786Y-93208720D01*
X139879047Y-93304309D01*
X139889326Y-93347777D01*
X139891501Y-93356976D01*
X139917287Y-93413416D01*
X139951291Y-93487845D01*
X140003833Y-93569576D01*
X140003835Y-93569577D01*
X140035485Y-93613455D01*
X140035486Y-93613456D01*
X140035487Y-93613457D01*
X140091096Y-93665215D01*
X140140806Y-93711483D01*
X140216824Y-93764247D01*
X140220621Y-93766882D01*
X140266665Y-93795314D01*
X140401481Y-93845574D01*
X140496419Y-93866211D01*
X140532570Y-93870418D01*
X140594839Y-93877667D01*
X140594842Y-93877667D01*
X140594849Y-93877668D01*
X141716531Y-93897520D01*
X141811467Y-93918157D01*
X141891281Y-93973555D01*
X141943819Y-94055279D01*
X141961123Y-94146481D01*
X141961123Y-94847775D01*
X141961124Y-94847776D01*
X144411122Y-94847776D01*
X144411123Y-94847775D01*
X144411123Y-93347777D01*
X144911123Y-93347777D01*
X144911123Y-94847775D01*
X144911124Y-94847776D01*
X147361121Y-94847776D01*
X147361122Y-94847775D01*
X147361122Y-94047808D01*
X147361121Y-94047791D01*
X147350628Y-93945076D01*
X147350627Y-93945073D01*
X147295482Y-93778656D01*
X147295481Y-93778654D01*
X147203441Y-93629434D01*
X147203438Y-93629430D01*
X147079468Y-93505460D01*
X147079464Y-93505457D01*
X146930244Y-93413417D01*
X146930243Y-93413416D01*
X146763824Y-93358271D01*
X146763817Y-93358270D01*
X146661104Y-93347776D01*
X144911124Y-93347776D01*
X144911123Y-93347777D01*
X144411123Y-93347777D01*
X144411122Y-93347776D01*
X143359607Y-93347776D01*
X143264319Y-93328822D01*
X143183537Y-93274846D01*
X143129561Y-93194064D01*
X143110657Y-93103743D01*
X143080123Y-91573224D01*
X143062984Y-90714166D01*
X143080033Y-90618519D01*
X143132387Y-90536677D01*
X143212076Y-90481100D01*
X143306967Y-90460250D01*
X143402615Y-90477299D01*
X143484457Y-90529653D01*
X143487953Y-90533080D01*
X144106478Y-91151605D01*
X144192891Y-91214388D01*
X144265718Y-91267300D01*
X144441098Y-91356660D01*
X144628297Y-91417485D01*
X144822706Y-91448276D01*
X144822707Y-91448276D01*
X145019540Y-91448276D01*
X149651623Y-91448276D01*
X149746911Y-91467230D01*
X149827693Y-91521206D01*
X149881669Y-91601988D01*
X149900623Y-91697276D01*
X149900623Y-93206860D01*
X149881669Y-93302148D01*
X149827693Y-93382930D01*
X149782342Y-93418788D01*
X149642470Y-93505061D01*
X149518409Y-93629122D01*
X149426307Y-93778444D01*
X149371125Y-93944973D01*
X149371124Y-93944980D01*
X149360623Y-94047764D01*
X149360623Y-96147782D01*
X149371124Y-96250576D01*
X149426238Y-96416896D01*
X149426309Y-96417110D01*
X149518411Y-96566432D01*
X149642467Y-96690488D01*
X149791789Y-96782590D01*
X149791792Y-96782591D01*
X149791790Y-96782591D01*
X149955433Y-96836816D01*
X149958326Y-96837775D01*
X150061114Y-96848276D01*
X154061131Y-96848275D01*
X154163920Y-96837775D01*
X154330457Y-96782590D01*
X154479779Y-96690488D01*
X154603835Y-96566432D01*
X154695937Y-96417110D01*
X154751122Y-96250573D01*
X154761623Y-96147785D01*
X154761622Y-94047768D01*
X154751122Y-93944979D01*
X154739096Y-93908688D01*
X154696007Y-93778654D01*
X154695937Y-93778442D01*
X154603835Y-93629120D01*
X154502374Y-93527659D01*
X154448401Y-93446881D01*
X154429447Y-93351593D01*
X154448401Y-93256305D01*
X154502377Y-93175523D01*
X154582319Y-93121897D01*
X155009995Y-92942915D01*
X155038855Y-92937064D01*
X155066456Y-92926791D01*
X155086024Y-92927502D01*
X155105214Y-92923613D01*
X155134115Y-92929252D01*
X155163547Y-92930323D01*
X155184871Y-92939155D01*
X155200570Y-92942219D01*
X155214400Y-92951387D01*
X155236842Y-92960683D01*
X155377002Y-93047134D01*
X155377002Y-93047135D01*
X155543421Y-93102280D01*
X155543428Y-93102281D01*
X155646146Y-93112775D01*
X155921123Y-93112775D01*
X155921123Y-92275277D01*
X156421123Y-92275277D01*
X156421123Y-93112774D01*
X156421124Y-93112775D01*
X156696091Y-93112775D01*
X156696107Y-93112774D01*
X156798822Y-93102281D01*
X156798825Y-93102280D01*
X156965242Y-93047135D01*
X156965244Y-93047134D01*
X157114464Y-92955094D01*
X157114468Y-92955091D01*
X157238438Y-92831121D01*
X157238441Y-92831117D01*
X157330481Y-92681897D01*
X157330482Y-92681896D01*
X157385627Y-92515477D01*
X157385628Y-92515470D01*
X157396122Y-92412757D01*
X157396123Y-92412747D01*
X157396123Y-92275277D01*
X157396122Y-92275276D01*
X156421124Y-92275276D01*
X156421123Y-92275277D01*
X155921123Y-92275277D01*
X155921122Y-92275276D01*
X154290123Y-92275276D01*
X154194835Y-92256322D01*
X154114053Y-92202346D01*
X154060077Y-92121564D01*
X154041123Y-92026276D01*
X154041123Y-92024276D01*
X154060077Y-91928988D01*
X154114053Y-91848206D01*
X154194835Y-91794230D01*
X154290123Y-91775276D01*
X157396121Y-91775276D01*
X157396122Y-91775275D01*
X157396122Y-91640453D01*
X157405527Y-91593166D01*
X157414948Y-91545474D01*
X157415042Y-91545331D01*
X157415076Y-91545165D01*
X157442023Y-91504834D01*
X157468816Y-91464620D01*
X157468956Y-91464525D01*
X157469052Y-91464383D01*
X157509387Y-91437432D01*
X157549525Y-91410535D01*
X157549691Y-91410502D01*
X157549834Y-91410407D01*
X157644788Y-91391453D01*
X157645133Y-91391452D01*
X158099750Y-91393127D01*
X158130718Y-91390800D01*
X158139884Y-91390788D01*
X158178717Y-91398458D01*
X158218001Y-91403249D01*
X158226085Y-91407814D01*
X158235197Y-91409614D01*
X158268139Y-91431561D01*
X158302600Y-91451021D01*
X158308322Y-91458332D01*
X158316051Y-91463482D01*
X158338084Y-91496362D01*
X158362478Y-91527531D01*
X158364966Y-91536477D01*
X158370136Y-91544191D01*
X158377909Y-91583000D01*
X158388518Y-91621131D01*
X158389202Y-91639377D01*
X158389218Y-91639454D01*
X158389207Y-91639507D01*
X158389218Y-91639788D01*
X158389218Y-93066419D01*
X158389219Y-93066423D01*
X158395626Y-93126034D01*
X158395627Y-93126038D01*
X158437378Y-93237977D01*
X158445922Y-93260885D01*
X158532172Y-93376100D01*
X158647387Y-93462350D01*
X158782235Y-93512645D01*
X158841845Y-93519054D01*
X160129594Y-93519053D01*
X160224882Y-93538007D01*
X160305663Y-93591983D01*
X160359640Y-93672765D01*
X160378111Y-93752546D01*
X160378841Y-93764247D01*
X160378841Y-93764251D01*
X160415503Y-93903383D01*
X160418919Y-93911452D01*
X160470919Y-94005150D01*
X160518150Y-94055279D01*
X160569587Y-94109871D01*
X160693761Y-94182551D01*
X160701913Y-94185871D01*
X160753024Y-94203563D01*
X160753029Y-94203563D01*
X160753030Y-94203564D01*
X160768265Y-94205662D01*
X160895559Y-94223199D01*
X167995278Y-94181337D01*
X167995277Y-94181336D01*
X168161115Y-94180359D01*
X168161118Y-94180358D01*
X169360841Y-94173285D01*
X169362825Y-94173283D01*
X175607722Y-94193235D01*
X175614714Y-94193209D01*
X175614996Y-94193206D01*
X175674366Y-94189071D01*
X175812986Y-94150522D01*
X175821044Y-94146981D01*
X175914757Y-94093185D01*
X176017949Y-93992921D01*
X176088714Y-93867646D01*
X176091908Y-93859445D01*
X176108821Y-93808035D01*
X176121021Y-93708099D01*
X176126256Y-93665218D01*
X176126256Y-93665212D01*
X176091260Y-92024276D01*
X176083657Y-91667777D01*
X177421124Y-91667777D01*
X177421124Y-92467760D01*
X177431617Y-92570475D01*
X177431618Y-92570478D01*
X177486763Y-92736895D01*
X177486764Y-92736897D01*
X177578804Y-92886117D01*
X177578807Y-92886121D01*
X177702777Y-93010091D01*
X177702781Y-93010094D01*
X177852001Y-93102134D01*
X177852002Y-93102135D01*
X178018421Y-93157280D01*
X178018428Y-93157281D01*
X178121146Y-93167775D01*
X179871121Y-93167775D01*
X179871123Y-93167774D01*
X179871123Y-91667777D01*
X180371123Y-91667777D01*
X180371123Y-93167774D01*
X180371124Y-93167775D01*
X182121091Y-93167775D01*
X182121107Y-93167774D01*
X182223822Y-93157281D01*
X182223825Y-93157280D01*
X182390242Y-93102135D01*
X182390244Y-93102134D01*
X182539464Y-93010094D01*
X182539468Y-93010091D01*
X182663438Y-92886121D01*
X182663441Y-92886117D01*
X182755481Y-92736897D01*
X182755482Y-92736896D01*
X182810627Y-92570477D01*
X182810628Y-92570470D01*
X182821122Y-92467757D01*
X182821123Y-92467747D01*
X182821123Y-91667777D01*
X182821122Y-91667776D01*
X180371124Y-91667776D01*
X180371123Y-91667777D01*
X179871123Y-91667777D01*
X179871122Y-91667776D01*
X177421125Y-91667776D01*
X177421124Y-91667777D01*
X176083657Y-91667777D01*
X176070496Y-91050697D01*
X176055932Y-90367794D01*
X177421123Y-90367794D01*
X177421123Y-91167775D01*
X177421124Y-91167776D01*
X179871122Y-91167776D01*
X179871123Y-91167775D01*
X179871123Y-89667777D01*
X180371123Y-89667777D01*
X180371123Y-91167775D01*
X180371124Y-91167776D01*
X182821121Y-91167776D01*
X182821122Y-91167775D01*
X182821122Y-90367808D01*
X182821121Y-90367791D01*
X182810628Y-90265076D01*
X182810627Y-90265073D01*
X182755482Y-90098656D01*
X182755481Y-90098654D01*
X182663441Y-89949434D01*
X182663438Y-89949430D01*
X182539468Y-89825460D01*
X182539464Y-89825457D01*
X182479891Y-89788712D01*
X186479500Y-89788712D01*
X186479500Y-90031288D01*
X186492765Y-90132046D01*
X186511162Y-90271790D01*
X186511163Y-90271795D01*
X186573940Y-90506082D01*
X186573948Y-90506105D01*
X186666770Y-90730201D01*
X186666778Y-90730217D01*
X186788058Y-90940279D01*
X186788064Y-90940289D01*
X186935729Y-91132731D01*
X186935738Y-91132741D01*
X187107258Y-91304261D01*
X187107268Y-91304270D01*
X187199744Y-91375229D01*
X187299711Y-91451936D01*
X187326201Y-91467230D01*
X187509782Y-91573221D01*
X187509798Y-91573229D01*
X187625446Y-91621131D01*
X187733900Y-91666054D01*
X187733911Y-91666057D01*
X187733917Y-91666059D01*
X187917021Y-91715121D01*
X187968211Y-91728838D01*
X188208712Y-91760500D01*
X188451288Y-91760500D01*
X188691789Y-91728838D01*
X188853275Y-91685567D01*
X188926082Y-91666059D01*
X188926084Y-91666058D01*
X188926100Y-91666054D01*
X189089383Y-91598420D01*
X189150201Y-91573229D01*
X189150206Y-91573226D01*
X189150212Y-91573224D01*
X189360289Y-91451936D01*
X189552738Y-91304265D01*
X189724265Y-91132738D01*
X189871936Y-90940289D01*
X189993224Y-90730212D01*
X190015001Y-90677639D01*
X190037725Y-90622776D01*
X190086054Y-90506100D01*
X190148838Y-90271789D01*
X190180500Y-90031288D01*
X190180500Y-89788712D01*
X197329500Y-89788712D01*
X197329500Y-90031288D01*
X197342765Y-90132046D01*
X197361162Y-90271790D01*
X197361163Y-90271795D01*
X197423940Y-90506082D01*
X197423948Y-90506105D01*
X197516770Y-90730201D01*
X197516778Y-90730217D01*
X197638058Y-90940279D01*
X197638064Y-90940289D01*
X197785729Y-91132731D01*
X197785738Y-91132741D01*
X197957258Y-91304261D01*
X197957268Y-91304270D01*
X198049744Y-91375229D01*
X198149711Y-91451936D01*
X198176201Y-91467230D01*
X198359782Y-91573221D01*
X198359798Y-91573229D01*
X198475446Y-91621131D01*
X198583900Y-91666054D01*
X198583911Y-91666057D01*
X198583917Y-91666059D01*
X198767021Y-91715121D01*
X198818211Y-91728838D01*
X199058712Y-91760500D01*
X199301288Y-91760500D01*
X199541789Y-91728838D01*
X199703275Y-91685567D01*
X199776082Y-91666059D01*
X199776084Y-91666058D01*
X199776100Y-91666054D01*
X199939383Y-91598420D01*
X200000201Y-91573229D01*
X200000206Y-91573226D01*
X200000212Y-91573224D01*
X200210289Y-91451936D01*
X200402738Y-91304265D01*
X200574265Y-91132738D01*
X200721936Y-90940289D01*
X200843224Y-90730212D01*
X200865001Y-90677639D01*
X200887725Y-90622776D01*
X200936054Y-90506100D01*
X200998838Y-90271789D01*
X201030500Y-90031288D01*
X201030500Y-89788712D01*
X200998838Y-89548211D01*
X200968582Y-89435294D01*
X200936059Y-89313917D01*
X200936057Y-89313911D01*
X200936054Y-89313900D01*
X200901242Y-89229858D01*
X200843229Y-89089798D01*
X200843221Y-89089782D01*
X200756945Y-88940348D01*
X200721936Y-88879711D01*
X200667287Y-88808491D01*
X200574270Y-88687268D01*
X200574261Y-88687258D01*
X200402741Y-88515738D01*
X200402731Y-88515729D01*
X200210289Y-88368064D01*
X200210279Y-88368058D01*
X200000217Y-88246778D01*
X200000201Y-88246770D01*
X199776105Y-88153948D01*
X199776103Y-88153947D01*
X199776100Y-88153946D01*
X199776096Y-88153945D01*
X199776082Y-88153940D01*
X199541795Y-88091163D01*
X199541790Y-88091162D01*
X199301288Y-88059500D01*
X199058712Y-88059500D01*
X198818209Y-88091162D01*
X198818204Y-88091163D01*
X198583917Y-88153940D01*
X198583894Y-88153948D01*
X198359798Y-88246770D01*
X198359782Y-88246778D01*
X198149720Y-88368058D01*
X198149710Y-88368064D01*
X197957268Y-88515729D01*
X197957258Y-88515738D01*
X197785738Y-88687258D01*
X197785729Y-88687268D01*
X197638064Y-88879710D01*
X197638058Y-88879720D01*
X197516778Y-89089782D01*
X197516770Y-89089798D01*
X197423948Y-89313894D01*
X197423940Y-89313917D01*
X197361163Y-89548204D01*
X197361162Y-89548209D01*
X197335246Y-89745064D01*
X197329500Y-89788712D01*
X190180500Y-89788712D01*
X190148838Y-89548211D01*
X190118582Y-89435294D01*
X190086059Y-89313917D01*
X190086057Y-89313911D01*
X190086054Y-89313900D01*
X190051242Y-89229858D01*
X189993229Y-89089798D01*
X189993221Y-89089782D01*
X189906945Y-88940348D01*
X189871936Y-88879711D01*
X189817287Y-88808491D01*
X189724270Y-88687268D01*
X189724261Y-88687258D01*
X189552741Y-88515738D01*
X189552731Y-88515729D01*
X189360289Y-88368064D01*
X189360279Y-88368058D01*
X189150217Y-88246778D01*
X189150201Y-88246770D01*
X188926105Y-88153948D01*
X188926103Y-88153947D01*
X188926100Y-88153946D01*
X188926096Y-88153945D01*
X188926082Y-88153940D01*
X188691795Y-88091163D01*
X188691790Y-88091162D01*
X188451288Y-88059500D01*
X188208712Y-88059500D01*
X187968209Y-88091162D01*
X187968204Y-88091163D01*
X187733917Y-88153940D01*
X187733894Y-88153948D01*
X187509798Y-88246770D01*
X187509782Y-88246778D01*
X187299720Y-88368058D01*
X187299710Y-88368064D01*
X187107268Y-88515729D01*
X187107258Y-88515738D01*
X186935738Y-88687258D01*
X186935729Y-88687268D01*
X186788064Y-88879710D01*
X186788058Y-88879720D01*
X186666778Y-89089782D01*
X186666770Y-89089798D01*
X186573948Y-89313894D01*
X186573940Y-89313917D01*
X186511163Y-89548204D01*
X186511162Y-89548209D01*
X186485246Y-89745064D01*
X186479500Y-89788712D01*
X182479891Y-89788712D01*
X182390244Y-89733417D01*
X182390243Y-89733416D01*
X182223824Y-89678271D01*
X182223817Y-89678270D01*
X182121104Y-89667776D01*
X180371124Y-89667776D01*
X180371123Y-89667777D01*
X179871123Y-89667777D01*
X179871122Y-89667776D01*
X178121146Y-89667776D01*
X178018423Y-89678270D01*
X178018420Y-89678271D01*
X177852003Y-89733416D01*
X177852001Y-89733417D01*
X177702781Y-89825457D01*
X177702777Y-89825460D01*
X177578807Y-89949430D01*
X177578804Y-89949434D01*
X177486764Y-90098654D01*
X177486763Y-90098655D01*
X177431618Y-90265074D01*
X177431617Y-90265081D01*
X177421123Y-90367794D01*
X176055932Y-90367794D01*
X176055910Y-90366767D01*
X176036748Y-89468296D01*
X176036748Y-89468294D01*
X176033258Y-89418805D01*
X175995948Y-89279847D01*
X175992553Y-89271930D01*
X175942136Y-89181336D01*
X175942135Y-89181335D01*
X175942134Y-89181333D01*
X175898392Y-89134696D01*
X175843708Y-89076391D01*
X175799205Y-89050206D01*
X175719706Y-89003430D01*
X175719693Y-89003424D01*
X175711555Y-89000088D01*
X175711548Y-89000085D01*
X175660466Y-88982276D01*
X175660464Y-88982275D01*
X175660460Y-88982274D01*
X175593901Y-88972953D01*
X175517964Y-88962319D01*
X171183386Y-88978225D01*
X171088029Y-88959621D01*
X171007050Y-88905941D01*
X170952777Y-88825359D01*
X170933474Y-88730141D01*
X170952078Y-88634784D01*
X171005758Y-88553805D01*
X171006403Y-88553157D01*
X171098435Y-88461125D01*
X171098441Y-88461117D01*
X171190481Y-88311897D01*
X171190482Y-88311896D01*
X171245627Y-88145477D01*
X171245628Y-88145470D01*
X171256122Y-88042757D01*
X171256123Y-88042747D01*
X171256123Y-87617777D01*
X171256122Y-87617776D01*
X169006125Y-87617776D01*
X169006124Y-87617777D01*
X169006124Y-88042760D01*
X169016617Y-88145475D01*
X169016618Y-88145478D01*
X169071763Y-88311895D01*
X169071764Y-88311897D01*
X169163804Y-88461117D01*
X169163807Y-88461121D01*
X169287777Y-88585091D01*
X169287781Y-88585094D01*
X169437001Y-88677134D01*
X169437005Y-88677136D01*
X169613210Y-88735524D01*
X169697700Y-88783488D01*
X169757403Y-88860134D01*
X169783231Y-88953793D01*
X169771250Y-89050206D01*
X169723286Y-89134696D01*
X169714569Y-89144268D01*
X169695095Y-89164565D01*
X169695085Y-89164578D01*
X169617655Y-89285828D01*
X169617651Y-89285835D01*
X169017418Y-90610263D01*
X168960820Y-90689230D01*
X168878311Y-90740527D01*
X168782453Y-90756345D01*
X168687838Y-90734275D01*
X168608871Y-90677677D01*
X168557574Y-90595168D01*
X168541622Y-90507479D01*
X168541622Y-90287769D01*
X168539988Y-90271776D01*
X168531122Y-90184979D01*
X168523706Y-90162600D01*
X168482203Y-90037351D01*
X168475937Y-90018442D01*
X168383835Y-89869120D01*
X168259779Y-89745064D01*
X168240894Y-89733416D01*
X168175304Y-89692960D01*
X168110457Y-89652962D01*
X168110455Y-89652961D01*
X168110453Y-89652960D01*
X168097312Y-89646832D01*
X168097963Y-89645434D01*
X168027805Y-89605602D01*
X167968104Y-89528954D01*
X167942280Y-89435294D01*
X167941623Y-89417211D01*
X167941623Y-88868270D01*
X167960577Y-88772982D01*
X168014553Y-88692200D01*
X168059900Y-88656345D01*
X168174779Y-88585488D01*
X168298835Y-88461432D01*
X168390937Y-88312110D01*
X168446122Y-88145573D01*
X168456623Y-88042785D01*
X168456622Y-86692794D01*
X169006123Y-86692794D01*
X169006123Y-87117775D01*
X169006124Y-87117776D01*
X169881122Y-87117776D01*
X169881123Y-87117775D01*
X169881123Y-85992777D01*
X170381123Y-85992777D01*
X170381123Y-87117775D01*
X170381124Y-87117776D01*
X171256121Y-87117776D01*
X171256122Y-87117775D01*
X171256122Y-86692808D01*
X171256121Y-86692791D01*
X171245628Y-86590076D01*
X171245627Y-86590073D01*
X171190482Y-86423656D01*
X171190481Y-86423654D01*
X171098441Y-86274434D01*
X171098438Y-86274430D01*
X170974468Y-86150460D01*
X170974464Y-86150457D01*
X170825244Y-86058417D01*
X170825243Y-86058416D01*
X170658824Y-86003271D01*
X170658817Y-86003270D01*
X170556104Y-85992776D01*
X170381124Y-85992776D01*
X170381123Y-85992777D01*
X169881123Y-85992777D01*
X169881123Y-85992775D01*
X169706147Y-85992776D01*
X169603423Y-86003270D01*
X169603420Y-86003271D01*
X169437003Y-86058416D01*
X169437001Y-86058417D01*
X169287781Y-86150457D01*
X169287777Y-86150460D01*
X169163807Y-86274430D01*
X169163804Y-86274434D01*
X169071764Y-86423654D01*
X169071763Y-86423655D01*
X169016618Y-86590074D01*
X169016617Y-86590081D01*
X169006123Y-86692794D01*
X168456622Y-86692794D01*
X168456622Y-86692768D01*
X168446122Y-86589979D01*
X168445937Y-86589422D01*
X168392152Y-86427110D01*
X168390937Y-86423442D01*
X168298835Y-86274120D01*
X168174779Y-86150064D01*
X168025457Y-86057962D01*
X168025455Y-86057961D01*
X168025453Y-86057960D01*
X168025455Y-86057960D01*
X167858925Y-86002778D01*
X167858921Y-86002777D01*
X167858920Y-86002777D01*
X167756132Y-85992276D01*
X167756128Y-85992276D01*
X166906116Y-85992276D01*
X166803322Y-86002777D01*
X166636790Y-86057961D01*
X166487469Y-86150062D01*
X166363409Y-86274122D01*
X166271307Y-86423444D01*
X166216125Y-86589973D01*
X166216125Y-86589975D01*
X166216124Y-86589979D01*
X166214251Y-86608313D01*
X166205623Y-86692764D01*
X166205623Y-86787607D01*
X166200196Y-86814887D01*
X166199453Y-86842694D01*
X166190809Y-86862078D01*
X166186669Y-86882895D01*
X166171215Y-86906022D01*
X166159888Y-86931428D01*
X166144485Y-86946028D01*
X166132693Y-86963677D01*
X166109562Y-86979132D01*
X166089377Y-86998266D01*
X166069559Y-87005860D01*
X166051911Y-87017653D01*
X166024630Y-87023079D01*
X165998656Y-87033034D01*
X165977438Y-87032466D01*
X165956623Y-87036607D01*
X165929342Y-87031180D01*
X165901536Y-87030437D01*
X165882151Y-87021793D01*
X165861335Y-87017653D01*
X165838207Y-87002199D01*
X165812802Y-86990872D01*
X165798577Y-86975720D01*
X165780553Y-86963677D01*
X165745964Y-86920361D01*
X165639295Y-86751095D01*
X165626577Y-86717910D01*
X165610398Y-86686267D01*
X165609326Y-86672898D01*
X165604527Y-86660374D01*
X165605477Y-86624845D01*
X165602639Y-86589422D01*
X165606765Y-86576660D01*
X165607124Y-86563254D01*
X165621595Y-86530797D01*
X165632531Y-86496980D01*
X165638026Y-86487622D01*
X165675481Y-86426896D01*
X165675482Y-86426896D01*
X165730627Y-86260477D01*
X165730628Y-86260470D01*
X165741122Y-86157757D01*
X165741123Y-86157747D01*
X165741123Y-85907777D01*
X165741122Y-85907776D01*
X164891123Y-85907776D01*
X164891123Y-86237775D01*
X164903193Y-86249845D01*
X164957169Y-86330627D01*
X164976123Y-86425915D01*
X164976123Y-88942774D01*
X164976124Y-88942775D01*
X165113591Y-88942775D01*
X165113607Y-88942774D01*
X165216322Y-88932281D01*
X165216325Y-88932280D01*
X165382742Y-88877135D01*
X165382744Y-88877134D01*
X165531964Y-88785094D01*
X165531968Y-88785091D01*
X165655938Y-88661121D01*
X165655941Y-88661117D01*
X165747981Y-88511898D01*
X165806931Y-88333994D01*
X165854895Y-88249504D01*
X165931541Y-88189800D01*
X166025200Y-88163972D01*
X166121613Y-88175952D01*
X166206103Y-88223916D01*
X166265807Y-88300562D01*
X166268960Y-88307075D01*
X166271304Y-88312102D01*
X166363221Y-88461125D01*
X166363411Y-88461432D01*
X166487467Y-88585488D01*
X166622342Y-88668679D01*
X166693492Y-88734834D01*
X166733911Y-88823182D01*
X166740623Y-88880607D01*
X166740623Y-89417211D01*
X166721669Y-89512499D01*
X166667693Y-89593281D01*
X166617328Y-89632151D01*
X166594757Y-89645350D01*
X166571789Y-89652962D01*
X166422467Y-89745064D01*
X166419939Y-89747591D01*
X166402313Y-89757900D01*
X166372551Y-89768188D01*
X166344515Y-89782521D01*
X166327050Y-89783918D01*
X166310490Y-89789644D01*
X166279056Y-89787760D01*
X166247669Y-89790273D01*
X166230999Y-89784880D01*
X166213509Y-89783833D01*
X166185190Y-89770063D01*
X166155230Y-89760373D01*
X166137149Y-89746705D01*
X166126135Y-89741350D01*
X166118139Y-89732335D01*
X166100538Y-89719030D01*
X166074468Y-89692960D01*
X166074464Y-89692957D01*
X165925244Y-89600917D01*
X165925243Y-89600916D01*
X165758824Y-89545771D01*
X165758817Y-89545770D01*
X165656104Y-89535276D01*
X165381124Y-89535276D01*
X165381123Y-89535277D01*
X165381123Y-90373776D01*
X165362169Y-90469064D01*
X165308193Y-90549846D01*
X165227411Y-90603822D01*
X165132123Y-90622776D01*
X165131123Y-90622776D01*
X165131123Y-90623776D01*
X165112169Y-90719064D01*
X165058193Y-90799846D01*
X164977411Y-90853822D01*
X164882123Y-90872776D01*
X163831436Y-90872776D01*
X163736148Y-90853822D01*
X163655366Y-90799846D01*
X163651586Y-90795982D01*
X163649671Y-90793982D01*
X163597461Y-90712048D01*
X163591390Y-90677639D01*
X163561835Y-90671761D01*
X163481053Y-90617785D01*
X163477269Y-90613917D01*
X163221403Y-90346680D01*
X163149670Y-90271759D01*
X163144420Y-90266356D01*
X163144202Y-90266135D01*
X163141651Y-90263840D01*
X163120317Y-90235294D01*
X163906123Y-90235294D01*
X163906123Y-90372776D01*
X164881123Y-90372776D01*
X164881123Y-89535277D01*
X164881122Y-89535276D01*
X164606147Y-89535276D01*
X164503423Y-89545770D01*
X164503420Y-89545771D01*
X164337003Y-89600916D01*
X164337001Y-89600917D01*
X164187781Y-89692957D01*
X164187777Y-89692960D01*
X164063807Y-89816930D01*
X164063804Y-89816934D01*
X163971764Y-89966154D01*
X163971763Y-89966155D01*
X163916618Y-90132574D01*
X163916617Y-90132581D01*
X163906123Y-90235294D01*
X163120317Y-90235294D01*
X163083491Y-90186019D01*
X163059538Y-90091863D01*
X163063979Y-90030144D01*
X163066824Y-90015844D01*
X163066824Y-89819709D01*
X163028559Y-89627339D01*
X162953504Y-89446140D01*
X162953502Y-89446137D01*
X162949170Y-89439654D01*
X162902291Y-89440161D01*
X162423970Y-89918483D01*
X162343188Y-89972459D01*
X162247900Y-89991413D01*
X162152612Y-89972459D01*
X162071830Y-89918483D01*
X162070415Y-89917068D01*
X162016439Y-89836286D01*
X161997485Y-89740998D01*
X162016439Y-89645710D01*
X162070415Y-89564928D01*
X162619138Y-89016205D01*
X162699920Y-88962229D01*
X162795206Y-88943275D01*
X163038631Y-88943275D01*
X163141420Y-88932775D01*
X163307957Y-88877590D01*
X163457279Y-88785488D01*
X163512909Y-88729857D01*
X163593688Y-88675884D01*
X163688976Y-88656930D01*
X163784264Y-88675884D01*
X163865046Y-88729860D01*
X163920277Y-88785091D01*
X163920281Y-88785094D01*
X164069501Y-88877134D01*
X164069502Y-88877135D01*
X164235921Y-88932280D01*
X164235928Y-88932281D01*
X164338646Y-88942775D01*
X164476122Y-88942774D01*
X164476123Y-88942774D01*
X164476123Y-87112777D01*
X164464053Y-87100707D01*
X164410077Y-87019925D01*
X164391123Y-86924637D01*
X164391123Y-85906776D01*
X164410077Y-85811488D01*
X164464053Y-85730706D01*
X164544835Y-85676730D01*
X164640123Y-85657776D01*
X164641123Y-85657776D01*
X164641123Y-85656776D01*
X164660077Y-85561488D01*
X164714053Y-85480706D01*
X164794835Y-85426730D01*
X164890123Y-85407776D01*
X165741121Y-85407776D01*
X165741122Y-85407775D01*
X165741122Y-85157808D01*
X165741121Y-85157791D01*
X165730628Y-85055076D01*
X165682259Y-84909109D01*
X165670278Y-84812695D01*
X165696105Y-84719036D01*
X165755808Y-84642390D01*
X165840297Y-84594425D01*
X165918657Y-84581787D01*
X201045182Y-84588263D01*
X201045228Y-84588276D01*
X201105062Y-84588276D01*
X201105069Y-84588277D01*
X201117225Y-84588575D01*
X201441921Y-84604529D01*
X201466218Y-84606922D01*
X201781747Y-84653727D01*
X201805709Y-84658494D01*
X201962025Y-84697650D01*
X202115101Y-84735995D01*
X202138484Y-84743088D01*
X202200993Y-84765454D01*
X202438810Y-84850547D01*
X202461362Y-84859888D01*
X202749720Y-84996272D01*
X202771259Y-85007785D01*
X202963080Y-85122759D01*
X203044839Y-85171764D01*
X203065156Y-85185339D01*
X203100538Y-85211580D01*
X203319042Y-85373634D01*
X203321351Y-85375346D01*
X203340238Y-85390846D01*
X203573586Y-85602341D01*
X203576568Y-85605043D01*
X203593846Y-85622321D01*
X203808054Y-85858662D01*
X203823553Y-85877548D01*
X204013560Y-86133741D01*
X204027133Y-86154056D01*
X204099099Y-86274122D01*
X204191111Y-86427635D01*
X204202630Y-86449186D01*
X204339003Y-86737522D01*
X204348354Y-86760096D01*
X204455812Y-87060416D01*
X204462905Y-87083800D01*
X204540404Y-87393187D01*
X204545172Y-87417153D01*
X204591976Y-87732670D01*
X204594371Y-87756988D01*
X204610320Y-88081612D01*
X204610620Y-88093924D01*
X204600195Y-116005700D01*
X204600195Y-116005708D01*
X204600188Y-116021792D01*
X204600164Y-116021885D01*
X204600164Y-116079620D01*
X204600164Y-116081770D01*
X204600161Y-116081784D01*
X204599864Y-116093885D01*
X204583916Y-116418568D01*
X204581521Y-116442887D01*
X204534721Y-116758395D01*
X204529954Y-116782360D01*
X204452456Y-117091758D01*
X204445363Y-117115143D01*
X204337906Y-117415467D01*
X204328554Y-117438043D01*
X204192187Y-117726367D01*
X204180668Y-117747918D01*
X204016684Y-118021509D01*
X204003110Y-118041825D01*
X203972877Y-118082590D01*
X203813108Y-118298014D01*
X203797614Y-118316894D01*
X203583402Y-118553239D01*
X203566124Y-118570517D01*
X203329796Y-118784711D01*
X203310907Y-118800213D01*
X203054711Y-118990220D01*
X203034393Y-119003796D01*
X202760820Y-119167768D01*
X202739269Y-119179287D01*
X202450928Y-119315661D01*
X202428352Y-119325012D01*
X202128036Y-119432464D01*
X202104653Y-119439557D01*
X201795256Y-119517055D01*
X201771290Y-119521822D01*
X201455780Y-119568622D01*
X201431460Y-119571017D01*
X201106591Y-119586973D01*
X201094379Y-119587273D01*
X201062676Y-119587273D01*
X201034777Y-119587273D01*
X201034773Y-119587273D01*
X201019505Y-119587274D01*
X201019504Y-119587273D01*
X201019502Y-119587274D01*
X92927015Y-119587275D01*
X92867227Y-119587275D01*
X92855011Y-119586975D01*
X92854970Y-119586973D01*
X92831862Y-119585837D01*
X92530328Y-119571027D01*
X92506008Y-119568632D01*
X92190500Y-119521831D01*
X92166536Y-119517064D01*
X91857138Y-119439566D01*
X91833753Y-119432473D01*
X91533433Y-119325018D01*
X91510864Y-119315669D01*
X91222522Y-119179295D01*
X91200973Y-119167777D01*
X91064182Y-119085788D01*
X90927385Y-119003796D01*
X90907072Y-118990223D01*
X90650880Y-118800217D01*
X90631993Y-118784717D01*
X90543330Y-118704358D01*
X90395650Y-118570509D01*
X90378389Y-118553248D01*
X90164181Y-118316904D01*
X90148681Y-118298018D01*
X89958676Y-118041825D01*
X89945100Y-118021507D01*
X89781124Y-117747928D01*
X89769605Y-117726377D01*
X89743460Y-117671097D01*
X89743459Y-117671094D01*
X89741890Y-117667777D01*
X117591124Y-117667777D01*
X117591124Y-117917760D01*
X117601617Y-118020475D01*
X117601618Y-118020478D01*
X117656763Y-118186895D01*
X117656764Y-118186897D01*
X117748804Y-118336117D01*
X117748807Y-118336121D01*
X117872777Y-118460091D01*
X117872781Y-118460094D01*
X118022001Y-118552134D01*
X118022002Y-118552135D01*
X118188421Y-118607280D01*
X118188428Y-118607281D01*
X118291146Y-118617775D01*
X118441122Y-118617774D01*
X118441123Y-118617774D01*
X118441123Y-117667777D01*
X118441122Y-117667776D01*
X117591125Y-117667776D01*
X117591124Y-117667777D01*
X89741890Y-117667777D01*
X89633232Y-117438038D01*
X89623881Y-117415463D01*
X89516426Y-117115147D01*
X89509335Y-117091771D01*
X89451027Y-116858988D01*
X89431834Y-116782362D01*
X89427067Y-116758397D01*
X89419558Y-116707775D01*
X89380265Y-116442874D01*
X89377873Y-116418587D01*
X89361926Y-116093945D01*
X89361627Y-116081555D01*
X89361635Y-116071244D01*
X89362500Y-114858712D01*
X92929500Y-114858712D01*
X92929500Y-115101288D01*
X92937290Y-115160457D01*
X92961162Y-115341790D01*
X92961163Y-115341795D01*
X93023940Y-115576082D01*
X93023948Y-115576105D01*
X93116770Y-115800201D01*
X93116778Y-115800217D01*
X93238058Y-116010279D01*
X93238064Y-116010289D01*
X93385729Y-116202731D01*
X93385738Y-116202741D01*
X93557258Y-116374261D01*
X93557268Y-116374270D01*
X93604022Y-116410145D01*
X93749711Y-116521936D01*
X93785776Y-116542758D01*
X93959782Y-116643221D01*
X93959798Y-116643229D01*
X94099858Y-116701242D01*
X94183900Y-116736054D01*
X94183911Y-116736057D01*
X94183917Y-116736059D01*
X94334994Y-116776540D01*
X94418211Y-116798838D01*
X94658712Y-116830500D01*
X94901288Y-116830500D01*
X95141789Y-116798838D01*
X95303275Y-116755567D01*
X95376082Y-116736059D01*
X95376084Y-116736058D01*
X95376100Y-116736054D01*
X95527766Y-116673231D01*
X95600201Y-116643229D01*
X95600206Y-116643226D01*
X95600212Y-116643224D01*
X95810289Y-116521936D01*
X96002738Y-116374265D01*
X96174265Y-116202738D01*
X96321936Y-116010289D01*
X96443224Y-115800212D01*
X96444695Y-115796662D01*
X96478249Y-115715654D01*
X96536054Y-115576100D01*
X96550790Y-115521107D01*
X96561799Y-115480019D01*
X96598838Y-115341789D01*
X96630500Y-115101288D01*
X96630500Y-114858712D01*
X103789500Y-114858712D01*
X103789500Y-115101288D01*
X103797290Y-115160457D01*
X103821162Y-115341790D01*
X103821163Y-115341795D01*
X103883940Y-115576082D01*
X103883948Y-115576105D01*
X103976770Y-115800201D01*
X103976778Y-115800217D01*
X104098058Y-116010279D01*
X104098064Y-116010289D01*
X104245729Y-116202731D01*
X104245738Y-116202741D01*
X104417258Y-116374261D01*
X104417268Y-116374270D01*
X104464022Y-116410145D01*
X104609711Y-116521936D01*
X104645776Y-116542758D01*
X104819782Y-116643221D01*
X104819798Y-116643229D01*
X104959858Y-116701242D01*
X105043900Y-116736054D01*
X105043911Y-116736057D01*
X105043917Y-116736059D01*
X105194994Y-116776540D01*
X105278211Y-116798838D01*
X105518712Y-116830500D01*
X105761288Y-116830500D01*
X106001789Y-116798838D01*
X106163275Y-116755567D01*
X106236082Y-116736059D01*
X106236084Y-116736058D01*
X106236100Y-116736054D01*
X106387766Y-116673231D01*
X106460201Y-116643229D01*
X106460206Y-116643226D01*
X106460212Y-116643224D01*
X106670289Y-116521936D01*
X106862738Y-116374265D01*
X107034265Y-116202738D01*
X107181936Y-116010289D01*
X107303224Y-115800212D01*
X107304695Y-115796662D01*
X107338249Y-115715654D01*
X107396054Y-115576100D01*
X107410790Y-115521107D01*
X107421799Y-115480019D01*
X107458838Y-115341789D01*
X107490500Y-115101288D01*
X107490500Y-114858712D01*
X107458838Y-114618211D01*
X107431926Y-114517775D01*
X107396059Y-114383917D01*
X107396057Y-114383911D01*
X107396054Y-114383900D01*
X107348260Y-114268515D01*
X107303229Y-114159798D01*
X107303221Y-114159782D01*
X107182140Y-113950064D01*
X107181936Y-113949711D01*
X107105108Y-113849587D01*
X107034270Y-113757268D01*
X107034261Y-113757258D01*
X106862741Y-113585738D01*
X106862731Y-113585729D01*
X106670289Y-113438064D01*
X106670279Y-113438058D01*
X106460217Y-113316778D01*
X106460201Y-113316770D01*
X106236105Y-113223948D01*
X106236103Y-113223947D01*
X106236100Y-113223946D01*
X106236096Y-113223945D01*
X106236082Y-113223940D01*
X106001795Y-113161163D01*
X106001790Y-113161162D01*
X105761288Y-113129500D01*
X105518712Y-113129500D01*
X105278209Y-113161162D01*
X105278204Y-113161163D01*
X105043917Y-113223940D01*
X105043894Y-113223948D01*
X104819798Y-113316770D01*
X104819782Y-113316778D01*
X104609720Y-113438058D01*
X104609710Y-113438064D01*
X104417268Y-113585729D01*
X104417258Y-113585738D01*
X104245738Y-113757258D01*
X104245729Y-113757268D01*
X104098064Y-113949710D01*
X104098058Y-113949720D01*
X103976778Y-114159782D01*
X103976770Y-114159798D01*
X103883948Y-114383894D01*
X103883940Y-114383917D01*
X103821163Y-114618204D01*
X103821162Y-114618209D01*
X103791509Y-114843451D01*
X103789500Y-114858712D01*
X96630500Y-114858712D01*
X96598838Y-114618211D01*
X96571926Y-114517775D01*
X96536059Y-114383917D01*
X96536057Y-114383911D01*
X96536054Y-114383900D01*
X96488260Y-114268515D01*
X96443229Y-114159798D01*
X96443221Y-114159782D01*
X96322140Y-113950064D01*
X96321936Y-113949711D01*
X96245108Y-113849587D01*
X96174270Y-113757268D01*
X96174261Y-113757258D01*
X96002741Y-113585738D01*
X96002731Y-113585729D01*
X95810289Y-113438064D01*
X95810279Y-113438058D01*
X95600217Y-113316778D01*
X95600201Y-113316770D01*
X95376105Y-113223948D01*
X95376103Y-113223947D01*
X95376100Y-113223946D01*
X95376096Y-113223945D01*
X95376082Y-113223940D01*
X95141795Y-113161163D01*
X95141790Y-113161162D01*
X94901288Y-113129500D01*
X94658712Y-113129500D01*
X94418209Y-113161162D01*
X94418204Y-113161163D01*
X94183917Y-113223940D01*
X94183894Y-113223948D01*
X93959798Y-113316770D01*
X93959782Y-113316778D01*
X93749720Y-113438058D01*
X93749710Y-113438064D01*
X93557268Y-113585729D01*
X93557258Y-113585738D01*
X93385738Y-113757258D01*
X93385729Y-113757268D01*
X93238064Y-113949710D01*
X93238058Y-113949720D01*
X93116778Y-114159782D01*
X93116770Y-114159798D01*
X93023948Y-114383894D01*
X93023940Y-114383917D01*
X92961163Y-114618204D01*
X92961162Y-114618209D01*
X92931509Y-114843451D01*
X92929500Y-114858712D01*
X89362500Y-114858712D01*
X89374581Y-97933703D01*
X111647000Y-97933703D01*
X111647000Y-98146296D01*
X111680253Y-98356240D01*
X111680254Y-98356243D01*
X111745943Y-98558412D01*
X111842449Y-98747816D01*
X111967396Y-98919791D01*
X111967397Y-98919793D01*
X112117709Y-99070105D01*
X112145669Y-99090419D01*
X112159492Y-99100462D01*
X112170629Y-99108553D01*
X112236578Y-99179895D01*
X112270206Y-99271045D01*
X112266393Y-99368125D01*
X112225718Y-99456356D01*
X112170633Y-99511442D01*
X112117712Y-99549892D01*
X112117708Y-99549895D01*
X111967397Y-99700206D01*
X111842450Y-99872182D01*
X111745941Y-100061592D01*
X111680253Y-100263759D01*
X111647000Y-100473703D01*
X111647000Y-100686296D01*
X111680253Y-100896240D01*
X111737741Y-101073171D01*
X111745943Y-101098412D01*
X111842449Y-101287816D01*
X111902160Y-101370001D01*
X111967397Y-101459793D01*
X112117707Y-101610103D01*
X112170631Y-101648555D01*
X112236580Y-101719899D01*
X112270207Y-101811049D01*
X112266392Y-101908129D01*
X112225717Y-101996359D01*
X112170631Y-102051445D01*
X112117707Y-102089896D01*
X111967397Y-102240206D01*
X111842450Y-102412182D01*
X111745941Y-102601592D01*
X111680253Y-102803759D01*
X111647000Y-103013703D01*
X111647000Y-103226296D01*
X111680253Y-103436240D01*
X111736246Y-103608570D01*
X111745943Y-103638412D01*
X111842449Y-103827816D01*
X111955671Y-103983654D01*
X111973147Y-104007707D01*
X111970846Y-104009378D01*
X112009292Y-104078055D01*
X112020695Y-104174538D01*
X111994308Y-104268041D01*
X111934147Y-104344329D01*
X111918905Y-104354834D01*
X111919427Y-104355531D01*
X111905170Y-104366203D01*
X111905169Y-104366204D01*
X111883012Y-104382791D01*
X111789955Y-104452453D01*
X111789953Y-104452455D01*
X111703704Y-104567669D01*
X111653408Y-104702518D01*
X111647000Y-104762123D01*
X111647000Y-106557865D01*
X111647000Y-106557868D01*
X111647001Y-106557872D01*
X111649067Y-106577093D01*
X111653408Y-106617480D01*
X111653409Y-106617484D01*
X111681970Y-106694060D01*
X111703704Y-106752331D01*
X111789954Y-106867546D01*
X111905169Y-106953796D01*
X112040017Y-107004091D01*
X112099627Y-107010500D01*
X113895372Y-107010499D01*
X113954983Y-107004091D01*
X114089831Y-106953796D01*
X114205046Y-106867546D01*
X114291296Y-106752331D01*
X114341591Y-106617483D01*
X114348000Y-106557873D01*
X114347999Y-105027777D01*
X138318624Y-105027777D01*
X138318624Y-105302760D01*
X138329117Y-105405475D01*
X138329118Y-105405478D01*
X138384263Y-105571895D01*
X138384264Y-105571897D01*
X138476304Y-105721117D01*
X138476307Y-105721121D01*
X138600277Y-105845091D01*
X138600281Y-105845094D01*
X138749501Y-105937134D01*
X138749502Y-105937135D01*
X138915921Y-105992280D01*
X138915928Y-105992281D01*
X139018646Y-106002775D01*
X139156122Y-106002774D01*
X139156123Y-106002774D01*
X139156123Y-105027777D01*
X139156122Y-105027776D01*
X138318625Y-105027776D01*
X138318624Y-105027777D01*
X114347999Y-105027777D01*
X114347999Y-104762128D01*
X114341591Y-104702517D01*
X114291296Y-104567669D01*
X114205046Y-104452454D01*
X114205042Y-104452451D01*
X114205040Y-104452449D01*
X114196623Y-104446148D01*
X114196478Y-104446040D01*
X114089831Y-104366204D01*
X114088763Y-104365805D01*
X114073788Y-104354651D01*
X114052721Y-104331309D01*
X114028606Y-104311144D01*
X114020466Y-104295572D01*
X114008693Y-104282528D01*
X113998163Y-104252905D01*
X113998105Y-104252794D01*
X138318623Y-104252794D01*
X138318623Y-104527775D01*
X138318624Y-104527776D01*
X139156122Y-104527776D01*
X139156123Y-104527775D01*
X139156123Y-103552775D01*
X139018647Y-103552776D01*
X138915923Y-103563270D01*
X138915920Y-103563271D01*
X138749503Y-103618416D01*
X138749501Y-103618417D01*
X138600281Y-103710457D01*
X138600277Y-103710460D01*
X138476307Y-103834430D01*
X138476304Y-103834434D01*
X138384264Y-103983654D01*
X138384263Y-103983655D01*
X138329118Y-104150074D01*
X138329117Y-104150081D01*
X138318623Y-104252794D01*
X113998105Y-104252794D01*
X113983599Y-104225043D01*
X113982037Y-104207540D01*
X113976153Y-104190985D01*
X113977760Y-104159589D01*
X113974967Y-104128272D01*
X113980222Y-104111505D01*
X113981121Y-104093957D01*
X113994623Y-104065561D01*
X114004026Y-104035564D01*
X114019684Y-104012857D01*
X114022060Y-104007860D01*
X114021852Y-104007709D01*
X114022665Y-104006589D01*
X114022843Y-104006216D01*
X114023115Y-104005970D01*
X114039328Y-103983655D01*
X114101539Y-103898027D01*
X114172879Y-103832081D01*
X114264028Y-103798453D01*
X114278559Y-103796588D01*
X114397125Y-103784911D01*
X114753460Y-103714031D01*
X115101133Y-103608566D01*
X115436794Y-103469530D01*
X115757210Y-103298263D01*
X116059296Y-103096414D01*
X116340143Y-102865927D01*
X116597046Y-102609022D01*
X116827531Y-102328174D01*
X117029377Y-102026086D01*
X117200642Y-101705668D01*
X117339675Y-101370006D01*
X117343892Y-101356101D01*
X117389687Y-101270418D01*
X117464787Y-101208781D01*
X117503851Y-101192014D01*
X117645454Y-101145091D01*
X117645454Y-101145090D01*
X117645457Y-101145090D01*
X117794779Y-101052988D01*
X117918835Y-100928932D01*
X118010937Y-100779610D01*
X118066122Y-100613073D01*
X118066121Y-100613073D01*
X118067487Y-100608954D01*
X118115451Y-100524464D01*
X118192097Y-100464761D01*
X118285756Y-100438934D01*
X118303848Y-100438276D01*
X144336623Y-100438276D01*
X144431911Y-100457230D01*
X144512693Y-100511206D01*
X144566669Y-100591988D01*
X144585623Y-100687276D01*
X144585623Y-101682136D01*
X144585624Y-101682138D01*
X144601078Y-101799537D01*
X144621981Y-101850000D01*
X144661587Y-101945617D01*
X144661588Y-101945619D01*
X144661589Y-101945620D01*
X144724137Y-102027135D01*
X144757841Y-102071058D01*
X144757845Y-102071061D01*
X144757846Y-102071062D01*
X144858955Y-102148645D01*
X144883282Y-102167312D01*
X144939586Y-102190634D01*
X145020367Y-102244610D01*
X145074343Y-102325392D01*
X145093296Y-102420680D01*
X145074342Y-102515967D01*
X145039946Y-102599006D01*
X145011123Y-102743909D01*
X145011123Y-102891642D01*
X145039946Y-103036548D01*
X145063705Y-103093908D01*
X145119044Y-103038570D01*
X145120462Y-103037152D01*
X145201244Y-102983176D01*
X145252329Y-102973014D01*
X145427459Y-102797885D01*
X145661123Y-102797885D01*
X145661123Y-102837667D01*
X145676347Y-102874421D01*
X145704478Y-102902552D01*
X145741232Y-102917776D01*
X145781014Y-102917776D01*
X145817768Y-102902552D01*
X145845899Y-102874421D01*
X145861123Y-102837667D01*
X145861123Y-102797885D01*
X145845899Y-102761131D01*
X145817768Y-102733000D01*
X145781014Y-102717776D01*
X145741232Y-102717776D01*
X145704478Y-102733000D01*
X145676347Y-102761131D01*
X145661123Y-102797885D01*
X145427459Y-102797885D01*
X145584345Y-102640999D01*
X145909250Y-102316094D01*
X145943011Y-102293535D01*
X145975215Y-102268831D01*
X145983176Y-102266698D01*
X145990032Y-102262118D01*
X146069062Y-102243695D01*
X146072088Y-102243497D01*
X146168410Y-102256189D01*
X146252544Y-102304776D01*
X146311679Y-102381861D01*
X146336815Y-102475708D01*
X146324123Y-102572030D01*
X146275536Y-102656164D01*
X146264416Y-102668035D01*
X146114676Y-102817775D01*
X146114676Y-102817776D01*
X146269914Y-102973013D01*
X146321002Y-102983175D01*
X146340931Y-102996491D01*
X146381315Y-102996491D01*
X146401243Y-102983176D01*
X146452330Y-102973014D01*
X146607569Y-102817776D01*
X146607569Y-102817775D01*
X146587679Y-102797885D01*
X146861123Y-102797885D01*
X146861123Y-102837667D01*
X146876347Y-102874421D01*
X146904478Y-102902552D01*
X146941232Y-102917776D01*
X146981014Y-102917776D01*
X147017768Y-102902552D01*
X147045899Y-102874421D01*
X147061123Y-102837667D01*
X147061123Y-102797885D01*
X147045899Y-102761131D01*
X147017768Y-102733000D01*
X146981014Y-102717776D01*
X146941232Y-102717776D01*
X146904478Y-102733000D01*
X146876347Y-102761131D01*
X146861123Y-102797885D01*
X146587679Y-102797885D01*
X146458141Y-102668347D01*
X146458138Y-102668345D01*
X146404162Y-102587563D01*
X146385208Y-102492275D01*
X146395522Y-102440425D01*
X146404162Y-102396986D01*
X146431894Y-102355483D01*
X146458138Y-102316205D01*
X146538920Y-102262229D01*
X146634206Y-102243275D01*
X146637037Y-102243275D01*
X146732324Y-102262229D01*
X146813106Y-102316205D01*
X146813107Y-102316207D01*
X146961123Y-102464222D01*
X147109137Y-102316207D01*
X147109138Y-102316205D01*
X147171176Y-102274753D01*
X147189919Y-102262229D01*
X147285205Y-102243275D01*
X147288039Y-102243275D01*
X147383326Y-102262229D01*
X147464108Y-102316205D01*
X147518084Y-102396987D01*
X147537038Y-102492275D01*
X147518084Y-102587563D01*
X147464108Y-102668345D01*
X147314676Y-102817776D01*
X147469914Y-102973013D01*
X147521002Y-102983175D01*
X147540931Y-102996491D01*
X147581315Y-102996491D01*
X147601243Y-102983176D01*
X147652330Y-102973014D01*
X147807569Y-102817776D01*
X147807569Y-102817775D01*
X147787679Y-102797885D01*
X148061123Y-102797885D01*
X148061123Y-102837667D01*
X148076347Y-102874421D01*
X148104478Y-102902552D01*
X148141232Y-102917776D01*
X148181014Y-102917776D01*
X148217768Y-102902552D01*
X148245899Y-102874421D01*
X148261123Y-102837667D01*
X148261123Y-102797885D01*
X148245899Y-102761131D01*
X148217768Y-102733000D01*
X148181014Y-102717776D01*
X148141232Y-102717776D01*
X148104478Y-102733000D01*
X148076347Y-102761131D01*
X148061123Y-102797885D01*
X147787679Y-102797885D01*
X147658141Y-102668347D01*
X147658138Y-102668345D01*
X147604162Y-102587563D01*
X147585208Y-102492275D01*
X147595522Y-102440425D01*
X147604162Y-102396986D01*
X147631894Y-102355483D01*
X147658138Y-102316205D01*
X147738920Y-102262229D01*
X147834204Y-102243275D01*
X147837039Y-102243275D01*
X147932324Y-102262229D01*
X148013106Y-102316205D01*
X148013107Y-102316207D01*
X148161122Y-102464222D01*
X148309136Y-102316207D01*
X148309137Y-102316205D01*
X148387132Y-102264091D01*
X148389917Y-102262230D01*
X148389917Y-102262229D01*
X148389919Y-102262229D01*
X148463217Y-102247649D01*
X148485201Y-102243275D01*
X148488040Y-102243275D01*
X148583325Y-102262229D01*
X148664107Y-102316205D01*
X148718083Y-102396987D01*
X148737037Y-102492275D01*
X148718083Y-102587563D01*
X148664107Y-102668345D01*
X148664103Y-102668347D01*
X148514676Y-102817775D01*
X148514676Y-102817776D01*
X148669914Y-102973013D01*
X148721002Y-102983175D01*
X148740931Y-102996491D01*
X148781315Y-102996491D01*
X148801243Y-102983176D01*
X148852330Y-102973014D01*
X149008277Y-102817068D01*
X149089058Y-102763092D01*
X149184347Y-102744138D01*
X149275846Y-102762338D01*
X149261123Y-102797885D01*
X149261123Y-102837667D01*
X149276347Y-102874421D01*
X149304478Y-102902552D01*
X149341232Y-102917776D01*
X149381014Y-102917776D01*
X149416559Y-102903052D01*
X149434760Y-102994552D01*
X149415806Y-103089840D01*
X149361830Y-103170621D01*
X149214676Y-103317775D01*
X149361830Y-103464929D01*
X149415806Y-103545711D01*
X149434760Y-103640999D01*
X149416559Y-103732499D01*
X149381014Y-103717776D01*
X149341232Y-103717776D01*
X149304478Y-103733000D01*
X149276347Y-103761131D01*
X149261123Y-103797885D01*
X149261123Y-103837667D01*
X149276347Y-103874421D01*
X149304478Y-103902552D01*
X149341232Y-103917776D01*
X149381014Y-103917776D01*
X149416559Y-103903052D01*
X149434760Y-103994552D01*
X149415806Y-104089840D01*
X149361830Y-104170621D01*
X149214676Y-104317775D01*
X149361830Y-104464929D01*
X149415806Y-104545711D01*
X149434760Y-104640999D01*
X149416559Y-104732499D01*
X149381014Y-104717776D01*
X149341232Y-104717776D01*
X149304478Y-104733000D01*
X149276347Y-104761131D01*
X149261123Y-104797885D01*
X149261123Y-104837667D01*
X149275852Y-104873227D01*
X149184257Y-104891413D01*
X149088976Y-104872425D01*
X149008275Y-104818483D01*
X148852327Y-104662535D01*
X148801243Y-104652374D01*
X148781317Y-104639060D01*
X148740930Y-104639060D01*
X148721002Y-104652375D01*
X148669916Y-104662536D01*
X148514676Y-104817776D01*
X148664103Y-104967203D01*
X148664107Y-104967206D01*
X148686902Y-105001322D01*
X148718083Y-105047987D01*
X148730402Y-105109917D01*
X148737037Y-105143276D01*
X148718083Y-105238564D01*
X148664107Y-105319346D01*
X148615682Y-105351702D01*
X148583326Y-105373322D01*
X148488038Y-105392276D01*
X148485209Y-105392276D01*
X148389921Y-105373322D01*
X148309139Y-105319346D01*
X148309136Y-105319342D01*
X148161124Y-105171329D01*
X148161123Y-105171329D01*
X147915883Y-105416568D01*
X147915859Y-105416584D01*
X147915841Y-105416611D01*
X147874729Y-105444065D01*
X147835102Y-105470544D01*
X147835071Y-105470550D01*
X147835046Y-105470567D01*
X147788509Y-105479812D01*
X147739814Y-105489498D01*
X147739783Y-105489491D01*
X147739753Y-105489498D01*
X147691966Y-105479980D01*
X147644525Y-105470544D01*
X147644470Y-105470521D01*
X147642470Y-105469692D01*
X147561701Y-105415696D01*
X147507745Y-105334901D01*
X147495362Y-105272568D01*
X147464107Y-105319346D01*
X147415682Y-105351702D01*
X147383326Y-105373322D01*
X147288038Y-105392276D01*
X147285210Y-105392276D01*
X147189922Y-105373322D01*
X147170704Y-105360481D01*
X147109140Y-105319346D01*
X147109137Y-105319342D01*
X146961123Y-105171329D01*
X146961122Y-105171329D01*
X146813107Y-105319342D01*
X146813105Y-105319346D01*
X146732323Y-105373322D01*
X146637035Y-105392276D01*
X146634207Y-105392276D01*
X146538919Y-105373322D01*
X146458137Y-105319346D01*
X146404161Y-105238564D01*
X146385207Y-105143276D01*
X146404161Y-105047988D01*
X146458137Y-104967206D01*
X146458140Y-104967203D01*
X146607568Y-104817776D01*
X146587677Y-104797885D01*
X146861123Y-104797885D01*
X146861123Y-104837667D01*
X146876347Y-104874421D01*
X146904478Y-104902552D01*
X146941232Y-104917776D01*
X146981014Y-104917776D01*
X147017768Y-104902552D01*
X147045899Y-104874421D01*
X147061123Y-104837667D01*
X147061123Y-104817776D01*
X147314676Y-104817776D01*
X147464103Y-104967203D01*
X147464107Y-104967206D01*
X147486902Y-105001322D01*
X147518083Y-105047987D01*
X147530402Y-105109917D01*
X147530490Y-105110362D01*
X147561745Y-105063599D01*
X147561784Y-105063559D01*
X147561790Y-105063553D01*
X147807568Y-104817776D01*
X147787677Y-104797885D01*
X148061123Y-104797885D01*
X148061123Y-104837667D01*
X148076347Y-104874421D01*
X148104478Y-104902552D01*
X148141232Y-104917776D01*
X148181014Y-104917776D01*
X148217768Y-104902552D01*
X148245899Y-104874421D01*
X148261123Y-104837667D01*
X148261123Y-104797885D01*
X148245899Y-104761131D01*
X148217768Y-104733000D01*
X148181014Y-104717776D01*
X148141232Y-104717776D01*
X148104478Y-104733000D01*
X148076347Y-104761131D01*
X148061123Y-104797885D01*
X147787677Y-104797885D01*
X147652327Y-104662535D01*
X147649710Y-104662014D01*
X147602812Y-104653018D01*
X147602089Y-104652542D01*
X147601243Y-104652374D01*
X147581317Y-104639060D01*
X147540930Y-104639060D01*
X147521002Y-104652375D01*
X147469916Y-104662536D01*
X147314676Y-104817776D01*
X147061123Y-104817776D01*
X147061123Y-104797885D01*
X147045899Y-104761131D01*
X147017768Y-104733000D01*
X146981014Y-104717776D01*
X146941232Y-104717776D01*
X146904478Y-104733000D01*
X146876347Y-104761131D01*
X146861123Y-104797885D01*
X146587677Y-104797885D01*
X146452327Y-104662535D01*
X146449710Y-104662014D01*
X146402812Y-104653018D01*
X146402089Y-104652542D01*
X146401243Y-104652374D01*
X146381317Y-104639060D01*
X146340930Y-104639060D01*
X146321002Y-104652375D01*
X146269914Y-104662536D01*
X146113968Y-104818483D01*
X146033187Y-104872459D01*
X145937898Y-104891413D01*
X145846399Y-104873212D01*
X145861123Y-104837667D01*
X145861123Y-104797885D01*
X145845899Y-104761131D01*
X145817768Y-104733000D01*
X145781014Y-104717776D01*
X145741232Y-104717776D01*
X145705685Y-104732499D01*
X145687485Y-104640999D01*
X145706439Y-104545711D01*
X145760415Y-104464929D01*
X145907568Y-104317776D01*
X146814676Y-104317776D01*
X146961122Y-104464221D01*
X147107568Y-104317776D01*
X148014676Y-104317776D01*
X148161122Y-104464221D01*
X148307569Y-104317775D01*
X148161124Y-104171329D01*
X148014676Y-104317776D01*
X147107568Y-104317776D01*
X147107569Y-104317775D01*
X146961124Y-104171329D01*
X146814676Y-104317776D01*
X145907568Y-104317776D01*
X145907569Y-104317775D01*
X145584346Y-103994552D01*
X145584346Y-103994553D01*
X145480500Y-103890707D01*
X145480497Y-103890703D01*
X145387679Y-103797885D01*
X145661123Y-103797885D01*
X145661123Y-103837667D01*
X145676347Y-103874421D01*
X145704478Y-103902552D01*
X145741232Y-103917776D01*
X145781014Y-103917776D01*
X145817768Y-103902552D01*
X145845899Y-103874421D01*
X145861123Y-103837667D01*
X145861123Y-103817776D01*
X146114676Y-103817776D01*
X146269914Y-103973013D01*
X146321002Y-103983175D01*
X146340931Y-103996491D01*
X146381315Y-103996491D01*
X146401243Y-103983176D01*
X146452330Y-103973014D01*
X146607568Y-103817776D01*
X146587677Y-103797885D01*
X146861123Y-103797885D01*
X146861123Y-103837667D01*
X146876347Y-103874421D01*
X146904478Y-103902552D01*
X146941232Y-103917776D01*
X146981014Y-103917776D01*
X147017768Y-103902552D01*
X147045899Y-103874421D01*
X147061123Y-103837667D01*
X147061123Y-103817776D01*
X147314676Y-103817776D01*
X147469914Y-103973013D01*
X147521002Y-103983175D01*
X147540931Y-103996491D01*
X147581315Y-103996491D01*
X147601243Y-103983176D01*
X147652330Y-103973014D01*
X147807568Y-103817776D01*
X147787677Y-103797885D01*
X148061123Y-103797885D01*
X148061123Y-103837667D01*
X148076347Y-103874421D01*
X148104478Y-103902552D01*
X148141232Y-103917776D01*
X148181014Y-103917776D01*
X148217768Y-103902552D01*
X148245899Y-103874421D01*
X148261123Y-103837667D01*
X148261123Y-103817776D01*
X148514676Y-103817776D01*
X148669914Y-103973013D01*
X148721002Y-103983175D01*
X148740931Y-103996491D01*
X148781315Y-103996491D01*
X148801243Y-103983176D01*
X148852330Y-103973014D01*
X149007568Y-103817776D01*
X148852327Y-103662535D01*
X148801243Y-103652374D01*
X148781317Y-103639060D01*
X148740930Y-103639060D01*
X148721002Y-103652375D01*
X148669916Y-103662536D01*
X148514676Y-103817776D01*
X148261123Y-103817776D01*
X148261123Y-103797885D01*
X148245899Y-103761131D01*
X148217768Y-103733000D01*
X148181014Y-103717776D01*
X148141232Y-103717776D01*
X148104478Y-103733000D01*
X148076347Y-103761131D01*
X148061123Y-103797885D01*
X147787677Y-103797885D01*
X147652327Y-103662535D01*
X147601243Y-103652374D01*
X147581317Y-103639060D01*
X147540930Y-103639060D01*
X147521002Y-103652375D01*
X147469916Y-103662536D01*
X147314676Y-103817776D01*
X147061123Y-103817776D01*
X147061123Y-103797885D01*
X147045899Y-103761131D01*
X147017768Y-103733000D01*
X146981014Y-103717776D01*
X146941232Y-103717776D01*
X146904478Y-103733000D01*
X146876347Y-103761131D01*
X146861123Y-103797885D01*
X146587677Y-103797885D01*
X146452327Y-103662535D01*
X146401243Y-103652374D01*
X146381317Y-103639060D01*
X146340930Y-103639060D01*
X146321002Y-103652375D01*
X146269916Y-103662536D01*
X146114676Y-103817776D01*
X145861123Y-103817776D01*
X145861123Y-103797885D01*
X145845899Y-103761131D01*
X145817768Y-103733000D01*
X145781014Y-103717776D01*
X145741232Y-103717776D01*
X145704478Y-103733000D01*
X145676347Y-103761131D01*
X145661123Y-103797885D01*
X145387679Y-103797885D01*
X145252329Y-103662535D01*
X145201242Y-103652374D01*
X145120460Y-103598398D01*
X145063705Y-103541643D01*
X145039945Y-103599007D01*
X145039944Y-103599010D01*
X145010338Y-103747848D01*
X144973158Y-103837607D01*
X144904459Y-103906306D01*
X144814699Y-103943485D01*
X144717544Y-103943484D01*
X144627785Y-103906304D01*
X144590058Y-103875343D01*
X144564779Y-103850064D01*
X144549203Y-103840457D01*
X144513576Y-103818482D01*
X144415457Y-103757962D01*
X144415455Y-103757961D01*
X144415453Y-103757960D01*
X144415455Y-103757960D01*
X144248925Y-103702778D01*
X144248921Y-103702777D01*
X144248920Y-103702777D01*
X144146132Y-103692276D01*
X144146128Y-103692276D01*
X143096125Y-103692276D01*
X143096108Y-103692277D01*
X142993322Y-103702777D01*
X142826788Y-103757961D01*
X142826787Y-103757962D01*
X142690294Y-103842151D01*
X142671522Y-103849138D01*
X142654865Y-103860268D01*
X142626419Y-103865926D01*
X142599242Y-103876042D01*
X142579224Y-103875313D01*
X142559577Y-103879222D01*
X142531134Y-103873564D01*
X142502151Y-103872510D01*
X142483933Y-103864175D01*
X142464289Y-103860268D01*
X142440176Y-103844156D01*
X142413803Y-103832091D01*
X142383507Y-103806292D01*
X142304553Y-103727338D01*
X142250577Y-103646556D01*
X142231623Y-103551268D01*
X142231623Y-103537244D01*
X142248323Y-103453286D01*
X142247309Y-103452979D01*
X142250432Y-103442681D01*
X142250577Y-103441956D01*
X142250860Y-103441273D01*
X142275425Y-103317776D01*
X145614676Y-103317776D01*
X145761122Y-103464221D01*
X145907567Y-103317776D01*
X146814676Y-103317776D01*
X146961122Y-103464221D01*
X147107567Y-103317776D01*
X148014676Y-103317776D01*
X148161122Y-103464221D01*
X148307568Y-103317775D01*
X148161124Y-103171329D01*
X148014676Y-103317776D01*
X147107567Y-103317776D01*
X147107568Y-103317775D01*
X146961124Y-103171329D01*
X146814676Y-103317776D01*
X145907567Y-103317776D01*
X145907568Y-103317775D01*
X145761124Y-103171329D01*
X145614676Y-103317776D01*
X142275425Y-103317776D01*
X142281623Y-103286618D01*
X142281623Y-103128934D01*
X142263246Y-103036548D01*
X142250861Y-102974283D01*
X142250860Y-102974281D01*
X142250860Y-102974279D01*
X142190517Y-102828597D01*
X142183758Y-102818482D01*
X142102914Y-102697490D01*
X142102912Y-102697487D01*
X141991412Y-102585987D01*
X141970524Y-102572030D01*
X141860303Y-102498382D01*
X141860296Y-102498379D01*
X141714620Y-102438039D01*
X141714615Y-102438037D01*
X141559969Y-102407276D01*
X141559965Y-102407276D01*
X141402281Y-102407276D01*
X141402276Y-102407276D01*
X141247630Y-102438037D01*
X141247625Y-102438039D01*
X141101949Y-102498379D01*
X141101942Y-102498382D01*
X140970837Y-102585984D01*
X140859331Y-102697490D01*
X140771729Y-102828595D01*
X140771726Y-102828602D01*
X140711386Y-102974278D01*
X140711384Y-102974283D01*
X140680623Y-103128929D01*
X140680623Y-103286622D01*
X140711384Y-103441268D01*
X140711385Y-103441272D01*
X140711386Y-103441273D01*
X140711669Y-103441956D01*
X140711813Y-103442683D01*
X140714937Y-103452979D01*
X140713922Y-103453286D01*
X140728959Y-103528876D01*
X140730623Y-103537244D01*
X140730623Y-103551268D01*
X140711669Y-103646556D01*
X140657693Y-103727338D01*
X140657690Y-103727340D01*
X140619336Y-103765693D01*
X140538554Y-103819668D01*
X140443266Y-103838621D01*
X140347978Y-103819666D01*
X140267199Y-103765691D01*
X140211968Y-103710460D01*
X140211964Y-103710457D01*
X140062744Y-103618417D01*
X140062743Y-103618416D01*
X139896324Y-103563271D01*
X139896317Y-103563270D01*
X139793604Y-103552776D01*
X139656124Y-103552776D01*
X139656123Y-103552777D01*
X139656123Y-106002774D01*
X139656124Y-106002775D01*
X139793591Y-106002775D01*
X139793607Y-106002774D01*
X139896322Y-105992281D01*
X139896325Y-105992280D01*
X140062742Y-105937135D01*
X140062744Y-105937134D01*
X140211964Y-105845094D01*
X140211968Y-105845091D01*
X140267200Y-105789860D01*
X140347982Y-105735884D01*
X140443270Y-105716930D01*
X140538558Y-105735884D01*
X140619336Y-105789857D01*
X140657695Y-105828216D01*
X140711669Y-105908995D01*
X140730623Y-106004283D01*
X140730623Y-108308306D01*
X140713923Y-108392260D01*
X140714938Y-108392568D01*
X140711813Y-108402868D01*
X140711670Y-108403591D01*
X140711388Y-108404271D01*
X140711385Y-108404280D01*
X140680623Y-108558929D01*
X140680623Y-108668276D01*
X140661669Y-108763564D01*
X140607693Y-108844346D01*
X140526911Y-108898322D01*
X140431623Y-108917276D01*
X118772062Y-108917276D01*
X118734744Y-108927274D01*
X118734745Y-108927275D01*
X118619342Y-108958197D01*
X118619339Y-108958198D01*
X118482408Y-109037255D01*
X118482406Y-109037256D01*
X118370602Y-109149059D01*
X118370603Y-109149060D01*
X118370601Y-109149062D01*
X115282409Y-112237254D01*
X115282407Y-112237256D01*
X115282406Y-112237255D01*
X115170606Y-112349056D01*
X115170604Y-112349059D01*
X115170603Y-112349060D01*
X115120483Y-112435871D01*
X115120482Y-112435870D01*
X115091547Y-112485988D01*
X115091545Y-112485991D01*
X115050622Y-112638719D01*
X115050622Y-112816898D01*
X115050623Y-112816911D01*
X115050623Y-113135076D01*
X115031669Y-113230364D01*
X114977693Y-113311146D01*
X114914669Y-113356935D01*
X114903316Y-113362719D01*
X114903308Y-113362724D01*
X114731329Y-113487673D01*
X114581019Y-113637983D01*
X114542568Y-113690907D01*
X114471224Y-113756856D01*
X114380074Y-113790483D01*
X114282994Y-113786668D01*
X114194764Y-113745993D01*
X114139678Y-113690907D01*
X114105297Y-113643586D01*
X114101227Y-113637984D01*
X113950915Y-113487672D01*
X113778939Y-113362725D01*
X113589535Y-113266219D01*
X113589532Y-113266218D01*
X113589530Y-113266217D01*
X113387363Y-113200529D01*
X113177419Y-113167276D01*
X113177410Y-113167276D01*
X112964836Y-113167276D01*
X112964826Y-113167276D01*
X112754882Y-113200529D01*
X112552715Y-113266217D01*
X112363305Y-113362726D01*
X112191329Y-113487673D01*
X112041020Y-113637982D01*
X111921291Y-113802777D01*
X111916072Y-113809960D01*
X111822882Y-113992857D01*
X111819564Y-113999368D01*
X111753876Y-114201535D01*
X111720623Y-114411479D01*
X111720623Y-114624072D01*
X111753876Y-114834016D01*
X111818478Y-115032842D01*
X111819566Y-115036188D01*
X111916072Y-115225592D01*
X112041019Y-115397568D01*
X112191331Y-115547880D01*
X112363307Y-115672827D01*
X112552711Y-115769333D01*
X112754880Y-115835022D01*
X112815997Y-115844702D01*
X112964826Y-115868275D01*
X112964833Y-115868275D01*
X112964836Y-115868276D01*
X112964839Y-115868276D01*
X113177407Y-115868276D01*
X113177410Y-115868276D01*
X113177413Y-115868275D01*
X113177419Y-115868275D01*
X113279225Y-115852150D01*
X113387366Y-115835022D01*
X113589535Y-115769333D01*
X113778939Y-115672827D01*
X113950915Y-115547880D01*
X114101227Y-115397568D01*
X114139678Y-115344643D01*
X114211020Y-115278696D01*
X114302170Y-115245069D01*
X114399250Y-115248883D01*
X114487481Y-115289557D01*
X114542567Y-115344643D01*
X114581019Y-115397568D01*
X114731331Y-115547880D01*
X114903307Y-115672827D01*
X115092711Y-115769333D01*
X115143313Y-115785774D01*
X115185072Y-115799343D01*
X115269840Y-115846815D01*
X115281547Y-115857636D01*
X115282403Y-115858292D01*
X115282407Y-115858296D01*
X115419339Y-115937353D01*
X115572066Y-115978276D01*
X115730180Y-115978276D01*
X115882907Y-115937353D01*
X116019839Y-115858296D01*
X116059375Y-115818758D01*
X116122401Y-115772967D01*
X116129529Y-115769334D01*
X116129535Y-115769333D01*
X116318939Y-115672827D01*
X116490915Y-115547880D01*
X116641227Y-115397568D01*
X116679987Y-115344218D01*
X116751329Y-115278269D01*
X116842479Y-115244642D01*
X116939559Y-115248455D01*
X117000923Y-115276744D01*
X117035852Y-115279493D01*
X117668160Y-114647184D01*
X117685198Y-114710769D01*
X117751024Y-114824783D01*
X117844116Y-114917875D01*
X117958130Y-114983701D01*
X118021712Y-115000738D01*
X117389405Y-115633045D01*
X117389405Y-115633046D01*
X117443571Y-115672400D01*
X117632897Y-115768867D01*
X117632907Y-115768871D01*
X117834999Y-115834534D01*
X117899192Y-115844702D01*
X117990342Y-115878329D01*
X118061685Y-115944278D01*
X118102360Y-116032508D01*
X118106174Y-116129588D01*
X118072547Y-116220738D01*
X118006598Y-116292081D01*
X117990959Y-116302564D01*
X117872782Y-116375456D01*
X117872777Y-116375460D01*
X117748807Y-116499430D01*
X117748804Y-116499434D01*
X117656764Y-116648654D01*
X117656763Y-116648655D01*
X117601618Y-116815074D01*
X117601617Y-116815081D01*
X117591123Y-116917794D01*
X117591123Y-117167775D01*
X117591124Y-117167776D01*
X118441122Y-117167776D01*
X118441123Y-117167775D01*
X118441123Y-116215555D01*
X118391617Y-116141466D01*
X118372662Y-116046178D01*
X118391615Y-115950890D01*
X118445591Y-115870108D01*
X118526372Y-115816131D01*
X118544718Y-115809363D01*
X118669335Y-115768873D01*
X118669347Y-115768867D01*
X118858674Y-115672400D01*
X118912839Y-115633046D01*
X118280531Y-115000738D01*
X118344116Y-114983701D01*
X118458130Y-114917875D01*
X118551222Y-114824783D01*
X118617048Y-114710769D01*
X118634085Y-114647184D01*
X119271050Y-115284149D01*
X119290761Y-115313649D01*
X119313511Y-115340866D01*
X119317538Y-115353725D01*
X119325026Y-115364931D01*
X119342551Y-115433579D01*
X119342892Y-115436748D01*
X119336185Y-115511768D01*
X119348031Y-115521107D01*
X119391991Y-115595802D01*
X119397325Y-115610104D01*
X119397326Y-115610106D01*
X119397327Y-115610107D01*
X119483577Y-115725322D01*
X119598792Y-115811572D01*
X119733640Y-115861867D01*
X119793250Y-115868276D01*
X119816095Y-115868275D01*
X119837774Y-115872587D01*
X119859878Y-115872154D01*
X119884961Y-115881971D01*
X119911379Y-115887226D01*
X119929761Y-115899507D01*
X119950349Y-115907566D01*
X119969764Y-115926233D01*
X119992163Y-115941199D01*
X120004447Y-115959582D01*
X120020382Y-115974904D01*
X120031175Y-115999581D01*
X120046142Y-116021979D01*
X120050455Y-116043661D01*
X120059315Y-116063917D01*
X120059843Y-116090848D01*
X120065099Y-116117267D01*
X120060786Y-116138950D01*
X120061220Y-116161054D01*
X120051402Y-116186137D01*
X120046148Y-116212555D01*
X120033866Y-116230937D01*
X120025808Y-116251525D01*
X120009199Y-116267858D01*
X119992175Y-116293339D01*
X119958470Y-116321558D01*
X119952738Y-116325552D01*
X119872467Y-116375064D01*
X119851244Y-116396286D01*
X119833140Y-116408904D01*
X119808451Y-116419702D01*
X119786043Y-116434673D01*
X119764371Y-116438982D01*
X119744127Y-116447837D01*
X119717183Y-116448365D01*
X119690753Y-116453621D01*
X119669081Y-116449308D01*
X119646990Y-116449742D01*
X119621897Y-116439920D01*
X119595466Y-116434661D01*
X119577090Y-116422381D01*
X119556519Y-116414330D01*
X119537105Y-116395663D01*
X119514699Y-116380691D01*
X119509468Y-116375460D01*
X119509464Y-116375457D01*
X119360244Y-116283417D01*
X119360243Y-116283416D01*
X119193824Y-116228271D01*
X119193817Y-116228270D01*
X119091104Y-116217776D01*
X118941124Y-116217776D01*
X118941123Y-116217777D01*
X118941123Y-118617774D01*
X118941124Y-118617775D01*
X119091091Y-118617775D01*
X119091107Y-118617774D01*
X119193822Y-118607281D01*
X119193825Y-118607280D01*
X119360242Y-118552135D01*
X119360244Y-118552134D01*
X119509464Y-118460094D01*
X119509466Y-118460093D01*
X119514688Y-118454871D01*
X119595466Y-118400889D01*
X119690753Y-118381929D01*
X119786042Y-118400877D01*
X119866827Y-118454848D01*
X119872467Y-118460488D01*
X120021789Y-118552590D01*
X120021792Y-118552591D01*
X120021790Y-118552591D01*
X120185329Y-118606782D01*
X120188326Y-118607775D01*
X120291114Y-118618276D01*
X121091131Y-118618275D01*
X121193920Y-118607775D01*
X121360457Y-118552590D01*
X121509779Y-118460488D01*
X121633835Y-118336432D01*
X121725937Y-118187110D01*
X121781122Y-118020573D01*
X121791623Y-117917785D01*
X121791622Y-117207777D01*
X124451123Y-117207777D01*
X124451123Y-117705608D01*
X124457524Y-117765147D01*
X124457526Y-117765154D01*
X124507769Y-117899863D01*
X124593933Y-118014963D01*
X124593935Y-118014965D01*
X124709035Y-118101129D01*
X124843744Y-118151372D01*
X124843751Y-118151374D01*
X124903290Y-118157775D01*
X124903298Y-118157776D01*
X125501122Y-118157776D01*
X125501123Y-118157775D01*
X125501123Y-117207777D01*
X126001123Y-117207777D01*
X126001123Y-118157775D01*
X126001124Y-118157776D01*
X126598948Y-118157776D01*
X126598955Y-118157775D01*
X126658494Y-118151374D01*
X126658501Y-118151372D01*
X126793210Y-118101129D01*
X126908310Y-118014965D01*
X126908312Y-118014963D01*
X126994476Y-117899863D01*
X127044719Y-117765154D01*
X127044721Y-117765147D01*
X127051122Y-117705608D01*
X127051123Y-117705601D01*
X127051123Y-117207777D01*
X131651123Y-117207777D01*
X131651123Y-117705608D01*
X131657524Y-117765147D01*
X131657526Y-117765154D01*
X131707769Y-117899863D01*
X131793933Y-118014963D01*
X131793935Y-118014965D01*
X131909035Y-118101129D01*
X132043744Y-118151372D01*
X132043751Y-118151374D01*
X132103290Y-118157775D01*
X132103298Y-118157776D01*
X132701122Y-118157776D01*
X132701123Y-118157775D01*
X132701123Y-117207777D01*
X133201123Y-117207777D01*
X133201123Y-118157775D01*
X133201124Y-118157776D01*
X133798948Y-118157776D01*
X133798955Y-118157775D01*
X133858494Y-118151374D01*
X133858501Y-118151372D01*
X133993210Y-118101129D01*
X134108310Y-118014965D01*
X134108316Y-118014959D01*
X134148840Y-117960826D01*
X134221117Y-117895902D01*
X134312738Y-117863580D01*
X134409754Y-117868779D01*
X134478894Y-117898117D01*
X134607002Y-117977134D01*
X134607002Y-117977135D01*
X134773421Y-118032280D01*
X134773428Y-118032281D01*
X134876146Y-118042775D01*
X135151123Y-118042775D01*
X135151123Y-117205276D01*
X134413052Y-117205276D01*
X134400484Y-117207776D01*
X133201124Y-117207776D01*
X133201123Y-117207777D01*
X132701123Y-117207777D01*
X132701122Y-117207776D01*
X131651124Y-117207776D01*
X131651123Y-117207777D01*
X127051123Y-117207777D01*
X127051122Y-117207776D01*
X126001124Y-117207776D01*
X126001123Y-117207777D01*
X125501123Y-117207777D01*
X125501122Y-117207776D01*
X124451124Y-117207776D01*
X124451123Y-117207777D01*
X121791622Y-117207777D01*
X121791622Y-116917768D01*
X121781122Y-116814979D01*
X121775773Y-116798838D01*
X121744770Y-116705276D01*
X121725937Y-116648442D01*
X121633835Y-116499120D01*
X121509779Y-116375064D01*
X121429727Y-116325688D01*
X121424226Y-116321872D01*
X121395042Y-116291654D01*
X121364276Y-116263048D01*
X121361451Y-116256873D01*
X121356733Y-116251988D01*
X121341334Y-116212902D01*
X121339980Y-116209943D01*
X124451123Y-116209943D01*
X124451123Y-116707775D01*
X124451124Y-116707776D01*
X125501122Y-116707776D01*
X125501123Y-116707775D01*
X125501123Y-115757777D01*
X126001123Y-115757777D01*
X126001123Y-116707775D01*
X126001124Y-116707776D01*
X127051122Y-116707776D01*
X127051123Y-116707775D01*
X127051123Y-116209951D01*
X127051122Y-116209943D01*
X131651123Y-116209943D01*
X131651123Y-116707775D01*
X131651124Y-116707776D01*
X132701122Y-116707776D01*
X132701123Y-116707775D01*
X132701123Y-115757777D01*
X132701122Y-115757776D01*
X132103290Y-115757776D01*
X132043751Y-115764177D01*
X132043744Y-115764179D01*
X131909035Y-115814422D01*
X131793935Y-115900586D01*
X131793933Y-115900588D01*
X131707769Y-116015688D01*
X131657526Y-116150397D01*
X131657524Y-116150404D01*
X131651123Y-116209943D01*
X127051122Y-116209943D01*
X127044721Y-116150404D01*
X127044719Y-116150397D01*
X126994476Y-116015688D01*
X126908312Y-115900588D01*
X126908310Y-115900586D01*
X126793210Y-115814422D01*
X126658501Y-115764179D01*
X126658494Y-115764177D01*
X126598955Y-115757776D01*
X126001124Y-115757776D01*
X126001123Y-115757777D01*
X125501123Y-115757777D01*
X125501122Y-115757776D01*
X124903290Y-115757776D01*
X124843751Y-115764177D01*
X124843744Y-115764179D01*
X124709035Y-115814422D01*
X124593935Y-115900586D01*
X124593933Y-115900588D01*
X124507769Y-116015688D01*
X124457526Y-116150397D01*
X124457524Y-116150404D01*
X124451123Y-116209943D01*
X121339980Y-116209943D01*
X121323857Y-116174700D01*
X121323610Y-116167913D01*
X121321121Y-116161595D01*
X121321852Y-116119590D01*
X121320325Y-116077609D01*
X121322693Y-116071244D01*
X121322812Y-116064455D01*
X121339560Y-116025931D01*
X121354216Y-115986557D01*
X121358840Y-115981583D01*
X121361548Y-115975356D01*
X121391765Y-115946172D01*
X121420372Y-115915406D01*
X121426546Y-115912581D01*
X121431432Y-115907863D01*
X121470517Y-115892464D01*
X121508720Y-115874987D01*
X121517478Y-115873963D01*
X121521825Y-115872251D01*
X121530792Y-115872407D01*
X121566145Y-115868275D01*
X121588989Y-115868275D01*
X121588995Y-115868275D01*
X121648606Y-115861867D01*
X121783454Y-115811572D01*
X121898669Y-115725322D01*
X121984919Y-115610107D01*
X122035214Y-115475259D01*
X122041623Y-115415649D01*
X122041622Y-113619904D01*
X122035214Y-113560293D01*
X121984919Y-113425445D01*
X121967745Y-113402504D01*
X121930279Y-113352455D01*
X121930278Y-113352454D01*
X121898673Y-113310235D01*
X121898671Y-113310233D01*
X121898669Y-113310230D01*
X121783454Y-113223980D01*
X121745701Y-113209899D01*
X124450623Y-113209899D01*
X124450623Y-114705641D01*
X124450623Y-114705644D01*
X124450624Y-114705648D01*
X124451733Y-114715963D01*
X124457031Y-114765256D01*
X124457032Y-114765260D01*
X124498020Y-114875154D01*
X124507327Y-114900107D01*
X124593577Y-115015322D01*
X124708792Y-115101572D01*
X124843640Y-115151867D01*
X124903250Y-115158276D01*
X126598995Y-115158275D01*
X126658606Y-115151867D01*
X126793454Y-115101572D01*
X126908669Y-115015322D01*
X126994919Y-114900107D01*
X127045214Y-114765259D01*
X127051623Y-114705649D01*
X127051622Y-113209904D01*
X127045214Y-113150293D01*
X126994919Y-113015445D01*
X126908669Y-112900230D01*
X126793454Y-112813980D01*
X126713240Y-112784062D01*
X126658604Y-112763684D01*
X126598996Y-112757276D01*
X124903257Y-112757276D01*
X124903253Y-112757276D01*
X124903251Y-112757277D01*
X124890437Y-112758654D01*
X124843642Y-112763684D01*
X124843638Y-112763685D01*
X124708793Y-112813979D01*
X124593578Y-112900229D01*
X124593576Y-112900231D01*
X124507327Y-113015445D01*
X124457031Y-113150294D01*
X124450623Y-113209899D01*
X121745701Y-113209899D01*
X121684155Y-113186944D01*
X121648604Y-113173684D01*
X121588999Y-113167276D01*
X121588996Y-113167276D01*
X121540623Y-113167276D01*
X121445335Y-113148322D01*
X121364553Y-113094346D01*
X121310577Y-113013564D01*
X121291623Y-112918276D01*
X121291623Y-112889651D01*
X121310577Y-112794363D01*
X121364553Y-112713581D01*
X123156928Y-110921206D01*
X123237710Y-110867230D01*
X123332998Y-110848276D01*
X144587456Y-110848276D01*
X144682744Y-110867230D01*
X144763526Y-110921206D01*
X144817502Y-111001988D01*
X144836456Y-111097276D01*
X144817502Y-111192564D01*
X144810118Y-111208732D01*
X144808750Y-111211464D01*
X144794107Y-111246814D01*
X144794101Y-111246830D01*
X144772029Y-111309396D01*
X144769231Y-111308409D01*
X144737052Y-111377173D01*
X144665333Y-111442712D01*
X144573992Y-111475817D01*
X144522349Y-111477191D01*
X144522349Y-111477276D01*
X144519190Y-111477276D01*
X144512053Y-111477466D01*
X144510123Y-111477276D01*
X144510116Y-111477276D01*
X144372130Y-111477276D01*
X144372125Y-111477276D01*
X144236798Y-111504194D01*
X144236795Y-111504195D01*
X144109314Y-111557000D01*
X144109310Y-111557001D01*
X143994584Y-111633659D01*
X143897006Y-111731237D01*
X143820348Y-111845963D01*
X143820347Y-111845967D01*
X143767542Y-111973448D01*
X143767541Y-111973451D01*
X143740623Y-112108778D01*
X143740623Y-112246769D01*
X143767541Y-112382100D01*
X143767542Y-112382103D01*
X143773057Y-112395416D01*
X143792011Y-112490704D01*
X143773058Y-112585989D01*
X143757544Y-112623444D01*
X143757541Y-112623451D01*
X143730623Y-112758778D01*
X143730623Y-112896773D01*
X143757541Y-113032099D01*
X143771342Y-113065417D01*
X143790295Y-113160705D01*
X143771342Y-113255989D01*
X143747544Y-113313444D01*
X143747541Y-113313451D01*
X143720623Y-113448778D01*
X143720623Y-113586773D01*
X143747541Y-113722100D01*
X143747543Y-113722104D01*
X143775571Y-113789770D01*
X143794525Y-113885059D01*
X143775573Y-113980341D01*
X143769421Y-113995194D01*
X143769419Y-113995198D01*
X143742501Y-114130524D01*
X143742501Y-114268519D01*
X143769419Y-114403846D01*
X143769420Y-114403849D01*
X143790405Y-114454511D01*
X143809358Y-114549799D01*
X143804573Y-114598374D01*
X143783237Y-114705645D01*
X143780623Y-114718784D01*
X143780623Y-114856773D01*
X143807541Y-114992100D01*
X143807544Y-114992107D01*
X143817854Y-115016999D01*
X143836807Y-115112288D01*
X143817852Y-115207576D01*
X143763874Y-115288356D01*
X143683092Y-115342331D01*
X143587803Y-115361284D01*
X143509485Y-115348645D01*
X143431425Y-115322778D01*
X143431421Y-115322777D01*
X143431420Y-115322777D01*
X143328632Y-115312276D01*
X143328628Y-115312276D01*
X142553616Y-115312276D01*
X142450822Y-115322777D01*
X142284290Y-115377961D01*
X142134969Y-115470062D01*
X142134967Y-115470063D01*
X142134967Y-115470064D01*
X142079336Y-115525694D01*
X141998558Y-115579668D01*
X141903270Y-115598622D01*
X141807982Y-115579668D01*
X141727200Y-115525692D01*
X141671968Y-115470460D01*
X141671964Y-115470457D01*
X141522744Y-115378417D01*
X141522743Y-115378416D01*
X141356324Y-115323271D01*
X141356317Y-115323270D01*
X141253604Y-115312776D01*
X141116124Y-115312776D01*
X141116123Y-115312777D01*
X141116123Y-116288776D01*
X141097169Y-116384064D01*
X141043193Y-116464846D01*
X140962411Y-116518822D01*
X140867123Y-116537776D01*
X140866123Y-116537776D01*
X140866123Y-116538776D01*
X140847169Y-116634064D01*
X140793193Y-116714846D01*
X140712411Y-116768822D01*
X140617123Y-116787776D01*
X139778625Y-116787776D01*
X139778624Y-116787777D01*
X139778624Y-116828276D01*
X139759670Y-116923564D01*
X139705694Y-117004346D01*
X139669984Y-117028206D01*
X139624913Y-117058322D01*
X139529625Y-117077276D01*
X139529624Y-117077275D01*
X139529624Y-117077276D01*
X139220762Y-117077276D01*
X139125474Y-117058322D01*
X139044692Y-117004346D01*
X138994444Y-116932109D01*
X138987876Y-116917794D01*
X138851377Y-116620276D01*
X138829985Y-116541751D01*
X138821122Y-116454979D01*
X138813590Y-116432250D01*
X138801609Y-116335840D01*
X138827434Y-116242181D01*
X138887136Y-116165533D01*
X138971624Y-116117567D01*
X139068038Y-116105585D01*
X139098529Y-116109712D01*
X139212434Y-116132369D01*
X139242130Y-116138276D01*
X139380116Y-116138276D01*
X139444616Y-116125446D01*
X139481045Y-116118200D01*
X139505567Y-116118199D01*
X139529622Y-116113415D01*
X139553674Y-116118199D01*
X139578200Y-116118199D01*
X139600858Y-116127584D01*
X139624911Y-116132369D01*
X139645302Y-116145994D01*
X139667959Y-116155379D01*
X139685299Y-116172719D01*
X139705692Y-116186345D01*
X139719317Y-116206736D01*
X139736658Y-116224077D01*
X139746042Y-116246732D01*
X139759669Y-116267126D01*
X139760089Y-116269241D01*
X139778624Y-116287776D01*
X140616123Y-116287776D01*
X140616123Y-115312775D01*
X140478647Y-115312776D01*
X140375923Y-115323270D01*
X140375920Y-115323271D01*
X140284404Y-115353597D01*
X140187991Y-115365578D01*
X140094332Y-115339751D01*
X140017685Y-115280048D01*
X139976036Y-115212524D01*
X139975458Y-115211129D01*
X139931898Y-115105965D01*
X139928772Y-115101287D01*
X139855239Y-114991237D01*
X139855237Y-114991234D01*
X139757665Y-114893662D01*
X139757661Y-114893659D01*
X139642935Y-114817001D01*
X139642932Y-114817000D01*
X139605593Y-114801534D01*
X139515450Y-114764195D01*
X139515447Y-114764194D01*
X139380120Y-114737276D01*
X139380116Y-114737276D01*
X139242130Y-114737276D01*
X139242129Y-114737276D01*
X139229957Y-114738475D01*
X139229712Y-114735991D01*
X139206215Y-114735989D01*
X139163905Y-114738141D01*
X139157850Y-114735986D01*
X139151424Y-114735986D01*
X139112284Y-114719771D01*
X139072373Y-114705568D01*
X139067604Y-114701260D01*
X139061667Y-114698801D01*
X139000276Y-114640448D01*
X138845703Y-114432778D01*
X138812119Y-114387657D01*
X138775502Y-114317306D01*
X138765940Y-114288449D01*
X138765937Y-114288444D01*
X138765937Y-114288442D01*
X138673835Y-114139120D01*
X138549779Y-114015064D01*
X138546708Y-114013170D01*
X138471162Y-113966573D01*
X138400457Y-113922962D01*
X138400455Y-113922961D01*
X138400453Y-113922960D01*
X138400455Y-113922960D01*
X138233925Y-113867778D01*
X138233921Y-113867777D01*
X138233920Y-113867777D01*
X138131132Y-113857276D01*
X138131128Y-113857276D01*
X137131125Y-113857276D01*
X137131108Y-113857277D01*
X137028322Y-113867777D01*
X137028319Y-113867778D01*
X136938682Y-113897480D01*
X136938653Y-113897490D01*
X136923926Y-113902371D01*
X136889370Y-113910817D01*
X136623701Y-114017696D01*
X136621533Y-114018524D01*
X136575796Y-114026292D01*
X136530203Y-114034879D01*
X136527985Y-114034414D01*
X136525750Y-114034794D01*
X136480516Y-114024467D01*
X136435113Y-114014953D01*
X136433209Y-114013667D01*
X136431032Y-114013170D01*
X136402407Y-113992857D01*
X136356679Y-113961964D01*
X136344779Y-113950064D01*
X136344221Y-113949720D01*
X136272968Y-113905771D01*
X136195457Y-113857962D01*
X136195455Y-113857961D01*
X136195453Y-113857960D01*
X136195455Y-113857960D01*
X136028925Y-113802778D01*
X136028921Y-113802777D01*
X136028920Y-113802777D01*
X135926132Y-113792276D01*
X135926128Y-113792276D01*
X134876125Y-113792276D01*
X134876108Y-113792277D01*
X134773322Y-113802777D01*
X134606791Y-113857960D01*
X134605852Y-113858399D01*
X134604389Y-113858756D01*
X134593024Y-113862523D01*
X134592722Y-113861611D01*
X134511481Y-113881490D01*
X134415457Y-113866710D01*
X134332398Y-113816308D01*
X134274950Y-113737957D01*
X134251859Y-113643586D01*
X134251622Y-113632727D01*
X134251622Y-113209910D01*
X134251622Y-113209904D01*
X134245214Y-113150293D01*
X134194919Y-113015445D01*
X134108669Y-112900230D01*
X133993454Y-112813980D01*
X133913240Y-112784062D01*
X133858604Y-112763684D01*
X133798996Y-112757276D01*
X132103257Y-112757276D01*
X132103253Y-112757276D01*
X132103251Y-112757277D01*
X132090437Y-112758654D01*
X132043642Y-112763684D01*
X132043638Y-112763685D01*
X131908793Y-112813979D01*
X131793578Y-112900229D01*
X131793576Y-112900231D01*
X131707327Y-113015445D01*
X131657031Y-113150294D01*
X131650623Y-113209899D01*
X131650623Y-114705641D01*
X131650623Y-114705644D01*
X131650624Y-114705648D01*
X131651733Y-114715963D01*
X131657031Y-114765256D01*
X131657032Y-114765260D01*
X131698020Y-114875154D01*
X131707327Y-114900107D01*
X131793577Y-115015322D01*
X131908792Y-115101572D01*
X132043640Y-115151867D01*
X132103250Y-115158276D01*
X133057825Y-115158275D01*
X133153113Y-115177229D01*
X133233894Y-115231205D01*
X133335396Y-115332706D01*
X133389373Y-115413487D01*
X133408327Y-115508775D01*
X133389373Y-115604063D01*
X133335397Y-115684845D01*
X133254616Y-115738822D01*
X133211502Y-115747397D01*
X133201123Y-115757777D01*
X133201123Y-116707775D01*
X133201124Y-116707776D01*
X134013786Y-116707776D01*
X134026762Y-116705276D01*
X135152123Y-116705276D01*
X135247411Y-116724230D01*
X135328193Y-116778206D01*
X135382169Y-116858988D01*
X135401123Y-116954276D01*
X135401123Y-116955276D01*
X135402123Y-116955276D01*
X135497411Y-116974230D01*
X135578193Y-117028206D01*
X135632169Y-117108988D01*
X135651123Y-117204276D01*
X135651123Y-118042774D01*
X135651124Y-118042775D01*
X135926091Y-118042775D01*
X135926107Y-118042774D01*
X136028822Y-118032281D01*
X136028825Y-118032280D01*
X136195242Y-117977135D01*
X136195244Y-117977134D01*
X136344463Y-117885095D01*
X136344683Y-117884876D01*
X136345058Y-117884624D01*
X136355847Y-117876095D01*
X136356529Y-117876958D01*
X136425459Y-117830892D01*
X136520745Y-117811929D01*
X136616035Y-117830874D01*
X136696822Y-117884843D01*
X136712467Y-117900488D01*
X136861789Y-117992590D01*
X136861792Y-117992591D01*
X136861790Y-117992591D01*
X136980708Y-118031996D01*
X137028326Y-118047775D01*
X137131114Y-118058276D01*
X137358428Y-118058275D01*
X137400520Y-118061859D01*
X137946831Y-118155559D01*
X138029237Y-118185333D01*
X138119339Y-118237353D01*
X138119341Y-118237353D01*
X138119342Y-118237354D01*
X138272066Y-118278277D01*
X138445442Y-118278277D01*
X138445458Y-118278276D01*
X138657595Y-118278276D01*
X138678662Y-118279168D01*
X138680029Y-118279285D01*
X138768645Y-118278291D01*
X138771435Y-118278276D01*
X141706789Y-118278276D01*
X141706805Y-118278277D01*
X141722066Y-118278277D01*
X141880179Y-118278277D01*
X141880180Y-118278277D01*
X142032908Y-118237353D01*
X142077562Y-118211572D01*
X142099362Y-118198986D01*
X142099363Y-118198984D01*
X142119420Y-118187405D01*
X142169839Y-118158296D01*
X142281643Y-118046492D01*
X142281644Y-118046489D01*
X142443509Y-117884624D01*
X142491929Y-117836205D01*
X142572710Y-117782229D01*
X142667998Y-117763275D01*
X143328629Y-117763275D01*
X143328631Y-117763275D01*
X143431420Y-117752775D01*
X143597957Y-117697590D01*
X143747279Y-117605488D01*
X143871335Y-117481432D01*
X143963437Y-117332110D01*
X143971111Y-117308952D01*
X144019076Y-117224463D01*
X144095723Y-117164760D01*
X144189382Y-117138934D01*
X144207472Y-117138276D01*
X146710835Y-117138276D01*
X146806123Y-117157230D01*
X146809311Y-117158550D01*
X146809312Y-117158551D01*
X146936795Y-117211356D01*
X146936798Y-117211357D01*
X147039196Y-117231725D01*
X147072130Y-117238276D01*
X147210116Y-117238276D01*
X147243044Y-117231725D01*
X147267568Y-117231725D01*
X147291623Y-117226941D01*
X147315675Y-117231725D01*
X147340198Y-117231725D01*
X147362856Y-117241110D01*
X147386911Y-117245895D01*
X147407302Y-117259520D01*
X147429958Y-117268904D01*
X147447298Y-117286244D01*
X147467693Y-117299871D01*
X147481317Y-117320262D01*
X147498658Y-117337602D01*
X147508044Y-117360261D01*
X147521669Y-117380653D01*
X147526453Y-117404704D01*
X147535838Y-117427361D01*
X147540623Y-117475941D01*
X147540623Y-117730090D01*
X147522278Y-117822318D01*
X147521669Y-117825377D01*
X147467600Y-117955912D01*
X147467597Y-117955919D01*
X147440679Y-118091246D01*
X147440679Y-118229241D01*
X147467597Y-118364568D01*
X147467598Y-118364571D01*
X147520403Y-118492052D01*
X147520404Y-118492056D01*
X147572832Y-118570519D01*
X147597065Y-118606786D01*
X147694637Y-118704358D01*
X147694640Y-118704360D01*
X147809366Y-118781018D01*
X147809368Y-118781019D01*
X147927906Y-118830119D01*
X147936851Y-118833824D01*
X147936854Y-118833825D01*
X148070382Y-118860385D01*
X148072186Y-118860744D01*
X148210172Y-118860744D01*
X148277839Y-118847284D01*
X148345503Y-118833825D01*
X148345504Y-118833824D01*
X148345507Y-118833824D01*
X148472990Y-118781019D01*
X148587721Y-118704358D01*
X148685293Y-118606786D01*
X148761954Y-118492055D01*
X148814759Y-118364572D01*
X148820357Y-118336432D01*
X148840064Y-118237354D01*
X148841679Y-118229237D01*
X148841679Y-118091251D01*
X148832130Y-118043247D01*
X148814747Y-117955854D01*
X148814746Y-117858699D01*
X148851926Y-117768939D01*
X148920625Y-117700240D01*
X149010384Y-117663061D01*
X149058962Y-117658276D01*
X155051048Y-117658276D01*
X155146336Y-117677230D01*
X155227118Y-117731206D01*
X155262975Y-117776555D01*
X155318411Y-117866432D01*
X155442467Y-117990488D01*
X155591789Y-118082590D01*
X155591792Y-118082591D01*
X155591790Y-118082591D01*
X155755433Y-118136816D01*
X155758326Y-118137775D01*
X155861114Y-118148276D01*
X156861131Y-118148275D01*
X156963920Y-118137775D01*
X157130457Y-118082590D01*
X157279779Y-117990488D01*
X157308806Y-117961460D01*
X157389585Y-117907487D01*
X157484873Y-117888533D01*
X157580161Y-117907487D01*
X157660939Y-117961460D01*
X157687467Y-117987988D01*
X157836789Y-118080090D01*
X157836792Y-118080091D01*
X157836790Y-118080091D01*
X157973284Y-118125320D01*
X158003326Y-118135275D01*
X158106114Y-118145776D01*
X159156131Y-118145775D01*
X159258920Y-118135275D01*
X159425457Y-118080090D01*
X159501497Y-118033187D01*
X159592546Y-117999297D01*
X159689637Y-118002829D01*
X159777986Y-118043247D01*
X159831546Y-118095894D01*
X159853571Y-118125315D01*
X159853574Y-118125318D01*
X159853577Y-118125322D01*
X159968792Y-118211572D01*
X160103640Y-118261867D01*
X160163250Y-118268276D01*
X161858995Y-118268275D01*
X161918606Y-118261867D01*
X162053454Y-118211572D01*
X162168669Y-118125322D01*
X162254919Y-118010107D01*
X162305214Y-117875259D01*
X162311623Y-117815649D01*
X162311622Y-116319904D01*
X162311621Y-116319899D01*
X166910623Y-116319899D01*
X166910623Y-117815641D01*
X166910623Y-117815644D01*
X166910624Y-117815648D01*
X166911341Y-117822318D01*
X166917031Y-117875256D01*
X166917032Y-117875260D01*
X166960794Y-117992591D01*
X166967327Y-118010107D01*
X167053577Y-118125322D01*
X167168792Y-118211572D01*
X167303640Y-118261867D01*
X167363250Y-118268276D01*
X169058995Y-118268275D01*
X169118606Y-118261867D01*
X169253454Y-118211572D01*
X169368669Y-118125322D01*
X169454919Y-118010107D01*
X169505214Y-117875259D01*
X169511623Y-117815649D01*
X169511622Y-116377777D01*
X173546124Y-116377777D01*
X173546124Y-116552760D01*
X173556617Y-116655475D01*
X173556618Y-116655478D01*
X173611763Y-116821895D01*
X173611764Y-116821897D01*
X173703804Y-116971117D01*
X173703807Y-116971121D01*
X173827777Y-117095091D01*
X173827781Y-117095094D01*
X173977001Y-117187134D01*
X173977002Y-117187135D01*
X174143421Y-117242280D01*
X174143428Y-117242281D01*
X174246146Y-117252775D01*
X174671123Y-117252775D01*
X174671123Y-116377777D01*
X175171123Y-116377777D01*
X175171123Y-117252774D01*
X175171124Y-117252775D01*
X175596091Y-117252775D01*
X175596107Y-117252774D01*
X175698822Y-117242281D01*
X175698825Y-117242280D01*
X175865242Y-117187135D01*
X175865244Y-117187134D01*
X176014464Y-117095094D01*
X176014467Y-117095092D01*
X176100051Y-117009508D01*
X176180833Y-116955531D01*
X176276121Y-116936577D01*
X176371409Y-116955530D01*
X176452191Y-117009506D01*
X176527777Y-117085092D01*
X176527781Y-117085095D01*
X176677001Y-117177135D01*
X176677002Y-117177136D01*
X176843421Y-117232281D01*
X176843428Y-117232282D01*
X176946146Y-117242776D01*
X177371123Y-117242776D01*
X177371123Y-116367778D01*
X177871123Y-116367778D01*
X177871123Y-117242775D01*
X177871124Y-117242776D01*
X178296091Y-117242776D01*
X178296107Y-117242775D01*
X178398822Y-117232282D01*
X178398825Y-117232281D01*
X178565242Y-117177136D01*
X178565244Y-117177135D01*
X178714464Y-117085095D01*
X178714468Y-117085092D01*
X178838438Y-116961122D01*
X178838441Y-116961118D01*
X178930481Y-116811898D01*
X178930482Y-116811897D01*
X178985627Y-116645478D01*
X178985628Y-116645471D01*
X178996122Y-116542758D01*
X178996123Y-116542748D01*
X178996123Y-116367778D01*
X178996122Y-116367777D01*
X177871124Y-116367777D01*
X177871123Y-116367778D01*
X177371123Y-116367778D01*
X177371122Y-116367777D01*
X176488253Y-116367777D01*
X176437985Y-116377776D01*
X175171124Y-116377776D01*
X175171123Y-116377777D01*
X174671123Y-116377777D01*
X174671122Y-116377776D01*
X173546125Y-116377776D01*
X173546124Y-116377777D01*
X169511622Y-116377777D01*
X169511622Y-116319904D01*
X169505214Y-116260293D01*
X169454919Y-116125445D01*
X169368669Y-116010230D01*
X169253454Y-115923980D01*
X169168955Y-115892464D01*
X169118604Y-115873684D01*
X169058996Y-115867276D01*
X167363257Y-115867276D01*
X167363253Y-115867276D01*
X167363251Y-115867277D01*
X167353958Y-115868276D01*
X167303642Y-115873684D01*
X167303638Y-115873685D01*
X167168793Y-115923979D01*
X167053578Y-116010229D01*
X167053576Y-116010231D01*
X166967327Y-116125445D01*
X166917031Y-116260294D01*
X166910623Y-116319899D01*
X162311621Y-116319899D01*
X162305214Y-116260293D01*
X162254919Y-116125445D01*
X162168669Y-116010230D01*
X162053454Y-115923980D01*
X161968955Y-115892464D01*
X161918604Y-115873684D01*
X161858996Y-115867276D01*
X160163257Y-115867276D01*
X160163253Y-115867276D01*
X160163251Y-115867277D01*
X160103640Y-115873685D01*
X160088151Y-115875350D01*
X160088070Y-115874604D01*
X160080801Y-115876815D01*
X160048660Y-115873670D01*
X160016387Y-115874822D01*
X160000733Y-115868982D01*
X159984107Y-115867356D01*
X159955614Y-115852150D01*
X159925360Y-115840864D01*
X159913134Y-115829480D01*
X159898394Y-115821614D01*
X159877889Y-115796662D01*
X159854256Y-115774657D01*
X159847316Y-115759460D01*
X159836710Y-115746553D01*
X159827314Y-115715654D01*
X159821442Y-115702794D01*
X173546123Y-115702794D01*
X173546123Y-115877775D01*
X173546124Y-115877776D01*
X174671122Y-115877776D01*
X174671123Y-115877775D01*
X174671123Y-115002777D01*
X175171123Y-115002777D01*
X175171123Y-115877775D01*
X175171124Y-115877776D01*
X176053993Y-115877776D01*
X176104261Y-115867777D01*
X177371122Y-115867777D01*
X177371123Y-115867776D01*
X177371123Y-114992778D01*
X177871123Y-114992778D01*
X177871123Y-115867776D01*
X177871124Y-115867777D01*
X178996121Y-115867777D01*
X178996122Y-115867776D01*
X178996122Y-115692807D01*
X178996121Y-115692792D01*
X178985628Y-115590077D01*
X178985627Y-115590074D01*
X178930482Y-115423657D01*
X178930481Y-115423655D01*
X178838441Y-115274435D01*
X178838438Y-115274431D01*
X178714468Y-115150461D01*
X178714464Y-115150458D01*
X178571844Y-115062489D01*
X178571843Y-115062488D01*
X178565246Y-115058419D01*
X178565243Y-115058417D01*
X178398824Y-115003272D01*
X178398817Y-115003271D01*
X178296104Y-114992777D01*
X177871124Y-114992777D01*
X177871123Y-114992778D01*
X177371123Y-114992778D01*
X177371122Y-114992777D01*
X176946147Y-114992777D01*
X176843423Y-115003271D01*
X176843420Y-115003272D01*
X176677003Y-115058417D01*
X176677001Y-115058418D01*
X176527781Y-115150458D01*
X176527777Y-115150461D01*
X176442192Y-115236046D01*
X176361410Y-115290022D01*
X176266122Y-115308975D01*
X176170834Y-115290021D01*
X176090053Y-115236045D01*
X176014468Y-115160460D01*
X176014464Y-115160457D01*
X175865244Y-115068417D01*
X175865243Y-115068416D01*
X175698824Y-115013271D01*
X175698817Y-115013270D01*
X175596104Y-115002776D01*
X175171124Y-115002776D01*
X175171123Y-115002777D01*
X174671123Y-115002777D01*
X174671122Y-115002776D01*
X174246147Y-115002776D01*
X174143423Y-115013270D01*
X174143420Y-115013271D01*
X173977003Y-115068416D01*
X173977001Y-115068417D01*
X173827781Y-115160457D01*
X173827777Y-115160460D01*
X173703807Y-115284430D01*
X173703804Y-115284434D01*
X173611764Y-115433654D01*
X173611763Y-115433655D01*
X173556618Y-115600074D01*
X173556617Y-115600081D01*
X173546123Y-115702794D01*
X159821442Y-115702794D01*
X159813902Y-115686280D01*
X159813306Y-115669585D01*
X159808446Y-115653600D01*
X159811693Y-115624352D01*
X159810439Y-115589186D01*
X159817905Y-115556906D01*
X159853759Y-115438430D01*
X159865526Y-115416379D01*
X159872858Y-115392483D01*
X159888176Y-115373937D01*
X159899501Y-115352717D01*
X159918812Y-115336847D01*
X159934730Y-115317576D01*
X159955978Y-115306304D01*
X159974562Y-115291033D01*
X159998477Y-115283761D01*
X160020557Y-115272049D01*
X160044500Y-115269766D01*
X160067515Y-115262769D01*
X160092391Y-115265202D01*
X160117274Y-115262831D01*
X160118706Y-115262981D01*
X160163299Y-115267776D01*
X160761122Y-115267776D01*
X160761123Y-115267775D01*
X160761123Y-114317777D01*
X161261123Y-114317777D01*
X161261123Y-115267775D01*
X161261124Y-115267776D01*
X161858948Y-115267776D01*
X161858955Y-115267775D01*
X161918494Y-115261374D01*
X161918501Y-115261372D01*
X162053210Y-115211129D01*
X162168310Y-115124965D01*
X162168312Y-115124963D01*
X162254476Y-115009863D01*
X162304719Y-114875154D01*
X162304721Y-114875147D01*
X162311122Y-114815608D01*
X162311123Y-114815601D01*
X162311123Y-114317777D01*
X166911123Y-114317777D01*
X166911123Y-114815608D01*
X166917524Y-114875147D01*
X166917526Y-114875154D01*
X166967769Y-115009863D01*
X167053933Y-115124963D01*
X167053935Y-115124965D01*
X167169035Y-115211129D01*
X167303744Y-115261372D01*
X167303751Y-115261374D01*
X167363290Y-115267775D01*
X167363298Y-115267776D01*
X167961122Y-115267776D01*
X167961123Y-115267775D01*
X167961123Y-114317777D01*
X168461123Y-114317777D01*
X168461123Y-115267775D01*
X168461124Y-115267776D01*
X169058948Y-115267776D01*
X169058955Y-115267775D01*
X169118494Y-115261374D01*
X169118501Y-115261372D01*
X169253210Y-115211129D01*
X169368310Y-115124965D01*
X169368312Y-115124963D01*
X169454476Y-115009863D01*
X169504719Y-114875154D01*
X169504721Y-114875147D01*
X169506488Y-114858712D01*
X186469500Y-114858712D01*
X186469500Y-115101288D01*
X186477290Y-115160457D01*
X186501162Y-115341790D01*
X186501163Y-115341795D01*
X186563940Y-115576082D01*
X186563948Y-115576105D01*
X186656770Y-115800201D01*
X186656778Y-115800217D01*
X186778058Y-116010279D01*
X186778064Y-116010289D01*
X186925729Y-116202731D01*
X186925738Y-116202741D01*
X187097258Y-116374261D01*
X187097268Y-116374270D01*
X187144022Y-116410145D01*
X187289711Y-116521936D01*
X187325776Y-116542758D01*
X187499782Y-116643221D01*
X187499798Y-116643229D01*
X187639858Y-116701242D01*
X187723900Y-116736054D01*
X187723911Y-116736057D01*
X187723917Y-116736059D01*
X187874994Y-116776540D01*
X187958211Y-116798838D01*
X188198712Y-116830500D01*
X188441288Y-116830500D01*
X188681789Y-116798838D01*
X188843275Y-116755567D01*
X188916082Y-116736059D01*
X188916084Y-116736058D01*
X188916100Y-116736054D01*
X189067766Y-116673231D01*
X189140201Y-116643229D01*
X189140206Y-116643226D01*
X189140212Y-116643224D01*
X189350289Y-116521936D01*
X189542738Y-116374265D01*
X189714265Y-116202738D01*
X189861936Y-116010289D01*
X189983224Y-115800212D01*
X189984695Y-115796662D01*
X190018249Y-115715654D01*
X190076054Y-115576100D01*
X190090790Y-115521107D01*
X190101799Y-115480019D01*
X190138838Y-115341789D01*
X190170500Y-115101288D01*
X190170500Y-114858712D01*
X197329500Y-114858712D01*
X197329500Y-115101288D01*
X197337290Y-115160457D01*
X197361162Y-115341790D01*
X197361163Y-115341795D01*
X197423940Y-115576082D01*
X197423948Y-115576105D01*
X197516770Y-115800201D01*
X197516778Y-115800217D01*
X197638058Y-116010279D01*
X197638064Y-116010289D01*
X197785729Y-116202731D01*
X197785738Y-116202741D01*
X197957258Y-116374261D01*
X197957268Y-116374270D01*
X198004022Y-116410145D01*
X198149711Y-116521936D01*
X198185776Y-116542758D01*
X198359782Y-116643221D01*
X198359798Y-116643229D01*
X198499858Y-116701242D01*
X198583900Y-116736054D01*
X198583911Y-116736057D01*
X198583917Y-116736059D01*
X198734994Y-116776540D01*
X198818211Y-116798838D01*
X199058712Y-116830500D01*
X199301288Y-116830500D01*
X199541789Y-116798838D01*
X199703275Y-116755567D01*
X199776082Y-116736059D01*
X199776084Y-116736058D01*
X199776100Y-116736054D01*
X199927766Y-116673231D01*
X200000201Y-116643229D01*
X200000206Y-116643226D01*
X200000212Y-116643224D01*
X200210289Y-116521936D01*
X200402738Y-116374265D01*
X200574265Y-116202738D01*
X200721936Y-116010289D01*
X200843224Y-115800212D01*
X200844695Y-115796662D01*
X200878249Y-115715654D01*
X200936054Y-115576100D01*
X200950790Y-115521107D01*
X200961799Y-115480019D01*
X200998838Y-115341789D01*
X201030500Y-115101288D01*
X201030500Y-114858712D01*
X200998838Y-114618211D01*
X200971926Y-114517775D01*
X200936059Y-114383917D01*
X200936057Y-114383911D01*
X200936054Y-114383900D01*
X200888260Y-114268515D01*
X200843229Y-114159798D01*
X200843221Y-114159782D01*
X200722140Y-113950064D01*
X200721936Y-113949711D01*
X200645108Y-113849587D01*
X200574270Y-113757268D01*
X200574261Y-113757258D01*
X200402741Y-113585738D01*
X200402731Y-113585729D01*
X200210289Y-113438064D01*
X200210279Y-113438058D01*
X200000217Y-113316778D01*
X200000201Y-113316770D01*
X199776105Y-113223948D01*
X199776103Y-113223947D01*
X199776100Y-113223946D01*
X199776096Y-113223945D01*
X199776082Y-113223940D01*
X199541795Y-113161163D01*
X199541790Y-113161162D01*
X199301288Y-113129500D01*
X199058712Y-113129500D01*
X198818209Y-113161162D01*
X198818204Y-113161163D01*
X198583917Y-113223940D01*
X198583894Y-113223948D01*
X198359798Y-113316770D01*
X198359782Y-113316778D01*
X198149720Y-113438058D01*
X198149710Y-113438064D01*
X197957268Y-113585729D01*
X197957258Y-113585738D01*
X197785738Y-113757258D01*
X197785729Y-113757268D01*
X197638064Y-113949710D01*
X197638058Y-113949720D01*
X197516778Y-114159782D01*
X197516770Y-114159798D01*
X197423948Y-114383894D01*
X197423940Y-114383917D01*
X197361163Y-114618204D01*
X197361162Y-114618209D01*
X197331509Y-114843451D01*
X197329500Y-114858712D01*
X190170500Y-114858712D01*
X190138838Y-114618211D01*
X190111926Y-114517775D01*
X190076059Y-114383917D01*
X190076057Y-114383911D01*
X190076054Y-114383900D01*
X190028260Y-114268515D01*
X189983229Y-114159798D01*
X189983221Y-114159782D01*
X189862140Y-113950064D01*
X189861936Y-113949711D01*
X189785108Y-113849587D01*
X189714270Y-113757268D01*
X189714261Y-113757258D01*
X189542741Y-113585738D01*
X189542731Y-113585729D01*
X189350289Y-113438064D01*
X189350279Y-113438058D01*
X189140217Y-113316778D01*
X189140201Y-113316770D01*
X188916105Y-113223948D01*
X188916103Y-113223947D01*
X188916100Y-113223946D01*
X188916096Y-113223945D01*
X188916082Y-113223940D01*
X188681795Y-113161163D01*
X188681790Y-113161162D01*
X188441288Y-113129500D01*
X188198712Y-113129500D01*
X187958209Y-113161162D01*
X187958204Y-113161163D01*
X187723917Y-113223940D01*
X187723894Y-113223948D01*
X187499798Y-113316770D01*
X187499782Y-113316778D01*
X187289720Y-113438058D01*
X187289710Y-113438064D01*
X187097268Y-113585729D01*
X187097258Y-113585738D01*
X186925738Y-113757258D01*
X186925729Y-113757268D01*
X186778064Y-113949710D01*
X186778058Y-113949720D01*
X186656778Y-114159782D01*
X186656770Y-114159798D01*
X186563948Y-114383894D01*
X186563940Y-114383917D01*
X186501163Y-114618204D01*
X186501162Y-114618209D01*
X186471509Y-114843451D01*
X186469500Y-114858712D01*
X169506488Y-114858712D01*
X169511122Y-114815608D01*
X169511123Y-114815601D01*
X169511123Y-114317777D01*
X169511122Y-114317776D01*
X168461124Y-114317776D01*
X168461123Y-114317777D01*
X167961123Y-114317777D01*
X167961122Y-114317776D01*
X166911124Y-114317776D01*
X166911123Y-114317777D01*
X162311123Y-114317777D01*
X162311122Y-114317776D01*
X161261124Y-114317776D01*
X161261123Y-114317777D01*
X160761123Y-114317777D01*
X160761123Y-112867777D01*
X161261123Y-112867777D01*
X161261123Y-113817775D01*
X161261124Y-113817776D01*
X162311122Y-113817776D01*
X162311123Y-113817775D01*
X162311123Y-113319951D01*
X162311122Y-113319943D01*
X166911123Y-113319943D01*
X166911123Y-113817775D01*
X166911124Y-113817776D01*
X167961122Y-113817776D01*
X167961123Y-113817775D01*
X167961123Y-112867777D01*
X168461123Y-112867777D01*
X168461123Y-113817775D01*
X168461124Y-113817776D01*
X169511122Y-113817776D01*
X169511123Y-113817775D01*
X169511123Y-113319951D01*
X169511122Y-113319943D01*
X169504721Y-113260404D01*
X169504719Y-113260397D01*
X169454476Y-113125688D01*
X169368312Y-113010588D01*
X169368310Y-113010586D01*
X169253210Y-112924422D01*
X169118501Y-112874179D01*
X169118494Y-112874177D01*
X169058955Y-112867776D01*
X168461124Y-112867776D01*
X168461123Y-112867777D01*
X167961123Y-112867777D01*
X167961122Y-112867776D01*
X167363290Y-112867776D01*
X167303751Y-112874177D01*
X167303744Y-112874179D01*
X167169035Y-112924422D01*
X167053935Y-113010586D01*
X167053933Y-113010588D01*
X166967769Y-113125688D01*
X166917526Y-113260397D01*
X166917524Y-113260404D01*
X166911123Y-113319943D01*
X162311122Y-113319943D01*
X162304721Y-113260404D01*
X162304719Y-113260397D01*
X162254476Y-113125688D01*
X162168312Y-113010588D01*
X162168310Y-113010586D01*
X162053210Y-112924422D01*
X161918501Y-112874179D01*
X161918494Y-112874177D01*
X161858955Y-112867776D01*
X161261124Y-112867776D01*
X161261123Y-112867777D01*
X160761123Y-112867777D01*
X160761122Y-112867776D01*
X160163290Y-112867776D01*
X160103751Y-112874177D01*
X160103744Y-112874179D01*
X159969035Y-112924422D01*
X159853935Y-113010586D01*
X159853933Y-113010588D01*
X159767769Y-113125688D01*
X159717526Y-113260397D01*
X159717524Y-113260404D01*
X159711123Y-113319943D01*
X159711123Y-113710823D01*
X159692169Y-113806111D01*
X159638193Y-113886893D01*
X159557411Y-113940869D01*
X159462123Y-113959823D01*
X159383802Y-113947185D01*
X159258818Y-113905770D01*
X159156104Y-113895276D01*
X158881124Y-113895276D01*
X158881123Y-113895277D01*
X158881123Y-114733776D01*
X158862169Y-114829064D01*
X158808193Y-114909846D01*
X158727411Y-114963822D01*
X158632123Y-114982776D01*
X158630123Y-114982776D01*
X158534835Y-114963822D01*
X158454053Y-114909846D01*
X158400077Y-114829064D01*
X158381123Y-114733776D01*
X158381123Y-113895277D01*
X158381122Y-113895276D01*
X158106147Y-113895276D01*
X158003423Y-113905770D01*
X158003420Y-113905771D01*
X157837003Y-113960916D01*
X157837001Y-113960917D01*
X157687781Y-114052957D01*
X157687777Y-114052960D01*
X157633796Y-114106942D01*
X157553014Y-114160918D01*
X157457726Y-114179872D01*
X157362438Y-114160918D01*
X157318666Y-114137423D01*
X157298687Y-114123972D01*
X157279779Y-114105064D01*
X157170322Y-114037551D01*
X157166205Y-114034779D01*
X157135408Y-114003766D01*
X157103396Y-113974001D01*
X157101298Y-113969416D01*
X157097747Y-113965840D01*
X157081163Y-113925405D01*
X157062977Y-113885653D01*
X157062793Y-113880614D01*
X157060881Y-113875951D01*
X157061033Y-113832241D01*
X157059445Y-113788562D01*
X157061051Y-113779644D01*
X157061623Y-113776769D01*
X157061623Y-113638783D01*
X157057822Y-113619676D01*
X157034704Y-113503451D01*
X157034703Y-113503448D01*
X157012058Y-113448778D01*
X156981898Y-113375965D01*
X156973339Y-113363156D01*
X156905239Y-113261237D01*
X156905237Y-113261234D01*
X156807665Y-113163662D01*
X156803925Y-113161163D01*
X156692935Y-113087001D01*
X156692932Y-113087000D01*
X156651047Y-113069651D01*
X156565450Y-113034195D01*
X156565447Y-113034194D01*
X156430120Y-113007276D01*
X156430116Y-113007276D01*
X156292130Y-113007276D01*
X156292125Y-113007276D01*
X156156798Y-113034194D01*
X156156795Y-113034195D01*
X156029314Y-113087000D01*
X156029310Y-113087001D01*
X155914584Y-113163659D01*
X155817006Y-113261237D01*
X155740348Y-113375963D01*
X155740347Y-113375967D01*
X155687542Y-113503448D01*
X155687541Y-113503451D01*
X155660623Y-113638778D01*
X155660623Y-113776768D01*
X155660624Y-113776778D01*
X155661197Y-113779660D01*
X155661196Y-113782595D01*
X155661822Y-113788942D01*
X155661196Y-113789003D01*
X155661194Y-113876815D01*
X155624010Y-113966573D01*
X155588651Y-114008589D01*
X155569820Y-114026512D01*
X155442467Y-114105064D01*
X155318411Y-114229120D01*
X155263607Y-114317971D01*
X155240264Y-114340190D01*
X155225922Y-114349268D01*
X155214364Y-114361700D01*
X155185235Y-114375025D01*
X155158175Y-114392156D01*
X155141450Y-114395055D01*
X155126015Y-114402117D01*
X155094006Y-114403281D01*
X155062448Y-114408753D01*
X155045888Y-114405031D01*
X155028925Y-114405649D01*
X154973307Y-114389876D01*
X154935450Y-114374195D01*
X154935447Y-114374194D01*
X154800120Y-114347276D01*
X154800116Y-114347276D01*
X154662130Y-114347276D01*
X154662125Y-114347276D01*
X154526798Y-114374194D01*
X154526795Y-114374195D01*
X154399314Y-114427000D01*
X154399310Y-114427001D01*
X154284584Y-114503659D01*
X154187006Y-114601237D01*
X154110348Y-114715963D01*
X154110347Y-114715967D01*
X154057542Y-114843448D01*
X154057541Y-114843451D01*
X154030623Y-114978778D01*
X154030623Y-115116773D01*
X154057541Y-115252100D01*
X154057542Y-115252103D01*
X154086817Y-115322778D01*
X154109863Y-115378417D01*
X154110347Y-115379584D01*
X154110348Y-115379588D01*
X154185923Y-115492693D01*
X154187009Y-115494318D01*
X154284581Y-115591890D01*
X154284584Y-115591892D01*
X154399310Y-115668550D01*
X154399312Y-115668551D01*
X154513029Y-115715654D01*
X154526795Y-115721356D01*
X154526798Y-115721357D01*
X154630317Y-115741948D01*
X154662130Y-115748276D01*
X154800116Y-115748276D01*
X154915523Y-115725320D01*
X154935447Y-115721357D01*
X154935447Y-115721356D01*
X154935451Y-115721356D01*
X154973304Y-115705676D01*
X154994310Y-115701498D01*
X155013884Y-115692807D01*
X155041498Y-115692111D01*
X155068592Y-115686722D01*
X155089598Y-115690900D01*
X155111008Y-115690361D01*
X155136784Y-115700285D01*
X155163880Y-115705675D01*
X155181690Y-115717575D01*
X155201675Y-115725270D01*
X155218167Y-115741948D01*
X155244662Y-115759651D01*
X155272081Y-115792218D01*
X155276505Y-115798491D01*
X155318411Y-115866432D01*
X155338790Y-115886811D01*
X155351104Y-115904272D01*
X155362313Y-115929516D01*
X155377662Y-115952488D01*
X155381840Y-115973494D01*
X155390531Y-115993067D01*
X155391226Y-116020680D01*
X155396616Y-116047776D01*
X155392437Y-116068781D01*
X155392977Y-116090191D01*
X155383051Y-116115970D01*
X155377662Y-116143064D01*
X155365762Y-116160872D01*
X155358068Y-116180858D01*
X155339035Y-116200873D01*
X155323688Y-116223842D01*
X155319261Y-116228270D01*
X155318409Y-116229122D01*
X155278801Y-116293339D01*
X155261202Y-116321872D01*
X155250641Y-116338994D01*
X155184485Y-116410145D01*
X155096137Y-116450564D01*
X155038712Y-116457276D01*
X148990623Y-116457276D01*
X148895335Y-116438322D01*
X148814553Y-116384346D01*
X148760577Y-116303564D01*
X148741623Y-116208276D01*
X148741623Y-116147200D01*
X148760577Y-116051912D01*
X148814553Y-115971130D01*
X148895335Y-115917154D01*
X148990623Y-115898200D01*
X149026050Y-115900733D01*
X149061123Y-115905776D01*
X149061128Y-115905776D01*
X149221116Y-115905776D01*
X149221123Y-115905776D01*
X149275164Y-115902879D01*
X149414575Y-115867295D01*
X149449930Y-115852650D01*
X149544771Y-115800863D01*
X149650078Y-115702821D01*
X149723497Y-115579083D01*
X149738142Y-115543728D01*
X149756147Y-115492692D01*
X149774213Y-115367038D01*
X149779615Y-115351724D01*
X149780846Y-115335532D01*
X149795637Y-115306308D01*
X149806534Y-115275420D01*
X149817385Y-115263338D01*
X149824720Y-115248848D01*
X149849567Y-115227510D01*
X149871456Y-115203142D01*
X149886107Y-115196132D01*
X149898427Y-115185553D01*
X149923448Y-115178266D01*
X149959097Y-115161211D01*
X149990746Y-115155282D01*
X149999014Y-115154280D01*
X150025164Y-115152879D01*
X150038316Y-115149521D01*
X150054337Y-115147582D01*
X150064026Y-115148318D01*
X150084269Y-115145776D01*
X151030230Y-115145776D01*
X151090652Y-115133757D01*
X151151075Y-115121739D01*
X151184415Y-115107928D01*
X151197699Y-115102425D01*
X151197702Y-115102425D01*
X151264904Y-115074590D01*
X151264903Y-115074590D01*
X151264909Y-115074588D01*
X151327383Y-115032843D01*
X151367356Y-115006134D01*
X151454481Y-114919009D01*
X151454483Y-114919005D01*
X155547283Y-110826206D01*
X155628065Y-110772230D01*
X155723353Y-110753276D01*
X163611191Y-110753276D01*
X163706478Y-110772230D01*
X163716864Y-110776531D01*
X163776795Y-110801356D01*
X163776797Y-110801356D01*
X163776799Y-110801357D01*
X163901723Y-110826206D01*
X163912130Y-110828276D01*
X164050116Y-110828276D01*
X164185451Y-110801356D01*
X164249287Y-110774914D01*
X164255768Y-110772230D01*
X164351055Y-110753276D01*
X168330607Y-110753276D01*
X168425895Y-110772230D01*
X168506677Y-110826206D01*
X168547988Y-110885203D01*
X168548696Y-110884767D01*
X168556186Y-110896910D01*
X168556274Y-110897036D01*
X168556306Y-110897105D01*
X168642438Y-111036749D01*
X168648411Y-111046432D01*
X168772467Y-111170488D01*
X168921789Y-111262590D01*
X168921792Y-111262591D01*
X168921790Y-111262591D01*
X169050205Y-111305143D01*
X169088326Y-111317775D01*
X169191114Y-111328276D01*
X169991131Y-111328275D01*
X170093920Y-111317775D01*
X170260457Y-111262590D01*
X170409779Y-111170488D01*
X170415056Y-111165210D01*
X170495835Y-111111237D01*
X170591123Y-111092283D01*
X170686411Y-111111237D01*
X170767189Y-111165210D01*
X170772467Y-111170488D01*
X170921789Y-111262590D01*
X170921792Y-111262591D01*
X170921790Y-111262591D01*
X171050205Y-111305143D01*
X171088326Y-111317775D01*
X171191114Y-111328276D01*
X171991131Y-111328275D01*
X172093920Y-111317775D01*
X172260457Y-111262590D01*
X172409779Y-111170488D01*
X172533835Y-111046432D01*
X172533836Y-111046429D01*
X172544090Y-111036176D01*
X172544663Y-111036749D01*
X172550269Y-111028360D01*
X172578828Y-111009275D01*
X172604979Y-110987004D01*
X172618889Y-110982505D01*
X172631048Y-110974381D01*
X172664742Y-110967677D01*
X172697421Y-110957110D01*
X172711993Y-110958277D01*
X172726336Y-110955424D01*
X172760028Y-110962124D01*
X172794265Y-110964867D01*
X172821625Y-110974375D01*
X172830340Y-110977984D01*
X172836076Y-110980360D01*
X172861233Y-110992475D01*
X173091903Y-111119963D01*
X173115530Y-111134809D01*
X173196928Y-111192564D01*
X173330474Y-111287321D01*
X173352304Y-111304730D01*
X173548809Y-111480337D01*
X173568554Y-111500081D01*
X173744173Y-111696598D01*
X173761583Y-111718430D01*
X173914085Y-111933361D01*
X173928940Y-111957002D01*
X173954450Y-112003158D01*
X173983954Y-112095725D01*
X173975789Y-112192536D01*
X173931197Y-112278853D01*
X173867239Y-112335534D01*
X173827470Y-112360063D01*
X173703409Y-112484124D01*
X173611307Y-112633446D01*
X173556125Y-112799975D01*
X173556124Y-112799982D01*
X173545623Y-112902766D01*
X173545623Y-113752784D01*
X173556124Y-113855578D01*
X173609872Y-114017776D01*
X173611309Y-114022112D01*
X173629652Y-114051851D01*
X173697243Y-114161435D01*
X173703411Y-114171434D01*
X173827467Y-114295490D01*
X173976789Y-114387592D01*
X173976792Y-114387593D01*
X173976790Y-114387593D01*
X174095714Y-114427000D01*
X174143326Y-114442777D01*
X174246114Y-114453278D01*
X175596131Y-114453277D01*
X175698920Y-114442777D01*
X175865457Y-114387592D01*
X176014779Y-114295490D01*
X176100057Y-114210211D01*
X176180833Y-114156239D01*
X176276121Y-114137285D01*
X176371409Y-114156238D01*
X176452187Y-114210211D01*
X176527467Y-114285491D01*
X176676789Y-114377593D01*
X176676792Y-114377594D01*
X176676790Y-114377594D01*
X176825889Y-114427000D01*
X176843326Y-114432778D01*
X176946114Y-114443279D01*
X178296131Y-114443278D01*
X178398920Y-114432778D01*
X178565457Y-114377593D01*
X178714779Y-114285491D01*
X178838835Y-114161435D01*
X178930937Y-114012113D01*
X178986122Y-113845576D01*
X178996623Y-113742788D01*
X178996622Y-112892771D01*
X178986122Y-112789982D01*
X178972779Y-112749717D01*
X178930937Y-112623446D01*
X178930937Y-112623445D01*
X178838835Y-112474123D01*
X178714779Y-112350067D01*
X178713146Y-112349060D01*
X178651123Y-112310804D01*
X178565457Y-112257965D01*
X178565455Y-112257964D01*
X178565453Y-112257963D01*
X178565455Y-112257963D01*
X178398925Y-112202781D01*
X178398921Y-112202780D01*
X178398920Y-112202780D01*
X178296132Y-112192279D01*
X178296131Y-112192279D01*
X178291393Y-112191795D01*
X178198525Y-112163254D01*
X178123647Y-112101347D01*
X178078161Y-112015498D01*
X178074580Y-112002213D01*
X178063726Y-111957002D01*
X178002995Y-111704043D01*
X177858743Y-111260085D01*
X177751836Y-111001988D01*
X177680109Y-110828824D01*
X177680107Y-110828820D01*
X177680104Y-110828813D01*
X177468178Y-110412887D01*
X177224272Y-110014870D01*
X176949891Y-109637217D01*
X176949887Y-109637213D01*
X176949884Y-109637208D01*
X176765993Y-109421901D01*
X176646725Y-109282256D01*
X176316643Y-108952175D01*
X176104874Y-108771307D01*
X175961684Y-108649010D01*
X175584029Y-108374627D01*
X175186014Y-108130723D01*
X175139002Y-108106769D01*
X174770086Y-107918796D01*
X174770079Y-107918793D01*
X174770075Y-107918791D01*
X174478514Y-107798022D01*
X174338814Y-107740156D01*
X174338810Y-107740154D01*
X174338806Y-107740153D01*
X173894865Y-107595907D01*
X173440941Y-107486928D01*
X172979905Y-107413906D01*
X172979899Y-107413905D01*
X172979891Y-107413904D01*
X172979884Y-107413903D01*
X172979864Y-107413901D01*
X172861452Y-107404581D01*
X172767944Y-107378209D01*
X172691648Y-107318060D01*
X172644629Y-107234671D01*
X172635938Y-107208444D01*
X172572867Y-107106188D01*
X172543835Y-107059120D01*
X172419779Y-106935064D01*
X172270457Y-106842962D01*
X172270455Y-106842961D01*
X172270453Y-106842960D01*
X172270455Y-106842960D01*
X172103925Y-106787778D01*
X172103921Y-106787777D01*
X172103920Y-106787777D01*
X172001132Y-106777276D01*
X172001128Y-106777276D01*
X171201116Y-106777276D01*
X171098322Y-106787777D01*
X170931790Y-106842961D01*
X170782469Y-106935062D01*
X170782467Y-106935063D01*
X170782467Y-106935064D01*
X170777189Y-106940341D01*
X170696411Y-106994315D01*
X170601123Y-107013269D01*
X170505835Y-106994315D01*
X170425056Y-106940341D01*
X170419779Y-106935064D01*
X170270457Y-106842962D01*
X170270455Y-106842961D01*
X170270453Y-106842960D01*
X170270455Y-106842960D01*
X170103925Y-106787778D01*
X170103921Y-106787777D01*
X170103920Y-106787777D01*
X170001132Y-106777276D01*
X170001128Y-106777276D01*
X169201116Y-106777276D01*
X169098322Y-106787777D01*
X168931790Y-106842961D01*
X168782469Y-106935062D01*
X168658409Y-107059122D01*
X168566306Y-107208446D01*
X168566274Y-107208516D01*
X168566208Y-107208605D01*
X168558696Y-107220785D01*
X168557719Y-107220182D01*
X168508823Y-107286864D01*
X168425762Y-107337262D01*
X168340607Y-107352276D01*
X165495440Y-107352276D01*
X165400152Y-107333322D01*
X165319370Y-107279346D01*
X165265394Y-107198564D01*
X165246440Y-107103276D01*
X165258626Y-107026333D01*
X165298369Y-106904019D01*
X165318443Y-106777277D01*
X165331622Y-106694072D01*
X165331623Y-106694060D01*
X165331623Y-106481491D01*
X165331622Y-106481479D01*
X165298369Y-106271535D01*
X165298369Y-106271533D01*
X165232680Y-106069364D01*
X165136174Y-105879960D01*
X165011227Y-105707984D01*
X164860915Y-105557672D01*
X164688939Y-105432725D01*
X164499535Y-105336219D01*
X164499532Y-105336218D01*
X164499530Y-105336217D01*
X164297363Y-105270529D01*
X164087419Y-105237276D01*
X164087410Y-105237276D01*
X163874836Y-105237276D01*
X163874826Y-105237276D01*
X163664882Y-105270529D01*
X163462715Y-105336217D01*
X163273305Y-105432726D01*
X163101329Y-105557673D01*
X162951019Y-105707983D01*
X162912568Y-105760907D01*
X162841224Y-105826856D01*
X162750074Y-105860483D01*
X162652994Y-105856668D01*
X162564764Y-105815993D01*
X162509677Y-105760905D01*
X162471229Y-105707985D01*
X162320917Y-105557673D01*
X162281067Y-105528720D01*
X162148940Y-105432725D01*
X161959536Y-105336219D01*
X161959533Y-105336218D01*
X161959531Y-105336217D01*
X161757364Y-105270529D01*
X161547420Y-105237276D01*
X161547411Y-105237276D01*
X161334837Y-105237276D01*
X161334827Y-105237276D01*
X161124883Y-105270529D01*
X160922716Y-105336217D01*
X160733306Y-105432726D01*
X160561330Y-105557673D01*
X160411021Y-105707982D01*
X160372257Y-105761336D01*
X160300913Y-105827284D01*
X160209762Y-105860910D01*
X160112682Y-105857094D01*
X160051323Y-105828807D01*
X160016393Y-105826058D01*
X159384085Y-106458366D01*
X159367048Y-106394783D01*
X159301222Y-106280769D01*
X159208130Y-106187677D01*
X159094116Y-106121851D01*
X159030530Y-106104812D01*
X159662840Y-105472505D01*
X159608674Y-105433151D01*
X159608668Y-105433147D01*
X159419348Y-105336684D01*
X159419338Y-105336680D01*
X159217246Y-105271017D01*
X159007379Y-105237776D01*
X158794866Y-105237776D01*
X158584999Y-105271017D01*
X158382907Y-105336680D01*
X158382897Y-105336684D01*
X158193577Y-105433148D01*
X158193564Y-105433156D01*
X158139404Y-105472504D01*
X158771714Y-106104813D01*
X158708130Y-106121851D01*
X158594116Y-106187677D01*
X158501024Y-106280769D01*
X158435198Y-106394783D01*
X158418160Y-106458367D01*
X157781195Y-105821401D01*
X157761485Y-105791903D01*
X157738734Y-105764685D01*
X157734705Y-105751825D01*
X157727219Y-105740620D01*
X157709694Y-105671972D01*
X157709353Y-105668799D01*
X157716059Y-105593779D01*
X157704210Y-105584438D01*
X157660252Y-105509745D01*
X157654919Y-105495445D01*
X157568669Y-105380230D01*
X157453454Y-105293980D01*
X157363609Y-105260470D01*
X157318604Y-105243684D01*
X157258996Y-105237276D01*
X155463257Y-105237276D01*
X155463253Y-105237276D01*
X155463251Y-105237277D01*
X155451279Y-105238564D01*
X155403642Y-105243684D01*
X155403638Y-105243685D01*
X155268793Y-105293979D01*
X155153578Y-105380229D01*
X155153576Y-105380231D01*
X155067327Y-105495445D01*
X155017031Y-105630294D01*
X155010623Y-105689899D01*
X155010623Y-107485641D01*
X155010624Y-107485645D01*
X155017031Y-107545256D01*
X155017032Y-107545260D01*
X155067326Y-107680105D01*
X155067327Y-107680107D01*
X155153577Y-107795322D01*
X155153578Y-107795323D01*
X155164249Y-107809577D01*
X155161634Y-107811534D01*
X155199187Y-107867737D01*
X155218141Y-107963025D01*
X155199187Y-108058313D01*
X155145211Y-108139095D01*
X150937061Y-112347246D01*
X150856279Y-112401222D01*
X150760991Y-112420176D01*
X150665703Y-112401222D01*
X150584921Y-112347246D01*
X150530945Y-112266464D01*
X150512083Y-112177929D01*
X150511548Y-112158223D01*
X150516623Y-112119677D01*
X150516622Y-111920876D01*
X150502132Y-111810804D01*
X150502121Y-111810778D01*
X150501769Y-111797782D01*
X150506889Y-111767813D01*
X150507583Y-111755258D01*
X150504406Y-111754802D01*
X150514191Y-111686741D01*
X150526623Y-111600276D01*
X150526623Y-111584650D01*
X150545577Y-111489362D01*
X150599550Y-111408583D01*
X151091643Y-110916492D01*
X151170700Y-110779560D01*
X151211624Y-110626833D01*
X151211624Y-110468718D01*
X151211624Y-110453458D01*
X151211623Y-110453440D01*
X151211623Y-108896183D01*
X151230577Y-108800895D01*
X151284553Y-108720113D01*
X151365335Y-108666137D01*
X151460623Y-108647183D01*
X151555910Y-108666136D01*
X151561075Y-108668276D01*
X151616795Y-108691356D01*
X151616798Y-108691357D01*
X151717341Y-108711356D01*
X151752130Y-108718276D01*
X151890116Y-108718276D01*
X151984710Y-108699460D01*
X152025447Y-108691357D01*
X152025448Y-108691356D01*
X152025451Y-108691356D01*
X152152934Y-108638551D01*
X152267665Y-108561890D01*
X152365237Y-108464318D01*
X152441898Y-108349587D01*
X152494703Y-108222104D01*
X152521623Y-108086769D01*
X152521623Y-108064439D01*
X152540577Y-107969151D01*
X152594553Y-107888369D01*
X152639902Y-107852512D01*
X152764779Y-107775488D01*
X152888835Y-107651432D01*
X152980937Y-107502110D01*
X153036122Y-107335573D01*
X153046623Y-107232785D01*
X153046622Y-106457768D01*
X153036122Y-106354979D01*
X152980937Y-106188442D01*
X152888835Y-106039120D01*
X152833204Y-105983489D01*
X152779231Y-105902711D01*
X152760277Y-105807423D01*
X152779231Y-105712135D01*
X152833207Y-105631353D01*
X152888438Y-105576121D01*
X152888441Y-105576117D01*
X152980481Y-105426897D01*
X152980482Y-105426896D01*
X153035627Y-105260477D01*
X153035628Y-105260470D01*
X153046122Y-105157757D01*
X153046123Y-105157747D01*
X153046123Y-105020277D01*
X153046122Y-105020276D01*
X152070123Y-105020276D01*
X151974835Y-105001322D01*
X151894053Y-104947346D01*
X151840077Y-104866564D01*
X151821123Y-104771276D01*
X151821123Y-104770276D01*
X151820123Y-104770276D01*
X151724835Y-104751322D01*
X151644053Y-104697346D01*
X151590077Y-104616564D01*
X151571123Y-104521276D01*
X151571123Y-103682777D01*
X152071123Y-103682777D01*
X152071123Y-104520276D01*
X153046121Y-104520276D01*
X153046122Y-104520275D01*
X153046122Y-104382808D01*
X153046121Y-104382791D01*
X153035628Y-104280076D01*
X153035627Y-104280073D01*
X152980482Y-104113656D01*
X152980481Y-104113654D01*
X152888441Y-103964434D01*
X152888438Y-103964430D01*
X152764468Y-103840460D01*
X152764464Y-103840457D01*
X152615244Y-103748417D01*
X152615243Y-103748416D01*
X152448824Y-103693271D01*
X152448817Y-103693270D01*
X152346104Y-103682776D01*
X152071124Y-103682776D01*
X152071123Y-103682777D01*
X151571123Y-103682777D01*
X151571122Y-103682776D01*
X151460623Y-103682776D01*
X151365335Y-103663822D01*
X151284553Y-103609846D01*
X151230577Y-103529064D01*
X151211623Y-103433776D01*
X151211623Y-101829412D01*
X151211624Y-101829399D01*
X151211624Y-101651219D01*
X151170700Y-101498493D01*
X151170698Y-101498488D01*
X151117995Y-101407204D01*
X151091643Y-101361560D01*
X150609551Y-100879469D01*
X150555576Y-100798688D01*
X150536622Y-100703400D01*
X150536622Y-100697276D01*
X150555576Y-100601988D01*
X150609552Y-100521206D01*
X150690334Y-100467230D01*
X150785622Y-100448276D01*
X175361711Y-100448276D01*
X175456999Y-100467230D01*
X175537781Y-100521206D01*
X175591757Y-100601988D01*
X175598072Y-100618953D01*
X175620712Y-100687276D01*
X175651309Y-100779610D01*
X175707453Y-100870635D01*
X175723246Y-100896240D01*
X175743411Y-100928932D01*
X175867467Y-101052988D01*
X176016789Y-101145090D01*
X176158373Y-101192006D01*
X176242859Y-101239969D01*
X176302562Y-101316615D01*
X176318325Y-101356082D01*
X176322548Y-101370002D01*
X176322550Y-101370006D01*
X176322551Y-101370010D01*
X176461585Y-101705669D01*
X176461586Y-101705673D01*
X176632853Y-102026091D01*
X176632854Y-102026093D01*
X176826702Y-102316205D01*
X176834702Y-102328178D01*
X177065189Y-102609027D01*
X177322095Y-102865930D01*
X177322099Y-102865933D01*
X177322109Y-102865942D01*
X177602936Y-103096409D01*
X177602939Y-103096411D01*
X177602944Y-103096415D01*
X177905034Y-103298262D01*
X177905036Y-103298263D01*
X177905043Y-103298267D01*
X177941541Y-103317775D01*
X178225453Y-103469526D01*
X178561117Y-103608559D01*
X178561123Y-103608561D01*
X178561129Y-103608563D01*
X178659516Y-103638407D01*
X178908792Y-103714021D01*
X178908804Y-103714023D01*
X178908810Y-103714025D01*
X179168573Y-103765691D01*
X179265130Y-103784896D01*
X179429705Y-103801102D01*
X179436731Y-103803233D01*
X179444076Y-103802940D01*
X179482990Y-103817265D01*
X179522669Y-103829301D01*
X179528350Y-103833963D01*
X179535249Y-103836503D01*
X179565529Y-103864474D01*
X179597772Y-103890934D01*
X179606631Y-103902391D01*
X179677396Y-103999792D01*
X179677782Y-104000178D01*
X179683809Y-104008461D01*
X179700199Y-104043949D01*
X179719292Y-104078055D01*
X179720441Y-104087777D01*
X179724545Y-104096663D01*
X179726107Y-104135720D01*
X179730695Y-104174538D01*
X179728036Y-104183957D01*
X179728428Y-104193741D01*
X179714922Y-104230428D01*
X179704308Y-104268041D01*
X179698247Y-104275726D01*
X179694865Y-104284914D01*
X179668348Y-104313640D01*
X179644147Y-104344329D01*
X179632801Y-104352149D01*
X179628966Y-104356304D01*
X179627473Y-104356993D01*
X179499955Y-104452453D01*
X179499953Y-104452455D01*
X179413704Y-104567669D01*
X179363408Y-104702518D01*
X179357000Y-104762123D01*
X179357000Y-106557865D01*
X179357000Y-106557868D01*
X179357001Y-106557872D01*
X179359067Y-106577093D01*
X179363408Y-106617480D01*
X179363409Y-106617484D01*
X179391970Y-106694060D01*
X179413704Y-106752331D01*
X179499954Y-106867546D01*
X179615169Y-106953796D01*
X179750017Y-107004091D01*
X179809627Y-107010500D01*
X181605372Y-107010499D01*
X181664983Y-107004091D01*
X181799831Y-106953796D01*
X181915046Y-106867546D01*
X182001296Y-106752331D01*
X182051591Y-106617483D01*
X182058000Y-106557873D01*
X182057999Y-104762128D01*
X182051591Y-104702517D01*
X182001296Y-104567669D01*
X181915046Y-104452454D01*
X181799831Y-104366204D01*
X181799829Y-104366203D01*
X181785573Y-104355531D01*
X181787926Y-104352387D01*
X181738606Y-104311144D01*
X181693599Y-104225043D01*
X181684967Y-104128272D01*
X181714026Y-104035564D01*
X181732774Y-104008376D01*
X181731853Y-104007707D01*
X181749328Y-103983655D01*
X181862551Y-103827816D01*
X181959057Y-103638412D01*
X182024746Y-103436243D01*
X182046599Y-103298271D01*
X182057999Y-103226296D01*
X182058000Y-103226284D01*
X182058000Y-103013715D01*
X182057999Y-103013703D01*
X182024746Y-102803759D01*
X182024746Y-102803757D01*
X181959057Y-102601588D01*
X181862551Y-102412184D01*
X181737604Y-102240208D01*
X181587292Y-102089896D01*
X181534367Y-102051444D01*
X181468420Y-101980103D01*
X181434793Y-101888953D01*
X181438607Y-101791873D01*
X181479281Y-101703642D01*
X181534367Y-101648555D01*
X181587292Y-101610104D01*
X181737604Y-101459792D01*
X181862551Y-101287816D01*
X181959057Y-101098412D01*
X182024746Y-100896243D01*
X182056260Y-100697276D01*
X182057999Y-100686296D01*
X182058000Y-100686284D01*
X182058000Y-100473715D01*
X182057999Y-100473703D01*
X182024746Y-100263759D01*
X182024746Y-100263757D01*
X181959057Y-100061588D01*
X181862551Y-99872184D01*
X181737604Y-99700208D01*
X181587292Y-99549896D01*
X181587291Y-99549895D01*
X181587290Y-99549894D01*
X181534367Y-99511443D01*
X181468419Y-99440100D01*
X181434792Y-99348950D01*
X181438607Y-99251870D01*
X181479283Y-99163639D01*
X181534367Y-99108555D01*
X181587292Y-99070104D01*
X181737604Y-98919792D01*
X181862551Y-98747816D01*
X181959057Y-98558412D01*
X182024746Y-98356243D01*
X182058000Y-98146287D01*
X182058000Y-97933713D01*
X182057999Y-97933710D01*
X182057999Y-97933703D01*
X182024746Y-97723759D01*
X182024746Y-97723757D01*
X181959057Y-97521588D01*
X181862551Y-97332184D01*
X181737604Y-97160208D01*
X181587292Y-97009896D01*
X181415316Y-96884949D01*
X181225912Y-96788443D01*
X181225909Y-96788442D01*
X181225907Y-96788441D01*
X181023740Y-96722753D01*
X180813796Y-96689500D01*
X180813787Y-96689500D01*
X180601213Y-96689500D01*
X180601203Y-96689500D01*
X180391259Y-96722753D01*
X180189092Y-96788441D01*
X179999682Y-96884950D01*
X179827706Y-97009897D01*
X179677395Y-97160208D01*
X179677392Y-97160212D01*
X179621706Y-97236858D01*
X179550363Y-97302807D01*
X179459213Y-97336434D01*
X179420261Y-97339500D01*
X178076779Y-97339500D01*
X177981491Y-97320546D01*
X177900709Y-97266570D01*
X177881458Y-97244936D01*
X177878836Y-97241620D01*
X177754779Y-97117564D01*
X177605457Y-97025462D01*
X177605455Y-97025461D01*
X177605453Y-97025460D01*
X177605455Y-97025460D01*
X177438925Y-96970278D01*
X177438921Y-96970277D01*
X177438920Y-96970277D01*
X177336132Y-96959776D01*
X177336128Y-96959776D01*
X176286125Y-96959776D01*
X176286108Y-96959777D01*
X176183322Y-96970277D01*
X176016790Y-97025461D01*
X175867466Y-97117564D01*
X175743415Y-97241614D01*
X175734642Y-97252711D01*
X175660674Y-97315702D01*
X175568231Y-97345592D01*
X175539319Y-97347276D01*
X149542130Y-97347276D01*
X149433714Y-97368841D01*
X149406794Y-97374196D01*
X149366366Y-97390942D01*
X149356617Y-97394979D01*
X149356611Y-97394982D01*
X149279310Y-97427001D01*
X149258922Y-97440625D01*
X149258921Y-97440626D01*
X149164581Y-97503661D01*
X149164579Y-97503663D01*
X147722192Y-98946049D01*
X147641411Y-99000025D01*
X147546123Y-99018979D01*
X147450835Y-99000025D01*
X147370053Y-98946049D01*
X146780244Y-98356240D01*
X145927666Y-97503662D01*
X145812934Y-97427001D01*
X145812930Y-97426999D01*
X145812928Y-97426998D01*
X145685450Y-97374195D01*
X145685447Y-97374194D01*
X145550121Y-97347276D01*
X145550117Y-97347276D01*
X145550116Y-97347276D01*
X118122927Y-97347276D01*
X118027639Y-97328322D01*
X117946857Y-97274346D01*
X117927604Y-97252711D01*
X117918830Y-97241614D01*
X117794779Y-97117564D01*
X117645457Y-97025462D01*
X117645455Y-97025461D01*
X117645453Y-97025460D01*
X117645455Y-97025460D01*
X117478925Y-96970278D01*
X117478921Y-96970277D01*
X117478920Y-96970277D01*
X117376132Y-96959776D01*
X117376128Y-96959776D01*
X116326125Y-96959776D01*
X116326108Y-96959777D01*
X116223322Y-96970277D01*
X116056790Y-97025461D01*
X115907466Y-97117564D01*
X115783409Y-97241620D01*
X115780788Y-97244936D01*
X115776111Y-97248918D01*
X115773155Y-97251875D01*
X115772918Y-97251638D01*
X115706820Y-97307927D01*
X115614377Y-97337816D01*
X115585467Y-97339500D01*
X114284739Y-97339500D01*
X114189451Y-97320546D01*
X114108669Y-97266570D01*
X114083294Y-97236858D01*
X114027607Y-97160212D01*
X114027604Y-97160208D01*
X113877293Y-97009897D01*
X113822761Y-96970277D01*
X113705316Y-96884949D01*
X113515912Y-96788443D01*
X113515909Y-96788442D01*
X113515907Y-96788441D01*
X113313740Y-96722753D01*
X113103796Y-96689500D01*
X113103787Y-96689500D01*
X112891213Y-96689500D01*
X112891203Y-96689500D01*
X112681259Y-96722753D01*
X112479092Y-96788441D01*
X112289682Y-96884950D01*
X112117706Y-97009897D01*
X111967397Y-97160206D01*
X111842450Y-97332182D01*
X111745941Y-97521592D01*
X111680253Y-97723759D01*
X111647000Y-97933703D01*
X89374581Y-97933703D01*
X89376427Y-95347777D01*
X141961124Y-95347777D01*
X141961124Y-96147760D01*
X141971617Y-96250475D01*
X141971618Y-96250478D01*
X142026763Y-96416895D01*
X142026764Y-96416897D01*
X142118804Y-96566117D01*
X142118807Y-96566121D01*
X142242777Y-96690091D01*
X142242781Y-96690094D01*
X142392001Y-96782134D01*
X142392002Y-96782135D01*
X142558421Y-96837280D01*
X142558428Y-96837281D01*
X142661146Y-96847775D01*
X144411121Y-96847775D01*
X144411123Y-96847774D01*
X144411123Y-95347777D01*
X144911123Y-95347777D01*
X144911123Y-96847774D01*
X144911124Y-96847775D01*
X146661091Y-96847775D01*
X146661107Y-96847774D01*
X146763822Y-96837281D01*
X146763825Y-96837280D01*
X146930242Y-96782135D01*
X146930244Y-96782134D01*
X147079464Y-96690094D01*
X147079468Y-96690091D01*
X147203438Y-96566121D01*
X147203441Y-96566117D01*
X147295481Y-96416897D01*
X147295482Y-96416896D01*
X147350627Y-96250477D01*
X147350628Y-96250470D01*
X147361122Y-96147757D01*
X147361123Y-96147747D01*
X147361123Y-95347777D01*
X147361122Y-95347776D01*
X144911124Y-95347776D01*
X144911123Y-95347777D01*
X144411123Y-95347777D01*
X144411122Y-95347776D01*
X141961125Y-95347776D01*
X141961124Y-95347777D01*
X89376427Y-95347777D01*
X89380395Y-89788712D01*
X92939500Y-89788712D01*
X92939500Y-90031288D01*
X92952765Y-90132046D01*
X92971162Y-90271790D01*
X92971163Y-90271795D01*
X93033940Y-90506082D01*
X93033948Y-90506105D01*
X93126770Y-90730201D01*
X93126778Y-90730217D01*
X93248058Y-90940279D01*
X93248064Y-90940289D01*
X93395729Y-91132731D01*
X93395738Y-91132741D01*
X93567258Y-91304261D01*
X93567268Y-91304270D01*
X93659744Y-91375229D01*
X93759711Y-91451936D01*
X93786201Y-91467230D01*
X93969782Y-91573221D01*
X93969798Y-91573229D01*
X94085446Y-91621131D01*
X94193900Y-91666054D01*
X94193911Y-91666057D01*
X94193917Y-91666059D01*
X94377021Y-91715121D01*
X94428211Y-91728838D01*
X94668712Y-91760500D01*
X94911288Y-91760500D01*
X95151789Y-91728838D01*
X95313275Y-91685567D01*
X95386082Y-91666059D01*
X95386084Y-91666058D01*
X95386100Y-91666054D01*
X95549383Y-91598420D01*
X95610201Y-91573229D01*
X95610206Y-91573226D01*
X95610212Y-91573224D01*
X95820289Y-91451936D01*
X96012738Y-91304265D01*
X96184265Y-91132738D01*
X96331936Y-90940289D01*
X96453224Y-90730212D01*
X96475001Y-90677639D01*
X96497725Y-90622776D01*
X96546054Y-90506100D01*
X96608838Y-90271789D01*
X96640500Y-90031288D01*
X96640500Y-89788712D01*
X103789500Y-89788712D01*
X103789500Y-90031288D01*
X103802765Y-90132046D01*
X103821162Y-90271790D01*
X103821163Y-90271795D01*
X103883940Y-90506082D01*
X103883948Y-90506105D01*
X103976770Y-90730201D01*
X103976778Y-90730217D01*
X104098058Y-90940279D01*
X104098064Y-90940289D01*
X104245729Y-91132731D01*
X104245738Y-91132741D01*
X104417258Y-91304261D01*
X104417268Y-91304270D01*
X104509744Y-91375229D01*
X104609711Y-91451936D01*
X104636201Y-91467230D01*
X104819782Y-91573221D01*
X104819798Y-91573229D01*
X104935446Y-91621131D01*
X105043900Y-91666054D01*
X105043911Y-91666057D01*
X105043917Y-91666059D01*
X105227021Y-91715121D01*
X105278211Y-91728838D01*
X105518712Y-91760500D01*
X105761288Y-91760500D01*
X106001789Y-91728838D01*
X106163275Y-91685567D01*
X106236082Y-91666059D01*
X106236084Y-91666058D01*
X106236100Y-91666054D01*
X106399383Y-91598420D01*
X106460201Y-91573229D01*
X106460206Y-91573226D01*
X106460212Y-91573224D01*
X106670289Y-91451936D01*
X106862738Y-91304265D01*
X107034265Y-91132738D01*
X107181936Y-90940289D01*
X107303224Y-90730212D01*
X107325001Y-90677639D01*
X107347725Y-90622776D01*
X107396054Y-90506100D01*
X107458838Y-90271789D01*
X107490500Y-90031288D01*
X107490500Y-89788712D01*
X107458838Y-89548211D01*
X107428582Y-89435294D01*
X107396059Y-89313917D01*
X107396057Y-89313911D01*
X107396054Y-89313900D01*
X107361242Y-89229858D01*
X107303229Y-89089798D01*
X107303221Y-89089782D01*
X107216945Y-88940348D01*
X107181936Y-88879711D01*
X107127287Y-88808491D01*
X107034270Y-88687268D01*
X107034261Y-88687258D01*
X106862741Y-88515738D01*
X106862731Y-88515729D01*
X106670289Y-88368064D01*
X106670279Y-88368058D01*
X106460217Y-88246778D01*
X106460201Y-88246770D01*
X106236105Y-88153948D01*
X106236103Y-88153947D01*
X106236100Y-88153946D01*
X106236096Y-88153945D01*
X106236082Y-88153940D01*
X106001795Y-88091163D01*
X106001790Y-88091162D01*
X105761288Y-88059500D01*
X105518712Y-88059500D01*
X105278209Y-88091162D01*
X105278204Y-88091163D01*
X105043917Y-88153940D01*
X105043894Y-88153948D01*
X104819798Y-88246770D01*
X104819782Y-88246778D01*
X104609720Y-88368058D01*
X104609710Y-88368064D01*
X104417268Y-88515729D01*
X104417258Y-88515738D01*
X104245738Y-88687258D01*
X104245729Y-88687268D01*
X104098064Y-88879710D01*
X104098058Y-88879720D01*
X103976778Y-89089782D01*
X103976770Y-89089798D01*
X103883948Y-89313894D01*
X103883940Y-89313917D01*
X103821163Y-89548204D01*
X103821162Y-89548209D01*
X103795246Y-89745064D01*
X103789500Y-89788712D01*
X96640500Y-89788712D01*
X96608838Y-89548211D01*
X96578582Y-89435294D01*
X96546059Y-89313917D01*
X96546057Y-89313911D01*
X96546054Y-89313900D01*
X96511242Y-89229858D01*
X96453229Y-89089798D01*
X96453221Y-89089782D01*
X96366945Y-88940348D01*
X96331936Y-88879711D01*
X96277287Y-88808491D01*
X96184270Y-88687268D01*
X96184261Y-88687258D01*
X96012741Y-88515738D01*
X96012731Y-88515729D01*
X95820289Y-88368064D01*
X95820279Y-88368058D01*
X95610217Y-88246778D01*
X95610201Y-88246770D01*
X95386105Y-88153948D01*
X95386103Y-88153947D01*
X95386100Y-88153946D01*
X95386096Y-88153945D01*
X95386082Y-88153940D01*
X95151795Y-88091163D01*
X95151790Y-88091162D01*
X94911288Y-88059500D01*
X94668712Y-88059500D01*
X94428209Y-88091162D01*
X94428204Y-88091163D01*
X94193917Y-88153940D01*
X94193894Y-88153948D01*
X93969798Y-88246770D01*
X93969782Y-88246778D01*
X93759720Y-88368058D01*
X93759710Y-88368064D01*
X93567268Y-88515729D01*
X93567258Y-88515738D01*
X93395738Y-88687258D01*
X93395729Y-88687268D01*
X93248064Y-88879710D01*
X93248058Y-88879720D01*
X93126778Y-89089782D01*
X93126770Y-89089798D01*
X93033948Y-89313894D01*
X93033940Y-89313917D01*
X92971163Y-89548204D01*
X92971162Y-89548209D01*
X92945246Y-89745064D01*
X92939500Y-89788712D01*
X89380395Y-89788712D01*
X89381568Y-88145470D01*
X89381576Y-88133843D01*
X89381623Y-88133671D01*
X89381623Y-88073700D01*
X89381628Y-88073673D01*
X89381923Y-88061673D01*
X89383092Y-88037875D01*
X89397875Y-87736981D01*
X89400270Y-87712674D01*
X89401616Y-87703602D01*
X89447076Y-87397148D01*
X89451841Y-87373200D01*
X89529344Y-87063798D01*
X89536432Y-87040427D01*
X89582112Y-86912764D01*
X113540623Y-86912764D01*
X113540623Y-88462782D01*
X113551124Y-88565576D01*
X113606308Y-88732108D01*
X113606309Y-88732110D01*
X113644214Y-88793564D01*
X113695760Y-88877135D01*
X113698411Y-88881432D01*
X113822467Y-89005488D01*
X113971789Y-89097590D01*
X113971792Y-89097591D01*
X113971790Y-89097591D01*
X114135433Y-89151816D01*
X114138326Y-89152775D01*
X114241114Y-89163276D01*
X115541131Y-89163275D01*
X115643920Y-89152775D01*
X115810457Y-89097590D01*
X115959779Y-89005488D01*
X116083835Y-88881432D01*
X116096308Y-88861209D01*
X116162459Y-88790060D01*
X116250807Y-88749639D01*
X116347898Y-88746105D01*
X116438950Y-88779994D01*
X116484307Y-88815856D01*
X116511331Y-88842880D01*
X116683307Y-88967827D01*
X116872711Y-89064333D01*
X117074880Y-89130022D01*
X117128856Y-89138571D01*
X117284826Y-89163275D01*
X117284833Y-89163275D01*
X117284836Y-89163276D01*
X117284839Y-89163276D01*
X117497407Y-89163276D01*
X117497410Y-89163276D01*
X117497413Y-89163275D01*
X117497419Y-89163275D01*
X117596599Y-89147565D01*
X117707366Y-89130022D01*
X117909535Y-89064333D01*
X118098939Y-88967827D01*
X118270915Y-88842880D01*
X118421227Y-88692568D01*
X118439677Y-88667172D01*
X118511017Y-88601225D01*
X118602167Y-88567596D01*
X118699247Y-88571409D01*
X118787478Y-88612082D01*
X118842567Y-88667171D01*
X118861019Y-88692568D01*
X119011331Y-88842880D01*
X119183307Y-88967827D01*
X119372711Y-89064333D01*
X119574880Y-89130022D01*
X119628856Y-89138571D01*
X119784826Y-89163275D01*
X119784833Y-89163275D01*
X119784836Y-89163276D01*
X119784839Y-89163276D01*
X119997407Y-89163276D01*
X119997410Y-89163276D01*
X119997413Y-89163275D01*
X119997419Y-89163275D01*
X120096599Y-89147565D01*
X120207366Y-89130022D01*
X120409535Y-89064333D01*
X120598939Y-88967827D01*
X120770915Y-88842880D01*
X120921227Y-88692568D01*
X120939677Y-88667172D01*
X121011017Y-88601225D01*
X121102167Y-88567596D01*
X121199247Y-88571409D01*
X121287478Y-88612082D01*
X121342567Y-88667171D01*
X121361019Y-88692568D01*
X121511331Y-88842880D01*
X121683307Y-88967827D01*
X121872711Y-89064333D01*
X122074880Y-89130022D01*
X122128856Y-89138571D01*
X122284826Y-89163275D01*
X122284833Y-89163275D01*
X122284836Y-89163276D01*
X122284839Y-89163276D01*
X122497407Y-89163276D01*
X122497410Y-89163276D01*
X122497413Y-89163275D01*
X122497419Y-89163275D01*
X122596599Y-89147565D01*
X122707366Y-89130022D01*
X122909535Y-89064333D01*
X123098939Y-88967827D01*
X123270915Y-88842880D01*
X123421227Y-88692568D01*
X123439677Y-88667172D01*
X123511017Y-88601225D01*
X123602167Y-88567596D01*
X123699247Y-88571409D01*
X123787478Y-88612082D01*
X123842567Y-88667171D01*
X123861019Y-88692568D01*
X124011331Y-88842880D01*
X124183307Y-88967827D01*
X124372711Y-89064333D01*
X124574880Y-89130022D01*
X124628856Y-89138571D01*
X124784826Y-89163275D01*
X124784833Y-89163275D01*
X124784836Y-89163276D01*
X124784839Y-89163276D01*
X124997407Y-89163276D01*
X124997410Y-89163276D01*
X124997413Y-89163275D01*
X124997419Y-89163275D01*
X125096599Y-89147565D01*
X125207366Y-89130022D01*
X125409535Y-89064333D01*
X125598939Y-88967827D01*
X125770915Y-88842880D01*
X125921227Y-88692568D01*
X126046174Y-88520592D01*
X126142680Y-88331188D01*
X126208369Y-88129019D01*
X126236835Y-87949295D01*
X126241622Y-87919072D01*
X126241623Y-87919060D01*
X126241623Y-87456491D01*
X126241622Y-87456479D01*
X126208369Y-87246535D01*
X126208369Y-87246533D01*
X126142680Y-87044364D01*
X126046174Y-86854960D01*
X126033680Y-86837764D01*
X130150623Y-86837764D01*
X130150623Y-88437782D01*
X130161124Y-88540576D01*
X130215732Y-88705369D01*
X130216309Y-88707110D01*
X130269634Y-88793564D01*
X130308408Y-88856428D01*
X130308411Y-88856432D01*
X130432467Y-88980488D01*
X130581789Y-89072590D01*
X130581792Y-89072591D01*
X130581790Y-89072591D01*
X130745433Y-89126816D01*
X130748326Y-89127775D01*
X130851114Y-89138276D01*
X132151131Y-89138275D01*
X132253920Y-89127775D01*
X132420457Y-89072590D01*
X132569779Y-88980488D01*
X132693835Y-88856432D01*
X132706579Y-88835771D01*
X132772734Y-88764619D01*
X132861083Y-88724200D01*
X132958173Y-88720668D01*
X133049225Y-88754559D01*
X133094578Y-88790418D01*
X133121660Y-88817500D01*
X133293569Y-88942399D01*
X133482897Y-89038867D01*
X133482910Y-89038873D01*
X133684993Y-89104532D01*
X133751123Y-89115006D01*
X133751123Y-88070788D01*
X133808130Y-88103701D01*
X133935297Y-88137776D01*
X134066949Y-88137776D01*
X134194116Y-88103701D01*
X134251123Y-88070788D01*
X134251123Y-89115005D01*
X134317252Y-89104532D01*
X134519335Y-89038873D01*
X134519348Y-89038867D01*
X134708676Y-88942399D01*
X134880585Y-88817500D01*
X135030847Y-88667238D01*
X135155746Y-88495329D01*
X135252214Y-88306001D01*
X135252218Y-88305991D01*
X135317881Y-88103899D01*
X135351122Y-87894032D01*
X135351123Y-87894020D01*
X135351123Y-87887777D01*
X135351122Y-87887776D01*
X134434135Y-87887776D01*
X134467048Y-87830769D01*
X134501123Y-87703602D01*
X134501123Y-87571950D01*
X134467048Y-87444783D01*
X134434135Y-87387776D01*
X135351122Y-87387776D01*
X135351123Y-87387775D01*
X135351123Y-87381531D01*
X135351122Y-87381519D01*
X135317881Y-87171652D01*
X135252218Y-86969560D01*
X135252214Y-86969550D01*
X135155746Y-86780222D01*
X135030847Y-86608313D01*
X134880585Y-86458051D01*
X134708676Y-86333152D01*
X134519348Y-86236684D01*
X134519338Y-86236680D01*
X134317247Y-86171017D01*
X134317243Y-86171016D01*
X134251123Y-86160543D01*
X134251123Y-87204764D01*
X134194116Y-87171851D01*
X134066949Y-87137776D01*
X133935297Y-87137776D01*
X133808130Y-87171851D01*
X133751123Y-87204764D01*
X133751123Y-86160544D01*
X133751122Y-86160543D01*
X133685002Y-86171016D01*
X133684998Y-86171017D01*
X133482907Y-86236680D01*
X133482897Y-86236684D01*
X133293569Y-86333152D01*
X133121658Y-86458053D01*
X133121653Y-86458057D01*
X133094575Y-86485135D01*
X133013793Y-86539110D01*
X132918504Y-86558063D01*
X132823216Y-86539108D01*
X132742436Y-86485130D01*
X132706581Y-86439783D01*
X132693838Y-86419124D01*
X132693836Y-86419122D01*
X132693835Y-86419120D01*
X132569779Y-86295064D01*
X132542050Y-86277961D01*
X132489471Y-86245530D01*
X132420457Y-86202962D01*
X132420455Y-86202961D01*
X132420453Y-86202960D01*
X132420455Y-86202960D01*
X132253925Y-86147778D01*
X132253921Y-86147777D01*
X132253920Y-86147777D01*
X132151132Y-86137276D01*
X132151128Y-86137276D01*
X130851116Y-86137276D01*
X130748322Y-86147777D01*
X130581790Y-86202961D01*
X130432469Y-86295062D01*
X130308409Y-86419122D01*
X130216307Y-86568444D01*
X130161125Y-86734973D01*
X130161124Y-86734978D01*
X130161124Y-86734979D01*
X130159478Y-86751095D01*
X130150623Y-86837764D01*
X126033680Y-86837764D01*
X125921227Y-86682984D01*
X125770915Y-86532672D01*
X125598939Y-86407725D01*
X125409535Y-86311219D01*
X125409532Y-86311218D01*
X125409530Y-86311217D01*
X125207363Y-86245529D01*
X124997419Y-86212276D01*
X124997410Y-86212276D01*
X124784836Y-86212276D01*
X124784826Y-86212276D01*
X124574882Y-86245529D01*
X124372715Y-86311217D01*
X124183305Y-86407726D01*
X124011329Y-86532673D01*
X123861020Y-86682982D01*
X123853910Y-86692769D01*
X123844525Y-86705687D01*
X123842569Y-86708379D01*
X123771226Y-86774328D01*
X123680076Y-86807955D01*
X123582996Y-86804141D01*
X123494765Y-86763467D01*
X123439677Y-86708379D01*
X123421227Y-86682984D01*
X123270915Y-86532672D01*
X123098939Y-86407725D01*
X122909535Y-86311219D01*
X122909532Y-86311218D01*
X122909530Y-86311217D01*
X122707363Y-86245529D01*
X122497419Y-86212276D01*
X122497410Y-86212276D01*
X122284836Y-86212276D01*
X122284826Y-86212276D01*
X122074882Y-86245529D01*
X121872715Y-86311217D01*
X121683305Y-86407726D01*
X121511329Y-86532673D01*
X121361020Y-86682982D01*
X121353910Y-86692769D01*
X121344525Y-86705687D01*
X121342569Y-86708379D01*
X121271226Y-86774328D01*
X121180076Y-86807955D01*
X121082996Y-86804141D01*
X120994765Y-86763467D01*
X120939677Y-86708379D01*
X120921227Y-86682984D01*
X120770915Y-86532672D01*
X120598939Y-86407725D01*
X120409535Y-86311219D01*
X120409532Y-86311218D01*
X120409530Y-86311217D01*
X120207363Y-86245529D01*
X119997419Y-86212276D01*
X119997410Y-86212276D01*
X119784836Y-86212276D01*
X119784826Y-86212276D01*
X119574882Y-86245529D01*
X119372715Y-86311217D01*
X119183305Y-86407726D01*
X119011329Y-86532673D01*
X118861020Y-86682982D01*
X118853910Y-86692769D01*
X118844525Y-86705687D01*
X118842569Y-86708379D01*
X118771226Y-86774328D01*
X118680076Y-86807955D01*
X118582996Y-86804141D01*
X118494765Y-86763467D01*
X118439677Y-86708379D01*
X118421227Y-86682984D01*
X118270915Y-86532672D01*
X118098939Y-86407725D01*
X117909535Y-86311219D01*
X117909532Y-86311218D01*
X117909530Y-86311217D01*
X117707363Y-86245529D01*
X117497419Y-86212276D01*
X117497410Y-86212276D01*
X117284836Y-86212276D01*
X117284826Y-86212276D01*
X117074882Y-86245529D01*
X116872715Y-86311217D01*
X116683305Y-86407726D01*
X116511326Y-86532675D01*
X116484304Y-86559697D01*
X116403522Y-86613672D01*
X116308233Y-86632625D01*
X116212945Y-86613670D01*
X116132165Y-86559692D01*
X116096307Y-86514341D01*
X116083836Y-86494122D01*
X116083835Y-86494120D01*
X115959779Y-86370064D01*
X115810457Y-86277962D01*
X115810455Y-86277961D01*
X115810453Y-86277960D01*
X115810455Y-86277960D01*
X115643925Y-86222778D01*
X115643921Y-86222777D01*
X115643920Y-86222777D01*
X115541132Y-86212276D01*
X115541128Y-86212276D01*
X114241116Y-86212276D01*
X114138322Y-86222777D01*
X113971790Y-86277961D01*
X113822469Y-86370062D01*
X113698409Y-86494122D01*
X113606307Y-86643444D01*
X113551125Y-86809973D01*
X113551124Y-86809980D01*
X113540623Y-86912764D01*
X89582112Y-86912764D01*
X89643894Y-86740098D01*
X89653235Y-86717546D01*
X89789619Y-86429191D01*
X89801136Y-86407647D01*
X89823664Y-86370062D01*
X89965122Y-86134056D01*
X89978685Y-86113759D01*
X90168704Y-85857549D01*
X90184185Y-85838686D01*
X90398402Y-85602338D01*
X90415664Y-85585076D01*
X90652015Y-85370862D01*
X90670883Y-85355377D01*
X90927099Y-85165356D01*
X90947406Y-85151790D01*
X90955138Y-85147156D01*
X91220985Y-84987815D01*
X91242525Y-84976300D01*
X91530885Y-84839919D01*
X91553429Y-84830581D01*
X91853766Y-84723120D01*
X91877136Y-84716031D01*
X92186551Y-84638530D01*
X92210490Y-84633768D01*
X92526029Y-84586964D01*
X92550312Y-84584572D01*
X92874970Y-84568624D01*
X92887222Y-84568325D01*
X138911169Y-84576809D01*
G37*
%TD.AperFunction*%
%TD*%
M02*
