%TF.GenerationSoftware,KiCad,Pcbnew,9.0.7*%
%TF.CreationDate,2026-04-17T16:01:34+03:00*%
%TF.ProjectId,MCB-110-A,4d43422d-3131-4302-9d41-2e6b69636164,1.0*%
%TF.SameCoordinates,Original*%
%TF.FileFunction,Legend,Top*%
%TF.FilePolarity,Positive*%
%FSLAX46Y46*%
G04 Gerber Fmt 4.6, Leading zero omitted, Abs format (unit mm)*
G04 Created by KiCad (PCBNEW 9.0.7) date 2026-04-17 16:01:34*
%MOMM*%
%LPD*%
G01*
G04 APERTURE LIST*
%ADD10C,0.150000*%
%ADD11C,0.200000*%
%ADD12C,0.300000*%
%ADD13C,0.250000*%
%ADD14C,0.175000*%
%ADD15C,0.120000*%
%ADD16C,0.000000*%
G04 APERTURE END LIST*
D10*
X89697500Y-86670000D02*
X111042500Y-86670000D01*
X111042500Y-118150000D01*
X89697500Y-118150000D01*
X89697500Y-86670000D01*
X183027500Y-86730000D02*
X204372500Y-86730000D01*
X204372500Y-118210000D01*
X183027500Y-118210000D01*
X183027500Y-86730000D01*
D11*
X124343177Y-93024280D02*
X124819367Y-93024280D01*
X124247939Y-93309995D02*
X124581272Y-92309995D01*
X124581272Y-92309995D02*
X124914605Y-93309995D01*
X125438415Y-92309995D02*
X125533653Y-92309995D01*
X125533653Y-92309995D02*
X125628891Y-92357614D01*
X125628891Y-92357614D02*
X125676510Y-92405233D01*
X125676510Y-92405233D02*
X125724129Y-92500471D01*
X125724129Y-92500471D02*
X125771748Y-92690947D01*
X125771748Y-92690947D02*
X125771748Y-92929042D01*
X125771748Y-92929042D02*
X125724129Y-93119518D01*
X125724129Y-93119518D02*
X125676510Y-93214756D01*
X125676510Y-93214756D02*
X125628891Y-93262376D01*
X125628891Y-93262376D02*
X125533653Y-93309995D01*
X125533653Y-93309995D02*
X125438415Y-93309995D01*
X125438415Y-93309995D02*
X125343177Y-93262376D01*
X125343177Y-93262376D02*
X125295558Y-93214756D01*
X125295558Y-93214756D02*
X125247939Y-93119518D01*
X125247939Y-93119518D02*
X125200320Y-92929042D01*
X125200320Y-92929042D02*
X125200320Y-92690947D01*
X125200320Y-92690947D02*
X125247939Y-92500471D01*
X125247939Y-92500471D02*
X125295558Y-92405233D01*
X125295558Y-92405233D02*
X125343177Y-92357614D01*
X125343177Y-92357614D02*
X125438415Y-92309995D01*
X114163177Y-93034280D02*
X114639367Y-93034280D01*
X114067939Y-93319995D02*
X114401272Y-92319995D01*
X114401272Y-92319995D02*
X114734605Y-93319995D01*
X115496510Y-92653328D02*
X115496510Y-93319995D01*
X115258415Y-92272376D02*
X115020320Y-92986661D01*
X115020320Y-92986661D02*
X115639367Y-92986661D01*
X133964605Y-92497614D02*
X133869367Y-92449995D01*
X133869367Y-92449995D02*
X133726510Y-92449995D01*
X133726510Y-92449995D02*
X133583653Y-92497614D01*
X133583653Y-92497614D02*
X133488415Y-92592852D01*
X133488415Y-92592852D02*
X133440796Y-92688090D01*
X133440796Y-92688090D02*
X133393177Y-92878566D01*
X133393177Y-92878566D02*
X133393177Y-93021423D01*
X133393177Y-93021423D02*
X133440796Y-93211899D01*
X133440796Y-93211899D02*
X133488415Y-93307137D01*
X133488415Y-93307137D02*
X133583653Y-93402376D01*
X133583653Y-93402376D02*
X133726510Y-93449995D01*
X133726510Y-93449995D02*
X133821748Y-93449995D01*
X133821748Y-93449995D02*
X133964605Y-93402376D01*
X133964605Y-93402376D02*
X134012224Y-93354756D01*
X134012224Y-93354756D02*
X134012224Y-93021423D01*
X134012224Y-93021423D02*
X133821748Y-93021423D01*
X134440796Y-93449995D02*
X134440796Y-92449995D01*
X134440796Y-92449995D02*
X135012224Y-93449995D01*
X135012224Y-93449995D02*
X135012224Y-92449995D01*
X135488415Y-93449995D02*
X135488415Y-92449995D01*
X135488415Y-92449995D02*
X135726510Y-92449995D01*
X135726510Y-92449995D02*
X135869367Y-92497614D01*
X135869367Y-92497614D02*
X135964605Y-92592852D01*
X135964605Y-92592852D02*
X136012224Y-92688090D01*
X136012224Y-92688090D02*
X136059843Y-92878566D01*
X136059843Y-92878566D02*
X136059843Y-93021423D01*
X136059843Y-93021423D02*
X136012224Y-93211899D01*
X136012224Y-93211899D02*
X135964605Y-93307137D01*
X135964605Y-93307137D02*
X135869367Y-93402376D01*
X135869367Y-93402376D02*
X135726510Y-93449995D01*
X135726510Y-93449995D02*
X135488415Y-93449995D01*
X128790796Y-93069042D02*
X129552701Y-93069042D01*
X129171748Y-93449995D02*
X129171748Y-92688090D01*
X129933653Y-92449995D02*
X130552700Y-92449995D01*
X130552700Y-92449995D02*
X130219367Y-92830947D01*
X130219367Y-92830947D02*
X130362224Y-92830947D01*
X130362224Y-92830947D02*
X130457462Y-92878566D01*
X130457462Y-92878566D02*
X130505081Y-92926185D01*
X130505081Y-92926185D02*
X130552700Y-93021423D01*
X130552700Y-93021423D02*
X130552700Y-93259518D01*
X130552700Y-93259518D02*
X130505081Y-93354756D01*
X130505081Y-93354756D02*
X130457462Y-93402376D01*
X130457462Y-93402376D02*
X130362224Y-93449995D01*
X130362224Y-93449995D02*
X130076510Y-93449995D01*
X130076510Y-93449995D02*
X129981272Y-93402376D01*
X129981272Y-93402376D02*
X129933653Y-93354756D01*
X130838415Y-92449995D02*
X131171748Y-93449995D01*
X131171748Y-93449995D02*
X131505081Y-92449995D01*
X131743177Y-92449995D02*
X132362224Y-92449995D01*
X132362224Y-92449995D02*
X132028891Y-92830947D01*
X132028891Y-92830947D02*
X132171748Y-92830947D01*
X132171748Y-92830947D02*
X132266986Y-92878566D01*
X132266986Y-92878566D02*
X132314605Y-92926185D01*
X132314605Y-92926185D02*
X132362224Y-93021423D01*
X132362224Y-93021423D02*
X132362224Y-93259518D01*
X132362224Y-93259518D02*
X132314605Y-93354756D01*
X132314605Y-93354756D02*
X132266986Y-93402376D01*
X132266986Y-93402376D02*
X132171748Y-93449995D01*
X132171748Y-93449995D02*
X131886034Y-93449995D01*
X131886034Y-93449995D02*
X131790796Y-93402376D01*
X131790796Y-93402376D02*
X131743177Y-93354756D01*
X116623177Y-93034280D02*
X117099367Y-93034280D01*
X116527939Y-93319995D02*
X116861272Y-92319995D01*
X116861272Y-92319995D02*
X117194605Y-93319995D01*
X117432701Y-92319995D02*
X118051748Y-92319995D01*
X118051748Y-92319995D02*
X117718415Y-92700947D01*
X117718415Y-92700947D02*
X117861272Y-92700947D01*
X117861272Y-92700947D02*
X117956510Y-92748566D01*
X117956510Y-92748566D02*
X118004129Y-92796185D01*
X118004129Y-92796185D02*
X118051748Y-92891423D01*
X118051748Y-92891423D02*
X118051748Y-93129518D01*
X118051748Y-93129518D02*
X118004129Y-93224756D01*
X118004129Y-93224756D02*
X117956510Y-93272376D01*
X117956510Y-93272376D02*
X117861272Y-93319995D01*
X117861272Y-93319995D02*
X117575558Y-93319995D01*
X117575558Y-93319995D02*
X117480320Y-93272376D01*
X117480320Y-93272376D02*
X117432701Y-93224756D01*
X162178342Y-103626674D02*
X161702151Y-103960007D01*
X162178342Y-104198102D02*
X161178342Y-104198102D01*
X161178342Y-104198102D02*
X161178342Y-103817150D01*
X161178342Y-103817150D02*
X161225961Y-103721912D01*
X161225961Y-103721912D02*
X161273580Y-103674293D01*
X161273580Y-103674293D02*
X161368818Y-103626674D01*
X161368818Y-103626674D02*
X161511675Y-103626674D01*
X161511675Y-103626674D02*
X161606913Y-103674293D01*
X161606913Y-103674293D02*
X161654532Y-103721912D01*
X161654532Y-103721912D02*
X161702151Y-103817150D01*
X161702151Y-103817150D02*
X161702151Y-104198102D01*
X161178342Y-103293340D02*
X162178342Y-102626674D01*
X161178342Y-102626674D02*
X162178342Y-103293340D01*
X155610796Y-109804995D02*
X155610796Y-108804995D01*
X155610796Y-108804995D02*
X155991748Y-108804995D01*
X155991748Y-108804995D02*
X156086986Y-108852614D01*
X156086986Y-108852614D02*
X156134605Y-108900233D01*
X156134605Y-108900233D02*
X156182224Y-108995471D01*
X156182224Y-108995471D02*
X156182224Y-109138328D01*
X156182224Y-109138328D02*
X156134605Y-109233566D01*
X156134605Y-109233566D02*
X156086986Y-109281185D01*
X156086986Y-109281185D02*
X155991748Y-109328804D01*
X155991748Y-109328804D02*
X155610796Y-109328804D01*
X156610796Y-109804995D02*
X156610796Y-108804995D01*
X157086986Y-109804995D02*
X157086986Y-108804995D01*
X157086986Y-108804995D02*
X157325081Y-108804995D01*
X157325081Y-108804995D02*
X157467938Y-108852614D01*
X157467938Y-108852614D02*
X157563176Y-108947852D01*
X157563176Y-108947852D02*
X157610795Y-109043090D01*
X157610795Y-109043090D02*
X157658414Y-109233566D01*
X157658414Y-109233566D02*
X157658414Y-109376423D01*
X157658414Y-109376423D02*
X157610795Y-109566899D01*
X157610795Y-109566899D02*
X157563176Y-109662137D01*
X157563176Y-109662137D02*
X157467938Y-109757376D01*
X157467938Y-109757376D02*
X157325081Y-109804995D01*
X157325081Y-109804995D02*
X157086986Y-109804995D01*
X159420319Y-109709756D02*
X159372700Y-109757376D01*
X159372700Y-109757376D02*
X159229843Y-109804995D01*
X159229843Y-109804995D02*
X159134605Y-109804995D01*
X159134605Y-109804995D02*
X158991748Y-109757376D01*
X158991748Y-109757376D02*
X158896510Y-109662137D01*
X158896510Y-109662137D02*
X158848891Y-109566899D01*
X158848891Y-109566899D02*
X158801272Y-109376423D01*
X158801272Y-109376423D02*
X158801272Y-109233566D01*
X158801272Y-109233566D02*
X158848891Y-109043090D01*
X158848891Y-109043090D02*
X158896510Y-108947852D01*
X158896510Y-108947852D02*
X158991748Y-108852614D01*
X158991748Y-108852614D02*
X159134605Y-108804995D01*
X159134605Y-108804995D02*
X159229843Y-108804995D01*
X159229843Y-108804995D02*
X159372700Y-108852614D01*
X159372700Y-108852614D02*
X159420319Y-108900233D01*
X160039367Y-108804995D02*
X160229843Y-108804995D01*
X160229843Y-108804995D02*
X160325081Y-108852614D01*
X160325081Y-108852614D02*
X160420319Y-108947852D01*
X160420319Y-108947852D02*
X160467938Y-109138328D01*
X160467938Y-109138328D02*
X160467938Y-109471661D01*
X160467938Y-109471661D02*
X160420319Y-109662137D01*
X160420319Y-109662137D02*
X160325081Y-109757376D01*
X160325081Y-109757376D02*
X160229843Y-109804995D01*
X160229843Y-109804995D02*
X160039367Y-109804995D01*
X160039367Y-109804995D02*
X159944129Y-109757376D01*
X159944129Y-109757376D02*
X159848891Y-109662137D01*
X159848891Y-109662137D02*
X159801272Y-109471661D01*
X159801272Y-109471661D02*
X159801272Y-109138328D01*
X159801272Y-109138328D02*
X159848891Y-108947852D01*
X159848891Y-108947852D02*
X159944129Y-108852614D01*
X159944129Y-108852614D02*
X160039367Y-108804995D01*
X160896510Y-109804995D02*
X160896510Y-108804995D01*
X160896510Y-108804995D02*
X161467938Y-109804995D01*
X161467938Y-109804995D02*
X161467938Y-108804995D01*
X161801272Y-108804995D02*
X162372700Y-108804995D01*
X162086986Y-109804995D02*
X162086986Y-108804995D01*
X163277462Y-109804995D02*
X162944129Y-109328804D01*
X162706034Y-109804995D02*
X162706034Y-108804995D01*
X162706034Y-108804995D02*
X163086986Y-108804995D01*
X163086986Y-108804995D02*
X163182224Y-108852614D01*
X163182224Y-108852614D02*
X163229843Y-108900233D01*
X163229843Y-108900233D02*
X163277462Y-108995471D01*
X163277462Y-108995471D02*
X163277462Y-109138328D01*
X163277462Y-109138328D02*
X163229843Y-109233566D01*
X163229843Y-109233566D02*
X163182224Y-109281185D01*
X163182224Y-109281185D02*
X163086986Y-109328804D01*
X163086986Y-109328804D02*
X162706034Y-109328804D01*
X163896510Y-108804995D02*
X164086986Y-108804995D01*
X164086986Y-108804995D02*
X164182224Y-108852614D01*
X164182224Y-108852614D02*
X164277462Y-108947852D01*
X164277462Y-108947852D02*
X164325081Y-109138328D01*
X164325081Y-109138328D02*
X164325081Y-109471661D01*
X164325081Y-109471661D02*
X164277462Y-109662137D01*
X164277462Y-109662137D02*
X164182224Y-109757376D01*
X164182224Y-109757376D02*
X164086986Y-109804995D01*
X164086986Y-109804995D02*
X163896510Y-109804995D01*
X163896510Y-109804995D02*
X163801272Y-109757376D01*
X163801272Y-109757376D02*
X163706034Y-109662137D01*
X163706034Y-109662137D02*
X163658415Y-109471661D01*
X163658415Y-109471661D02*
X163658415Y-109138328D01*
X163658415Y-109138328D02*
X163706034Y-108947852D01*
X163706034Y-108947852D02*
X163801272Y-108852614D01*
X163801272Y-108852614D02*
X163896510Y-108804995D01*
X165229843Y-109804995D02*
X164753653Y-109804995D01*
X164753653Y-109804995D02*
X164753653Y-108804995D01*
D12*
X121506758Y-101432586D02*
X121106758Y-100861158D01*
X120821044Y-101432586D02*
X120821044Y-100232586D01*
X120821044Y-100232586D02*
X121278187Y-100232586D01*
X121278187Y-100232586D02*
X121392472Y-100289729D01*
X121392472Y-100289729D02*
X121449615Y-100346872D01*
X121449615Y-100346872D02*
X121506758Y-100461158D01*
X121506758Y-100461158D02*
X121506758Y-100632586D01*
X121506758Y-100632586D02*
X121449615Y-100746872D01*
X121449615Y-100746872D02*
X121392472Y-100804015D01*
X121392472Y-100804015D02*
X121278187Y-100861158D01*
X121278187Y-100861158D02*
X120821044Y-100861158D01*
X122535330Y-100632586D02*
X122535330Y-101432586D01*
X122021044Y-100632586D02*
X122021044Y-101261158D01*
X122021044Y-101261158D02*
X122078187Y-101375444D01*
X122078187Y-101375444D02*
X122192472Y-101432586D01*
X122192472Y-101432586D02*
X122363901Y-101432586D01*
X122363901Y-101432586D02*
X122478187Y-101375444D01*
X122478187Y-101375444D02*
X122535330Y-101318301D01*
X122021044Y-100289729D02*
X122592472Y-100289729D01*
X123621044Y-101432586D02*
X123621044Y-100232586D01*
X123621044Y-101375444D02*
X123506758Y-101432586D01*
X123506758Y-101432586D02*
X123278186Y-101432586D01*
X123278186Y-101432586D02*
X123163901Y-101375444D01*
X123163901Y-101375444D02*
X123106758Y-101318301D01*
X123106758Y-101318301D02*
X123049615Y-101204015D01*
X123049615Y-101204015D02*
X123049615Y-100861158D01*
X123049615Y-100861158D02*
X123106758Y-100746872D01*
X123106758Y-100746872D02*
X123163901Y-100689729D01*
X123163901Y-100689729D02*
X123278186Y-100632586D01*
X123278186Y-100632586D02*
X123506758Y-100632586D01*
X123506758Y-100632586D02*
X123621044Y-100689729D01*
X124363900Y-101432586D02*
X124249615Y-101375444D01*
X124249615Y-101375444D02*
X124192472Y-101318301D01*
X124192472Y-101318301D02*
X124135329Y-101204015D01*
X124135329Y-101204015D02*
X124135329Y-100861158D01*
X124135329Y-100861158D02*
X124192472Y-100746872D01*
X124192472Y-100746872D02*
X124249615Y-100689729D01*
X124249615Y-100689729D02*
X124363900Y-100632586D01*
X124363900Y-100632586D02*
X124535329Y-100632586D01*
X124535329Y-100632586D02*
X124649615Y-100689729D01*
X124649615Y-100689729D02*
X124706758Y-100746872D01*
X124706758Y-100746872D02*
X124763900Y-100861158D01*
X124763900Y-100861158D02*
X124763900Y-101204015D01*
X124763900Y-101204015D02*
X124706758Y-101318301D01*
X124706758Y-101318301D02*
X124649615Y-101375444D01*
X124649615Y-101375444D02*
X124535329Y-101432586D01*
X124535329Y-101432586D02*
X124363900Y-101432586D01*
X125449614Y-101432586D02*
X125335329Y-101375444D01*
X125335329Y-101375444D02*
X125278186Y-101261158D01*
X125278186Y-101261158D02*
X125278186Y-100232586D01*
X125735328Y-100632586D02*
X126192471Y-100632586D01*
X125906757Y-101432586D02*
X125906757Y-100404015D01*
X125906757Y-100404015D02*
X125963900Y-100289729D01*
X125963900Y-100289729D02*
X126078185Y-100232586D01*
X126078185Y-100232586D02*
X126192471Y-100232586D01*
X126535328Y-101375444D02*
X126649614Y-101432586D01*
X126649614Y-101432586D02*
X126878185Y-101432586D01*
X126878185Y-101432586D02*
X126992471Y-101375444D01*
X126992471Y-101375444D02*
X127049614Y-101261158D01*
X127049614Y-101261158D02*
X127049614Y-101204015D01*
X127049614Y-101204015D02*
X126992471Y-101089729D01*
X126992471Y-101089729D02*
X126878185Y-101032586D01*
X126878185Y-101032586D02*
X126706757Y-101032586D01*
X126706757Y-101032586D02*
X126592471Y-100975444D01*
X126592471Y-100975444D02*
X126535328Y-100861158D01*
X126535328Y-100861158D02*
X126535328Y-100804015D01*
X126535328Y-100804015D02*
X126592471Y-100689729D01*
X126592471Y-100689729D02*
X126706757Y-100632586D01*
X126706757Y-100632586D02*
X126878185Y-100632586D01*
X126878185Y-100632586D02*
X126992471Y-100689729D01*
X128478186Y-101432586D02*
X128478186Y-100232586D01*
X128478186Y-100232586D02*
X128935329Y-100232586D01*
X128935329Y-100232586D02*
X129049614Y-100289729D01*
X129049614Y-100289729D02*
X129106757Y-100346872D01*
X129106757Y-100346872D02*
X129163900Y-100461158D01*
X129163900Y-100461158D02*
X129163900Y-100632586D01*
X129163900Y-100632586D02*
X129106757Y-100746872D01*
X129106757Y-100746872D02*
X129049614Y-100804015D01*
X129049614Y-100804015D02*
X128935329Y-100861158D01*
X128935329Y-100861158D02*
X128478186Y-100861158D01*
X130192472Y-101432586D02*
X130192472Y-100804015D01*
X130192472Y-100804015D02*
X130135329Y-100689729D01*
X130135329Y-100689729D02*
X130021043Y-100632586D01*
X130021043Y-100632586D02*
X129792472Y-100632586D01*
X129792472Y-100632586D02*
X129678186Y-100689729D01*
X130192472Y-101375444D02*
X130078186Y-101432586D01*
X130078186Y-101432586D02*
X129792472Y-101432586D01*
X129792472Y-101432586D02*
X129678186Y-101375444D01*
X129678186Y-101375444D02*
X129621043Y-101261158D01*
X129621043Y-101261158D02*
X129621043Y-101146872D01*
X129621043Y-101146872D02*
X129678186Y-101032586D01*
X129678186Y-101032586D02*
X129792472Y-100975444D01*
X129792472Y-100975444D02*
X130078186Y-100975444D01*
X130078186Y-100975444D02*
X130192472Y-100918301D01*
X130763900Y-101432586D02*
X130763900Y-100232586D01*
X130878186Y-100975444D02*
X131221043Y-101432586D01*
X131221043Y-100632586D02*
X130763900Y-101089729D01*
X132249615Y-101432586D02*
X132249615Y-100804015D01*
X132249615Y-100804015D02*
X132192472Y-100689729D01*
X132192472Y-100689729D02*
X132078186Y-100632586D01*
X132078186Y-100632586D02*
X131849615Y-100632586D01*
X131849615Y-100632586D02*
X131735329Y-100689729D01*
X132249615Y-101375444D02*
X132135329Y-101432586D01*
X132135329Y-101432586D02*
X131849615Y-101432586D01*
X131849615Y-101432586D02*
X131735329Y-101375444D01*
X131735329Y-101375444D02*
X131678186Y-101261158D01*
X131678186Y-101261158D02*
X131678186Y-101146872D01*
X131678186Y-101146872D02*
X131735329Y-101032586D01*
X131735329Y-101032586D02*
X131849615Y-100975444D01*
X131849615Y-100975444D02*
X132135329Y-100975444D01*
X132135329Y-100975444D02*
X132249615Y-100918301D01*
X132992471Y-101432586D02*
X132878186Y-101375444D01*
X132878186Y-101375444D02*
X132821043Y-101261158D01*
X132821043Y-101261158D02*
X132821043Y-100232586D01*
X133449614Y-100632586D02*
X133449614Y-101432586D01*
X133449614Y-100746872D02*
X133506757Y-100689729D01*
X133506757Y-100689729D02*
X133621042Y-100632586D01*
X133621042Y-100632586D02*
X133792471Y-100632586D01*
X133792471Y-100632586D02*
X133906757Y-100689729D01*
X133906757Y-100689729D02*
X133963900Y-100804015D01*
X133963900Y-100804015D02*
X133963900Y-101432586D01*
X134478185Y-101375444D02*
X134592471Y-101432586D01*
X134592471Y-101432586D02*
X134821042Y-101432586D01*
X134821042Y-101432586D02*
X134935328Y-101375444D01*
X134935328Y-101375444D02*
X134992471Y-101261158D01*
X134992471Y-101261158D02*
X134992471Y-101204015D01*
X134992471Y-101204015D02*
X134935328Y-101089729D01*
X134935328Y-101089729D02*
X134821042Y-101032586D01*
X134821042Y-101032586D02*
X134649614Y-101032586D01*
X134649614Y-101032586D02*
X134535328Y-100975444D01*
X134535328Y-100975444D02*
X134478185Y-100861158D01*
X134478185Y-100861158D02*
X134478185Y-100804015D01*
X134478185Y-100804015D02*
X134535328Y-100689729D01*
X134535328Y-100689729D02*
X134649614Y-100632586D01*
X134649614Y-100632586D02*
X134821042Y-100632586D01*
X134821042Y-100632586D02*
X134935328Y-100689729D01*
X136306757Y-100232586D02*
X137049614Y-100232586D01*
X137049614Y-100232586D02*
X136649614Y-100689729D01*
X136649614Y-100689729D02*
X136821043Y-100689729D01*
X136821043Y-100689729D02*
X136935329Y-100746872D01*
X136935329Y-100746872D02*
X136992471Y-100804015D01*
X136992471Y-100804015D02*
X137049614Y-100918301D01*
X137049614Y-100918301D02*
X137049614Y-101204015D01*
X137049614Y-101204015D02*
X136992471Y-101318301D01*
X136992471Y-101318301D02*
X136935329Y-101375444D01*
X136935329Y-101375444D02*
X136821043Y-101432586D01*
X136821043Y-101432586D02*
X136478186Y-101432586D01*
X136478186Y-101432586D02*
X136363900Y-101375444D01*
X136363900Y-101375444D02*
X136306757Y-101318301D01*
X137563900Y-100804015D02*
X137963900Y-100804015D01*
X138135328Y-101432586D02*
X137563900Y-101432586D01*
X137563900Y-101432586D02*
X137563900Y-100232586D01*
X137563900Y-100232586D02*
X138135328Y-100232586D01*
X138649614Y-101432586D02*
X138649614Y-100232586D01*
X139621043Y-100804015D02*
X139792471Y-100861158D01*
X139792471Y-100861158D02*
X139849614Y-100918301D01*
X139849614Y-100918301D02*
X139906757Y-101032586D01*
X139906757Y-101032586D02*
X139906757Y-101204015D01*
X139906757Y-101204015D02*
X139849614Y-101318301D01*
X139849614Y-101318301D02*
X139792471Y-101375444D01*
X139792471Y-101375444D02*
X139678186Y-101432586D01*
X139678186Y-101432586D02*
X139221043Y-101432586D01*
X139221043Y-101432586D02*
X139221043Y-100232586D01*
X139221043Y-100232586D02*
X139621043Y-100232586D01*
X139621043Y-100232586D02*
X139735329Y-100289729D01*
X139735329Y-100289729D02*
X139792471Y-100346872D01*
X139792471Y-100346872D02*
X139849614Y-100461158D01*
X139849614Y-100461158D02*
X139849614Y-100575444D01*
X139849614Y-100575444D02*
X139792471Y-100689729D01*
X139792471Y-100689729D02*
X139735329Y-100746872D01*
X139735329Y-100746872D02*
X139621043Y-100804015D01*
X139621043Y-100804015D02*
X139221043Y-100804015D01*
X128278186Y-102278805D02*
X128335329Y-102221662D01*
X128335329Y-102221662D02*
X128449615Y-102164519D01*
X128449615Y-102164519D02*
X128735329Y-102164519D01*
X128735329Y-102164519D02*
X128849615Y-102221662D01*
X128849615Y-102221662D02*
X128906757Y-102278805D01*
X128906757Y-102278805D02*
X128963900Y-102393091D01*
X128963900Y-102393091D02*
X128963900Y-102507377D01*
X128963900Y-102507377D02*
X128906757Y-102678805D01*
X128906757Y-102678805D02*
X128221043Y-103364519D01*
X128221043Y-103364519D02*
X128963900Y-103364519D01*
X129706757Y-102164519D02*
X129821043Y-102164519D01*
X129821043Y-102164519D02*
X129935329Y-102221662D01*
X129935329Y-102221662D02*
X129992472Y-102278805D01*
X129992472Y-102278805D02*
X130049614Y-102393091D01*
X130049614Y-102393091D02*
X130106757Y-102621662D01*
X130106757Y-102621662D02*
X130106757Y-102907377D01*
X130106757Y-102907377D02*
X130049614Y-103135948D01*
X130049614Y-103135948D02*
X129992472Y-103250234D01*
X129992472Y-103250234D02*
X129935329Y-103307377D01*
X129935329Y-103307377D02*
X129821043Y-103364519D01*
X129821043Y-103364519D02*
X129706757Y-103364519D01*
X129706757Y-103364519D02*
X129592472Y-103307377D01*
X129592472Y-103307377D02*
X129535329Y-103250234D01*
X129535329Y-103250234D02*
X129478186Y-103135948D01*
X129478186Y-103135948D02*
X129421043Y-102907377D01*
X129421043Y-102907377D02*
X129421043Y-102621662D01*
X129421043Y-102621662D02*
X129478186Y-102393091D01*
X129478186Y-102393091D02*
X129535329Y-102278805D01*
X129535329Y-102278805D02*
X129592472Y-102221662D01*
X129592472Y-102221662D02*
X129706757Y-102164519D01*
X130563900Y-102278805D02*
X130621043Y-102221662D01*
X130621043Y-102221662D02*
X130735329Y-102164519D01*
X130735329Y-102164519D02*
X131021043Y-102164519D01*
X131021043Y-102164519D02*
X131135329Y-102221662D01*
X131135329Y-102221662D02*
X131192471Y-102278805D01*
X131192471Y-102278805D02*
X131249614Y-102393091D01*
X131249614Y-102393091D02*
X131249614Y-102507377D01*
X131249614Y-102507377D02*
X131192471Y-102678805D01*
X131192471Y-102678805D02*
X130506757Y-103364519D01*
X130506757Y-103364519D02*
X131249614Y-103364519D01*
X132278186Y-102164519D02*
X132049614Y-102164519D01*
X132049614Y-102164519D02*
X131935328Y-102221662D01*
X131935328Y-102221662D02*
X131878186Y-102278805D01*
X131878186Y-102278805D02*
X131763900Y-102450234D01*
X131763900Y-102450234D02*
X131706757Y-102678805D01*
X131706757Y-102678805D02*
X131706757Y-103135948D01*
X131706757Y-103135948D02*
X131763900Y-103250234D01*
X131763900Y-103250234D02*
X131821043Y-103307377D01*
X131821043Y-103307377D02*
X131935328Y-103364519D01*
X131935328Y-103364519D02*
X132163900Y-103364519D01*
X132163900Y-103364519D02*
X132278186Y-103307377D01*
X132278186Y-103307377D02*
X132335328Y-103250234D01*
X132335328Y-103250234D02*
X132392471Y-103135948D01*
X132392471Y-103135948D02*
X132392471Y-102850234D01*
X132392471Y-102850234D02*
X132335328Y-102735948D01*
X132335328Y-102735948D02*
X132278186Y-102678805D01*
X132278186Y-102678805D02*
X132163900Y-102621662D01*
X132163900Y-102621662D02*
X131935328Y-102621662D01*
X131935328Y-102621662D02*
X131821043Y-102678805D01*
X131821043Y-102678805D02*
X131763900Y-102735948D01*
X131763900Y-102735948D02*
X131706757Y-102850234D01*
X126196982Y-104252586D02*
X126882697Y-104252586D01*
X126539839Y-105452586D02*
X126539839Y-104252586D01*
X127282697Y-105452586D02*
X127282697Y-104252586D01*
X127796983Y-105452586D02*
X127796983Y-104824015D01*
X127796983Y-104824015D02*
X127739840Y-104709729D01*
X127739840Y-104709729D02*
X127625554Y-104652586D01*
X127625554Y-104652586D02*
X127454125Y-104652586D01*
X127454125Y-104652586D02*
X127339840Y-104709729D01*
X127339840Y-104709729D02*
X127282697Y-104766872D01*
X128825554Y-105395444D02*
X128711268Y-105452586D01*
X128711268Y-105452586D02*
X128482697Y-105452586D01*
X128482697Y-105452586D02*
X128368411Y-105395444D01*
X128368411Y-105395444D02*
X128311268Y-105281158D01*
X128311268Y-105281158D02*
X128311268Y-104824015D01*
X128311268Y-104824015D02*
X128368411Y-104709729D01*
X128368411Y-104709729D02*
X128482697Y-104652586D01*
X128482697Y-104652586D02*
X128711268Y-104652586D01*
X128711268Y-104652586D02*
X128825554Y-104709729D01*
X128825554Y-104709729D02*
X128882697Y-104824015D01*
X128882697Y-104824015D02*
X128882697Y-104938301D01*
X128882697Y-104938301D02*
X128311268Y-105052586D01*
X130254125Y-105109729D02*
X130825554Y-105109729D01*
X130139839Y-105452586D02*
X130539839Y-104252586D01*
X130539839Y-104252586D02*
X130939839Y-105452586D01*
X131339839Y-105452586D02*
X131339839Y-104652586D01*
X131339839Y-104881158D02*
X131396982Y-104766872D01*
X131396982Y-104766872D02*
X131454125Y-104709729D01*
X131454125Y-104709729D02*
X131568410Y-104652586D01*
X131568410Y-104652586D02*
X131682696Y-104652586D01*
X132082696Y-105452586D02*
X132082696Y-104652586D01*
X132082696Y-104881158D02*
X132139839Y-104766872D01*
X132139839Y-104766872D02*
X132196982Y-104709729D01*
X132196982Y-104709729D02*
X132311267Y-104652586D01*
X132311267Y-104652586D02*
X132425553Y-104652586D01*
X132996981Y-105452586D02*
X132882696Y-105395444D01*
X132882696Y-105395444D02*
X132825553Y-105338301D01*
X132825553Y-105338301D02*
X132768410Y-105224015D01*
X132768410Y-105224015D02*
X132768410Y-104881158D01*
X132768410Y-104881158D02*
X132825553Y-104766872D01*
X132825553Y-104766872D02*
X132882696Y-104709729D01*
X132882696Y-104709729D02*
X132996981Y-104652586D01*
X132996981Y-104652586D02*
X133168410Y-104652586D01*
X133168410Y-104652586D02*
X133282696Y-104709729D01*
X133282696Y-104709729D02*
X133339839Y-104766872D01*
X133339839Y-104766872D02*
X133396981Y-104881158D01*
X133396981Y-104881158D02*
X133396981Y-105224015D01*
X133396981Y-105224015D02*
X133339839Y-105338301D01*
X133339839Y-105338301D02*
X133282696Y-105395444D01*
X133282696Y-105395444D02*
X133168410Y-105452586D01*
X133168410Y-105452586D02*
X132996981Y-105452586D01*
X133796981Y-104652586D02*
X134025553Y-105452586D01*
X134025553Y-105452586D02*
X134254124Y-104881158D01*
X134254124Y-104881158D02*
X134482695Y-105452586D01*
X134482695Y-105452586D02*
X134711267Y-104652586D01*
D11*
X158635961Y-103904293D02*
X158588342Y-103999531D01*
X158588342Y-103999531D02*
X158588342Y-104142388D01*
X158588342Y-104142388D02*
X158635961Y-104285245D01*
X158635961Y-104285245D02*
X158731199Y-104380483D01*
X158731199Y-104380483D02*
X158826437Y-104428102D01*
X158826437Y-104428102D02*
X159016913Y-104475721D01*
X159016913Y-104475721D02*
X159159770Y-104475721D01*
X159159770Y-104475721D02*
X159350246Y-104428102D01*
X159350246Y-104428102D02*
X159445484Y-104380483D01*
X159445484Y-104380483D02*
X159540723Y-104285245D01*
X159540723Y-104285245D02*
X159588342Y-104142388D01*
X159588342Y-104142388D02*
X159588342Y-104047150D01*
X159588342Y-104047150D02*
X159540723Y-103904293D01*
X159540723Y-103904293D02*
X159493103Y-103856674D01*
X159493103Y-103856674D02*
X159159770Y-103856674D01*
X159159770Y-103856674D02*
X159159770Y-104047150D01*
X159588342Y-103428102D02*
X158588342Y-103428102D01*
X158588342Y-103428102D02*
X159588342Y-102856674D01*
X159588342Y-102856674D02*
X158588342Y-102856674D01*
X159588342Y-102380483D02*
X158588342Y-102380483D01*
X158588342Y-102380483D02*
X158588342Y-102142388D01*
X158588342Y-102142388D02*
X158635961Y-101999531D01*
X158635961Y-101999531D02*
X158731199Y-101904293D01*
X158731199Y-101904293D02*
X158826437Y-101856674D01*
X158826437Y-101856674D02*
X159016913Y-101809055D01*
X159016913Y-101809055D02*
X159159770Y-101809055D01*
X159159770Y-101809055D02*
X159350246Y-101856674D01*
X159350246Y-101856674D02*
X159445484Y-101904293D01*
X159445484Y-101904293D02*
X159540723Y-101999531D01*
X159540723Y-101999531D02*
X159588342Y-102142388D01*
X159588342Y-102142388D02*
X159588342Y-102380483D01*
X116170723Y-112245721D02*
X116218342Y-112102864D01*
X116218342Y-112102864D02*
X116218342Y-111864769D01*
X116218342Y-111864769D02*
X116170723Y-111769531D01*
X116170723Y-111769531D02*
X116123103Y-111721912D01*
X116123103Y-111721912D02*
X116027865Y-111674293D01*
X116027865Y-111674293D02*
X115932627Y-111674293D01*
X115932627Y-111674293D02*
X115837389Y-111721912D01*
X115837389Y-111721912D02*
X115789770Y-111769531D01*
X115789770Y-111769531D02*
X115742151Y-111864769D01*
X115742151Y-111864769D02*
X115694532Y-112055245D01*
X115694532Y-112055245D02*
X115646913Y-112150483D01*
X115646913Y-112150483D02*
X115599294Y-112198102D01*
X115599294Y-112198102D02*
X115504056Y-112245721D01*
X115504056Y-112245721D02*
X115408818Y-112245721D01*
X115408818Y-112245721D02*
X115313580Y-112198102D01*
X115313580Y-112198102D02*
X115265961Y-112150483D01*
X115265961Y-112150483D02*
X115218342Y-112055245D01*
X115218342Y-112055245D02*
X115218342Y-111817150D01*
X115218342Y-111817150D02*
X115265961Y-111674293D01*
X115218342Y-111340959D02*
X116218342Y-111102864D01*
X116218342Y-111102864D02*
X115504056Y-110912388D01*
X115504056Y-110912388D02*
X116218342Y-110721912D01*
X116218342Y-110721912D02*
X115218342Y-110483817D01*
X116313580Y-110340960D02*
X116313580Y-109579055D01*
X116218342Y-109340959D02*
X115218342Y-109340959D01*
X115218342Y-108674293D02*
X115218342Y-108483817D01*
X115218342Y-108483817D02*
X115265961Y-108388579D01*
X115265961Y-108388579D02*
X115361199Y-108293341D01*
X115361199Y-108293341D02*
X115551675Y-108245722D01*
X115551675Y-108245722D02*
X115885008Y-108245722D01*
X115885008Y-108245722D02*
X116075484Y-108293341D01*
X116075484Y-108293341D02*
X116170723Y-108388579D01*
X116170723Y-108388579D02*
X116218342Y-108483817D01*
X116218342Y-108483817D02*
X116218342Y-108674293D01*
X116218342Y-108674293D02*
X116170723Y-108769531D01*
X116170723Y-108769531D02*
X116075484Y-108864769D01*
X116075484Y-108864769D02*
X115885008Y-108912388D01*
X115885008Y-108912388D02*
X115551675Y-108912388D01*
X115551675Y-108912388D02*
X115361199Y-108864769D01*
X115361199Y-108864769D02*
X115265961Y-108769531D01*
X115265961Y-108769531D02*
X115218342Y-108674293D01*
D13*
X164035119Y-112462395D02*
X163701786Y-111986204D01*
X163463691Y-112462395D02*
X163463691Y-111462395D01*
X163463691Y-111462395D02*
X163844643Y-111462395D01*
X163844643Y-111462395D02*
X163939881Y-111510014D01*
X163939881Y-111510014D02*
X163987500Y-111557633D01*
X163987500Y-111557633D02*
X164035119Y-111652871D01*
X164035119Y-111652871D02*
X164035119Y-111795728D01*
X164035119Y-111795728D02*
X163987500Y-111890966D01*
X163987500Y-111890966D02*
X163939881Y-111938585D01*
X163939881Y-111938585D02*
X163844643Y-111986204D01*
X163844643Y-111986204D02*
X163463691Y-111986204D01*
X164416072Y-112414776D02*
X164558929Y-112462395D01*
X164558929Y-112462395D02*
X164797024Y-112462395D01*
X164797024Y-112462395D02*
X164892262Y-112414776D01*
X164892262Y-112414776D02*
X164939881Y-112367156D01*
X164939881Y-112367156D02*
X164987500Y-112271918D01*
X164987500Y-112271918D02*
X164987500Y-112176680D01*
X164987500Y-112176680D02*
X164939881Y-112081442D01*
X164939881Y-112081442D02*
X164892262Y-112033823D01*
X164892262Y-112033823D02*
X164797024Y-111986204D01*
X164797024Y-111986204D02*
X164606548Y-111938585D01*
X164606548Y-111938585D02*
X164511310Y-111890966D01*
X164511310Y-111890966D02*
X164463691Y-111843347D01*
X164463691Y-111843347D02*
X164416072Y-111748109D01*
X164416072Y-111748109D02*
X164416072Y-111652871D01*
X164416072Y-111652871D02*
X164463691Y-111557633D01*
X164463691Y-111557633D02*
X164511310Y-111510014D01*
X164511310Y-111510014D02*
X164606548Y-111462395D01*
X164606548Y-111462395D02*
X164844643Y-111462395D01*
X164844643Y-111462395D02*
X164987500Y-111510014D01*
X165273215Y-111462395D02*
X165844643Y-111462395D01*
X165558929Y-112462395D02*
X165558929Y-111462395D01*
X163325596Y-111184776D02*
X165839882Y-111184776D01*
X127476072Y-112284776D02*
X127618929Y-112332395D01*
X127618929Y-112332395D02*
X127857024Y-112332395D01*
X127857024Y-112332395D02*
X127952262Y-112284776D01*
X127952262Y-112284776D02*
X127999881Y-112237156D01*
X127999881Y-112237156D02*
X128047500Y-112141918D01*
X128047500Y-112141918D02*
X128047500Y-112046680D01*
X128047500Y-112046680D02*
X127999881Y-111951442D01*
X127999881Y-111951442D02*
X127952262Y-111903823D01*
X127952262Y-111903823D02*
X127857024Y-111856204D01*
X127857024Y-111856204D02*
X127666548Y-111808585D01*
X127666548Y-111808585D02*
X127571310Y-111760966D01*
X127571310Y-111760966D02*
X127523691Y-111713347D01*
X127523691Y-111713347D02*
X127476072Y-111618109D01*
X127476072Y-111618109D02*
X127476072Y-111522871D01*
X127476072Y-111522871D02*
X127523691Y-111427633D01*
X127523691Y-111427633D02*
X127571310Y-111380014D01*
X127571310Y-111380014D02*
X127666548Y-111332395D01*
X127666548Y-111332395D02*
X127904643Y-111332395D01*
X127904643Y-111332395D02*
X128047500Y-111380014D01*
X128333215Y-111332395D02*
X128904643Y-111332395D01*
X128618929Y-112332395D02*
X128618929Y-111332395D01*
X129190358Y-112046680D02*
X129666548Y-112046680D01*
X129095120Y-112332395D02*
X129428453Y-111332395D01*
X129428453Y-111332395D02*
X129761786Y-112332395D01*
X130666548Y-112332395D02*
X130333215Y-111856204D01*
X130095120Y-112332395D02*
X130095120Y-111332395D01*
X130095120Y-111332395D02*
X130476072Y-111332395D01*
X130476072Y-111332395D02*
X130571310Y-111380014D01*
X130571310Y-111380014D02*
X130618929Y-111427633D01*
X130618929Y-111427633D02*
X130666548Y-111522871D01*
X130666548Y-111522871D02*
X130666548Y-111665728D01*
X130666548Y-111665728D02*
X130618929Y-111760966D01*
X130618929Y-111760966D02*
X130571310Y-111808585D01*
X130571310Y-111808585D02*
X130476072Y-111856204D01*
X130476072Y-111856204D02*
X130095120Y-111856204D01*
X130952263Y-111332395D02*
X131523691Y-111332395D01*
X131237977Y-112332395D02*
X131237977Y-111332395D01*
D11*
X167610796Y-85824995D02*
X167610796Y-84824995D01*
X167610796Y-84824995D02*
X167991748Y-84824995D01*
X167991748Y-84824995D02*
X168086986Y-84872614D01*
X168086986Y-84872614D02*
X168134605Y-84920233D01*
X168134605Y-84920233D02*
X168182224Y-85015471D01*
X168182224Y-85015471D02*
X168182224Y-85158328D01*
X168182224Y-85158328D02*
X168134605Y-85253566D01*
X168134605Y-85253566D02*
X168086986Y-85301185D01*
X168086986Y-85301185D02*
X167991748Y-85348804D01*
X167991748Y-85348804D02*
X167610796Y-85348804D01*
X168515558Y-84824995D02*
X168753653Y-85824995D01*
X168753653Y-85824995D02*
X168944129Y-85110709D01*
X168944129Y-85110709D02*
X169134605Y-85824995D01*
X169134605Y-85824995D02*
X169372701Y-84824995D01*
X170325081Y-85824995D02*
X169991748Y-85348804D01*
X169753653Y-85824995D02*
X169753653Y-84824995D01*
X169753653Y-84824995D02*
X170134605Y-84824995D01*
X170134605Y-84824995D02*
X170229843Y-84872614D01*
X170229843Y-84872614D02*
X170277462Y-84920233D01*
X170277462Y-84920233D02*
X170325081Y-85015471D01*
X170325081Y-85015471D02*
X170325081Y-85158328D01*
X170325081Y-85158328D02*
X170277462Y-85253566D01*
X170277462Y-85253566D02*
X170229843Y-85301185D01*
X170229843Y-85301185D02*
X170134605Y-85348804D01*
X170134605Y-85348804D02*
X169753653Y-85348804D01*
D13*
X99137761Y-96620663D02*
X101137761Y-96620663D01*
X101137761Y-96620663D02*
X99709190Y-97287330D01*
X99709190Y-97287330D02*
X101137761Y-97953996D01*
X101137761Y-97953996D02*
X99137761Y-97953996D01*
X101137761Y-99287329D02*
X101137761Y-99668282D01*
X101137761Y-99668282D02*
X101042523Y-99858758D01*
X101042523Y-99858758D02*
X100852047Y-100049234D01*
X100852047Y-100049234D02*
X100471095Y-100144472D01*
X100471095Y-100144472D02*
X99804428Y-100144472D01*
X99804428Y-100144472D02*
X99423476Y-100049234D01*
X99423476Y-100049234D02*
X99233000Y-99858758D01*
X99233000Y-99858758D02*
X99137761Y-99668282D01*
X99137761Y-99668282D02*
X99137761Y-99287329D01*
X99137761Y-99287329D02*
X99233000Y-99096853D01*
X99233000Y-99096853D02*
X99423476Y-98906377D01*
X99423476Y-98906377D02*
X99804428Y-98811139D01*
X99804428Y-98811139D02*
X100471095Y-98811139D01*
X100471095Y-98811139D02*
X100852047Y-98906377D01*
X100852047Y-98906377D02*
X101042523Y-99096853D01*
X101042523Y-99096853D02*
X101137761Y-99287329D01*
X101137761Y-100715901D02*
X101137761Y-101858758D01*
X99137761Y-101287329D02*
X101137761Y-101287329D01*
X101137761Y-102906377D02*
X101137761Y-103287330D01*
X101137761Y-103287330D02*
X101042523Y-103477806D01*
X101042523Y-103477806D02*
X100852047Y-103668282D01*
X100852047Y-103668282D02*
X100471095Y-103763520D01*
X100471095Y-103763520D02*
X99804428Y-103763520D01*
X99804428Y-103763520D02*
X99423476Y-103668282D01*
X99423476Y-103668282D02*
X99233000Y-103477806D01*
X99233000Y-103477806D02*
X99137761Y-103287330D01*
X99137761Y-103287330D02*
X99137761Y-102906377D01*
X99137761Y-102906377D02*
X99233000Y-102715901D01*
X99233000Y-102715901D02*
X99423476Y-102525425D01*
X99423476Y-102525425D02*
X99804428Y-102430187D01*
X99804428Y-102430187D02*
X100471095Y-102430187D01*
X100471095Y-102430187D02*
X100852047Y-102525425D01*
X100852047Y-102525425D02*
X101042523Y-102715901D01*
X101042523Y-102715901D02*
X101137761Y-102906377D01*
X99137761Y-105763520D02*
X100090142Y-105096853D01*
X99137761Y-104620663D02*
X101137761Y-104620663D01*
X101137761Y-104620663D02*
X101137761Y-105382568D01*
X101137761Y-105382568D02*
X101042523Y-105573044D01*
X101042523Y-105573044D02*
X100947285Y-105668282D01*
X100947285Y-105668282D02*
X100756809Y-105763520D01*
X100756809Y-105763520D02*
X100471095Y-105763520D01*
X100471095Y-105763520D02*
X100280619Y-105668282D01*
X100280619Y-105668282D02*
X100185380Y-105573044D01*
X100185380Y-105573044D02*
X100090142Y-105382568D01*
X100090142Y-105382568D02*
X100090142Y-104620663D01*
X100185380Y-108811140D02*
X100090142Y-109096854D01*
X100090142Y-109096854D02*
X99994904Y-109192092D01*
X99994904Y-109192092D02*
X99804428Y-109287330D01*
X99804428Y-109287330D02*
X99518714Y-109287330D01*
X99518714Y-109287330D02*
X99328238Y-109192092D01*
X99328238Y-109192092D02*
X99233000Y-109096854D01*
X99233000Y-109096854D02*
X99137761Y-108906378D01*
X99137761Y-108906378D02*
X99137761Y-108144473D01*
X99137761Y-108144473D02*
X101137761Y-108144473D01*
X101137761Y-108144473D02*
X101137761Y-108811140D01*
X101137761Y-108811140D02*
X101042523Y-109001616D01*
X101042523Y-109001616D02*
X100947285Y-109096854D01*
X100947285Y-109096854D02*
X100756809Y-109192092D01*
X100756809Y-109192092D02*
X100566333Y-109192092D01*
X100566333Y-109192092D02*
X100375857Y-109096854D01*
X100375857Y-109096854D02*
X100280619Y-109001616D01*
X100280619Y-109001616D02*
X100185380Y-108811140D01*
X100185380Y-108811140D02*
X100185380Y-108144473D01*
D11*
X119193177Y-93034280D02*
X119669367Y-93034280D01*
X119097939Y-93319995D02*
X119431272Y-92319995D01*
X119431272Y-92319995D02*
X119764605Y-93319995D01*
X120050320Y-92415233D02*
X120097939Y-92367614D01*
X120097939Y-92367614D02*
X120193177Y-92319995D01*
X120193177Y-92319995D02*
X120431272Y-92319995D01*
X120431272Y-92319995D02*
X120526510Y-92367614D01*
X120526510Y-92367614D02*
X120574129Y-92415233D01*
X120574129Y-92415233D02*
X120621748Y-92510471D01*
X120621748Y-92510471D02*
X120621748Y-92605709D01*
X120621748Y-92605709D02*
X120574129Y-92748566D01*
X120574129Y-92748566D02*
X120002701Y-93319995D01*
X120002701Y-93319995D02*
X120621748Y-93319995D01*
X113608342Y-111626674D02*
X113132151Y-111960007D01*
X113608342Y-112198102D02*
X112608342Y-112198102D01*
X112608342Y-112198102D02*
X112608342Y-111817150D01*
X112608342Y-111817150D02*
X112655961Y-111721912D01*
X112655961Y-111721912D02*
X112703580Y-111674293D01*
X112703580Y-111674293D02*
X112798818Y-111626674D01*
X112798818Y-111626674D02*
X112941675Y-111626674D01*
X112941675Y-111626674D02*
X113036913Y-111674293D01*
X113036913Y-111674293D02*
X113084532Y-111721912D01*
X113084532Y-111721912D02*
X113132151Y-111817150D01*
X113132151Y-111817150D02*
X113132151Y-112198102D01*
X113560723Y-111245721D02*
X113608342Y-111102864D01*
X113608342Y-111102864D02*
X113608342Y-110864769D01*
X113608342Y-110864769D02*
X113560723Y-110769531D01*
X113560723Y-110769531D02*
X113513103Y-110721912D01*
X113513103Y-110721912D02*
X113417865Y-110674293D01*
X113417865Y-110674293D02*
X113322627Y-110674293D01*
X113322627Y-110674293D02*
X113227389Y-110721912D01*
X113227389Y-110721912D02*
X113179770Y-110769531D01*
X113179770Y-110769531D02*
X113132151Y-110864769D01*
X113132151Y-110864769D02*
X113084532Y-111055245D01*
X113084532Y-111055245D02*
X113036913Y-111150483D01*
X113036913Y-111150483D02*
X112989294Y-111198102D01*
X112989294Y-111198102D02*
X112894056Y-111245721D01*
X112894056Y-111245721D02*
X112798818Y-111245721D01*
X112798818Y-111245721D02*
X112703580Y-111198102D01*
X112703580Y-111198102D02*
X112655961Y-111150483D01*
X112655961Y-111150483D02*
X112608342Y-111055245D01*
X112608342Y-111055245D02*
X112608342Y-110817150D01*
X112608342Y-110817150D02*
X112655961Y-110674293D01*
X112608342Y-110388578D02*
X112608342Y-109817150D01*
X113608342Y-110102864D02*
X112608342Y-110102864D01*
X112330723Y-112336198D02*
X112330723Y-109821912D01*
X155998342Y-104303340D02*
X155998342Y-103684293D01*
X155998342Y-103684293D02*
X156379294Y-104017626D01*
X156379294Y-104017626D02*
X156379294Y-103874769D01*
X156379294Y-103874769D02*
X156426913Y-103779531D01*
X156426913Y-103779531D02*
X156474532Y-103731912D01*
X156474532Y-103731912D02*
X156569770Y-103684293D01*
X156569770Y-103684293D02*
X156807865Y-103684293D01*
X156807865Y-103684293D02*
X156903103Y-103731912D01*
X156903103Y-103731912D02*
X156950723Y-103779531D01*
X156950723Y-103779531D02*
X156998342Y-103874769D01*
X156998342Y-103874769D02*
X156998342Y-104160483D01*
X156998342Y-104160483D02*
X156950723Y-104255721D01*
X156950723Y-104255721D02*
X156903103Y-104303340D01*
X155998342Y-103398578D02*
X156998342Y-103065245D01*
X156998342Y-103065245D02*
X155998342Y-102731912D01*
X155998342Y-102493816D02*
X155998342Y-101874769D01*
X155998342Y-101874769D02*
X156379294Y-102208102D01*
X156379294Y-102208102D02*
X156379294Y-102065245D01*
X156379294Y-102065245D02*
X156426913Y-101970007D01*
X156426913Y-101970007D02*
X156474532Y-101922388D01*
X156474532Y-101922388D02*
X156569770Y-101874769D01*
X156569770Y-101874769D02*
X156807865Y-101874769D01*
X156807865Y-101874769D02*
X156903103Y-101922388D01*
X156903103Y-101922388D02*
X156950723Y-101970007D01*
X156950723Y-101970007D02*
X156998342Y-102065245D01*
X156998342Y-102065245D02*
X156998342Y-102350959D01*
X156998342Y-102350959D02*
X156950723Y-102446197D01*
X156950723Y-102446197D02*
X156903103Y-102493816D01*
X121773177Y-93024280D02*
X122249367Y-93024280D01*
X121677939Y-93309995D02*
X122011272Y-92309995D01*
X122011272Y-92309995D02*
X122344605Y-93309995D01*
X123201748Y-93309995D02*
X122630320Y-93309995D01*
X122916034Y-93309995D02*
X122916034Y-92309995D01*
X122916034Y-92309995D02*
X122820796Y-92452852D01*
X122820796Y-92452852D02*
X122725558Y-92548090D01*
X122725558Y-92548090D02*
X122630320Y-92595709D01*
D13*
X194482238Y-108209336D02*
X192482238Y-108209336D01*
X192482238Y-108209336D02*
X193910809Y-107542669D01*
X193910809Y-107542669D02*
X192482238Y-106876003D01*
X192482238Y-106876003D02*
X194482238Y-106876003D01*
X192482238Y-105542670D02*
X192482238Y-105161717D01*
X192482238Y-105161717D02*
X192577476Y-104971241D01*
X192577476Y-104971241D02*
X192767952Y-104780765D01*
X192767952Y-104780765D02*
X193148904Y-104685527D01*
X193148904Y-104685527D02*
X193815571Y-104685527D01*
X193815571Y-104685527D02*
X194196523Y-104780765D01*
X194196523Y-104780765D02*
X194387000Y-104971241D01*
X194387000Y-104971241D02*
X194482238Y-105161717D01*
X194482238Y-105161717D02*
X194482238Y-105542670D01*
X194482238Y-105542670D02*
X194387000Y-105733146D01*
X194387000Y-105733146D02*
X194196523Y-105923622D01*
X194196523Y-105923622D02*
X193815571Y-106018860D01*
X193815571Y-106018860D02*
X193148904Y-106018860D01*
X193148904Y-106018860D02*
X192767952Y-105923622D01*
X192767952Y-105923622D02*
X192577476Y-105733146D01*
X192577476Y-105733146D02*
X192482238Y-105542670D01*
X192482238Y-104114098D02*
X192482238Y-102971241D01*
X194482238Y-103542670D02*
X192482238Y-103542670D01*
X192482238Y-101923622D02*
X192482238Y-101542669D01*
X192482238Y-101542669D02*
X192577476Y-101352193D01*
X192577476Y-101352193D02*
X192767952Y-101161717D01*
X192767952Y-101161717D02*
X193148904Y-101066479D01*
X193148904Y-101066479D02*
X193815571Y-101066479D01*
X193815571Y-101066479D02*
X194196523Y-101161717D01*
X194196523Y-101161717D02*
X194387000Y-101352193D01*
X194387000Y-101352193D02*
X194482238Y-101542669D01*
X194482238Y-101542669D02*
X194482238Y-101923622D01*
X194482238Y-101923622D02*
X194387000Y-102114098D01*
X194387000Y-102114098D02*
X194196523Y-102304574D01*
X194196523Y-102304574D02*
X193815571Y-102399812D01*
X193815571Y-102399812D02*
X193148904Y-102399812D01*
X193148904Y-102399812D02*
X192767952Y-102304574D01*
X192767952Y-102304574D02*
X192577476Y-102114098D01*
X192577476Y-102114098D02*
X192482238Y-101923622D01*
X194482238Y-99066479D02*
X193529857Y-99733146D01*
X194482238Y-100209336D02*
X192482238Y-100209336D01*
X192482238Y-100209336D02*
X192482238Y-99447431D01*
X192482238Y-99447431D02*
X192577476Y-99256955D01*
X192577476Y-99256955D02*
X192672714Y-99161717D01*
X192672714Y-99161717D02*
X192863190Y-99066479D01*
X192863190Y-99066479D02*
X193148904Y-99066479D01*
X193148904Y-99066479D02*
X193339380Y-99161717D01*
X193339380Y-99161717D02*
X193434619Y-99256955D01*
X193434619Y-99256955D02*
X193529857Y-99447431D01*
X193529857Y-99447431D02*
X193529857Y-100209336D01*
X193910809Y-96780764D02*
X193910809Y-95828383D01*
X194482238Y-96971240D02*
X192482238Y-96304574D01*
X192482238Y-96304574D02*
X194482238Y-95637907D01*
D14*
X140876254Y-93886342D02*
X140976254Y-93919676D01*
X140976254Y-93919676D02*
X141009587Y-93953009D01*
X141009587Y-93953009D02*
X141042920Y-94019676D01*
X141042920Y-94019676D02*
X141042920Y-94119676D01*
X141042920Y-94119676D02*
X141009587Y-94186342D01*
X141009587Y-94186342D02*
X140976254Y-94219676D01*
X140976254Y-94219676D02*
X140909587Y-94253009D01*
X140909587Y-94253009D02*
X140642920Y-94253009D01*
X140642920Y-94253009D02*
X140642920Y-93553009D01*
X140642920Y-93553009D02*
X140876254Y-93553009D01*
X140876254Y-93553009D02*
X140942920Y-93586342D01*
X140942920Y-93586342D02*
X140976254Y-93619676D01*
X140976254Y-93619676D02*
X141009587Y-93686342D01*
X141009587Y-93686342D02*
X141009587Y-93753009D01*
X141009587Y-93753009D02*
X140976254Y-93819676D01*
X140976254Y-93819676D02*
X140942920Y-93853009D01*
X140942920Y-93853009D02*
X140876254Y-93886342D01*
X140876254Y-93886342D02*
X140642920Y-93886342D01*
X141309587Y-94053009D02*
X141642920Y-94053009D01*
X141242920Y-94253009D02*
X141476254Y-93553009D01*
X141476254Y-93553009D02*
X141709587Y-94253009D01*
X141842920Y-93553009D02*
X142242920Y-93553009D01*
X142042920Y-94253009D02*
X142042920Y-93553009D01*
D11*
X177462224Y-118484997D02*
X177128891Y-118008806D01*
X176890796Y-118484997D02*
X176890796Y-117484997D01*
X176890796Y-117484997D02*
X177271748Y-117484997D01*
X177271748Y-117484997D02*
X177366986Y-117532616D01*
X177366986Y-117532616D02*
X177414605Y-117580235D01*
X177414605Y-117580235D02*
X177462224Y-117675473D01*
X177462224Y-117675473D02*
X177462224Y-117818330D01*
X177462224Y-117818330D02*
X177414605Y-117913568D01*
X177414605Y-117913568D02*
X177366986Y-117961187D01*
X177366986Y-117961187D02*
X177271748Y-118008806D01*
X177271748Y-118008806D02*
X176890796Y-118008806D01*
X177795558Y-117484997D02*
X178462224Y-118484997D01*
X178462224Y-117484997D02*
X177795558Y-118484997D01*
X174257939Y-117454996D02*
X174829367Y-117454996D01*
X174543653Y-118454996D02*
X174543653Y-117454996D01*
X175067463Y-117454996D02*
X175734129Y-118454996D01*
X175734129Y-117454996D02*
X175067463Y-118454996D01*
D14*
X138259587Y-93586342D02*
X138192920Y-93553009D01*
X138192920Y-93553009D02*
X138092920Y-93553009D01*
X138092920Y-93553009D02*
X137992920Y-93586342D01*
X137992920Y-93586342D02*
X137926254Y-93653009D01*
X137926254Y-93653009D02*
X137892920Y-93719676D01*
X137892920Y-93719676D02*
X137859587Y-93853009D01*
X137859587Y-93853009D02*
X137859587Y-93953009D01*
X137859587Y-93953009D02*
X137892920Y-94086342D01*
X137892920Y-94086342D02*
X137926254Y-94153009D01*
X137926254Y-94153009D02*
X137992920Y-94219676D01*
X137992920Y-94219676D02*
X138092920Y-94253009D01*
X138092920Y-94253009D02*
X138159587Y-94253009D01*
X138159587Y-94253009D02*
X138259587Y-94219676D01*
X138259587Y-94219676D02*
X138292920Y-94186342D01*
X138292920Y-94186342D02*
X138292920Y-93953009D01*
X138292920Y-93953009D02*
X138159587Y-93953009D01*
X138592920Y-94253009D02*
X138592920Y-93553009D01*
X138592920Y-93553009D02*
X138992920Y-94253009D01*
X138992920Y-94253009D02*
X138992920Y-93553009D01*
X139326253Y-94253009D02*
X139326253Y-93553009D01*
X139326253Y-93553009D02*
X139492920Y-93553009D01*
X139492920Y-93553009D02*
X139592920Y-93586342D01*
X139592920Y-93586342D02*
X139659587Y-93653009D01*
X139659587Y-93653009D02*
X139692920Y-93719676D01*
X139692920Y-93719676D02*
X139726253Y-93853009D01*
X139726253Y-93853009D02*
X139726253Y-93953009D01*
X139726253Y-93953009D02*
X139692920Y-94086342D01*
X139692920Y-94086342D02*
X139659587Y-94153009D01*
X139659587Y-94153009D02*
X139592920Y-94219676D01*
X139592920Y-94219676D02*
X139492920Y-94253009D01*
X139492920Y-94253009D02*
X139326253Y-94253009D01*
D11*
X121400723Y-112335721D02*
X121448342Y-112192864D01*
X121448342Y-112192864D02*
X121448342Y-111954769D01*
X121448342Y-111954769D02*
X121400723Y-111859531D01*
X121400723Y-111859531D02*
X121353103Y-111811912D01*
X121353103Y-111811912D02*
X121257865Y-111764293D01*
X121257865Y-111764293D02*
X121162627Y-111764293D01*
X121162627Y-111764293D02*
X121067389Y-111811912D01*
X121067389Y-111811912D02*
X121019770Y-111859531D01*
X121019770Y-111859531D02*
X120972151Y-111954769D01*
X120972151Y-111954769D02*
X120924532Y-112145245D01*
X120924532Y-112145245D02*
X120876913Y-112240483D01*
X120876913Y-112240483D02*
X120829294Y-112288102D01*
X120829294Y-112288102D02*
X120734056Y-112335721D01*
X120734056Y-112335721D02*
X120638818Y-112335721D01*
X120638818Y-112335721D02*
X120543580Y-112288102D01*
X120543580Y-112288102D02*
X120495961Y-112240483D01*
X120495961Y-112240483D02*
X120448342Y-112145245D01*
X120448342Y-112145245D02*
X120448342Y-111907150D01*
X120448342Y-111907150D02*
X120495961Y-111764293D01*
X120448342Y-111430959D02*
X121448342Y-111192864D01*
X121448342Y-111192864D02*
X120734056Y-111002388D01*
X120734056Y-111002388D02*
X121448342Y-110811912D01*
X121448342Y-110811912D02*
X120448342Y-110573817D01*
X121543580Y-110430960D02*
X121543580Y-109669055D01*
X121353103Y-108859531D02*
X121400723Y-108907150D01*
X121400723Y-108907150D02*
X121448342Y-109050007D01*
X121448342Y-109050007D02*
X121448342Y-109145245D01*
X121448342Y-109145245D02*
X121400723Y-109288102D01*
X121400723Y-109288102D02*
X121305484Y-109383340D01*
X121305484Y-109383340D02*
X121210246Y-109430959D01*
X121210246Y-109430959D02*
X121019770Y-109478578D01*
X121019770Y-109478578D02*
X120876913Y-109478578D01*
X120876913Y-109478578D02*
X120686437Y-109430959D01*
X120686437Y-109430959D02*
X120591199Y-109383340D01*
X120591199Y-109383340D02*
X120495961Y-109288102D01*
X120495961Y-109288102D02*
X120448342Y-109145245D01*
X120448342Y-109145245D02*
X120448342Y-109050007D01*
X120448342Y-109050007D02*
X120495961Y-108907150D01*
X120495961Y-108907150D02*
X120543580Y-108859531D01*
X121448342Y-107954769D02*
X121448342Y-108430959D01*
X121448342Y-108430959D02*
X120448342Y-108430959D01*
X121448342Y-107621435D02*
X120448342Y-107621435D01*
X121448342Y-107050007D02*
X120876913Y-107478578D01*
X120448342Y-107050007D02*
X121019770Y-107621435D01*
X163668342Y-104140959D02*
X163668342Y-103569531D01*
X164668342Y-103855245D02*
X163668342Y-103855245D01*
X163668342Y-103331435D02*
X164668342Y-102664769D01*
X163668342Y-102664769D02*
X164668342Y-103331435D01*
X117865961Y-111724293D02*
X117818342Y-111819531D01*
X117818342Y-111819531D02*
X117818342Y-111962388D01*
X117818342Y-111962388D02*
X117865961Y-112105245D01*
X117865961Y-112105245D02*
X117961199Y-112200483D01*
X117961199Y-112200483D02*
X118056437Y-112248102D01*
X118056437Y-112248102D02*
X118246913Y-112295721D01*
X118246913Y-112295721D02*
X118389770Y-112295721D01*
X118389770Y-112295721D02*
X118580246Y-112248102D01*
X118580246Y-112248102D02*
X118675484Y-112200483D01*
X118675484Y-112200483D02*
X118770723Y-112105245D01*
X118770723Y-112105245D02*
X118818342Y-111962388D01*
X118818342Y-111962388D02*
X118818342Y-111867150D01*
X118818342Y-111867150D02*
X118770723Y-111724293D01*
X118770723Y-111724293D02*
X118723103Y-111676674D01*
X118723103Y-111676674D02*
X118389770Y-111676674D01*
X118389770Y-111676674D02*
X118389770Y-111867150D01*
X118818342Y-111248102D02*
X117818342Y-111248102D01*
X117818342Y-111248102D02*
X118818342Y-110676674D01*
X118818342Y-110676674D02*
X117818342Y-110676674D01*
X118818342Y-110200483D02*
X117818342Y-110200483D01*
X117818342Y-110200483D02*
X117818342Y-109962388D01*
X117818342Y-109962388D02*
X117865961Y-109819531D01*
X117865961Y-109819531D02*
X117961199Y-109724293D01*
X117961199Y-109724293D02*
X118056437Y-109676674D01*
X118056437Y-109676674D02*
X118246913Y-109629055D01*
X118246913Y-109629055D02*
X118389770Y-109629055D01*
X118389770Y-109629055D02*
X118580246Y-109676674D01*
X118580246Y-109676674D02*
X118675484Y-109724293D01*
X118675484Y-109724293D02*
X118770723Y-109819531D01*
X118770723Y-109819531D02*
X118818342Y-109962388D01*
X118818342Y-109962388D02*
X118818342Y-110200483D01*
D10*
X160027813Y-90648373D02*
X160027813Y-91457896D01*
X160027813Y-91457896D02*
X160075432Y-91553134D01*
X160075432Y-91553134D02*
X160123051Y-91600754D01*
X160123051Y-91600754D02*
X160218289Y-91648373D01*
X160218289Y-91648373D02*
X160408765Y-91648373D01*
X160408765Y-91648373D02*
X160504003Y-91600754D01*
X160504003Y-91600754D02*
X160551622Y-91553134D01*
X160551622Y-91553134D02*
X160599241Y-91457896D01*
X160599241Y-91457896D02*
X160599241Y-90648373D01*
X161504003Y-90981706D02*
X161504003Y-91648373D01*
X161265908Y-90600754D02*
X161027813Y-91315039D01*
X161027813Y-91315039D02*
X161646860Y-91315039D01*
D15*
%TO.C,D3*%
X176486123Y-113117778D02*
X176486123Y-117002778D01*
X176486123Y-117002778D02*
X178756123Y-117002778D01*
X178756123Y-117002778D02*
X178756123Y-113117778D01*
%TO.C,J3*%
X111691123Y-113137776D02*
X111691123Y-115897776D01*
X119421123Y-113137776D02*
X111691123Y-113137776D01*
X119421123Y-113137776D02*
X119421123Y-115897776D01*
X119421123Y-115897776D02*
X111691123Y-115897776D01*
X120691123Y-113137776D02*
X122071123Y-113137776D01*
X122071123Y-113137776D02*
X122071123Y-114517776D01*
%TO.C,J7*%
X128651123Y-84887776D02*
X128651123Y-86137776D01*
X128941123Y-85177776D02*
X128941123Y-91147776D01*
X128941123Y-91147776D02*
X136561123Y-91147776D01*
X128951123Y-85187776D02*
X128951123Y-85937776D01*
X128951123Y-85937776D02*
X130751123Y-85937776D01*
X128951123Y-87437776D02*
X129701123Y-87437776D01*
X129701123Y-87437776D02*
X129701123Y-90387776D01*
X129701123Y-90387776D02*
X132751123Y-90387776D01*
X129901123Y-84887776D02*
X128651123Y-84887776D01*
X130751123Y-85187776D02*
X128951123Y-85187776D01*
X130751123Y-85937776D02*
X130751123Y-85187776D01*
X132251123Y-85187776D02*
X132251123Y-85937776D01*
X132251123Y-85937776D02*
X133251123Y-85937776D01*
X133251123Y-85187776D02*
X132251123Y-85187776D01*
X133251123Y-85937776D02*
X133251123Y-85187776D01*
X134751123Y-85187776D02*
X134751123Y-85937776D01*
X134751123Y-85937776D02*
X136551123Y-85937776D01*
X135801123Y-87437776D02*
X135801123Y-90387776D01*
X135801123Y-90387776D02*
X132751123Y-90387776D01*
X136551123Y-85187776D02*
X134751123Y-85187776D01*
X136551123Y-85937776D02*
X136551123Y-85187776D01*
X136551123Y-87437776D02*
X135801123Y-87437776D01*
X136561123Y-85177776D02*
X128941123Y-85177776D01*
X136561123Y-91147776D02*
X136561123Y-85177776D01*
%TO.C,F1*%
X150051123Y-85127776D02*
X150313123Y-85127776D01*
X150051123Y-85425776D02*
X150051123Y-85127776D01*
X150051123Y-88327776D02*
X150051123Y-86829776D01*
X151989123Y-85127776D02*
X157351123Y-85127776D01*
X155413123Y-88327776D02*
X150051123Y-88327776D01*
X157351123Y-85127776D02*
X157351123Y-86625776D01*
X157351123Y-88029776D02*
X157351123Y-88327776D01*
X157351123Y-88327776D02*
X157089123Y-88327776D01*
%TO.C,U1*%
X144826123Y-101857776D02*
X144826123Y-101507776D01*
X144826123Y-106127776D02*
X144826123Y-105777776D01*
X150296123Y-101507776D02*
X150296123Y-101857776D01*
X150296123Y-105777776D02*
X150296123Y-106127776D01*
X149841123Y-99907776D02*
X149601123Y-99577776D01*
X150081123Y-99577776D01*
X149841123Y-99907776D01*
G36*
X149841123Y-99907776D02*
G01*
X149601123Y-99577776D01*
X150081123Y-99577776D01*
X149841123Y-99907776D01*
G37*
%TO.C,U3*%
X145531123Y-110910276D02*
X145756123Y-110910276D01*
X145531123Y-111135276D02*
X145531123Y-110910276D01*
X145531123Y-115130276D02*
X145531123Y-114905276D01*
X145756123Y-115130276D02*
X145531123Y-115130276D01*
X149526123Y-110910276D02*
X149751123Y-110910276D01*
X149751123Y-110910276D02*
X149751123Y-111135276D01*
X149751123Y-114905276D02*
X149751123Y-115130276D01*
X149751123Y-115130276D02*
X149526123Y-115130276D01*
X146381123Y-115990276D02*
X145901123Y-115990276D01*
X146141123Y-115660276D01*
X146381123Y-115990276D01*
G36*
X146381123Y-115990276D02*
G01*
X145901123Y-115990276D01*
X146141123Y-115660276D01*
X146381123Y-115990276D01*
G37*
%TO.C,R1*%
X155626123Y-115820712D02*
X155626123Y-116274840D01*
X157096123Y-115820712D02*
X157096123Y-116274840D01*
%TO.C,R4*%
X160018187Y-84922776D02*
X159564059Y-84922776D01*
X160018187Y-86392776D02*
X159564059Y-86392776D01*
%TO.C,C5*%
X153306123Y-90726524D02*
X153306123Y-91249028D01*
X154776123Y-90726524D02*
X154776123Y-91249028D01*
%TO.C,C11*%
X170821123Y-88907776D02*
X171821123Y-88907776D01*
X171321123Y-88407776D02*
X171321123Y-89407776D01*
X172061123Y-88122213D02*
X172061123Y-89907776D01*
X172061123Y-88122213D02*
X173125560Y-87057776D01*
X172061123Y-94713339D02*
X172061123Y-92927776D01*
X172061123Y-94713339D02*
X173125560Y-95777776D01*
X173125560Y-87057776D02*
X180781123Y-87057776D01*
X173125560Y-95777776D02*
X180781123Y-95777776D01*
X180781123Y-87057776D02*
X180781123Y-89907776D01*
X180781123Y-95777776D02*
X180781123Y-92927776D01*
%TO.C,SW3*%
X162241123Y-113197776D02*
X162241123Y-113597776D01*
X162241123Y-113197776D02*
X166981123Y-113197776D01*
X162241123Y-116597776D02*
X162241123Y-114537776D01*
X162241123Y-117937776D02*
X162241123Y-117537776D01*
X162241123Y-117937776D02*
X166981123Y-117937776D01*
X166981123Y-113197776D02*
X166981123Y-113597776D01*
X166981123Y-116597776D02*
X166981123Y-114537776D01*
X166981123Y-117937776D02*
X166981123Y-117537776D01*
%TO.C,C3*%
X142164875Y-115802776D02*
X141642371Y-115802776D01*
X142164875Y-117272776D02*
X141642371Y-117272776D01*
%TO.C,J4*%
X154981123Y-107967776D02*
X154981123Y-106587777D01*
X156361124Y-107967776D02*
X154981123Y-107967776D01*
X157631123Y-105207776D02*
X165361123Y-105207776D01*
X157631123Y-107967776D02*
X157631123Y-105207776D01*
X157631123Y-107967776D02*
X165361123Y-107967776D01*
X165361123Y-107967776D02*
X165361123Y-105207776D01*
%TO.C,C17*%
X144001123Y-90737776D02*
X144001123Y-93587776D01*
X144001123Y-99457776D02*
X144001123Y-96607776D01*
X151656686Y-90737776D02*
X144001123Y-90737776D01*
X151656686Y-99457776D02*
X144001123Y-99457776D01*
X152721123Y-91802213D02*
X151656686Y-90737776D01*
X152721123Y-91802213D02*
X152721123Y-93587776D01*
X152721123Y-98393339D02*
X151656686Y-99457776D01*
X152721123Y-98393339D02*
X152721123Y-96607776D01*
X153461123Y-98107776D02*
X153461123Y-97107776D01*
X153961123Y-97607776D02*
X152961123Y-97607776D01*
%TO.C,C12*%
X140704875Y-104042776D02*
X140182371Y-104042776D01*
X140704875Y-105512776D02*
X140182371Y-105512776D01*
%TO.C,R3*%
X163414059Y-84922776D02*
X163868187Y-84922776D01*
X163414059Y-86392776D02*
X163868187Y-86392776D01*
%TO.C,C13*%
X151086123Y-105546524D02*
X151086123Y-106069028D01*
X152556123Y-105546524D02*
X152556123Y-106069028D01*
%TO.C,J2*%
X111617500Y-104390000D02*
X111617500Y-96660000D01*
X114377500Y-96660000D02*
X111617500Y-96660000D01*
X114377500Y-104390000D02*
X111617500Y-104390000D01*
X114377500Y-104390000D02*
X114377500Y-96660000D01*
X114377500Y-105660000D02*
X114377500Y-107040000D01*
X114377500Y-107040000D02*
X112997500Y-107040000D01*
%TO.C,R15*%
X136896123Y-116184840D02*
X136896123Y-115730712D01*
X138366123Y-116184840D02*
X138366123Y-115730712D01*
%TO.C,R2*%
X119464059Y-116682776D02*
X119918187Y-116682776D01*
X119464059Y-118152776D02*
X119918187Y-118152776D01*
%TO.C,C2*%
X116116123Y-99346528D02*
X116116123Y-98824024D01*
X117586123Y-99346528D02*
X117586123Y-98824024D01*
%TO.C,R10*%
X170374059Y-107242776D02*
X170828187Y-107242776D01*
X170374059Y-108712776D02*
X170828187Y-108712776D01*
%TO.C,D4*%
X173786123Y-113127777D02*
X173786123Y-117012777D01*
X173786123Y-117012777D02*
X176056123Y-117012777D01*
X176056123Y-117012777D02*
X176056123Y-113127777D01*
%TO.C,R11*%
X170364059Y-109392776D02*
X170818187Y-109392776D01*
X170364059Y-110862776D02*
X170818187Y-110862776D01*
%TO.C,SW4*%
X139071123Y-85007776D02*
X139071123Y-85317776D01*
X139071123Y-85007776D02*
X147891123Y-85007776D01*
X139071123Y-89527776D02*
X139071123Y-89217776D01*
X144981123Y-90227776D02*
X145981123Y-90227776D01*
X145481123Y-89727776D02*
X144981123Y-90227776D01*
X145981123Y-90227776D02*
X145481123Y-89727776D01*
X147891123Y-85007776D02*
X147891123Y-85317776D01*
X147891123Y-89217776D02*
X147891123Y-89527776D01*
X147891123Y-89527776D02*
X139071123Y-89527776D01*
%TO.C,SW1*%
X126981123Y-113087776D02*
X126981123Y-113487776D01*
X126981123Y-114427776D02*
X126981123Y-116487776D01*
X126981123Y-117827776D02*
X126981123Y-117427776D01*
X131721123Y-113087776D02*
X126981123Y-113087776D01*
X131721123Y-113087776D02*
X131721123Y-113487776D01*
X131721123Y-114427776D02*
X131721123Y-116487776D01*
X131721123Y-117827776D02*
X126981123Y-117827776D01*
X131721123Y-117827776D02*
X131721123Y-117427776D01*
%TO.C,C1*%
X176076123Y-99346528D02*
X176076123Y-98824024D01*
X177546123Y-99346528D02*
X177546123Y-98824024D01*
%TO.C,C14*%
X142886123Y-105556524D02*
X142886123Y-106079028D01*
X144356123Y-105556524D02*
X144356123Y-106079028D01*
%TO.C,C7*%
X163427371Y-86982776D02*
X163949875Y-86982776D01*
X163427371Y-88452776D02*
X163949875Y-88452776D01*
%TO.C,C9*%
X164396123Y-91921528D02*
X164396123Y-91399024D01*
X165866123Y-91921528D02*
X165866123Y-91399024D01*
%TO.C,C4*%
X155436123Y-90726524D02*
X155436123Y-91249028D01*
X156906123Y-90726524D02*
X156906123Y-91249028D01*
%TO.C,J6*%
X112041123Y-84937776D02*
X112041123Y-86187776D01*
X112331123Y-85227776D02*
X112331123Y-91197776D01*
X112331123Y-91197776D02*
X127451123Y-91197776D01*
X112341123Y-85237776D02*
X112341123Y-85987776D01*
X112341123Y-85987776D02*
X114141123Y-85987776D01*
X112341123Y-87487776D02*
X113091123Y-87487776D01*
X113091123Y-87487776D02*
X113091123Y-90437776D01*
X113091123Y-90437776D02*
X119891123Y-90437776D01*
X113291123Y-84937776D02*
X112041123Y-84937776D01*
X114141123Y-85237776D02*
X112341123Y-85237776D01*
X114141123Y-85987776D02*
X114141123Y-85237776D01*
X115641123Y-85237776D02*
X115641123Y-85987776D01*
X115641123Y-85987776D02*
X124141123Y-85987776D01*
X124141123Y-85237776D02*
X115641123Y-85237776D01*
X124141123Y-85987776D02*
X124141123Y-85237776D01*
X125641123Y-85237776D02*
X125641123Y-85987776D01*
X125641123Y-85987776D02*
X127441123Y-85987776D01*
X126691123Y-87487776D02*
X126691123Y-90437776D01*
X126691123Y-90437776D02*
X119891123Y-90437776D01*
X127441123Y-85237776D02*
X125641123Y-85237776D01*
X127441123Y-85987776D02*
X127441123Y-85237776D01*
X127441123Y-87487776D02*
X126691123Y-87487776D01*
X127451123Y-85227776D02*
X112331123Y-85227776D01*
X127451123Y-91197776D02*
X127451123Y-85227776D01*
%TO.C,R5*%
X166606123Y-91914840D02*
X166606123Y-91460712D01*
X168076123Y-91914840D02*
X168076123Y-91460712D01*
D10*
%TO.C,U4*%
X158714718Y-88818555D02*
X158964718Y-88818555D01*
X158714718Y-89068554D02*
X158714718Y-88818555D01*
X158714718Y-93368553D02*
X158714718Y-93118554D01*
X158714718Y-93368553D02*
X158964718Y-93368553D01*
X162614718Y-88818555D02*
X162864718Y-88818555D01*
X162614718Y-93368553D02*
X162864718Y-93368553D01*
X162864718Y-89068554D02*
X162864718Y-88818555D01*
X162864718Y-93368553D02*
X162864718Y-93118554D01*
D13*
X158514719Y-89943554D02*
G75*
G02*
X158264717Y-89943554I-125001J0D01*
G01*
X158264717Y-89943554D02*
G75*
G02*
X158514719Y-89943554I125001J0D01*
G01*
D16*
%TO.C,G\u002A\u002A\u002A*%
G36*
X126316153Y-98600121D02*
G01*
X126316151Y-99311320D01*
X126083924Y-99311320D01*
X125851695Y-99311319D01*
X125851695Y-98600120D01*
X125851695Y-97888920D01*
X126083923Y-97888920D01*
X126316152Y-97888919D01*
X126316153Y-98600121D01*
G37*
G36*
X126824152Y-97888921D02*
G01*
X127070894Y-97888920D01*
X127070895Y-98454977D01*
X127070895Y-99021034D01*
X127303125Y-99021034D01*
X127535354Y-99021034D01*
X127535352Y-99166177D01*
X127535352Y-99311321D01*
X127056382Y-99311319D01*
X126577410Y-99311320D01*
X126577409Y-98600118D01*
X126577409Y-97888919D01*
X126824152Y-97888921D01*
G37*
G36*
X140801409Y-98454978D02*
G01*
X140801408Y-99021034D01*
X141048152Y-99021033D01*
X141294896Y-99021033D01*
X141294894Y-99166176D01*
X141294896Y-99311320D01*
X140815924Y-99311320D01*
X140336953Y-99311321D01*
X140336953Y-98600121D01*
X140336951Y-97888921D01*
X140569182Y-97888921D01*
X140801410Y-97888921D01*
X140801409Y-98454978D01*
G37*
G36*
X123035925Y-98034061D02*
G01*
X123035924Y-98179204D01*
X122905295Y-98179205D01*
X122774667Y-98179205D01*
X122774667Y-98745263D01*
X122774667Y-99311320D01*
X122527924Y-99311320D01*
X122281181Y-99311320D01*
X122281181Y-98745261D01*
X122281181Y-98179205D01*
X122150553Y-98179204D01*
X122019924Y-98179205D01*
X122019924Y-98034062D01*
X122019923Y-97888921D01*
X122527923Y-97888920D01*
X123035924Y-97888920D01*
X123035925Y-98034061D01*
G37*
G36*
X136069753Y-97888921D02*
G01*
X136069750Y-98034062D01*
X136069753Y-98179204D01*
X135939125Y-98179205D01*
X135808494Y-98179206D01*
X135808495Y-98745262D01*
X135808496Y-99311320D01*
X135561752Y-99311320D01*
X135315009Y-99311320D01*
X135315007Y-98745261D01*
X135315008Y-98179206D01*
X135184381Y-98179206D01*
X135053752Y-98179205D01*
X135053753Y-98034062D01*
X135053752Y-97888921D01*
X135561752Y-97888919D01*
X136069753Y-97888921D01*
G37*
G36*
X120481408Y-98034063D02*
G01*
X120481409Y-98179206D01*
X120249181Y-98179205D01*
X120016952Y-98179206D01*
X120016953Y-98280805D01*
X120016952Y-98382405D01*
X120249182Y-98382406D01*
X120481409Y-98382405D01*
X120481409Y-98527548D01*
X120481408Y-98672691D01*
X120249181Y-98672691D01*
X120016952Y-98672690D01*
X120016952Y-98846862D01*
X120016952Y-99021035D01*
X120263696Y-99021034D01*
X120510438Y-99021033D01*
X120510438Y-99166177D01*
X120510438Y-99311320D01*
X120031467Y-99311320D01*
X119552494Y-99311320D01*
X119552494Y-98600120D01*
X119552495Y-97888921D01*
X120016950Y-97888920D01*
X120481409Y-97888920D01*
X120481408Y-98034063D01*
G37*
G36*
X121147940Y-97888921D02*
G01*
X121257361Y-98035838D01*
X121366780Y-98182759D01*
X121375555Y-98035839D01*
X121384328Y-97888920D01*
X121629554Y-97888920D01*
X121874781Y-97888920D01*
X121874781Y-98600120D01*
X121874781Y-99311320D01*
X121631500Y-99311320D01*
X121388220Y-99311319D01*
X121376123Y-99042805D01*
X121366428Y-98897690D01*
X121349508Y-98788837D01*
X121320558Y-98694508D01*
X121278316Y-98600120D01*
X121192609Y-98425949D01*
X121184596Y-98868635D01*
X121176583Y-99311320D01*
X120945110Y-99311319D01*
X120713638Y-99311320D01*
X120713638Y-98600120D01*
X120713638Y-97888920D01*
X120930790Y-97888919D01*
X121147940Y-97888921D01*
G37*
G36*
X118687914Y-98346119D02*
G01*
X118696021Y-98561562D01*
X118708256Y-98727973D01*
X118724318Y-98842080D01*
X118738254Y-98890405D01*
X118777217Y-98977492D01*
X118814284Y-98861378D01*
X118830394Y-98778523D01*
X118842807Y-98647617D01*
X118850808Y-98478582D01*
X118853578Y-98317090D01*
X118855808Y-97888920D01*
X119102551Y-97888920D01*
X119349295Y-97888920D01*
X119349295Y-98238789D01*
X119341299Y-98502946D01*
X119315910Y-98720658D01*
X119271024Y-98901482D01*
X119204535Y-99054984D01*
X119150591Y-99141991D01*
X119042528Y-99296805D01*
X118779231Y-99305096D01*
X118515935Y-99313386D01*
X118443431Y-99218011D01*
X118342972Y-99061349D01*
X118269796Y-98887175D01*
X118221394Y-98685604D01*
X118195248Y-98446749D01*
X118188655Y-98215492D01*
X118188152Y-97888920D01*
X118432345Y-97888920D01*
X118676537Y-97888919D01*
X118687914Y-98346119D01*
G37*
G36*
X131236495Y-97888920D02*
G01*
X131483236Y-97888920D01*
X131483238Y-98456904D01*
X131483238Y-99024890D01*
X131563067Y-99015706D01*
X131642895Y-99006521D01*
X131650779Y-98447719D01*
X131658663Y-97888920D01*
X131904778Y-97888920D01*
X132150895Y-97888921D01*
X132150895Y-98443332D01*
X132149534Y-98668411D01*
X132144085Y-98843179D01*
X132132507Y-98975348D01*
X132112755Y-99072626D01*
X132082784Y-99142723D01*
X132040552Y-99193350D01*
X131984015Y-99232219D01*
X131935382Y-99256308D01*
X131811076Y-99292657D01*
X131653581Y-99310520D01*
X131484716Y-99309983D01*
X131326303Y-99291125D01*
X131200162Y-99254027D01*
X131199116Y-99253556D01*
X131133597Y-99219619D01*
X131083276Y-99179672D01*
X131046180Y-99126036D01*
X131020327Y-99051040D01*
X131003739Y-98947011D01*
X130994439Y-98806271D01*
X130990451Y-98621151D01*
X130989753Y-98441395D01*
X130989751Y-97888919D01*
X131236495Y-97888920D01*
G37*
G36*
X124871980Y-97889088D02*
G01*
X125102903Y-97892947D01*
X125283609Y-97905207D01*
X125421512Y-97927289D01*
X125524030Y-97960615D01*
X125598582Y-98006606D01*
X125626724Y-98033723D01*
X125671319Y-98090613D01*
X125695477Y-98149420D01*
X125705175Y-98230935D01*
X125706553Y-98311677D01*
X125703613Y-98419794D01*
X125691259Y-98488714D01*
X125664178Y-98537150D01*
X125633568Y-98568931D01*
X125559806Y-98620917D01*
X125465339Y-98653334D01*
X125336972Y-98669412D01*
X125209438Y-98672691D01*
X125038895Y-98672691D01*
X125038894Y-98992004D01*
X125038896Y-99311320D01*
X124792152Y-99311320D01*
X124545409Y-99311321D01*
X124545408Y-98600120D01*
X124545408Y-98295320D01*
X125009866Y-98295320D01*
X125012510Y-98370891D01*
X125028801Y-98403599D01*
X125071280Y-98408633D01*
X125101283Y-98406016D01*
X125175834Y-98384355D01*
X125224505Y-98346120D01*
X125239205Y-98279851D01*
X125204582Y-98223672D01*
X125129350Y-98189009D01*
X125101281Y-98184623D01*
X125043415Y-98182330D01*
X125017214Y-98201070D01*
X125010147Y-98256032D01*
X125009866Y-98295320D01*
X124545408Y-98295320D01*
X124545408Y-97888920D01*
X124871980Y-97889088D01*
G37*
G36*
X138043694Y-98151890D02*
G01*
X138046702Y-98286944D01*
X138055525Y-98369740D01*
X138069853Y-98397730D01*
X138073138Y-98396663D01*
X138115818Y-98347459D01*
X138161529Y-98259786D01*
X138202286Y-98152180D01*
X138230092Y-98043171D01*
X138232911Y-98026125D01*
X138253487Y-97888920D01*
X138500675Y-97888920D01*
X138747859Y-97888920D01*
X138728047Y-98038273D01*
X138705249Y-98145937D01*
X138668375Y-98256562D01*
X138624870Y-98351943D01*
X138582178Y-98413875D01*
X138570672Y-98423190D01*
X138568132Y-98455534D01*
X138588706Y-98521932D01*
X138613348Y-98577559D01*
X138657950Y-98696838D01*
X138696664Y-98852245D01*
X138725163Y-99021879D01*
X138739114Y-99183834D01*
X138739807Y-99216977D01*
X138740380Y-99311320D01*
X138493638Y-99311320D01*
X138246894Y-99311320D01*
X138246896Y-99170139D01*
X138241337Y-99055944D01*
X138226686Y-98933886D01*
X138205976Y-98820817D01*
X138182238Y-98733585D01*
X138160608Y-98690906D01*
X138117249Y-98683483D01*
X138088468Y-98700699D01*
X138066581Y-98732647D01*
X138052788Y-98791618D01*
X138045643Y-98888077D01*
X138043695Y-99024588D01*
X138043695Y-99311320D01*
X137811466Y-99311320D01*
X137579239Y-99311321D01*
X137579238Y-98600120D01*
X137579238Y-97888920D01*
X137811467Y-97888920D01*
X138043696Y-97888920D01*
X138043694Y-98151890D01*
G37*
G36*
X130538677Y-98041320D02*
G01*
X130626795Y-98189628D01*
X130690992Y-98338350D01*
X130735144Y-98501793D01*
X130763127Y-98694253D01*
X130778683Y-98926691D01*
X130794786Y-99311320D01*
X130543926Y-99311321D01*
X130293067Y-99311320D01*
X130293066Y-99195205D01*
X130289628Y-99120752D01*
X130270993Y-99087654D01*
X130224681Y-99079274D01*
X130205982Y-99079091D01*
X130150140Y-99083676D01*
X130125319Y-99108524D01*
X130119032Y-99170272D01*
X130118896Y-99195205D01*
X130118894Y-99311319D01*
X129872151Y-99311321D01*
X129625409Y-99311321D01*
X129625985Y-99071835D01*
X129642745Y-98739646D01*
X129651484Y-98688635D01*
X129651484Y-98688634D01*
X130118896Y-98688634D01*
X130123930Y-98756266D01*
X130149292Y-98783753D01*
X130205981Y-98788806D01*
X130261542Y-98784323D01*
X130286439Y-98759855D01*
X130292898Y-98698872D01*
X130293067Y-98671031D01*
X130286929Y-98577158D01*
X130271092Y-98476228D01*
X130249404Y-98384672D01*
X130225722Y-98318920D01*
X130204940Y-98295320D01*
X130185641Y-98321431D01*
X130163798Y-98388754D01*
X130143024Y-98480771D01*
X130126934Y-98580958D01*
X130119140Y-98672805D01*
X130118896Y-98688634D01*
X129651484Y-98688634D01*
X129691329Y-98455971D01*
X129771749Y-98220747D01*
X129884020Y-98033917D01*
X129903675Y-98009987D01*
X130007306Y-97888920D01*
X130222461Y-97888920D01*
X130437617Y-97888920D01*
X130538677Y-98041320D01*
G37*
G36*
X142029291Y-97891018D02*
G01*
X142101254Y-97900639D01*
X142150791Y-97922772D01*
X142195693Y-97962403D01*
X142201782Y-97968748D01*
X142314729Y-98124970D01*
X142404203Y-98328218D01*
X142468229Y-98571584D01*
X142504834Y-98848164D01*
X142513082Y-99057319D01*
X142514095Y-99311320D01*
X142267352Y-99311320D01*
X142020610Y-99311318D01*
X142020608Y-99195206D01*
X142017170Y-99120752D01*
X141998536Y-99087653D01*
X141952223Y-99079272D01*
X141933524Y-99079091D01*
X141877683Y-99083676D01*
X141852861Y-99108524D01*
X141846575Y-99170273D01*
X141846437Y-99195205D01*
X141846438Y-99311320D01*
X141595842Y-99311321D01*
X141345244Y-99311319D01*
X141360304Y-98941206D01*
X141378441Y-98687354D01*
X141381079Y-98671031D01*
X141846439Y-98671031D01*
X141849751Y-98746171D01*
X141867844Y-98779842D01*
X141912937Y-98788575D01*
X141933523Y-98788806D01*
X141992321Y-98783015D01*
X142016217Y-98753842D01*
X142020609Y-98688634D01*
X142014898Y-98600417D01*
X142000168Y-98500572D01*
X141980039Y-98405615D01*
X141958120Y-98332065D01*
X141938027Y-98296440D01*
X141934563Y-98295322D01*
X141912544Y-98321479D01*
X141888871Y-98389003D01*
X141867398Y-98481463D01*
X141851974Y-98582433D01*
X141846439Y-98671031D01*
X141381079Y-98671031D01*
X141412315Y-98477647D01*
X141465309Y-98299505D01*
X141540808Y-98140344D01*
X141601655Y-98043857D01*
X141708365Y-97888920D01*
X141917113Y-97888920D01*
X142029291Y-97891018D01*
G37*
G36*
X139680284Y-97906897D02*
G01*
X139804918Y-97919963D01*
X139895324Y-97946649D01*
X139963278Y-97990976D01*
X140020557Y-98056957D01*
X140039005Y-98083989D01*
X140059350Y-98123340D01*
X140073626Y-98175722D01*
X140082829Y-98251210D01*
X140087961Y-98359889D01*
X140090018Y-98511834D01*
X140090209Y-98600120D01*
X140088560Y-98791012D01*
X140081796Y-98933701D01*
X140067188Y-99037987D01*
X140042016Y-99113676D01*
X140003548Y-99170570D01*
X139949057Y-99218472D01*
X139910930Y-99244763D01*
X139842618Y-99269710D01*
X139733138Y-99288726D01*
X139599154Y-99300978D01*
X139457333Y-99305633D01*
X139324338Y-99301857D01*
X139216838Y-99288816D01*
X139185472Y-99281057D01*
X139085512Y-99233107D01*
X139010250Y-99155081D01*
X138958071Y-99041846D01*
X138927369Y-98888268D01*
X138917882Y-98714104D01*
X138917882Y-98714103D01*
X139412441Y-98714103D01*
X139412982Y-98839364D01*
X139415802Y-98932970D01*
X139420687Y-98982552D01*
X139421477Y-98985156D01*
X139460429Y-99013148D01*
X139516729Y-99015720D01*
X139596724Y-99006520D01*
X139596724Y-98600119D01*
X139596724Y-98193719D01*
X139509639Y-98193720D01*
X139422552Y-98193720D01*
X139414385Y-98569558D01*
X139412441Y-98714103D01*
X138917882Y-98714103D01*
X138916528Y-98689222D01*
X138923549Y-98446452D01*
X138940097Y-98256822D01*
X138970383Y-98116576D01*
X139022179Y-98018511D01*
X139103256Y-97955427D01*
X139221388Y-97920119D01*
X139384347Y-97905390D01*
X139509638Y-97903434D01*
X139680284Y-97906897D01*
G37*
G36*
X134519813Y-97896790D02*
G01*
X134681786Y-97926933D01*
X134797901Y-97986338D01*
X134871352Y-98076977D01*
X134905333Y-98200831D01*
X134908609Y-98264850D01*
X134908609Y-98382406D01*
X134696897Y-98382403D01*
X134485187Y-98382404D01*
X134457414Y-98288062D01*
X134429058Y-98221963D01*
X134384324Y-98196566D01*
X134342551Y-98193720D01*
X134273649Y-98204088D01*
X134257524Y-98233935D01*
X134292977Y-98281364D01*
X134378810Y-98344482D01*
X134473181Y-98399700D01*
X134591053Y-98469453D01*
X134703645Y-98545174D01*
X134789411Y-98612219D01*
X134799753Y-98621680D01*
X134860252Y-98683164D01*
X134892844Y-98736030D01*
X134906104Y-98802533D01*
X134908607Y-98904160D01*
X134905299Y-99009390D01*
X134890944Y-99077865D01*
X134858909Y-99130716D01*
X134826493Y-99165673D01*
X134741001Y-99229460D01*
X134641286Y-99276163D01*
X134630550Y-99279392D01*
X134530629Y-99296777D01*
X134399348Y-99306125D01*
X134258756Y-99307274D01*
X134130897Y-99300060D01*
X134037820Y-99284320D01*
X134036057Y-99283795D01*
X133900227Y-99223031D01*
X133809963Y-99133436D01*
X133760651Y-99008278D01*
X133747468Y-98862309D01*
X133747468Y-98730748D01*
X133992619Y-98730748D01*
X134237771Y-98730748D01*
X134246619Y-98868634D01*
X134255350Y-98952955D01*
X134273615Y-98995440D01*
X134310799Y-99012309D01*
X134331587Y-99015346D01*
X134400753Y-99003645D01*
X134431038Y-98956357D01*
X134416933Y-98885409D01*
X134402950Y-98860874D01*
X134359977Y-98817882D01*
X134280103Y-98756564D01*
X134177032Y-98687045D01*
X134119263Y-98651283D01*
X133948078Y-98536873D01*
X133831254Y-98429851D01*
X133766279Y-98325970D01*
X133750638Y-98220980D01*
X133781813Y-98110633D01*
X133789731Y-98094592D01*
X133860082Y-98009074D01*
X133972377Y-97948076D01*
X134131052Y-97909881D01*
X134308784Y-97893932D01*
X134519813Y-97896790D01*
G37*
G36*
X123974034Y-97903847D02*
G01*
X124136946Y-97947580D01*
X124228241Y-98000934D01*
X124271009Y-98052355D01*
X124295971Y-98131123D01*
X124306732Y-98217925D01*
X124320370Y-98382405D01*
X124099061Y-98382404D01*
X123987104Y-98381375D01*
X123921101Y-98375850D01*
X123888957Y-98362184D01*
X123878571Y-98336724D01*
X123877752Y-98315639D01*
X123863415Y-98247399D01*
X123842918Y-98214039D01*
X123788592Y-98186552D01*
X123720793Y-98180639D01*
X123668783Y-98197613D01*
X123661484Y-98205894D01*
X123662967Y-98241751D01*
X123707496Y-98290221D01*
X123798609Y-98354194D01*
X123939845Y-98436561D01*
X123952564Y-98443566D01*
X124062887Y-98509678D01*
X124161432Y-98578496D01*
X124229982Y-98637089D01*
X124238762Y-98646761D01*
X124313373Y-98774870D01*
X124336299Y-98910249D01*
X124310846Y-99041548D01*
X124240319Y-99157419D01*
X124128022Y-99246505D01*
X124054851Y-99278270D01*
X123965065Y-99295950D01*
X123838834Y-99305707D01*
X123697235Y-99307469D01*
X123561344Y-99301159D01*
X123452242Y-99286707D01*
X123426901Y-99280489D01*
X123296675Y-99215971D01*
X123207435Y-99110812D01*
X123160037Y-98966321D01*
X123152037Y-98859486D01*
X123152038Y-98730747D01*
X123398780Y-98730748D01*
X123645524Y-98730748D01*
X123645968Y-98839605D01*
X123652528Y-98921853D01*
X123668048Y-98981809D01*
X123671023Y-98987288D01*
X123717751Y-99015638D01*
X123780405Y-99011284D01*
X123831144Y-98979671D01*
X123843715Y-98953560D01*
X123839597Y-98904446D01*
X123804764Y-98850928D01*
X123733351Y-98787531D01*
X123619511Y-98708774D01*
X123507854Y-98639410D01*
X123362607Y-98545619D01*
X123263578Y-98464600D01*
X123203212Y-98387237D01*
X123173955Y-98304418D01*
X123167872Y-98229318D01*
X123194376Y-98111477D01*
X123271478Y-98016481D01*
X123395559Y-97946399D01*
X123563006Y-97903303D01*
X123761638Y-97889243D01*
X123974034Y-97903847D01*
G37*
G36*
X128523089Y-97920405D02*
G01*
X128643223Y-97973701D01*
X128723247Y-98057217D01*
X128767539Y-98173315D01*
X128776930Y-98236315D01*
X128790967Y-98382405D01*
X128575563Y-98382406D01*
X128360159Y-98382406D01*
X128332384Y-98288062D01*
X128290664Y-98216717D01*
X128228134Y-98180228D01*
X128162572Y-98186198D01*
X128137029Y-98204547D01*
X128122232Y-98234945D01*
X128139873Y-98270896D01*
X128195376Y-98317134D01*
X128294168Y-98378406D01*
X128408086Y-98441472D01*
X128522932Y-98508552D01*
X128625851Y-98577988D01*
X128699812Y-98637968D01*
X128716131Y-98655043D01*
X128756552Y-98710084D01*
X128776874Y-98765327D01*
X128781729Y-98841380D01*
X128777711Y-98929152D01*
X128767215Y-99038068D01*
X128748388Y-99107982D01*
X128714480Y-99157922D01*
X128687565Y-99183251D01*
X128604059Y-99237709D01*
X128507184Y-99278842D01*
X128500505Y-99280780D01*
X128403148Y-99297458D01*
X128273811Y-99306316D01*
X128134559Y-99307241D01*
X128007460Y-99300119D01*
X127914586Y-99284837D01*
X127911029Y-99283794D01*
X127773501Y-99223584D01*
X127683255Y-99136738D01*
X127634819Y-99015549D01*
X127622438Y-98877332D01*
X127622438Y-98730747D01*
X127867589Y-98730749D01*
X128112743Y-98730747D01*
X128121589Y-98868634D01*
X128130324Y-98952955D01*
X128148586Y-98995440D01*
X128185772Y-99012308D01*
X128206558Y-99015347D01*
X128275692Y-99003794D01*
X128305756Y-98956632D01*
X128291614Y-98885361D01*
X128276515Y-98858728D01*
X128231253Y-98812970D01*
X128150307Y-98751317D01*
X128049164Y-98685309D01*
X128021855Y-98669080D01*
X127845856Y-98557428D01*
X127722658Y-98455751D01*
X127649032Y-98358796D01*
X127621757Y-98261319D01*
X127637604Y-98158076D01*
X127666473Y-98091170D01*
X127729397Y-98008536D01*
X127824209Y-97950526D01*
X127958963Y-97913836D01*
X128141711Y-97895164D01*
X128144953Y-97895000D01*
X128358457Y-97894960D01*
X128523089Y-97920405D01*
G37*
G36*
X136934673Y-97894871D02*
G01*
X137094572Y-97920107D01*
X137210506Y-97972410D01*
X137287456Y-98054553D01*
X137330404Y-98169311D01*
X137340358Y-98236315D01*
X137354396Y-98382404D01*
X137138991Y-98382405D01*
X136923587Y-98382405D01*
X136895811Y-98288062D01*
X136867457Y-98221963D01*
X136822723Y-98196567D01*
X136780951Y-98193721D01*
X136712049Y-98204089D01*
X136695923Y-98233934D01*
X136731378Y-98281363D01*
X136817210Y-98344482D01*
X136911581Y-98399700D01*
X137029454Y-98469454D01*
X137142044Y-98545174D01*
X137227812Y-98612218D01*
X137238153Y-98621680D01*
X137298652Y-98683164D01*
X137331244Y-98736030D01*
X137344504Y-98802535D01*
X137347008Y-98904161D01*
X137343700Y-99009390D01*
X137329344Y-99077864D01*
X137297308Y-99130716D01*
X137264893Y-99165673D01*
X137179400Y-99229459D01*
X137079686Y-99276165D01*
X137068951Y-99279391D01*
X136969029Y-99296777D01*
X136837749Y-99306126D01*
X136697156Y-99307274D01*
X136569296Y-99300059D01*
X136476220Y-99284320D01*
X136474457Y-99283795D01*
X136336929Y-99223584D01*
X136246683Y-99136736D01*
X136198249Y-99015549D01*
X136185867Y-98877333D01*
X136185867Y-98730748D01*
X136431018Y-98730748D01*
X136676170Y-98730748D01*
X136685018Y-98868634D01*
X136693752Y-98952955D01*
X136712014Y-98995440D01*
X136749199Y-99012309D01*
X136769986Y-99015348D01*
X136839121Y-99003793D01*
X136869186Y-98956632D01*
X136855044Y-98885361D01*
X136839943Y-98858728D01*
X136794224Y-98812219D01*
X136713371Y-98750358D01*
X136613419Y-98685217D01*
X136594848Y-98674197D01*
X136437819Y-98577908D01*
X136326716Y-98497594D01*
X136254096Y-98426377D01*
X136212512Y-98357380D01*
X136198048Y-98307599D01*
X136199885Y-98174178D01*
X136255597Y-98057944D01*
X136355116Y-97970076D01*
X136423315Y-97935961D01*
X136505409Y-97913784D01*
X136617615Y-97900220D01*
X136725832Y-97893926D01*
X136934673Y-97894871D01*
G37*
G36*
X133100425Y-97905491D02*
G01*
X133211875Y-97912751D01*
X133291425Y-97926845D01*
X133352097Y-97949402D01*
X133365125Y-97956161D01*
X133459590Y-98039097D01*
X133521617Y-98160524D01*
X133544262Y-98306773D01*
X133544267Y-98308902D01*
X133544266Y-98411435D01*
X133299276Y-98411434D01*
X133054285Y-98411434D01*
X133045275Y-98302577D01*
X133033088Y-98229003D01*
X133004295Y-98195311D01*
X132960232Y-98184900D01*
X132916266Y-98185989D01*
X132885409Y-98206586D01*
X132865405Y-98254846D01*
X132854006Y-98338928D01*
X132848952Y-98466988D01*
X132847977Y-98590973D01*
X132851197Y-98764114D01*
X132862900Y-98886403D01*
X132885311Y-98964700D01*
X132920654Y-99005877D01*
X132971149Y-99016791D01*
X132985481Y-99015702D01*
X133032385Y-99005634D01*
X133057493Y-98979060D01*
X133069295Y-98920496D01*
X133074069Y-98854120D01*
X133076867Y-98765026D01*
X133068794Y-98719474D01*
X133045128Y-98703267D01*
X133023269Y-98701721D01*
X132986122Y-98693630D01*
X132968547Y-98659414D01*
X132963737Y-98584153D01*
X132963695Y-98571092D01*
X132963695Y-98440462D01*
X133253981Y-98440462D01*
X133544266Y-98440462D01*
X133544266Y-98875890D01*
X133544268Y-99311319D01*
X133433958Y-99311318D01*
X133354198Y-99303896D01*
X133299100Y-99285594D01*
X133293541Y-99281212D01*
X133243476Y-99265953D01*
X133184247Y-99281212D01*
X133102796Y-99298308D01*
X132985323Y-99306799D01*
X132853221Y-99306722D01*
X132727873Y-99298109D01*
X132630677Y-99280997D01*
X132628266Y-99280309D01*
X132545056Y-99240109D01*
X132468977Y-99179461D01*
X132468610Y-99179071D01*
X132442091Y-99148401D01*
X132422954Y-99115145D01*
X132409790Y-99069557D01*
X132401193Y-99001895D01*
X132395752Y-98902416D01*
X132392058Y-98761379D01*
X132389778Y-98634150D01*
X132387678Y-98439201D01*
X132390220Y-98292809D01*
X132399490Y-98185520D01*
X132417568Y-98107889D01*
X132446546Y-98050471D01*
X132488508Y-98003814D01*
X132537653Y-97964289D01*
X132580993Y-97937114D01*
X132631972Y-97919370D01*
X132703469Y-97909129D01*
X132808366Y-97904461D01*
X132944052Y-97903433D01*
X133100425Y-97905491D01*
G37*
G36*
X141584303Y-94802386D02*
G01*
X141602811Y-94841324D01*
X141632768Y-94924090D01*
X141670912Y-95039685D01*
X141713983Y-95177115D01*
X141758720Y-95325378D01*
X141801863Y-95473478D01*
X141840150Y-95610418D01*
X141870320Y-95725201D01*
X141889115Y-95806826D01*
X141893271Y-95844297D01*
X141893243Y-95844371D01*
X141861372Y-95867550D01*
X141785384Y-95902665D01*
X141676750Y-95944898D01*
X141550571Y-95988256D01*
X141021706Y-96133581D01*
X140457981Y-96239336D01*
X139868221Y-96304202D01*
X139293365Y-96326733D01*
X139093128Y-96325604D01*
X138905077Y-96319076D01*
X138719387Y-96305904D01*
X138526229Y-96284845D01*
X138315775Y-96254657D01*
X138078202Y-96214095D01*
X137803677Y-96161919D01*
X137492151Y-96098901D01*
X137046658Y-96006962D01*
X136653336Y-95925971D01*
X136307481Y-95855238D01*
X136004387Y-95794070D01*
X135739347Y-95741773D01*
X135507658Y-95697656D01*
X135304610Y-95661020D01*
X135125502Y-95631179D01*
X134965625Y-95607441D01*
X134820274Y-95589105D01*
X134684745Y-95575490D01*
X134554333Y-95565894D01*
X134424326Y-95559624D01*
X134290028Y-95555994D01*
X134146724Y-95554309D01*
X133989714Y-95553872D01*
X133814290Y-95553993D01*
X133791009Y-95554012D01*
X133408079Y-95557100D01*
X133065842Y-95566607D01*
X132747162Y-95583868D01*
X132434898Y-95610215D01*
X132111914Y-95646976D01*
X131761067Y-95695484D01*
X131544715Y-95728482D01*
X131343903Y-95761087D01*
X131197887Y-95787411D01*
X131107303Y-95807301D01*
X131072792Y-95820605D01*
X131094987Y-95827172D01*
X131124042Y-95827891D01*
X131170385Y-95840316D01*
X131256779Y-95874311D01*
X131371617Y-95924935D01*
X131503292Y-95987275D01*
X131528023Y-95999428D01*
X131738954Y-96112132D01*
X131948144Y-96239251D01*
X132142271Y-96371736D01*
X132308015Y-96500531D01*
X132424840Y-96608885D01*
X132510100Y-96698747D01*
X137351195Y-96698748D01*
X142192288Y-96698749D01*
X142282232Y-96996291D01*
X142322268Y-97128197D01*
X142358625Y-97247007D01*
X142386445Y-97336900D01*
X142398082Y-97373662D01*
X142423989Y-97453490D01*
X137381341Y-97453492D01*
X132338695Y-97453490D01*
X132285576Y-97301091D01*
X132187625Y-97083720D01*
X132046861Y-96860496D01*
X131874253Y-96647424D01*
X131753660Y-96525196D01*
X131489333Y-96315901D01*
X131202729Y-96156867D01*
X130899942Y-96047694D01*
X130587055Y-95987986D01*
X130270161Y-95977344D01*
X129955345Y-96015373D01*
X129648700Y-96101673D01*
X129356312Y-96235849D01*
X129084269Y-96417498D01*
X128838663Y-96646229D01*
X128774594Y-96719694D01*
X128704618Y-96813798D01*
X128628897Y-96931780D01*
X128554478Y-97060512D01*
X128488427Y-97186868D01*
X128437803Y-97297720D01*
X128409662Y-97379942D01*
X128406209Y-97404811D01*
X128403504Y-97410936D01*
X128393712Y-97416528D01*
X128374320Y-97421608D01*
X128342810Y-97426205D01*
X128296668Y-97430340D01*
X128233381Y-97434036D01*
X128150431Y-97437324D01*
X128045305Y-97440220D01*
X127915486Y-97442749D01*
X127758462Y-97444941D01*
X127571717Y-97446816D01*
X127352734Y-97448399D01*
X127099000Y-97449715D01*
X126808001Y-97450785D01*
X126477219Y-97451638D01*
X126104139Y-97452293D01*
X125686252Y-97452778D01*
X125221034Y-97453116D01*
X124705977Y-97453331D01*
X124138564Y-97453447D01*
X123516278Y-97453488D01*
X123340724Y-97453490D01*
X122803120Y-97453451D01*
X122281364Y-97453330D01*
X121778399Y-97453137D01*
X121297165Y-97452869D01*
X120840605Y-97452538D01*
X120411662Y-97452146D01*
X120013273Y-97451694D01*
X119648383Y-97451189D01*
X119319934Y-97450632D01*
X119030866Y-97450035D01*
X118784122Y-97449393D01*
X118582641Y-97448718D01*
X118429369Y-97448004D01*
X118327245Y-97447268D01*
X118279211Y-97446505D01*
X118275721Y-97446234D01*
X118283987Y-97417412D01*
X118306265Y-97343682D01*
X118339344Y-97235574D01*
X118380013Y-97103625D01*
X118388521Y-97076120D01*
X118500838Y-96713262D01*
X123340302Y-96705919D01*
X128179768Y-96698578D01*
X128358302Y-96543737D01*
X128695775Y-96275433D01*
X129026783Y-96061166D01*
X129349253Y-95902236D01*
X129430814Y-95870369D01*
X129504807Y-95837658D01*
X129545079Y-95808931D01*
X129546928Y-95796254D01*
X129510833Y-95784293D01*
X129426260Y-95766630D01*
X129302350Y-95744641D01*
X129148250Y-95719706D01*
X128973104Y-95693199D01*
X128786052Y-95666493D01*
X128596247Y-95640969D01*
X128412828Y-95618000D01*
X128244938Y-95598962D01*
X128215230Y-95595871D01*
X127991624Y-95576513D01*
X127734413Y-95560076D01*
X127457522Y-95546966D01*
X127174867Y-95537592D01*
X126900368Y-95532363D01*
X126647951Y-95531682D01*
X126431534Y-95535959D01*
X126330422Y-95540722D01*
X126098840Y-95558472D01*
X125855609Y-95584614D01*
X125592779Y-95620385D01*
X125302393Y-95667029D01*
X124976497Y-95725782D01*
X124607138Y-95797883D01*
X124371238Y-95846022D01*
X123945853Y-95933723D01*
X123572380Y-96010042D01*
X123245965Y-96075758D01*
X122961746Y-96131647D01*
X122714868Y-96178485D01*
X122500474Y-96217051D01*
X122313707Y-96248123D01*
X122149708Y-96272474D01*
X122003621Y-96290885D01*
X121870588Y-96304131D01*
X121745753Y-96312989D01*
X121624256Y-96318236D01*
X121501244Y-96320650D01*
X121401579Y-96321066D01*
X120966341Y-96306578D01*
X120516331Y-96265498D01*
X120068416Y-96200355D01*
X119639476Y-96113697D01*
X119246384Y-96008054D01*
X119179555Y-95986834D01*
X119050723Y-95943658D01*
X118939923Y-95904373D01*
X118860377Y-95873795D01*
X118827673Y-95858555D01*
X118814350Y-95841291D01*
X118811338Y-95807496D01*
X118820282Y-95749572D01*
X118842820Y-95659910D01*
X118880599Y-95530907D01*
X118935259Y-95354953D01*
X118938942Y-95343273D01*
X118990168Y-95183591D01*
X119036844Y-95043057D01*
X119075707Y-94931121D01*
X119103487Y-94857228D01*
X119115918Y-94831419D01*
X119148806Y-94835421D01*
X119215761Y-94867335D01*
X119304004Y-94920771D01*
X119330904Y-94938804D01*
X119622578Y-95112582D01*
X119957281Y-95266499D01*
X120321850Y-95395291D01*
X120703125Y-95493695D01*
X120734831Y-95500275D01*
X120820511Y-95515922D01*
X120911128Y-95528092D01*
X121014948Y-95537150D01*
X121140233Y-95543462D01*
X121295247Y-95547387D01*
X121488252Y-95549296D01*
X121727514Y-95549548D01*
X121845753Y-95549241D01*
X122126785Y-95547194D01*
X122381384Y-95542529D01*
X122618932Y-95534454D01*
X122848807Y-95522182D01*
X123080392Y-95504922D01*
X123323068Y-95481883D01*
X123586219Y-95452278D01*
X123879218Y-95415318D01*
X124211454Y-95370210D01*
X124559925Y-95320823D01*
X124804841Y-95286512D01*
X125051748Y-95253516D01*
X125289186Y-95223253D01*
X125505695Y-95197130D01*
X125689823Y-95176574D01*
X125830107Y-95162995D01*
X125850241Y-95161370D01*
X126309444Y-95137691D01*
X126808093Y-95133215D01*
X127333228Y-95146921D01*
X127871887Y-95177789D01*
X128411113Y-95224799D01*
X128937944Y-95286930D01*
X129439420Y-95363164D01*
X129902581Y-95452479D01*
X130087844Y-95494920D01*
X130207170Y-95522415D01*
X130304222Y-95542239D01*
X130366020Y-95551877D01*
X130380924Y-95551642D01*
X130424928Y-95536977D01*
X130516951Y-95515001D01*
X130647665Y-95487436D01*
X130807732Y-95456008D01*
X130987829Y-95422438D01*
X131178624Y-95388450D01*
X131370786Y-95355768D01*
X131554981Y-95326117D01*
X131721883Y-95301216D01*
X131780145Y-95293184D01*
X132189200Y-95242500D01*
X132572711Y-95204306D01*
X132949314Y-95177393D01*
X133337651Y-95160551D01*
X133756362Y-95152576D01*
X133965180Y-95151549D01*
X134216960Y-95152171D01*
X134439906Y-95155231D01*
X134644296Y-95161578D01*
X134840409Y-95172060D01*
X135038532Y-95187529D01*
X135248938Y-95208832D01*
X135481913Y-95236821D01*
X135747732Y-95272345D01*
X136056680Y-95316252D01*
X136185866Y-95335071D01*
X136558479Y-95388578D01*
X136884054Y-95432837D01*
X137172700Y-95468844D01*
X137434526Y-95497592D01*
X137679637Y-95520077D01*
X137918146Y-95537295D01*
X138160161Y-95550237D01*
X138415790Y-95559902D01*
X138493637Y-95562227D01*
X138847885Y-95569664D01*
X139153406Y-95569771D01*
X139419177Y-95561690D01*
X139654160Y-95544557D01*
X139867333Y-95517506D01*
X140067664Y-95479678D01*
X140264124Y-95430213D01*
X140446313Y-95374614D01*
X140625088Y-95308672D01*
X140821355Y-95223803D01*
X141018809Y-95128112D01*
X141201125Y-95029709D01*
X141351994Y-94936695D01*
X141407311Y-94897212D01*
X141488329Y-94840904D01*
X141551769Y-94806805D01*
X141584101Y-94802167D01*
X141584303Y-94802386D01*
G37*
D15*
%TO.C,J5*%
X137561123Y-90217776D02*
X137561123Y-92977776D01*
X140211123Y-90217776D02*
X137561123Y-90217776D01*
X140211123Y-90217776D02*
X140211123Y-92977776D01*
X140211123Y-92977776D02*
X137561123Y-92977776D01*
X141481123Y-90217776D02*
X142861123Y-90217776D01*
X142861123Y-90217776D02*
X142861123Y-91597776D01*
%TO.C,C6*%
X157896123Y-116281528D02*
X157896123Y-115759024D01*
X159366123Y-116281528D02*
X159366123Y-115759024D01*
%TO.C,D1*%
X167131123Y-88502776D02*
X171016123Y-88502776D01*
X171016123Y-86232776D02*
X167131123Y-86232776D01*
X171016123Y-88502776D02*
X171016123Y-86232776D01*
%TO.C,C16*%
X134666123Y-115656524D02*
X134666123Y-116179028D01*
X136136123Y-115656524D02*
X136136123Y-116179028D01*
%TO.C,J1*%
X179327500Y-104390000D02*
X179327500Y-96660000D01*
X182087500Y-96660000D02*
X179327500Y-96660000D01*
X182087500Y-104390000D02*
X179327500Y-104390000D01*
X182087500Y-104390000D02*
X182087500Y-96660000D01*
X182087500Y-105660000D02*
X182087500Y-107040000D01*
X182087500Y-107040000D02*
X180707500Y-107040000D01*
%TD*%
M02*
