%TF.GenerationSoftware,KiCad,Pcbnew,9.0.7*%
%TF.CreationDate,2026-04-17T16:01:34+03:00*%
%TF.ProjectId,MCB-110-A,4d43422d-3131-4302-9d41-2e6b69636164,1.0*%
%TF.SameCoordinates,Original*%
%TF.FileFunction,Paste,Top*%
%TF.FilePolarity,Positive*%
%FSLAX46Y46*%
G04 Gerber Fmt 4.6, Leading zero omitted, Abs format (unit mm)*
G04 Created by KiCad (PCBNEW 9.0.7) date 2026-04-17 16:01:34*
%MOMM*%
%LPD*%
G01*
G04 APERTURE LIST*
G04 Aperture macros list*
%AMRoundRect*
0 Rectangle with rounded corners*
0 $1 Rounding radius*
0 $2 $3 $4 $5 $6 $7 $8 $9 X,Y pos of 4 corners*
0 Add a 4 corners polygon primitive as box body*
4,1,4,$2,$3,$4,$5,$6,$7,$8,$9,$2,$3,0*
0 Add four circle primitives for the rounded corners*
1,1,$1+$1,$2,$3*
1,1,$1+$1,$4,$5*
1,1,$1+$1,$6,$7*
1,1,$1+$1,$8,$9*
0 Add four rect primitives between the rounded corners*
20,1,$1+$1,$2,$3,$4,$5,0*
20,1,$1+$1,$4,$5,$6,$7,0*
20,1,$1+$1,$6,$7,$8,$9,0*
20,1,$1+$1,$8,$9,$2,$3,0*%
%AMFreePoly0*
4,1,14,0.230680,0.111820,0.364320,-0.021820,0.377500,-0.053640,0.377500,-0.080000,0.364320,-0.111820,0.332500,-0.125000,-0.332500,-0.125000,-0.364320,-0.111820,-0.377500,-0.080000,-0.377500,0.080000,-0.364320,0.111820,-0.332500,0.125000,0.198860,0.125000,0.230680,0.111820,0.230680,0.111820,$1*%
%AMFreePoly1*
4,1,14,0.364320,0.111820,0.377500,0.080000,0.377500,0.053640,0.364320,0.021820,0.230680,-0.111820,0.198860,-0.125000,-0.332500,-0.125000,-0.364320,-0.111820,-0.377500,-0.080000,-0.377500,0.080000,-0.364320,0.111820,-0.332500,0.125000,0.332500,0.125000,0.364320,0.111820,0.364320,0.111820,$1*%
%AMFreePoly2*
4,1,14,0.111820,0.364320,0.125000,0.332500,0.125000,-0.332500,0.111820,-0.364320,0.080000,-0.377500,-0.080000,-0.377500,-0.111820,-0.364320,-0.125000,-0.332500,-0.125000,0.198860,-0.111820,0.230680,0.021820,0.364320,0.053640,0.377500,0.080000,0.377500,0.111820,0.364320,0.111820,0.364320,$1*%
%AMFreePoly3*
4,1,14,-0.021820,0.364320,0.111820,0.230680,0.125000,0.198860,0.125000,-0.332500,0.111820,-0.364320,0.080000,-0.377500,-0.080000,-0.377500,-0.111820,-0.364320,-0.125000,-0.332500,-0.125000,0.332500,-0.111820,0.364320,-0.080000,0.377500,-0.053640,0.377500,-0.021820,0.364320,-0.021820,0.364320,$1*%
%AMFreePoly4*
4,1,14,0.364320,0.111820,0.377500,0.080000,0.377500,-0.080000,0.364320,-0.111820,0.332500,-0.125000,-0.198860,-0.125000,-0.230680,-0.111820,-0.364320,0.021820,-0.377500,0.053640,-0.377500,0.080000,-0.364320,0.111820,-0.332500,0.125000,0.332500,0.125000,0.364320,0.111820,0.364320,0.111820,$1*%
%AMFreePoly5*
4,1,14,0.364320,0.111820,0.377500,0.080000,0.377500,-0.080000,0.364320,-0.111820,0.332500,-0.125000,-0.332500,-0.125000,-0.364320,-0.111820,-0.377500,-0.080000,-0.377500,-0.053640,-0.364320,-0.021820,-0.230680,0.111820,-0.198860,0.125000,0.332500,0.125000,0.364320,0.111820,0.364320,0.111820,$1*%
%AMFreePoly6*
4,1,14,0.111820,0.364320,0.125000,0.332500,0.125000,-0.198860,0.111820,-0.230680,-0.021820,-0.364320,-0.053640,-0.377500,-0.080000,-0.377500,-0.111820,-0.364320,-0.125000,-0.332500,-0.125000,0.332500,-0.111820,0.364320,-0.080000,0.377500,0.080000,0.377500,0.111820,0.364320,0.111820,0.364320,$1*%
%AMFreePoly7*
4,1,14,0.111820,0.364320,0.125000,0.332500,0.125000,-0.332500,0.111820,-0.364320,0.080000,-0.377500,0.053640,-0.377500,0.021820,-0.364320,-0.111820,-0.230680,-0.125000,-0.198860,-0.125000,0.332500,-0.111820,0.364320,-0.080000,0.377500,0.080000,0.377500,0.111820,0.364320,0.111820,0.364320,$1*%
G04 Aperture macros list end*
%ADD10C,0.000000*%
%ADD11RoundRect,0.250000X0.625000X-0.375000X0.625000X0.375000X-0.625000X0.375000X-0.625000X-0.375000X0*%
%ADD12RoundRect,0.247500X-0.682500X0.247500X-0.682500X-0.247500X0.682500X-0.247500X0.682500X0.247500X0*%
%ADD13RoundRect,0.100000X-0.100000X0.687500X-0.100000X-0.687500X0.100000X-0.687500X0.100000X0.687500X0*%
%ADD14FreePoly0,90.000000*%
%ADD15RoundRect,0.062500X0.062500X-0.375000X0.062500X0.375000X-0.062500X0.375000X-0.062500X-0.375000X0*%
%ADD16FreePoly1,90.000000*%
%ADD17FreePoly2,90.000000*%
%ADD18RoundRect,0.062500X0.375000X-0.062500X0.375000X0.062500X-0.375000X0.062500X-0.375000X-0.062500X0*%
%ADD19FreePoly3,90.000000*%
%ADD20FreePoly4,90.000000*%
%ADD21FreePoly5,90.000000*%
%ADD22FreePoly6,90.000000*%
%ADD23FreePoly7,90.000000*%
%ADD24RoundRect,0.250000X-0.450000X0.350000X-0.450000X-0.350000X0.450000X-0.350000X0.450000X0.350000X0*%
%ADD25RoundRect,0.250000X0.350000X0.450000X-0.350000X0.450000X-0.350000X-0.450000X0.350000X-0.450000X0*%
%ADD26RoundRect,0.250000X-0.475000X0.337500X-0.475000X-0.337500X0.475000X-0.337500X0.475000X0.337500X0*%
%ADD27RoundRect,0.250000X-1.950000X-1.000000X1.950000X-1.000000X1.950000X1.000000X-1.950000X1.000000X0*%
%ADD28R,1.600000X1.400000*%
%ADD29RoundRect,0.250000X0.337500X0.475000X-0.337500X0.475000X-0.337500X-0.475000X0.337500X-0.475000X0*%
%ADD30RoundRect,0.250000X1.950000X1.000000X-1.950000X1.000000X-1.950000X-1.000000X1.950000X-1.000000X0*%
%ADD31RoundRect,0.250000X-0.350000X-0.450000X0.350000X-0.450000X0.350000X0.450000X-0.350000X0.450000X0*%
%ADD32RoundRect,0.250000X0.450000X-0.350000X0.450000X0.350000X-0.450000X0.350000X-0.450000X-0.350000X0*%
%ADD33RoundRect,0.250000X0.475000X-0.337500X0.475000X0.337500X-0.475000X0.337500X-0.475000X-0.337500X0*%
%ADD34RoundRect,0.250000X-0.337500X-0.475000X0.337500X-0.475000X0.337500X0.475000X-0.337500X0.475000X0*%
%ADD35R,0.220000X0.599999*%
%ADD36RoundRect,0.250000X0.375000X0.625000X-0.375000X0.625000X-0.375000X-0.625000X0.375000X-0.625000X0*%
G04 APERTURE END LIST*
D10*
%TO.C,U4*%
G36*
X159389718Y-89618553D02*
G01*
X159389718Y-89768553D01*
X159339718Y-89818553D01*
X158989719Y-89818553D01*
X158939719Y-89768553D01*
X158939719Y-89618553D01*
X158989719Y-89568553D01*
X159339718Y-89568553D01*
X159389718Y-89618553D01*
G37*
G36*
X159389718Y-90118555D02*
G01*
X159389718Y-90268555D01*
X159339718Y-90318554D01*
X158989719Y-90318554D01*
X158939719Y-90268555D01*
X158939719Y-90118555D01*
X158989719Y-90068555D01*
X159339718Y-90068555D01*
X159389718Y-90118555D01*
G37*
G36*
X162639717Y-89618553D02*
G01*
X162639717Y-89768553D01*
X162589717Y-89818553D01*
X162239718Y-89818553D01*
X162189718Y-89768553D01*
X162189718Y-89618553D01*
X162239718Y-89568553D01*
X162589717Y-89568553D01*
X162639717Y-89618553D01*
G37*
G36*
X162639717Y-90118555D02*
G01*
X162639717Y-90268555D01*
X162589717Y-90318554D01*
X162239718Y-90318554D01*
X162189718Y-90268555D01*
X162189718Y-90118555D01*
X162239718Y-90068555D01*
X162589717Y-90068555D01*
X162639717Y-90118555D01*
G37*
G36*
X159889720Y-89403555D02*
G01*
X159889717Y-89597555D01*
X159904719Y-89633555D01*
X160264718Y-89993554D01*
X160300720Y-90008555D01*
X160389719Y-90008555D01*
X160439719Y-90058555D01*
X160439719Y-90358554D01*
X160389719Y-90408554D01*
X159639718Y-90408554D01*
X159589718Y-90358554D01*
X159589718Y-89403555D01*
X159639718Y-89353555D01*
X159839717Y-89353555D01*
X159889720Y-89403555D01*
G37*
G36*
X161989718Y-89403553D02*
G01*
X161989718Y-90358554D01*
X161939718Y-90408554D01*
X161189717Y-90408554D01*
X161139717Y-90358554D01*
X161139717Y-90058555D01*
X161189717Y-90008555D01*
X161278716Y-90008555D01*
X161314718Y-89993554D01*
X161674717Y-89633555D01*
X161689719Y-89597555D01*
X161689716Y-89403555D01*
X161739719Y-89353555D01*
X161939718Y-89353555D01*
X161989718Y-89403553D01*
G37*
G36*
X160329719Y-90868553D02*
G01*
X160329719Y-91208553D01*
X160279719Y-91258550D01*
X159909717Y-91258555D01*
X159859717Y-91308552D01*
X159859717Y-91408555D01*
X159909717Y-91458555D01*
X160279719Y-91458555D01*
X160329719Y-91508555D01*
X160329716Y-91708552D01*
X160279719Y-91758554D01*
X159909717Y-91758554D01*
X159859717Y-91808554D01*
X159859717Y-91908551D01*
X159909717Y-91958554D01*
X160279716Y-91958554D01*
X160329719Y-92008554D01*
X160329719Y-92208553D01*
X160279719Y-92258553D01*
X159909717Y-92258556D01*
X159859717Y-92308553D01*
X159859717Y-92408553D01*
X159909717Y-92458553D01*
X160279719Y-92458553D01*
X160329719Y-92508555D01*
X160329721Y-92848554D01*
X160279719Y-92898554D01*
X159439718Y-92898554D01*
X159389718Y-92848554D01*
X159389718Y-92783553D01*
X159339718Y-92733553D01*
X158989719Y-92733553D01*
X158939719Y-92683554D01*
X158939719Y-92533554D01*
X158989719Y-92483554D01*
X159489718Y-92483554D01*
X159539718Y-92433554D01*
X159539718Y-92283554D01*
X159489718Y-92233552D01*
X158989719Y-92233554D01*
X158939719Y-92183555D01*
X158939719Y-92033555D01*
X158989719Y-91983552D01*
X159489718Y-91983552D01*
X159539718Y-91933555D01*
X159539718Y-91783553D01*
X159489718Y-91733553D01*
X158989719Y-91733553D01*
X158939719Y-91683553D01*
X158939719Y-91533553D01*
X158989719Y-91483553D01*
X159489718Y-91483553D01*
X159539718Y-91433551D01*
X159539718Y-91283554D01*
X159489718Y-91233546D01*
X158989719Y-91233554D01*
X158939722Y-91183564D01*
X158939717Y-91033554D01*
X158989719Y-90983565D01*
X159339718Y-90983554D01*
X159389718Y-90933555D01*
X159389718Y-90868553D01*
X159439718Y-90818556D01*
X160279716Y-90818553D01*
X160329719Y-90868553D01*
G37*
G36*
X162139718Y-90818556D02*
G01*
X162189718Y-90868553D01*
X162189718Y-90933557D01*
X162239718Y-90983554D01*
X162589717Y-90983565D01*
X162639719Y-91033554D01*
X162639714Y-91183564D01*
X162589717Y-91233554D01*
X162089718Y-91233546D01*
X162039718Y-91283554D01*
X162039718Y-91433551D01*
X162089718Y-91483553D01*
X162589717Y-91483553D01*
X162639717Y-91533553D01*
X162639717Y-91683553D01*
X162589717Y-91733553D01*
X162089718Y-91733553D01*
X162039718Y-91783555D01*
X162039718Y-91933555D01*
X162089718Y-91983552D01*
X162589717Y-91983552D01*
X162639717Y-92033555D01*
X162639717Y-92183555D01*
X162589717Y-92233554D01*
X162089718Y-92233552D01*
X162039718Y-92283554D01*
X162039718Y-92433554D01*
X162089718Y-92483554D01*
X162589717Y-92483554D01*
X162639717Y-92533554D01*
X162639717Y-92683554D01*
X162589717Y-92733553D01*
X162239718Y-92733553D01*
X162189718Y-92783553D01*
X162189718Y-92848554D01*
X162139718Y-92898554D01*
X161299717Y-92898554D01*
X161249715Y-92848554D01*
X161249717Y-92508555D01*
X161299717Y-92458555D01*
X161669719Y-92458553D01*
X161719719Y-92408553D01*
X161719719Y-92308553D01*
X161669719Y-92258556D01*
X161299717Y-92258553D01*
X161249717Y-92208553D01*
X161249717Y-92008554D01*
X161299717Y-91958554D01*
X161669719Y-91958554D01*
X161719719Y-91908551D01*
X161719719Y-91808554D01*
X161669719Y-91758554D01*
X161299717Y-91758554D01*
X161249720Y-91708552D01*
X161249717Y-91508555D01*
X161299717Y-91458555D01*
X161669719Y-91458555D01*
X161719719Y-91408555D01*
X161719719Y-91308552D01*
X161669719Y-91258555D01*
X161299717Y-91258550D01*
X161249717Y-91208553D01*
X161249717Y-90868553D01*
X161299720Y-90818553D01*
X162139718Y-90818556D01*
G37*
%TD*%
D11*
%TO.C,D3*%
X177621123Y-116117777D03*
X177621123Y-113317779D03*
%TD*%
D12*
%TO.C,U1*%
X147561123Y-103202776D03*
X147561123Y-104432776D03*
D13*
X149836123Y-100955276D03*
X149186123Y-100955276D03*
X148536123Y-100955276D03*
X147886123Y-100955276D03*
X147236123Y-100955276D03*
X146586123Y-100955276D03*
X145936123Y-100955276D03*
X145286123Y-100955276D03*
X145286123Y-106680276D03*
X145936123Y-106680276D03*
X146586123Y-106680276D03*
X147236123Y-106680276D03*
X147886123Y-106680276D03*
X148536123Y-106680276D03*
X149186123Y-106680276D03*
X149836123Y-106680276D03*
%TD*%
D14*
%TO.C,U3*%
X146141123Y-115017776D03*
D15*
X146641123Y-114957776D03*
X147141123Y-114957776D03*
X147641123Y-114957776D03*
X148141123Y-114957776D03*
X148641123Y-114957776D03*
D16*
X149141123Y-115017776D03*
D17*
X149638623Y-114520276D03*
D18*
X149578623Y-114020276D03*
X149578623Y-113520276D03*
X149578623Y-113020276D03*
X149578623Y-112520276D03*
X149578623Y-112020276D03*
D19*
X149638623Y-111520276D03*
D20*
X149141123Y-111022776D03*
D15*
X148641123Y-111082776D03*
X148141123Y-111082776D03*
X147641123Y-111082776D03*
X147141123Y-111082776D03*
X146641123Y-111082776D03*
D21*
X146141123Y-111022776D03*
D22*
X145643623Y-111520276D03*
D18*
X145703623Y-112020276D03*
X145703623Y-112520276D03*
X145703623Y-113020276D03*
X145703623Y-113520276D03*
X145703623Y-114020276D03*
D23*
X145643623Y-114520276D03*
%TD*%
D24*
%TO.C,R1*%
X156361123Y-115047776D03*
X156361123Y-117047776D03*
%TD*%
D25*
%TO.C,R4*%
X160791123Y-85657776D03*
X158791123Y-85657776D03*
%TD*%
D26*
%TO.C,C5*%
X154041123Y-89950276D03*
X154041123Y-92025276D03*
%TD*%
D27*
%TO.C,C11*%
X172721123Y-91417776D03*
X180121123Y-91417776D03*
%TD*%
D28*
%TO.C,SW3*%
X161011123Y-114067776D03*
X168211123Y-114067776D03*
X161011123Y-117067776D03*
X168211123Y-117067776D03*
%TD*%
D29*
%TO.C,C3*%
X142941123Y-116537776D03*
X140866123Y-116537776D03*
%TD*%
D30*
%TO.C,C17*%
X152061123Y-95097776D03*
X144661123Y-95097776D03*
%TD*%
D29*
%TO.C,C12*%
X141481123Y-104777776D03*
X139406123Y-104777776D03*
%TD*%
D31*
%TO.C,R3*%
X162641123Y-85657776D03*
X164641123Y-85657776D03*
%TD*%
D26*
%TO.C,C13*%
X151821123Y-104770276D03*
X151821123Y-106845276D03*
%TD*%
D32*
%TO.C,R15*%
X137631123Y-116957776D03*
X137631123Y-114957776D03*
%TD*%
D31*
%TO.C,R2*%
X118691123Y-117417776D03*
X120691123Y-117417776D03*
%TD*%
D33*
%TO.C,C2*%
X116851123Y-100122776D03*
X116851123Y-98047776D03*
%TD*%
D31*
%TO.C,R10*%
X169601123Y-107977776D03*
X171601123Y-107977776D03*
%TD*%
D11*
%TO.C,D4*%
X174921123Y-116127776D03*
X174921123Y-113327778D03*
%TD*%
D31*
%TO.C,R11*%
X169591123Y-110127776D03*
X171591123Y-110127776D03*
%TD*%
D28*
%TO.C,SW1*%
X132951123Y-116957776D03*
X125751123Y-116957776D03*
X132951123Y-113957776D03*
X125751123Y-113957776D03*
%TD*%
D33*
%TO.C,C1*%
X176811123Y-100122776D03*
X176811123Y-98047776D03*
%TD*%
D26*
%TO.C,C14*%
X143621123Y-104780276D03*
X143621123Y-106855276D03*
%TD*%
D34*
%TO.C,C7*%
X162651123Y-87717776D03*
X164726123Y-87717776D03*
%TD*%
D33*
%TO.C,C9*%
X165131123Y-92697776D03*
X165131123Y-90622776D03*
%TD*%
D26*
%TO.C,C4*%
X156171123Y-89950276D03*
X156171123Y-92025276D03*
%TD*%
D32*
%TO.C,R5*%
X167341123Y-92687776D03*
X167341123Y-90687776D03*
%TD*%
D35*
%TO.C,U4*%
X161289717Y-89293555D03*
X160789718Y-89293555D03*
X160289719Y-89293555D03*
%TD*%
D33*
%TO.C,C6*%
X158631123Y-117057776D03*
X158631123Y-114982776D03*
%TD*%
D36*
%TO.C,D1*%
X170131123Y-87367776D03*
X167331123Y-87367776D03*
%TD*%
D26*
%TO.C,C16*%
X135401123Y-114880276D03*
X135401123Y-116955276D03*
%TD*%
M02*
