%TF.GenerationSoftware,KiCad,Pcbnew,9.0.5*%
%TF.CreationDate,2026-01-13T05:22:35+02:00*%
%TF.ProjectId,MCB-100-A,4d43422d-3130-4302-9d41-2e6b69636164,1.0*%
%TF.SameCoordinates,Original*%
%TF.FileFunction,Soldermask,Bot*%
%TF.FilePolarity,Negative*%
%FSLAX46Y46*%
G04 Gerber Fmt 4.6, Leading zero omitted, Abs format (unit mm)*
G04 Created by KiCad (PCBNEW 9.0.5) date 2026-01-13 05:22:35*
%MOMM*%
%LPD*%
G01*
G04 APERTURE LIST*
G04 Aperture macros list*
%AMRoundRect*
0 Rectangle with rounded corners*
0 $1 Rounding radius*
0 $2 $3 $4 $5 $6 $7 $8 $9 X,Y pos of 4 corners*
0 Add a 4 corners polygon primitive as box body*
4,1,4,$2,$3,$4,$5,$6,$7,$8,$9,$2,$3,0*
0 Add four circle primitives for the rounded corners*
1,1,$1+$1,$2,$3*
1,1,$1+$1,$4,$5*
1,1,$1+$1,$6,$7*
1,1,$1+$1,$8,$9*
0 Add four rect primitives between the rounded corners*
20,1,$1+$1,$2,$3,$4,$5,0*
20,1,$1+$1,$4,$5,$6,$7,0*
20,1,$1+$1,$6,$7,$8,$9,0*
20,1,$1+$1,$8,$9,$2,$3,0*%
%AMHorizOval*
0 Thick line with rounded ends*
0 $1 width*
0 $2 $3 position (X,Y) of the first rounded end (center of the circle)*
0 $4 $5 position (X,Y) of the second rounded end (center of the circle)*
0 Add line between two ends*
20,1,$1,$2,$3,$4,$5,0*
0 Add two circle primitives to create the rounded ends*
1,1,$1,$2,$3*
1,1,$1,$4,$5*%
%AMRotRect*
0 Rectangle, with rotation*
0 The origin of the aperture is its center*
0 $1 length*
0 $2 width*
0 $3 Rotation angle, in degrees counterclockwise*
0 Add horizontal line*
21,1,$1,$2,0,0,$3*%
G04 Aperture macros list end*
%ADD10RoundRect,0.250000X-0.600000X-0.750000X0.600000X-0.750000X0.600000X0.750000X-0.600000X0.750000X0*%
%ADD11O,1.700000X2.000000*%
%ADD12C,3.200000*%
%ADD13RotRect,1.700000X1.700000X24.700000*%
%ADD14C,1.700000*%
%ADD15R,1.700000X1.700000*%
%ADD16HorizOval,2.200000X0.590530X0.271614X-0.590530X-0.271614X0*%
%ADD17RotRect,1.500000X2.500000X114.700000*%
%ADD18HorizOval,1.500000X0.454254X0.208934X-0.454254X-0.208934X0*%
%ADD19C,2.000000*%
%ADD20RotRect,1.700000X1.700000X45.000000*%
%ADD21RoundRect,0.250000X-0.600000X-0.725000X0.600000X-0.725000X0.600000X0.725000X-0.600000X0.725000X0*%
%ADD22O,1.700000X1.950000*%
%ADD23RotRect,1.700000X1.700000X225.000000*%
%ADD24RoundRect,0.250000X-0.097227X0.574524X-0.574524X0.097227X0.097227X-0.574524X0.574524X-0.097227X0*%
%ADD25RoundRect,0.250000X0.450000X-0.350000X0.450000X0.350000X-0.450000X0.350000X-0.450000X-0.350000X0*%
%ADD26RoundRect,0.250000X-0.574524X-0.097227X-0.097227X-0.574524X0.574524X0.097227X0.097227X0.574524X0*%
%ADD27RoundRect,0.250000X0.475000X-0.337500X0.475000X0.337500X-0.475000X0.337500X-0.475000X-0.337500X0*%
%ADD28RoundRect,0.250000X-0.565685X-0.070711X-0.070711X-0.565685X0.565685X0.070711X0.070711X0.565685X0*%
%ADD29RoundRect,0.250000X0.362500X1.425000X-0.362500X1.425000X-0.362500X-1.425000X0.362500X-1.425000X0*%
%ADD30RoundRect,0.250000X-0.362500X-1.425000X0.362500X-1.425000X0.362500X1.425000X-0.362500X1.425000X0*%
%ADD31C,0.700000*%
%ADD32O,0.900000X1.700000*%
%ADD33O,0.900000X2.400000*%
%ADD34RoundRect,0.250000X-0.475000X0.337500X-0.475000X-0.337500X0.475000X-0.337500X0.475000X0.337500X0*%
G04 APERTURE END LIST*
D10*
%TO.C,J7*%
X139607500Y-79550000D03*
D11*
X142107500Y-79550000D03*
%TD*%
D12*
%TO.C,H10*%
X197950000Y-141900000D03*
%TD*%
%TO.C,H5*%
X187100000Y-116830000D03*
%TD*%
%TO.C,H8*%
X93560000Y-116830000D03*
%TD*%
D13*
%TO.C,J4*%
X175007500Y-104500000D03*
D14*
X176068882Y-106807611D03*
X177130265Y-109115222D03*
X178191647Y-111422832D03*
%TD*%
D12*
%TO.C,H2*%
X163080000Y-71720000D03*
%TD*%
%TO.C,H7*%
X187090000Y-141900000D03*
%TD*%
%TO.C,H9*%
X104410000Y-141900000D03*
%TD*%
D15*
%TO.C,J2*%
X111767500Y-132580000D03*
D14*
X111767500Y-130040000D03*
X111767500Y-127500000D03*
X111767500Y-124960000D03*
%TD*%
D16*
%TO.C,SW2*%
X173853740Y-84330617D03*
X170427230Y-76880850D03*
D17*
X172976219Y-82422750D03*
D18*
X172140484Y-80605733D03*
X171304751Y-78788718D03*
%TD*%
D19*
%TO.C,SW3*%
X156998877Y-141031123D03*
X156998877Y-134531123D03*
X161498877Y-141031123D03*
X161498877Y-134531123D03*
%TD*%
D12*
%TO.C,H3*%
X104410000Y-116830000D03*
%TD*%
%TO.C,H6*%
X93550000Y-141900000D03*
%TD*%
D19*
%TO.C,SW1*%
X176245787Y-87799598D03*
X178961923Y-93704901D03*
X172157500Y-89680000D03*
X174873636Y-95585303D03*
%TD*%
D20*
%TO.C,J9*%
X154001123Y-104501123D03*
D14*
X155797174Y-106297174D03*
X157593225Y-108093225D03*
%TD*%
D21*
%TO.C,J6*%
X122997500Y-79600000D03*
D22*
X125497500Y-79600000D03*
X127997500Y-79600000D03*
X130497500Y-79600000D03*
X132997500Y-79600000D03*
%TD*%
D12*
%TO.C,H1*%
X128430000Y-71720000D03*
%TD*%
%TO.C,H4*%
X197950000Y-116830000D03*
%TD*%
D15*
%TO.C,J1*%
X179477500Y-132580000D03*
D14*
X179477500Y-130040000D03*
X179477500Y-127500000D03*
X179477500Y-124960000D03*
%TD*%
D23*
%TO.C,J14*%
X138029602Y-127552102D03*
D14*
X136233551Y-129348153D03*
X136233551Y-125756051D03*
X134437500Y-127552102D03*
X134437500Y-123960000D03*
X132641448Y-125756051D03*
%TD*%
D24*
%TO.C,C7*%
X139537500Y-118690000D03*
X138070254Y-120157246D03*
%TD*%
D25*
%TO.C,R15*%
X167177500Y-95230000D03*
X167177500Y-93230000D03*
%TD*%
D26*
%TO.C,C14*%
X140457500Y-101380000D03*
X141924746Y-102847246D03*
%TD*%
D27*
%TO.C,C2*%
X115397500Y-129347500D03*
X115397500Y-127272500D03*
%TD*%
D28*
%TO.C,R4*%
X147783286Y-103055786D03*
X149197500Y-104470000D03*
%TD*%
D29*
%TO.C,R14*%
X143477500Y-87000000D03*
X137552500Y-87000000D03*
%TD*%
D27*
%TO.C,C1*%
X175897500Y-129657500D03*
X175897500Y-127582500D03*
%TD*%
D30*
%TO.C,R13*%
X147707500Y-87000000D03*
X153632500Y-87000000D03*
%TD*%
D31*
%TO.C,J3*%
X148847500Y-137440000D03*
X147997500Y-137440000D03*
X147147500Y-137440000D03*
X146297500Y-137440000D03*
X145447500Y-137440000D03*
X144597500Y-137440000D03*
X143747500Y-137440000D03*
X142897500Y-137440000D03*
X142897500Y-138790000D03*
X143747500Y-138790000D03*
X144597500Y-138790000D03*
X145447500Y-138790000D03*
X146297500Y-138790000D03*
X147147500Y-138790000D03*
X147997500Y-138790000D03*
X148847500Y-138790000D03*
D32*
X150197500Y-141800000D03*
D33*
X150197500Y-138420000D03*
D32*
X141547500Y-141800000D03*
D33*
X141547500Y-138420000D03*
%TD*%
D34*
%TO.C,C6*%
X164307500Y-134522500D03*
X164307500Y-136597500D03*
%TD*%
%TO.C,C16*%
X169857500Y-93220000D03*
X169857500Y-95295000D03*
%TD*%
M02*
