M48
; DRILL file {KiCad 9.0.5} date 2026-01-13T05:22:32+0200
; FORMAT={-:-/ absolute / inch / decimal}
; #@! TF.CreationDate,2026-01-13T05:22:32+02:00
; #@! TF.GenerationSoftware,Kicad,Pcbnew,9.0.5
; #@! TF.FileFunction,Plated,1,2,PTH
FMAT,2
INCH
; #@! TA.AperFunction,Plated,PTH,ViaDrill
T1C0.0079
; #@! TA.AperFunction,Plated,PTH,ComponentDrill
T2C0.0079
; #@! TA.AperFunction,Plated,PTH,ViaDrill
T3C0.0118
; #@! TA.AperFunction,Plated,PTH,ComponentDrill
T4C0.0157
; #@! TA.AperFunction,Plated,PTH,ComponentDrill
T5C0.0236
; #@! TA.AperFunction,Plated,PTH,ComponentDrill
T6C0.0354
; #@! TA.AperFunction,Plated,PTH,ComponentDrill
T7C0.0374
; #@! TA.AperFunction,Plated,PTH,ComponentDrill
T8C0.0394
; #@! TA.AperFunction,Plated,PTH,ComponentDrill
T9C0.0433
; #@! TA.AperFunction,Plated,PTH,ComponentDrill
T10C0.0591
%
G90
G05
T1
X5.765Y-4.1256
X5.9172Y-3.2791
X5.9906Y-4.5927
X6.0137Y-4.5713
X6.3219Y-4.7118
X6.3897Y-4.7378
X6.468Y-5.4311
T2
X5.6611Y-3.78
X5.6611Y-3.8194
X5.6611Y-3.8588
X5.7084Y-3.78
X5.7084Y-3.8194
X5.7084Y-3.8588
X5.7556Y-3.78
X5.7556Y-3.8194
X5.7556Y-3.8588
X5.8029Y-3.78
X5.8029Y-3.8194
X5.8029Y-3.8588
T3
X5.0393Y-3.8469
X5.0704Y-3.8791
X5.3429Y-3.5429
X5.3534Y-3.4244
X5.3597Y-3.5992
X5.3847Y-4.7815
X5.4095Y-4.2067
X5.4156Y-3.3272
X5.5315Y-4.6347
X5.5394Y-4.4091
X5.5786Y-3.7961
X5.6024Y-4.5197
X5.6075Y-4.1209
X5.6182Y-4.7126
X5.6493Y-4.7347
X5.6504Y-3.58
X5.6552Y-4.9622
X5.691Y-4.7607
X5.6937Y-4.0308
X5.7193Y-3.9914
X5.7674Y-4.0099
X5.7991Y-4.0004
X5.8154Y-3.5752
X5.83Y-4.5717
X5.8913Y-3.6386
X5.8981Y-3.8516
X5.9605Y-4.1567
X5.9889Y-3.8571
X6.0284Y-4.8138
X6.0487Y-3.3331
X6.1117Y-3.4248
X6.3121Y-3.6386
X6.3627Y-3.6701
T4
X5.6259Y-5.411
X5.6259Y-5.4642
X5.6594Y-5.411
X5.6594Y-5.4642
X5.6928Y-5.411
X5.6928Y-5.4642
X5.7263Y-5.411
X5.7263Y-5.4642
X5.7597Y-5.411
X5.7597Y-5.4642
X5.7932Y-5.411
X5.7932Y-5.4642
X5.8267Y-5.411
X5.8267Y-5.4642
X5.8601Y-5.411
X5.8601Y-5.4642
T6
X6.7443Y-3.1019
X6.7772Y-3.1735
X6.8101Y-3.245
T7
X4.8424Y-3.1339
X4.9408Y-3.1339
X5.0393Y-3.1339
X5.1377Y-3.1339
X5.2361Y-3.1339
T8
X4.4003Y-4.9197
X4.4003Y-5.0197
X4.4003Y-5.1197
X4.4003Y-5.2197
X5.2221Y-4.951
X5.2928Y-4.8803
X5.2928Y-5.0217
X5.3635Y-4.951
X5.3635Y-5.0924
X5.4342Y-5.0217
X5.4964Y-3.1319
X5.5948Y-3.1319
X6.063Y-4.1142
X6.1337Y-4.1849
X6.2045Y-4.2556
X6.8901Y-4.1142
X6.9318Y-4.205
X6.9736Y-4.2959
X7.0154Y-4.3867
X7.066Y-4.9197
X7.066Y-5.0197
X7.066Y-5.1197
X7.066Y-5.2197
T9
X6.1811Y-5.2965
X6.1811Y-5.5524
X6.3582Y-5.2965
X6.3582Y-5.5524
X6.7779Y-3.5307
X6.8848Y-3.7632
X6.9388Y-3.4567
X7.0457Y-3.6892
T10
X6.7097Y-3.0268
X6.8446Y-3.3201
T5
G00X5.5727Y-5.4791
M15
G01X5.5727Y-5.4201
M16
G05
G00X5.5727Y-5.5984
M15
G01X5.5727Y-5.5669
M16
G05
G00X5.9133Y-5.4791
M15
G01X5.9133Y-5.4201
M16
G05
G00X5.9133Y-5.5984
M15
G01X5.9133Y-5.5669
M16
G05
M30
