%TF.GenerationSoftware,KiCad,Pcbnew,9.0.5*%
%TF.CreationDate,2026-01-13T05:22:35+02:00*%
%TF.ProjectId,MCB-100-A,4d43422d-3130-4302-9d41-2e6b69636164,1.0*%
%TF.SameCoordinates,Original*%
%TF.FileFunction,Legend,Bot*%
%TF.FilePolarity,Positive*%
%FSLAX46Y46*%
G04 Gerber Fmt 4.6, Leading zero omitted, Abs format (unit mm)*
G04 Created by KiCad (PCBNEW 9.0.5) date 2026-01-13 05:22:35*
%MOMM*%
%LPD*%
G01*
G04 APERTURE LIST*
%ADD10C,0.375000*%
%ADD11C,0.120000*%
G04 APERTURE END LIST*
D10*
X133084975Y-74040847D02*
X133084975Y-75540847D01*
X134942118Y-74040847D02*
X134942118Y-75540847D01*
X134942118Y-75540847D02*
X135442118Y-74469418D01*
X135442118Y-74469418D02*
X135942118Y-75540847D01*
X135942118Y-75540847D02*
X135942118Y-74040847D01*
X137299262Y-75040847D02*
X137299262Y-74040847D01*
X136656404Y-75040847D02*
X136656404Y-74255133D01*
X136656404Y-74255133D02*
X136727833Y-74112276D01*
X136727833Y-74112276D02*
X136870690Y-74040847D01*
X136870690Y-74040847D02*
X137084976Y-74040847D01*
X137084976Y-74040847D02*
X137227833Y-74112276D01*
X137227833Y-74112276D02*
X137299262Y-74183704D01*
X137942119Y-74112276D02*
X138084976Y-74040847D01*
X138084976Y-74040847D02*
X138370690Y-74040847D01*
X138370690Y-74040847D02*
X138513547Y-74112276D01*
X138513547Y-74112276D02*
X138584976Y-74255133D01*
X138584976Y-74255133D02*
X138584976Y-74326561D01*
X138584976Y-74326561D02*
X138513547Y-74469418D01*
X138513547Y-74469418D02*
X138370690Y-74540847D01*
X138370690Y-74540847D02*
X138156405Y-74540847D01*
X138156405Y-74540847D02*
X138013547Y-74612276D01*
X138013547Y-74612276D02*
X137942119Y-74755133D01*
X137942119Y-74755133D02*
X137942119Y-74826561D01*
X137942119Y-74826561D02*
X138013547Y-74969418D01*
X138013547Y-74969418D02*
X138156405Y-75040847D01*
X138156405Y-75040847D02*
X138370690Y-75040847D01*
X138370690Y-75040847D02*
X138513547Y-74969418D01*
X139013548Y-75040847D02*
X139584976Y-75040847D01*
X139227833Y-75540847D02*
X139227833Y-74255133D01*
X139227833Y-74255133D02*
X139299262Y-74112276D01*
X139299262Y-74112276D02*
X139442119Y-74040847D01*
X139442119Y-74040847D02*
X139584976Y-74040847D01*
X141727833Y-74826561D02*
X141227833Y-74826561D01*
X141227833Y-74040847D02*
X141227833Y-75540847D01*
X141227833Y-75540847D02*
X141942119Y-75540847D01*
X142727833Y-74040847D02*
X142584976Y-74112276D01*
X142584976Y-74112276D02*
X142513547Y-74183704D01*
X142513547Y-74183704D02*
X142442119Y-74326561D01*
X142442119Y-74326561D02*
X142442119Y-74755133D01*
X142442119Y-74755133D02*
X142513547Y-74897990D01*
X142513547Y-74897990D02*
X142584976Y-74969418D01*
X142584976Y-74969418D02*
X142727833Y-75040847D01*
X142727833Y-75040847D02*
X142942119Y-75040847D01*
X142942119Y-75040847D02*
X143084976Y-74969418D01*
X143084976Y-74969418D02*
X143156405Y-74897990D01*
X143156405Y-74897990D02*
X143227833Y-74755133D01*
X143227833Y-74755133D02*
X143227833Y-74326561D01*
X143227833Y-74326561D02*
X143156405Y-74183704D01*
X143156405Y-74183704D02*
X143084976Y-74112276D01*
X143084976Y-74112276D02*
X142942119Y-74040847D01*
X142942119Y-74040847D02*
X142727833Y-74040847D01*
X144084976Y-74040847D02*
X143942119Y-74112276D01*
X143942119Y-74112276D02*
X143870690Y-74255133D01*
X143870690Y-74255133D02*
X143870690Y-75540847D01*
X144870690Y-74040847D02*
X144727833Y-74112276D01*
X144727833Y-74112276D02*
X144656404Y-74255133D01*
X144656404Y-74255133D02*
X144656404Y-75540847D01*
X145656404Y-74040847D02*
X145513547Y-74112276D01*
X145513547Y-74112276D02*
X145442118Y-74183704D01*
X145442118Y-74183704D02*
X145370690Y-74326561D01*
X145370690Y-74326561D02*
X145370690Y-74755133D01*
X145370690Y-74755133D02*
X145442118Y-74897990D01*
X145442118Y-74897990D02*
X145513547Y-74969418D01*
X145513547Y-74969418D02*
X145656404Y-75040847D01*
X145656404Y-75040847D02*
X145870690Y-75040847D01*
X145870690Y-75040847D02*
X146013547Y-74969418D01*
X146013547Y-74969418D02*
X146084976Y-74897990D01*
X146084976Y-74897990D02*
X146156404Y-74755133D01*
X146156404Y-74755133D02*
X146156404Y-74326561D01*
X146156404Y-74326561D02*
X146084976Y-74183704D01*
X146084976Y-74183704D02*
X146013547Y-74112276D01*
X146013547Y-74112276D02*
X145870690Y-74040847D01*
X145870690Y-74040847D02*
X145656404Y-74040847D01*
X146656404Y-75040847D02*
X146942119Y-74040847D01*
X146942119Y-74040847D02*
X147227833Y-74755133D01*
X147227833Y-74755133D02*
X147513547Y-74040847D01*
X147513547Y-74040847D02*
X147799261Y-75040847D01*
X149299262Y-75040847D02*
X149870690Y-75040847D01*
X149513547Y-75540847D02*
X149513547Y-74255133D01*
X149513547Y-74255133D02*
X149584976Y-74112276D01*
X149584976Y-74112276D02*
X149727833Y-74040847D01*
X149727833Y-74040847D02*
X149870690Y-74040847D01*
X150370690Y-74040847D02*
X150370690Y-75540847D01*
X151013548Y-74040847D02*
X151013548Y-74826561D01*
X151013548Y-74826561D02*
X150942119Y-74969418D01*
X150942119Y-74969418D02*
X150799262Y-75040847D01*
X150799262Y-75040847D02*
X150584976Y-75040847D01*
X150584976Y-75040847D02*
X150442119Y-74969418D01*
X150442119Y-74969418D02*
X150370690Y-74897990D01*
X152299262Y-74112276D02*
X152156405Y-74040847D01*
X152156405Y-74040847D02*
X151870691Y-74040847D01*
X151870691Y-74040847D02*
X151727833Y-74112276D01*
X151727833Y-74112276D02*
X151656405Y-74255133D01*
X151656405Y-74255133D02*
X151656405Y-74826561D01*
X151656405Y-74826561D02*
X151727833Y-74969418D01*
X151727833Y-74969418D02*
X151870691Y-75040847D01*
X151870691Y-75040847D02*
X152156405Y-75040847D01*
X152156405Y-75040847D02*
X152299262Y-74969418D01*
X152299262Y-74969418D02*
X152370691Y-74826561D01*
X152370691Y-74826561D02*
X152370691Y-74683704D01*
X152370691Y-74683704D02*
X151656405Y-74540847D01*
X154870690Y-74040847D02*
X154156404Y-74040847D01*
X154156404Y-74040847D02*
X154156404Y-75540847D01*
X155370690Y-74040847D02*
X155370690Y-75040847D01*
X155370690Y-75540847D02*
X155299262Y-75469418D01*
X155299262Y-75469418D02*
X155370690Y-75397990D01*
X155370690Y-75397990D02*
X155442119Y-75469418D01*
X155442119Y-75469418D02*
X155370690Y-75540847D01*
X155370690Y-75540847D02*
X155370690Y-75397990D01*
X156084976Y-75040847D02*
X156084976Y-74040847D01*
X156084976Y-74897990D02*
X156156405Y-74969418D01*
X156156405Y-74969418D02*
X156299262Y-75040847D01*
X156299262Y-75040847D02*
X156513548Y-75040847D01*
X156513548Y-75040847D02*
X156656405Y-74969418D01*
X156656405Y-74969418D02*
X156727834Y-74826561D01*
X156727834Y-74826561D02*
X156727834Y-74040847D01*
X158013548Y-74112276D02*
X157870691Y-74040847D01*
X157870691Y-74040847D02*
X157584977Y-74040847D01*
X157584977Y-74040847D02*
X157442119Y-74112276D01*
X157442119Y-74112276D02*
X157370691Y-74255133D01*
X157370691Y-74255133D02*
X157370691Y-74826561D01*
X157370691Y-74826561D02*
X157442119Y-74969418D01*
X157442119Y-74969418D02*
X157584977Y-75040847D01*
X157584977Y-75040847D02*
X157870691Y-75040847D01*
X157870691Y-75040847D02*
X158013548Y-74969418D01*
X158013548Y-74969418D02*
X158084977Y-74826561D01*
X158084977Y-74826561D02*
X158084977Y-74683704D01*
X158084977Y-74683704D02*
X157370691Y-74540847D01*
D11*
%TO.C,C7*%
X138468887Y-118719166D02*
X138099420Y-119088633D01*
X139508334Y-119758613D02*
X139138867Y-120128080D01*
%TO.C,R15*%
X166442500Y-94457064D02*
X166442500Y-94002936D01*
X167912500Y-94457064D02*
X167912500Y-94002936D01*
%TO.C,C14*%
X140486666Y-102448613D02*
X140856133Y-102818080D01*
X141526113Y-101409166D02*
X141895580Y-101778633D01*
%TO.C,C2*%
X114662500Y-128571252D02*
X114662500Y-128048748D01*
X116132500Y-128571252D02*
X116132500Y-128048748D01*
%TO.C,R4*%
X147810111Y-104122058D02*
X148131228Y-104443175D01*
X148849558Y-103082611D02*
X149170675Y-103403728D01*
%TO.C,R14*%
X142692064Y-85290000D02*
X138337936Y-85290000D01*
X142692064Y-88710000D02*
X138337936Y-88710000D01*
%TO.C,C1*%
X175162500Y-128881252D02*
X175162500Y-128358748D01*
X176632500Y-128881252D02*
X176632500Y-128358748D01*
%TO.C,R13*%
X148492936Y-85290000D02*
X152847064Y-85290000D01*
X148492936Y-88710000D02*
X152847064Y-88710000D01*
%TO.C,J3*%
X141277500Y-139840000D02*
X141277500Y-140740000D01*
X141277500Y-143440000D02*
X141277500Y-146170000D01*
X150347500Y-136760000D02*
X141397500Y-136760000D01*
X150467500Y-139840000D02*
X150467500Y-140740000D01*
X150467500Y-143440000D02*
X150467500Y-146170000D01*
X150467500Y-146170000D02*
X141277500Y-146170000D01*
%TO.C,C6*%
X163572500Y-135298748D02*
X163572500Y-135821252D01*
X165042500Y-135298748D02*
X165042500Y-135821252D01*
%TO.C,C16*%
X169122500Y-93996248D02*
X169122500Y-94518752D01*
X170592500Y-93996248D02*
X170592500Y-94518752D01*
%TD*%
M02*
