%TF.GenerationSoftware,KiCad,Pcbnew,9.0.5*%
%TF.CreationDate,2026-01-13T05:22:35+02:00*%
%TF.ProjectId,MCB-100-A,4d43422d-3130-4302-9d41-2e6b69636164,1.0*%
%TF.SameCoordinates,Original*%
%TF.FileFunction,Paste,Top*%
%TF.FilePolarity,Positive*%
%FSLAX46Y46*%
G04 Gerber Fmt 4.6, Leading zero omitted, Abs format (unit mm)*
G04 Created by KiCad (PCBNEW 9.0.5) date 2026-01-13 05:22:35*
%MOMM*%
%LPD*%
G01*
G04 APERTURE LIST*
G04 Aperture macros list*
%AMRoundRect*
0 Rectangle with rounded corners*
0 $1 Rounding radius*
0 $2 $3 $4 $5 $6 $7 $8 $9 X,Y pos of 4 corners*
0 Add a 4 corners polygon primitive as box body*
4,1,4,$2,$3,$4,$5,$6,$7,$8,$9,$2,$3,0*
0 Add four circle primitives for the rounded corners*
1,1,$1+$1,$2,$3*
1,1,$1+$1,$4,$5*
1,1,$1+$1,$6,$7*
1,1,$1+$1,$8,$9*
0 Add four rect primitives between the rounded corners*
20,1,$1+$1,$2,$3,$4,$5,0*
20,1,$1+$1,$4,$5,$6,$7,0*
20,1,$1+$1,$6,$7,$8,$9,0*
20,1,$1+$1,$8,$9,$2,$3,0*%
G04 Aperture macros list end*
%ADD10RoundRect,0.250000X0.625000X-0.375000X0.625000X0.375000X-0.625000X0.375000X-0.625000X-0.375000X0*%
%ADD11RoundRect,0.250000X0.574524X0.097227X0.097227X0.574524X-0.574524X-0.097227X-0.097227X-0.574524X0*%
%ADD12RoundRect,0.137500X-0.327037X-0.521491X0.521491X0.327037X0.327037X0.521491X-0.521491X-0.327037X0*%
%ADD13RoundRect,0.137500X0.327037X-0.521491X0.521491X-0.327037X-0.327037X0.521491X-0.521491X0.327037X0*%
%ADD14RoundRect,0.247500X-0.682500X0.247500X-0.682500X-0.247500X0.682500X-0.247500X0.682500X0.247500X0*%
%ADD15RoundRect,0.100000X-0.100000X0.687500X-0.100000X-0.687500X0.100000X-0.687500X0.100000X0.687500X0*%
%ADD16RoundRect,0.250000X0.350000X0.450000X-0.350000X0.450000X-0.350000X-0.450000X0.350000X-0.450000X0*%
%ADD17RoundRect,0.250000X0.375000X0.625000X-0.375000X0.625000X-0.375000X-0.625000X0.375000X-0.625000X0*%
%ADD18RoundRect,0.250000X0.450000X-0.350000X0.450000X0.350000X-0.450000X0.350000X-0.450000X-0.350000X0*%
%ADD19RoundRect,0.250000X-0.650000X1.000000X-0.650000X-1.000000X0.650000X-1.000000X0.650000X1.000000X0*%
%ADD20RoundRect,0.250000X0.475000X-0.337500X0.475000X0.337500X-0.475000X0.337500X-0.475000X-0.337500X0*%
%ADD21RoundRect,0.250000X-0.475000X0.337500X-0.475000X-0.337500X0.475000X-0.337500X0.475000X0.337500X0*%
%ADD22RoundRect,0.250000X-0.565685X-0.070711X-0.070711X-0.565685X0.565685X0.070711X0.070711X0.565685X0*%
%ADD23RoundRect,0.250000X-0.574524X-0.097227X-0.097227X-0.574524X0.574524X0.097227X0.097227X0.574524X0*%
%ADD24RoundRect,0.250000X0.989949X-0.141421X-0.141421X0.989949X-0.989949X0.141421X0.141421X-0.989949X0*%
%ADD25RoundRect,0.250000X-0.450000X0.350000X-0.450000X-0.350000X0.450000X-0.350000X0.450000X0.350000X0*%
%ADD26RoundRect,0.250000X-0.350000X-0.450000X0.350000X-0.450000X0.350000X0.450000X-0.350000X0.450000X0*%
%ADD27RoundRect,0.250000X0.097227X-0.574524X0.574524X-0.097227X-0.097227X0.574524X-0.574524X0.097227X0*%
G04 APERTURE END LIST*
D10*
%TO.C,D3*%
X167207500Y-141739998D03*
X167207500Y-138940000D03*
%TD*%
D11*
%TO.C,C4*%
X166327500Y-112610000D03*
X164860254Y-111142754D03*
%TD*%
D12*
%TO.C,U2*%
X138907333Y-113666688D03*
X139473018Y-114232373D03*
X140038704Y-114798059D03*
X140604389Y-115363744D03*
X141170074Y-115929430D03*
X141735760Y-116495115D03*
X142301445Y-117060801D03*
X142867131Y-117626486D03*
X143432816Y-118192171D03*
X143998502Y-118757857D03*
X144564187Y-119323542D03*
D13*
X146915317Y-119323542D03*
X147481002Y-118757857D03*
X148046688Y-118192171D03*
X148612373Y-117626486D03*
X149178059Y-117060801D03*
X149743744Y-116495115D03*
X150309430Y-115929430D03*
X150875115Y-115363744D03*
X151440800Y-114798059D03*
X152006486Y-114232373D03*
X152572171Y-113666688D03*
D12*
X152572171Y-111315558D03*
X152006486Y-110749873D03*
X151440800Y-110184187D03*
X150875115Y-109618502D03*
X150309430Y-109052816D03*
X149743744Y-108487131D03*
X149178059Y-107921445D03*
X148612373Y-107355760D03*
X148046688Y-106790075D03*
X147481002Y-106224389D03*
X146915317Y-105658704D03*
D13*
X144564187Y-105658704D03*
X143998502Y-106224389D03*
X143432816Y-106790075D03*
X142867131Y-107355760D03*
X142301445Y-107921445D03*
X141735760Y-108487131D03*
X141170074Y-109052816D03*
X140604389Y-109618502D03*
X140038704Y-110184187D03*
X139473018Y-110749873D03*
X138907333Y-111315558D03*
%TD*%
D14*
%TO.C,U1*%
X145592500Y-96397500D03*
X145592500Y-97627500D03*
D15*
X147867500Y-94150000D03*
X147217500Y-94150000D03*
X146567500Y-94150000D03*
X145917500Y-94150000D03*
X145267500Y-94150000D03*
X144617500Y-94150000D03*
X143967500Y-94150000D03*
X143317500Y-94150000D03*
X143317500Y-99875000D03*
X143967500Y-99875000D03*
X144617500Y-99875000D03*
X145267500Y-99875000D03*
X145917500Y-99875000D03*
X146567500Y-99875000D03*
X147217500Y-99875000D03*
X147867500Y-99875000D03*
%TD*%
D16*
%TO.C,R1*%
X163507500Y-131350000D03*
X161507500Y-131350000D03*
%TD*%
D17*
%TO.C,D5*%
X140197500Y-93820000D03*
X137397500Y-93820000D03*
%TD*%
D18*
%TO.C,R31*%
X148917500Y-134930000D03*
X148917500Y-132930000D03*
%TD*%
D19*
%TO.C,D12*%
X137347500Y-133910000D03*
X137347500Y-137910000D03*
%TD*%
D20*
%TO.C,C12*%
X149807500Y-96000000D03*
X149807500Y-93925000D03*
%TD*%
D21*
%TO.C,C13*%
X152117500Y-93935000D03*
X152117500Y-96010000D03*
%TD*%
D22*
%TO.C,R10*%
X160590393Y-124452893D03*
X162004607Y-125867107D03*
%TD*%
D10*
%TO.C,D4*%
X170137500Y-141759999D03*
X170137500Y-138960001D03*
%TD*%
D23*
%TO.C,C3*%
X153787500Y-108967500D03*
X155254746Y-110434746D03*
%TD*%
D24*
%TO.C,Y1*%
X164188059Y-114751371D03*
X160016129Y-110579441D03*
X158106941Y-112488629D03*
X162278871Y-116660559D03*
%TD*%
D22*
%TO.C,R11*%
X162300393Y-122812893D03*
X163714607Y-124227107D03*
%TD*%
D25*
%TO.C,R2*%
X146867500Y-132930000D03*
X146867500Y-134930000D03*
%TD*%
D23*
%TO.C,C5*%
X156003877Y-114586377D03*
X157471123Y-116053623D03*
%TD*%
%TO.C,C15*%
X150357500Y-119500000D03*
X151824746Y-120967246D03*
%TD*%
D18*
%TO.C,R3*%
X144877500Y-134930000D03*
X144877500Y-132930000D03*
%TD*%
D26*
%TO.C,R12*%
X137437500Y-96420000D03*
X139437500Y-96420000D03*
%TD*%
D11*
%TO.C,C2*%
X137161123Y-115231123D03*
X135693877Y-113763877D03*
%TD*%
D27*
%TO.C,C1*%
X137211123Y-109591123D03*
X138678369Y-108123877D03*
%TD*%
D18*
%TO.C,R32*%
X142827500Y-134930000D03*
X142827500Y-132930000D03*
%TD*%
M02*
