%TF.GenerationSoftware,KiCad,Pcbnew,9.0.5*%
%TF.CreationDate,2026-01-13T05:22:19+02:00*%
%TF.ProjectId,SMB-100-A,534d422d-3130-4302-9d41-2e6b69636164,1.0*%
%TF.SameCoordinates,Original*%
%TF.FileFunction,Legend,Top*%
%TF.FilePolarity,Positive*%
%FSLAX46Y46*%
G04 Gerber Fmt 4.6, Leading zero omitted, Abs format (unit mm)*
G04 Created by KiCad (PCBNEW 9.0.5) date 2026-01-13 05:22:19*
%MOMM*%
%LPD*%
G01*
G04 APERTURE LIST*
%ADD10C,0.200000*%
%ADD11C,0.300000*%
%ADD12C,0.120000*%
%ADD13C,0.000000*%
G04 APERTURE END LIST*
D10*
X144909673Y-79366266D02*
X145671578Y-79366266D01*
X145290625Y-79747219D02*
X145290625Y-78985314D01*
X146623958Y-78747219D02*
X146147768Y-78747219D01*
X146147768Y-78747219D02*
X146100149Y-79223409D01*
X146100149Y-79223409D02*
X146147768Y-79175790D01*
X146147768Y-79175790D02*
X146243006Y-79128171D01*
X146243006Y-79128171D02*
X146481101Y-79128171D01*
X146481101Y-79128171D02*
X146576339Y-79175790D01*
X146576339Y-79175790D02*
X146623958Y-79223409D01*
X146623958Y-79223409D02*
X146671577Y-79318647D01*
X146671577Y-79318647D02*
X146671577Y-79556742D01*
X146671577Y-79556742D02*
X146623958Y-79651980D01*
X146623958Y-79651980D02*
X146576339Y-79699600D01*
X146576339Y-79699600D02*
X146481101Y-79747219D01*
X146481101Y-79747219D02*
X146243006Y-79747219D01*
X146243006Y-79747219D02*
X146147768Y-79699600D01*
X146147768Y-79699600D02*
X146100149Y-79651980D01*
X146957292Y-78747219D02*
X147290625Y-79747219D01*
X147290625Y-79747219D02*
X147623958Y-78747219D01*
D11*
X144378345Y-65688457D02*
X143692631Y-65688457D01*
X144035488Y-64488457D02*
X144035488Y-65688457D01*
X143292630Y-64488457D02*
X143292630Y-65688457D01*
X142778345Y-64488457D02*
X142778345Y-65117028D01*
X142778345Y-65117028D02*
X142835487Y-65231314D01*
X142835487Y-65231314D02*
X142949773Y-65288457D01*
X142949773Y-65288457D02*
X143121202Y-65288457D01*
X143121202Y-65288457D02*
X143235487Y-65231314D01*
X143235487Y-65231314D02*
X143292630Y-65174171D01*
X141749773Y-64545600D02*
X141864059Y-64488457D01*
X141864059Y-64488457D02*
X142092631Y-64488457D01*
X142092631Y-64488457D02*
X142206916Y-64545600D01*
X142206916Y-64545600D02*
X142264059Y-64659885D01*
X142264059Y-64659885D02*
X142264059Y-65117028D01*
X142264059Y-65117028D02*
X142206916Y-65231314D01*
X142206916Y-65231314D02*
X142092631Y-65288457D01*
X142092631Y-65288457D02*
X141864059Y-65288457D01*
X141864059Y-65288457D02*
X141749773Y-65231314D01*
X141749773Y-65231314D02*
X141692631Y-65117028D01*
X141692631Y-65117028D02*
X141692631Y-65002742D01*
X141692631Y-65002742D02*
X142264059Y-64888457D01*
X140321202Y-64831314D02*
X139749774Y-64831314D01*
X140435488Y-64488457D02*
X140035488Y-65688457D01*
X140035488Y-65688457D02*
X139635488Y-64488457D01*
X139235488Y-64488457D02*
X139235488Y-65288457D01*
X139235488Y-65059885D02*
X139178345Y-65174171D01*
X139178345Y-65174171D02*
X139121203Y-65231314D01*
X139121203Y-65231314D02*
X139006917Y-65288457D01*
X139006917Y-65288457D02*
X138892631Y-65288457D01*
X138492631Y-64488457D02*
X138492631Y-65288457D01*
X138492631Y-65059885D02*
X138435488Y-65174171D01*
X138435488Y-65174171D02*
X138378346Y-65231314D01*
X138378346Y-65231314D02*
X138264060Y-65288457D01*
X138264060Y-65288457D02*
X138149774Y-65288457D01*
X137578346Y-64488457D02*
X137692631Y-64545600D01*
X137692631Y-64545600D02*
X137749774Y-64602742D01*
X137749774Y-64602742D02*
X137806917Y-64717028D01*
X137806917Y-64717028D02*
X137806917Y-65059885D01*
X137806917Y-65059885D02*
X137749774Y-65174171D01*
X137749774Y-65174171D02*
X137692631Y-65231314D01*
X137692631Y-65231314D02*
X137578346Y-65288457D01*
X137578346Y-65288457D02*
X137406917Y-65288457D01*
X137406917Y-65288457D02*
X137292631Y-65231314D01*
X137292631Y-65231314D02*
X137235489Y-65174171D01*
X137235489Y-65174171D02*
X137178346Y-65059885D01*
X137178346Y-65059885D02*
X137178346Y-64717028D01*
X137178346Y-64717028D02*
X137235489Y-64602742D01*
X137235489Y-64602742D02*
X137292631Y-64545600D01*
X137292631Y-64545600D02*
X137406917Y-64488457D01*
X137406917Y-64488457D02*
X137578346Y-64488457D01*
X136778346Y-65288457D02*
X136549775Y-64488457D01*
X136549775Y-64488457D02*
X136321203Y-65059885D01*
X136321203Y-65059885D02*
X136092632Y-64488457D01*
X136092632Y-64488457D02*
X135864060Y-65288457D01*
D10*
X132082054Y-79461504D02*
X132558244Y-79461504D01*
X131986816Y-79747219D02*
X132320149Y-78747219D01*
X132320149Y-78747219D02*
X132653482Y-79747219D01*
X132891578Y-78747219D02*
X133510625Y-78747219D01*
X133510625Y-78747219D02*
X133177292Y-79128171D01*
X133177292Y-79128171D02*
X133320149Y-79128171D01*
X133320149Y-79128171D02*
X133415387Y-79175790D01*
X133415387Y-79175790D02*
X133463006Y-79223409D01*
X133463006Y-79223409D02*
X133510625Y-79318647D01*
X133510625Y-79318647D02*
X133510625Y-79556742D01*
X133510625Y-79556742D02*
X133463006Y-79651980D01*
X133463006Y-79651980D02*
X133415387Y-79699600D01*
X133415387Y-79699600D02*
X133320149Y-79747219D01*
X133320149Y-79747219D02*
X133034435Y-79747219D01*
X133034435Y-79747219D02*
X132939197Y-79699600D01*
X132939197Y-79699600D02*
X132891578Y-79651980D01*
X139802054Y-79451504D02*
X140278244Y-79451504D01*
X139706816Y-79737219D02*
X140040149Y-78737219D01*
X140040149Y-78737219D02*
X140373482Y-79737219D01*
X140897292Y-78737219D02*
X140992530Y-78737219D01*
X140992530Y-78737219D02*
X141087768Y-78784838D01*
X141087768Y-78784838D02*
X141135387Y-78832457D01*
X141135387Y-78832457D02*
X141183006Y-78927695D01*
X141183006Y-78927695D02*
X141230625Y-79118171D01*
X141230625Y-79118171D02*
X141230625Y-79356266D01*
X141230625Y-79356266D02*
X141183006Y-79546742D01*
X141183006Y-79546742D02*
X141135387Y-79641980D01*
X141135387Y-79641980D02*
X141087768Y-79689600D01*
X141087768Y-79689600D02*
X140992530Y-79737219D01*
X140992530Y-79737219D02*
X140897292Y-79737219D01*
X140897292Y-79737219D02*
X140802054Y-79689600D01*
X140802054Y-79689600D02*
X140754435Y-79641980D01*
X140754435Y-79641980D02*
X140706816Y-79546742D01*
X140706816Y-79546742D02*
X140659197Y-79356266D01*
X140659197Y-79356266D02*
X140659197Y-79118171D01*
X140659197Y-79118171D02*
X140706816Y-78927695D01*
X140706816Y-78927695D02*
X140754435Y-78832457D01*
X140754435Y-78832457D02*
X140802054Y-78784838D01*
X140802054Y-78784838D02*
X140897292Y-78737219D01*
X137232054Y-79451504D02*
X137708244Y-79451504D01*
X137136816Y-79737219D02*
X137470149Y-78737219D01*
X137470149Y-78737219D02*
X137803482Y-79737219D01*
X138660625Y-79737219D02*
X138089197Y-79737219D01*
X138374911Y-79737219D02*
X138374911Y-78737219D01*
X138374911Y-78737219D02*
X138279673Y-78880076D01*
X138279673Y-78880076D02*
X138184435Y-78975314D01*
X138184435Y-78975314D02*
X138089197Y-79022933D01*
X129622054Y-79461504D02*
X130098244Y-79461504D01*
X129526816Y-79747219D02*
X129860149Y-78747219D01*
X129860149Y-78747219D02*
X130193482Y-79747219D01*
X130955387Y-79080552D02*
X130955387Y-79747219D01*
X130717292Y-78699600D02*
X130479197Y-79413885D01*
X130479197Y-79413885D02*
X131098244Y-79413885D01*
X134652054Y-79461504D02*
X135128244Y-79461504D01*
X134556816Y-79747219D02*
X134890149Y-78747219D01*
X134890149Y-78747219D02*
X135223482Y-79747219D01*
X135509197Y-78842457D02*
X135556816Y-78794838D01*
X135556816Y-78794838D02*
X135652054Y-78747219D01*
X135652054Y-78747219D02*
X135890149Y-78747219D01*
X135890149Y-78747219D02*
X135985387Y-78794838D01*
X135985387Y-78794838D02*
X136033006Y-78842457D01*
X136033006Y-78842457D02*
X136080625Y-78937695D01*
X136080625Y-78937695D02*
X136080625Y-79032933D01*
X136080625Y-79032933D02*
X136033006Y-79175790D01*
X136033006Y-79175790D02*
X135461578Y-79747219D01*
X135461578Y-79747219D02*
X136080625Y-79747219D01*
X149143482Y-78794838D02*
X149048244Y-78747219D01*
X149048244Y-78747219D02*
X148905387Y-78747219D01*
X148905387Y-78747219D02*
X148762530Y-78794838D01*
X148762530Y-78794838D02*
X148667292Y-78890076D01*
X148667292Y-78890076D02*
X148619673Y-78985314D01*
X148619673Y-78985314D02*
X148572054Y-79175790D01*
X148572054Y-79175790D02*
X148572054Y-79318647D01*
X148572054Y-79318647D02*
X148619673Y-79509123D01*
X148619673Y-79509123D02*
X148667292Y-79604361D01*
X148667292Y-79604361D02*
X148762530Y-79699600D01*
X148762530Y-79699600D02*
X148905387Y-79747219D01*
X148905387Y-79747219D02*
X149000625Y-79747219D01*
X149000625Y-79747219D02*
X149143482Y-79699600D01*
X149143482Y-79699600D02*
X149191101Y-79651980D01*
X149191101Y-79651980D02*
X149191101Y-79318647D01*
X149191101Y-79318647D02*
X149000625Y-79318647D01*
X149619673Y-79747219D02*
X149619673Y-78747219D01*
X149619673Y-78747219D02*
X150191101Y-79747219D01*
X150191101Y-79747219D02*
X150191101Y-78747219D01*
X150667292Y-79747219D02*
X150667292Y-78747219D01*
X150667292Y-78747219D02*
X150905387Y-78747219D01*
X150905387Y-78747219D02*
X151048244Y-78794838D01*
X151048244Y-78794838D02*
X151143482Y-78890076D01*
X151143482Y-78890076D02*
X151191101Y-78985314D01*
X151191101Y-78985314D02*
X151238720Y-79175790D01*
X151238720Y-79175790D02*
X151238720Y-79318647D01*
X151238720Y-79318647D02*
X151191101Y-79509123D01*
X151191101Y-79509123D02*
X151143482Y-79604361D01*
X151143482Y-79604361D02*
X151048244Y-79699600D01*
X151048244Y-79699600D02*
X150905387Y-79747219D01*
X150905387Y-79747219D02*
X150667292Y-79747219D01*
D11*
X148788570Y-62498457D02*
X149188570Y-63069885D01*
X149474284Y-62498457D02*
X149474284Y-63698457D01*
X149474284Y-63698457D02*
X149017141Y-63698457D01*
X149017141Y-63698457D02*
X148902856Y-63641314D01*
X148902856Y-63641314D02*
X148845713Y-63584171D01*
X148845713Y-63584171D02*
X148788570Y-63469885D01*
X148788570Y-63469885D02*
X148788570Y-63298457D01*
X148788570Y-63298457D02*
X148845713Y-63184171D01*
X148845713Y-63184171D02*
X148902856Y-63127028D01*
X148902856Y-63127028D02*
X149017141Y-63069885D01*
X149017141Y-63069885D02*
X149474284Y-63069885D01*
X147759999Y-63298457D02*
X147759999Y-62498457D01*
X148274284Y-63298457D02*
X148274284Y-62669885D01*
X148274284Y-62669885D02*
X148217141Y-62555600D01*
X148217141Y-62555600D02*
X148102856Y-62498457D01*
X148102856Y-62498457D02*
X147931427Y-62498457D01*
X147931427Y-62498457D02*
X147817141Y-62555600D01*
X147817141Y-62555600D02*
X147759999Y-62612742D01*
X148274284Y-63641314D02*
X147702856Y-63641314D01*
X146674285Y-62498457D02*
X146674285Y-63698457D01*
X146674285Y-62555600D02*
X146788570Y-62498457D01*
X146788570Y-62498457D02*
X147017142Y-62498457D01*
X147017142Y-62498457D02*
X147131427Y-62555600D01*
X147131427Y-62555600D02*
X147188570Y-62612742D01*
X147188570Y-62612742D02*
X147245713Y-62727028D01*
X147245713Y-62727028D02*
X147245713Y-63069885D01*
X147245713Y-63069885D02*
X147188570Y-63184171D01*
X147188570Y-63184171D02*
X147131427Y-63241314D01*
X147131427Y-63241314D02*
X147017142Y-63298457D01*
X147017142Y-63298457D02*
X146788570Y-63298457D01*
X146788570Y-63298457D02*
X146674285Y-63241314D01*
X145931428Y-62498457D02*
X146045713Y-62555600D01*
X146045713Y-62555600D02*
X146102856Y-62612742D01*
X146102856Y-62612742D02*
X146159999Y-62727028D01*
X146159999Y-62727028D02*
X146159999Y-63069885D01*
X146159999Y-63069885D02*
X146102856Y-63184171D01*
X146102856Y-63184171D02*
X146045713Y-63241314D01*
X146045713Y-63241314D02*
X145931428Y-63298457D01*
X145931428Y-63298457D02*
X145759999Y-63298457D01*
X145759999Y-63298457D02*
X145645713Y-63241314D01*
X145645713Y-63241314D02*
X145588571Y-63184171D01*
X145588571Y-63184171D02*
X145531428Y-63069885D01*
X145531428Y-63069885D02*
X145531428Y-62727028D01*
X145531428Y-62727028D02*
X145588571Y-62612742D01*
X145588571Y-62612742D02*
X145645713Y-62555600D01*
X145645713Y-62555600D02*
X145759999Y-62498457D01*
X145759999Y-62498457D02*
X145931428Y-62498457D01*
X144845714Y-62498457D02*
X144959999Y-62555600D01*
X144959999Y-62555600D02*
X145017142Y-62669885D01*
X145017142Y-62669885D02*
X145017142Y-63698457D01*
X144560000Y-63298457D02*
X144102857Y-63298457D01*
X144388571Y-62498457D02*
X144388571Y-63527028D01*
X144388571Y-63527028D02*
X144331428Y-63641314D01*
X144331428Y-63641314D02*
X144217143Y-63698457D01*
X144217143Y-63698457D02*
X144102857Y-63698457D01*
X143760000Y-62555600D02*
X143645714Y-62498457D01*
X143645714Y-62498457D02*
X143417143Y-62498457D01*
X143417143Y-62498457D02*
X143302857Y-62555600D01*
X143302857Y-62555600D02*
X143245714Y-62669885D01*
X143245714Y-62669885D02*
X143245714Y-62727028D01*
X143245714Y-62727028D02*
X143302857Y-62841314D01*
X143302857Y-62841314D02*
X143417143Y-62898457D01*
X143417143Y-62898457D02*
X143588572Y-62898457D01*
X143588572Y-62898457D02*
X143702857Y-62955600D01*
X143702857Y-62955600D02*
X143760000Y-63069885D01*
X143760000Y-63069885D02*
X143760000Y-63127028D01*
X143760000Y-63127028D02*
X143702857Y-63241314D01*
X143702857Y-63241314D02*
X143588572Y-63298457D01*
X143588572Y-63298457D02*
X143417143Y-63298457D01*
X143417143Y-63298457D02*
X143302857Y-63241314D01*
X141817142Y-62498457D02*
X141817142Y-63698457D01*
X141817142Y-63698457D02*
X141359999Y-63698457D01*
X141359999Y-63698457D02*
X141245714Y-63641314D01*
X141245714Y-63641314D02*
X141188571Y-63584171D01*
X141188571Y-63584171D02*
X141131428Y-63469885D01*
X141131428Y-63469885D02*
X141131428Y-63298457D01*
X141131428Y-63298457D02*
X141188571Y-63184171D01*
X141188571Y-63184171D02*
X141245714Y-63127028D01*
X141245714Y-63127028D02*
X141359999Y-63069885D01*
X141359999Y-63069885D02*
X141817142Y-63069885D01*
X140102857Y-62498457D02*
X140102857Y-63127028D01*
X140102857Y-63127028D02*
X140159999Y-63241314D01*
X140159999Y-63241314D02*
X140274285Y-63298457D01*
X140274285Y-63298457D02*
X140502857Y-63298457D01*
X140502857Y-63298457D02*
X140617142Y-63241314D01*
X140102857Y-62555600D02*
X140217142Y-62498457D01*
X140217142Y-62498457D02*
X140502857Y-62498457D01*
X140502857Y-62498457D02*
X140617142Y-62555600D01*
X140617142Y-62555600D02*
X140674285Y-62669885D01*
X140674285Y-62669885D02*
X140674285Y-62784171D01*
X140674285Y-62784171D02*
X140617142Y-62898457D01*
X140617142Y-62898457D02*
X140502857Y-62955600D01*
X140502857Y-62955600D02*
X140217142Y-62955600D01*
X140217142Y-62955600D02*
X140102857Y-63012742D01*
X139531428Y-62498457D02*
X139531428Y-63698457D01*
X139417143Y-62955600D02*
X139074285Y-62498457D01*
X139074285Y-63298457D02*
X139531428Y-62841314D01*
X138045714Y-62498457D02*
X138045714Y-63127028D01*
X138045714Y-63127028D02*
X138102856Y-63241314D01*
X138102856Y-63241314D02*
X138217142Y-63298457D01*
X138217142Y-63298457D02*
X138445714Y-63298457D01*
X138445714Y-63298457D02*
X138559999Y-63241314D01*
X138045714Y-62555600D02*
X138159999Y-62498457D01*
X138159999Y-62498457D02*
X138445714Y-62498457D01*
X138445714Y-62498457D02*
X138559999Y-62555600D01*
X138559999Y-62555600D02*
X138617142Y-62669885D01*
X138617142Y-62669885D02*
X138617142Y-62784171D01*
X138617142Y-62784171D02*
X138559999Y-62898457D01*
X138559999Y-62898457D02*
X138445714Y-62955600D01*
X138445714Y-62955600D02*
X138159999Y-62955600D01*
X138159999Y-62955600D02*
X138045714Y-63012742D01*
X137302857Y-62498457D02*
X137417142Y-62555600D01*
X137417142Y-62555600D02*
X137474285Y-62669885D01*
X137474285Y-62669885D02*
X137474285Y-63698457D01*
X136845714Y-63298457D02*
X136845714Y-62498457D01*
X136845714Y-63184171D02*
X136788571Y-63241314D01*
X136788571Y-63241314D02*
X136674286Y-63298457D01*
X136674286Y-63298457D02*
X136502857Y-63298457D01*
X136502857Y-63298457D02*
X136388571Y-63241314D01*
X136388571Y-63241314D02*
X136331429Y-63127028D01*
X136331429Y-63127028D02*
X136331429Y-62498457D01*
X135817143Y-62555600D02*
X135702857Y-62498457D01*
X135702857Y-62498457D02*
X135474286Y-62498457D01*
X135474286Y-62498457D02*
X135360000Y-62555600D01*
X135360000Y-62555600D02*
X135302857Y-62669885D01*
X135302857Y-62669885D02*
X135302857Y-62727028D01*
X135302857Y-62727028D02*
X135360000Y-62841314D01*
X135360000Y-62841314D02*
X135474286Y-62898457D01*
X135474286Y-62898457D02*
X135645715Y-62898457D01*
X135645715Y-62898457D02*
X135760000Y-62955600D01*
X135760000Y-62955600D02*
X135817143Y-63069885D01*
X135817143Y-63069885D02*
X135817143Y-63127028D01*
X135817143Y-63127028D02*
X135760000Y-63241314D01*
X135760000Y-63241314D02*
X135645715Y-63298457D01*
X135645715Y-63298457D02*
X135474286Y-63298457D01*
X135474286Y-63298457D02*
X135360000Y-63241314D01*
X133988571Y-63698457D02*
X133245714Y-63698457D01*
X133245714Y-63698457D02*
X133645714Y-63241314D01*
X133645714Y-63241314D02*
X133474285Y-63241314D01*
X133474285Y-63241314D02*
X133360000Y-63184171D01*
X133360000Y-63184171D02*
X133302857Y-63127028D01*
X133302857Y-63127028D02*
X133245714Y-63012742D01*
X133245714Y-63012742D02*
X133245714Y-62727028D01*
X133245714Y-62727028D02*
X133302857Y-62612742D01*
X133302857Y-62612742D02*
X133360000Y-62555600D01*
X133360000Y-62555600D02*
X133474285Y-62498457D01*
X133474285Y-62498457D02*
X133817142Y-62498457D01*
X133817142Y-62498457D02*
X133931428Y-62555600D01*
X133931428Y-62555600D02*
X133988571Y-62612742D01*
X132731428Y-63127028D02*
X132331428Y-63127028D01*
X132160000Y-62498457D02*
X132731428Y-62498457D01*
X132731428Y-62498457D02*
X132731428Y-63698457D01*
X132731428Y-63698457D02*
X132160000Y-63698457D01*
X131645714Y-62498457D02*
X131645714Y-63698457D01*
X130674285Y-63127028D02*
X130502857Y-63069885D01*
X130502857Y-63069885D02*
X130445714Y-63012742D01*
X130445714Y-63012742D02*
X130388571Y-62898457D01*
X130388571Y-62898457D02*
X130388571Y-62727028D01*
X130388571Y-62727028D02*
X130445714Y-62612742D01*
X130445714Y-62612742D02*
X130502857Y-62555600D01*
X130502857Y-62555600D02*
X130617142Y-62498457D01*
X130617142Y-62498457D02*
X131074285Y-62498457D01*
X131074285Y-62498457D02*
X131074285Y-63698457D01*
X131074285Y-63698457D02*
X130674285Y-63698457D01*
X130674285Y-63698457D02*
X130560000Y-63641314D01*
X130560000Y-63641314D02*
X130502857Y-63584171D01*
X130502857Y-63584171D02*
X130445714Y-63469885D01*
X130445714Y-63469885D02*
X130445714Y-63355600D01*
X130445714Y-63355600D02*
X130502857Y-63241314D01*
X130502857Y-63241314D02*
X130560000Y-63184171D01*
X130560000Y-63184171D02*
X130674285Y-63127028D01*
X130674285Y-63127028D02*
X131074285Y-63127028D01*
X142017142Y-61652238D02*
X141959999Y-61709381D01*
X141959999Y-61709381D02*
X141845714Y-61766524D01*
X141845714Y-61766524D02*
X141559999Y-61766524D01*
X141559999Y-61766524D02*
X141445714Y-61709381D01*
X141445714Y-61709381D02*
X141388571Y-61652238D01*
X141388571Y-61652238D02*
X141331428Y-61537952D01*
X141331428Y-61537952D02*
X141331428Y-61423667D01*
X141331428Y-61423667D02*
X141388571Y-61252238D01*
X141388571Y-61252238D02*
X142074285Y-60566524D01*
X142074285Y-60566524D02*
X141331428Y-60566524D01*
X140588571Y-61766524D02*
X140474285Y-61766524D01*
X140474285Y-61766524D02*
X140359999Y-61709381D01*
X140359999Y-61709381D02*
X140302857Y-61652238D01*
X140302857Y-61652238D02*
X140245714Y-61537952D01*
X140245714Y-61537952D02*
X140188571Y-61309381D01*
X140188571Y-61309381D02*
X140188571Y-61023667D01*
X140188571Y-61023667D02*
X140245714Y-60795095D01*
X140245714Y-60795095D02*
X140302857Y-60680809D01*
X140302857Y-60680809D02*
X140359999Y-60623667D01*
X140359999Y-60623667D02*
X140474285Y-60566524D01*
X140474285Y-60566524D02*
X140588571Y-60566524D01*
X140588571Y-60566524D02*
X140702857Y-60623667D01*
X140702857Y-60623667D02*
X140759999Y-60680809D01*
X140759999Y-60680809D02*
X140817142Y-60795095D01*
X140817142Y-60795095D02*
X140874285Y-61023667D01*
X140874285Y-61023667D02*
X140874285Y-61309381D01*
X140874285Y-61309381D02*
X140817142Y-61537952D01*
X140817142Y-61537952D02*
X140759999Y-61652238D01*
X140759999Y-61652238D02*
X140702857Y-61709381D01*
X140702857Y-61709381D02*
X140588571Y-61766524D01*
X139731428Y-61652238D02*
X139674285Y-61709381D01*
X139674285Y-61709381D02*
X139560000Y-61766524D01*
X139560000Y-61766524D02*
X139274285Y-61766524D01*
X139274285Y-61766524D02*
X139160000Y-61709381D01*
X139160000Y-61709381D02*
X139102857Y-61652238D01*
X139102857Y-61652238D02*
X139045714Y-61537952D01*
X139045714Y-61537952D02*
X139045714Y-61423667D01*
X139045714Y-61423667D02*
X139102857Y-61252238D01*
X139102857Y-61252238D02*
X139788571Y-60566524D01*
X139788571Y-60566524D02*
X139045714Y-60566524D01*
X137960000Y-61766524D02*
X138531428Y-61766524D01*
X138531428Y-61766524D02*
X138588571Y-61195095D01*
X138588571Y-61195095D02*
X138531428Y-61252238D01*
X138531428Y-61252238D02*
X138417143Y-61309381D01*
X138417143Y-61309381D02*
X138131428Y-61309381D01*
X138131428Y-61309381D02*
X138017143Y-61252238D01*
X138017143Y-61252238D02*
X137960000Y-61195095D01*
X137960000Y-61195095D02*
X137902857Y-61080809D01*
X137902857Y-61080809D02*
X137902857Y-60795095D01*
X137902857Y-60795095D02*
X137960000Y-60680809D01*
X137960000Y-60680809D02*
X138017143Y-60623667D01*
X138017143Y-60623667D02*
X138131428Y-60566524D01*
X138131428Y-60566524D02*
X138417143Y-60566524D01*
X138417143Y-60566524D02*
X138531428Y-60623667D01*
X138531428Y-60623667D02*
X138588571Y-60680809D01*
D12*
%TO.C,R9*%
X162715000Y-42282936D02*
X162715000Y-42737064D01*
X164185000Y-42282936D02*
X164185000Y-42737064D01*
%TO.C,D2*%
X117315000Y-37865000D02*
X117315000Y-40135000D01*
X117315000Y-40135000D02*
X121200000Y-40135000D01*
X121200000Y-37865000D02*
X117315000Y-37865000D01*
%TO.C,RV2*%
X129350000Y-43975000D02*
X129350000Y-44575000D01*
X129350000Y-47175000D02*
X129350000Y-46575000D01*
X132250000Y-43975000D02*
X129350000Y-43975000D01*
X132250000Y-47175000D02*
X129350000Y-47175000D01*
X133150000Y-47375000D02*
X133850000Y-47375000D01*
X133350000Y-45775000D02*
X133350000Y-45375000D01*
X133850000Y-47375000D02*
X133850000Y-46675000D01*
%TO.C,R14*%
X155657064Y-38275000D02*
X155202936Y-38275000D01*
X155657064Y-39745000D02*
X155202936Y-39745000D01*
%TO.C,D5*%
X137815000Y-35465000D02*
X137815000Y-37735000D01*
X137815000Y-37735000D02*
X141700000Y-37735000D01*
X141700000Y-35465000D02*
X137815000Y-35465000D01*
%TO.C,RV5*%
X138200000Y-53400000D02*
X138200000Y-54100000D01*
X138200000Y-54100000D02*
X138900000Y-54100000D01*
X138400000Y-49600000D02*
X139000000Y-49600000D01*
X138400000Y-52500000D02*
X138400000Y-49600000D01*
X139800000Y-53600000D02*
X140200000Y-53600000D01*
X141600000Y-49600000D02*
X141000000Y-49600000D01*
X141600000Y-52500000D02*
X141600000Y-49600000D01*
%TO.C,U7*%
X175600000Y-53157500D02*
X174800000Y-53157500D01*
X175600000Y-53157500D02*
X176400000Y-53157500D01*
X176600000Y-49937500D02*
X174800000Y-49937500D01*
X177140000Y-53437500D02*
X176660000Y-53437500D01*
X176900000Y-53107500D01*
X177140000Y-53437500D01*
G36*
X177140000Y-53437500D02*
G01*
X176660000Y-53437500D01*
X176900000Y-53107500D01*
X177140000Y-53437500D01*
G37*
%TO.C,R3*%
X119872936Y-47065000D02*
X120327064Y-47065000D01*
X119872936Y-48535000D02*
X120327064Y-48535000D01*
%TO.C,D4*%
X158840000Y-40065000D02*
X162725000Y-40065000D01*
X162725000Y-37795000D02*
X158840000Y-37795000D01*
X162725000Y-40065000D02*
X162725000Y-37795000D01*
%TO.C,R4*%
X107347936Y-42415000D02*
X107802064Y-42415000D01*
X107347936Y-43885000D02*
X107802064Y-43885000D01*
%TO.C,R1*%
X99282936Y-54335000D02*
X99737064Y-54335000D01*
X99282936Y-55805000D02*
X99737064Y-55805000D01*
%TO.C,R5*%
X124247936Y-38565000D02*
X124702064Y-38565000D01*
X124247936Y-40035000D02*
X124702064Y-40035000D01*
%TO.C,R11*%
X183295000Y-49272936D02*
X183295000Y-49727064D01*
X184765000Y-49272936D02*
X184765000Y-49727064D01*
%TO.C,J2*%
X144440000Y-71990000D02*
X144440000Y-77960000D01*
X144440000Y-77960000D02*
X152060000Y-77960000D01*
X144450000Y-75700000D02*
X145200000Y-75700000D01*
X144450000Y-77200000D02*
X144450000Y-77950000D01*
X144450000Y-77950000D02*
X146250000Y-77950000D01*
X145200000Y-72750000D02*
X148250000Y-72750000D01*
X145200000Y-75700000D02*
X145200000Y-72750000D01*
X146250000Y-77200000D02*
X144450000Y-77200000D01*
X146250000Y-77950000D02*
X146250000Y-77200000D01*
X147750000Y-77200000D02*
X147750000Y-77950000D01*
X147750000Y-77950000D02*
X148750000Y-77950000D01*
X148750000Y-77200000D02*
X147750000Y-77200000D01*
X148750000Y-77950000D02*
X148750000Y-77200000D01*
X150250000Y-77200000D02*
X150250000Y-77950000D01*
X150250000Y-77950000D02*
X152050000Y-77950000D01*
X151100000Y-78250000D02*
X152350000Y-78250000D01*
X151300000Y-72750000D02*
X148250000Y-72750000D01*
X151300000Y-75700000D02*
X151300000Y-72750000D01*
X152050000Y-75700000D02*
X151300000Y-75700000D01*
X152050000Y-77200000D02*
X150250000Y-77200000D01*
X152050000Y-77950000D02*
X152050000Y-77200000D01*
X152060000Y-71990000D02*
X144440000Y-71990000D01*
X152060000Y-77960000D02*
X152060000Y-71990000D01*
X152350000Y-78250000D02*
X152350000Y-77000000D01*
%TO.C,J1*%
X127940000Y-71990000D02*
X127940000Y-77960000D01*
X127940000Y-77960000D02*
X143060000Y-77960000D01*
X127950000Y-75700000D02*
X128700000Y-75700000D01*
X127950000Y-77200000D02*
X127950000Y-77950000D01*
X127950000Y-77950000D02*
X129750000Y-77950000D01*
X128700000Y-72750000D02*
X135500000Y-72750000D01*
X128700000Y-75700000D02*
X128700000Y-72750000D01*
X129750000Y-77200000D02*
X127950000Y-77200000D01*
X129750000Y-77950000D02*
X129750000Y-77200000D01*
X131250000Y-77200000D02*
X131250000Y-77950000D01*
X131250000Y-77950000D02*
X139750000Y-77950000D01*
X139750000Y-77200000D02*
X131250000Y-77200000D01*
X139750000Y-77950000D02*
X139750000Y-77200000D01*
X141250000Y-77200000D02*
X141250000Y-77950000D01*
X141250000Y-77950000D02*
X143050000Y-77950000D01*
X142100000Y-78250000D02*
X143350000Y-78250000D01*
X142300000Y-72750000D02*
X135500000Y-72750000D01*
X142300000Y-75700000D02*
X142300000Y-72750000D01*
X143050000Y-75700000D02*
X142300000Y-75700000D01*
X143050000Y-77200000D02*
X141250000Y-77200000D01*
X143050000Y-77950000D02*
X143050000Y-77200000D01*
X143060000Y-71990000D02*
X127940000Y-71990000D01*
X143060000Y-77960000D02*
X143060000Y-71990000D01*
X143350000Y-78250000D02*
X143350000Y-77000000D01*
%TO.C,RV1*%
X111075000Y-50450000D02*
X111075000Y-51050000D01*
X111075000Y-53650000D02*
X111075000Y-53050000D01*
X113975000Y-50450000D02*
X111075000Y-50450000D01*
X113975000Y-53650000D02*
X111075000Y-53650000D01*
X114875000Y-53850000D02*
X115575000Y-53850000D01*
X115075000Y-52250000D02*
X115075000Y-51850000D01*
X115575000Y-53850000D02*
X115575000Y-53150000D01*
%TO.C,U5*%
X123900000Y-44060000D02*
X125700000Y-44060000D01*
X124900000Y-40840000D02*
X124100000Y-40840000D01*
X124900000Y-40840000D02*
X125700000Y-40840000D01*
X123600000Y-40890000D02*
X123360000Y-40560000D01*
X123840000Y-40560000D01*
X123600000Y-40890000D01*
G36*
X123600000Y-40890000D02*
G01*
X123360000Y-40560000D01*
X123840000Y-40560000D01*
X123600000Y-40890000D01*
G37*
%TO.C,R7*%
X144272936Y-37265000D02*
X144727064Y-37265000D01*
X144272936Y-38735000D02*
X144727064Y-38735000D01*
%TO.C,RV3*%
X164425000Y-50250000D02*
X164425000Y-50950000D01*
X164925000Y-51850000D02*
X164925000Y-52250000D01*
X165125000Y-50250000D02*
X164425000Y-50250000D01*
X166025000Y-50450000D02*
X168925000Y-50450000D01*
X166025000Y-53650000D02*
X168925000Y-53650000D01*
X168925000Y-50450000D02*
X168925000Y-51050000D01*
X168925000Y-53650000D02*
X168925000Y-53050000D01*
%TO.C,R2*%
X103542936Y-45165000D02*
X103997064Y-45165000D01*
X103542936Y-46635000D02*
X103997064Y-46635000D01*
%TO.C,U2*%
X103240000Y-51062500D02*
X105040000Y-51062500D01*
X104240000Y-47842500D02*
X103440000Y-47842500D01*
X104240000Y-47842500D02*
X105040000Y-47842500D01*
X102940000Y-47892500D02*
X102700000Y-47562500D01*
X103180000Y-47562500D01*
X102940000Y-47892500D01*
G36*
X102940000Y-47892500D02*
G01*
X102700000Y-47562500D01*
X103180000Y-47562500D01*
X102940000Y-47892500D01*
G37*
%TO.C,RV4*%
X146250000Y-43775000D02*
X146250000Y-44475000D01*
X146750000Y-45375000D02*
X146750000Y-45775000D01*
X146950000Y-43775000D02*
X146250000Y-43775000D01*
X147850000Y-43975000D02*
X150750000Y-43975000D01*
X147850000Y-47175000D02*
X150750000Y-47175000D01*
X150750000Y-43975000D02*
X150750000Y-44575000D01*
X150750000Y-47175000D02*
X150750000Y-46575000D01*
%TO.C,R12*%
X176477064Y-45185000D02*
X176022936Y-45185000D01*
X176477064Y-46655000D02*
X176022936Y-46655000D01*
%TO.C,R15*%
X148372936Y-36165000D02*
X148827064Y-36165000D01*
X148372936Y-37635000D02*
X148827064Y-37635000D01*
%TO.C,R8*%
X128747936Y-36590000D02*
X129202064Y-36590000D01*
X128747936Y-38060000D02*
X129202064Y-38060000D01*
%TO.C,U9*%
X155020000Y-46160000D02*
X154220000Y-46160000D01*
X155020000Y-46160000D02*
X155820000Y-46160000D01*
X156020000Y-42940000D02*
X154220000Y-42940000D01*
X156560000Y-46440000D02*
X156080000Y-46440000D01*
X156320000Y-46110000D01*
X156560000Y-46440000D01*
G36*
X156560000Y-46440000D02*
G01*
X156080000Y-46440000D01*
X156320000Y-46110000D01*
X156560000Y-46440000D01*
G37*
%TO.C,R6*%
X139872936Y-44765000D02*
X140327064Y-44765000D01*
X139872936Y-46235000D02*
X140327064Y-46235000D01*
%TO.C,D3*%
X179430000Y-47055000D02*
X183315000Y-47055000D01*
X183315000Y-44785000D02*
X179430000Y-44785000D01*
X183315000Y-47055000D02*
X183315000Y-44785000D01*
%TO.C,U10*%
X143600000Y-42610000D02*
X145400000Y-42610000D01*
X144600000Y-39390000D02*
X143800000Y-39390000D01*
X144600000Y-39390000D02*
X145400000Y-39390000D01*
X143300000Y-39440000D02*
X143060000Y-39110000D01*
X143540000Y-39110000D01*
X143300000Y-39440000D01*
G36*
X143300000Y-39440000D02*
G01*
X143060000Y-39110000D01*
X143540000Y-39110000D01*
X143300000Y-39440000D01*
G37*
%TO.C,R10*%
X154997064Y-47195000D02*
X154542936Y-47195000D01*
X154997064Y-48665000D02*
X154542936Y-48665000D01*
D13*
%TO.C,G\u002A\u002A\u002A*%
G36*
X144459429Y-67447657D02*
G01*
X144459429Y-68158857D01*
X144227200Y-68158857D01*
X143994971Y-68158858D01*
X143994971Y-67447656D01*
X143994971Y-66736458D01*
X144227199Y-66736458D01*
X144459429Y-66736457D01*
X144459429Y-67447657D01*
G37*
G36*
X129974170Y-67447657D02*
G01*
X129974171Y-68158857D01*
X129741942Y-68158856D01*
X129509714Y-68158857D01*
X129509714Y-67592800D01*
X129509715Y-67026743D01*
X129262971Y-67026743D01*
X129016227Y-67026743D01*
X129016228Y-66881600D01*
X129016228Y-66736457D01*
X129495199Y-66736457D01*
X129974170Y-66736457D01*
X129974170Y-67447657D01*
G37*
G36*
X143733714Y-67447658D02*
G01*
X143733714Y-68158857D01*
X143486971Y-68158856D01*
X143240228Y-68158857D01*
X143240228Y-67592801D01*
X143240228Y-67026743D01*
X143007998Y-67026743D01*
X142775769Y-67026743D01*
X142775771Y-66881600D01*
X142775771Y-66736457D01*
X143254742Y-66736457D01*
X143733714Y-66736456D01*
X143733714Y-67447658D01*
G37*
G36*
X134996114Y-66736457D02*
G01*
X134996116Y-67302516D01*
X134996114Y-67868572D01*
X135126742Y-67868571D01*
X135257371Y-67868572D01*
X135257370Y-68013715D01*
X135257371Y-68158857D01*
X134749371Y-68158857D01*
X134241371Y-68158856D01*
X134241372Y-68013715D01*
X134241371Y-67868572D01*
X134371999Y-67868572D01*
X134502629Y-67868572D01*
X134502628Y-67302515D01*
X134502628Y-66736457D01*
X134749371Y-66736456D01*
X134996114Y-66736457D01*
G37*
G36*
X148029942Y-67302516D02*
G01*
X148029941Y-67868572D01*
X148160571Y-67868572D01*
X148291199Y-67868572D01*
X148291198Y-68013716D01*
X148291200Y-68158857D01*
X147783199Y-68158857D01*
X147275199Y-68158857D01*
X147275199Y-68013715D01*
X147275200Y-67868572D01*
X147405828Y-67868572D01*
X147536456Y-67868572D01*
X147536456Y-67302514D01*
X147536456Y-66736457D01*
X147783200Y-66736457D01*
X148029942Y-66736457D01*
X148029942Y-67302516D01*
G37*
G36*
X148935001Y-67004972D02*
G01*
X148944695Y-67150088D01*
X148961615Y-67258940D01*
X148990564Y-67353269D01*
X149032807Y-67447657D01*
X149118514Y-67621828D01*
X149126527Y-67179141D01*
X149134540Y-66736458D01*
X149366013Y-66736457D01*
X149597485Y-66736457D01*
X149597485Y-67447657D01*
X149597485Y-68158857D01*
X149380333Y-68158857D01*
X149163183Y-68158857D01*
X149053762Y-68011939D01*
X148944343Y-67865018D01*
X148935568Y-68011938D01*
X148926794Y-68158857D01*
X148681568Y-68158857D01*
X148436342Y-68158857D01*
X148436342Y-67447657D01*
X148436342Y-66736457D01*
X148679622Y-66736457D01*
X148922903Y-66736457D01*
X148935001Y-67004972D01*
G37*
G36*
X150758628Y-67447657D02*
G01*
X150758628Y-68158857D01*
X150294172Y-68158857D01*
X149829714Y-68158857D01*
X149829715Y-68013715D01*
X149829714Y-67868572D01*
X150061941Y-67868572D01*
X150294171Y-67868572D01*
X150294170Y-67766972D01*
X150294171Y-67665372D01*
X150061941Y-67665372D01*
X149829714Y-67665372D01*
X149829714Y-67520229D01*
X149829714Y-67375086D01*
X150061942Y-67375086D01*
X150294171Y-67375086D01*
X150294170Y-67200915D01*
X150294171Y-67026743D01*
X150047427Y-67026743D01*
X149800685Y-67026743D01*
X149800684Y-66881600D01*
X149800685Y-66736457D01*
X150279656Y-66736457D01*
X150758628Y-66736457D01*
X150758628Y-67447657D01*
G37*
G36*
X151867692Y-66829767D02*
G01*
X151968151Y-66986428D01*
X152041327Y-67160601D01*
X152089730Y-67362172D01*
X152115875Y-67601027D01*
X152122468Y-67832286D01*
X152122971Y-68158857D01*
X151878778Y-68158857D01*
X151634586Y-68158857D01*
X151623210Y-67701658D01*
X151615102Y-67486215D01*
X151602866Y-67319804D01*
X151586805Y-67205698D01*
X151572870Y-67157371D01*
X151533905Y-67070285D01*
X151496840Y-67186400D01*
X151480729Y-67269254D01*
X151468315Y-67400159D01*
X151460315Y-67569195D01*
X151457545Y-67730686D01*
X151455314Y-68158857D01*
X151208571Y-68158857D01*
X150961827Y-68158857D01*
X150961828Y-67808989D01*
X150969824Y-67544831D01*
X150995214Y-67327119D01*
X151040100Y-67146294D01*
X151106587Y-66992793D01*
X151160533Y-66905785D01*
X151268595Y-66750972D01*
X151531892Y-66742681D01*
X151795188Y-66734391D01*
X151867692Y-66829767D01*
G37*
G36*
X138826407Y-66737794D02*
G01*
X138984820Y-66756652D01*
X139110961Y-66793750D01*
X139112006Y-66794221D01*
X139177526Y-66828157D01*
X139227847Y-66868105D01*
X139264944Y-66921741D01*
X139290798Y-66996737D01*
X139307384Y-67100765D01*
X139316684Y-67241505D01*
X139320672Y-67426627D01*
X139321371Y-67606382D01*
X139321372Y-68158858D01*
X139074628Y-68158857D01*
X138827885Y-68158857D01*
X138827885Y-67590873D01*
X138827885Y-67022887D01*
X138748056Y-67032072D01*
X138668228Y-67041257D01*
X138660344Y-67600057D01*
X138652460Y-68158857D01*
X138406345Y-68158857D01*
X138160228Y-68158857D01*
X138160228Y-67604445D01*
X138161589Y-67379365D01*
X138167037Y-67204597D01*
X138178616Y-67072429D01*
X138198367Y-66975151D01*
X138228339Y-66905054D01*
X138270571Y-66854427D01*
X138327109Y-66815560D01*
X138375740Y-66791470D01*
X138500047Y-66755120D01*
X138657543Y-66737256D01*
X138826407Y-66737794D01*
G37*
G36*
X145765715Y-67447657D02*
G01*
X145765714Y-67752457D01*
X145765715Y-68158857D01*
X145439142Y-68158689D01*
X145208219Y-68154830D01*
X145027513Y-68142570D01*
X144889611Y-68120487D01*
X144787092Y-68087162D01*
X144712541Y-68041171D01*
X144684399Y-68014054D01*
X144639805Y-67957164D01*
X144615645Y-67898357D01*
X144605948Y-67816843D01*
X144605114Y-67767927D01*
X145071918Y-67767927D01*
X145106542Y-67824105D01*
X145181773Y-67858768D01*
X145209841Y-67863154D01*
X145267709Y-67865448D01*
X145293909Y-67846707D01*
X145300976Y-67791745D01*
X145301256Y-67752456D01*
X145298613Y-67676886D01*
X145282322Y-67644178D01*
X145239843Y-67639143D01*
X145209840Y-67641761D01*
X145135290Y-67663423D01*
X145086618Y-67701657D01*
X145071918Y-67767927D01*
X144605114Y-67767927D01*
X144604571Y-67736099D01*
X144607509Y-67627981D01*
X144619864Y-67559062D01*
X144646945Y-67510627D01*
X144677555Y-67478846D01*
X144751318Y-67426861D01*
X144845784Y-67394443D01*
X144974152Y-67378365D01*
X145101685Y-67375086D01*
X145272228Y-67375086D01*
X145272229Y-67055772D01*
X145272228Y-66736458D01*
X145518971Y-66736457D01*
X145765714Y-66736456D01*
X145765715Y-67447657D01*
G37*
G36*
X131817485Y-66736457D02*
G01*
X132064229Y-66736457D01*
X132064228Y-66877638D01*
X132069786Y-66991833D01*
X132084437Y-67113891D01*
X132105148Y-67226960D01*
X132128885Y-67314192D01*
X132150515Y-67356870D01*
X132193873Y-67364294D01*
X132222655Y-67347079D01*
X132244543Y-67315130D01*
X132258335Y-67256159D01*
X132265481Y-67159700D01*
X132267428Y-67023189D01*
X132267428Y-66736457D01*
X132499657Y-66736457D01*
X132731885Y-66736456D01*
X132731885Y-67447657D01*
X132731885Y-68158857D01*
X132499656Y-68158857D01*
X132267427Y-68158856D01*
X132267428Y-67895887D01*
X132264421Y-67760833D01*
X132255598Y-67678038D01*
X132241270Y-67650047D01*
X132237986Y-67651114D01*
X132195305Y-67700318D01*
X132149595Y-67787990D01*
X132108838Y-67895597D01*
X132081031Y-68004605D01*
X132078211Y-68021653D01*
X132057636Y-68158857D01*
X131810448Y-68158857D01*
X131563264Y-68158857D01*
X131583076Y-68009504D01*
X131605874Y-67901840D01*
X131642748Y-67791215D01*
X131686253Y-67695834D01*
X131728945Y-67633903D01*
X131740451Y-67624587D01*
X131742991Y-67592243D01*
X131722417Y-67525845D01*
X131697775Y-67470218D01*
X131653175Y-67350939D01*
X131614459Y-67195532D01*
X131585960Y-67025897D01*
X131572009Y-66863942D01*
X131571317Y-66830800D01*
X131570743Y-66736455D01*
X131817485Y-66736457D01*
G37*
G36*
X140685715Y-66736457D02*
G01*
X140685138Y-66975942D01*
X140668377Y-67308131D01*
X140659640Y-67359142D01*
X140619794Y-67591805D01*
X140539374Y-67827030D01*
X140427102Y-68013859D01*
X140407448Y-68037790D01*
X140303817Y-68158857D01*
X140088662Y-68158857D01*
X139873506Y-68158857D01*
X139772446Y-68006457D01*
X139684328Y-67858151D01*
X139620131Y-67709427D01*
X139575980Y-67545985D01*
X139551372Y-67376746D01*
X140018056Y-67376746D01*
X140024192Y-67470619D01*
X140040031Y-67571549D01*
X140061719Y-67663105D01*
X140085400Y-67728857D01*
X140106183Y-67752458D01*
X140125481Y-67726346D01*
X140147325Y-67659023D01*
X140168099Y-67567007D01*
X140184189Y-67466818D01*
X140191983Y-67374972D01*
X140192228Y-67359143D01*
X140187194Y-67291511D01*
X140161832Y-67264024D01*
X140105142Y-67258972D01*
X140049580Y-67263454D01*
X140024684Y-67287921D01*
X140018226Y-67348906D01*
X140018056Y-67376746D01*
X139551372Y-67376746D01*
X139547996Y-67353524D01*
X139532441Y-67121086D01*
X139516337Y-66736457D01*
X139767197Y-66736456D01*
X140018056Y-66736457D01*
X140018056Y-66852572D01*
X140021494Y-66927025D01*
X140040131Y-66960123D01*
X140086442Y-66968503D01*
X140105142Y-66968686D01*
X140160982Y-66964101D01*
X140185805Y-66939253D01*
X140192091Y-66877505D01*
X140192228Y-66852572D01*
X140192228Y-66736457D01*
X140438971Y-66736456D01*
X140685715Y-66736457D01*
G37*
G36*
X128898808Y-67570130D02*
G01*
X128845814Y-67748272D01*
X128770315Y-67907434D01*
X128709468Y-68003919D01*
X128602757Y-68158857D01*
X128394009Y-68158857D01*
X128281832Y-68156759D01*
X128209868Y-68147138D01*
X128160330Y-68125005D01*
X128115430Y-68085374D01*
X128109341Y-68079029D01*
X127996394Y-67922807D01*
X127906920Y-67719560D01*
X127842894Y-67476193D01*
X127827403Y-67359143D01*
X128290514Y-67359143D01*
X128296225Y-67447360D01*
X128310955Y-67547204D01*
X128331084Y-67642162D01*
X128353003Y-67715712D01*
X128373096Y-67751337D01*
X128376559Y-67752457D01*
X128398579Y-67726298D01*
X128422251Y-67658774D01*
X128443727Y-67566313D01*
X128459149Y-67465344D01*
X128464685Y-67376746D01*
X128461372Y-67301606D01*
X128443279Y-67267935D01*
X128398185Y-67259202D01*
X128377599Y-67258971D01*
X128318803Y-67264762D01*
X128294906Y-67293935D01*
X128290514Y-67359143D01*
X127827403Y-67359143D01*
X127806289Y-67199612D01*
X127798041Y-66990458D01*
X127797028Y-66736457D01*
X128043771Y-66736457D01*
X128290513Y-66736458D01*
X128290514Y-66852572D01*
X128293953Y-66927025D01*
X128312587Y-66960123D01*
X128358899Y-66968504D01*
X128377599Y-66968686D01*
X128433440Y-66964101D01*
X128458263Y-66939253D01*
X128464548Y-66877505D01*
X128464686Y-66852572D01*
X128464685Y-66736457D01*
X128715281Y-66736456D01*
X128965877Y-66736458D01*
X128950820Y-67106572D01*
X128932682Y-67360424D01*
X128930045Y-67376746D01*
X128898808Y-67570130D01*
G37*
G36*
X131394595Y-67358555D02*
G01*
X131387574Y-67601326D01*
X131371026Y-67790955D01*
X131340739Y-67931201D01*
X131288944Y-68029266D01*
X131207867Y-68092350D01*
X131089735Y-68127658D01*
X130926776Y-68142386D01*
X130801485Y-68144343D01*
X130630840Y-68140880D01*
X130506204Y-68127814D01*
X130415799Y-68101128D01*
X130347845Y-68056801D01*
X130290567Y-67990819D01*
X130272118Y-67963788D01*
X130251772Y-67924437D01*
X130237496Y-67872056D01*
X130228294Y-67796566D01*
X130223162Y-67687888D01*
X130221105Y-67535943D01*
X130220914Y-67447658D01*
X130714399Y-67447658D01*
X130714399Y-67854058D01*
X130801485Y-67854057D01*
X130888571Y-67854057D01*
X130896739Y-67478221D01*
X130898684Y-67333674D01*
X130898142Y-67208413D01*
X130895322Y-67114806D01*
X130890436Y-67065225D01*
X130889646Y-67062620D01*
X130850694Y-67034629D01*
X130794394Y-67032056D01*
X130714400Y-67041257D01*
X130714399Y-67447658D01*
X130220914Y-67447658D01*
X130220914Y-67447657D01*
X130222563Y-67256765D01*
X130229327Y-67114077D01*
X130243934Y-67009791D01*
X130269107Y-66934102D01*
X130307576Y-66877207D01*
X130362066Y-66829304D01*
X130400193Y-66803013D01*
X130468506Y-66778067D01*
X130577985Y-66759051D01*
X130711969Y-66746798D01*
X130853790Y-66742145D01*
X130986785Y-66745920D01*
X131094286Y-66758960D01*
X131125650Y-66766721D01*
X131225610Y-66814670D01*
X131300874Y-66892696D01*
X131353052Y-67005931D01*
X131383756Y-67159507D01*
X131393241Y-67333674D01*
X131394595Y-67358555D01*
G37*
G36*
X136180226Y-66747717D02*
G01*
X136273304Y-66763457D01*
X136275066Y-66763984D01*
X136410896Y-66824747D01*
X136501160Y-66914340D01*
X136550471Y-67039499D01*
X136563655Y-67185468D01*
X136563656Y-67317028D01*
X136318504Y-67317029D01*
X136073352Y-67317030D01*
X136064504Y-67179143D01*
X136055772Y-67094822D01*
X136037509Y-67052337D01*
X136000324Y-67035468D01*
X135979535Y-67032430D01*
X135910370Y-67044133D01*
X135880085Y-67091420D01*
X135894190Y-67162368D01*
X135908173Y-67186902D01*
X135951146Y-67229895D01*
X136031020Y-67291212D01*
X136134091Y-67360732D01*
X136191860Y-67396494D01*
X136363044Y-67510904D01*
X136479869Y-67617926D01*
X136544843Y-67721807D01*
X136560484Y-67826797D01*
X136529310Y-67937145D01*
X136521391Y-67953185D01*
X136451041Y-68038703D01*
X136338746Y-68099701D01*
X136180071Y-68137895D01*
X136002339Y-68153845D01*
X135791310Y-68150987D01*
X135629337Y-68120844D01*
X135513221Y-68061439D01*
X135439770Y-67970800D01*
X135405788Y-67846943D01*
X135402514Y-67782928D01*
X135402514Y-67665371D01*
X135614225Y-67665372D01*
X135825936Y-67665372D01*
X135853709Y-67759715D01*
X135882066Y-67825814D01*
X135926799Y-67851211D01*
X135968571Y-67854057D01*
X136037474Y-67843688D01*
X136053599Y-67813842D01*
X136018145Y-67766413D01*
X135932312Y-67703295D01*
X135837942Y-67648077D01*
X135720069Y-67578323D01*
X135607479Y-67502603D01*
X135521711Y-67435558D01*
X135511371Y-67426099D01*
X135450871Y-67364614D01*
X135418279Y-67311747D01*
X135405019Y-67245243D01*
X135402514Y-67143617D01*
X135405824Y-67038387D01*
X135420179Y-66969912D01*
X135452214Y-66917061D01*
X135484630Y-66882104D01*
X135570122Y-66818317D01*
X135669837Y-66771613D01*
X135680573Y-66768385D01*
X135780493Y-66751000D01*
X135911775Y-66741651D01*
X136052367Y-66740502D01*
X136180226Y-66747717D01*
G37*
G36*
X146749779Y-66746618D02*
G01*
X146858882Y-66761070D01*
X146884222Y-66767288D01*
X147014448Y-66831805D01*
X147103688Y-66936965D01*
X147151086Y-67081456D01*
X147159086Y-67188290D01*
X147159085Y-67317029D01*
X146912342Y-67317028D01*
X146665598Y-67317028D01*
X146665155Y-67208172D01*
X146658595Y-67125924D01*
X146643074Y-67065969D01*
X146640100Y-67060489D01*
X146593371Y-67032140D01*
X146530718Y-67036493D01*
X146479979Y-67068106D01*
X146467408Y-67094217D01*
X146471524Y-67143331D01*
X146506360Y-67196848D01*
X146577772Y-67260246D01*
X146691612Y-67339002D01*
X146803268Y-67408367D01*
X146948516Y-67502158D01*
X147047545Y-67583178D01*
X147107910Y-67660540D01*
X147137168Y-67743358D01*
X147143250Y-67818459D01*
X147116747Y-67936300D01*
X147039645Y-68031297D01*
X146915565Y-68101379D01*
X146748117Y-68144474D01*
X146549485Y-68158534D01*
X146337088Y-68143930D01*
X146174177Y-68100197D01*
X146082882Y-68046843D01*
X146040114Y-67995422D01*
X146015152Y-67916654D01*
X146004393Y-67829851D01*
X145990753Y-67665372D01*
X146212062Y-67665372D01*
X146324019Y-67666402D01*
X146390022Y-67671926D01*
X146422167Y-67685593D01*
X146432552Y-67711053D01*
X146433371Y-67732137D01*
X146447710Y-67800378D01*
X146468206Y-67833738D01*
X146522532Y-67861226D01*
X146590330Y-67867139D01*
X146642340Y-67850163D01*
X146649639Y-67841883D01*
X146648155Y-67806027D01*
X146603627Y-67757556D01*
X146512514Y-67693583D01*
X146371278Y-67611215D01*
X146358558Y-67604211D01*
X146248236Y-67538099D01*
X146149690Y-67469279D01*
X146081139Y-67410688D01*
X146072361Y-67401016D01*
X145997750Y-67272906D01*
X145974824Y-67137528D01*
X146000277Y-67006228D01*
X146070804Y-66890359D01*
X146183100Y-66801271D01*
X146256273Y-66769507D01*
X146346058Y-66751827D01*
X146472289Y-66742070D01*
X146613888Y-66740309D01*
X146749779Y-66746618D01*
G37*
G36*
X133741827Y-66747717D02*
G01*
X133834904Y-66763457D01*
X133836666Y-66763983D01*
X133974193Y-66824193D01*
X134064440Y-66911041D01*
X134112875Y-67032228D01*
X134125256Y-67170445D01*
X134125256Y-67317029D01*
X133880104Y-67317029D01*
X133634953Y-67317029D01*
X133626104Y-67179143D01*
X133617372Y-67094822D01*
X133599109Y-67052337D01*
X133561924Y-67035468D01*
X133541137Y-67032430D01*
X133472002Y-67043984D01*
X133441938Y-67091146D01*
X133456079Y-67162416D01*
X133471180Y-67189050D01*
X133516900Y-67235558D01*
X133597752Y-67297419D01*
X133697704Y-67362560D01*
X133716276Y-67373580D01*
X133873304Y-67469868D01*
X133984407Y-67550183D01*
X134057027Y-67621400D01*
X134098612Y-67690397D01*
X134113076Y-67740177D01*
X134111239Y-67873598D01*
X134055526Y-67989833D01*
X133956006Y-68077701D01*
X133887807Y-68111816D01*
X133805714Y-68133993D01*
X133693507Y-68147557D01*
X133585291Y-68153850D01*
X133376450Y-68152906D01*
X133216552Y-68127670D01*
X133100617Y-68075367D01*
X133023667Y-67993224D01*
X132980718Y-67878466D01*
X132970764Y-67811462D01*
X132956727Y-67665372D01*
X133172132Y-67665372D01*
X133387536Y-67665372D01*
X133415311Y-67759715D01*
X133443666Y-67825814D01*
X133488400Y-67851210D01*
X133530171Y-67854056D01*
X133599074Y-67843688D01*
X133615199Y-67813842D01*
X133579745Y-67766414D01*
X133493913Y-67703295D01*
X133399542Y-67648077D01*
X133281669Y-67578323D01*
X133169079Y-67502603D01*
X133083311Y-67435558D01*
X133072970Y-67426097D01*
X133012471Y-67364614D01*
X132979879Y-67311746D01*
X132966619Y-67245242D01*
X132964114Y-67143617D01*
X132967423Y-67038387D01*
X132981779Y-66969912D01*
X133013814Y-66917062D01*
X133046230Y-66882104D01*
X133131722Y-66818318D01*
X133231437Y-66771612D01*
X133242173Y-66768386D01*
X133342094Y-66751000D01*
X133473375Y-66741651D01*
X133613967Y-66740502D01*
X133741827Y-66747717D01*
G37*
G36*
X142303662Y-66747658D02*
G01*
X142396537Y-66762940D01*
X142400095Y-66763983D01*
X142537622Y-66824192D01*
X142627869Y-66911040D01*
X142676304Y-67032228D01*
X142688685Y-67170445D01*
X142688685Y-67317030D01*
X142443534Y-67317027D01*
X142198380Y-67317030D01*
X142189534Y-67179143D01*
X142180800Y-67094822D01*
X142162537Y-67052337D01*
X142125352Y-67035468D01*
X142104565Y-67032429D01*
X142035431Y-67043983D01*
X142005367Y-67091145D01*
X142019508Y-67162416D01*
X142034609Y-67189050D01*
X142079870Y-67234809D01*
X142160816Y-67296460D01*
X142261959Y-67362468D01*
X142289267Y-67378696D01*
X142465267Y-67490348D01*
X142588465Y-67592026D01*
X142662091Y-67688981D01*
X142689366Y-67786457D01*
X142673520Y-67889702D01*
X142644650Y-67956607D01*
X142581726Y-68039241D01*
X142486914Y-68097251D01*
X142352161Y-68133941D01*
X142169413Y-68152612D01*
X142166171Y-68152777D01*
X141952667Y-68152817D01*
X141788035Y-68127371D01*
X141667900Y-68074074D01*
X141587876Y-67990560D01*
X141543585Y-67874462D01*
X141534193Y-67811462D01*
X141520156Y-67665372D01*
X141735560Y-67665372D01*
X141950964Y-67665372D01*
X141978739Y-67759715D01*
X142020458Y-67831060D01*
X142082990Y-67867549D01*
X142148551Y-67861580D01*
X142174094Y-67843231D01*
X142188891Y-67812832D01*
X142171250Y-67776882D01*
X142115747Y-67730643D01*
X142016955Y-67669370D01*
X141903037Y-67606306D01*
X141788192Y-67539225D01*
X141685272Y-67469790D01*
X141611310Y-67409809D01*
X141594992Y-67392734D01*
X141554572Y-67337693D01*
X141534249Y-67282450D01*
X141529393Y-67206397D01*
X141533412Y-67118625D01*
X141543908Y-67009708D01*
X141562734Y-66939795D01*
X141596643Y-66889855D01*
X141623558Y-66864526D01*
X141707064Y-66810068D01*
X141803939Y-66768935D01*
X141810619Y-66766998D01*
X141907975Y-66750319D01*
X142037312Y-66741460D01*
X142176564Y-66740535D01*
X142303662Y-66747658D01*
G37*
G36*
X136877164Y-66736458D02*
G01*
X136956925Y-66743881D01*
X137012023Y-66762182D01*
X137017582Y-66766565D01*
X137067648Y-66781824D01*
X137126876Y-66766565D01*
X137208327Y-66749469D01*
X137325799Y-66740978D01*
X137457903Y-66741055D01*
X137583249Y-66749668D01*
X137680446Y-66766780D01*
X137682856Y-66767468D01*
X137766067Y-66807668D01*
X137842147Y-66868316D01*
X137842513Y-66868706D01*
X137869034Y-66899375D01*
X137888169Y-66932632D01*
X137901333Y-66978220D01*
X137909929Y-67045883D01*
X137915371Y-67145360D01*
X137919066Y-67286400D01*
X137921346Y-67413627D01*
X137923444Y-67608575D01*
X137920903Y-67754969D01*
X137911634Y-67862257D01*
X137893554Y-67939888D01*
X137864577Y-67997307D01*
X137822615Y-68043963D01*
X137773471Y-68083488D01*
X137730130Y-68110663D01*
X137679151Y-68128406D01*
X137607654Y-68138648D01*
X137502757Y-68143315D01*
X137367071Y-68144344D01*
X137210698Y-68142286D01*
X137099248Y-68135026D01*
X137019698Y-68120932D01*
X136959025Y-68098375D01*
X136945998Y-68091615D01*
X136851533Y-68008679D01*
X136789506Y-67887253D01*
X136766861Y-67741004D01*
X136766856Y-67738876D01*
X136766856Y-67636342D01*
X137011847Y-67636344D01*
X137256838Y-67636343D01*
X137265847Y-67745200D01*
X137278035Y-67818775D01*
X137306828Y-67852466D01*
X137350891Y-67862877D01*
X137394857Y-67861787D01*
X137425714Y-67841192D01*
X137445717Y-67792931D01*
X137457117Y-67708849D01*
X137462171Y-67580789D01*
X137463145Y-67456804D01*
X137459927Y-67283663D01*
X137448223Y-67161374D01*
X137425813Y-67083076D01*
X137390470Y-67041901D01*
X137339976Y-67030986D01*
X137325642Y-67032074D01*
X137278738Y-67042143D01*
X137253631Y-67068718D01*
X137241830Y-67127281D01*
X137237054Y-67193657D01*
X137234256Y-67282751D01*
X137242328Y-67328303D01*
X137265995Y-67344510D01*
X137287854Y-67346056D01*
X137325001Y-67354148D01*
X137342577Y-67388363D01*
X137347385Y-67463624D01*
X137347428Y-67476685D01*
X137347428Y-67607315D01*
X137057142Y-67607315D01*
X136766856Y-67607316D01*
X136766857Y-67171887D01*
X136766856Y-66736457D01*
X136877164Y-66736458D01*
G37*
G36*
X137972428Y-68594286D02*
G01*
X138025548Y-68746686D01*
X138123498Y-68964058D01*
X138264262Y-69187281D01*
X138436870Y-69400353D01*
X138557463Y-69522581D01*
X138821791Y-69731876D01*
X139108394Y-69890910D01*
X139411181Y-70000083D01*
X139724068Y-70059791D01*
X140040962Y-70070433D01*
X140355777Y-70032404D01*
X140662423Y-69946104D01*
X140954811Y-69811930D01*
X141226853Y-69630279D01*
X141472460Y-69401549D01*
X141536529Y-69328083D01*
X141606504Y-69233979D01*
X141682227Y-69115997D01*
X141756644Y-68987265D01*
X141822695Y-68860909D01*
X141873320Y-68750056D01*
X141901461Y-68667835D01*
X141904914Y-68642966D01*
X141907619Y-68636841D01*
X141917410Y-68631249D01*
X141936803Y-68626169D01*
X141968313Y-68621572D01*
X142014455Y-68617437D01*
X142077743Y-68613740D01*
X142160693Y-68610453D01*
X142265819Y-68607558D01*
X142395636Y-68605028D01*
X142552661Y-68602836D01*
X142739406Y-68600961D01*
X142958389Y-68599378D01*
X143212123Y-68598063D01*
X143503123Y-68596992D01*
X143833904Y-68596139D01*
X144206983Y-68595484D01*
X144624872Y-68594999D01*
X145090088Y-68594661D01*
X145605146Y-68594446D01*
X146172560Y-68594330D01*
X146794845Y-68594289D01*
X146970399Y-68594286D01*
X147508003Y-68594326D01*
X148029759Y-68594447D01*
X148532724Y-68594640D01*
X149013958Y-68594908D01*
X149470517Y-68595238D01*
X149899462Y-68595631D01*
X150297851Y-68596083D01*
X150662740Y-68596588D01*
X150991189Y-68597143D01*
X151280257Y-68597742D01*
X151527001Y-68598384D01*
X151728482Y-68599060D01*
X151881754Y-68599773D01*
X151983878Y-68600510D01*
X152031913Y-68601272D01*
X152035402Y-68601543D01*
X152027136Y-68630365D01*
X152004858Y-68704096D01*
X151971779Y-68812203D01*
X151931110Y-68944152D01*
X151922603Y-68971657D01*
X151810286Y-69334515D01*
X146970822Y-69341858D01*
X142131356Y-69349199D01*
X141952821Y-69504040D01*
X141615349Y-69772344D01*
X141284340Y-69986612D01*
X140961870Y-70145541D01*
X140880309Y-70177406D01*
X140806316Y-70210119D01*
X140766044Y-70238847D01*
X140764195Y-70251523D01*
X140800289Y-70263484D01*
X140884863Y-70281147D01*
X141008773Y-70303136D01*
X141162873Y-70328071D01*
X141338020Y-70354578D01*
X141525070Y-70381284D01*
X141714876Y-70406808D01*
X141898296Y-70429777D01*
X142066186Y-70448815D01*
X142095893Y-70451906D01*
X142319499Y-70471264D01*
X142576709Y-70487701D01*
X142853602Y-70500811D01*
X143136257Y-70510185D01*
X143410755Y-70515414D01*
X143663172Y-70516095D01*
X143879589Y-70511818D01*
X143980701Y-70507055D01*
X144212283Y-70489305D01*
X144455513Y-70463163D01*
X144718344Y-70427391D01*
X145008730Y-70380748D01*
X145334626Y-70321995D01*
X145703985Y-70249894D01*
X145939885Y-70201755D01*
X146365270Y-70114054D01*
X146738742Y-70037735D01*
X147065158Y-69972020D01*
X147349377Y-69916131D01*
X147596254Y-69869292D01*
X147810649Y-69830726D01*
X147997416Y-69799654D01*
X148161415Y-69775302D01*
X148307502Y-69756892D01*
X148440535Y-69743646D01*
X148565370Y-69734789D01*
X148686866Y-69729541D01*
X148809879Y-69727127D01*
X148909544Y-69726711D01*
X149344782Y-69741199D01*
X149794793Y-69782279D01*
X150242707Y-69847421D01*
X150671647Y-69934081D01*
X151064739Y-70039723D01*
X151131568Y-70060944D01*
X151260401Y-70104119D01*
X151371200Y-70143404D01*
X151450747Y-70173984D01*
X151483450Y-70189222D01*
X151496774Y-70206487D01*
X151499785Y-70240281D01*
X151490841Y-70298205D01*
X151468303Y-70387866D01*
X151430524Y-70516871D01*
X151375864Y-70692824D01*
X151372180Y-70704504D01*
X151320955Y-70864186D01*
X151274279Y-71004720D01*
X151235417Y-71116656D01*
X151207636Y-71190549D01*
X151195204Y-71216359D01*
X151162317Y-71212355D01*
X151095361Y-71180441D01*
X151007119Y-71127005D01*
X150980219Y-71108974D01*
X150688544Y-70935196D01*
X150353843Y-70781278D01*
X149989273Y-70652486D01*
X149607998Y-70554082D01*
X149576291Y-70547502D01*
X149490613Y-70531855D01*
X149399994Y-70519685D01*
X149296175Y-70510627D01*
X149170890Y-70504314D01*
X149015876Y-70500389D01*
X148822871Y-70498481D01*
X148583608Y-70498229D01*
X148465371Y-70498536D01*
X148184339Y-70500583D01*
X147929740Y-70505248D01*
X147692191Y-70513322D01*
X147462316Y-70525595D01*
X147230731Y-70542855D01*
X146988054Y-70565894D01*
X146724904Y-70595499D01*
X146431904Y-70632459D01*
X146099669Y-70677567D01*
X145751198Y-70726953D01*
X145506282Y-70761265D01*
X145259376Y-70794261D01*
X145021938Y-70824526D01*
X144805427Y-70850647D01*
X144621300Y-70871203D01*
X144481016Y-70884782D01*
X144460882Y-70886407D01*
X144001679Y-70910086D01*
X143503031Y-70914562D01*
X142977896Y-70900856D01*
X142439236Y-70869988D01*
X141900010Y-70822978D01*
X141373179Y-70760847D01*
X140871703Y-70684613D01*
X140408542Y-70595298D01*
X140223279Y-70552857D01*
X140103953Y-70525362D01*
X140006900Y-70505538D01*
X139945103Y-70495900D01*
X139930199Y-70496135D01*
X139886195Y-70510800D01*
X139794172Y-70532776D01*
X139663459Y-70560341D01*
X139503391Y-70591769D01*
X139323294Y-70625340D01*
X139132500Y-70659328D01*
X138940337Y-70692009D01*
X138756142Y-70721661D01*
X138589240Y-70746560D01*
X138530979Y-70754593D01*
X138121923Y-70805277D01*
X137738413Y-70843471D01*
X137361809Y-70870384D01*
X136973472Y-70887225D01*
X136554761Y-70895201D01*
X136345942Y-70896228D01*
X136094163Y-70895605D01*
X135871217Y-70892546D01*
X135666827Y-70886199D01*
X135470712Y-70875717D01*
X135272591Y-70860247D01*
X135062185Y-70838945D01*
X134829210Y-70810956D01*
X134563391Y-70775432D01*
X134254443Y-70731525D01*
X134125256Y-70712707D01*
X133752644Y-70659199D01*
X133427068Y-70614940D01*
X133138423Y-70578933D01*
X132876598Y-70550185D01*
X132631486Y-70527700D01*
X132392977Y-70510481D01*
X132150962Y-70497540D01*
X131895334Y-70487875D01*
X131817486Y-70485551D01*
X131463238Y-70478113D01*
X131157717Y-70478005D01*
X130891947Y-70486087D01*
X130656963Y-70503222D01*
X130443790Y-70530271D01*
X130243460Y-70568099D01*
X130046998Y-70617564D01*
X129864810Y-70673162D01*
X129686036Y-70739105D01*
X129489767Y-70823975D01*
X129292314Y-70919665D01*
X129109998Y-71018068D01*
X128959129Y-71111082D01*
X128903812Y-71150565D01*
X128822795Y-71206873D01*
X128759354Y-71240972D01*
X128727022Y-71245609D01*
X128726820Y-71245391D01*
X128708312Y-71206452D01*
X128678355Y-71123688D01*
X128640211Y-71008092D01*
X128597139Y-70870663D01*
X128552403Y-70722399D01*
X128509261Y-70574298D01*
X128470973Y-70437358D01*
X128440803Y-70322576D01*
X128422008Y-70240951D01*
X128417852Y-70203480D01*
X128417880Y-70203405D01*
X128449750Y-70180228D01*
X128525740Y-70145112D01*
X128634373Y-70102879D01*
X128760551Y-70059522D01*
X129289417Y-69914196D01*
X129853142Y-69808440D01*
X130442904Y-69743575D01*
X131017758Y-69721044D01*
X131217995Y-69722173D01*
X131406045Y-69728701D01*
X131591736Y-69741873D01*
X131784894Y-69762932D01*
X131995347Y-69793121D01*
X132232921Y-69833682D01*
X132507446Y-69885858D01*
X132818972Y-69948876D01*
X133264465Y-70040815D01*
X133657786Y-70121805D01*
X134003642Y-70192538D01*
X134306736Y-70253707D01*
X134571776Y-70306005D01*
X134803466Y-70350123D01*
X135006513Y-70386757D01*
X135185622Y-70416597D01*
X135345499Y-70440337D01*
X135490848Y-70458671D01*
X135626377Y-70472288D01*
X135756791Y-70481884D01*
X135886796Y-70488152D01*
X136021096Y-70491783D01*
X136164399Y-70493469D01*
X136321409Y-70493905D01*
X136496833Y-70493784D01*
X136520114Y-70493764D01*
X136903043Y-70490678D01*
X137245280Y-70481170D01*
X137563961Y-70463907D01*
X137876225Y-70437563D01*
X138199209Y-70400801D01*
X138550056Y-70352293D01*
X138766409Y-70319295D01*
X138967219Y-70286689D01*
X139113236Y-70260366D01*
X139203820Y-70240476D01*
X139238331Y-70227172D01*
X139216136Y-70220605D01*
X139187081Y-70219886D01*
X139140738Y-70207461D01*
X139054344Y-70173468D01*
X138939506Y-70122840D01*
X138807831Y-70060501D01*
X138783100Y-70048349D01*
X138572170Y-69935645D01*
X138362980Y-69808525D01*
X138168851Y-69676041D01*
X138003107Y-69547245D01*
X137886283Y-69438893D01*
X137801023Y-69349030D01*
X132959929Y-69349029D01*
X128118835Y-69349029D01*
X128028891Y-69051486D01*
X127988855Y-68919579D01*
X127952498Y-68800770D01*
X127924678Y-68710877D01*
X127913042Y-68674115D01*
X127887134Y-68594287D01*
X132929782Y-68594285D01*
X137972428Y-68594286D01*
G37*
D12*
%TO.C,D1*%
X96705000Y-44735000D02*
X96705000Y-47005000D01*
X96705000Y-47005000D02*
X100590000Y-47005000D01*
X100590000Y-44735000D02*
X96705000Y-44735000D01*
%TO.C,R13*%
X175577064Y-53925000D02*
X175122936Y-53925000D01*
X175577064Y-55395000D02*
X175122936Y-55395000D01*
%TD*%
M02*
