%TF.GenerationSoftware,KiCad,Pcbnew,9.0.5*%
%TF.CreationDate,2026-01-13T05:22:19+02:00*%
%TF.ProjectId,SMB-100-A,534d422d-3130-4302-9d41-2e6b69636164,1.0*%
%TF.SameCoordinates,Original*%
%TF.FileFunction,Soldermask,Top*%
%TF.FilePolarity,Negative*%
%FSLAX46Y46*%
G04 Gerber Fmt 4.6, Leading zero omitted, Abs format (unit mm)*
G04 Created by KiCad (PCBNEW 9.0.5) date 2026-01-13 05:22:19*
%MOMM*%
%LPD*%
G01*
G04 APERTURE LIST*
G04 Aperture macros list*
%AMRoundRect*
0 Rectangle with rounded corners*
0 $1 Rounding radius*
0 $2 $3 $4 $5 $6 $7 $8 $9 X,Y pos of 4 corners*
0 Add a 4 corners polygon primitive as box body*
4,1,4,$2,$3,$4,$5,$6,$7,$8,$9,$2,$3,0*
0 Add four circle primitives for the rounded corners*
1,1,$1+$1,$2,$3*
1,1,$1+$1,$4,$5*
1,1,$1+$1,$6,$7*
1,1,$1+$1,$8,$9*
0 Add four rect primitives between the rounded corners*
20,1,$1+$1,$2,$3,$4,$5,0*
20,1,$1+$1,$4,$5,$6,$7,0*
20,1,$1+$1,$6,$7,$8,$9,0*
20,1,$1+$1,$8,$9,$2,$3,0*%
G04 Aperture macros list end*
%ADD10RoundRect,0.250000X-0.450000X0.350000X-0.450000X-0.350000X0.450000X-0.350000X0.450000X0.350000X0*%
%ADD11RoundRect,0.250000X-0.375000X-0.625000X0.375000X-0.625000X0.375000X0.625000X-0.375000X0.625000X0*%
%ADD12R,1.200000X1.200000*%
%ADD13R,1.500000X1.600000*%
%ADD14RoundRect,0.250000X0.350000X0.450000X-0.350000X0.450000X-0.350000X-0.450000X0.350000X-0.450000X0*%
%ADD15R,1.600000X1.500000*%
%ADD16RoundRect,0.162500X0.617500X0.162500X-0.617500X0.162500X-0.617500X-0.162500X0.617500X-0.162500X0*%
%ADD17RoundRect,0.250000X-0.350000X-0.450000X0.350000X-0.450000X0.350000X0.450000X-0.350000X0.450000X0*%
%ADD18RoundRect,0.250000X0.375000X0.625000X-0.375000X0.625000X-0.375000X-0.625000X0.375000X-0.625000X0*%
%ADD19RoundRect,0.250000X0.600000X0.750000X-0.600000X0.750000X-0.600000X-0.750000X0.600000X-0.750000X0*%
%ADD20O,1.700000X2.000000*%
%ADD21RoundRect,0.250000X0.600000X0.725000X-0.600000X0.725000X-0.600000X-0.725000X0.600000X-0.725000X0*%
%ADD22O,1.700000X1.950000*%
%ADD23C,3.200000*%
%ADD24RoundRect,0.162500X-0.617500X-0.162500X0.617500X-0.162500X0.617500X0.162500X-0.617500X0.162500X0*%
%ADD25RoundRect,0.275000X0.275000X0.475000X-0.275000X0.475000X-0.275000X-0.475000X0.275000X-0.475000X0*%
%ADD26O,1.100000X1.500000*%
%ADD27RoundRect,0.275000X-0.275000X-0.475000X0.275000X-0.475000X0.275000X0.475000X-0.275000X0.475000X0*%
G04 APERTURE END LIST*
D10*
%TO.C,R9*%
X163450000Y-41510000D03*
X163450000Y-43510000D03*
%TD*%
D11*
%TO.C,D2*%
X118200000Y-39000000D03*
X121000000Y-39000000D03*
%TD*%
D12*
%TO.C,RV2*%
X133050000Y-46575000D03*
D13*
X129800000Y-45575000D03*
D12*
X133050000Y-44575000D03*
%TD*%
D14*
%TO.C,R14*%
X156430000Y-39010000D03*
X154430000Y-39010000D03*
%TD*%
D11*
%TO.C,D5*%
X138700000Y-36600000D03*
X141500000Y-36600000D03*
%TD*%
D12*
%TO.C,RV5*%
X139000000Y-53300000D03*
D15*
X140000000Y-50050000D03*
D12*
X141000000Y-53300000D03*
%TD*%
D16*
%TO.C,U7*%
X177050000Y-52497500D03*
X177050000Y-51547500D03*
X177050000Y-50597500D03*
X174350000Y-50597500D03*
X174350000Y-52497500D03*
%TD*%
D17*
%TO.C,R3*%
X119100000Y-47800000D03*
X121100000Y-47800000D03*
%TD*%
D18*
%TO.C,D4*%
X161840000Y-38930000D03*
X159040000Y-38930000D03*
%TD*%
D17*
%TO.C,R4*%
X106575000Y-43150000D03*
X108575000Y-43150000D03*
%TD*%
%TO.C,R1*%
X98510000Y-55070000D03*
X100510000Y-55070000D03*
%TD*%
%TO.C,R5*%
X123475000Y-39300000D03*
X125475000Y-39300000D03*
%TD*%
D10*
%TO.C,R11*%
X184030000Y-48500000D03*
X184030000Y-50500000D03*
%TD*%
D19*
%TO.C,J2*%
X149500000Y-75500000D03*
D20*
X147000000Y-75500000D03*
%TD*%
D21*
%TO.C,J1*%
X140500000Y-75500000D03*
D22*
X138000000Y-75500000D03*
X135500000Y-75500000D03*
X133000000Y-75500000D03*
X130500000Y-75500000D03*
%TD*%
D12*
%TO.C,RV1*%
X114775000Y-53050000D03*
D13*
X111525000Y-52050000D03*
D12*
X114775000Y-51050000D03*
%TD*%
D23*
%TO.C,H3*%
X140000000Y-83740000D03*
%TD*%
D24*
%TO.C,U5*%
X123450000Y-41500000D03*
X123450000Y-42450000D03*
X123450000Y-43400000D03*
X126150000Y-43400000D03*
X126150000Y-41500000D03*
%TD*%
D23*
%TO.C,H1*%
X127000000Y-60500000D03*
%TD*%
D17*
%TO.C,R7*%
X143500000Y-38000000D03*
X145500000Y-38000000D03*
%TD*%
D12*
%TO.C,RV3*%
X165225000Y-51050000D03*
D13*
X168475000Y-52050000D03*
D12*
X165225000Y-53050000D03*
%TD*%
D17*
%TO.C,R2*%
X102770000Y-45900000D03*
X104770000Y-45900000D03*
%TD*%
D24*
%TO.C,U2*%
X102790000Y-48502500D03*
X102790000Y-49452500D03*
X102790000Y-50402500D03*
X105490000Y-50402500D03*
X105490000Y-48502500D03*
%TD*%
D12*
%TO.C,RV4*%
X147050000Y-44575000D03*
D13*
X150300000Y-45575000D03*
D12*
X147050000Y-46575000D03*
%TD*%
D14*
%TO.C,R12*%
X177250000Y-45920000D03*
X175250000Y-45920000D03*
%TD*%
D23*
%TO.C,H2*%
X153000000Y-60500000D03*
%TD*%
D17*
%TO.C,R15*%
X147600000Y-36900000D03*
X149600000Y-36900000D03*
%TD*%
%TO.C,R8*%
X127975000Y-37325000D03*
X129975000Y-37325000D03*
%TD*%
D16*
%TO.C,U9*%
X156470000Y-45500000D03*
X156470000Y-44550000D03*
X156470000Y-43600000D03*
X153770000Y-43600000D03*
X153770000Y-45500000D03*
%TD*%
D17*
%TO.C,R6*%
X139100000Y-45500000D03*
X141100000Y-45500000D03*
%TD*%
D18*
%TO.C,D3*%
X182430000Y-45920000D03*
X179630000Y-45920000D03*
%TD*%
D24*
%TO.C,U10*%
X143150000Y-40050000D03*
X143150000Y-41000000D03*
X143150000Y-41950000D03*
X145850000Y-41950000D03*
X145850000Y-40050000D03*
%TD*%
D14*
%TO.C,R10*%
X155770000Y-47930000D03*
X153770000Y-47930000D03*
%TD*%
D11*
%TO.C,D1*%
X97590000Y-45870000D03*
X100390000Y-45870000D03*
%TD*%
D14*
%TO.C,R13*%
X176350000Y-54660000D03*
X174350000Y-54660000D03*
%TD*%
D25*
%TO.C,U8*%
X181500000Y-48500000D03*
D26*
X181500000Y-52500000D03*
X179700000Y-52500000D03*
X179700000Y-48500000D03*
%TD*%
D27*
%TO.C,U4*%
X139100000Y-43000000D03*
D26*
X139100000Y-39000000D03*
X140900000Y-39000000D03*
X140900000Y-43000000D03*
%TD*%
D25*
%TO.C,U6*%
X160900000Y-41500000D03*
D26*
X160900000Y-45500000D03*
X159100000Y-45500000D03*
X159100000Y-41500000D03*
%TD*%
D27*
%TO.C,U3*%
X119100000Y-45500000D03*
D26*
X119100000Y-41500000D03*
X120900000Y-41500000D03*
X120900000Y-45500000D03*
%TD*%
D27*
%TO.C,U1*%
X98500000Y-52500000D03*
D26*
X98500000Y-48500000D03*
X100300000Y-48500000D03*
X100300000Y-52500000D03*
%TD*%
M02*
