M48
; DRILL file {KiCad 9.0.5} date 2026-01-13T05:22:17+0200
; FORMAT={-:-/ absolute / inch / decimal}
; #@! TF.CreationDate,2026-01-13T05:22:17+02:00
; #@! TF.GenerationSoftware,Kicad,Pcbnew,9.0.5
; #@! TF.FileFunction,Plated,1,2,PTH
FMAT,2
INCH
; #@! TA.AperFunction,Plated,PTH,ViaDrill
T1C0.0118
; #@! TA.AperFunction,Plated,PTH,ComponentDrill
T2C0.0276
; #@! TA.AperFunction,Plated,PTH,ComponentDrill
T3C0.0374
; #@! TA.AperFunction,Plated,PTH,ComponentDrill
T4C0.0394
%
G90
G05
T1
X4.1535Y-1.9504
X4.1539Y-2.1681
X4.2748Y-1.9843
X4.9134Y-1.6736
X4.9138Y-1.8819
X5.1169Y-1.7091
X5.7421Y-1.7024
X5.9862Y-1.7165
X6.713Y-1.9921
T2
X3.878Y-1.9094
X3.878Y-2.0669
X3.9488Y-1.9094
X3.9488Y-2.0669
X4.689Y-1.6339
X4.689Y-1.7913
X4.7598Y-1.6339
X4.7598Y-1.7913
X5.4764Y-1.5354
X5.4764Y-1.6929
X5.5472Y-1.5354
X5.5472Y-1.6929
X6.2638Y-1.6339
X6.2638Y-1.7913
X6.3346Y-1.6339
X6.3346Y-1.7913
X7.0748Y-1.9094
X7.0748Y-2.0669
X7.1457Y-1.9094
X7.1457Y-2.0669
T3
X5.1378Y-2.9724
X5.2362Y-2.9724
X5.3346Y-2.9724
X5.4331Y-2.9724
X5.5315Y-2.9724
T4
X5.7874Y-2.9724
X5.8858Y-2.9724
M30
