%TF.GenerationSoftware,KiCad,Pcbnew,9.0.5*%
%TF.CreationDate,2026-01-13T05:22:19+02:00*%
%TF.ProjectId,SMB-100-A,534d422d-3130-4302-9d41-2e6b69636164,1.0*%
%TF.SameCoordinates,Original*%
%TF.FileFunction,Legend,Bot*%
%TF.FilePolarity,Positive*%
%FSLAX46Y46*%
G04 Gerber Fmt 4.6, Leading zero omitted, Abs format (unit mm)*
G04 Created by KiCad (PCBNEW 9.0.5) date 2026-01-13 05:22:19*
%MOMM*%
%LPD*%
G01*
G04 APERTURE LIST*
%ADD10C,0.400000*%
%ADD11C,0.120000*%
G04 APERTURE END LIST*
D10*
X153075890Y-53289200D02*
X152790176Y-53384438D01*
X152790176Y-53384438D02*
X152313985Y-53384438D01*
X152313985Y-53384438D02*
X152123509Y-53289200D01*
X152123509Y-53289200D02*
X152028271Y-53193961D01*
X152028271Y-53193961D02*
X151933033Y-53003485D01*
X151933033Y-53003485D02*
X151933033Y-52813009D01*
X151933033Y-52813009D02*
X152028271Y-52622533D01*
X152028271Y-52622533D02*
X152123509Y-52527295D01*
X152123509Y-52527295D02*
X152313985Y-52432057D01*
X152313985Y-52432057D02*
X152694938Y-52336819D01*
X152694938Y-52336819D02*
X152885414Y-52241580D01*
X152885414Y-52241580D02*
X152980652Y-52146342D01*
X152980652Y-52146342D02*
X153075890Y-51955866D01*
X153075890Y-51955866D02*
X153075890Y-51765390D01*
X153075890Y-51765390D02*
X152980652Y-51574914D01*
X152980652Y-51574914D02*
X152885414Y-51479676D01*
X152885414Y-51479676D02*
X152694938Y-51384438D01*
X152694938Y-51384438D02*
X152218747Y-51384438D01*
X152218747Y-51384438D02*
X151933033Y-51479676D01*
X151075890Y-52051104D02*
X151075890Y-53384438D01*
X151075890Y-52241580D02*
X150980652Y-52146342D01*
X150980652Y-52146342D02*
X150790176Y-52051104D01*
X150790176Y-52051104D02*
X150504461Y-52051104D01*
X150504461Y-52051104D02*
X150313985Y-52146342D01*
X150313985Y-52146342D02*
X150218747Y-52336819D01*
X150218747Y-52336819D02*
X150218747Y-53384438D01*
X149266366Y-53384438D02*
X149266366Y-52051104D01*
X149266366Y-51384438D02*
X149361604Y-51479676D01*
X149361604Y-51479676D02*
X149266366Y-51574914D01*
X149266366Y-51574914D02*
X149171128Y-51479676D01*
X149171128Y-51479676D02*
X149266366Y-51384438D01*
X149266366Y-51384438D02*
X149266366Y-51574914D01*
X148599699Y-52051104D02*
X147837795Y-52051104D01*
X148313985Y-53384438D02*
X148313985Y-51670152D01*
X148313985Y-51670152D02*
X148218747Y-51479676D01*
X148218747Y-51479676D02*
X148028271Y-51384438D01*
X148028271Y-51384438D02*
X147837795Y-51384438D01*
X147456842Y-52051104D02*
X146694938Y-52051104D01*
X147171128Y-53384438D02*
X147171128Y-51670152D01*
X147171128Y-51670152D02*
X147075890Y-51479676D01*
X147075890Y-51479676D02*
X146885414Y-51384438D01*
X146885414Y-51384438D02*
X146694938Y-51384438D01*
X144599699Y-53289200D02*
X144313985Y-53384438D01*
X144313985Y-53384438D02*
X143837794Y-53384438D01*
X143837794Y-53384438D02*
X143647318Y-53289200D01*
X143647318Y-53289200D02*
X143552080Y-53193961D01*
X143552080Y-53193961D02*
X143456842Y-53003485D01*
X143456842Y-53003485D02*
X143456842Y-52813009D01*
X143456842Y-52813009D02*
X143552080Y-52622533D01*
X143552080Y-52622533D02*
X143647318Y-52527295D01*
X143647318Y-52527295D02*
X143837794Y-52432057D01*
X143837794Y-52432057D02*
X144218747Y-52336819D01*
X144218747Y-52336819D02*
X144409223Y-52241580D01*
X144409223Y-52241580D02*
X144504461Y-52146342D01*
X144504461Y-52146342D02*
X144599699Y-51955866D01*
X144599699Y-51955866D02*
X144599699Y-51765390D01*
X144599699Y-51765390D02*
X144504461Y-51574914D01*
X144504461Y-51574914D02*
X144409223Y-51479676D01*
X144409223Y-51479676D02*
X144218747Y-51384438D01*
X144218747Y-51384438D02*
X143742556Y-51384438D01*
X143742556Y-51384438D02*
X143456842Y-51479676D01*
X142599699Y-52051104D02*
X142599699Y-53384438D01*
X142599699Y-52241580D02*
X142504461Y-52146342D01*
X142504461Y-52146342D02*
X142313985Y-52051104D01*
X142313985Y-52051104D02*
X142028270Y-52051104D01*
X142028270Y-52051104D02*
X141837794Y-52146342D01*
X141837794Y-52146342D02*
X141742556Y-52336819D01*
X141742556Y-52336819D02*
X141742556Y-53384438D01*
X140790175Y-53384438D02*
X140790175Y-52051104D01*
X140790175Y-51384438D02*
X140885413Y-51479676D01*
X140885413Y-51479676D02*
X140790175Y-51574914D01*
X140790175Y-51574914D02*
X140694937Y-51479676D01*
X140694937Y-51479676D02*
X140790175Y-51384438D01*
X140790175Y-51384438D02*
X140790175Y-51574914D01*
X140123508Y-52051104D02*
X139361604Y-52051104D01*
X139837794Y-53384438D02*
X139837794Y-51670152D01*
X139837794Y-51670152D02*
X139742556Y-51479676D01*
X139742556Y-51479676D02*
X139552080Y-51384438D01*
X139552080Y-51384438D02*
X139361604Y-51384438D01*
X138980651Y-52051104D02*
X138218747Y-52051104D01*
X138694937Y-53384438D02*
X138694937Y-51670152D01*
X138694937Y-51670152D02*
X138599699Y-51479676D01*
X138599699Y-51479676D02*
X138409223Y-51384438D01*
X138409223Y-51384438D02*
X138218747Y-51384438D01*
X136123508Y-53289200D02*
X135837794Y-53384438D01*
X135837794Y-53384438D02*
X135361603Y-53384438D01*
X135361603Y-53384438D02*
X135171127Y-53289200D01*
X135171127Y-53289200D02*
X135075889Y-53193961D01*
X135075889Y-53193961D02*
X134980651Y-53003485D01*
X134980651Y-53003485D02*
X134980651Y-52813009D01*
X134980651Y-52813009D02*
X135075889Y-52622533D01*
X135075889Y-52622533D02*
X135171127Y-52527295D01*
X135171127Y-52527295D02*
X135361603Y-52432057D01*
X135361603Y-52432057D02*
X135742556Y-52336819D01*
X135742556Y-52336819D02*
X135933032Y-52241580D01*
X135933032Y-52241580D02*
X136028270Y-52146342D01*
X136028270Y-52146342D02*
X136123508Y-51955866D01*
X136123508Y-51955866D02*
X136123508Y-51765390D01*
X136123508Y-51765390D02*
X136028270Y-51574914D01*
X136028270Y-51574914D02*
X135933032Y-51479676D01*
X135933032Y-51479676D02*
X135742556Y-51384438D01*
X135742556Y-51384438D02*
X135266365Y-51384438D01*
X135266365Y-51384438D02*
X134980651Y-51479676D01*
X134123508Y-52051104D02*
X134123508Y-53384438D01*
X134123508Y-52241580D02*
X134028270Y-52146342D01*
X134028270Y-52146342D02*
X133837794Y-52051104D01*
X133837794Y-52051104D02*
X133552079Y-52051104D01*
X133552079Y-52051104D02*
X133361603Y-52146342D01*
X133361603Y-52146342D02*
X133266365Y-52336819D01*
X133266365Y-52336819D02*
X133266365Y-53384438D01*
X132313984Y-53384438D02*
X132313984Y-52051104D01*
X132313984Y-51384438D02*
X132409222Y-51479676D01*
X132409222Y-51479676D02*
X132313984Y-51574914D01*
X132313984Y-51574914D02*
X132218746Y-51479676D01*
X132218746Y-51479676D02*
X132313984Y-51384438D01*
X132313984Y-51384438D02*
X132313984Y-51574914D01*
X131647317Y-52051104D02*
X130885413Y-52051104D01*
X131361603Y-53384438D02*
X131361603Y-51670152D01*
X131361603Y-51670152D02*
X131266365Y-51479676D01*
X131266365Y-51479676D02*
X131075889Y-51384438D01*
X131075889Y-51384438D02*
X130885413Y-51384438D01*
X130504460Y-52051104D02*
X129742556Y-52051104D01*
X130218746Y-53384438D02*
X130218746Y-51670152D01*
X130218746Y-51670152D02*
X130123508Y-51479676D01*
X130123508Y-51479676D02*
X129933032Y-51384438D01*
X129933032Y-51384438D02*
X129742556Y-51384438D01*
X129075889Y-53193961D02*
X128980651Y-53289200D01*
X128980651Y-53289200D02*
X129075889Y-53384438D01*
X129075889Y-53384438D02*
X129171127Y-53289200D01*
X129171127Y-53289200D02*
X129075889Y-53193961D01*
X129075889Y-53193961D02*
X129075889Y-53384438D01*
X128123508Y-53193961D02*
X128028270Y-53289200D01*
X128028270Y-53289200D02*
X128123508Y-53384438D01*
X128123508Y-53384438D02*
X128218746Y-53289200D01*
X128218746Y-53289200D02*
X128123508Y-53193961D01*
X128123508Y-53193961D02*
X128123508Y-53384438D01*
X127171127Y-53193961D02*
X127075889Y-53289200D01*
X127075889Y-53289200D02*
X127171127Y-53384438D01*
X127171127Y-53384438D02*
X127266365Y-53289200D01*
X127266365Y-53289200D02*
X127171127Y-53193961D01*
X127171127Y-53193961D02*
X127171127Y-53384438D01*
D11*
%TO.C,U8*%
X178880000Y-51800000D02*
X178880000Y-49200000D01*
X181990000Y-49320000D02*
X182320000Y-49650000D01*
X182320000Y-49650000D02*
X182320000Y-53230000D01*
%TO.C,U4*%
X138280000Y-41850000D02*
X138280000Y-38270000D01*
X138610000Y-42180000D02*
X138280000Y-41850000D01*
X141720000Y-39700000D02*
X141720000Y-42300000D01*
%TO.C,U6*%
X158280000Y-44800000D02*
X158280000Y-42200000D01*
X161390000Y-42320000D02*
X161720000Y-42650000D01*
X161720000Y-42650000D02*
X161720000Y-46230000D01*
%TO.C,U3*%
X118280000Y-44350000D02*
X118280000Y-40770000D01*
X118610000Y-44680000D02*
X118280000Y-44350000D01*
X121720000Y-42200000D02*
X121720000Y-44800000D01*
%TO.C,U1*%
X97680000Y-51350000D02*
X97680000Y-47770000D01*
X98010000Y-51680000D02*
X97680000Y-51350000D01*
X101120000Y-49200000D02*
X101120000Y-51800000D01*
%TD*%
M02*
