%TF.GenerationSoftware,KiCad,Pcbnew,9.0.7*%
%TF.CreationDate,2026-04-17T15:53:22+03:00*%
%TF.ProjectId,SMB-100-A,534d422d-3130-4302-9d41-2e6b69636164,1.0*%
%TF.SameCoordinates,Original*%
%TF.FileFunction,Copper,L2,Bot*%
%TF.FilePolarity,Positive*%
%FSLAX46Y46*%
G04 Gerber Fmt 4.6, Leading zero omitted, Abs format (unit mm)*
G04 Created by KiCad (PCBNEW 9.0.7) date 2026-04-17 15:53:22*
%MOMM*%
%LPD*%
G01*
G04 APERTURE LIST*
G04 Aperture macros list*
%AMRoundRect*
0 Rectangle with rounded corners*
0 $1 Rounding radius*
0 $2 $3 $4 $5 $6 $7 $8 $9 X,Y pos of 4 corners*
0 Add a 4 corners polygon primitive as box body*
4,1,4,$2,$3,$4,$5,$6,$7,$8,$9,$2,$3,0*
0 Add four circle primitives for the rounded corners*
1,1,$1+$1,$2,$3*
1,1,$1+$1,$4,$5*
1,1,$1+$1,$6,$7*
1,1,$1+$1,$8,$9*
0 Add four rect primitives between the rounded corners*
20,1,$1+$1,$2,$3,$4,$5,0*
20,1,$1+$1,$4,$5,$6,$7,0*
20,1,$1+$1,$6,$7,$8,$9,0*
20,1,$1+$1,$8,$9,$2,$3,0*%
G04 Aperture macros list end*
%TA.AperFunction,ComponentPad*%
%ADD10R,0.850000X0.850000*%
%TD*%
%TA.AperFunction,ComponentPad*%
%ADD11RoundRect,0.250000X0.600000X0.750000X-0.600000X0.750000X-0.600000X-0.750000X0.600000X-0.750000X0*%
%TD*%
%TA.AperFunction,ComponentPad*%
%ADD12O,1.700000X2.000000*%
%TD*%
%TA.AperFunction,ComponentPad*%
%ADD13RoundRect,0.250000X0.600000X0.725000X-0.600000X0.725000X-0.600000X-0.725000X0.600000X-0.725000X0*%
%TD*%
%TA.AperFunction,ComponentPad*%
%ADD14O,1.700000X1.950000*%
%TD*%
%TA.AperFunction,ComponentPad*%
%ADD15RoundRect,0.275000X0.275000X0.475000X-0.275000X0.475000X-0.275000X-0.475000X0.275000X-0.475000X0*%
%TD*%
%TA.AperFunction,ComponentPad*%
%ADD16O,1.100000X1.500000*%
%TD*%
%TA.AperFunction,ComponentPad*%
%ADD17RoundRect,0.275000X-0.275000X-0.475000X0.275000X-0.475000X0.275000X0.475000X-0.275000X0.475000X0*%
%TD*%
%TA.AperFunction,ViaPad*%
%ADD18C,0.600000*%
%TD*%
%TA.AperFunction,Conductor*%
%ADD19C,0.500000*%
%TD*%
G04 APERTURE END LIST*
D10*
%TO.P,J3,1,Pin_1*%
%TO.N,unconnected-(J3-Pin_1-Pad1)*%
X127110000Y-65500000D03*
%TD*%
%TO.P,J4,1,Pin_1*%
%TO.N,unconnected-(J4-Pin_1-Pad1)*%
X153170000Y-65500000D03*
%TD*%
D11*
%TO.P,J2,1,Pin_1*%
%TO.N,GND*%
X149500000Y-75500000D03*
D12*
%TO.P,J2,2,Pin_2*%
%TO.N,+3V3*%
X147000000Y-75500000D03*
%TD*%
D13*
%TO.P,J1,1,Pin_1*%
%TO.N,A0*%
X140500000Y-75500000D03*
D14*
%TO.P,J1,2,Pin_2*%
%TO.N,A1*%
X138000000Y-75500000D03*
%TO.P,J1,3,Pin_3*%
%TO.N,A2*%
X135500000Y-75500000D03*
%TO.P,J1,4,Pin_4*%
%TO.N,A3*%
X133000000Y-75500000D03*
%TO.P,J1,5,Pin_5*%
%TO.N,A4*%
X130500000Y-75500000D03*
%TD*%
D15*
%TO.P,U8,1,A*%
%TO.N,Net-(U8-A)*%
X181500000Y-48500000D03*
D16*
%TO.P,U8,2,K*%
%TO.N,GND*%
X181500000Y-52500000D03*
%TO.P,U8,3*%
%TO.N,/Sensors/COMP5*%
X179700000Y-52500000D03*
%TO.P,U8,4*%
%TO.N,GND*%
X179700000Y-48500000D03*
%TD*%
D17*
%TO.P,U4,1,A*%
%TO.N,Net-(U4-A)*%
X139100000Y-43000000D03*
D16*
%TO.P,U4,2,K*%
%TO.N,GND*%
X139100000Y-39000000D03*
%TO.P,U4,3*%
%TO.N,/Sensors/COMP3*%
X140900000Y-39000000D03*
%TO.P,U4,4*%
%TO.N,GND*%
X140900000Y-43000000D03*
%TD*%
D15*
%TO.P,U6,1,A*%
%TO.N,Net-(U6-A)*%
X160900000Y-41500000D03*
D16*
%TO.P,U6,2,K*%
%TO.N,GND*%
X160900000Y-45500000D03*
%TO.P,U6,3*%
%TO.N,/Sensors/COMP4*%
X159100000Y-45500000D03*
%TO.P,U6,4*%
%TO.N,GND*%
X159100000Y-41500000D03*
%TD*%
D17*
%TO.P,U3,1,A*%
%TO.N,Net-(U3-A)*%
X119100000Y-45500000D03*
D16*
%TO.P,U3,2,K*%
%TO.N,GND*%
X119100000Y-41500000D03*
%TO.P,U3,3*%
%TO.N,/Sensors/COMP2*%
X120900000Y-41500000D03*
%TO.P,U3,4*%
%TO.N,GND*%
X120900000Y-45500000D03*
%TD*%
D17*
%TO.P,U1,1,A*%
%TO.N,Net-(U1-A)*%
X98500000Y-52500000D03*
D16*
%TO.P,U1,2,K*%
%TO.N,GND*%
X98500000Y-48500000D03*
%TO.P,U1,3*%
%TO.N,/Sensors/COMP1*%
X100300000Y-48500000D03*
%TO.P,U1,4*%
%TO.N,GND*%
X100300000Y-52500000D03*
%TD*%
D18*
%TO.N,A0*%
X170510000Y-50600000D03*
%TO.N,A1*%
X152050000Y-43600000D03*
%TO.N,A2*%
X145850000Y-43240000D03*
%TO.N,A3*%
X129970000Y-43410000D03*
%TO.N,A4*%
X108580000Y-50400000D03*
%TO.N,+3V3*%
X124810000Y-47800000D03*
X105500000Y-49540000D03*
X124800000Y-42510000D03*
X105510000Y-55070000D03*
%TD*%
D19*
%TO.N,A0*%
X140500000Y-60340000D02*
X140500000Y-75500000D01*
X150240000Y-50600000D02*
X140500000Y-60340000D01*
X170510000Y-50600000D02*
X150240000Y-50600000D01*
%TO.N,A1*%
X152050000Y-43600000D02*
X138000000Y-57650000D01*
X138000000Y-57650000D02*
X138000000Y-75500000D01*
%TO.N,A2*%
X145850000Y-44320000D02*
X135510000Y-54660000D01*
X145850000Y-43240000D02*
X145850000Y-44320000D01*
X135510000Y-54660000D02*
X135510000Y-75490000D01*
X135510000Y-75490000D02*
X135500000Y-75500000D01*
%TO.N,A3*%
X133000000Y-54500000D02*
X133000000Y-75500000D01*
X129970000Y-43410000D02*
X129970000Y-51470000D01*
X129970000Y-51470000D02*
X133000000Y-54500000D01*
%TO.N,A4*%
X130500000Y-56700000D02*
X130500000Y-75500000D01*
X108580000Y-50400000D02*
X124200000Y-50400000D01*
X124200000Y-50400000D02*
X130500000Y-56700000D01*
%TO.N,+3V3*%
X105500000Y-49540000D02*
X105500000Y-55060000D01*
X124810000Y-47800000D02*
X124810000Y-42520000D01*
X124810000Y-42520000D02*
X124800000Y-42510000D01*
X105500000Y-55060000D02*
X105510000Y-55070000D01*
%TD*%
%TA.AperFunction,Conductor*%
%TO.N,GND*%
G36*
X141935551Y-34683498D02*
G01*
X141937803Y-34683543D01*
X143871455Y-34740675D01*
X143873750Y-34740766D01*
X145805848Y-34835959D01*
X145808212Y-34836099D01*
X147738125Y-34969322D01*
X147740375Y-34969501D01*
X149667250Y-35140696D01*
X149669522Y-35140921D01*
X151539551Y-35344250D01*
X151592564Y-35350015D01*
X151594991Y-35350302D01*
X153513638Y-35597233D01*
X153515889Y-35597546D01*
X155429271Y-35882204D01*
X155431597Y-35882574D01*
X157338976Y-36204848D01*
X157341250Y-36205254D01*
X159241988Y-36565037D01*
X159244274Y-36565494D01*
X161137480Y-36962618D01*
X161139843Y-36963138D01*
X163024844Y-37397459D01*
X163027123Y-37398008D01*
X164903246Y-37869371D01*
X164905463Y-37869951D01*
X166772003Y-38378182D01*
X166774223Y-38378810D01*
X168430122Y-38864905D01*
X168630256Y-38923655D01*
X168632584Y-38924362D01*
X170477625Y-39505678D01*
X170479855Y-39506406D01*
X172312993Y-40123906D01*
X172315270Y-40124698D01*
X174135981Y-40778205D01*
X174138185Y-40779022D01*
X175945660Y-41468247D01*
X175947796Y-41469086D01*
X177741368Y-42193776D01*
X177743553Y-42194684D01*
X179372805Y-42890606D01*
X179522432Y-42954518D01*
X179524664Y-42955497D01*
X179637868Y-43006510D01*
X181288224Y-43750205D01*
X181290440Y-43751230D01*
X181715955Y-43953151D01*
X183038029Y-44580519D01*
X183040179Y-44581566D01*
X184493601Y-45306661D01*
X184544801Y-45354203D01*
X184560446Y-45396581D01*
X184755857Y-46531678D01*
X184756323Y-46534591D01*
X184969820Y-47979514D01*
X184970217Y-47982437D01*
X185149295Y-49432102D01*
X185149621Y-49435033D01*
X185294160Y-50888463D01*
X185294417Y-50891402D01*
X185404344Y-52347887D01*
X185404531Y-52350830D01*
X185479785Y-53809520D01*
X185479902Y-53812468D01*
X185520440Y-55272528D01*
X185520487Y-55275477D01*
X185526285Y-56736089D01*
X185526262Y-56739038D01*
X185497315Y-58199417D01*
X185497221Y-58202365D01*
X185433551Y-59661561D01*
X185433388Y-59664506D01*
X185335023Y-61121859D01*
X185334789Y-61124800D01*
X185201790Y-62579370D01*
X185201486Y-62582304D01*
X185033932Y-64033261D01*
X185033559Y-64036187D01*
X184831538Y-65482760D01*
X184831095Y-65485676D01*
X184741669Y-66030982D01*
X184711395Y-66093952D01*
X184651883Y-66130559D01*
X184582027Y-66129179D01*
X184557981Y-66118690D01*
X183078742Y-65277009D01*
X182509027Y-64967516D01*
X181546534Y-64444649D01*
X179998252Y-63642590D01*
X179520947Y-63407121D01*
X178434510Y-62871148D01*
X176855863Y-62130599D01*
X175262955Y-61421245D01*
X173937073Y-60861789D01*
X173656436Y-60743374D01*
X172460102Y-60266079D01*
X172036885Y-60097230D01*
X171737353Y-59984505D01*
X170404922Y-59483061D01*
X170404903Y-59483054D01*
X170404897Y-59483052D01*
X168761233Y-58901124D01*
X167106364Y-58351615D01*
X166625463Y-58202365D01*
X165441018Y-57834766D01*
X163765837Y-57350776D01*
X162589599Y-57035871D01*
X162081434Y-56899824D01*
X160388536Y-56482103D01*
X158687723Y-56097755D01*
X156979708Y-55746942D01*
X156146613Y-55592855D01*
X156146611Y-55592855D01*
X156141791Y-55591963D01*
X156097240Y-55580026D01*
X156077255Y-55580026D01*
X156061591Y-55577128D01*
X156057585Y-55576387D01*
X156016458Y-55579640D01*
X156016456Y-55579640D01*
X156011573Y-55580026D01*
X155965456Y-55580026D01*
X155946153Y-55585197D01*
X155934832Y-55586092D01*
X155934824Y-55586093D01*
X155926215Y-55586775D01*
X155887329Y-55600559D01*
X155882707Y-55602197D01*
X155838162Y-55614134D01*
X155820856Y-55624123D01*
X155810152Y-55627919D01*
X155810149Y-55627921D01*
X155802007Y-55630808D01*
X155768011Y-55654190D01*
X155763981Y-55656961D01*
X155724034Y-55680026D01*
X155709898Y-55694161D01*
X155700530Y-55700605D01*
X155700527Y-55700605D01*
X155693426Y-55705490D01*
X155666647Y-55736866D01*
X155666646Y-55736865D01*
X155663454Y-55740604D01*
X155630848Y-55773212D01*
X155620856Y-55790516D01*
X155613481Y-55799158D01*
X155613480Y-55799161D01*
X155607874Y-55805730D01*
X155607869Y-55805737D01*
X155590128Y-55842964D01*
X155588021Y-55847388D01*
X155564956Y-55887340D01*
X155559782Y-55906646D01*
X155554890Y-55916913D01*
X155554888Y-55916914D01*
X155551182Y-55924693D01*
X155551181Y-55924696D01*
X155543676Y-55965264D01*
X155542784Y-55970082D01*
X155530848Y-56014634D01*
X155530848Y-56034618D01*
X155528780Y-56045799D01*
X155527210Y-56054284D01*
X155530462Y-56095402D01*
X155530848Y-56105176D01*
X155530848Y-75540644D01*
X155511163Y-75607683D01*
X155504211Y-75617432D01*
X155099463Y-76130631D01*
X155095987Y-76134844D01*
X154536421Y-76783432D01*
X154532764Y-76787488D01*
X153945145Y-77410845D01*
X153941312Y-77414735D01*
X153326838Y-78011588D01*
X153322837Y-78015306D01*
X152682695Y-78584506D01*
X152678535Y-78588045D01*
X152013922Y-79128527D01*
X152009610Y-79131879D01*
X151321830Y-79642580D01*
X151317374Y-79645738D01*
X150607820Y-80125625D01*
X150603230Y-80128585D01*
X149873177Y-80576796D01*
X149868460Y-80579550D01*
X149119428Y-80995151D01*
X149114595Y-80997695D01*
X148347957Y-81379926D01*
X148343017Y-81382255D01*
X147560305Y-81730351D01*
X147555267Y-81732460D01*
X146757980Y-82045754D01*
X146752854Y-82047639D01*
X145942538Y-82325523D01*
X145937334Y-82327180D01*
X145115592Y-82569105D01*
X145110320Y-82570532D01*
X144278699Y-82776043D01*
X144273370Y-82777236D01*
X143433503Y-82945930D01*
X143428125Y-82946887D01*
X142581677Y-83078427D01*
X142576264Y-83079147D01*
X141858882Y-83158468D01*
X141790085Y-83146270D01*
X141738804Y-83098815D01*
X141730693Y-83082672D01*
X141699993Y-83008557D01*
X141663224Y-82919788D01*
X141541936Y-82709711D01*
X141481018Y-82630321D01*
X141394266Y-82517263D01*
X141394260Y-82517256D01*
X141222743Y-82345739D01*
X141222736Y-82345733D01*
X141030293Y-82198067D01*
X141030292Y-82198066D01*
X141030289Y-82198064D01*
X140820212Y-82076776D01*
X140820205Y-82076773D01*
X140596104Y-81983947D01*
X140361785Y-81921161D01*
X140121289Y-81889500D01*
X140121288Y-81889500D01*
X139878712Y-81889500D01*
X139878711Y-81889500D01*
X139638214Y-81921161D01*
X139403895Y-81983947D01*
X139179794Y-82076773D01*
X139179785Y-82076777D01*
X138969706Y-82198067D01*
X138777263Y-82345733D01*
X138777256Y-82345739D01*
X138605739Y-82517256D01*
X138605733Y-82517263D01*
X138458067Y-82709706D01*
X138336777Y-82919785D01*
X138336773Y-82919794D01*
X138269307Y-83082672D01*
X138225466Y-83137075D01*
X138159172Y-83159140D01*
X138141119Y-83158468D01*
X137739668Y-83114080D01*
X137423738Y-83079148D01*
X137418325Y-83078428D01*
X136571874Y-82946887D01*
X136566496Y-82945930D01*
X135726630Y-82777236D01*
X135721301Y-82776043D01*
X134889680Y-82570532D01*
X134884408Y-82569105D01*
X134062666Y-82327180D01*
X134057462Y-82325523D01*
X133247146Y-82047639D01*
X133242020Y-82045754D01*
X132444733Y-81732460D01*
X132439695Y-81730351D01*
X131656974Y-81382251D01*
X131652034Y-81379922D01*
X130885413Y-80997700D01*
X130880580Y-80995156D01*
X130833081Y-80968801D01*
X130131531Y-80579545D01*
X130126823Y-80576797D01*
X130126821Y-80576796D01*
X129396770Y-80128585D01*
X129392180Y-80125625D01*
X129316601Y-80074509D01*
X128682610Y-79645728D01*
X128678160Y-79642573D01*
X127990401Y-79131888D01*
X127986088Y-79128536D01*
X127321465Y-78588045D01*
X127317305Y-78584507D01*
X127317304Y-78584506D01*
X126677139Y-78015285D01*
X126673162Y-78011589D01*
X126058687Y-77414736D01*
X126054854Y-77410846D01*
X126054853Y-77410845D01*
X125467235Y-76787488D01*
X125463579Y-76783433D01*
X124904013Y-76134845D01*
X124900537Y-76130632D01*
X124495789Y-75617432D01*
X124469730Y-75552604D01*
X124469152Y-75540644D01*
X124469152Y-65027135D01*
X126184500Y-65027135D01*
X126184500Y-65972870D01*
X126184501Y-65972876D01*
X126190908Y-66032483D01*
X126241202Y-66167328D01*
X126241206Y-66167335D01*
X126327452Y-66282544D01*
X126327455Y-66282547D01*
X126442664Y-66368793D01*
X126442671Y-66368797D01*
X126577517Y-66419091D01*
X126577516Y-66419091D01*
X126584444Y-66419835D01*
X126637127Y-66425500D01*
X127582872Y-66425499D01*
X127642483Y-66419091D01*
X127777331Y-66368796D01*
X127892546Y-66282546D01*
X127978796Y-66167331D01*
X128029091Y-66032483D01*
X128035500Y-65972873D01*
X128035499Y-65027128D01*
X128029091Y-64967517D01*
X128016011Y-64932449D01*
X127978797Y-64832671D01*
X127978793Y-64832664D01*
X127892547Y-64717455D01*
X127892544Y-64717452D01*
X127777335Y-64631206D01*
X127777328Y-64631202D01*
X127642482Y-64580908D01*
X127642483Y-64580908D01*
X127582883Y-64574501D01*
X127582881Y-64574500D01*
X127582873Y-64574500D01*
X127582864Y-64574500D01*
X126637129Y-64574500D01*
X126637123Y-64574501D01*
X126577516Y-64580908D01*
X126442671Y-64631202D01*
X126442664Y-64631206D01*
X126327455Y-64717452D01*
X126327452Y-64717455D01*
X126241206Y-64832664D01*
X126241202Y-64832671D01*
X126190908Y-64967517D01*
X126184501Y-65027116D01*
X126184501Y-65027123D01*
X126184500Y-65027135D01*
X124469152Y-65027135D01*
X124469152Y-60378711D01*
X125149500Y-60378711D01*
X125149500Y-60621288D01*
X125181161Y-60861785D01*
X125243947Y-61096104D01*
X125336773Y-61320205D01*
X125336776Y-61320212D01*
X125458064Y-61530289D01*
X125458066Y-61530292D01*
X125458067Y-61530293D01*
X125605733Y-61722736D01*
X125605739Y-61722743D01*
X125777256Y-61894260D01*
X125777262Y-61894265D01*
X125969711Y-62041936D01*
X126179788Y-62163224D01*
X126403900Y-62256054D01*
X126638211Y-62318838D01*
X126818586Y-62342584D01*
X126878711Y-62350500D01*
X126878712Y-62350500D01*
X127121289Y-62350500D01*
X127169388Y-62344167D01*
X127361789Y-62318838D01*
X127596100Y-62256054D01*
X127820212Y-62163224D01*
X128030289Y-62041936D01*
X128222738Y-61894265D01*
X128394265Y-61722738D01*
X128541936Y-61530289D01*
X128663224Y-61320212D01*
X128756054Y-61096100D01*
X128818838Y-60861789D01*
X128850500Y-60621288D01*
X128850500Y-60378712D01*
X128818838Y-60138211D01*
X128756054Y-59903900D01*
X128663224Y-59679788D01*
X128541936Y-59469711D01*
X128394265Y-59277262D01*
X128394260Y-59277256D01*
X128222743Y-59105739D01*
X128222736Y-59105733D01*
X128030293Y-58958067D01*
X128030292Y-58958066D01*
X128030289Y-58958064D01*
X127820212Y-58836776D01*
X127820205Y-58836773D01*
X127596104Y-58743947D01*
X127361785Y-58681161D01*
X127121289Y-58649500D01*
X127121288Y-58649500D01*
X126878712Y-58649500D01*
X126878711Y-58649500D01*
X126638214Y-58681161D01*
X126403895Y-58743947D01*
X126179794Y-58836773D01*
X126179785Y-58836777D01*
X125969706Y-58958067D01*
X125777263Y-59105733D01*
X125777256Y-59105739D01*
X125605739Y-59277256D01*
X125605733Y-59277263D01*
X125458067Y-59469706D01*
X125336777Y-59679785D01*
X125336773Y-59679794D01*
X125243947Y-59903895D01*
X125181161Y-60138214D01*
X125149500Y-60378711D01*
X124469152Y-60378711D01*
X124469152Y-56100284D01*
X124472789Y-56054284D01*
X124469152Y-56034621D01*
X124469152Y-56014633D01*
X124458473Y-55974781D01*
X124456321Y-55965260D01*
X124448819Y-55924698D01*
X124445110Y-55916915D01*
X124440218Y-55906649D01*
X124435044Y-55887339D01*
X124411975Y-55847383D01*
X124392127Y-55805732D01*
X124392125Y-55805730D01*
X124392124Y-55805727D01*
X124386533Y-55799177D01*
X124373461Y-55780674D01*
X124369154Y-55773214D01*
X124369153Y-55773212D01*
X124369152Y-55773211D01*
X124339988Y-55744047D01*
X124333350Y-55736864D01*
X124306577Y-55705494D01*
X124306576Y-55705493D01*
X124306575Y-55705492D01*
X124299468Y-55700603D01*
X124282062Y-55686121D01*
X124275967Y-55680026D01*
X124275966Y-55680025D01*
X124236004Y-55656953D01*
X124197995Y-55630810D01*
X124179154Y-55624130D01*
X124169302Y-55618442D01*
X124169300Y-55618440D01*
X124161845Y-55614137D01*
X124161844Y-55614136D01*
X124161838Y-55614133D01*
X124161834Y-55614132D01*
X124161830Y-55614130D01*
X124121995Y-55603456D01*
X124117268Y-55602190D01*
X124073785Y-55586775D01*
X124053855Y-55585199D01*
X124042868Y-55582255D01*
X124042867Y-55582254D01*
X124034545Y-55580025D01*
X124034544Y-55580025D01*
X123993303Y-55580025D01*
X123983530Y-55579639D01*
X123981123Y-55579448D01*
X123942412Y-55576387D01*
X123935912Y-55577590D01*
X123933933Y-55577956D01*
X123911378Y-55580025D01*
X123902760Y-55580025D01*
X123902752Y-55580026D01*
X123862906Y-55590702D01*
X123853367Y-55592859D01*
X123020291Y-55746943D01*
X121312276Y-56097756D01*
X119611464Y-56482104D01*
X117918565Y-56899825D01*
X116234162Y-57350777D01*
X115956194Y-57431087D01*
X114558983Y-57834766D01*
X113662303Y-58113055D01*
X112893635Y-58351615D01*
X111238767Y-58901125D01*
X109595102Y-59483053D01*
X107963114Y-60097231D01*
X106343560Y-60743377D01*
X104737044Y-61421246D01*
X103144137Y-62130600D01*
X101565489Y-62871149D01*
X100001738Y-63642596D01*
X98453483Y-64444641D01*
X98453466Y-64444650D01*
X97951292Y-64717452D01*
X97381240Y-65027128D01*
X96921260Y-65277008D01*
X95442018Y-66118692D01*
X95374016Y-66134737D01*
X95308134Y-66111470D01*
X95265290Y-66056278D01*
X95258329Y-66030984D01*
X95248799Y-65972873D01*
X95168901Y-65485661D01*
X95168462Y-65482760D01*
X95091609Y-64932450D01*
X94966432Y-64036123D01*
X94966076Y-64033326D01*
X94798508Y-62582253D01*
X94798215Y-62579419D01*
X94665207Y-61124757D01*
X94664980Y-61121902D01*
X94566609Y-59664462D01*
X94566451Y-59661607D01*
X94502778Y-58202352D01*
X94502685Y-58199417D01*
X94490330Y-57576082D01*
X94473737Y-56738963D01*
X94473715Y-56736166D01*
X94479513Y-55275461D01*
X94479560Y-55272528D01*
X94486510Y-55022229D01*
X94520098Y-53812457D01*
X94520215Y-53809520D01*
X94524790Y-53720842D01*
X94595469Y-52350816D01*
X94595656Y-52347887D01*
X94623314Y-51981441D01*
X97449500Y-51981441D01*
X97449500Y-53018558D01*
X97464157Y-53148648D01*
X97464159Y-53148658D01*
X97481284Y-53197598D01*
X97521878Y-53313606D01*
X97614853Y-53461576D01*
X97738424Y-53585147D01*
X97886394Y-53678122D01*
X98051343Y-53735841D01*
X98051349Y-53735841D01*
X98051351Y-53735842D01*
X98092750Y-53740506D01*
X98181442Y-53750499D01*
X98181445Y-53750500D01*
X98181448Y-53750500D01*
X98818555Y-53750500D01*
X98818556Y-53750499D01*
X98948657Y-53735841D01*
X99113606Y-53678122D01*
X99261576Y-53585147D01*
X99385147Y-53461576D01*
X99385147Y-53461575D01*
X99390071Y-53456652D01*
X99391435Y-53458016D01*
X99440786Y-53423379D01*
X99510598Y-53420529D01*
X99568225Y-53453151D01*
X99630660Y-53515586D01*
X99630664Y-53515589D01*
X99802631Y-53630494D01*
X99802641Y-53630499D01*
X99993723Y-53709648D01*
X99993725Y-53709649D01*
X100050000Y-53720842D01*
X100550000Y-53720842D01*
X100606274Y-53709649D01*
X100606276Y-53709648D01*
X100797358Y-53630499D01*
X100797368Y-53630494D01*
X100969335Y-53515589D01*
X100969339Y-53515586D01*
X101115586Y-53369339D01*
X101115589Y-53369335D01*
X101230494Y-53197368D01*
X101230499Y-53197358D01*
X101309649Y-53006274D01*
X101309651Y-53006266D01*
X101349999Y-52803420D01*
X101350000Y-52803417D01*
X101350000Y-52750000D01*
X100550000Y-52750000D01*
X100550000Y-53720842D01*
X100050000Y-53720842D01*
X100050000Y-52744975D01*
X100085095Y-52780070D01*
X100164905Y-52826148D01*
X100253922Y-52850000D01*
X100346078Y-52850000D01*
X100435095Y-52826148D01*
X100514905Y-52780070D01*
X100580070Y-52714905D01*
X100626148Y-52635095D01*
X100650000Y-52546078D01*
X100650000Y-52453922D01*
X100626148Y-52364905D01*
X100580070Y-52285095D01*
X100544975Y-52250000D01*
X100550000Y-52250000D01*
X101350000Y-52250000D01*
X101350000Y-52196583D01*
X101349999Y-52196579D01*
X101309651Y-51993733D01*
X101309649Y-51993725D01*
X101230499Y-51802641D01*
X101230494Y-51802631D01*
X101115589Y-51630664D01*
X101115586Y-51630660D01*
X100969339Y-51484413D01*
X100969335Y-51484410D01*
X100797368Y-51369505D01*
X100797358Y-51369500D01*
X100606272Y-51290349D01*
X100606267Y-51290347D01*
X100550000Y-51279155D01*
X100550000Y-52250000D01*
X100544975Y-52250000D01*
X100514905Y-52219930D01*
X100435095Y-52173852D01*
X100346078Y-52150000D01*
X100253922Y-52150000D01*
X100164905Y-52173852D01*
X100085095Y-52219930D01*
X100050000Y-52255025D01*
X100050000Y-51279156D01*
X100049999Y-51279155D01*
X99993732Y-51290347D01*
X99993727Y-51290349D01*
X99802641Y-51369500D01*
X99802631Y-51369505D01*
X99630664Y-51484410D01*
X99568225Y-51546849D01*
X99506901Y-51580333D01*
X99437210Y-51575348D01*
X99391328Y-51542090D01*
X99390071Y-51543348D01*
X99261576Y-51414853D01*
X99189774Y-51369737D01*
X99113606Y-51321878D01*
X99113605Y-51321877D01*
X99113604Y-51321877D01*
X98948658Y-51264159D01*
X98948648Y-51264157D01*
X98818558Y-51249500D01*
X98818552Y-51249500D01*
X98181448Y-51249500D01*
X98181441Y-51249500D01*
X98051351Y-51264157D01*
X98051341Y-51264159D01*
X97886395Y-51321877D01*
X97738423Y-51414853D01*
X97614853Y-51538423D01*
X97521877Y-51686395D01*
X97464159Y-51851341D01*
X97464157Y-51851351D01*
X97449500Y-51981441D01*
X94623314Y-51981441D01*
X94624280Y-51968637D01*
X94634036Y-51839374D01*
X94705590Y-50891321D01*
X94705832Y-50888546D01*
X94850380Y-49435022D01*
X94850705Y-49432102D01*
X94865343Y-49313604D01*
X94928366Y-48803420D01*
X97450000Y-48803420D01*
X97490348Y-49006266D01*
X97490350Y-49006274D01*
X97569500Y-49197358D01*
X97569505Y-49197368D01*
X97684410Y-49369335D01*
X97684413Y-49369339D01*
X97830660Y-49515586D01*
X97830664Y-49515589D01*
X98002631Y-49630494D01*
X98002641Y-49630499D01*
X98193723Y-49709648D01*
X98193725Y-49709649D01*
X98250000Y-49720842D01*
X98250000Y-48750000D01*
X97450000Y-48750000D01*
X97450000Y-48803420D01*
X94928366Y-48803420D01*
X94971540Y-48453922D01*
X98150000Y-48453922D01*
X98150000Y-48546078D01*
X98173852Y-48635095D01*
X98219930Y-48714905D01*
X98285095Y-48780070D01*
X98364905Y-48826148D01*
X98453922Y-48850000D01*
X98546078Y-48850000D01*
X98635095Y-48826148D01*
X98714905Y-48780070D01*
X98750000Y-48744975D01*
X98750000Y-49720842D01*
X98806274Y-49709649D01*
X98806276Y-49709648D01*
X98997358Y-49630499D01*
X98997368Y-49630494D01*
X99169334Y-49515590D01*
X99311964Y-49372960D01*
X99373287Y-49339475D01*
X99442979Y-49344459D01*
X99487327Y-49372960D01*
X99630342Y-49515975D01*
X99630345Y-49515977D01*
X99802402Y-49630941D01*
X99993580Y-49710130D01*
X100196530Y-49750499D01*
X100196534Y-49750500D01*
X100196535Y-49750500D01*
X100403466Y-49750500D01*
X100403467Y-49750499D01*
X100606420Y-49710130D01*
X100797598Y-49630941D01*
X100969655Y-49515977D01*
X101024479Y-49461153D01*
X104699500Y-49461153D01*
X104699500Y-49618846D01*
X104730261Y-49773489D01*
X104730263Y-49773497D01*
X104740061Y-49797151D01*
X104749500Y-49844604D01*
X104749500Y-54789537D01*
X104741358Y-54830470D01*
X104742031Y-54830674D01*
X104740261Y-54836506D01*
X104709500Y-54991153D01*
X104709500Y-55148846D01*
X104740261Y-55303489D01*
X104740264Y-55303501D01*
X104800602Y-55449172D01*
X104800609Y-55449185D01*
X104888210Y-55580288D01*
X104888213Y-55580292D01*
X104999707Y-55691786D01*
X104999711Y-55691789D01*
X105130814Y-55779390D01*
X105130827Y-55779397D01*
X105276498Y-55839735D01*
X105276503Y-55839737D01*
X105431153Y-55870499D01*
X105431156Y-55870500D01*
X105431158Y-55870500D01*
X105588844Y-55870500D01*
X105588845Y-55870499D01*
X105743497Y-55839737D01*
X105889179Y-55779394D01*
X106020289Y-55691789D01*
X106131789Y-55580289D01*
X106219394Y-55449179D01*
X106279737Y-55303497D01*
X106310500Y-55148842D01*
X106310500Y-54991158D01*
X106310500Y-54991155D01*
X106310499Y-54991153D01*
X106279739Y-54836511D01*
X106279737Y-54836506D01*
X106279737Y-54836503D01*
X106259938Y-54788705D01*
X106250500Y-54741254D01*
X106250500Y-50321153D01*
X107779500Y-50321153D01*
X107779500Y-50478846D01*
X107810261Y-50633489D01*
X107810264Y-50633501D01*
X107870602Y-50779172D01*
X107870609Y-50779185D01*
X107958210Y-50910288D01*
X107958213Y-50910292D01*
X108069707Y-51021786D01*
X108069711Y-51021789D01*
X108200814Y-51109390D01*
X108200827Y-51109397D01*
X108300060Y-51150500D01*
X108346503Y-51169737D01*
X108475775Y-51195451D01*
X108501153Y-51200499D01*
X108501156Y-51200500D01*
X108501158Y-51200500D01*
X108658844Y-51200500D01*
X108658845Y-51200499D01*
X108735152Y-51185320D01*
X108813488Y-51169739D01*
X108813489Y-51169738D01*
X108813497Y-51169737D01*
X108837155Y-51159937D01*
X108884604Y-51150500D01*
X123837770Y-51150500D01*
X123904809Y-51170185D01*
X123925451Y-51186819D01*
X129713181Y-56974548D01*
X129746666Y-57035871D01*
X129749500Y-57062229D01*
X129749500Y-74187779D01*
X129729815Y-74254818D01*
X129698385Y-74288097D01*
X129620211Y-74344893D01*
X129620205Y-74344898D01*
X129469890Y-74495213D01*
X129344951Y-74667179D01*
X129248444Y-74856585D01*
X129182753Y-75058760D01*
X129176237Y-75099901D01*
X129149500Y-75268713D01*
X129149500Y-75731287D01*
X129153460Y-75756287D01*
X129178785Y-75916188D01*
X129182754Y-75941243D01*
X129245659Y-76134845D01*
X129248444Y-76143414D01*
X129344951Y-76332820D01*
X129469890Y-76504786D01*
X129620213Y-76655109D01*
X129792179Y-76780048D01*
X129792181Y-76780049D01*
X129792184Y-76780051D01*
X129981588Y-76876557D01*
X130183757Y-76942246D01*
X130393713Y-76975500D01*
X130393714Y-76975500D01*
X130606286Y-76975500D01*
X130606287Y-76975500D01*
X130816243Y-76942246D01*
X131018412Y-76876557D01*
X131207816Y-76780051D01*
X131292748Y-76718345D01*
X131379786Y-76655109D01*
X131379788Y-76655106D01*
X131379792Y-76655104D01*
X131530104Y-76504792D01*
X131649683Y-76340204D01*
X131705011Y-76297540D01*
X131774624Y-76291561D01*
X131836420Y-76324166D01*
X131850313Y-76340199D01*
X131953925Y-76482809D01*
X131969896Y-76504792D01*
X132120213Y-76655109D01*
X132292179Y-76780048D01*
X132292181Y-76780049D01*
X132292184Y-76780051D01*
X132481588Y-76876557D01*
X132683757Y-76942246D01*
X132893713Y-76975500D01*
X132893714Y-76975500D01*
X133106286Y-76975500D01*
X133106287Y-76975500D01*
X133316243Y-76942246D01*
X133518412Y-76876557D01*
X133707816Y-76780051D01*
X133792748Y-76718345D01*
X133879786Y-76655109D01*
X133879788Y-76655106D01*
X133879792Y-76655104D01*
X134030104Y-76504792D01*
X134149683Y-76340204D01*
X134205011Y-76297540D01*
X134274624Y-76291561D01*
X134336420Y-76324166D01*
X134350313Y-76340199D01*
X134453925Y-76482809D01*
X134469896Y-76504792D01*
X134620213Y-76655109D01*
X134792179Y-76780048D01*
X134792181Y-76780049D01*
X134792184Y-76780051D01*
X134981588Y-76876557D01*
X135183757Y-76942246D01*
X135393713Y-76975500D01*
X135393714Y-76975500D01*
X135606286Y-76975500D01*
X135606287Y-76975500D01*
X135816243Y-76942246D01*
X136018412Y-76876557D01*
X136207816Y-76780051D01*
X136292748Y-76718345D01*
X136379786Y-76655109D01*
X136379788Y-76655106D01*
X136379792Y-76655104D01*
X136530104Y-76504792D01*
X136649683Y-76340204D01*
X136705011Y-76297540D01*
X136774624Y-76291561D01*
X136836420Y-76324166D01*
X136850313Y-76340199D01*
X136953925Y-76482809D01*
X136969896Y-76504792D01*
X137120213Y-76655109D01*
X137292179Y-76780048D01*
X137292181Y-76780049D01*
X137292184Y-76780051D01*
X137481588Y-76876557D01*
X137683757Y-76942246D01*
X137893713Y-76975500D01*
X137893714Y-76975500D01*
X138106286Y-76975500D01*
X138106287Y-76975500D01*
X138316243Y-76942246D01*
X138518412Y-76876557D01*
X138707816Y-76780051D01*
X138845374Y-76680110D01*
X138879784Y-76655110D01*
X138879784Y-76655109D01*
X138879792Y-76655104D01*
X139018604Y-76516291D01*
X139079923Y-76482809D01*
X139149615Y-76487793D01*
X139205549Y-76529664D01*
X139211821Y-76538878D01*
X139215185Y-76544333D01*
X139215186Y-76544334D01*
X139307288Y-76693656D01*
X139431344Y-76817712D01*
X139580666Y-76909814D01*
X139747203Y-76964999D01*
X139849991Y-76975500D01*
X141150008Y-76975499D01*
X141252797Y-76964999D01*
X141419334Y-76909814D01*
X141568656Y-76817712D01*
X141692712Y-76693656D01*
X141784814Y-76544334D01*
X141839999Y-76377797D01*
X141850500Y-76275009D01*
X141850499Y-75243713D01*
X145649500Y-75243713D01*
X145649500Y-75756286D01*
X145682703Y-75965925D01*
X145682754Y-75966243D01*
X145737536Y-76134845D01*
X145748444Y-76168414D01*
X145844951Y-76357820D01*
X145969890Y-76529786D01*
X146120213Y-76680109D01*
X146292179Y-76805048D01*
X146292181Y-76805049D01*
X146292184Y-76805051D01*
X146481588Y-76901557D01*
X146683757Y-76967246D01*
X146893713Y-77000500D01*
X146893714Y-77000500D01*
X147106286Y-77000500D01*
X147106287Y-77000500D01*
X147316243Y-76967246D01*
X147518412Y-76901557D01*
X147707816Y-76805051D01*
X147765141Y-76763402D01*
X147879784Y-76680110D01*
X147879784Y-76680109D01*
X147879792Y-76680104D01*
X148018967Y-76540928D01*
X148080286Y-76507446D01*
X148149978Y-76512430D01*
X148205912Y-76554301D01*
X148212184Y-76563515D01*
X148307684Y-76718345D01*
X148431654Y-76842315D01*
X148580875Y-76934356D01*
X148580880Y-76934358D01*
X148747302Y-76989505D01*
X148747309Y-76989506D01*
X148850019Y-76999999D01*
X149249999Y-76999999D01*
X149250000Y-76999998D01*
X149250000Y-75933012D01*
X149307007Y-75965925D01*
X149434174Y-76000000D01*
X149565826Y-76000000D01*
X149692993Y-75965925D01*
X149750000Y-75933012D01*
X149750000Y-76999999D01*
X150149972Y-76999999D01*
X150149986Y-76999998D01*
X150252697Y-76989505D01*
X150419119Y-76934358D01*
X150419124Y-76934356D01*
X150568345Y-76842315D01*
X150692315Y-76718345D01*
X150784356Y-76569124D01*
X150784358Y-76569119D01*
X150839505Y-76402697D01*
X150839506Y-76402690D01*
X150849999Y-76299986D01*
X150850000Y-76299973D01*
X150850000Y-75750000D01*
X149933012Y-75750000D01*
X149965925Y-75692993D01*
X150000000Y-75565826D01*
X150000000Y-75434174D01*
X149965925Y-75307007D01*
X149933012Y-75250000D01*
X150849999Y-75250000D01*
X150849999Y-74700028D01*
X150849998Y-74700013D01*
X150839505Y-74597302D01*
X150784358Y-74430880D01*
X150784356Y-74430875D01*
X150692315Y-74281654D01*
X150568345Y-74157684D01*
X150419124Y-74065643D01*
X150419119Y-74065641D01*
X150252697Y-74010494D01*
X150252690Y-74010493D01*
X150149986Y-74000000D01*
X149750000Y-74000000D01*
X149750000Y-75066988D01*
X149692993Y-75034075D01*
X149565826Y-75000000D01*
X149434174Y-75000000D01*
X149307007Y-75034075D01*
X149250000Y-75066988D01*
X149250000Y-74000000D01*
X148850028Y-74000000D01*
X148850012Y-74000001D01*
X148747302Y-74010494D01*
X148580880Y-74065641D01*
X148580875Y-74065643D01*
X148431654Y-74157684D01*
X148307683Y-74281655D01*
X148307680Y-74281659D01*
X148212183Y-74436484D01*
X148160235Y-74483209D01*
X148091273Y-74494430D01*
X148027191Y-74466587D01*
X148018964Y-74459068D01*
X147879786Y-74319890D01*
X147707820Y-74194951D01*
X147518414Y-74098444D01*
X147518413Y-74098443D01*
X147518412Y-74098443D01*
X147316243Y-74032754D01*
X147316241Y-74032753D01*
X147316240Y-74032753D01*
X147154957Y-74007208D01*
X147106287Y-73999500D01*
X146893713Y-73999500D01*
X146845042Y-74007208D01*
X146683760Y-74032753D01*
X146481585Y-74098444D01*
X146292179Y-74194951D01*
X146120213Y-74319890D01*
X145969890Y-74470213D01*
X145844951Y-74642179D01*
X145748444Y-74831585D01*
X145682753Y-75033760D01*
X145649500Y-75243713D01*
X141850499Y-75243713D01*
X141850499Y-74724992D01*
X141839999Y-74622203D01*
X141784814Y-74455666D01*
X141692712Y-74306344D01*
X141568656Y-74182288D01*
X141475888Y-74125069D01*
X141419336Y-74090187D01*
X141419331Y-74090185D01*
X141345262Y-74065641D01*
X141335495Y-74062404D01*
X141278051Y-74022632D01*
X141251228Y-73958116D01*
X141250500Y-73944699D01*
X141250500Y-65027135D01*
X152244500Y-65027135D01*
X152244500Y-65972870D01*
X152244501Y-65972876D01*
X152250908Y-66032483D01*
X152301202Y-66167328D01*
X152301206Y-66167335D01*
X152387452Y-66282544D01*
X152387455Y-66282547D01*
X152502664Y-66368793D01*
X152502671Y-66368797D01*
X152637517Y-66419091D01*
X152637516Y-66419091D01*
X152644444Y-66419835D01*
X152697127Y-66425500D01*
X153642872Y-66425499D01*
X153702483Y-66419091D01*
X153837331Y-66368796D01*
X153952546Y-66282546D01*
X154038796Y-66167331D01*
X154089091Y-66032483D01*
X154095500Y-65972873D01*
X154095499Y-65027128D01*
X154089091Y-64967517D01*
X154076011Y-64932449D01*
X154038797Y-64832671D01*
X154038793Y-64832664D01*
X153952547Y-64717455D01*
X153952544Y-64717452D01*
X153837335Y-64631206D01*
X153837328Y-64631202D01*
X153702482Y-64580908D01*
X153702483Y-64580908D01*
X153642883Y-64574501D01*
X153642881Y-64574500D01*
X153642873Y-64574500D01*
X153642864Y-64574500D01*
X152697129Y-64574500D01*
X152697123Y-64574501D01*
X152637516Y-64580908D01*
X152502671Y-64631202D01*
X152502664Y-64631206D01*
X152387455Y-64717452D01*
X152387452Y-64717455D01*
X152301206Y-64832664D01*
X152301202Y-64832671D01*
X152250908Y-64967517D01*
X152244501Y-65027116D01*
X152244501Y-65027123D01*
X152244500Y-65027135D01*
X141250500Y-65027135D01*
X141250500Y-60702229D01*
X141270185Y-60635190D01*
X141286819Y-60614548D01*
X141522656Y-60378711D01*
X151149500Y-60378711D01*
X151149500Y-60621288D01*
X151181161Y-60861785D01*
X151243947Y-61096104D01*
X151336773Y-61320205D01*
X151336776Y-61320212D01*
X151458064Y-61530289D01*
X151458066Y-61530292D01*
X151458067Y-61530293D01*
X151605733Y-61722736D01*
X151605739Y-61722743D01*
X151777256Y-61894260D01*
X151777262Y-61894265D01*
X151969711Y-62041936D01*
X152179788Y-62163224D01*
X152403900Y-62256054D01*
X152638211Y-62318838D01*
X152818586Y-62342584D01*
X152878711Y-62350500D01*
X152878712Y-62350500D01*
X153121289Y-62350500D01*
X153169388Y-62344167D01*
X153361789Y-62318838D01*
X153596100Y-62256054D01*
X153820212Y-62163224D01*
X154030289Y-62041936D01*
X154222738Y-61894265D01*
X154394265Y-61722738D01*
X154541936Y-61530289D01*
X154663224Y-61320212D01*
X154756054Y-61096100D01*
X154818838Y-60861789D01*
X154850500Y-60621288D01*
X154850500Y-60378712D01*
X154818838Y-60138211D01*
X154756054Y-59903900D01*
X154663224Y-59679788D01*
X154541936Y-59469711D01*
X154394265Y-59277262D01*
X154394260Y-59277256D01*
X154222743Y-59105739D01*
X154222736Y-59105733D01*
X154030293Y-58958067D01*
X154030292Y-58958066D01*
X154030289Y-58958064D01*
X153820212Y-58836776D01*
X153820205Y-58836773D01*
X153596104Y-58743947D01*
X153361785Y-58681161D01*
X153121289Y-58649500D01*
X153121288Y-58649500D01*
X152878712Y-58649500D01*
X152878711Y-58649500D01*
X152638214Y-58681161D01*
X152403895Y-58743947D01*
X152179794Y-58836773D01*
X152179785Y-58836777D01*
X151969706Y-58958067D01*
X151777263Y-59105733D01*
X151777256Y-59105739D01*
X151605739Y-59277256D01*
X151605733Y-59277263D01*
X151458067Y-59469706D01*
X151336777Y-59679785D01*
X151336773Y-59679794D01*
X151243947Y-59903895D01*
X151181161Y-60138214D01*
X151149500Y-60378711D01*
X141522656Y-60378711D01*
X149704837Y-52196530D01*
X178649500Y-52196530D01*
X178649500Y-52803469D01*
X178689868Y-53006412D01*
X178689870Y-53006420D01*
X178769058Y-53197596D01*
X178884024Y-53369657D01*
X179030342Y-53515975D01*
X179030345Y-53515977D01*
X179202402Y-53630941D01*
X179393580Y-53710130D01*
X179596530Y-53750499D01*
X179596534Y-53750500D01*
X179596535Y-53750500D01*
X179803466Y-53750500D01*
X179803467Y-53750499D01*
X180006420Y-53710130D01*
X180197598Y-53630941D01*
X180369655Y-53515977D01*
X180512673Y-53372958D01*
X180573994Y-53339475D01*
X180643686Y-53344459D01*
X180688034Y-53372960D01*
X180830660Y-53515586D01*
X180830664Y-53515589D01*
X181002631Y-53630494D01*
X181002641Y-53630499D01*
X181193723Y-53709648D01*
X181193725Y-53709649D01*
X181250000Y-53720842D01*
X181750000Y-53720842D01*
X181806274Y-53709649D01*
X181806276Y-53709648D01*
X181997358Y-53630499D01*
X181997368Y-53630494D01*
X182169335Y-53515589D01*
X182169339Y-53515586D01*
X182315586Y-53369339D01*
X182315589Y-53369335D01*
X182430494Y-53197368D01*
X182430499Y-53197358D01*
X182509649Y-53006274D01*
X182509651Y-53006266D01*
X182549999Y-52803420D01*
X182550000Y-52803417D01*
X182550000Y-52750000D01*
X181750000Y-52750000D01*
X181750000Y-53720842D01*
X181250000Y-53720842D01*
X181250000Y-52744975D01*
X181285095Y-52780070D01*
X181364905Y-52826148D01*
X181453922Y-52850000D01*
X181546078Y-52850000D01*
X181635095Y-52826148D01*
X181714905Y-52780070D01*
X181780070Y-52714905D01*
X181826148Y-52635095D01*
X181850000Y-52546078D01*
X181850000Y-52453922D01*
X181826148Y-52364905D01*
X181780070Y-52285095D01*
X181744975Y-52250000D01*
X181750000Y-52250000D01*
X182550000Y-52250000D01*
X182550000Y-52196583D01*
X182549999Y-52196579D01*
X182509651Y-51993733D01*
X182509649Y-51993725D01*
X182430499Y-51802641D01*
X182430494Y-51802631D01*
X182315589Y-51630664D01*
X182315586Y-51630660D01*
X182169339Y-51484413D01*
X182169335Y-51484410D01*
X181997368Y-51369505D01*
X181997358Y-51369500D01*
X181806272Y-51290349D01*
X181806267Y-51290347D01*
X181750000Y-51279155D01*
X181750000Y-52250000D01*
X181744975Y-52250000D01*
X181714905Y-52219930D01*
X181635095Y-52173852D01*
X181546078Y-52150000D01*
X181453922Y-52150000D01*
X181364905Y-52173852D01*
X181285095Y-52219930D01*
X181250000Y-52255025D01*
X181250000Y-51279156D01*
X181249999Y-51279155D01*
X181193732Y-51290347D01*
X181193727Y-51290349D01*
X181002641Y-51369500D01*
X181002631Y-51369505D01*
X180830664Y-51484410D01*
X180688034Y-51627040D01*
X180626711Y-51660524D01*
X180557019Y-51655540D01*
X180512672Y-51627039D01*
X180369657Y-51484024D01*
X180244653Y-51400500D01*
X180197598Y-51369059D01*
X180006420Y-51289870D01*
X180006412Y-51289868D01*
X179803469Y-51249500D01*
X179803465Y-51249500D01*
X179596535Y-51249500D01*
X179596530Y-51249500D01*
X179393587Y-51289868D01*
X179393579Y-51289870D01*
X179202403Y-51369058D01*
X179030342Y-51484024D01*
X178884024Y-51630342D01*
X178769058Y-51802403D01*
X178689870Y-51993579D01*
X178689868Y-51993587D01*
X178649500Y-52196530D01*
X149704837Y-52196530D01*
X150514548Y-51386819D01*
X150575871Y-51353334D01*
X150602229Y-51350500D01*
X170205396Y-51350500D01*
X170252844Y-51359937D01*
X170276503Y-51369737D01*
X170276508Y-51369738D01*
X170276511Y-51369739D01*
X170431153Y-51400499D01*
X170431156Y-51400500D01*
X170431158Y-51400500D01*
X170588844Y-51400500D01*
X170588845Y-51400499D01*
X170743497Y-51369737D01*
X170889179Y-51309394D01*
X171020289Y-51221789D01*
X171131789Y-51110289D01*
X171219394Y-50979179D01*
X171279737Y-50833497D01*
X171310500Y-50678842D01*
X171310500Y-50521158D01*
X171310500Y-50521155D01*
X171310499Y-50521153D01*
X171279737Y-50366503D01*
X171260953Y-50321153D01*
X171219397Y-50220827D01*
X171219390Y-50220814D01*
X171131789Y-50089711D01*
X171131786Y-50089707D01*
X171020292Y-49978213D01*
X171020288Y-49978210D01*
X170889185Y-49890609D01*
X170889172Y-49890602D01*
X170743501Y-49830264D01*
X170743489Y-49830261D01*
X170588845Y-49799500D01*
X170588842Y-49799500D01*
X170431158Y-49799500D01*
X170431155Y-49799500D01*
X170276511Y-49830260D01*
X170276506Y-49830262D01*
X170276504Y-49830262D01*
X170276503Y-49830263D01*
X170252844Y-49840062D01*
X170205396Y-49849500D01*
X150166080Y-49849500D01*
X150021092Y-49878340D01*
X150021082Y-49878343D01*
X149884511Y-49934912D01*
X149884498Y-49934919D01*
X149761584Y-50017048D01*
X149761580Y-50017051D01*
X139917052Y-59861578D01*
X139917049Y-59861581D01*
X139888773Y-59903899D01*
X139888774Y-59903900D01*
X139834914Y-59984508D01*
X139778343Y-60121082D01*
X139778340Y-60121092D01*
X139749500Y-60266079D01*
X139749500Y-73944699D01*
X139729815Y-74011738D01*
X139677011Y-74057493D01*
X139664507Y-74062403D01*
X139654738Y-74065641D01*
X139580668Y-74090185D01*
X139580663Y-74090187D01*
X139431342Y-74182289D01*
X139307289Y-74306342D01*
X139211821Y-74461121D01*
X139159873Y-74507845D01*
X139090910Y-74519068D01*
X139026828Y-74491224D01*
X139018601Y-74483705D01*
X138879794Y-74344898D01*
X138879790Y-74344895D01*
X138879784Y-74344890D01*
X138801615Y-74288097D01*
X138758949Y-74232767D01*
X138750500Y-74187779D01*
X138750500Y-58012228D01*
X138770185Y-57945189D01*
X138786814Y-57924552D01*
X147907945Y-48803420D01*
X178650000Y-48803420D01*
X178690348Y-49006266D01*
X178690350Y-49006274D01*
X178769500Y-49197358D01*
X178769505Y-49197368D01*
X178884410Y-49369335D01*
X178884413Y-49369339D01*
X179030660Y-49515586D01*
X179030664Y-49515589D01*
X179202631Y-49630494D01*
X179202641Y-49630499D01*
X179393723Y-49709648D01*
X179393725Y-49709649D01*
X179450000Y-49720842D01*
X179450000Y-48750000D01*
X178650000Y-48750000D01*
X178650000Y-48803420D01*
X147907945Y-48803420D01*
X148257443Y-48453922D01*
X179350000Y-48453922D01*
X179350000Y-48546078D01*
X179373852Y-48635095D01*
X179419930Y-48714905D01*
X179485095Y-48780070D01*
X179564905Y-48826148D01*
X179653922Y-48850000D01*
X179746078Y-48850000D01*
X179835095Y-48826148D01*
X179914905Y-48780070D01*
X179950000Y-48744975D01*
X179950000Y-49720842D01*
X180006274Y-49709649D01*
X180006276Y-49709648D01*
X180197358Y-49630499D01*
X180197368Y-49630494D01*
X180369334Y-49515590D01*
X180431772Y-49453151D01*
X180493095Y-49419665D01*
X180562787Y-49424649D01*
X180608669Y-49457911D01*
X180609929Y-49456652D01*
X180614853Y-49461576D01*
X180738424Y-49585147D01*
X180886394Y-49678122D01*
X181051343Y-49735841D01*
X181051349Y-49735841D01*
X181051351Y-49735842D01*
X181092750Y-49740506D01*
X181181442Y-49750499D01*
X181181445Y-49750500D01*
X181181448Y-49750500D01*
X181818555Y-49750500D01*
X181818556Y-49750499D01*
X181948657Y-49735841D01*
X182113606Y-49678122D01*
X182261576Y-49585147D01*
X182385147Y-49461576D01*
X182478122Y-49313606D01*
X182535841Y-49148657D01*
X182550500Y-49018552D01*
X182550500Y-47981448D01*
X182535841Y-47851343D01*
X182478122Y-47686394D01*
X182385147Y-47538424D01*
X182261576Y-47414853D01*
X182113606Y-47321878D01*
X182113605Y-47321877D01*
X182113604Y-47321877D01*
X181948658Y-47264159D01*
X181948648Y-47264157D01*
X181818558Y-47249500D01*
X181818552Y-47249500D01*
X181181448Y-47249500D01*
X181181441Y-47249500D01*
X181051351Y-47264157D01*
X181051341Y-47264159D01*
X180886395Y-47321877D01*
X180738423Y-47414853D01*
X180609929Y-47543348D01*
X180608566Y-47541985D01*
X180559192Y-47576628D01*
X180489380Y-47579466D01*
X180431773Y-47546849D01*
X180369334Y-47484409D01*
X180197368Y-47369505D01*
X180197358Y-47369500D01*
X180006272Y-47290349D01*
X180006267Y-47290347D01*
X179950000Y-47279155D01*
X179950000Y-48255025D01*
X179914905Y-48219930D01*
X179835095Y-48173852D01*
X179746078Y-48150000D01*
X179653922Y-48150000D01*
X179564905Y-48173852D01*
X179485095Y-48219930D01*
X179419930Y-48285095D01*
X179373852Y-48364905D01*
X179350000Y-48453922D01*
X148257443Y-48453922D01*
X148514786Y-48196579D01*
X178650000Y-48196579D01*
X178650000Y-48250000D01*
X179450000Y-48250000D01*
X179450000Y-47279156D01*
X179449999Y-47279155D01*
X179393732Y-47290347D01*
X179393727Y-47290349D01*
X179202641Y-47369500D01*
X179202631Y-47369505D01*
X179030664Y-47484410D01*
X179030660Y-47484413D01*
X178884413Y-47630660D01*
X178884410Y-47630664D01*
X178769505Y-47802631D01*
X178769500Y-47802641D01*
X178690350Y-47993725D01*
X178690348Y-47993733D01*
X178650000Y-48196579D01*
X148514786Y-48196579D01*
X151514835Y-45196530D01*
X158049500Y-45196530D01*
X158049500Y-45803469D01*
X158089868Y-46006412D01*
X158089870Y-46006420D01*
X158169058Y-46197596D01*
X158284024Y-46369657D01*
X158430342Y-46515975D01*
X158430345Y-46515977D01*
X158602402Y-46630941D01*
X158793580Y-46710130D01*
X158996530Y-46750499D01*
X158996534Y-46750500D01*
X158996535Y-46750500D01*
X159203466Y-46750500D01*
X159203467Y-46750499D01*
X159406420Y-46710130D01*
X159597598Y-46630941D01*
X159769655Y-46515977D01*
X159912673Y-46372958D01*
X159973994Y-46339475D01*
X160043686Y-46344459D01*
X160088034Y-46372960D01*
X160230660Y-46515586D01*
X160230664Y-46515589D01*
X160402631Y-46630494D01*
X160402641Y-46630499D01*
X160593723Y-46709648D01*
X160593725Y-46709649D01*
X160650000Y-46720842D01*
X161150000Y-46720842D01*
X161206274Y-46709649D01*
X161206276Y-46709648D01*
X161397358Y-46630499D01*
X161397368Y-46630494D01*
X161569335Y-46515589D01*
X161569339Y-46515586D01*
X161715586Y-46369339D01*
X161715589Y-46369335D01*
X161830494Y-46197368D01*
X161830499Y-46197358D01*
X161909649Y-46006274D01*
X161909651Y-46006266D01*
X161949999Y-45803420D01*
X161950000Y-45803417D01*
X161950000Y-45750000D01*
X161150000Y-45750000D01*
X161150000Y-46720842D01*
X160650000Y-46720842D01*
X160650000Y-45744975D01*
X160685095Y-45780070D01*
X160764905Y-45826148D01*
X160853922Y-45850000D01*
X160946078Y-45850000D01*
X161035095Y-45826148D01*
X161114905Y-45780070D01*
X161180070Y-45714905D01*
X161226148Y-45635095D01*
X161250000Y-45546078D01*
X161250000Y-45453922D01*
X161226148Y-45364905D01*
X161180070Y-45285095D01*
X161144975Y-45250000D01*
X161150000Y-45250000D01*
X161950000Y-45250000D01*
X161950000Y-45196583D01*
X161949999Y-45196579D01*
X161909651Y-44993733D01*
X161909649Y-44993725D01*
X161830499Y-44802641D01*
X161830494Y-44802631D01*
X161715589Y-44630664D01*
X161715586Y-44630660D01*
X161569339Y-44484413D01*
X161569335Y-44484410D01*
X161397368Y-44369505D01*
X161397358Y-44369500D01*
X161206272Y-44290349D01*
X161206267Y-44290347D01*
X161150000Y-44279155D01*
X161150000Y-45250000D01*
X161144975Y-45250000D01*
X161114905Y-45219930D01*
X161035095Y-45173852D01*
X160946078Y-45150000D01*
X160853922Y-45150000D01*
X160764905Y-45173852D01*
X160685095Y-45219930D01*
X160650000Y-45255025D01*
X160650000Y-44279156D01*
X160649999Y-44279155D01*
X160593732Y-44290347D01*
X160593727Y-44290349D01*
X160402641Y-44369500D01*
X160402631Y-44369505D01*
X160230664Y-44484410D01*
X160088034Y-44627040D01*
X160026711Y-44660524D01*
X159957019Y-44655540D01*
X159912672Y-44627039D01*
X159769657Y-44484024D01*
X159598258Y-44369500D01*
X159597598Y-44369059D01*
X159542105Y-44346073D01*
X159406420Y-44289870D01*
X159406412Y-44289868D01*
X159203469Y-44249500D01*
X159203465Y-44249500D01*
X158996535Y-44249500D01*
X158996530Y-44249500D01*
X158793587Y-44289868D01*
X158793579Y-44289870D01*
X158602403Y-44369058D01*
X158430342Y-44484024D01*
X158284024Y-44630342D01*
X158169058Y-44802403D01*
X158089870Y-44993579D01*
X158089868Y-44993587D01*
X158049500Y-45196530D01*
X151514835Y-45196530D01*
X152365295Y-44346070D01*
X152405519Y-44319193D01*
X152429179Y-44309394D01*
X152560289Y-44221789D01*
X152671789Y-44110289D01*
X152759394Y-43979179D01*
X152819737Y-43833497D01*
X152850500Y-43678842D01*
X152850500Y-43521158D01*
X152850500Y-43521155D01*
X152850499Y-43521153D01*
X152844072Y-43488842D01*
X152819737Y-43366503D01*
X152805097Y-43331158D01*
X152759397Y-43220827D01*
X152759390Y-43220814D01*
X152671789Y-43089711D01*
X152671786Y-43089707D01*
X152560292Y-42978213D01*
X152560288Y-42978210D01*
X152429185Y-42890609D01*
X152429172Y-42890602D01*
X152283501Y-42830264D01*
X152283489Y-42830261D01*
X152128845Y-42799500D01*
X152128842Y-42799500D01*
X151971158Y-42799500D01*
X151971155Y-42799500D01*
X151816510Y-42830261D01*
X151816498Y-42830264D01*
X151670827Y-42890602D01*
X151670814Y-42890609D01*
X151539711Y-42978210D01*
X151539707Y-42978213D01*
X151428213Y-43089707D01*
X151428207Y-43089715D01*
X151340607Y-43220818D01*
X151340605Y-43220822D01*
X151330805Y-43244480D01*
X151303927Y-43284704D01*
X137417050Y-57171580D01*
X137417044Y-57171588D01*
X137367812Y-57245268D01*
X137367813Y-57245269D01*
X137334921Y-57294496D01*
X137334914Y-57294508D01*
X137278342Y-57431086D01*
X137278340Y-57431092D01*
X137249500Y-57576079D01*
X137249500Y-74187779D01*
X137229815Y-74254818D01*
X137198385Y-74288097D01*
X137120211Y-74344893D01*
X137120205Y-74344898D01*
X136969894Y-74495209D01*
X136969890Y-74495214D01*
X136850318Y-74659793D01*
X136794989Y-74702459D01*
X136725375Y-74708438D01*
X136663580Y-74675833D01*
X136649682Y-74659793D01*
X136530109Y-74495214D01*
X136530105Y-74495209D01*
X136379791Y-74344895D01*
X136311613Y-74295360D01*
X136268948Y-74240030D01*
X136260500Y-74195043D01*
X136260500Y-55022229D01*
X136280185Y-54955190D01*
X136296819Y-54934548D01*
X146432948Y-44798419D01*
X146432951Y-44798416D01*
X146515084Y-44675495D01*
X146571658Y-44538913D01*
X146600500Y-44393918D01*
X146600500Y-44246083D01*
X146600500Y-43544604D01*
X146609939Y-43497151D01*
X146613380Y-43488844D01*
X146619737Y-43473497D01*
X146650500Y-43318842D01*
X146650500Y-43161158D01*
X146650500Y-43161155D01*
X146650499Y-43161153D01*
X146624574Y-43030821D01*
X146619737Y-43006503D01*
X146598405Y-42955002D01*
X146559397Y-42860827D01*
X146559390Y-42860814D01*
X146471789Y-42729711D01*
X146471786Y-42729707D01*
X146360292Y-42618213D01*
X146360288Y-42618210D01*
X146229185Y-42530609D01*
X146229172Y-42530602D01*
X146083501Y-42470264D01*
X146083489Y-42470261D01*
X145928845Y-42439500D01*
X145928842Y-42439500D01*
X145771158Y-42439500D01*
X145771155Y-42439500D01*
X145616510Y-42470261D01*
X145616498Y-42470264D01*
X145470827Y-42530602D01*
X145470814Y-42530609D01*
X145339711Y-42618210D01*
X145339707Y-42618213D01*
X145228213Y-42729707D01*
X145228210Y-42729711D01*
X145140609Y-42860814D01*
X145140602Y-42860827D01*
X145080264Y-43006498D01*
X145080261Y-43006510D01*
X145049500Y-43161153D01*
X145049500Y-43318846D01*
X145080261Y-43473489D01*
X145080263Y-43473497D01*
X145090061Y-43497151D01*
X145099500Y-43544604D01*
X145099500Y-43957769D01*
X145079815Y-44024808D01*
X145063181Y-44045450D01*
X134927050Y-54181580D01*
X134927044Y-54181588D01*
X134877812Y-54255268D01*
X134877813Y-54255269D01*
X134844921Y-54304496D01*
X134844914Y-54304508D01*
X134788342Y-54441086D01*
X134788340Y-54441092D01*
X134759500Y-54586079D01*
X134759500Y-74180513D01*
X134739815Y-74247552D01*
X134708385Y-74280831D01*
X134620214Y-74344890D01*
X134620209Y-74344894D01*
X134469894Y-74495209D01*
X134469890Y-74495214D01*
X134350318Y-74659793D01*
X134294989Y-74702459D01*
X134225375Y-74708438D01*
X134163580Y-74675833D01*
X134149682Y-74659793D01*
X134030109Y-74495214D01*
X134030105Y-74495209D01*
X133879794Y-74344898D01*
X133879790Y-74344895D01*
X133879784Y-74344890D01*
X133801615Y-74288097D01*
X133758949Y-74232767D01*
X133750500Y-74187779D01*
X133750500Y-54426079D01*
X133721659Y-54281092D01*
X133721658Y-54281091D01*
X133721658Y-54281087D01*
X133710964Y-54255269D01*
X133665087Y-54144511D01*
X133665080Y-54144498D01*
X133582952Y-54021585D01*
X133582951Y-54021584D01*
X133478416Y-53917049D01*
X132196462Y-52635095D01*
X130756819Y-51195451D01*
X130723334Y-51134128D01*
X130720500Y-51107770D01*
X130720500Y-43714604D01*
X130729939Y-43667151D01*
X130739737Y-43643497D01*
X130770500Y-43488842D01*
X130770500Y-43331158D01*
X130770500Y-43331155D01*
X130770499Y-43331153D01*
X130768050Y-43318842D01*
X130739737Y-43176503D01*
X130733379Y-43161153D01*
X130679397Y-43030827D01*
X130679390Y-43030814D01*
X130591789Y-42899711D01*
X130591786Y-42899707D01*
X130480292Y-42788213D01*
X130480288Y-42788210D01*
X130349185Y-42700609D01*
X130349172Y-42700602D01*
X130203501Y-42640264D01*
X130203489Y-42640261D01*
X130048845Y-42609500D01*
X130048842Y-42609500D01*
X129891158Y-42609500D01*
X129891155Y-42609500D01*
X129736510Y-42640261D01*
X129736498Y-42640264D01*
X129590827Y-42700602D01*
X129590814Y-42700609D01*
X129459711Y-42788210D01*
X129459707Y-42788213D01*
X129348213Y-42899707D01*
X129348210Y-42899711D01*
X129260609Y-43030814D01*
X129260602Y-43030827D01*
X129200264Y-43176498D01*
X129200261Y-43176510D01*
X129169500Y-43331153D01*
X129169500Y-43488846D01*
X129200261Y-43643489D01*
X129200263Y-43643497D01*
X129210061Y-43667151D01*
X129219500Y-43714604D01*
X129219500Y-51543918D01*
X129219500Y-51543920D01*
X129219499Y-51543920D01*
X129248340Y-51688907D01*
X129248343Y-51688917D01*
X129304913Y-51825490D01*
X129304915Y-51825493D01*
X129304916Y-51825495D01*
X129314188Y-51839371D01*
X129314189Y-51839374D01*
X129314190Y-51839374D01*
X129387051Y-51948420D01*
X129387052Y-51948421D01*
X132213181Y-54774548D01*
X132246666Y-54835871D01*
X132249500Y-54862229D01*
X132249500Y-74187779D01*
X132229815Y-74254818D01*
X132198385Y-74288097D01*
X132120211Y-74344893D01*
X132120205Y-74344898D01*
X131969894Y-74495209D01*
X131969890Y-74495214D01*
X131850318Y-74659793D01*
X131794989Y-74702459D01*
X131725375Y-74708438D01*
X131663580Y-74675833D01*
X131649682Y-74659793D01*
X131530109Y-74495214D01*
X131530105Y-74495209D01*
X131379794Y-74344898D01*
X131379790Y-74344895D01*
X131379784Y-74344890D01*
X131301615Y-74288097D01*
X131258949Y-74232767D01*
X131250500Y-74187779D01*
X131250500Y-56626079D01*
X131221659Y-56481092D01*
X131221658Y-56481091D01*
X131221658Y-56481087D01*
X131221656Y-56481082D01*
X131165087Y-56344511D01*
X131165080Y-56344498D01*
X131082952Y-56221585D01*
X131082951Y-56221584D01*
X130978416Y-56117049D01*
X129447446Y-54586079D01*
X124678421Y-49817052D01*
X124678414Y-49817046D01*
X124578818Y-49750499D01*
X124578817Y-49750499D01*
X124555495Y-49734916D01*
X124555488Y-49734912D01*
X124418917Y-49678343D01*
X124418907Y-49678340D01*
X124273920Y-49649500D01*
X124273918Y-49649500D01*
X108884604Y-49649500D01*
X108837155Y-49640062D01*
X108813497Y-49630263D01*
X108813493Y-49630262D01*
X108813488Y-49630260D01*
X108658845Y-49599500D01*
X108658842Y-49599500D01*
X108501158Y-49599500D01*
X108501155Y-49599500D01*
X108346510Y-49630261D01*
X108346498Y-49630264D01*
X108200827Y-49690602D01*
X108200814Y-49690609D01*
X108069711Y-49778210D01*
X108069707Y-49778213D01*
X107958213Y-49889707D01*
X107958210Y-49889711D01*
X107870609Y-50020814D01*
X107870602Y-50020827D01*
X107810264Y-50166498D01*
X107810261Y-50166510D01*
X107779500Y-50321153D01*
X106250500Y-50321153D01*
X106250500Y-49844604D01*
X106259939Y-49797151D01*
X106269737Y-49773497D01*
X106300500Y-49618842D01*
X106300500Y-49461158D01*
X106300500Y-49461155D01*
X106300499Y-49461153D01*
X106277287Y-49344459D01*
X106269737Y-49306503D01*
X106269735Y-49306498D01*
X106209397Y-49160827D01*
X106209390Y-49160814D01*
X106121789Y-49029711D01*
X106121786Y-49029707D01*
X106010292Y-48918213D01*
X106010288Y-48918210D01*
X105879185Y-48830609D01*
X105879172Y-48830602D01*
X105733501Y-48770264D01*
X105733489Y-48770261D01*
X105578845Y-48739500D01*
X105578842Y-48739500D01*
X105421158Y-48739500D01*
X105421155Y-48739500D01*
X105266510Y-48770261D01*
X105266498Y-48770264D01*
X105120827Y-48830602D01*
X105120814Y-48830609D01*
X104989711Y-48918210D01*
X104989707Y-48918213D01*
X104878213Y-49029707D01*
X104878210Y-49029711D01*
X104790609Y-49160814D01*
X104790602Y-49160827D01*
X104730264Y-49306498D01*
X104730261Y-49306510D01*
X104699500Y-49461153D01*
X101024479Y-49461153D01*
X101115977Y-49369655D01*
X101230941Y-49197598D01*
X101310130Y-49006420D01*
X101350500Y-48803465D01*
X101350500Y-48196535D01*
X101310130Y-47993580D01*
X101230941Y-47802402D01*
X101115977Y-47630345D01*
X101115975Y-47630342D01*
X100969657Y-47484024D01*
X100798258Y-47369500D01*
X100797598Y-47369059D01*
X100606420Y-47289870D01*
X100606412Y-47289868D01*
X100403469Y-47249500D01*
X100403465Y-47249500D01*
X100196535Y-47249500D01*
X100196530Y-47249500D01*
X99993587Y-47289868D01*
X99993579Y-47289870D01*
X99802403Y-47369058D01*
X99630344Y-47484023D01*
X99487327Y-47627040D01*
X99426004Y-47660524D01*
X99356312Y-47655540D01*
X99311965Y-47627039D01*
X99169339Y-47484413D01*
X99169335Y-47484410D01*
X98997368Y-47369505D01*
X98997358Y-47369500D01*
X98806272Y-47290349D01*
X98806267Y-47290347D01*
X98750000Y-47279155D01*
X98750000Y-48255025D01*
X98714905Y-48219930D01*
X98635095Y-48173852D01*
X98546078Y-48150000D01*
X98453922Y-48150000D01*
X98364905Y-48173852D01*
X98285095Y-48219930D01*
X98219930Y-48285095D01*
X98173852Y-48364905D01*
X98150000Y-48453922D01*
X94971540Y-48453922D01*
X94989283Y-48310289D01*
X95003330Y-48196579D01*
X97450000Y-48196579D01*
X97450000Y-48250000D01*
X98250000Y-48250000D01*
X98250000Y-47279156D01*
X98249999Y-47279155D01*
X98193732Y-47290347D01*
X98193727Y-47290349D01*
X98002641Y-47369500D01*
X98002631Y-47369505D01*
X97830664Y-47484410D01*
X97830660Y-47484413D01*
X97684413Y-47630660D01*
X97684410Y-47630664D01*
X97569505Y-47802631D01*
X97569500Y-47802641D01*
X97490350Y-47993725D01*
X97490348Y-47993733D01*
X97450000Y-48196579D01*
X95003330Y-48196579D01*
X95005960Y-48175290D01*
X95029783Y-47982437D01*
X95030180Y-47979514D01*
X95049118Y-47851343D01*
X95243679Y-46534577D01*
X95244143Y-46531678D01*
X95272036Y-46369657D01*
X95439554Y-45396580D01*
X95470327Y-45333853D01*
X95506398Y-45306662D01*
X96158288Y-44981441D01*
X118049500Y-44981441D01*
X118049500Y-46018558D01*
X118064157Y-46148648D01*
X118064159Y-46148658D01*
X118081284Y-46197598D01*
X118121878Y-46313606D01*
X118214853Y-46461576D01*
X118338424Y-46585147D01*
X118486394Y-46678122D01*
X118651343Y-46735841D01*
X118651349Y-46735841D01*
X118651351Y-46735842D01*
X118692750Y-46740506D01*
X118781442Y-46750499D01*
X118781445Y-46750500D01*
X118781448Y-46750500D01*
X119418555Y-46750500D01*
X119418556Y-46750499D01*
X119548657Y-46735841D01*
X119713606Y-46678122D01*
X119861576Y-46585147D01*
X119985147Y-46461576D01*
X119985147Y-46461575D01*
X119990071Y-46456652D01*
X119991435Y-46458016D01*
X120040786Y-46423379D01*
X120110598Y-46420529D01*
X120168225Y-46453151D01*
X120230660Y-46515586D01*
X120230664Y-46515589D01*
X120402631Y-46630494D01*
X120402641Y-46630499D01*
X120593723Y-46709648D01*
X120593725Y-46709649D01*
X120650000Y-46720842D01*
X121150000Y-46720842D01*
X121206274Y-46709649D01*
X121206276Y-46709648D01*
X121397358Y-46630499D01*
X121397368Y-46630494D01*
X121569335Y-46515589D01*
X121569339Y-46515586D01*
X121715586Y-46369339D01*
X121715589Y-46369335D01*
X121830494Y-46197368D01*
X121830499Y-46197358D01*
X121909649Y-46006274D01*
X121909651Y-46006266D01*
X121949999Y-45803420D01*
X121950000Y-45803417D01*
X121950000Y-45750000D01*
X121150000Y-45750000D01*
X121150000Y-46720842D01*
X120650000Y-46720842D01*
X120650000Y-45744975D01*
X120685095Y-45780070D01*
X120764905Y-45826148D01*
X120853922Y-45850000D01*
X120946078Y-45850000D01*
X121035095Y-45826148D01*
X121114905Y-45780070D01*
X121180070Y-45714905D01*
X121226148Y-45635095D01*
X121250000Y-45546078D01*
X121250000Y-45453922D01*
X121226148Y-45364905D01*
X121180070Y-45285095D01*
X121144975Y-45250000D01*
X121150000Y-45250000D01*
X121950000Y-45250000D01*
X121950000Y-45196583D01*
X121949999Y-45196579D01*
X121909651Y-44993733D01*
X121909649Y-44993725D01*
X121830499Y-44802641D01*
X121830494Y-44802631D01*
X121715589Y-44630664D01*
X121715586Y-44630660D01*
X121569339Y-44484413D01*
X121569335Y-44484410D01*
X121397368Y-44369505D01*
X121397358Y-44369500D01*
X121206272Y-44290349D01*
X121206267Y-44290347D01*
X121150000Y-44279155D01*
X121150000Y-45250000D01*
X121144975Y-45250000D01*
X121114905Y-45219930D01*
X121035095Y-45173852D01*
X120946078Y-45150000D01*
X120853922Y-45150000D01*
X120764905Y-45173852D01*
X120685095Y-45219930D01*
X120650000Y-45255025D01*
X120650000Y-44279156D01*
X120649999Y-44279155D01*
X120593732Y-44290347D01*
X120593727Y-44290349D01*
X120402641Y-44369500D01*
X120402631Y-44369505D01*
X120230664Y-44484410D01*
X120168225Y-44546849D01*
X120106901Y-44580333D01*
X120037210Y-44575348D01*
X119991328Y-44542090D01*
X119990071Y-44543348D01*
X119861576Y-44414853D01*
X119828258Y-44393918D01*
X119713606Y-44321878D01*
X119713605Y-44321877D01*
X119713604Y-44321877D01*
X119548658Y-44264159D01*
X119548648Y-44264157D01*
X119418558Y-44249500D01*
X119418552Y-44249500D01*
X118781448Y-44249500D01*
X118781441Y-44249500D01*
X118651351Y-44264157D01*
X118651341Y-44264159D01*
X118486395Y-44321877D01*
X118338423Y-44414853D01*
X118214853Y-44538423D01*
X118121877Y-44686395D01*
X118064159Y-44851341D01*
X118064157Y-44851351D01*
X118049500Y-44981441D01*
X96158288Y-44981441D01*
X96959861Y-44581545D01*
X96961932Y-44580538D01*
X98709589Y-43751217D01*
X98711746Y-43750219D01*
X100475373Y-42955480D01*
X100477526Y-42954536D01*
X102256483Y-42194669D01*
X102258596Y-42193791D01*
X103224744Y-41803420D01*
X118050000Y-41803420D01*
X118090348Y-42006266D01*
X118090350Y-42006274D01*
X118169500Y-42197358D01*
X118169505Y-42197368D01*
X118284410Y-42369335D01*
X118284413Y-42369339D01*
X118430660Y-42515586D01*
X118430664Y-42515589D01*
X118602631Y-42630494D01*
X118602641Y-42630499D01*
X118793723Y-42709648D01*
X118793725Y-42709649D01*
X118850000Y-42720842D01*
X118850000Y-41750000D01*
X118050000Y-41750000D01*
X118050000Y-41803420D01*
X103224744Y-41803420D01*
X104052238Y-41469072D01*
X104054305Y-41468261D01*
X104091909Y-41453922D01*
X118750000Y-41453922D01*
X118750000Y-41546078D01*
X118773852Y-41635095D01*
X118819930Y-41714905D01*
X118885095Y-41780070D01*
X118964905Y-41826148D01*
X119053922Y-41850000D01*
X119146078Y-41850000D01*
X119235095Y-41826148D01*
X119314905Y-41780070D01*
X119350000Y-41744975D01*
X119350000Y-42720842D01*
X119406274Y-42709649D01*
X119406276Y-42709648D01*
X119597358Y-42630499D01*
X119597368Y-42630494D01*
X119769334Y-42515590D01*
X119911964Y-42372960D01*
X119973287Y-42339475D01*
X120042979Y-42344459D01*
X120087327Y-42372960D01*
X120230342Y-42515975D01*
X120230345Y-42515977D01*
X120402402Y-42630941D01*
X120593580Y-42710130D01*
X120790623Y-42749324D01*
X120796530Y-42750499D01*
X120796534Y-42750500D01*
X120796535Y-42750500D01*
X121003466Y-42750500D01*
X121003467Y-42750499D01*
X121206420Y-42710130D01*
X121397598Y-42630941D01*
X121569655Y-42515977D01*
X121654479Y-42431153D01*
X123999500Y-42431153D01*
X123999500Y-42588846D01*
X124030261Y-42743489D01*
X124030263Y-42743497D01*
X124050061Y-42791293D01*
X124059500Y-42838746D01*
X124059500Y-47495396D01*
X124050062Y-47542844D01*
X124049854Y-47543348D01*
X124040262Y-47566506D01*
X124040260Y-47566511D01*
X124009500Y-47721153D01*
X124009500Y-47878846D01*
X124040261Y-48033489D01*
X124040264Y-48033501D01*
X124100602Y-48179172D01*
X124100609Y-48179185D01*
X124188210Y-48310288D01*
X124188213Y-48310292D01*
X124299707Y-48421786D01*
X124299711Y-48421789D01*
X124430814Y-48509390D01*
X124430827Y-48509397D01*
X124576498Y-48569735D01*
X124576503Y-48569737D01*
X124731153Y-48600499D01*
X124731156Y-48600500D01*
X124731158Y-48600500D01*
X124888844Y-48600500D01*
X124888845Y-48600499D01*
X125043497Y-48569737D01*
X125189179Y-48509394D01*
X125320289Y-48421789D01*
X125431789Y-48310289D01*
X125519394Y-48179179D01*
X125521601Y-48173852D01*
X125579735Y-48033501D01*
X125579737Y-48033497D01*
X125610500Y-47878842D01*
X125610500Y-47721158D01*
X125610500Y-47721155D01*
X125610499Y-47721153D01*
X125579739Y-47566511D01*
X125579738Y-47566508D01*
X125579737Y-47566503D01*
X125569937Y-47542844D01*
X125560500Y-47495396D01*
X125560500Y-42790461D01*
X125568643Y-42749528D01*
X125567969Y-42749324D01*
X125569731Y-42743509D01*
X125569737Y-42743497D01*
X125600500Y-42588842D01*
X125600500Y-42481441D01*
X138049500Y-42481441D01*
X138049500Y-43518558D01*
X138064157Y-43648648D01*
X138064159Y-43648658D01*
X138121877Y-43813604D01*
X138121878Y-43813606D01*
X138214853Y-43961576D01*
X138338424Y-44085147D01*
X138486394Y-44178122D01*
X138651343Y-44235841D01*
X138651349Y-44235841D01*
X138651351Y-44235842D01*
X138692750Y-44240506D01*
X138781442Y-44250499D01*
X138781445Y-44250500D01*
X138781448Y-44250500D01*
X139418555Y-44250500D01*
X139418556Y-44250499D01*
X139548657Y-44235841D01*
X139713606Y-44178122D01*
X139861576Y-44085147D01*
X139985147Y-43961576D01*
X139985147Y-43961575D01*
X139990071Y-43956652D01*
X139991435Y-43958016D01*
X140040786Y-43923379D01*
X140110598Y-43920529D01*
X140168225Y-43953151D01*
X140230660Y-44015586D01*
X140230664Y-44015589D01*
X140402631Y-44130494D01*
X140402641Y-44130499D01*
X140593723Y-44209648D01*
X140593725Y-44209649D01*
X140650000Y-44220842D01*
X141150000Y-44220842D01*
X141206274Y-44209649D01*
X141206276Y-44209648D01*
X141397358Y-44130499D01*
X141397368Y-44130494D01*
X141569335Y-44015589D01*
X141569339Y-44015586D01*
X141715586Y-43869339D01*
X141715589Y-43869335D01*
X141830494Y-43697368D01*
X141830499Y-43697358D01*
X141909649Y-43506274D01*
X141909651Y-43506266D01*
X141949999Y-43303420D01*
X141950000Y-43303417D01*
X141950000Y-43250000D01*
X141150000Y-43250000D01*
X141150000Y-44220842D01*
X140650000Y-44220842D01*
X140650000Y-43244975D01*
X140685095Y-43280070D01*
X140764905Y-43326148D01*
X140853922Y-43350000D01*
X140946078Y-43350000D01*
X141035095Y-43326148D01*
X141114905Y-43280070D01*
X141180070Y-43214905D01*
X141226148Y-43135095D01*
X141250000Y-43046078D01*
X141250000Y-42953922D01*
X141226148Y-42864905D01*
X141180070Y-42785095D01*
X141144975Y-42750000D01*
X141150000Y-42750000D01*
X141950000Y-42750000D01*
X141950000Y-42696583D01*
X141949999Y-42696579D01*
X141909651Y-42493733D01*
X141909649Y-42493725D01*
X141830499Y-42302641D01*
X141830494Y-42302631D01*
X141715589Y-42130664D01*
X141715586Y-42130660D01*
X141569339Y-41984413D01*
X141569335Y-41984410D01*
X141397368Y-41869505D01*
X141397358Y-41869500D01*
X141261436Y-41813199D01*
X141237828Y-41803420D01*
X158050000Y-41803420D01*
X158090348Y-42006266D01*
X158090350Y-42006274D01*
X158169500Y-42197358D01*
X158169505Y-42197368D01*
X158284410Y-42369335D01*
X158284413Y-42369339D01*
X158430660Y-42515586D01*
X158430664Y-42515589D01*
X158602631Y-42630494D01*
X158602641Y-42630499D01*
X158793723Y-42709648D01*
X158793725Y-42709649D01*
X158850000Y-42720842D01*
X158850000Y-41750000D01*
X158050000Y-41750000D01*
X158050000Y-41803420D01*
X141237828Y-41803420D01*
X141206272Y-41790349D01*
X141206267Y-41790347D01*
X141150000Y-41779155D01*
X141150000Y-42750000D01*
X141144975Y-42750000D01*
X141114905Y-42719930D01*
X141035095Y-42673852D01*
X140946078Y-42650000D01*
X140853922Y-42650000D01*
X140764905Y-42673852D01*
X140685095Y-42719930D01*
X140650000Y-42755025D01*
X140650000Y-41779156D01*
X140649999Y-41779155D01*
X140593732Y-41790347D01*
X140593727Y-41790349D01*
X140402641Y-41869500D01*
X140402631Y-41869505D01*
X140230664Y-41984410D01*
X140168225Y-42046849D01*
X140106901Y-42080333D01*
X140037210Y-42075348D01*
X139991328Y-42042090D01*
X139990071Y-42043348D01*
X139861576Y-41914853D01*
X139819175Y-41888211D01*
X139713606Y-41821878D01*
X139713605Y-41821877D01*
X139713604Y-41821877D01*
X139548658Y-41764159D01*
X139548648Y-41764157D01*
X139418558Y-41749500D01*
X139418552Y-41749500D01*
X138781448Y-41749500D01*
X138781441Y-41749500D01*
X138651351Y-41764157D01*
X138651341Y-41764159D01*
X138486395Y-41821877D01*
X138338423Y-41914853D01*
X138214853Y-42038423D01*
X138121877Y-42186395D01*
X138064159Y-42351341D01*
X138064157Y-42351351D01*
X138049500Y-42481441D01*
X125600500Y-42481441D01*
X125600500Y-42431158D01*
X125600500Y-42431155D01*
X125600499Y-42431153D01*
X125598214Y-42419665D01*
X125569737Y-42276503D01*
X125537054Y-42197598D01*
X125509397Y-42130827D01*
X125509390Y-42130814D01*
X125421789Y-41999711D01*
X125421786Y-41999707D01*
X125310292Y-41888213D01*
X125310288Y-41888210D01*
X125179185Y-41800609D01*
X125179172Y-41800602D01*
X125033501Y-41740264D01*
X125033489Y-41740261D01*
X124878845Y-41709500D01*
X124878842Y-41709500D01*
X124721158Y-41709500D01*
X124721155Y-41709500D01*
X124566510Y-41740261D01*
X124566498Y-41740264D01*
X124420827Y-41800602D01*
X124420814Y-41800609D01*
X124289711Y-41888210D01*
X124289707Y-41888213D01*
X124178213Y-41999707D01*
X124178210Y-41999711D01*
X124090609Y-42130814D01*
X124090602Y-42130827D01*
X124030264Y-42276498D01*
X124030261Y-42276510D01*
X123999500Y-42431153D01*
X121654479Y-42431153D01*
X121715977Y-42369655D01*
X121830941Y-42197598D01*
X121910130Y-42006420D01*
X121950500Y-41803465D01*
X121950500Y-41453922D01*
X158750000Y-41453922D01*
X158750000Y-41546078D01*
X158773852Y-41635095D01*
X158819930Y-41714905D01*
X158885095Y-41780070D01*
X158964905Y-41826148D01*
X159053922Y-41850000D01*
X159146078Y-41850000D01*
X159235095Y-41826148D01*
X159314905Y-41780070D01*
X159350000Y-41744975D01*
X159350000Y-42720842D01*
X159406274Y-42709649D01*
X159406276Y-42709648D01*
X159597358Y-42630499D01*
X159597368Y-42630494D01*
X159769334Y-42515590D01*
X159831772Y-42453151D01*
X159893095Y-42419665D01*
X159962787Y-42424649D01*
X160008669Y-42457911D01*
X160009929Y-42456652D01*
X160014853Y-42461576D01*
X160138424Y-42585147D01*
X160286394Y-42678122D01*
X160451343Y-42735841D01*
X160451349Y-42735841D01*
X160451351Y-42735842D01*
X160492750Y-42740506D01*
X160581442Y-42750499D01*
X160581445Y-42750500D01*
X160581448Y-42750500D01*
X161218555Y-42750500D01*
X161218556Y-42750499D01*
X161348657Y-42735841D01*
X161513606Y-42678122D01*
X161661576Y-42585147D01*
X161785147Y-42461576D01*
X161878122Y-42313606D01*
X161935841Y-42148657D01*
X161950500Y-42018552D01*
X161950500Y-40981448D01*
X161935841Y-40851343D01*
X161878122Y-40686394D01*
X161785147Y-40538424D01*
X161661576Y-40414853D01*
X161513606Y-40321878D01*
X161513605Y-40321877D01*
X161513604Y-40321877D01*
X161348658Y-40264159D01*
X161348648Y-40264157D01*
X161218558Y-40249500D01*
X161218552Y-40249500D01*
X160581448Y-40249500D01*
X160581441Y-40249500D01*
X160451351Y-40264157D01*
X160451341Y-40264159D01*
X160286395Y-40321877D01*
X160138423Y-40414853D01*
X160009929Y-40543348D01*
X160008566Y-40541985D01*
X159959192Y-40576628D01*
X159889380Y-40579466D01*
X159831773Y-40546849D01*
X159769334Y-40484409D01*
X159597368Y-40369505D01*
X159597358Y-40369500D01*
X159406272Y-40290349D01*
X159406267Y-40290347D01*
X159350000Y-40279155D01*
X159350000Y-41255025D01*
X159314905Y-41219930D01*
X159235095Y-41173852D01*
X159146078Y-41150000D01*
X159053922Y-41150000D01*
X158964905Y-41173852D01*
X158885095Y-41219930D01*
X158819930Y-41285095D01*
X158773852Y-41364905D01*
X158750000Y-41453922D01*
X121950500Y-41453922D01*
X121950500Y-41196579D01*
X158050000Y-41196579D01*
X158050000Y-41250000D01*
X158850000Y-41250000D01*
X158850000Y-40279156D01*
X158849999Y-40279155D01*
X158793732Y-40290347D01*
X158793727Y-40290349D01*
X158602641Y-40369500D01*
X158602631Y-40369505D01*
X158430664Y-40484410D01*
X158430660Y-40484413D01*
X158284413Y-40630660D01*
X158284410Y-40630664D01*
X158169505Y-40802631D01*
X158169500Y-40802641D01*
X158090350Y-40993725D01*
X158090348Y-40993733D01*
X158050000Y-41196579D01*
X121950500Y-41196579D01*
X121950500Y-41196535D01*
X121910130Y-40993580D01*
X121830941Y-40802402D01*
X121715977Y-40630345D01*
X121715975Y-40630342D01*
X121569657Y-40484024D01*
X121398258Y-40369500D01*
X121397598Y-40369059D01*
X121206420Y-40289870D01*
X121206412Y-40289868D01*
X121003469Y-40249500D01*
X121003465Y-40249500D01*
X120796535Y-40249500D01*
X120796530Y-40249500D01*
X120593587Y-40289868D01*
X120593579Y-40289870D01*
X120402403Y-40369058D01*
X120230344Y-40484023D01*
X120087327Y-40627040D01*
X120026004Y-40660524D01*
X119956312Y-40655540D01*
X119911965Y-40627039D01*
X119769339Y-40484413D01*
X119769335Y-40484410D01*
X119597368Y-40369505D01*
X119597358Y-40369500D01*
X119406272Y-40290349D01*
X119406267Y-40290347D01*
X119350000Y-40279155D01*
X119350000Y-41255025D01*
X119314905Y-41219930D01*
X119235095Y-41173852D01*
X119146078Y-41150000D01*
X119053922Y-41150000D01*
X118964905Y-41173852D01*
X118885095Y-41219930D01*
X118819930Y-41285095D01*
X118773852Y-41364905D01*
X118750000Y-41453922D01*
X104091909Y-41453922D01*
X104766783Y-41196579D01*
X118050000Y-41196579D01*
X118050000Y-41250000D01*
X118850000Y-41250000D01*
X118850000Y-40279156D01*
X118849999Y-40279155D01*
X118793732Y-40290347D01*
X118793727Y-40290349D01*
X118602641Y-40369500D01*
X118602631Y-40369505D01*
X118430664Y-40484410D01*
X118430660Y-40484413D01*
X118284413Y-40630660D01*
X118284410Y-40630664D01*
X118169505Y-40802631D01*
X118169500Y-40802641D01*
X118090350Y-40993725D01*
X118090348Y-40993733D01*
X118050000Y-41196579D01*
X104766783Y-41196579D01*
X105861849Y-40779009D01*
X105863987Y-40778217D01*
X107684761Y-40124687D01*
X107686975Y-40123917D01*
X109520176Y-39506396D01*
X109522345Y-39505689D01*
X110164327Y-39303420D01*
X138050000Y-39303420D01*
X138090348Y-39506266D01*
X138090350Y-39506274D01*
X138169500Y-39697358D01*
X138169505Y-39697368D01*
X138284410Y-39869335D01*
X138284413Y-39869339D01*
X138430660Y-40015586D01*
X138430664Y-40015589D01*
X138602631Y-40130494D01*
X138602641Y-40130499D01*
X138793723Y-40209648D01*
X138793725Y-40209649D01*
X138850000Y-40220842D01*
X138850000Y-39250000D01*
X138050000Y-39250000D01*
X138050000Y-39303420D01*
X110164327Y-39303420D01*
X111273600Y-38953922D01*
X138750000Y-38953922D01*
X138750000Y-39046078D01*
X138773852Y-39135095D01*
X138819930Y-39214905D01*
X138885095Y-39280070D01*
X138964905Y-39326148D01*
X139053922Y-39350000D01*
X139146078Y-39350000D01*
X139235095Y-39326148D01*
X139314905Y-39280070D01*
X139350000Y-39244975D01*
X139350000Y-40220842D01*
X139406274Y-40209649D01*
X139406276Y-40209648D01*
X139597358Y-40130499D01*
X139597368Y-40130494D01*
X139769334Y-40015590D01*
X139911964Y-39872960D01*
X139973287Y-39839475D01*
X140042979Y-39844459D01*
X140087327Y-39872960D01*
X140230342Y-40015975D01*
X140230345Y-40015977D01*
X140402402Y-40130941D01*
X140593580Y-40210130D01*
X140791508Y-40249500D01*
X140796530Y-40250499D01*
X140796534Y-40250500D01*
X140796535Y-40250500D01*
X141003466Y-40250500D01*
X141003467Y-40250499D01*
X141206420Y-40210130D01*
X141397598Y-40130941D01*
X141569655Y-40015977D01*
X141715977Y-39869655D01*
X141830941Y-39697598D01*
X141910130Y-39506420D01*
X141950500Y-39303465D01*
X141950500Y-38696535D01*
X141910130Y-38493580D01*
X141830941Y-38302402D01*
X141715977Y-38130345D01*
X141715975Y-38130342D01*
X141569657Y-37984024D01*
X141398961Y-37869970D01*
X141397598Y-37869059D01*
X141206420Y-37789870D01*
X141206412Y-37789868D01*
X141003469Y-37749500D01*
X141003465Y-37749500D01*
X140796535Y-37749500D01*
X140796530Y-37749500D01*
X140593587Y-37789868D01*
X140593579Y-37789870D01*
X140402403Y-37869058D01*
X140230344Y-37984023D01*
X140087327Y-38127040D01*
X140026004Y-38160524D01*
X139956312Y-38155540D01*
X139911965Y-38127039D01*
X139769339Y-37984413D01*
X139769335Y-37984410D01*
X139597368Y-37869505D01*
X139597358Y-37869500D01*
X139406272Y-37790349D01*
X139406267Y-37790347D01*
X139350000Y-37779155D01*
X139350000Y-38755025D01*
X139314905Y-38719930D01*
X139235095Y-38673852D01*
X139146078Y-38650000D01*
X139053922Y-38650000D01*
X138964905Y-38673852D01*
X138885095Y-38719930D01*
X138819930Y-38785095D01*
X138773852Y-38864905D01*
X138750000Y-38953922D01*
X111273600Y-38953922D01*
X111367443Y-38924355D01*
X111369706Y-38923667D01*
X112143288Y-38696579D01*
X138050000Y-38696579D01*
X138050000Y-38750000D01*
X138850000Y-38750000D01*
X138850000Y-37779156D01*
X138849999Y-37779155D01*
X138793732Y-37790347D01*
X138793727Y-37790349D01*
X138602641Y-37869500D01*
X138602631Y-37869505D01*
X138430664Y-37984410D01*
X138430660Y-37984413D01*
X138284413Y-38130660D01*
X138284410Y-38130664D01*
X138169505Y-38302631D01*
X138169500Y-38302641D01*
X138090350Y-38493725D01*
X138090348Y-38493733D01*
X138050000Y-38696579D01*
X112143288Y-38696579D01*
X113225804Y-38378802D01*
X113227971Y-38378189D01*
X115094561Y-37869944D01*
X115096729Y-37869377D01*
X116972901Y-37398002D01*
X116975133Y-37397464D01*
X118860178Y-36963133D01*
X118862499Y-36962622D01*
X120755746Y-36565491D01*
X120757993Y-36565042D01*
X122658767Y-36205251D01*
X122661006Y-36204851D01*
X124568419Y-35882571D01*
X124570713Y-35882207D01*
X126484126Y-35597544D01*
X126486349Y-35597235D01*
X128405021Y-35350300D01*
X128407427Y-35350016D01*
X130330488Y-35140920D01*
X130332740Y-35140697D01*
X132259633Y-34969500D01*
X132261867Y-34969323D01*
X134191794Y-34836098D01*
X134194146Y-34835959D01*
X136126254Y-34740765D01*
X136128541Y-34740675D01*
X138062199Y-34683543D01*
X138064447Y-34683498D01*
X139998782Y-34664453D01*
X140001220Y-34664453D01*
X141935551Y-34683498D01*
G37*
%TD.AperFunction*%
%TD*%
M02*
